%TF.GenerationSoftware,KiCad,Pcbnew,9.0.4*%
%TF.CreationDate,2026-04-02T03:56:53-05:00*%
%TF.ProjectId,Up_Down_Converter,55705f44-6f77-46e5-9f43-6f6e76657274,rev?*%
%TF.SameCoordinates,Original*%
%TF.FileFunction,Copper,L3,Inr*%
%TF.FilePolarity,Positive*%
%FSLAX46Y46*%
G04 Gerber Fmt 4.6, Leading zero omitted, Abs format (unit mm)*
G04 Created by KiCad (PCBNEW 9.0.4) date 2026-04-02 03:56:53*
%MOMM*%
%LPD*%
G01*
G04 APERTURE LIST*
G04 Aperture macros list*
%AMRoundRect*
0 Rectangle with rounded corners*
0 $1 Rounding radius*
0 $2 $3 $4 $5 $6 $7 $8 $9 X,Y pos of 4 corners*
0 Add a 4 corners polygon primitive as box body*
4,1,4,$2,$3,$4,$5,$6,$7,$8,$9,$2,$3,0*
0 Add four circle primitives for the rounded corners*
1,1,$1+$1,$2,$3*
1,1,$1+$1,$4,$5*
1,1,$1+$1,$6,$7*
1,1,$1+$1,$8,$9*
0 Add four rect primitives between the rounded corners*
20,1,$1+$1,$2,$3,$4,$5,0*
20,1,$1+$1,$4,$5,$6,$7,0*
20,1,$1+$1,$6,$7,$8,$9,0*
20,1,$1+$1,$8,$9,$2,$3,0*%
G04 Aperture macros list end*
%TA.AperFunction,ComponentPad*%
%ADD10C,0.499999*%
%TD*%
%TA.AperFunction,HeatsinkPad*%
%ADD11O,1.000000X2.100000*%
%TD*%
%TA.AperFunction,HeatsinkPad*%
%ADD12O,1.000000X1.800000*%
%TD*%
%TA.AperFunction,ComponentPad*%
%ADD13C,6.400000*%
%TD*%
%TA.AperFunction,ComponentPad*%
%ADD14R,1.700000X1.700000*%
%TD*%
%TA.AperFunction,ComponentPad*%
%ADD15C,1.700000*%
%TD*%
%TA.AperFunction,ComponentPad*%
%ADD16R,1.500000X1.500000*%
%TD*%
%TA.AperFunction,ComponentPad*%
%ADD17C,1.500000*%
%TD*%
%TA.AperFunction,ComponentPad*%
%ADD18RoundRect,0.250001X-1.149999X-1.149999X1.149999X-1.149999X1.149999X1.149999X-1.149999X1.149999X0*%
%TD*%
%TA.AperFunction,ComponentPad*%
%ADD19C,2.800000*%
%TD*%
%TA.AperFunction,ViaPad*%
%ADD20C,0.600000*%
%TD*%
%TA.AperFunction,ViaPad*%
%ADD21C,0.300000*%
%TD*%
%TA.AperFunction,Conductor*%
%ADD22C,0.156000*%
%TD*%
%TA.AperFunction,Conductor*%
%ADD23C,0.200000*%
%TD*%
G04 APERTURE END LIST*
D10*
%TO.N,N/C*%
%TO.C,U4*%
X160100000Y-141220000D03*
X161199999Y-141220000D03*
X162299998Y-141220000D03*
%TD*%
D11*
%TO.N,unconnected-(J8-SHIELD-PadS1)*%
%TO.C,J8*%
X113980000Y-143600000D03*
D12*
%TO.N,unconnected-(J8-SHIELD-PadS1)_1*%
X113980000Y-147800000D03*
D11*
%TO.N,unconnected-(J8-SHIELD-PadS1)_2*%
X122620000Y-143600000D03*
D12*
%TO.N,unconnected-(J8-SHIELD-PadS1)_3*%
X122620000Y-147800000D03*
%TD*%
D13*
%TO.N,GND*%
%TO.C,H1*%
X195000000Y-55000000D03*
%TD*%
D14*
%TO.N,NSS*%
%TO.C,J1*%
X156805000Y-52000000D03*
D15*
%TO.N,SCK*%
X159345000Y-52000000D03*
%TO.N,MISO*%
X161885000Y-52000000D03*
%TO.N,MOSI*%
X164425000Y-52000000D03*
%TD*%
D16*
%TO.N,IFOUT1+*%
%TO.C,J15*%
X110000000Y-91720000D03*
D17*
%TO.N,IFOUT1-*%
X112540000Y-92990000D03*
%TO.N,IFOUT2+*%
X110000000Y-94260000D03*
%TO.N,IFOUT2-*%
X112540000Y-95530000D03*
%TO.N,IFOUT3+*%
X110000000Y-96800000D03*
%TO.N,IFOUT3-*%
X112540000Y-98070000D03*
%TO.N,IFOUT4+*%
X110000000Y-99340000D03*
%TO.N,IFOUT4-*%
X112540000Y-100610000D03*
%TD*%
D14*
%TO.N,Net-(J7-Pin_1)*%
%TO.C,J7*%
X185800000Y-52300000D03*
%TD*%
%TO.N,NSS2*%
%TO.C,J2*%
X167920000Y-147100000D03*
D15*
%TO.N,SCK2*%
X170460000Y-147100000D03*
%TO.N,MISO2*%
X173000000Y-147100000D03*
%TO.N,MOSI2*%
X175540000Y-147100000D03*
%TD*%
D13*
%TO.N,GND*%
%TO.C,H4*%
X105000000Y-145000000D03*
%TD*%
D14*
%TO.N,MRST*%
%TO.C,J5*%
X170032500Y-52200000D03*
D15*
%TO.N,MADV*%
X172572500Y-52200000D03*
%TO.N,TXRST*%
X175112500Y-52200000D03*
%TO.N,TXADV*%
X177652500Y-52200000D03*
%TO.N,+1V8*%
X180192500Y-52200000D03*
%TD*%
D14*
%TO.N,VPOS4R*%
%TO.C,J14*%
X141037500Y-52000000D03*
D15*
%TO.N,Net-(J14-Pin_2)*%
X143577500Y-52000000D03*
%TO.N,Net-(J14-Pin_3)*%
X146117500Y-52000000D03*
%TO.N,Net-(J14-Pin_4)*%
X148657500Y-52000000D03*
%TO.N,Net-(J14-Pin_5)*%
X151197500Y-52000000D03*
%TD*%
D18*
%TO.N,GND*%
%TO.C,J9*%
X131300000Y-146400000D03*
D19*
%TO.N,+BATT*%
X136300000Y-146400000D03*
%TD*%
D14*
%TO.N,NSS3*%
%TO.C,J4*%
X154220000Y-147300000D03*
D15*
%TO.N,NSS4*%
X156760000Y-147300000D03*
%TO.N,NSS5*%
X159300000Y-147300000D03*
%TO.N,NSS6*%
X161840000Y-147300000D03*
%TD*%
D13*
%TO.N,GND*%
%TO.C,H2*%
X195000000Y-145000000D03*
%TD*%
%TO.N,GND*%
%TO.C,H3*%
X105000000Y-55000000D03*
%TD*%
D20*
%TO.N,NSS*%
X138970000Y-87060000D03*
X139350000Y-79790000D03*
%TO.N,MOSI*%
X163770000Y-84870000D03*
X165810000Y-73470000D03*
%TO.N,MISO*%
X165524172Y-83361623D03*
X165224731Y-111907324D03*
X164930000Y-110450000D03*
X165490000Y-107440000D03*
X166500000Y-102510000D03*
%TO.N,GND*%
X164070000Y-72600000D03*
X161910000Y-72640000D03*
X158740000Y-72910000D03*
X156970000Y-72640000D03*
X154270000Y-72660000D03*
%TO.N,/Power/V_PREfilt*%
X136490000Y-135850000D03*
X134390000Y-130340000D03*
%TO.N,IFOUT3-*%
X118245680Y-96865000D03*
%TO.N,IFOUT3+*%
X118245680Y-96015000D03*
%TO.N,IFOUT3-*%
X151090000Y-97795000D03*
%TO.N,IFOUT3+*%
X151090000Y-96945000D03*
X165540521Y-99259479D03*
%TO.N,IFOUT3-*%
X164939479Y-99860521D03*
%TO.N,IFOUT3+*%
X166721549Y-111436549D03*
%TO.N,IFOUT3-*%
X165871549Y-111436549D03*
%TO.N,IFOUT4-*%
X126660000Y-101705000D03*
%TO.N,IFOUT4+*%
X126660000Y-100855000D03*
%TO.N,IFOUT4-*%
X153420000Y-100425000D03*
%TO.N,IFOUT4+*%
X153420000Y-99575000D03*
%TO.N,IFOUT2-*%
X121300000Y-98295000D03*
%TO.N,IFOUT2+*%
X121300000Y-99145000D03*
%TO.N,IFOUT2-*%
X139465000Y-116270000D03*
%TO.N,IFOUT2+*%
X138615000Y-116270000D03*
%TO.N,IFOUT1-*%
X138030521Y-117029479D03*
%TO.N,IFOUT1+*%
X137429479Y-117630521D03*
%TO.N,MOSI*%
X163570000Y-110820000D03*
X160383798Y-108746692D03*
X159330000Y-106630000D03*
X156822418Y-103682609D03*
X155550000Y-87630000D03*
X151707242Y-84933272D03*
%TO.N,SCK*%
X162630000Y-111100000D03*
X161280000Y-109170000D03*
X157550000Y-103350000D03*
X151870000Y-84150000D03*
X155950000Y-86800000D03*
%TO.N,VCC*%
X143870000Y-97720000D03*
X144840000Y-91590000D03*
X141480000Y-88640000D03*
X134670000Y-91630000D03*
%TO.N,+5V*%
X134240000Y-118980000D03*
X132800000Y-121550000D03*
%TO.N,VCC*%
X134210000Y-96030000D03*
%TO.N,GND*%
X126870000Y-129470000D03*
X123640000Y-127190000D03*
X125880000Y-128950000D03*
X124900000Y-129010000D03*
X124030000Y-129100000D03*
X158590000Y-138690000D03*
X157610000Y-138710000D03*
X156620000Y-138900000D03*
X156620000Y-139930000D03*
X156620000Y-140800000D03*
X163200000Y-139590000D03*
X158970000Y-142940000D03*
X157860000Y-143000000D03*
X156700000Y-142850000D03*
X156660000Y-141780000D03*
X114890000Y-132490000D03*
X108780000Y-130520000D03*
X108480000Y-134000000D03*
%TO.N,+3.3V*%
X113620000Y-127810000D03*
X118560000Y-124300000D03*
%TO.N,GND*%
X133350000Y-135300000D03*
X132460000Y-135280000D03*
X131590000Y-135300000D03*
X130560000Y-135310000D03*
X129590000Y-135280000D03*
X128210000Y-135280000D03*
X127090000Y-135280000D03*
X122130000Y-135140000D03*
%TO.N,+1V8*%
X167710000Y-109920000D03*
X158390000Y-122950000D03*
%TO.N,GND*%
X160610000Y-137690000D03*
X167470000Y-126380000D03*
X155950000Y-117570000D03*
X153440000Y-118030000D03*
X136770000Y-133790000D03*
X137320000Y-132220000D03*
X138140000Y-129950000D03*
X142670000Y-128300000D03*
X145780000Y-136560000D03*
X145790000Y-137330000D03*
X144770000Y-137380000D03*
X143800000Y-137350000D03*
X142860000Y-137350000D03*
D21*
X197297301Y-97579653D03*
D20*
X170690000Y-113570000D03*
D21*
X196616759Y-87524653D03*
X187087301Y-106309653D03*
D20*
X146920000Y-93460000D03*
X182050000Y-72820000D03*
D21*
X188706759Y-67544653D03*
D20*
X176790000Y-107810000D03*
D21*
X189467301Y-107699653D03*
D20*
X170900000Y-123780000D03*
X179720000Y-123150000D03*
X138100000Y-132300000D03*
X145610000Y-93870000D03*
X160060000Y-112840000D03*
X159500000Y-110940000D03*
D21*
X190997301Y-97579653D03*
D20*
X174680000Y-87030000D03*
X182730000Y-134180000D03*
X171590000Y-76920000D03*
D21*
X193057843Y-117554653D03*
D20*
X160890000Y-129190000D03*
D21*
X193816759Y-62344653D03*
D20*
X170630000Y-74340000D03*
D21*
X191016759Y-82524653D03*
X197977301Y-127679653D03*
D20*
X156500000Y-84130000D03*
X182450000Y-124350000D03*
X180740000Y-75700000D03*
X178070000Y-96200000D03*
D21*
X192357843Y-137734653D03*
D20*
X180360000Y-94310000D03*
D21*
X195216759Y-87524653D03*
X187897301Y-97079653D03*
X186357843Y-113764653D03*
D20*
X157750000Y-81140000D03*
D21*
X197977301Y-102499653D03*
X195157843Y-137734653D03*
X187916759Y-83724653D03*
D20*
X160900000Y-78520000D03*
X168370000Y-91800000D03*
X159880000Y-80770000D03*
D21*
X193057843Y-137734653D03*
D20*
X169190000Y-79510000D03*
D21*
X195916759Y-87524653D03*
X191667301Y-127679653D03*
D20*
X166330000Y-74960000D03*
D21*
X186416759Y-63554653D03*
D20*
X169860000Y-93290000D03*
D21*
X198677301Y-102499653D03*
X185567843Y-116364653D03*
X186416759Y-83734653D03*
D20*
X181210000Y-136300000D03*
D21*
X187867843Y-116364653D03*
X189506759Y-87724653D03*
D20*
X147670000Y-91070000D03*
X176330000Y-78650000D03*
D21*
X198016759Y-82524653D03*
X188716759Y-62144653D03*
D20*
X178910000Y-94300000D03*
X168050000Y-83390000D03*
D21*
X189497301Y-72199653D03*
D20*
X173220000Y-86680000D03*
D21*
X190216759Y-82324653D03*
D20*
X182750000Y-102860000D03*
X169710000Y-136330000D03*
X172940000Y-86010000D03*
D21*
X199357843Y-112554653D03*
X199416759Y-82524653D03*
D20*
X171390000Y-91810000D03*
X167480000Y-90590000D03*
X176220000Y-68680000D03*
X171590000Y-108060000D03*
D21*
X191706759Y-82524653D03*
X193797301Y-92579653D03*
D20*
X179360000Y-116470000D03*
D21*
X194516759Y-62344653D03*
X187857843Y-113054653D03*
D20*
X183130000Y-65980000D03*
X160870000Y-123130000D03*
D21*
X187057843Y-113754653D03*
D20*
X173750000Y-126700000D03*
D21*
X190197301Y-92379653D03*
X190957843Y-117554653D03*
D20*
X173090000Y-67800000D03*
D21*
X194477301Y-127679653D03*
X194477301Y-107499653D03*
D20*
X172800000Y-124290000D03*
D21*
X191687301Y-72399653D03*
D20*
X147510000Y-93070000D03*
X157600000Y-105760000D03*
D21*
X193757843Y-132734653D03*
X193797301Y-72399653D03*
D20*
X147010000Y-98250000D03*
D21*
X188657843Y-112354653D03*
D20*
X173930000Y-120180000D03*
D21*
X185587301Y-126489653D03*
D20*
X167060000Y-81060000D03*
D21*
X193097301Y-92579653D03*
D20*
X171050000Y-125780000D03*
X180740000Y-73620000D03*
X163560000Y-121000000D03*
D21*
X197977301Y-107499653D03*
D20*
X177410000Y-96190000D03*
X155360000Y-107840000D03*
X161720000Y-78340000D03*
X170130000Y-114130000D03*
X177320000Y-77500000D03*
X182170000Y-65990000D03*
X178980000Y-103790000D03*
D21*
X197277301Y-102499653D03*
X196577301Y-102499653D03*
D20*
X179940000Y-75710000D03*
X173820000Y-105830000D03*
X175780000Y-136270000D03*
D21*
X191706759Y-67344653D03*
D20*
X149800000Y-99230000D03*
D21*
X195916759Y-62344653D03*
X195897301Y-92579653D03*
D20*
X169060000Y-134180000D03*
X176660000Y-104690000D03*
X174360000Y-127140000D03*
D21*
X184926759Y-66154653D03*
D20*
X163010000Y-128400000D03*
D21*
X184897301Y-73599653D03*
D20*
X169130000Y-90100000D03*
X182600000Y-125960000D03*
D21*
X197297301Y-77399653D03*
D20*
X166980000Y-136080000D03*
D21*
X199150000Y-117554653D03*
D20*
X165620000Y-132400000D03*
D21*
X187126759Y-66154653D03*
X189487301Y-97779653D03*
X189457843Y-112354653D03*
X196557843Y-112554653D03*
D20*
X179800000Y-63680000D03*
D21*
X195177301Y-102499653D03*
X197997301Y-72399653D03*
X199180000Y-127680000D03*
D20*
X161900000Y-119550000D03*
X182280000Y-96220000D03*
X159980000Y-112190000D03*
X175370000Y-86810000D03*
X173820000Y-115250000D03*
X158320000Y-80460000D03*
D21*
X190177301Y-122479653D03*
D20*
X167700000Y-120750000D03*
X168770000Y-89540000D03*
D21*
X187857843Y-132534653D03*
D20*
X163320000Y-133120000D03*
X171820000Y-134200000D03*
X169360000Y-82250000D03*
X146570000Y-92030000D03*
X168090000Y-73130000D03*
D21*
X195897301Y-77399653D03*
X195857843Y-112554653D03*
D20*
X175180000Y-134180000D03*
D21*
X195197301Y-77399653D03*
D20*
X174660000Y-111690000D03*
X170060000Y-91150000D03*
D21*
X187877301Y-102999653D03*
D20*
X181200000Y-83560000D03*
D21*
X186377301Y-103709653D03*
D20*
X172370000Y-79990000D03*
X175100000Y-79360000D03*
X183390000Y-134190000D03*
D21*
X192416759Y-62344653D03*
X188667301Y-107699653D03*
X193757843Y-137734653D03*
D20*
X174550000Y-115340000D03*
X142900000Y-127500000D03*
X182340000Y-102290000D03*
X169710000Y-125040000D03*
D21*
X187897301Y-93779653D03*
X193116759Y-67344653D03*
X189487301Y-77599653D03*
D20*
X168730000Y-72580000D03*
D21*
X191687301Y-97579653D03*
D20*
X166900000Y-124600000D03*
X177270000Y-119350000D03*
D21*
X198016759Y-67344653D03*
D20*
X165554966Y-120855034D03*
X177050000Y-136260000D03*
X163020000Y-123150000D03*
X180160000Y-86200000D03*
D21*
X185597301Y-73599653D03*
X193077301Y-122679653D03*
X196557843Y-132734653D03*
X188706759Y-87724653D03*
X192397301Y-97579653D03*
D20*
X178610000Y-74270000D03*
X176090000Y-115680000D03*
X170300000Y-93750000D03*
X146270000Y-93740000D03*
X147930000Y-92650000D03*
D21*
X187877301Y-123179653D03*
D20*
X157050000Y-83600000D03*
D21*
X190147843Y-137934653D03*
X198697301Y-92579653D03*
X192377301Y-122679653D03*
X190167301Y-127879653D03*
X192357843Y-132734653D03*
D20*
X176740000Y-134200000D03*
X159843407Y-109336592D03*
D21*
X197257843Y-137734653D03*
D20*
X173770000Y-134180000D03*
X172420000Y-120170000D03*
X152020000Y-103300000D03*
X180630000Y-134180000D03*
X152620000Y-88020000D03*
D21*
X190957843Y-132734653D03*
D20*
X172480000Y-95530000D03*
X169890000Y-79470000D03*
X169340000Y-92820000D03*
D21*
X188657843Y-132534653D03*
D20*
X176400000Y-136260000D03*
D21*
X196577301Y-127679653D03*
X190957843Y-137734653D03*
D20*
X157220000Y-108410000D03*
D21*
X196597301Y-72399653D03*
X191706759Y-62344653D03*
X187916759Y-66844653D03*
X187867301Y-127879653D03*
D20*
X155190000Y-83620000D03*
D21*
X189516759Y-82324653D03*
X188687301Y-77599653D03*
X187107301Y-76209653D03*
D20*
X166080000Y-132810000D03*
D21*
X194497301Y-77399653D03*
X186407301Y-76219653D03*
X185616759Y-63544653D03*
X197297301Y-72399653D03*
D20*
X168630000Y-124030000D03*
X170940000Y-80490000D03*
X155660000Y-83210000D03*
X183920000Y-94270000D03*
X170270000Y-80890000D03*
X175030000Y-76390000D03*
X170060000Y-110460000D03*
X182980000Y-114320000D03*
X177100000Y-74650000D03*
X180090000Y-127060000D03*
D21*
X191667301Y-102499653D03*
X190187301Y-97779653D03*
X185557843Y-133934653D03*
D20*
X150100000Y-101350000D03*
X180520000Y-118090000D03*
D21*
X189477301Y-122479653D03*
D20*
X163100000Y-129090000D03*
X173500000Y-124300000D03*
D21*
X199397301Y-92579653D03*
D20*
X181390000Y-134220000D03*
X172310000Y-76670000D03*
X176710000Y-96160000D03*
D21*
X187926759Y-66154653D03*
D20*
X179840000Y-136290000D03*
D21*
X189457843Y-132534653D03*
D20*
X183290000Y-73940000D03*
D21*
X195197301Y-97579653D03*
X187906759Y-67544653D03*
D20*
X176250000Y-108500000D03*
X183970000Y-65920000D03*
X156260000Y-107520000D03*
D21*
X187897301Y-93079653D03*
X186397301Y-93789653D03*
D20*
X180140000Y-115970000D03*
D21*
X192397301Y-72399653D03*
D20*
X156180000Y-82720000D03*
X181530000Y-114880000D03*
D21*
X198716759Y-87524653D03*
D20*
X181000000Y-94300000D03*
X178230000Y-94290000D03*
X160820000Y-124510000D03*
X177320000Y-123240000D03*
X181350000Y-106060000D03*
X181530000Y-86740000D03*
D21*
X192416759Y-82524653D03*
D20*
X160100000Y-114940000D03*
X178750000Y-96210000D03*
X184040000Y-75730000D03*
D21*
X198657843Y-112554653D03*
D20*
X167640000Y-136250000D03*
X145840000Y-92340000D03*
D21*
X188647843Y-117754653D03*
D20*
X174790000Y-94200000D03*
X176360000Y-110000000D03*
D21*
X187887301Y-97779653D03*
D20*
X176880000Y-127230000D03*
X150880000Y-89810000D03*
X167040000Y-122390000D03*
X172470000Y-85410000D03*
X177430000Y-86450000D03*
D21*
X191667301Y-122679653D03*
X192377301Y-107499653D03*
D20*
X158440000Y-82140000D03*
X176830000Y-78070000D03*
D21*
X190177301Y-102299653D03*
D20*
X168110000Y-85290000D03*
D21*
X195216759Y-62344653D03*
D20*
X169500000Y-75360000D03*
D21*
X193077301Y-127679653D03*
D20*
X149850000Y-90740000D03*
X171080000Y-119920000D03*
X171850000Y-95110000D03*
X164740000Y-134550000D03*
X181230000Y-72900000D03*
X171720000Y-80420000D03*
D21*
X185607301Y-76209653D03*
D20*
X169170000Y-124530000D03*
X177060000Y-64670000D03*
X175740000Y-79090000D03*
D21*
X194457843Y-117554653D03*
D20*
X179830000Y-83400000D03*
X160850000Y-127250000D03*
X151400000Y-87490000D03*
X171730000Y-136310000D03*
X181230000Y-66030000D03*
X163680000Y-126300000D03*
X178180000Y-123140000D03*
X146300000Y-95720000D03*
D21*
X187907301Y-96389653D03*
X199170000Y-122679653D03*
D20*
X164740000Y-81060000D03*
X176990000Y-84210000D03*
D21*
X193797301Y-97579653D03*
D20*
X156460000Y-104700000D03*
X177400000Y-104210000D03*
X161030000Y-129830000D03*
D21*
X194457843Y-137734653D03*
X197277301Y-122679653D03*
X199416759Y-62344653D03*
X190957843Y-112554653D03*
D20*
X177740000Y-84190000D03*
X147550000Y-98820000D03*
D21*
X186387301Y-126499653D03*
X193116759Y-82524653D03*
X188716759Y-82324653D03*
X190147843Y-117754653D03*
X187877301Y-102299653D03*
D20*
X172080000Y-107500000D03*
X150320000Y-90260000D03*
X172770000Y-113330000D03*
D21*
X195897301Y-97579653D03*
D20*
X176040000Y-96150000D03*
X175130000Y-136290000D03*
X182510000Y-136320000D03*
X166000000Y-75730000D03*
X171970000Y-84890000D03*
D21*
X195197301Y-92579653D03*
D20*
X169190000Y-80330000D03*
D21*
X195877301Y-122679653D03*
D20*
X162830000Y-132650000D03*
X165860000Y-76460000D03*
X154250000Y-103660000D03*
D21*
X187097301Y-73599653D03*
X198657843Y-137734653D03*
X187107301Y-96389653D03*
D20*
X171480000Y-124040000D03*
X173800000Y-67400000D03*
X172110000Y-93200000D03*
X181600000Y-75570000D03*
X148580000Y-90150000D03*
X169290000Y-118530000D03*
D21*
X187897301Y-76899653D03*
D20*
X170690000Y-118540000D03*
X166060000Y-121380000D03*
X172130000Y-124240000D03*
X175620000Y-123110000D03*
X179240000Y-127200000D03*
X180850000Y-115320000D03*
X170730000Y-119260000D03*
X182910000Y-73100000D03*
X160910000Y-122360000D03*
X153740000Y-85040000D03*
X170500000Y-70710000D03*
X178070000Y-106690000D03*
D21*
X187877301Y-123879653D03*
D20*
X151680000Y-88870000D03*
D21*
X198697301Y-97579653D03*
D20*
X172820000Y-83410000D03*
X174370000Y-79430000D03*
X179110000Y-75910000D03*
X168090000Y-84700000D03*
D21*
X198657843Y-132734653D03*
D20*
X148130000Y-90610000D03*
D21*
X185557843Y-113754653D03*
D20*
X177620000Y-116880000D03*
X164110000Y-130960000D03*
D21*
X199210000Y-102490000D03*
D20*
X159360000Y-79400000D03*
X161600000Y-79640000D03*
X173670000Y-112730000D03*
D21*
X186426759Y-66164653D03*
D20*
X170800000Y-81380000D03*
X176420000Y-109330000D03*
D21*
X187087301Y-126489653D03*
D20*
X164406167Y-117993833D03*
X165150000Y-131910000D03*
D21*
X192416759Y-67344653D03*
D20*
X174630000Y-96110000D03*
D21*
X187077301Y-103699653D03*
X184926759Y-86334653D03*
D20*
X169090000Y-115130000D03*
D21*
X187857843Y-133234653D03*
D20*
X176200000Y-74380000D03*
X151830000Y-87010000D03*
D21*
X187857843Y-113754653D03*
X189447843Y-137934653D03*
D20*
X182100000Y-134200000D03*
X184080000Y-63520000D03*
D21*
X197977301Y-122679653D03*
D20*
X179600000Y-106170000D03*
D21*
X193777301Y-127679653D03*
D20*
X178710000Y-106270000D03*
X149590000Y-89290000D03*
X173680000Y-79460000D03*
X166600000Y-88450000D03*
X180060000Y-74020000D03*
D21*
X187116759Y-63544653D03*
D20*
X170380000Y-136330000D03*
D21*
X193757843Y-112554653D03*
D20*
X171000000Y-69390000D03*
D21*
X186367843Y-116374653D03*
D20*
X174170000Y-83540000D03*
X160406304Y-109934814D03*
D21*
X195916759Y-82524653D03*
X198657843Y-117554653D03*
D20*
X176890000Y-86940000D03*
D21*
X190997301Y-72399653D03*
D20*
X171710000Y-92500000D03*
D21*
X190977301Y-127679653D03*
X193057843Y-132734653D03*
X196597301Y-92579653D03*
D20*
X180920000Y-127180000D03*
X166860000Y-89430000D03*
D21*
X197316759Y-62344653D03*
D20*
X175270000Y-111060000D03*
X144520000Y-92710000D03*
X160960000Y-121520000D03*
D21*
X195197301Y-72399653D03*
D20*
X181830000Y-117010000D03*
X182320000Y-86490000D03*
D21*
X184887301Y-126489653D03*
D20*
X151090000Y-102330000D03*
D21*
X193097301Y-77399653D03*
D20*
X177570000Y-94280000D03*
X169230000Y-116860000D03*
X177470000Y-107240000D03*
D21*
X184877301Y-123879653D03*
D20*
X174600000Y-105610000D03*
X159110000Y-110380000D03*
D21*
X186357843Y-133944653D03*
D20*
X147140000Y-91570000D03*
X151810000Y-101250000D03*
X163670000Y-125540000D03*
D21*
X195157843Y-117554653D03*
D20*
X145310000Y-94650000D03*
X166560000Y-121860000D03*
X171210000Y-94660000D03*
X145380000Y-96580000D03*
X160350000Y-80290000D03*
X152210000Y-88490000D03*
X180500000Y-83290000D03*
X148190000Y-99400000D03*
X181610000Y-63500000D03*
X154300000Y-106700000D03*
D21*
X184887301Y-106309653D03*
D20*
X168060000Y-86050000D03*
D21*
X185626759Y-66154653D03*
D20*
X172110000Y-115490000D03*
D21*
X193097301Y-97579653D03*
X194516759Y-82524653D03*
D20*
X173160000Y-106340000D03*
D21*
X187867843Y-136544653D03*
D20*
X153730000Y-103140000D03*
X155430000Y-85140000D03*
D21*
X190977301Y-107499653D03*
X187857843Y-117054653D03*
D20*
X184020000Y-134220000D03*
X182370000Y-84180000D03*
X157050000Y-106500000D03*
X169980000Y-111380000D03*
X160080000Y-113530000D03*
X183920000Y-106170000D03*
X166550000Y-133240000D03*
X182100000Y-126450000D03*
D21*
X186377301Y-123889653D03*
X187847843Y-117754653D03*
X186367843Y-136554653D03*
D20*
X177960000Y-85840000D03*
D21*
X184877301Y-103699653D03*
X198677301Y-122679653D03*
D20*
X173140000Y-136300000D03*
D21*
X187926759Y-86334653D03*
D20*
X183200000Y-94290000D03*
D21*
X199416759Y-87524653D03*
D20*
X154270000Y-84630000D03*
X138100000Y-130800000D03*
D21*
X194497301Y-72399653D03*
D20*
X178230000Y-118550000D03*
X183040000Y-96200000D03*
D21*
X196597301Y-97579653D03*
D20*
X166790000Y-74320000D03*
X170260000Y-80080000D03*
X178370000Y-127150000D03*
D21*
X186387301Y-106319653D03*
D20*
X178160000Y-103950000D03*
D21*
X187857843Y-112354653D03*
X199397301Y-72399653D03*
D20*
X160850000Y-128550000D03*
D21*
X195857843Y-132734653D03*
D20*
X181680000Y-84180000D03*
D21*
X187126759Y-86334653D03*
X194516759Y-67344653D03*
D20*
X177630000Y-134180000D03*
X164250000Y-134060000D03*
X169970000Y-74830000D03*
X160840000Y-126570000D03*
X180530000Y-136290000D03*
X150020000Y-88820000D03*
D21*
X197957843Y-117554653D03*
X187077301Y-123879653D03*
D20*
X162532334Y-116120000D03*
X182980000Y-103860000D03*
D21*
X195157843Y-112554653D03*
D20*
X179060000Y-66520000D03*
D21*
X188697301Y-72199653D03*
D20*
X166360000Y-85220000D03*
X163400000Y-124940000D03*
D21*
X197316759Y-82524653D03*
X197997301Y-77399653D03*
X192357843Y-117554653D03*
D20*
X181870000Y-136310000D03*
X168030000Y-86840000D03*
D21*
X193777301Y-107499653D03*
D20*
X170010000Y-118520000D03*
D21*
X193816759Y-87524653D03*
X197957843Y-112554653D03*
D20*
X168380000Y-134120000D03*
D21*
X198697301Y-77399653D03*
D20*
X173350000Y-93900000D03*
X183990000Y-125960000D03*
D21*
X197277301Y-127679653D03*
X193077301Y-102499653D03*
D20*
X160020000Y-78830000D03*
D21*
X193757843Y-117554653D03*
X185577301Y-103699653D03*
D20*
X183960000Y-124340000D03*
X155610000Y-105080000D03*
D21*
X184916759Y-63544653D03*
X195857843Y-137734653D03*
D20*
X169860000Y-71370000D03*
X153540000Y-87030000D03*
X183160000Y-136310000D03*
X179450000Y-96220000D03*
D21*
X197957843Y-132734653D03*
D20*
X154730000Y-104130000D03*
X155980000Y-84640000D03*
D21*
X193097301Y-72399653D03*
D20*
X170380000Y-125510000D03*
X183850000Y-115860000D03*
X175350000Y-105620000D03*
X170710000Y-91480000D03*
X158840000Y-80030000D03*
D21*
X187857843Y-137234653D03*
D20*
X170870000Y-76930000D03*
X174750000Y-123720000D03*
D21*
X187906759Y-87724653D03*
D20*
X183190000Y-84200000D03*
X145810000Y-95190000D03*
X174460000Y-134240000D03*
X173580000Y-72130000D03*
X176870000Y-94250000D03*
X163660000Y-130400000D03*
X177740000Y-136320000D03*
X168220000Y-121270000D03*
X157670000Y-108900000D03*
X161480000Y-131060000D03*
X152850000Y-118520000D03*
X168780000Y-121770000D03*
D21*
X187916759Y-87024653D03*
D20*
X175280000Y-115240000D03*
X171800000Y-82400000D03*
X170770000Y-94210000D03*
D21*
X190997301Y-77399653D03*
D20*
X158950000Y-108360000D03*
X167040000Y-133640000D03*
X154670000Y-84130000D03*
D21*
X185567843Y-136544653D03*
X189497301Y-92379653D03*
D20*
X177000000Y-120070000D03*
X183370000Y-63480000D03*
X166330000Y-84550000D03*
X174890000Y-75400000D03*
X179480000Y-85840000D03*
D21*
X197277301Y-107499653D03*
D20*
X169830000Y-116240000D03*
X174880000Y-70060000D03*
X168100000Y-87600000D03*
X178910000Y-63780000D03*
X180560000Y-102300000D03*
X167150000Y-89970000D03*
D21*
X187067843Y-116364653D03*
X193057843Y-112554653D03*
X187916759Y-63544653D03*
D20*
X173140000Y-134190000D03*
X182390000Y-75590000D03*
X148920000Y-91720000D03*
D21*
X198697301Y-72399653D03*
D20*
X160940000Y-79900000D03*
X177460000Y-118650000D03*
X173400000Y-126170000D03*
X153910000Y-105120000D03*
X182440000Y-94310000D03*
X154850000Y-106060000D03*
D21*
X187916759Y-62844653D03*
D20*
X167910000Y-91250000D03*
D21*
X189506759Y-67544653D03*
D20*
X157980000Y-107420000D03*
D21*
X193797301Y-77399653D03*
D20*
X176400000Y-123200000D03*
X180610000Y-123300000D03*
D21*
X192397301Y-77399653D03*
X194457843Y-132734653D03*
D20*
X168260000Y-88280000D03*
X162480000Y-78320000D03*
X178700000Y-85850000D03*
X174200000Y-124360000D03*
D21*
X187897301Y-73599653D03*
X191647843Y-117554653D03*
D20*
X171100000Y-73810000D03*
X166320000Y-83930000D03*
D21*
X198716759Y-82524653D03*
X187916759Y-62144653D03*
X191647843Y-132734653D03*
D20*
X153150000Y-87470000D03*
X175750000Y-82940000D03*
X183110000Y-116010000D03*
D21*
X184916759Y-83724653D03*
D20*
X183760000Y-96180000D03*
X176040000Y-127070000D03*
D21*
X186407301Y-96399653D03*
D20*
X168090000Y-123490000D03*
X166630000Y-119640000D03*
X163280000Y-129800000D03*
D21*
X187867301Y-107699653D03*
D20*
X158000000Y-82670000D03*
X170390000Y-83280000D03*
X152470000Y-103730000D03*
D21*
X191647843Y-137734653D03*
D20*
X172460000Y-136310000D03*
X181120000Y-123810000D03*
X181700000Y-94290000D03*
X174470000Y-136290000D03*
X180200000Y-96220000D03*
D21*
X189477301Y-102299653D03*
D20*
X143870000Y-92720000D03*
X166280000Y-116120000D03*
X170090000Y-109700000D03*
X183790000Y-136300000D03*
D21*
X197257843Y-117554653D03*
D20*
X178030000Y-64120000D03*
X157510000Y-106980000D03*
X173170000Y-120070000D03*
X169400000Y-112010000D03*
D21*
X185607301Y-96389653D03*
D20*
X170970000Y-83860000D03*
X182250000Y-106070000D03*
X175440000Y-69430000D03*
X183230000Y-75710000D03*
X176100000Y-87060000D03*
X153460000Y-104630000D03*
X157540000Y-83090000D03*
X160820000Y-125150000D03*
X153010000Y-104170000D03*
X161270000Y-120750000D03*
D21*
X188697301Y-92379653D03*
X190997301Y-92579653D03*
D20*
X159410000Y-81210000D03*
X168870000Y-112540000D03*
D21*
X190187301Y-77599653D03*
D20*
X175150000Y-127180000D03*
X173910000Y-96030000D03*
X179910000Y-102890000D03*
D21*
X187897301Y-72199653D03*
D20*
X160870000Y-125860000D03*
X174870000Y-83000000D03*
X175430000Y-120250000D03*
D21*
X185587301Y-106309653D03*
D20*
X153250000Y-102660000D03*
X149290000Y-98770000D03*
X166360000Y-86730000D03*
X179120000Y-134230000D03*
D21*
X197257843Y-112554653D03*
X195877301Y-107499653D03*
D20*
X161330000Y-112130000D03*
D21*
X187887301Y-106309653D03*
D20*
X145200000Y-92590000D03*
X171330000Y-115250000D03*
X177810000Y-76880000D03*
X171050000Y-108560000D03*
X183170000Y-106210000D03*
X170430000Y-108980000D03*
D21*
X199357843Y-137734653D03*
D20*
X182340000Y-116450000D03*
D21*
X187916759Y-83024653D03*
D20*
X161860000Y-131630000D03*
D21*
X198716759Y-67344653D03*
X193777301Y-102499653D03*
X196557843Y-117554653D03*
D20*
X168110000Y-84060000D03*
D21*
X198677301Y-107499653D03*
X197316759Y-67344653D03*
X187877301Y-106999653D03*
X195177301Y-107499653D03*
X187057843Y-133934653D03*
X187877301Y-103699653D03*
D20*
X144320000Y-95580000D03*
X148840000Y-98270000D03*
D21*
X190206759Y-67544653D03*
D20*
X144850000Y-96030000D03*
D21*
X197957843Y-137734653D03*
X196557843Y-137734653D03*
X190197301Y-72199653D03*
X191667301Y-107499653D03*
D20*
X183900000Y-103800000D03*
X169820000Y-122760000D03*
X167700000Y-133950000D03*
D21*
X184907301Y-76209653D03*
D20*
X174050000Y-71490000D03*
D21*
X199397301Y-97579653D03*
D20*
X171350000Y-68530000D03*
X174070000Y-94120000D03*
X170300000Y-123290000D03*
X174570000Y-66700000D03*
X178480000Y-116850000D03*
D21*
X188677301Y-102299653D03*
X193116759Y-62344653D03*
X194457843Y-112554653D03*
D20*
X158470000Y-107890000D03*
D21*
X195216759Y-82524653D03*
D20*
X155160000Y-104600000D03*
X183340000Y-85820000D03*
D21*
X196597301Y-77399653D03*
X187067843Y-136544653D03*
D20*
X174740000Y-120110000D03*
X175980000Y-110600000D03*
D21*
X187097301Y-93779653D03*
X188647843Y-137934653D03*
D20*
X169290000Y-122250000D03*
X183300000Y-125950000D03*
D21*
X199220000Y-107500000D03*
D20*
X176380000Y-116530000D03*
D21*
X187916759Y-82324653D03*
D20*
X176270000Y-120310000D03*
D21*
X197997301Y-92579653D03*
X184867843Y-136544653D03*
D20*
X173560000Y-77370000D03*
X183980000Y-84220000D03*
D21*
X194497301Y-92579653D03*
D20*
X158160000Y-109400000D03*
X179110000Y-136280000D03*
X179160000Y-83900000D03*
X169580000Y-90640000D03*
D21*
X192397301Y-92579653D03*
D20*
X163780000Y-133610000D03*
X180140000Y-66140000D03*
X169020000Y-75910000D03*
X176500000Y-83620000D03*
X171320000Y-81900000D03*
X157220000Y-81670000D03*
D21*
X197997301Y-97579653D03*
D20*
X183750000Y-114160000D03*
X167450000Y-73660000D03*
X169300000Y-71940000D03*
D21*
X190206759Y-87724653D03*
X190167301Y-107699653D03*
D20*
X168490000Y-88940000D03*
X157620000Y-110010000D03*
X181200000Y-117560000D03*
X178390000Y-136270000D03*
D21*
X190157843Y-112354653D03*
D20*
X149080000Y-89710000D03*
D21*
X187907301Y-76209653D03*
D20*
X172320000Y-82920000D03*
D21*
X193116759Y-87524653D03*
D20*
X180300000Y-106050000D03*
X172660000Y-125990000D03*
X174160000Y-112210000D03*
D21*
X190157843Y-132534653D03*
D20*
X168830000Y-92320000D03*
X168550000Y-76440000D03*
D21*
X191687301Y-92579653D03*
D20*
X172910000Y-115210000D03*
X176200000Y-94240000D03*
X184010000Y-85890000D03*
D21*
X187887301Y-77599653D03*
X190977301Y-102499653D03*
D20*
X168330000Y-113100000D03*
D21*
X184857843Y-113754653D03*
D20*
X156670000Y-107970000D03*
D21*
X184907301Y-96389653D03*
D20*
X179780000Y-118420000D03*
X177010000Y-67930000D03*
D21*
X195177301Y-127679653D03*
X190216759Y-62144653D03*
D20*
X167550000Y-122940000D03*
X182440000Y-63480000D03*
D21*
X195877301Y-127679653D03*
X189516759Y-62144653D03*
D20*
X156680000Y-82170000D03*
X174370000Y-70710000D03*
X168520000Y-118430000D03*
X169030000Y-136330000D03*
D21*
X192357843Y-112554653D03*
D20*
X161180000Y-130480000D03*
D21*
X191647843Y-112554653D03*
X191687301Y-77399653D03*
D20*
X163010000Y-124420000D03*
X172100000Y-67970000D03*
X160835123Y-110584394D03*
X181540000Y-96200000D03*
X161490000Y-120110000D03*
D21*
X187877301Y-127179653D03*
X186397301Y-73609653D03*
D20*
X181500000Y-110100000D03*
D21*
X196616759Y-82524653D03*
D20*
X162310000Y-79530000D03*
X163020000Y-122390000D03*
X166320000Y-83280000D03*
D21*
X193816759Y-82524653D03*
X184867843Y-116364653D03*
D20*
X151580000Y-102780000D03*
X164660000Y-131410000D03*
X173190000Y-95810000D03*
D21*
X189447843Y-117754653D03*
X187887301Y-126489653D03*
X195857843Y-117554653D03*
X191016759Y-87524653D03*
D20*
X152300000Y-101730000D03*
D21*
X199170000Y-132730000D03*
D20*
X171580000Y-73260000D03*
D21*
X185577301Y-123879653D03*
X199397301Y-77399653D03*
X187857843Y-133934653D03*
X185597301Y-93779653D03*
X198016759Y-62344653D03*
D20*
X181520000Y-102110000D03*
X167060000Y-78740000D03*
D21*
X196616759Y-67344653D03*
D20*
X164740000Y-78740000D03*
X179760000Y-103730000D03*
X179610000Y-94310000D03*
D21*
X185626759Y-86334653D03*
D20*
X173890000Y-87010000D03*
D21*
X189467301Y-127879653D03*
D20*
X159800000Y-111520000D03*
X177970000Y-67080000D03*
X178330000Y-134250000D03*
X163010000Y-123770000D03*
X160870000Y-123860000D03*
X163230000Y-121640000D03*
D21*
X198016759Y-87524653D03*
X194477301Y-102499653D03*
D20*
X158960000Y-81700000D03*
D21*
X195877301Y-102499653D03*
D20*
X169760000Y-134200000D03*
X170460000Y-134130000D03*
X176020000Y-105210000D03*
X176110000Y-65200000D03*
X171050000Y-136300000D03*
X175960000Y-134180000D03*
D21*
X193077301Y-107499653D03*
D20*
X150610000Y-101830000D03*
D21*
X190977301Y-122679653D03*
D20*
X178480000Y-84190000D03*
X160090000Y-114260000D03*
X172710000Y-107110000D03*
X181700000Y-127020000D03*
D21*
X191016759Y-67344653D03*
D20*
X171020000Y-70180000D03*
D21*
X187847843Y-137934653D03*
D20*
X167190000Y-120210000D03*
X166420000Y-87590000D03*
X169850000Y-82790000D03*
X174270000Y-77670000D03*
X149360000Y-91200000D03*
X175480000Y-94260000D03*
X170170000Y-76810000D03*
X172950000Y-79480000D03*
D21*
X196577301Y-107499653D03*
X187897301Y-92379653D03*
D20*
X166340000Y-85980000D03*
D21*
X196577301Y-122679653D03*
D20*
X177590000Y-127020000D03*
X166340000Y-135800000D03*
X172490000Y-134180000D03*
D21*
X192377301Y-127679653D03*
D20*
X169630000Y-114580000D03*
D21*
X187116759Y-83724653D03*
X195177301Y-122679653D03*
X194497301Y-97579653D03*
X193816759Y-67344653D03*
D20*
X182630000Y-85830000D03*
D21*
X199416759Y-67344653D03*
X186426759Y-86344653D03*
D20*
X171270000Y-113130000D03*
X171870000Y-125950000D03*
X180660000Y-63560000D03*
X164406167Y-114246167D03*
X175390000Y-74660000D03*
X144910000Y-93960000D03*
X179020000Y-118520000D03*
D21*
X192416759Y-87524653D03*
D20*
X152280000Y-86550000D03*
D21*
X197316759Y-87524653D03*
X193777301Y-122679653D03*
D20*
X163040000Y-127650000D03*
D21*
X188667301Y-127879653D03*
D20*
X178500000Y-76440000D03*
D21*
X185616759Y-83724653D03*
D20*
X160850000Y-127920000D03*
X182240000Y-114530000D03*
X143850000Y-95120000D03*
D21*
X187877301Y-122479653D03*
D20*
X151300000Y-89360000D03*
D21*
X188677301Y-122479653D03*
D20*
X167760000Y-118290000D03*
D21*
X195157843Y-132734653D03*
X191706759Y-87524653D03*
X198677301Y-127679653D03*
D20*
X172050000Y-72730000D03*
D21*
X196616759Y-62344653D03*
X195216759Y-67344653D03*
D20*
X177860000Y-74660000D03*
X152780000Y-102220000D03*
X150490000Y-88340000D03*
X175350000Y-65990000D03*
X179340000Y-74070000D03*
X174950000Y-77270000D03*
X172890000Y-72530000D03*
X173800000Y-136290000D03*
D21*
X194516759Y-87524653D03*
D20*
X150960000Y-87920000D03*
X148440000Y-92190000D03*
D21*
X184897301Y-93779653D03*
X198716759Y-62344653D03*
D20*
X180840000Y-96210000D03*
X165740000Y-135450000D03*
X165210000Y-135000000D03*
X171760000Y-120230000D03*
D21*
X195897301Y-72399653D03*
X197297301Y-92579653D03*
X187897301Y-72899653D03*
X192377301Y-102499653D03*
D20*
X137600000Y-133800000D03*
D21*
X184857843Y-133934653D03*
D20*
X171470000Y-84380000D03*
X146830000Y-96270000D03*
X173130000Y-76760000D03*
X184050000Y-74110000D03*
X179880000Y-134210000D03*
X181680000Y-124340000D03*
X183250000Y-124330000D03*
D21*
X194477301Y-122679653D03*
D20*
X154960000Y-85670000D03*
X173390000Y-83920000D03*
D21*
X191016759Y-62344653D03*
D20*
X172750000Y-93670000D03*
X163320000Y-126920000D03*
X179020000Y-123390000D03*
X162310000Y-132120000D03*
X180740000Y-86680000D03*
X167740000Y-113630000D03*
X171100000Y-134160000D03*
X154380000Y-105580000D03*
D21*
X188687301Y-97779653D03*
D20*
X175320000Y-96170000D03*
D21*
X195916759Y-67344653D03*
D20*
X168330000Y-136330000D03*
D21*
X197257843Y-132734653D03*
D20*
%TO.N,NSS3*%
X164910000Y-85770000D03*
%TO.N,NSS4*%
X166030000Y-108120000D03*
%TO.N,VCC*%
X138480000Y-97810000D03*
%TD*%
D22*
%TO.N,NSS*%
X139350000Y-86680000D02*
X138970000Y-87060000D01*
X139350000Y-79790000D02*
X139350000Y-86680000D01*
%TO.N,MOSI*%
X163770000Y-75510000D02*
X163770000Y-84870000D01*
X165810000Y-73470000D02*
X163770000Y-75510000D01*
D23*
%TO.N,IFOUT3-*%
X112540000Y-97118199D02*
X112540000Y-98070000D01*
X112627219Y-97030980D02*
X112540000Y-97118199D01*
X113527706Y-96665001D02*
X113161727Y-97030980D01*
%TO.N,IFOUT3+*%
X112221801Y-96800000D02*
X110000000Y-96800000D01*
X112440801Y-96581000D02*
X112221801Y-96800000D01*
%TO.N,IFOUT3-*%
X118045681Y-96665001D02*
X113527706Y-96665001D01*
%TO.N,IFOUT3+*%
X112975339Y-96581000D02*
X112440801Y-96581000D01*
%TO.N,IFOUT3-*%
X113161727Y-97030980D02*
X112627219Y-97030980D01*
%TO.N,IFOUT3+*%
X113341340Y-96214999D02*
X112975339Y-96581000D01*
%TO.N,IFOUT3-*%
X118245680Y-96865000D02*
X118045681Y-96665001D01*
%TO.N,IFOUT3+*%
X118045681Y-96214999D02*
X113341340Y-96214999D01*
X118245680Y-96015000D02*
X118045681Y-96214999D01*
%TD*%
%TA.AperFunction,Conductor*%
%TO.N,GND*%
G36*
X195000526Y-50500522D02*
G01*
X195391104Y-50517576D01*
X195393190Y-50517758D01*
X195780311Y-50568723D01*
X195782341Y-50569082D01*
X196163549Y-50653593D01*
X196165544Y-50654128D01*
X196537921Y-50771538D01*
X196539888Y-50772254D01*
X196900614Y-50921671D01*
X196902488Y-50922545D01*
X197061746Y-51005450D01*
X197248822Y-51102836D01*
X197250635Y-51103883D01*
X197292026Y-51130252D01*
X197579931Y-51313667D01*
X197581632Y-51314858D01*
X197732020Y-51430255D01*
X197891385Y-51552540D01*
X197892990Y-51553885D01*
X198180862Y-51817672D01*
X198182327Y-51819137D01*
X198253252Y-51896538D01*
X198446114Y-52107010D01*
X198447459Y-52108614D01*
X198685136Y-52418360D01*
X198686337Y-52420075D01*
X198896116Y-52749364D01*
X198897163Y-52751177D01*
X198958888Y-52869748D01*
X199062999Y-53069744D01*
X199077448Y-53097499D01*
X199078333Y-53099397D01*
X199227745Y-53460111D01*
X199228461Y-53462078D01*
X199345867Y-53834442D01*
X199346409Y-53836464D01*
X199430914Y-54217642D01*
X199431278Y-54219704D01*
X199482241Y-54606809D01*
X199482423Y-54608895D01*
X199499477Y-54999473D01*
X199499500Y-55000520D01*
X199499500Y-144999479D01*
X199499477Y-145000526D01*
X199482423Y-145391104D01*
X199482241Y-145393190D01*
X199431278Y-145780295D01*
X199430914Y-145782357D01*
X199346409Y-146163535D01*
X199345867Y-146165557D01*
X199228461Y-146537921D01*
X199227745Y-146539888D01*
X199078333Y-146900602D01*
X199077448Y-146902500D01*
X198897163Y-147248822D01*
X198896116Y-147250635D01*
X198686337Y-147579924D01*
X198685136Y-147581639D01*
X198447459Y-147891385D01*
X198446114Y-147892989D01*
X198182335Y-148180854D01*
X198180854Y-148182335D01*
X197892989Y-148446114D01*
X197891385Y-148447459D01*
X197581639Y-148685136D01*
X197579924Y-148686337D01*
X197250635Y-148896116D01*
X197248822Y-148897163D01*
X196902500Y-149077448D01*
X196900602Y-149078333D01*
X196539888Y-149227745D01*
X196537921Y-149228461D01*
X196165557Y-149345867D01*
X196163535Y-149346409D01*
X195782357Y-149430914D01*
X195780295Y-149431278D01*
X195393190Y-149482241D01*
X195391104Y-149482423D01*
X195000527Y-149499477D01*
X194999480Y-149499500D01*
X105000520Y-149499500D01*
X104999473Y-149499477D01*
X104608895Y-149482423D01*
X104606809Y-149482241D01*
X104219704Y-149431278D01*
X104217642Y-149430914D01*
X103836464Y-149346409D01*
X103834442Y-149345867D01*
X103462078Y-149228461D01*
X103460111Y-149227745D01*
X103099397Y-149078333D01*
X103097499Y-149077448D01*
X102751177Y-148897163D01*
X102749364Y-148896116D01*
X102420075Y-148686337D01*
X102418360Y-148685136D01*
X102368063Y-148646542D01*
X102108614Y-148447459D01*
X102107010Y-148446114D01*
X101941609Y-148294552D01*
X101819137Y-148182327D01*
X101817672Y-148180862D01*
X101553885Y-147892989D01*
X101552540Y-147891385D01*
X101480575Y-147797598D01*
X101314858Y-147581632D01*
X101313662Y-147579924D01*
X101203128Y-147406420D01*
X101155082Y-147331002D01*
X113279500Y-147331002D01*
X113279500Y-148268997D01*
X113306418Y-148404323D01*
X113306421Y-148404330D01*
X113359222Y-148531807D01*
X113359225Y-148531811D01*
X113435886Y-148646542D01*
X113533458Y-148744114D01*
X113648189Y-148820775D01*
X113648192Y-148820777D01*
X113711930Y-148847177D01*
X113775672Y-148873580D01*
X113775675Y-148873580D01*
X113775676Y-148873581D01*
X113872126Y-148892766D01*
X113911007Y-148900500D01*
X113911011Y-148900500D01*
X114048989Y-148900500D01*
X114048993Y-148900500D01*
X114184328Y-148873580D01*
X114282927Y-148832738D01*
X114311807Y-148820777D01*
X114311808Y-148820776D01*
X114311811Y-148820775D01*
X114426542Y-148744114D01*
X114524114Y-148646542D01*
X114600775Y-148531811D01*
X114653580Y-148404328D01*
X114680500Y-148268993D01*
X114680500Y-147331007D01*
X114680499Y-147331002D01*
X121919500Y-147331002D01*
X121919500Y-148268997D01*
X121946418Y-148404323D01*
X121946421Y-148404330D01*
X121999222Y-148531807D01*
X121999225Y-148531811D01*
X122075886Y-148646542D01*
X122173458Y-148744114D01*
X122288189Y-148820775D01*
X122288192Y-148820777D01*
X122351930Y-148847177D01*
X122415672Y-148873580D01*
X122415675Y-148873580D01*
X122415676Y-148873581D01*
X122512126Y-148892766D01*
X122551007Y-148900500D01*
X122551011Y-148900500D01*
X122688989Y-148900500D01*
X122688993Y-148900500D01*
X122824328Y-148873580D01*
X122922927Y-148832738D01*
X122951807Y-148820777D01*
X122951808Y-148820776D01*
X122951811Y-148820775D01*
X123066542Y-148744114D01*
X123164114Y-148646542D01*
X123240775Y-148531811D01*
X123293580Y-148404328D01*
X123320500Y-148268993D01*
X123320500Y-147331007D01*
X123295130Y-147203465D01*
X123293581Y-147195676D01*
X123293580Y-147195675D01*
X123293580Y-147195672D01*
X123267177Y-147131930D01*
X123240777Y-147068192D01*
X123240775Y-147068189D01*
X123164114Y-146953458D01*
X123066542Y-146855886D01*
X123064968Y-146854834D01*
X122951807Y-146779222D01*
X122824330Y-146726421D01*
X122824323Y-146726418D01*
X122688997Y-146699500D01*
X122688993Y-146699500D01*
X122551007Y-146699500D01*
X122551002Y-146699500D01*
X122415676Y-146726418D01*
X122415669Y-146726421D01*
X122288192Y-146779222D01*
X122173460Y-146855884D01*
X122075884Y-146953460D01*
X121999222Y-147068192D01*
X121946421Y-147195669D01*
X121946418Y-147195676D01*
X121919500Y-147331002D01*
X114680499Y-147331002D01*
X114655130Y-147203465D01*
X114653581Y-147195676D01*
X114653580Y-147195675D01*
X114653580Y-147195672D01*
X114627177Y-147131930D01*
X114600777Y-147068192D01*
X114600775Y-147068189D01*
X114524114Y-146953458D01*
X114426542Y-146855886D01*
X114424968Y-146854834D01*
X114311807Y-146779222D01*
X114184330Y-146726421D01*
X114184323Y-146726418D01*
X114048997Y-146699500D01*
X114048993Y-146699500D01*
X113911007Y-146699500D01*
X113911002Y-146699500D01*
X113775676Y-146726418D01*
X113775669Y-146726421D01*
X113648192Y-146779222D01*
X113533460Y-146855884D01*
X113435884Y-146953460D01*
X113359222Y-147068192D01*
X113306421Y-147195669D01*
X113306418Y-147195676D01*
X113279500Y-147331002D01*
X101155082Y-147331002D01*
X101103883Y-147250635D01*
X101102836Y-147248822D01*
X101079222Y-147203461D01*
X100922545Y-146902488D01*
X100921671Y-146900614D01*
X100772254Y-146539888D01*
X100771538Y-146537921D01*
X100737620Y-146430347D01*
X100688336Y-146274038D01*
X134699500Y-146274038D01*
X134699500Y-146525962D01*
X134731250Y-146726420D01*
X134738911Y-146774789D01*
X134738912Y-146774795D01*
X134816756Y-147014371D01*
X134816760Y-147014381D01*
X134931129Y-147238844D01*
X134931133Y-147238851D01*
X135061196Y-147417866D01*
X135079207Y-147442656D01*
X135257344Y-147620793D01*
X135257347Y-147620795D01*
X135257348Y-147620796D01*
X135461148Y-147768866D01*
X135461155Y-147768870D01*
X135685621Y-147883241D01*
X135763111Y-147908419D01*
X135925204Y-147961087D01*
X135925207Y-147961087D01*
X135925215Y-147961090D01*
X136174038Y-148000500D01*
X136174041Y-148000500D01*
X136425959Y-148000500D01*
X136425962Y-148000500D01*
X136674785Y-147961090D01*
X136674793Y-147961087D01*
X136674795Y-147961087D01*
X136745152Y-147938226D01*
X136914379Y-147883241D01*
X137138845Y-147768870D01*
X137342656Y-147620793D01*
X137520793Y-147442656D01*
X137660947Y-147249750D01*
X137668866Y-147238851D01*
X137668867Y-147238848D01*
X137668870Y-147238845D01*
X137783241Y-147014379D01*
X137854984Y-146793577D01*
X137861087Y-146774795D01*
X137861087Y-146774793D01*
X137861090Y-146774785D01*
X137900500Y-146525962D01*
X137900500Y-146430247D01*
X153169500Y-146430247D01*
X153169500Y-148169752D01*
X153181132Y-148228229D01*
X153181132Y-148228230D01*
X153181133Y-148228231D01*
X153225448Y-148294552D01*
X153291769Y-148338867D01*
X153350252Y-148350500D01*
X153350256Y-148350500D01*
X155089744Y-148350500D01*
X155089748Y-148350500D01*
X155148231Y-148338867D01*
X155214552Y-148294552D01*
X155258867Y-148228231D01*
X155270500Y-148169748D01*
X155270500Y-147196530D01*
X155709500Y-147196530D01*
X155709500Y-147403469D01*
X155749868Y-147606415D01*
X155749870Y-147606422D01*
X155829056Y-147797594D01*
X155829059Y-147797598D01*
X155944023Y-147969655D01*
X156090345Y-148115977D01*
X156214518Y-148198946D01*
X156262405Y-148230943D01*
X156453577Y-148310129D01*
X156453584Y-148310131D01*
X156651263Y-148349451D01*
X156656535Y-148350500D01*
X156656539Y-148350500D01*
X156863461Y-148350500D01*
X156863465Y-148350500D01*
X157066420Y-148310130D01*
X157165743Y-148268989D01*
X157257594Y-148230943D01*
X157257595Y-148230942D01*
X157257598Y-148230941D01*
X157429655Y-148115977D01*
X157575977Y-147969655D01*
X157690941Y-147797598D01*
X157702516Y-147769655D01*
X157770129Y-147606422D01*
X157770131Y-147606415D01*
X157810499Y-147403469D01*
X157810500Y-147403465D01*
X157810500Y-147196535D01*
X157810499Y-147196530D01*
X158249500Y-147196530D01*
X158249500Y-147403469D01*
X158289868Y-147606415D01*
X158289870Y-147606422D01*
X158369056Y-147797594D01*
X158369059Y-147797598D01*
X158484023Y-147969655D01*
X158630345Y-148115977D01*
X158754518Y-148198946D01*
X158802405Y-148230943D01*
X158993577Y-148310129D01*
X158993584Y-148310131D01*
X159191263Y-148349451D01*
X159196535Y-148350500D01*
X159196539Y-148350500D01*
X159403461Y-148350500D01*
X159403465Y-148350500D01*
X159606420Y-148310130D01*
X159705743Y-148268989D01*
X159797594Y-148230943D01*
X159797595Y-148230942D01*
X159797598Y-148230941D01*
X159969655Y-148115977D01*
X160115977Y-147969655D01*
X160230941Y-147797598D01*
X160242516Y-147769655D01*
X160310129Y-147606422D01*
X160310131Y-147606415D01*
X160350499Y-147403469D01*
X160350500Y-147403465D01*
X160350500Y-147196535D01*
X160350499Y-147196530D01*
X160789500Y-147196530D01*
X160789500Y-147403469D01*
X160829868Y-147606415D01*
X160829870Y-147606422D01*
X160909056Y-147797594D01*
X160909059Y-147797598D01*
X161024023Y-147969655D01*
X161170345Y-148115977D01*
X161294518Y-148198946D01*
X161342405Y-148230943D01*
X161533577Y-148310129D01*
X161533584Y-148310131D01*
X161731263Y-148349451D01*
X161736535Y-148350500D01*
X161736539Y-148350500D01*
X161943461Y-148350500D01*
X161943465Y-148350500D01*
X162146420Y-148310130D01*
X162245743Y-148268989D01*
X162337594Y-148230943D01*
X162337595Y-148230942D01*
X162337598Y-148230941D01*
X162509655Y-148115977D01*
X162655977Y-147969655D01*
X162770941Y-147797598D01*
X162782516Y-147769655D01*
X162850129Y-147606422D01*
X162850131Y-147606415D01*
X162890499Y-147403469D01*
X162890500Y-147403465D01*
X162890500Y-147196535D01*
X162851643Y-147001185D01*
X162850131Y-146993584D01*
X162850129Y-146993577D01*
X162770943Y-146802405D01*
X162720170Y-146726418D01*
X162655977Y-146630345D01*
X162509655Y-146484023D01*
X162429185Y-146430255D01*
X162337594Y-146369056D01*
X162146422Y-146289870D01*
X162146415Y-146289868D01*
X161959111Y-146252612D01*
X161943469Y-146249500D01*
X161943465Y-146249500D01*
X161736535Y-146249500D01*
X161736530Y-146249500D01*
X161533584Y-146289868D01*
X161533577Y-146289870D01*
X161342405Y-146369056D01*
X161170347Y-146484021D01*
X161024021Y-146630347D01*
X160909056Y-146802405D01*
X160829870Y-146993577D01*
X160829868Y-146993584D01*
X160789500Y-147196530D01*
X160350499Y-147196530D01*
X160311643Y-147001185D01*
X160310131Y-146993584D01*
X160310129Y-146993577D01*
X160230943Y-146802405D01*
X160180170Y-146726418D01*
X160115977Y-146630345D01*
X159969655Y-146484023D01*
X159889185Y-146430255D01*
X159797594Y-146369056D01*
X159606422Y-146289870D01*
X159606415Y-146289868D01*
X159403469Y-146249500D01*
X159403465Y-146249500D01*
X159196535Y-146249500D01*
X159196530Y-146249500D01*
X158993584Y-146289868D01*
X158993577Y-146289870D01*
X158802405Y-146369056D01*
X158630347Y-146484021D01*
X158484021Y-146630347D01*
X158369056Y-146802405D01*
X158289870Y-146993577D01*
X158289868Y-146993584D01*
X158249500Y-147196530D01*
X157810499Y-147196530D01*
X157771643Y-147001185D01*
X157770131Y-146993584D01*
X157770129Y-146993577D01*
X157690943Y-146802405D01*
X157640170Y-146726418D01*
X157575977Y-146630345D01*
X157429655Y-146484023D01*
X157349185Y-146430255D01*
X157257594Y-146369056D01*
X157066422Y-146289870D01*
X157066415Y-146289868D01*
X156863469Y-146249500D01*
X156863465Y-146249500D01*
X156656535Y-146249500D01*
X156656530Y-146249500D01*
X156453584Y-146289868D01*
X156453577Y-146289870D01*
X156262405Y-146369056D01*
X156090347Y-146484021D01*
X155944021Y-146630347D01*
X155829056Y-146802405D01*
X155749870Y-146993577D01*
X155749868Y-146993584D01*
X155709500Y-147196530D01*
X155270500Y-147196530D01*
X155270500Y-146430252D01*
X155258867Y-146371769D01*
X155214552Y-146305448D01*
X155148231Y-146261133D01*
X155148230Y-146261132D01*
X155148229Y-146261132D01*
X155089752Y-146249500D01*
X155089748Y-146249500D01*
X153350252Y-146249500D01*
X153350247Y-146249500D01*
X153291770Y-146261132D01*
X153225450Y-146305446D01*
X153225446Y-146305450D01*
X153181132Y-146371770D01*
X153169500Y-146430247D01*
X137900500Y-146430247D01*
X137900500Y-146274038D01*
X137893564Y-146230247D01*
X166869500Y-146230247D01*
X166869500Y-147969752D01*
X166881132Y-148028229D01*
X166881132Y-148028230D01*
X166881133Y-148028231D01*
X166925448Y-148094552D01*
X166991769Y-148138867D01*
X167050252Y-148150500D01*
X167050256Y-148150500D01*
X168789744Y-148150500D01*
X168789748Y-148150500D01*
X168848231Y-148138867D01*
X168914552Y-148094552D01*
X168958867Y-148028231D01*
X168970500Y-147969748D01*
X168970500Y-146996530D01*
X169409500Y-146996530D01*
X169409500Y-147203469D01*
X169449868Y-147406415D01*
X169449870Y-147406422D01*
X169529056Y-147597594D01*
X169534955Y-147606422D01*
X169644023Y-147769655D01*
X169790345Y-147915977D01*
X169870814Y-147969744D01*
X169962405Y-148030943D01*
X170153577Y-148110129D01*
X170153584Y-148110131D01*
X170351263Y-148149451D01*
X170356535Y-148150500D01*
X170356539Y-148150500D01*
X170563461Y-148150500D01*
X170563465Y-148150500D01*
X170766420Y-148110130D01*
X170830146Y-148083733D01*
X170957594Y-148030943D01*
X170957595Y-148030942D01*
X170957598Y-148030941D01*
X171129655Y-147915977D01*
X171275977Y-147769655D01*
X171390941Y-147597598D01*
X171397552Y-147581639D01*
X171455120Y-147442656D01*
X171470130Y-147406420D01*
X171510500Y-147203465D01*
X171510500Y-146996535D01*
X171510499Y-146996530D01*
X171949500Y-146996530D01*
X171949500Y-147203469D01*
X171989868Y-147406415D01*
X171989870Y-147406422D01*
X172069056Y-147597594D01*
X172074955Y-147606422D01*
X172184023Y-147769655D01*
X172330345Y-147915977D01*
X172410814Y-147969744D01*
X172502405Y-148030943D01*
X172693577Y-148110129D01*
X172693584Y-148110131D01*
X172891263Y-148149451D01*
X172896535Y-148150500D01*
X172896539Y-148150500D01*
X173103461Y-148150500D01*
X173103465Y-148150500D01*
X173306420Y-148110130D01*
X173370146Y-148083733D01*
X173497594Y-148030943D01*
X173497595Y-148030942D01*
X173497598Y-148030941D01*
X173669655Y-147915977D01*
X173815977Y-147769655D01*
X173930941Y-147597598D01*
X173937552Y-147581639D01*
X173995120Y-147442656D01*
X174010130Y-147406420D01*
X174050500Y-147203465D01*
X174050500Y-146996535D01*
X174050499Y-146996530D01*
X174489500Y-146996530D01*
X174489500Y-147203469D01*
X174529868Y-147406415D01*
X174529870Y-147406422D01*
X174609056Y-147597594D01*
X174614955Y-147606422D01*
X174724023Y-147769655D01*
X174870345Y-147915977D01*
X174950814Y-147969744D01*
X175042405Y-148030943D01*
X175233577Y-148110129D01*
X175233584Y-148110131D01*
X175431263Y-148149451D01*
X175436535Y-148150500D01*
X175436539Y-148150500D01*
X175643461Y-148150500D01*
X175643465Y-148150500D01*
X175846420Y-148110130D01*
X175910146Y-148083733D01*
X176037594Y-148030943D01*
X176037595Y-148030942D01*
X176037598Y-148030941D01*
X176209655Y-147915977D01*
X176355977Y-147769655D01*
X176470941Y-147597598D01*
X176477552Y-147581639D01*
X176535120Y-147442656D01*
X176550130Y-147406420D01*
X176590500Y-147203465D01*
X176590500Y-146996535D01*
X176562523Y-146855884D01*
X176550131Y-146793584D01*
X176550129Y-146793577D01*
X176470943Y-146602405D01*
X176355978Y-146430347D01*
X176355977Y-146430345D01*
X176209655Y-146284023D01*
X176194711Y-146274038D01*
X176037594Y-146169056D01*
X175846422Y-146089870D01*
X175846415Y-146089868D01*
X175643469Y-146049500D01*
X175643465Y-146049500D01*
X175436535Y-146049500D01*
X175436530Y-146049500D01*
X175233584Y-146089868D01*
X175233577Y-146089870D01*
X175042405Y-146169056D01*
X174870347Y-146284021D01*
X174724021Y-146430347D01*
X174609056Y-146602405D01*
X174529870Y-146793577D01*
X174529868Y-146793584D01*
X174489500Y-146996530D01*
X174050499Y-146996530D01*
X174022523Y-146855884D01*
X174010131Y-146793584D01*
X174010129Y-146793577D01*
X173930943Y-146602405D01*
X173815978Y-146430347D01*
X173815977Y-146430345D01*
X173669655Y-146284023D01*
X173654711Y-146274038D01*
X173497594Y-146169056D01*
X173306422Y-146089870D01*
X173306415Y-146089868D01*
X173103469Y-146049500D01*
X173103465Y-146049500D01*
X172896535Y-146049500D01*
X172896530Y-146049500D01*
X172693584Y-146089868D01*
X172693577Y-146089870D01*
X172502405Y-146169056D01*
X172330347Y-146284021D01*
X172184021Y-146430347D01*
X172069056Y-146602405D01*
X171989870Y-146793577D01*
X171989868Y-146793584D01*
X171949500Y-146996530D01*
X171510499Y-146996530D01*
X171482523Y-146855884D01*
X171470131Y-146793584D01*
X171470129Y-146793577D01*
X171390943Y-146602405D01*
X171275978Y-146430347D01*
X171275977Y-146430345D01*
X171129655Y-146284023D01*
X171114711Y-146274038D01*
X170957594Y-146169056D01*
X170766422Y-146089870D01*
X170766415Y-146089868D01*
X170563469Y-146049500D01*
X170563465Y-146049500D01*
X170356535Y-146049500D01*
X170356530Y-146049500D01*
X170153584Y-146089868D01*
X170153577Y-146089870D01*
X169962405Y-146169056D01*
X169790347Y-146284021D01*
X169644021Y-146430347D01*
X169529056Y-146602405D01*
X169449870Y-146793577D01*
X169449868Y-146793584D01*
X169409500Y-146996530D01*
X168970500Y-146996530D01*
X168970500Y-146230252D01*
X168958867Y-146171769D01*
X168914552Y-146105448D01*
X168848231Y-146061133D01*
X168848230Y-146061132D01*
X168848229Y-146061132D01*
X168789752Y-146049500D01*
X168789748Y-146049500D01*
X167050252Y-146049500D01*
X167050247Y-146049500D01*
X166991770Y-146061132D01*
X166925450Y-146105446D01*
X166925446Y-146105450D01*
X166881132Y-146171770D01*
X166869500Y-146230247D01*
X137893564Y-146230247D01*
X137861090Y-146025215D01*
X137861087Y-146025207D01*
X137861087Y-146025204D01*
X137783243Y-145785628D01*
X137783241Y-145785621D01*
X137668870Y-145561155D01*
X137668866Y-145561148D01*
X137520796Y-145357348D01*
X137520795Y-145357347D01*
X137520793Y-145357344D01*
X137342656Y-145179207D01*
X137342652Y-145179204D01*
X137342651Y-145179203D01*
X137138851Y-145031133D01*
X137138844Y-145031129D01*
X136914381Y-144916760D01*
X136914371Y-144916756D01*
X136674795Y-144838912D01*
X136674789Y-144838911D01*
X136674787Y-144838910D01*
X136674785Y-144838910D01*
X136425962Y-144799500D01*
X136174038Y-144799500D01*
X135925215Y-144838910D01*
X135925213Y-144838910D01*
X135925210Y-144838911D01*
X135925204Y-144838912D01*
X135685628Y-144916756D01*
X135685618Y-144916760D01*
X135461155Y-145031129D01*
X135461148Y-145031133D01*
X135257348Y-145179203D01*
X135079203Y-145357348D01*
X134931133Y-145561148D01*
X134931129Y-145561155D01*
X134816760Y-145785618D01*
X134816756Y-145785628D01*
X134738912Y-146025204D01*
X134738911Y-146025210D01*
X134738910Y-146025213D01*
X134738910Y-146025215D01*
X134699500Y-146274038D01*
X100688336Y-146274038D01*
X100654128Y-146165544D01*
X100653593Y-146163549D01*
X100569082Y-145782341D01*
X100568723Y-145780311D01*
X100517758Y-145393190D01*
X100517576Y-145391104D01*
X100500523Y-145000526D01*
X100500500Y-144999479D01*
X100500500Y-142981002D01*
X113279500Y-142981002D01*
X113279500Y-144218997D01*
X113306418Y-144354323D01*
X113306421Y-144354330D01*
X113359222Y-144481807D01*
X113359225Y-144481811D01*
X113435886Y-144596542D01*
X113533458Y-144694114D01*
X113648189Y-144770775D01*
X113648192Y-144770777D01*
X113711930Y-144797177D01*
X113775672Y-144823580D01*
X113775675Y-144823580D01*
X113775676Y-144823581D01*
X113907498Y-144849802D01*
X113911007Y-144850500D01*
X113911011Y-144850500D01*
X114048989Y-144850500D01*
X114048993Y-144850500D01*
X114184328Y-144823580D01*
X114282927Y-144782738D01*
X114311807Y-144770777D01*
X114311808Y-144770776D01*
X114311811Y-144770775D01*
X114426542Y-144694114D01*
X114524114Y-144596542D01*
X114600775Y-144481811D01*
X114604274Y-144473365D01*
X114612738Y-144452927D01*
X114653580Y-144354328D01*
X114680500Y-144218993D01*
X114680500Y-144044234D01*
X114834500Y-144044234D01*
X114834500Y-144195766D01*
X114873719Y-144342135D01*
X114949485Y-144473365D01*
X115056635Y-144580515D01*
X115187865Y-144656281D01*
X115334234Y-144695500D01*
X115334235Y-144695500D01*
X115485765Y-144695500D01*
X115485766Y-144695500D01*
X115632135Y-144656281D01*
X115763365Y-144580515D01*
X115870515Y-144473365D01*
X115946281Y-144342135D01*
X115985500Y-144195766D01*
X115985500Y-144044234D01*
X120614500Y-144044234D01*
X120614500Y-144195766D01*
X120653719Y-144342135D01*
X120729485Y-144473365D01*
X120836635Y-144580515D01*
X120967865Y-144656281D01*
X121114234Y-144695500D01*
X121114235Y-144695500D01*
X121265765Y-144695500D01*
X121265766Y-144695500D01*
X121412135Y-144656281D01*
X121543365Y-144580515D01*
X121650515Y-144473365D01*
X121726281Y-144342135D01*
X121765500Y-144195766D01*
X121765500Y-144044234D01*
X121726281Y-143897865D01*
X121650515Y-143766635D01*
X121543365Y-143659485D01*
X121412135Y-143583719D01*
X121412134Y-143583718D01*
X121412133Y-143583718D01*
X121319338Y-143558854D01*
X121265766Y-143544500D01*
X121114234Y-143544500D01*
X121075016Y-143555008D01*
X120967866Y-143583718D01*
X120836635Y-143659485D01*
X120729485Y-143766635D01*
X120653718Y-143897866D01*
X120625008Y-144005016D01*
X120614500Y-144044234D01*
X115985500Y-144044234D01*
X115946281Y-143897865D01*
X115870515Y-143766635D01*
X115763365Y-143659485D01*
X115632135Y-143583719D01*
X115632134Y-143583718D01*
X115632133Y-143583718D01*
X115539338Y-143558854D01*
X115485766Y-143544500D01*
X115334234Y-143544500D01*
X115295016Y-143555008D01*
X115187866Y-143583718D01*
X115056635Y-143659485D01*
X114949485Y-143766635D01*
X114873718Y-143897866D01*
X114845008Y-144005016D01*
X114834500Y-144044234D01*
X114680500Y-144044234D01*
X114680500Y-142981007D01*
X114680499Y-142981002D01*
X121919500Y-142981002D01*
X121919500Y-144218997D01*
X121946418Y-144354323D01*
X121946421Y-144354330D01*
X121999222Y-144481807D01*
X121999225Y-144481811D01*
X122075886Y-144596542D01*
X122173458Y-144694114D01*
X122288189Y-144770775D01*
X122288192Y-144770777D01*
X122351930Y-144797177D01*
X122415672Y-144823580D01*
X122415675Y-144823580D01*
X122415676Y-144823581D01*
X122547498Y-144849802D01*
X122551007Y-144850500D01*
X122551011Y-144850500D01*
X122688989Y-144850500D01*
X122688993Y-144850500D01*
X122824328Y-144823580D01*
X122922927Y-144782738D01*
X122951807Y-144770777D01*
X122951808Y-144770776D01*
X122951811Y-144770775D01*
X123066542Y-144694114D01*
X123164114Y-144596542D01*
X123240775Y-144481811D01*
X123244274Y-144473365D01*
X123252738Y-144452927D01*
X123293580Y-144354328D01*
X123320500Y-144218993D01*
X123320500Y-142981007D01*
X123293580Y-142845672D01*
X123267177Y-142781930D01*
X123240777Y-142718192D01*
X123164115Y-142603460D01*
X123164114Y-142603458D01*
X123066542Y-142505886D01*
X122951811Y-142429225D01*
X122951812Y-142429225D01*
X122951807Y-142429222D01*
X122824330Y-142376421D01*
X122824323Y-142376418D01*
X122688997Y-142349500D01*
X122688993Y-142349500D01*
X122551007Y-142349500D01*
X122551002Y-142349500D01*
X122415676Y-142376418D01*
X122415669Y-142376421D01*
X122288192Y-142429222D01*
X122173460Y-142505884D01*
X122075884Y-142603460D01*
X121999222Y-142718192D01*
X121946421Y-142845669D01*
X121946418Y-142845676D01*
X121919500Y-142981002D01*
X114680499Y-142981002D01*
X114653580Y-142845672D01*
X114627177Y-142781930D01*
X114600777Y-142718192D01*
X114524115Y-142603460D01*
X114524114Y-142603458D01*
X114426542Y-142505886D01*
X114311811Y-142429225D01*
X114311812Y-142429225D01*
X114311807Y-142429222D01*
X114184330Y-142376421D01*
X114184323Y-142376418D01*
X114048997Y-142349500D01*
X114048993Y-142349500D01*
X113911007Y-142349500D01*
X113911002Y-142349500D01*
X113775676Y-142376418D01*
X113775669Y-142376421D01*
X113648192Y-142429222D01*
X113533460Y-142505884D01*
X113435884Y-142603460D01*
X113359222Y-142718192D01*
X113306421Y-142845669D01*
X113306418Y-142845676D01*
X113279500Y-142981002D01*
X100500500Y-142981002D01*
X100500500Y-141160691D01*
X159649501Y-141160691D01*
X159649501Y-141279309D01*
X159680202Y-141393886D01*
X159739511Y-141496613D01*
X159823387Y-141580489D01*
X159926114Y-141639798D01*
X160040691Y-141670499D01*
X160040692Y-141670499D01*
X160159308Y-141670499D01*
X160159309Y-141670499D01*
X160273886Y-141639798D01*
X160376613Y-141580489D01*
X160460489Y-141496613D01*
X160519798Y-141393886D01*
X160550499Y-141279309D01*
X160550499Y-141160691D01*
X160749500Y-141160691D01*
X160749500Y-141279309D01*
X160780201Y-141393886D01*
X160839510Y-141496613D01*
X160923386Y-141580489D01*
X161026113Y-141639798D01*
X161140690Y-141670499D01*
X161140691Y-141670499D01*
X161259307Y-141670499D01*
X161259308Y-141670499D01*
X161373885Y-141639798D01*
X161476612Y-141580489D01*
X161560488Y-141496613D01*
X161619797Y-141393886D01*
X161650498Y-141279309D01*
X161650498Y-141160691D01*
X161849499Y-141160691D01*
X161849499Y-141279309D01*
X161880200Y-141393886D01*
X161939509Y-141496613D01*
X162023385Y-141580489D01*
X162126112Y-141639798D01*
X162240689Y-141670499D01*
X162240690Y-141670499D01*
X162359306Y-141670499D01*
X162359307Y-141670499D01*
X162473884Y-141639798D01*
X162576611Y-141580489D01*
X162660487Y-141496613D01*
X162719796Y-141393886D01*
X162750497Y-141279309D01*
X162750497Y-141160691D01*
X162719796Y-141046114D01*
X162660487Y-140943387D01*
X162576611Y-140859511D01*
X162473884Y-140800202D01*
X162473883Y-140800201D01*
X162473882Y-140800201D01*
X162401244Y-140780738D01*
X162359307Y-140769501D01*
X162240689Y-140769501D01*
X162209989Y-140777727D01*
X162126113Y-140800201D01*
X162023385Y-140859511D01*
X161939509Y-140943387D01*
X161880199Y-141046115D01*
X161857725Y-141129991D01*
X161849499Y-141160691D01*
X161650498Y-141160691D01*
X161619797Y-141046114D01*
X161560488Y-140943387D01*
X161476612Y-140859511D01*
X161373885Y-140800202D01*
X161373884Y-140800201D01*
X161373883Y-140800201D01*
X161301245Y-140780738D01*
X161259308Y-140769501D01*
X161140690Y-140769501D01*
X161109990Y-140777727D01*
X161026114Y-140800201D01*
X160923386Y-140859511D01*
X160839510Y-140943387D01*
X160780200Y-141046115D01*
X160757726Y-141129991D01*
X160749500Y-141160691D01*
X160550499Y-141160691D01*
X160519798Y-141046114D01*
X160460489Y-140943387D01*
X160376613Y-140859511D01*
X160273886Y-140800202D01*
X160273885Y-140800201D01*
X160273884Y-140800201D01*
X160201246Y-140780738D01*
X160159309Y-140769501D01*
X160040691Y-140769501D01*
X160009991Y-140777727D01*
X159926115Y-140800201D01*
X159823387Y-140859511D01*
X159739511Y-140943387D01*
X159680201Y-141046115D01*
X159657727Y-141129991D01*
X159649501Y-141160691D01*
X100500500Y-141160691D01*
X100500500Y-135784108D01*
X135989500Y-135784108D01*
X135989500Y-135915892D01*
X136023608Y-136043186D01*
X136089500Y-136157314D01*
X136182686Y-136250500D01*
X136296814Y-136316392D01*
X136424108Y-136350500D01*
X136424109Y-136350500D01*
X136555891Y-136350500D01*
X136555892Y-136350500D01*
X136683186Y-136316392D01*
X136797314Y-136250500D01*
X136890500Y-136157314D01*
X136956392Y-136043186D01*
X136990500Y-135915892D01*
X136990500Y-135784108D01*
X136956392Y-135656814D01*
X136890500Y-135542686D01*
X136797314Y-135449500D01*
X136683186Y-135383608D01*
X136683185Y-135383607D01*
X136683184Y-135383607D01*
X136602482Y-135361983D01*
X136555892Y-135349500D01*
X136424108Y-135349500D01*
X136390001Y-135358638D01*
X136296815Y-135383607D01*
X136182686Y-135449500D01*
X136089500Y-135542686D01*
X136023607Y-135656815D01*
X135998638Y-135750001D01*
X135989500Y-135784108D01*
X100500500Y-135784108D01*
X100500500Y-130274108D01*
X133889500Y-130274108D01*
X133889500Y-130405892D01*
X133923608Y-130533186D01*
X133989500Y-130647314D01*
X134082686Y-130740500D01*
X134196814Y-130806392D01*
X134324108Y-130840500D01*
X134324109Y-130840500D01*
X134455891Y-130840500D01*
X134455892Y-130840500D01*
X134583186Y-130806392D01*
X134697314Y-130740500D01*
X134790500Y-130647314D01*
X134856392Y-130533186D01*
X134890500Y-130405892D01*
X134890500Y-130274108D01*
X134856392Y-130146814D01*
X134790500Y-130032686D01*
X134697314Y-129939500D01*
X134583186Y-129873608D01*
X134583185Y-129873607D01*
X134583184Y-129873607D01*
X134502482Y-129851983D01*
X134455892Y-129839500D01*
X134324108Y-129839500D01*
X134290001Y-129848638D01*
X134196815Y-129873607D01*
X134082686Y-129939500D01*
X133989500Y-130032686D01*
X133923607Y-130146815D01*
X133898638Y-130240001D01*
X133889500Y-130274108D01*
X100500500Y-130274108D01*
X100500500Y-127744108D01*
X113119500Y-127744108D01*
X113119500Y-127875892D01*
X113153608Y-128003186D01*
X113219500Y-128117314D01*
X113312686Y-128210500D01*
X113426814Y-128276392D01*
X113554108Y-128310500D01*
X113554109Y-128310500D01*
X113685891Y-128310500D01*
X113685892Y-128310500D01*
X113813186Y-128276392D01*
X113927314Y-128210500D01*
X114020500Y-128117314D01*
X114086392Y-128003186D01*
X114120500Y-127875892D01*
X114120500Y-127744108D01*
X114086392Y-127616814D01*
X114020500Y-127502686D01*
X113927314Y-127409500D01*
X113813186Y-127343608D01*
X113813185Y-127343607D01*
X113813184Y-127343607D01*
X113732482Y-127321983D01*
X113685892Y-127309500D01*
X113554108Y-127309500D01*
X113520001Y-127318638D01*
X113426815Y-127343607D01*
X113312686Y-127409500D01*
X113219500Y-127502686D01*
X113153607Y-127616815D01*
X113128638Y-127710001D01*
X113119500Y-127744108D01*
X100500500Y-127744108D01*
X100500500Y-124234108D01*
X118059500Y-124234108D01*
X118059500Y-124365892D01*
X118093608Y-124493186D01*
X118159500Y-124607314D01*
X118252686Y-124700500D01*
X118366814Y-124766392D01*
X118494108Y-124800500D01*
X118494109Y-124800500D01*
X118625891Y-124800500D01*
X118625892Y-124800500D01*
X118753186Y-124766392D01*
X118867314Y-124700500D01*
X118960500Y-124607314D01*
X119026392Y-124493186D01*
X119060500Y-124365892D01*
X119060500Y-124234108D01*
X119026392Y-124106814D01*
X118960500Y-123992686D01*
X118867314Y-123899500D01*
X118753186Y-123833608D01*
X118753185Y-123833607D01*
X118753184Y-123833607D01*
X118672482Y-123811983D01*
X118625892Y-123799500D01*
X118494108Y-123799500D01*
X118460001Y-123808638D01*
X118366815Y-123833607D01*
X118252686Y-123899500D01*
X118159500Y-123992686D01*
X118093607Y-124106815D01*
X118068638Y-124200001D01*
X118059500Y-124234108D01*
X100500500Y-124234108D01*
X100500500Y-122884108D01*
X157889500Y-122884108D01*
X157889500Y-123015892D01*
X157923608Y-123143186D01*
X157989500Y-123257314D01*
X158082686Y-123350500D01*
X158196814Y-123416392D01*
X158324108Y-123450500D01*
X158324109Y-123450500D01*
X158455891Y-123450500D01*
X158455892Y-123450500D01*
X158583186Y-123416392D01*
X158697314Y-123350500D01*
X158790500Y-123257314D01*
X158856392Y-123143186D01*
X158890500Y-123015892D01*
X158890500Y-122884108D01*
X158856392Y-122756814D01*
X158790500Y-122642686D01*
X158697314Y-122549500D01*
X158583186Y-122483608D01*
X158583185Y-122483607D01*
X158583184Y-122483607D01*
X158502482Y-122461983D01*
X158455892Y-122449500D01*
X158324108Y-122449500D01*
X158290001Y-122458638D01*
X158196815Y-122483607D01*
X158082686Y-122549500D01*
X157989500Y-122642686D01*
X157923607Y-122756815D01*
X157898638Y-122850001D01*
X157889500Y-122884108D01*
X100500500Y-122884108D01*
X100500500Y-121484108D01*
X132299500Y-121484108D01*
X132299500Y-121615892D01*
X132333608Y-121743186D01*
X132399500Y-121857314D01*
X132492686Y-121950500D01*
X132606814Y-122016392D01*
X132734108Y-122050500D01*
X132734109Y-122050500D01*
X132865891Y-122050500D01*
X132865892Y-122050500D01*
X132993186Y-122016392D01*
X133107314Y-121950500D01*
X133200500Y-121857314D01*
X133266392Y-121743186D01*
X133300500Y-121615892D01*
X133300500Y-121484108D01*
X133266392Y-121356814D01*
X133200500Y-121242686D01*
X133107314Y-121149500D01*
X132993186Y-121083608D01*
X132993185Y-121083607D01*
X132993184Y-121083607D01*
X132912482Y-121061983D01*
X132865892Y-121049500D01*
X132734108Y-121049500D01*
X132700001Y-121058638D01*
X132606815Y-121083607D01*
X132492686Y-121149500D01*
X132399500Y-121242686D01*
X132333607Y-121356815D01*
X132308638Y-121450001D01*
X132299500Y-121484108D01*
X100500500Y-121484108D01*
X100500500Y-118914108D01*
X133739500Y-118914108D01*
X133739500Y-119045892D01*
X133773608Y-119173186D01*
X133839500Y-119287314D01*
X133932686Y-119380500D01*
X134046814Y-119446392D01*
X134174108Y-119480500D01*
X134174109Y-119480500D01*
X134305891Y-119480500D01*
X134305892Y-119480500D01*
X134433186Y-119446392D01*
X134547314Y-119380500D01*
X134640500Y-119287314D01*
X134706392Y-119173186D01*
X134740500Y-119045892D01*
X134740500Y-118914108D01*
X134706392Y-118786814D01*
X134640500Y-118672686D01*
X134547314Y-118579500D01*
X134433186Y-118513608D01*
X134433185Y-118513607D01*
X134433184Y-118513607D01*
X134352482Y-118491983D01*
X134305892Y-118479500D01*
X134174108Y-118479500D01*
X134140001Y-118488638D01*
X134046815Y-118513607D01*
X133932686Y-118579500D01*
X133839500Y-118672686D01*
X133773607Y-118786815D01*
X133748638Y-118880001D01*
X133739500Y-118914108D01*
X100500500Y-118914108D01*
X100500500Y-117564629D01*
X136928979Y-117564629D01*
X136928979Y-117696413D01*
X136963087Y-117823707D01*
X137028979Y-117937835D01*
X137122165Y-118031021D01*
X137236293Y-118096913D01*
X137363587Y-118131021D01*
X137363588Y-118131021D01*
X137495370Y-118131021D01*
X137495371Y-118131021D01*
X137622665Y-118096913D01*
X137736793Y-118031021D01*
X137829979Y-117937835D01*
X137895871Y-117823707D01*
X137929979Y-117696413D01*
X137929979Y-117564629D01*
X137928054Y-117557446D01*
X137930451Y-117539237D01*
X137945023Y-117528054D01*
X137957445Y-117528054D01*
X137964629Y-117529979D01*
X137964631Y-117529979D01*
X138096412Y-117529979D01*
X138096413Y-117529979D01*
X138223707Y-117495871D01*
X138337835Y-117429979D01*
X138431021Y-117336793D01*
X138496913Y-117222665D01*
X138531021Y-117095371D01*
X138531021Y-116963587D01*
X138496913Y-116836293D01*
X138471392Y-116792091D01*
X138468996Y-116773880D01*
X138480178Y-116759307D01*
X138498389Y-116756910D01*
X138549108Y-116770500D01*
X138549109Y-116770500D01*
X138680891Y-116770500D01*
X138680892Y-116770500D01*
X138808186Y-116736392D01*
X138922314Y-116670500D01*
X139015500Y-116577314D01*
X139019216Y-116570876D01*
X139033788Y-116559696D01*
X139052000Y-116562093D01*
X139060783Y-116570876D01*
X139064500Y-116577314D01*
X139157686Y-116670500D01*
X139271814Y-116736392D01*
X139399108Y-116770500D01*
X139399109Y-116770500D01*
X139530891Y-116770500D01*
X139530892Y-116770500D01*
X139658186Y-116736392D01*
X139772314Y-116670500D01*
X139865500Y-116577314D01*
X139931392Y-116463186D01*
X139965500Y-116335892D01*
X139965500Y-116204108D01*
X139931392Y-116076814D01*
X139865500Y-115962686D01*
X139772314Y-115869500D01*
X139658186Y-115803608D01*
X139658185Y-115803607D01*
X139658184Y-115803607D01*
X139577482Y-115781983D01*
X139530892Y-115769500D01*
X139399108Y-115769500D01*
X139365001Y-115778638D01*
X139271815Y-115803607D01*
X139157686Y-115869500D01*
X139064499Y-115962687D01*
X139060784Y-115969122D01*
X139046211Y-115980303D01*
X139027999Y-115977905D01*
X139019216Y-115969122D01*
X139018440Y-115967779D01*
X139015500Y-115962686D01*
X138922314Y-115869500D01*
X138808186Y-115803608D01*
X138808185Y-115803607D01*
X138808184Y-115803607D01*
X138727482Y-115781983D01*
X138680892Y-115769500D01*
X138549108Y-115769500D01*
X138515001Y-115778638D01*
X138421815Y-115803607D01*
X138307686Y-115869500D01*
X138214500Y-115962686D01*
X138148607Y-116076815D01*
X138123638Y-116170001D01*
X138114500Y-116204108D01*
X138114500Y-116335892D01*
X138132777Y-116404106D01*
X138148607Y-116463184D01*
X138174127Y-116507386D01*
X138176524Y-116525598D01*
X138165342Y-116540171D01*
X138147131Y-116542568D01*
X138096413Y-116528979D01*
X137964629Y-116528979D01*
X137930522Y-116538117D01*
X137837336Y-116563086D01*
X137723207Y-116628979D01*
X137630021Y-116722165D01*
X137564128Y-116836294D01*
X137530021Y-116963588D01*
X137530021Y-117095371D01*
X137531945Y-117102552D01*
X137529547Y-117120763D01*
X137514974Y-117131945D01*
X137502552Y-117131945D01*
X137495371Y-117130021D01*
X137363587Y-117130021D01*
X137329480Y-117139159D01*
X137236294Y-117164128D01*
X137122165Y-117230021D01*
X137028979Y-117323207D01*
X136963086Y-117437336D01*
X136947402Y-117495871D01*
X136928979Y-117564629D01*
X100500500Y-117564629D01*
X100500500Y-111841432D01*
X164724231Y-111841432D01*
X164724231Y-111973216D01*
X164758339Y-112100510D01*
X164824231Y-112214638D01*
X164917417Y-112307824D01*
X165031545Y-112373716D01*
X165158839Y-112407824D01*
X165158840Y-112407824D01*
X165290622Y-112407824D01*
X165290623Y-112407824D01*
X165417917Y-112373716D01*
X165532045Y-112307824D01*
X165625231Y-112214638D01*
X165691123Y-112100510D01*
X165725231Y-111973216D01*
X165725231Y-111946776D01*
X165732260Y-111929805D01*
X165749231Y-111922776D01*
X165755441Y-111923593D01*
X165805657Y-111937049D01*
X165805658Y-111937049D01*
X165937440Y-111937049D01*
X165937441Y-111937049D01*
X166064735Y-111902941D01*
X166178863Y-111837049D01*
X166272049Y-111743863D01*
X166275765Y-111737425D01*
X166290337Y-111726245D01*
X166308549Y-111728642D01*
X166317332Y-111737425D01*
X166321049Y-111743863D01*
X166414235Y-111837049D01*
X166528363Y-111902941D01*
X166655657Y-111937049D01*
X166655658Y-111937049D01*
X166787440Y-111937049D01*
X166787441Y-111937049D01*
X166914735Y-111902941D01*
X167028863Y-111837049D01*
X167122049Y-111743863D01*
X167187941Y-111629735D01*
X167222049Y-111502441D01*
X167222049Y-111370657D01*
X167187941Y-111243363D01*
X167122049Y-111129235D01*
X167028863Y-111036049D01*
X166914735Y-110970157D01*
X166914734Y-110970156D01*
X166914733Y-110970156D01*
X166834031Y-110948532D01*
X166787441Y-110936049D01*
X166655657Y-110936049D01*
X166621550Y-110945187D01*
X166528364Y-110970156D01*
X166414235Y-111036049D01*
X166321048Y-111129236D01*
X166317333Y-111135671D01*
X166302760Y-111146852D01*
X166284548Y-111144454D01*
X166275765Y-111135671D01*
X166272077Y-111129284D01*
X166272049Y-111129235D01*
X166178863Y-111036049D01*
X166064735Y-110970157D01*
X166064734Y-110970156D01*
X166064733Y-110970156D01*
X165984031Y-110948532D01*
X165937441Y-110936049D01*
X165805657Y-110936049D01*
X165771550Y-110945187D01*
X165678364Y-110970156D01*
X165564235Y-111036049D01*
X165471049Y-111129235D01*
X165405156Y-111243364D01*
X165371049Y-111370658D01*
X165371049Y-111397096D01*
X165364020Y-111414067D01*
X165347049Y-111421096D01*
X165340838Y-111420278D01*
X165290623Y-111406824D01*
X165158839Y-111406824D01*
X165124732Y-111415962D01*
X165031546Y-111440931D01*
X164917417Y-111506824D01*
X164824231Y-111600010D01*
X164758338Y-111714139D01*
X164750374Y-111743863D01*
X164724231Y-111841432D01*
X100500500Y-111841432D01*
X100500500Y-111034108D01*
X162129500Y-111034108D01*
X162129500Y-111165892D01*
X162144132Y-111220499D01*
X162161787Y-111286392D01*
X162163608Y-111293186D01*
X162229500Y-111407314D01*
X162322686Y-111500500D01*
X162436814Y-111566392D01*
X162564108Y-111600500D01*
X162564109Y-111600500D01*
X162695891Y-111600500D01*
X162695892Y-111600500D01*
X162823186Y-111566392D01*
X162937314Y-111500500D01*
X163030500Y-111407314D01*
X163096392Y-111293186D01*
X163130500Y-111165892D01*
X163130500Y-111146255D01*
X163137529Y-111129284D01*
X163154500Y-111122255D01*
X163171469Y-111129283D01*
X163262686Y-111220500D01*
X163376814Y-111286392D01*
X163504108Y-111320500D01*
X163504109Y-111320500D01*
X163635891Y-111320500D01*
X163635892Y-111320500D01*
X163763186Y-111286392D01*
X163877314Y-111220500D01*
X163970500Y-111127314D01*
X164036392Y-111013186D01*
X164070500Y-110885892D01*
X164070500Y-110754108D01*
X164036392Y-110626814D01*
X163970500Y-110512686D01*
X163877314Y-110419500D01*
X163816013Y-110384108D01*
X164429500Y-110384108D01*
X164429500Y-110515892D01*
X164447777Y-110584106D01*
X164461041Y-110633608D01*
X164463608Y-110643186D01*
X164529500Y-110757314D01*
X164622686Y-110850500D01*
X164736814Y-110916392D01*
X164864108Y-110950500D01*
X164864109Y-110950500D01*
X164995891Y-110950500D01*
X164995892Y-110950500D01*
X165123186Y-110916392D01*
X165237314Y-110850500D01*
X165330500Y-110757314D01*
X165396392Y-110643186D01*
X165430500Y-110515892D01*
X165430500Y-110384108D01*
X165396392Y-110256814D01*
X165330500Y-110142686D01*
X165237314Y-110049500D01*
X165123186Y-109983608D01*
X165123185Y-109983607D01*
X165123184Y-109983607D01*
X165042482Y-109961983D01*
X164995892Y-109949500D01*
X164864108Y-109949500D01*
X164830001Y-109958638D01*
X164736815Y-109983607D01*
X164622686Y-110049500D01*
X164529500Y-110142686D01*
X164463607Y-110256815D01*
X164438638Y-110350001D01*
X164429500Y-110384108D01*
X163816013Y-110384108D01*
X163763186Y-110353608D01*
X163763185Y-110353607D01*
X163763184Y-110353607D01*
X163682482Y-110331983D01*
X163635892Y-110319500D01*
X163504108Y-110319500D01*
X163470001Y-110328638D01*
X163376815Y-110353607D01*
X163262686Y-110419500D01*
X163169500Y-110512686D01*
X163103607Y-110626815D01*
X163069500Y-110754109D01*
X163069500Y-110773745D01*
X163062471Y-110790716D01*
X163045500Y-110797745D01*
X163028530Y-110790716D01*
X162937314Y-110699500D01*
X162823186Y-110633608D01*
X162823185Y-110633607D01*
X162823184Y-110633607D01*
X162742482Y-110611983D01*
X162695892Y-110599500D01*
X162564108Y-110599500D01*
X162530001Y-110608638D01*
X162436815Y-110633607D01*
X162322686Y-110699500D01*
X162229500Y-110792686D01*
X162163607Y-110906815D01*
X162146635Y-110970157D01*
X162129500Y-111034108D01*
X100500500Y-111034108D01*
X100500500Y-109854108D01*
X167209500Y-109854108D01*
X167209500Y-109985892D01*
X167243608Y-110113186D01*
X167309500Y-110227314D01*
X167402686Y-110320500D01*
X167516814Y-110386392D01*
X167644108Y-110420500D01*
X167644109Y-110420500D01*
X167775891Y-110420500D01*
X167775892Y-110420500D01*
X167903186Y-110386392D01*
X168017314Y-110320500D01*
X168110500Y-110227314D01*
X168176392Y-110113186D01*
X168210500Y-109985892D01*
X168210500Y-109854108D01*
X168176392Y-109726814D01*
X168110500Y-109612686D01*
X168017314Y-109519500D01*
X167903186Y-109453608D01*
X167903185Y-109453607D01*
X167903184Y-109453607D01*
X167822482Y-109431983D01*
X167775892Y-109419500D01*
X167644108Y-109419500D01*
X167610001Y-109428638D01*
X167516815Y-109453607D01*
X167402686Y-109519500D01*
X167309500Y-109612686D01*
X167243607Y-109726815D01*
X167218638Y-109820001D01*
X167209500Y-109854108D01*
X100500500Y-109854108D01*
X100500500Y-108680800D01*
X159883298Y-108680800D01*
X159883298Y-108812584D01*
X159917406Y-108939878D01*
X159983298Y-109054006D01*
X160076484Y-109147192D01*
X160190612Y-109213084D01*
X160317906Y-109247192D01*
X160317907Y-109247192D01*
X160449689Y-109247192D01*
X160449690Y-109247192D01*
X160576984Y-109213084D01*
X160691112Y-109147192D01*
X160738530Y-109099773D01*
X160755500Y-109092745D01*
X160772471Y-109099774D01*
X160779500Y-109116745D01*
X160779500Y-109235892D01*
X160813608Y-109363186D01*
X160879500Y-109477314D01*
X160972686Y-109570500D01*
X161086814Y-109636392D01*
X161214108Y-109670500D01*
X161214109Y-109670500D01*
X161345891Y-109670500D01*
X161345892Y-109670500D01*
X161473186Y-109636392D01*
X161587314Y-109570500D01*
X161680500Y-109477314D01*
X161746392Y-109363186D01*
X161780500Y-109235892D01*
X161780500Y-109104108D01*
X161746392Y-108976814D01*
X161680500Y-108862686D01*
X161587314Y-108769500D01*
X161473186Y-108703608D01*
X161473185Y-108703607D01*
X161473184Y-108703607D01*
X161388068Y-108680801D01*
X161345892Y-108669500D01*
X161214108Y-108669500D01*
X161180001Y-108678638D01*
X161086815Y-108703607D01*
X160972686Y-108769500D01*
X160925267Y-108816918D01*
X160908298Y-108823947D01*
X160891327Y-108816918D01*
X160884298Y-108799947D01*
X160884298Y-108680801D01*
X160859002Y-108586392D01*
X160850190Y-108553506D01*
X160784298Y-108439378D01*
X160691112Y-108346192D01*
X160576984Y-108280300D01*
X160576983Y-108280299D01*
X160576982Y-108280299D01*
X160496280Y-108258675D01*
X160449690Y-108246192D01*
X160317906Y-108246192D01*
X160283799Y-108255330D01*
X160190613Y-108280299D01*
X160076484Y-108346192D01*
X159983298Y-108439378D01*
X159917405Y-108553507D01*
X159908594Y-108586392D01*
X159883298Y-108680800D01*
X100500500Y-108680800D01*
X100500500Y-107374108D01*
X164989500Y-107374108D01*
X164989500Y-107505892D01*
X165007777Y-107574106D01*
X165020253Y-107620668D01*
X165023608Y-107633186D01*
X165089500Y-107747314D01*
X165182686Y-107840500D01*
X165296814Y-107906392D01*
X165424108Y-107940500D01*
X165424109Y-107940500D01*
X165528664Y-107940500D01*
X165545635Y-107947529D01*
X165552664Y-107964500D01*
X165551846Y-107970709D01*
X165529500Y-108054108D01*
X165529500Y-108185892D01*
X165563608Y-108313186D01*
X165629500Y-108427314D01*
X165722686Y-108520500D01*
X165836814Y-108586392D01*
X165964108Y-108620500D01*
X165964109Y-108620500D01*
X166095891Y-108620500D01*
X166095892Y-108620500D01*
X166223186Y-108586392D01*
X166337314Y-108520500D01*
X166430500Y-108427314D01*
X166496392Y-108313186D01*
X166530500Y-108185892D01*
X166530500Y-108054108D01*
X166496392Y-107926814D01*
X166430500Y-107812686D01*
X166337314Y-107719500D01*
X166223186Y-107653608D01*
X166223185Y-107653607D01*
X166223184Y-107653607D01*
X166142482Y-107631983D01*
X166095892Y-107619500D01*
X165991335Y-107619500D01*
X165974364Y-107612471D01*
X165967335Y-107595500D01*
X165968153Y-107589288D01*
X165990500Y-107505892D01*
X165990500Y-107374108D01*
X165956392Y-107246814D01*
X165890500Y-107132686D01*
X165797314Y-107039500D01*
X165683186Y-106973608D01*
X165683185Y-106973607D01*
X165683184Y-106973607D01*
X165602482Y-106951983D01*
X165555892Y-106939500D01*
X165424108Y-106939500D01*
X165390001Y-106948638D01*
X165296815Y-106973607D01*
X165182686Y-107039500D01*
X165089500Y-107132686D01*
X165023607Y-107246815D01*
X164998638Y-107340001D01*
X164989500Y-107374108D01*
X100500500Y-107374108D01*
X100500500Y-106564108D01*
X158829500Y-106564108D01*
X158829500Y-106695892D01*
X158863608Y-106823186D01*
X158929500Y-106937314D01*
X159022686Y-107030500D01*
X159136814Y-107096392D01*
X159264108Y-107130500D01*
X159264109Y-107130500D01*
X159395891Y-107130500D01*
X159395892Y-107130500D01*
X159523186Y-107096392D01*
X159637314Y-107030500D01*
X159730500Y-106937314D01*
X159796392Y-106823186D01*
X159830500Y-106695892D01*
X159830500Y-106564108D01*
X159796392Y-106436814D01*
X159730500Y-106322686D01*
X159637314Y-106229500D01*
X159523186Y-106163608D01*
X159523185Y-106163607D01*
X159523184Y-106163607D01*
X159442482Y-106141983D01*
X159395892Y-106129500D01*
X159264108Y-106129500D01*
X159230001Y-106138638D01*
X159136815Y-106163607D01*
X159022686Y-106229500D01*
X158929500Y-106322686D01*
X158863607Y-106436815D01*
X158838638Y-106530001D01*
X158829500Y-106564108D01*
X100500500Y-106564108D01*
X100500500Y-101758712D01*
X101799500Y-101758712D01*
X101799500Y-102001288D01*
X101821894Y-102171392D01*
X101831163Y-102241796D01*
X101893944Y-102476097D01*
X101893948Y-102476106D01*
X101986776Y-102700212D01*
X102092659Y-102883607D01*
X102108068Y-102910296D01*
X102255727Y-103102728D01*
X102255729Y-103102731D01*
X102255731Y-103102733D01*
X102255735Y-103102738D01*
X102427262Y-103274265D01*
X102427266Y-103274268D01*
X102427268Y-103274270D01*
X102427271Y-103274272D01*
X102619703Y-103421931D01*
X102619708Y-103421934D01*
X102619711Y-103421936D01*
X102829788Y-103543224D01*
X103007219Y-103616718D01*
X103053893Y-103636051D01*
X103053902Y-103636055D01*
X103288203Y-103698836D01*
X103288204Y-103698836D01*
X103288211Y-103698838D01*
X103528712Y-103730500D01*
X103528716Y-103730500D01*
X103771284Y-103730500D01*
X103771288Y-103730500D01*
X104011789Y-103698838D01*
X104102698Y-103674478D01*
X104246097Y-103636055D01*
X104246098Y-103636054D01*
X104246100Y-103636054D01*
X104292784Y-103616717D01*
X156321918Y-103616717D01*
X156321918Y-103748501D01*
X156356026Y-103875795D01*
X156421918Y-103989923D01*
X156515104Y-104083109D01*
X156629232Y-104149001D01*
X156756526Y-104183109D01*
X156756527Y-104183109D01*
X156888309Y-104183109D01*
X156888310Y-104183109D01*
X157015604Y-104149001D01*
X157129732Y-104083109D01*
X157222918Y-103989923D01*
X157288810Y-103875795D01*
X157303610Y-103820558D01*
X157314791Y-103805987D01*
X157333002Y-103803589D01*
X157338789Y-103805985D01*
X157356814Y-103816392D01*
X157484108Y-103850500D01*
X157484109Y-103850500D01*
X157615891Y-103850500D01*
X157615892Y-103850500D01*
X157743186Y-103816392D01*
X157857314Y-103750500D01*
X157950500Y-103657314D01*
X158016392Y-103543186D01*
X158050500Y-103415892D01*
X158050500Y-103284108D01*
X158016392Y-103156814D01*
X157950500Y-103042686D01*
X157857314Y-102949500D01*
X157743186Y-102883608D01*
X157743185Y-102883607D01*
X157743184Y-102883607D01*
X157662482Y-102861983D01*
X157615892Y-102849500D01*
X157484108Y-102849500D01*
X157450001Y-102858638D01*
X157356815Y-102883607D01*
X157242686Y-102949500D01*
X157149500Y-103042686D01*
X157083607Y-103156815D01*
X157068807Y-103212048D01*
X157057625Y-103226621D01*
X157039413Y-103229018D01*
X157033626Y-103226621D01*
X157015604Y-103216217D01*
X157000045Y-103212048D01*
X156888310Y-103182109D01*
X156756526Y-103182109D01*
X156722419Y-103191247D01*
X156629233Y-103216216D01*
X156515104Y-103282109D01*
X156421918Y-103375295D01*
X156356025Y-103489424D01*
X156341621Y-103543184D01*
X156321918Y-103616717D01*
X104292784Y-103616717D01*
X104470212Y-103543224D01*
X104680289Y-103421936D01*
X104688169Y-103415890D01*
X104748695Y-103369445D01*
X104872738Y-103274265D01*
X105044265Y-103102738D01*
X105139445Y-102978695D01*
X105191931Y-102910296D01*
X105191932Y-102910294D01*
X105191936Y-102910289D01*
X105313224Y-102700212D01*
X105406054Y-102476100D01*
X105406055Y-102476097D01*
X105414627Y-102444108D01*
X165999500Y-102444108D01*
X165999500Y-102575892D01*
X166017777Y-102644106D01*
X166032810Y-102700211D01*
X166033608Y-102703186D01*
X166099500Y-102817314D01*
X166192686Y-102910500D01*
X166306814Y-102976392D01*
X166434108Y-103010500D01*
X166434109Y-103010500D01*
X166565891Y-103010500D01*
X166565892Y-103010500D01*
X166693186Y-102976392D01*
X166807314Y-102910500D01*
X166900500Y-102817314D01*
X166966392Y-102703186D01*
X167000500Y-102575892D01*
X167000500Y-102444108D01*
X166966392Y-102316814D01*
X166900500Y-102202686D01*
X166807314Y-102109500D01*
X166693186Y-102043608D01*
X166693185Y-102043607D01*
X166693184Y-102043607D01*
X166612482Y-102021983D01*
X166565892Y-102009500D01*
X166434108Y-102009500D01*
X166400001Y-102018638D01*
X166306815Y-102043607D01*
X166192686Y-102109500D01*
X166099500Y-102202686D01*
X166033607Y-102316815D01*
X166008638Y-102410001D01*
X165999500Y-102444108D01*
X105414627Y-102444108D01*
X105416713Y-102436323D01*
X105468836Y-102241796D01*
X105468835Y-102241796D01*
X105468838Y-102241789D01*
X105500500Y-102001288D01*
X105500500Y-101758712D01*
X105468838Y-101518211D01*
X105467124Y-101511814D01*
X105406055Y-101283902D01*
X105406051Y-101283893D01*
X105313224Y-101059788D01*
X105191936Y-100849711D01*
X105191934Y-100849708D01*
X105191931Y-100849703D01*
X105044272Y-100657271D01*
X105044270Y-100657268D01*
X105044268Y-100657266D01*
X105044265Y-100657262D01*
X104903382Y-100516379D01*
X111589500Y-100516379D01*
X111589500Y-100703620D01*
X111626025Y-100887246D01*
X111626027Y-100887253D01*
X111697675Y-101060227D01*
X111697678Y-101060231D01*
X111801698Y-101215908D01*
X111934092Y-101348302D01*
X112089769Y-101452322D01*
X112089772Y-101452324D01*
X112262746Y-101523972D01*
X112262753Y-101523974D01*
X112441612Y-101559550D01*
X112446384Y-101560500D01*
X112446388Y-101560500D01*
X112633612Y-101560500D01*
X112633616Y-101560500D01*
X112817251Y-101523973D01*
X112874911Y-101500089D01*
X112990227Y-101452324D01*
X112990228Y-101452323D01*
X112990231Y-101452322D01*
X113145908Y-101348302D01*
X113278302Y-101215908D01*
X113382322Y-101060231D01*
X113382505Y-101059791D01*
X113453972Y-100887253D01*
X113453974Y-100887246D01*
X113473495Y-100789108D01*
X126159500Y-100789108D01*
X126159500Y-100920892D01*
X126193608Y-101048186D01*
X126259500Y-101162314D01*
X126352686Y-101255500D01*
X126357779Y-101258440D01*
X126359122Y-101259216D01*
X126370303Y-101273789D01*
X126367905Y-101292001D01*
X126359122Y-101300784D01*
X126352687Y-101304499D01*
X126259500Y-101397686D01*
X126193607Y-101511815D01*
X126168638Y-101605001D01*
X126159500Y-101639108D01*
X126159500Y-101770892D01*
X126193608Y-101898186D01*
X126259500Y-102012314D01*
X126352686Y-102105500D01*
X126466814Y-102171392D01*
X126594108Y-102205500D01*
X126594109Y-102205500D01*
X126725891Y-102205500D01*
X126725892Y-102205500D01*
X126853186Y-102171392D01*
X126967314Y-102105500D01*
X127060500Y-102012314D01*
X127126392Y-101898186D01*
X127160500Y-101770892D01*
X127160500Y-101639108D01*
X127126392Y-101511814D01*
X127060500Y-101397686D01*
X126967314Y-101304500D01*
X126960876Y-101300783D01*
X126949696Y-101286212D01*
X126952093Y-101268000D01*
X126960876Y-101259216D01*
X126967314Y-101255500D01*
X127060500Y-101162314D01*
X127126392Y-101048186D01*
X127160500Y-100920892D01*
X127160500Y-100789108D01*
X127126392Y-100661814D01*
X127060500Y-100547686D01*
X126967314Y-100454500D01*
X126853186Y-100388608D01*
X126853185Y-100388607D01*
X126853184Y-100388607D01*
X126772482Y-100366983D01*
X126725892Y-100354500D01*
X126594108Y-100354500D01*
X126576911Y-100359108D01*
X126466815Y-100388607D01*
X126352686Y-100454500D01*
X126259500Y-100547686D01*
X126193607Y-100661815D01*
X126182408Y-100703612D01*
X126159500Y-100789108D01*
X113473495Y-100789108D01*
X113474739Y-100782853D01*
X113490499Y-100703620D01*
X113490500Y-100703616D01*
X113490500Y-100516384D01*
X113453973Y-100332749D01*
X113436473Y-100290500D01*
X113382324Y-100159772D01*
X113358386Y-100123946D01*
X113278302Y-100004092D01*
X113145908Y-99871698D01*
X113023978Y-99790227D01*
X112990227Y-99767675D01*
X112817253Y-99696027D01*
X112817246Y-99696025D01*
X112633620Y-99659500D01*
X112633616Y-99659500D01*
X112446384Y-99659500D01*
X112446379Y-99659500D01*
X112262753Y-99696025D01*
X112262746Y-99696027D01*
X112089772Y-99767675D01*
X111934094Y-99871696D01*
X111801696Y-100004094D01*
X111697675Y-100159772D01*
X111626027Y-100332746D01*
X111626025Y-100332753D01*
X111589500Y-100516379D01*
X104903382Y-100516379D01*
X104872738Y-100485735D01*
X104872733Y-100485731D01*
X104872731Y-100485729D01*
X104872728Y-100485727D01*
X104680296Y-100338068D01*
X104660975Y-100326913D01*
X104470212Y-100216776D01*
X104470209Y-100216774D01*
X104470208Y-100216774D01*
X104246106Y-100123948D01*
X104246097Y-100123944D01*
X104011796Y-100061163D01*
X104011789Y-100061162D01*
X103771288Y-100029500D01*
X103528712Y-100029500D01*
X103310271Y-100058257D01*
X103288203Y-100061163D01*
X103053902Y-100123944D01*
X103053893Y-100123948D01*
X102829791Y-100216774D01*
X102829788Y-100216776D01*
X102619703Y-100338068D01*
X102427271Y-100485727D01*
X102427268Y-100485729D01*
X102255729Y-100657268D01*
X102255727Y-100657271D01*
X102108068Y-100849703D01*
X101986776Y-101059788D01*
X101986774Y-101059791D01*
X101893948Y-101283893D01*
X101893944Y-101283902D01*
X101831163Y-101518203D01*
X101831162Y-101518211D01*
X101799500Y-101758712D01*
X100500500Y-101758712D01*
X100500500Y-99246379D01*
X109049500Y-99246379D01*
X109049500Y-99433620D01*
X109086025Y-99617246D01*
X109086027Y-99617253D01*
X109157675Y-99790227D01*
X109248672Y-99926413D01*
X109261698Y-99945908D01*
X109394092Y-100078302D01*
X109462400Y-100123944D01*
X109549772Y-100182324D01*
X109722746Y-100253972D01*
X109722753Y-100253974D01*
X109901612Y-100289550D01*
X109906384Y-100290500D01*
X109906388Y-100290500D01*
X110093612Y-100290500D01*
X110093616Y-100290500D01*
X110277251Y-100253973D01*
X110367057Y-100216774D01*
X110450227Y-100182324D01*
X110450228Y-100182323D01*
X110450231Y-100182322D01*
X110605908Y-100078302D01*
X110738302Y-99945908D01*
X110842322Y-99790231D01*
X110843475Y-99787449D01*
X110902272Y-99645500D01*
X110913973Y-99617251D01*
X110950500Y-99433616D01*
X110950500Y-99246384D01*
X110939998Y-99193587D01*
X110913974Y-99062753D01*
X110913972Y-99062746D01*
X110842324Y-98889772D01*
X110787888Y-98808303D01*
X110738302Y-98734092D01*
X110605908Y-98601698D01*
X110450231Y-98497678D01*
X110450232Y-98497678D01*
X110450227Y-98497675D01*
X110277253Y-98426027D01*
X110277246Y-98426025D01*
X110093620Y-98389500D01*
X110093616Y-98389500D01*
X109906384Y-98389500D01*
X109906379Y-98389500D01*
X109722753Y-98426025D01*
X109722746Y-98426027D01*
X109549772Y-98497675D01*
X109394094Y-98601696D01*
X109261696Y-98734094D01*
X109157675Y-98889772D01*
X109086027Y-99062746D01*
X109086025Y-99062753D01*
X109049500Y-99246379D01*
X100500500Y-99246379D01*
X100500500Y-96706379D01*
X109049500Y-96706379D01*
X109049500Y-96893620D01*
X109086025Y-97077246D01*
X109086027Y-97077253D01*
X109157675Y-97250227D01*
X109167880Y-97265500D01*
X109261698Y-97405908D01*
X109394092Y-97538302D01*
X109489146Y-97601815D01*
X109549772Y-97642324D01*
X109722746Y-97713972D01*
X109722753Y-97713974D01*
X109798838Y-97729108D01*
X109906384Y-97750500D01*
X109906388Y-97750500D01*
X110093612Y-97750500D01*
X110093616Y-97750500D01*
X110277251Y-97713973D01*
X110334911Y-97690089D01*
X110450227Y-97642324D01*
X110450228Y-97642323D01*
X110450231Y-97642322D01*
X110605908Y-97538302D01*
X110738302Y-97405908D01*
X110842322Y-97250231D01*
X110855052Y-97219500D01*
X110898206Y-97115316D01*
X110911195Y-97102327D01*
X110920379Y-97100500D01*
X112182239Y-97100500D01*
X112215500Y-97100500D01*
X112232471Y-97107529D01*
X112239500Y-97124500D01*
X112239500Y-97149620D01*
X112232471Y-97166591D01*
X112224685Y-97171793D01*
X112089771Y-97227676D01*
X111934094Y-97331696D01*
X111801696Y-97464094D01*
X111697675Y-97619772D01*
X111626027Y-97792746D01*
X111626025Y-97792753D01*
X111589500Y-97976379D01*
X111589500Y-98163620D01*
X111626025Y-98347246D01*
X111626027Y-98347253D01*
X111697675Y-98520227D01*
X111697678Y-98520231D01*
X111801698Y-98675908D01*
X111934092Y-98808302D01*
X112009936Y-98858979D01*
X112089772Y-98912324D01*
X112262746Y-98983972D01*
X112262753Y-98983974D01*
X112441612Y-99019550D01*
X112446384Y-99020500D01*
X112446388Y-99020500D01*
X112633612Y-99020500D01*
X112633616Y-99020500D01*
X112817251Y-98983973D01*
X112894889Y-98951814D01*
X112990227Y-98912324D01*
X112990228Y-98912323D01*
X112990231Y-98912322D01*
X113145908Y-98808302D01*
X113278302Y-98675908D01*
X113382322Y-98520231D01*
X113395597Y-98488184D01*
X113448323Y-98360892D01*
X113453973Y-98347251D01*
X113477473Y-98229108D01*
X120799500Y-98229108D01*
X120799500Y-98360892D01*
X120833608Y-98488186D01*
X120899500Y-98602314D01*
X120992686Y-98695500D01*
X120997779Y-98698440D01*
X120999122Y-98699216D01*
X121010303Y-98713789D01*
X121007905Y-98732001D01*
X120999122Y-98740784D01*
X120992687Y-98744499D01*
X120899500Y-98837686D01*
X120833607Y-98951815D01*
X120815204Y-99020499D01*
X120799500Y-99079108D01*
X120799500Y-99210892D01*
X120809009Y-99246379D01*
X120830173Y-99325369D01*
X120833608Y-99338186D01*
X120899500Y-99452314D01*
X120992686Y-99545500D01*
X121106814Y-99611392D01*
X121234108Y-99645500D01*
X121234109Y-99645500D01*
X121365891Y-99645500D01*
X121365892Y-99645500D01*
X121493186Y-99611392D01*
X121607314Y-99545500D01*
X121643706Y-99509108D01*
X152919500Y-99509108D01*
X152919500Y-99640892D01*
X152926586Y-99667336D01*
X152953471Y-99767678D01*
X152953608Y-99768186D01*
X153019500Y-99882314D01*
X153112686Y-99975500D01*
X153117779Y-99978440D01*
X153119122Y-99979216D01*
X153130303Y-99993789D01*
X153127905Y-100012001D01*
X153119122Y-100020784D01*
X153112687Y-100024499D01*
X153019500Y-100117686D01*
X152953607Y-100231815D01*
X152937883Y-100290500D01*
X152919500Y-100359108D01*
X152919500Y-100490892D01*
X152953608Y-100618186D01*
X153019500Y-100732314D01*
X153112686Y-100825500D01*
X153226814Y-100891392D01*
X153354108Y-100925500D01*
X153354109Y-100925500D01*
X153485891Y-100925500D01*
X153485892Y-100925500D01*
X153613186Y-100891392D01*
X153727314Y-100825500D01*
X153820500Y-100732314D01*
X153886392Y-100618186D01*
X153920500Y-100490892D01*
X153920500Y-100359108D01*
X153886392Y-100231814D01*
X153820500Y-100117686D01*
X153727314Y-100024500D01*
X153720876Y-100020783D01*
X153709696Y-100006212D01*
X153712093Y-99988000D01*
X153720876Y-99979216D01*
X153727314Y-99975500D01*
X153820500Y-99882314D01*
X153871125Y-99794629D01*
X164438979Y-99794629D01*
X164438979Y-99926413D01*
X164455481Y-99988000D01*
X164464265Y-100020785D01*
X164473087Y-100053707D01*
X164538979Y-100167835D01*
X164632165Y-100261021D01*
X164746293Y-100326913D01*
X164873587Y-100361021D01*
X164873588Y-100361021D01*
X165005370Y-100361021D01*
X165005371Y-100361021D01*
X165132665Y-100326913D01*
X165246793Y-100261021D01*
X165339979Y-100167835D01*
X165405871Y-100053707D01*
X165439979Y-99926413D01*
X165439979Y-99794629D01*
X165438054Y-99787446D01*
X165440451Y-99769237D01*
X165455023Y-99758054D01*
X165467445Y-99758054D01*
X165474629Y-99759979D01*
X165474631Y-99759979D01*
X165606412Y-99759979D01*
X165606413Y-99759979D01*
X165733707Y-99725871D01*
X165847835Y-99659979D01*
X165941021Y-99566793D01*
X166006913Y-99452665D01*
X166041021Y-99325371D01*
X166041021Y-99193587D01*
X166006913Y-99066293D01*
X165941021Y-98952165D01*
X165847835Y-98858979D01*
X165733707Y-98793087D01*
X165733706Y-98793086D01*
X165733705Y-98793086D01*
X165653003Y-98771462D01*
X165606413Y-98758979D01*
X165474629Y-98758979D01*
X165440522Y-98768117D01*
X165347336Y-98793086D01*
X165233207Y-98858979D01*
X165140021Y-98952165D01*
X165074128Y-99066294D01*
X165040021Y-99193588D01*
X165040021Y-99325371D01*
X165041945Y-99332552D01*
X165039547Y-99350763D01*
X165024974Y-99361945D01*
X165012552Y-99361945D01*
X165005371Y-99360021D01*
X164873587Y-99360021D01*
X164839480Y-99369159D01*
X164746294Y-99394128D01*
X164632165Y-99460021D01*
X164538979Y-99553207D01*
X164473086Y-99667336D01*
X164465399Y-99696027D01*
X164438979Y-99794629D01*
X153871125Y-99794629D01*
X153886392Y-99768186D01*
X153920500Y-99640892D01*
X153920500Y-99509108D01*
X153886392Y-99381814D01*
X153820500Y-99267686D01*
X153727314Y-99174500D01*
X153613186Y-99108608D01*
X153613185Y-99108607D01*
X153613184Y-99108607D01*
X153503089Y-99079108D01*
X153485892Y-99074500D01*
X153354108Y-99074500D01*
X153336911Y-99079108D01*
X153226815Y-99108607D01*
X153112686Y-99174500D01*
X153019500Y-99267686D01*
X152953607Y-99381815D01*
X152934718Y-99452313D01*
X152919500Y-99509108D01*
X121643706Y-99509108D01*
X121700500Y-99452314D01*
X121766392Y-99338186D01*
X121800500Y-99210892D01*
X121800500Y-99079108D01*
X121766392Y-98951814D01*
X121700500Y-98837686D01*
X121607314Y-98744500D01*
X121600876Y-98740783D01*
X121589696Y-98726212D01*
X121592093Y-98708000D01*
X121600876Y-98699216D01*
X121607314Y-98695500D01*
X121700500Y-98602314D01*
X121766392Y-98488186D01*
X121800500Y-98360892D01*
X121800500Y-98229108D01*
X121766392Y-98101814D01*
X121700500Y-97987686D01*
X121607314Y-97894500D01*
X121493186Y-97828608D01*
X121493185Y-97828607D01*
X121493184Y-97828607D01*
X121412482Y-97806983D01*
X121365892Y-97794500D01*
X121234108Y-97794500D01*
X121200001Y-97803638D01*
X121106815Y-97828607D01*
X120992686Y-97894500D01*
X120899500Y-97987686D01*
X120833607Y-98101815D01*
X120828601Y-98120499D01*
X120799500Y-98229108D01*
X113477473Y-98229108D01*
X113490500Y-98163616D01*
X113490500Y-97976384D01*
X113470511Y-97875890D01*
X113453974Y-97792753D01*
X113453973Y-97792752D01*
X113453973Y-97792749D01*
X113436473Y-97750500D01*
X113433825Y-97744108D01*
X137979500Y-97744108D01*
X137979500Y-97875892D01*
X137989493Y-97913186D01*
X138009588Y-97988186D01*
X138013608Y-98003186D01*
X138079500Y-98117314D01*
X138172686Y-98210500D01*
X138286814Y-98276392D01*
X138414108Y-98310500D01*
X138414109Y-98310500D01*
X138545891Y-98310500D01*
X138545892Y-98310500D01*
X138673186Y-98276392D01*
X138787314Y-98210500D01*
X138880500Y-98117314D01*
X138946392Y-98003186D01*
X138980500Y-97875892D01*
X138980500Y-97744108D01*
X138972426Y-97713974D01*
X138957628Y-97658746D01*
X138956385Y-97654108D01*
X143369500Y-97654108D01*
X143369500Y-97785892D01*
X143380946Y-97828608D01*
X143393614Y-97875890D01*
X143403608Y-97913186D01*
X143469500Y-98027314D01*
X143562686Y-98120500D01*
X143676814Y-98186392D01*
X143804108Y-98220500D01*
X143804109Y-98220500D01*
X143935891Y-98220500D01*
X143935892Y-98220500D01*
X144063186Y-98186392D01*
X144177314Y-98120500D01*
X144270500Y-98027314D01*
X144336392Y-97913186D01*
X144370500Y-97785892D01*
X144370500Y-97654108D01*
X144336392Y-97526814D01*
X144270500Y-97412686D01*
X144177314Y-97319500D01*
X144063186Y-97253608D01*
X144063185Y-97253607D01*
X144063184Y-97253607D01*
X143966413Y-97227678D01*
X143935892Y-97219500D01*
X143804108Y-97219500D01*
X143773587Y-97227678D01*
X143676815Y-97253607D01*
X143562686Y-97319500D01*
X143469500Y-97412686D01*
X143403607Y-97526815D01*
X143383512Y-97601814D01*
X143369500Y-97654108D01*
X138956385Y-97654108D01*
X138950520Y-97632220D01*
X138946392Y-97616814D01*
X138880500Y-97502686D01*
X138787314Y-97409500D01*
X138673186Y-97343608D01*
X138673185Y-97343607D01*
X138673184Y-97343607D01*
X138583213Y-97319500D01*
X138545892Y-97309500D01*
X138414108Y-97309500D01*
X138380001Y-97318638D01*
X138286815Y-97343607D01*
X138172686Y-97409500D01*
X138079500Y-97502686D01*
X138013607Y-97616815D01*
X138002372Y-97658746D01*
X137979500Y-97744108D01*
X113433825Y-97744108D01*
X113382324Y-97619772D01*
X113380348Y-97616814D01*
X113278302Y-97464092D01*
X113186569Y-97372359D01*
X113179541Y-97355390D01*
X113186570Y-97338419D01*
X113199774Y-97331908D01*
X113199769Y-97331887D01*
X113199877Y-97331857D01*
X113200411Y-97331595D01*
X113201282Y-97331480D01*
X113201289Y-97331480D01*
X113277716Y-97311001D01*
X113346238Y-97271440D01*
X113402187Y-97215491D01*
X113645148Y-96972530D01*
X113662119Y-96965501D01*
X117736037Y-96965501D01*
X117753008Y-96972530D01*
X117759219Y-96983289D01*
X117766615Y-97010892D01*
X117779288Y-97058186D01*
X117845180Y-97172314D01*
X117938366Y-97265500D01*
X118052494Y-97331392D01*
X118179788Y-97365500D01*
X118179789Y-97365500D01*
X118311571Y-97365500D01*
X118311572Y-97365500D01*
X118438866Y-97331392D01*
X118552994Y-97265500D01*
X118646180Y-97172314D01*
X118712072Y-97058186D01*
X118746180Y-96930892D01*
X118746180Y-96879108D01*
X150589500Y-96879108D01*
X150589500Y-97010892D01*
X150602172Y-97058184D01*
X150615393Y-97107529D01*
X150623608Y-97138186D01*
X150689500Y-97252314D01*
X150782686Y-97345500D01*
X150787779Y-97348440D01*
X150789122Y-97349216D01*
X150800303Y-97363789D01*
X150797905Y-97382001D01*
X150789122Y-97390784D01*
X150782687Y-97394499D01*
X150689500Y-97487686D01*
X150623607Y-97601815D01*
X150608353Y-97658746D01*
X150589500Y-97729108D01*
X150589500Y-97860892D01*
X150603512Y-97913186D01*
X150620445Y-97976384D01*
X150623608Y-97988186D01*
X150689500Y-98102314D01*
X150782686Y-98195500D01*
X150896814Y-98261392D01*
X151024108Y-98295500D01*
X151024109Y-98295500D01*
X151155891Y-98295500D01*
X151155892Y-98295500D01*
X151283186Y-98261392D01*
X151397314Y-98195500D01*
X151490500Y-98102314D01*
X151556392Y-97988186D01*
X151590500Y-97860892D01*
X151590500Y-97729108D01*
X151556392Y-97601814D01*
X151490500Y-97487686D01*
X151397314Y-97394500D01*
X151390876Y-97390783D01*
X151379696Y-97376212D01*
X151382093Y-97358000D01*
X151390876Y-97349216D01*
X151397314Y-97345500D01*
X151490500Y-97252314D01*
X151556392Y-97138186D01*
X151590500Y-97010892D01*
X151590500Y-96879108D01*
X151556392Y-96751814D01*
X151490500Y-96637686D01*
X151397314Y-96544500D01*
X151283186Y-96478608D01*
X151283185Y-96478607D01*
X151283184Y-96478607D01*
X151202482Y-96456983D01*
X151155892Y-96444500D01*
X151024108Y-96444500D01*
X151017719Y-96446212D01*
X150896815Y-96478607D01*
X150782686Y-96544500D01*
X150689500Y-96637686D01*
X150623607Y-96751815D01*
X150610935Y-96799109D01*
X150589500Y-96879108D01*
X118746180Y-96879108D01*
X118746180Y-96799108D01*
X118712072Y-96671814D01*
X118646180Y-96557686D01*
X118552994Y-96464500D01*
X118546556Y-96460783D01*
X118535376Y-96446212D01*
X118537773Y-96428000D01*
X118546556Y-96419216D01*
X118552994Y-96415500D01*
X118646180Y-96322314D01*
X118712072Y-96208186D01*
X118746180Y-96080892D01*
X118746180Y-95964108D01*
X133709500Y-95964108D01*
X133709500Y-96095892D01*
X133720222Y-96135908D01*
X133739588Y-96208186D01*
X133743608Y-96223186D01*
X133809500Y-96337314D01*
X133902686Y-96430500D01*
X134016814Y-96496392D01*
X134144108Y-96530500D01*
X134144109Y-96530500D01*
X134275891Y-96530500D01*
X134275892Y-96530500D01*
X134403186Y-96496392D01*
X134517314Y-96430500D01*
X134610500Y-96337314D01*
X134676392Y-96223186D01*
X134710500Y-96095892D01*
X134710500Y-95964108D01*
X134676392Y-95836814D01*
X134610500Y-95722686D01*
X134517314Y-95629500D01*
X134403186Y-95563608D01*
X134403185Y-95563607D01*
X134403184Y-95563607D01*
X134322482Y-95541983D01*
X134275892Y-95529500D01*
X134144108Y-95529500D01*
X134110001Y-95538638D01*
X134016815Y-95563607D01*
X133902686Y-95629500D01*
X133809500Y-95722686D01*
X133743607Y-95836815D01*
X133718638Y-95930001D01*
X133709500Y-95964108D01*
X118746180Y-95964108D01*
X118746180Y-95949108D01*
X118712072Y-95821814D01*
X118646180Y-95707686D01*
X118552994Y-95614500D01*
X118438866Y-95548608D01*
X118438865Y-95548607D01*
X118438864Y-95548607D01*
X118358162Y-95526983D01*
X118311572Y-95514500D01*
X118179788Y-95514500D01*
X118145681Y-95523638D01*
X118052495Y-95548607D01*
X117938366Y-95614500D01*
X117845180Y-95707686D01*
X117779287Y-95821815D01*
X117759219Y-95896711D01*
X117748037Y-95911284D01*
X117736037Y-95914499D01*
X113445467Y-95914499D01*
X113428496Y-95907470D01*
X113421467Y-95890499D01*
X113423293Y-95881317D01*
X113453973Y-95807251D01*
X113490500Y-95623616D01*
X113490500Y-95436384D01*
X113453973Y-95252749D01*
X113436473Y-95210500D01*
X113382324Y-95079772D01*
X113327888Y-94998303D01*
X113278302Y-94924092D01*
X113145908Y-94791698D01*
X112990231Y-94687678D01*
X112990232Y-94687678D01*
X112990227Y-94687675D01*
X112817253Y-94616027D01*
X112817246Y-94616025D01*
X112633620Y-94579500D01*
X112633616Y-94579500D01*
X112446384Y-94579500D01*
X112446379Y-94579500D01*
X112262753Y-94616025D01*
X112262746Y-94616027D01*
X112089772Y-94687675D01*
X111934094Y-94791696D01*
X111801696Y-94924094D01*
X111697675Y-95079772D01*
X111626027Y-95252746D01*
X111626025Y-95252753D01*
X111589500Y-95436379D01*
X111589500Y-95623620D01*
X111626025Y-95807246D01*
X111626027Y-95807253D01*
X111697675Y-95980227D01*
X111774959Y-96095890D01*
X111801698Y-96135908D01*
X111934092Y-96268302D01*
X112014925Y-96322313D01*
X112089772Y-96372324D01*
X112136573Y-96391709D01*
X112151858Y-96398040D01*
X112164847Y-96411028D01*
X112164847Y-96429397D01*
X112159645Y-96437183D01*
X112104360Y-96492470D01*
X112087389Y-96499500D01*
X110920379Y-96499500D01*
X110903408Y-96492471D01*
X110898206Y-96484684D01*
X110842324Y-96349772D01*
X110787888Y-96268303D01*
X110738302Y-96194092D01*
X110605908Y-96061698D01*
X110459856Y-95964109D01*
X110450227Y-95957675D01*
X110277253Y-95886027D01*
X110277246Y-95886025D01*
X110093620Y-95849500D01*
X110093616Y-95849500D01*
X109906384Y-95849500D01*
X109906379Y-95849500D01*
X109722753Y-95886025D01*
X109722746Y-95886027D01*
X109549772Y-95957675D01*
X109394094Y-96061696D01*
X109261696Y-96194094D01*
X109157675Y-96349772D01*
X109086027Y-96522746D01*
X109086025Y-96522753D01*
X109049500Y-96706379D01*
X100500500Y-96706379D01*
X100500500Y-94166379D01*
X109049500Y-94166379D01*
X109049500Y-94353620D01*
X109086025Y-94537246D01*
X109086027Y-94537253D01*
X109157675Y-94710227D01*
X109157678Y-94710231D01*
X109261698Y-94865908D01*
X109394092Y-94998302D01*
X109516016Y-95079769D01*
X109549772Y-95102324D01*
X109722746Y-95173972D01*
X109722753Y-95173974D01*
X109901612Y-95209550D01*
X109906384Y-95210500D01*
X109906388Y-95210500D01*
X110093612Y-95210500D01*
X110093616Y-95210500D01*
X110277251Y-95173973D01*
X110334911Y-95150089D01*
X110450227Y-95102324D01*
X110450228Y-95102323D01*
X110450231Y-95102322D01*
X110605908Y-94998302D01*
X110738302Y-94865908D01*
X110842322Y-94710231D01*
X110913973Y-94537251D01*
X110950500Y-94353616D01*
X110950500Y-94166384D01*
X110913973Y-93982749D01*
X110896473Y-93940500D01*
X110842324Y-93809772D01*
X110787888Y-93728303D01*
X110738302Y-93654092D01*
X110605908Y-93521698D01*
X110450231Y-93417678D01*
X110450232Y-93417678D01*
X110450227Y-93417675D01*
X110277253Y-93346027D01*
X110277246Y-93346025D01*
X110093620Y-93309500D01*
X110093616Y-93309500D01*
X109906384Y-93309500D01*
X109906379Y-93309500D01*
X109722753Y-93346025D01*
X109722746Y-93346027D01*
X109549772Y-93417675D01*
X109394094Y-93521696D01*
X109261696Y-93654094D01*
X109157675Y-93809772D01*
X109086027Y-93982746D01*
X109086025Y-93982753D01*
X109049500Y-94166379D01*
X100500500Y-94166379D01*
X100500500Y-92896379D01*
X111589500Y-92896379D01*
X111589500Y-93083620D01*
X111626025Y-93267246D01*
X111626027Y-93267253D01*
X111697675Y-93440227D01*
X111697678Y-93440231D01*
X111801698Y-93595908D01*
X111934092Y-93728302D01*
X112056016Y-93809769D01*
X112089772Y-93832324D01*
X112262746Y-93903972D01*
X112262753Y-93903974D01*
X112441612Y-93939550D01*
X112446384Y-93940500D01*
X112446388Y-93940500D01*
X112633612Y-93940500D01*
X112633616Y-93940500D01*
X112817251Y-93903973D01*
X112874911Y-93880089D01*
X112990227Y-93832324D01*
X112990228Y-93832323D01*
X112990231Y-93832322D01*
X113145908Y-93728302D01*
X113278302Y-93595908D01*
X113382322Y-93440231D01*
X113453973Y-93267251D01*
X113490500Y-93083616D01*
X113490500Y-92896384D01*
X113453973Y-92712749D01*
X113436473Y-92670500D01*
X113382324Y-92539772D01*
X113278303Y-92384094D01*
X113278302Y-92384092D01*
X113145908Y-92251698D01*
X113143777Y-92250274D01*
X112990227Y-92147675D01*
X112817253Y-92076027D01*
X112817246Y-92076025D01*
X112633620Y-92039500D01*
X112633616Y-92039500D01*
X112446384Y-92039500D01*
X112446379Y-92039500D01*
X112262753Y-92076025D01*
X112262746Y-92076027D01*
X112089772Y-92147675D01*
X111934094Y-92251696D01*
X111801696Y-92384094D01*
X111697675Y-92539772D01*
X111626027Y-92712746D01*
X111626025Y-92712753D01*
X111589500Y-92896379D01*
X100500500Y-92896379D01*
X100500500Y-90328712D01*
X101799500Y-90328712D01*
X101799500Y-90571288D01*
X101825595Y-90769500D01*
X101831163Y-90811796D01*
X101893944Y-91046097D01*
X101893948Y-91046106D01*
X101986774Y-91270208D01*
X101986776Y-91270212D01*
X101993978Y-91282686D01*
X102108068Y-91480296D01*
X102255727Y-91672728D01*
X102255729Y-91672731D01*
X102255731Y-91672733D01*
X102255735Y-91672738D01*
X102427262Y-91844265D01*
X102427266Y-91844268D01*
X102427268Y-91844270D01*
X102427271Y-91844272D01*
X102619703Y-91991931D01*
X102619708Y-91991934D01*
X102619711Y-91991936D01*
X102829788Y-92113224D01*
X102912968Y-92147678D01*
X103053893Y-92206051D01*
X103053902Y-92206055D01*
X103288203Y-92268836D01*
X103288204Y-92268836D01*
X103288211Y-92268838D01*
X103528712Y-92300500D01*
X103528716Y-92300500D01*
X103771284Y-92300500D01*
X103771288Y-92300500D01*
X104011789Y-92268838D01*
X104102698Y-92244478D01*
X104246097Y-92206055D01*
X104246098Y-92206054D01*
X104246100Y-92206054D01*
X104470212Y-92113224D01*
X104680289Y-91991936D01*
X104682161Y-91990500D01*
X104803604Y-91897313D01*
X104872738Y-91844265D01*
X105044265Y-91672738D01*
X105191936Y-91480289D01*
X105313224Y-91270212D01*
X105406054Y-91046100D01*
X105406055Y-91046097D01*
X105431739Y-90950247D01*
X109049500Y-90950247D01*
X109049500Y-92489752D01*
X109061132Y-92548229D01*
X109061132Y-92548230D01*
X109061133Y-92548231D01*
X109105448Y-92614552D01*
X109171769Y-92658867D01*
X109230252Y-92670500D01*
X109230256Y-92670500D01*
X110769744Y-92670500D01*
X110769748Y-92670500D01*
X110828231Y-92658867D01*
X110894552Y-92614552D01*
X110938867Y-92548231D01*
X110950500Y-92489748D01*
X110950500Y-91564108D01*
X134169500Y-91564108D01*
X134169500Y-91695892D01*
X134187777Y-91764106D01*
X134192889Y-91783184D01*
X134203608Y-91823186D01*
X134269500Y-91937314D01*
X134362686Y-92030500D01*
X134476814Y-92096392D01*
X134604108Y-92130500D01*
X134604109Y-92130500D01*
X134735891Y-92130500D01*
X134735892Y-92130500D01*
X134863186Y-92096392D01*
X134977314Y-92030500D01*
X135070500Y-91937314D01*
X135136392Y-91823186D01*
X135170500Y-91695892D01*
X135170500Y-91564108D01*
X135159782Y-91524108D01*
X144339500Y-91524108D01*
X144339500Y-91655892D01*
X144373608Y-91783186D01*
X144439500Y-91897314D01*
X144532686Y-91990500D01*
X144646814Y-92056392D01*
X144774108Y-92090500D01*
X144774109Y-92090500D01*
X144905891Y-92090500D01*
X144905892Y-92090500D01*
X145033186Y-92056392D01*
X145147314Y-91990500D01*
X145240500Y-91897314D01*
X145306392Y-91783186D01*
X145340500Y-91655892D01*
X145340500Y-91524108D01*
X145306392Y-91396814D01*
X145240500Y-91282686D01*
X145147314Y-91189500D01*
X145033186Y-91123608D01*
X145033185Y-91123607D01*
X145033184Y-91123607D01*
X144952482Y-91101983D01*
X144905892Y-91089500D01*
X144774108Y-91089500D01*
X144740001Y-91098638D01*
X144646815Y-91123607D01*
X144532686Y-91189500D01*
X144439500Y-91282686D01*
X144373607Y-91396815D01*
X144351241Y-91480289D01*
X144339500Y-91524108D01*
X135159782Y-91524108D01*
X135136392Y-91436814D01*
X135070500Y-91322686D01*
X134977314Y-91229500D01*
X134863186Y-91163608D01*
X134863185Y-91163607D01*
X134863184Y-91163607D01*
X134782482Y-91141983D01*
X134735892Y-91129500D01*
X134604108Y-91129500D01*
X134570001Y-91138638D01*
X134476815Y-91163607D01*
X134362686Y-91229500D01*
X134269500Y-91322686D01*
X134203607Y-91436815D01*
X134191959Y-91480289D01*
X134169500Y-91564108D01*
X110950500Y-91564108D01*
X110950500Y-90950252D01*
X110938867Y-90891769D01*
X110894552Y-90825448D01*
X110828231Y-90781133D01*
X110828230Y-90781132D01*
X110828229Y-90781132D01*
X110769752Y-90769500D01*
X110769748Y-90769500D01*
X109230252Y-90769500D01*
X109230247Y-90769500D01*
X109171770Y-90781132D01*
X109105450Y-90825446D01*
X109105446Y-90825450D01*
X109061132Y-90891770D01*
X109049500Y-90950247D01*
X105431739Y-90950247D01*
X105433718Y-90942861D01*
X105468836Y-90811796D01*
X105468835Y-90811796D01*
X105468838Y-90811789D01*
X105500500Y-90571288D01*
X105500500Y-90328712D01*
X105468838Y-90088211D01*
X105406054Y-89853900D01*
X105313224Y-89629788D01*
X105191936Y-89419711D01*
X105191934Y-89419708D01*
X105191931Y-89419703D01*
X105044272Y-89227271D01*
X105044270Y-89227268D01*
X105044268Y-89227266D01*
X105044265Y-89227262D01*
X104872738Y-89055735D01*
X104872733Y-89055731D01*
X104872731Y-89055729D01*
X104872728Y-89055727D01*
X104680296Y-88908068D01*
X104550596Y-88833186D01*
X104470212Y-88786776D01*
X104470209Y-88786774D01*
X104470208Y-88786774D01*
X104246106Y-88693948D01*
X104246097Y-88693944D01*
X104011796Y-88631163D01*
X104011789Y-88631162D01*
X103771288Y-88599500D01*
X103528712Y-88599500D01*
X103310271Y-88628257D01*
X103288203Y-88631163D01*
X103053902Y-88693944D01*
X103053893Y-88693948D01*
X102829791Y-88786774D01*
X102829788Y-88786776D01*
X102619703Y-88908068D01*
X102427271Y-89055727D01*
X102427268Y-89055729D01*
X102255729Y-89227268D01*
X102255727Y-89227271D01*
X102108068Y-89419703D01*
X101986776Y-89629788D01*
X101986774Y-89629791D01*
X101893948Y-89853893D01*
X101893944Y-89853902D01*
X101831163Y-90088203D01*
X101831162Y-90088211D01*
X101799500Y-90328712D01*
X100500500Y-90328712D01*
X100500500Y-88574108D01*
X140979500Y-88574108D01*
X140979500Y-88705892D01*
X140997777Y-88774106D01*
X141001172Y-88786776D01*
X141013608Y-88833186D01*
X141079500Y-88947314D01*
X141172686Y-89040500D01*
X141286814Y-89106392D01*
X141414108Y-89140500D01*
X141414109Y-89140500D01*
X141545891Y-89140500D01*
X141545892Y-89140500D01*
X141673186Y-89106392D01*
X141787314Y-89040500D01*
X141880500Y-88947314D01*
X141946392Y-88833186D01*
X141980500Y-88705892D01*
X141980500Y-88574108D01*
X141946392Y-88446814D01*
X141880500Y-88332686D01*
X141787314Y-88239500D01*
X141673186Y-88173608D01*
X141673185Y-88173607D01*
X141673184Y-88173607D01*
X141592482Y-88151983D01*
X141545892Y-88139500D01*
X141414108Y-88139500D01*
X141380001Y-88148638D01*
X141286815Y-88173607D01*
X141172686Y-88239500D01*
X141079500Y-88332686D01*
X141013607Y-88446815D01*
X140988638Y-88540001D01*
X140979500Y-88574108D01*
X100500500Y-88574108D01*
X100500500Y-87564108D01*
X155049500Y-87564108D01*
X155049500Y-87695892D01*
X155083608Y-87823186D01*
X155149500Y-87937314D01*
X155242686Y-88030500D01*
X155356814Y-88096392D01*
X155484108Y-88130500D01*
X155484109Y-88130500D01*
X155615891Y-88130500D01*
X155615892Y-88130500D01*
X155743186Y-88096392D01*
X155857314Y-88030500D01*
X155950500Y-87937314D01*
X156016392Y-87823186D01*
X156050500Y-87695892D01*
X156050500Y-87564108D01*
X156016392Y-87436814D01*
X155958474Y-87336498D01*
X155956078Y-87318288D01*
X155967260Y-87303715D01*
X155979260Y-87300500D01*
X156015891Y-87300500D01*
X156015892Y-87300500D01*
X156143186Y-87266392D01*
X156257314Y-87200500D01*
X156350500Y-87107314D01*
X156416392Y-86993186D01*
X156450500Y-86865892D01*
X156450500Y-86734108D01*
X156416392Y-86606814D01*
X156350500Y-86492686D01*
X156257314Y-86399500D01*
X156143186Y-86333608D01*
X156143185Y-86333607D01*
X156143184Y-86333607D01*
X156062482Y-86311983D01*
X156015892Y-86299500D01*
X155884108Y-86299500D01*
X155850001Y-86308638D01*
X155756815Y-86333607D01*
X155642686Y-86399500D01*
X155549500Y-86492686D01*
X155483607Y-86606815D01*
X155473822Y-86643335D01*
X155449500Y-86734108D01*
X155449500Y-86865892D01*
X155467777Y-86934106D01*
X155478829Y-86975353D01*
X155483608Y-86993186D01*
X155541525Y-87093501D01*
X155543922Y-87111712D01*
X155532740Y-87126285D01*
X155520740Y-87129500D01*
X155484108Y-87129500D01*
X155450001Y-87138638D01*
X155356815Y-87163607D01*
X155242686Y-87229500D01*
X155149500Y-87322686D01*
X155083607Y-87436815D01*
X155077261Y-87460500D01*
X155049500Y-87564108D01*
X100500500Y-87564108D01*
X100500500Y-86994108D01*
X138469500Y-86994108D01*
X138469500Y-87125892D01*
X138503608Y-87253186D01*
X138569500Y-87367314D01*
X138662686Y-87460500D01*
X138776814Y-87526392D01*
X138904108Y-87560500D01*
X138904109Y-87560500D01*
X139035891Y-87560500D01*
X139035892Y-87560500D01*
X139163186Y-87526392D01*
X139277314Y-87460500D01*
X139370500Y-87367314D01*
X139436392Y-87253186D01*
X139470500Y-87125892D01*
X139470500Y-86994108D01*
X139465474Y-86975352D01*
X139467871Y-86957141D01*
X139471682Y-86952174D01*
X139572855Y-86851003D01*
X139609521Y-86787497D01*
X139628500Y-86716665D01*
X139628500Y-86643335D01*
X139628500Y-85704108D01*
X164409500Y-85704108D01*
X164409500Y-85835892D01*
X164443608Y-85963186D01*
X164509500Y-86077314D01*
X164602686Y-86170500D01*
X164716814Y-86236392D01*
X164844108Y-86270500D01*
X164844109Y-86270500D01*
X164975891Y-86270500D01*
X164975892Y-86270500D01*
X165103186Y-86236392D01*
X165217314Y-86170500D01*
X165310500Y-86077314D01*
X165376392Y-85963186D01*
X165410500Y-85835892D01*
X165410500Y-85704108D01*
X165376392Y-85576814D01*
X165310500Y-85462686D01*
X165217314Y-85369500D01*
X165103186Y-85303608D01*
X165103185Y-85303607D01*
X165103184Y-85303607D01*
X165022482Y-85281983D01*
X164975892Y-85269500D01*
X164844108Y-85269500D01*
X164810001Y-85278638D01*
X164716815Y-85303607D01*
X164602686Y-85369500D01*
X164509500Y-85462686D01*
X164443607Y-85576815D01*
X164418638Y-85670001D01*
X164409500Y-85704108D01*
X139628500Y-85704108D01*
X139628500Y-84867380D01*
X151206742Y-84867380D01*
X151206742Y-84999164D01*
X151240850Y-85126458D01*
X151306742Y-85240586D01*
X151399928Y-85333772D01*
X151514056Y-85399664D01*
X151641350Y-85433772D01*
X151641351Y-85433772D01*
X151773133Y-85433772D01*
X151773134Y-85433772D01*
X151900428Y-85399664D01*
X152014556Y-85333772D01*
X152107742Y-85240586D01*
X152173634Y-85126458D01*
X152207742Y-84999164D01*
X152207742Y-84867380D01*
X152190788Y-84804108D01*
X163269500Y-84804108D01*
X163269500Y-84935892D01*
X163303608Y-85063186D01*
X163369500Y-85177314D01*
X163462686Y-85270500D01*
X163576814Y-85336392D01*
X163704108Y-85370500D01*
X163704109Y-85370500D01*
X163835891Y-85370500D01*
X163835892Y-85370500D01*
X163963186Y-85336392D01*
X164077314Y-85270500D01*
X164170500Y-85177314D01*
X164236392Y-85063186D01*
X164270500Y-84935892D01*
X164270500Y-84804108D01*
X164236392Y-84676814D01*
X164170500Y-84562686D01*
X164077314Y-84469500D01*
X164077311Y-84469498D01*
X164060499Y-84459791D01*
X164049318Y-84445218D01*
X164048500Y-84439007D01*
X164048500Y-83295731D01*
X165023672Y-83295731D01*
X165023672Y-83427515D01*
X165057780Y-83554809D01*
X165123672Y-83668937D01*
X165216858Y-83762123D01*
X165330986Y-83828015D01*
X165458280Y-83862123D01*
X165458281Y-83862123D01*
X165590063Y-83862123D01*
X165590064Y-83862123D01*
X165717358Y-83828015D01*
X165831486Y-83762123D01*
X165924672Y-83668937D01*
X165990564Y-83554809D01*
X166024672Y-83427515D01*
X166024672Y-83295731D01*
X165990564Y-83168437D01*
X165924672Y-83054309D01*
X165831486Y-82961123D01*
X165717358Y-82895231D01*
X165717357Y-82895230D01*
X165717356Y-82895230D01*
X165636654Y-82873606D01*
X165590064Y-82861123D01*
X165458280Y-82861123D01*
X165424173Y-82870261D01*
X165330987Y-82895230D01*
X165216858Y-82961123D01*
X165123672Y-83054309D01*
X165057779Y-83168438D01*
X165032810Y-83261624D01*
X165023672Y-83295731D01*
X164048500Y-83295731D01*
X164048500Y-75635300D01*
X164055529Y-75618329D01*
X164386714Y-75287144D01*
X165702173Y-73971684D01*
X165719143Y-73964656D01*
X165725348Y-73965472D01*
X165744108Y-73970500D01*
X165744109Y-73970500D01*
X165875891Y-73970500D01*
X165875892Y-73970500D01*
X166003186Y-73936392D01*
X166117314Y-73870500D01*
X166210500Y-73777314D01*
X166276392Y-73663186D01*
X166310500Y-73535892D01*
X166310500Y-73404108D01*
X166276392Y-73276814D01*
X166210500Y-73162686D01*
X166117314Y-73069500D01*
X166003186Y-73003608D01*
X166003185Y-73003607D01*
X166003184Y-73003607D01*
X165922482Y-72981983D01*
X165875892Y-72969500D01*
X165744108Y-72969500D01*
X165710001Y-72978638D01*
X165616815Y-73003607D01*
X165502686Y-73069500D01*
X165409500Y-73162686D01*
X165343607Y-73276815D01*
X165309500Y-73404109D01*
X165309500Y-73535892D01*
X165314524Y-73554644D01*
X165312126Y-73572856D01*
X165308313Y-73577826D01*
X163598997Y-75287145D01*
X163598996Y-75287144D01*
X163547144Y-75338997D01*
X163510479Y-75402500D01*
X163510478Y-75402503D01*
X163491500Y-75473335D01*
X163491500Y-84439007D01*
X163484471Y-84455978D01*
X163479501Y-84459791D01*
X163462688Y-84469498D01*
X163369500Y-84562686D01*
X163303607Y-84676815D01*
X163286654Y-84740086D01*
X163269500Y-84804108D01*
X152190788Y-84804108D01*
X152173634Y-84740086D01*
X152107742Y-84625958D01*
X152107483Y-84625699D01*
X152107412Y-84625527D01*
X152106784Y-84624709D01*
X152107003Y-84624540D01*
X152100455Y-84608730D01*
X152107484Y-84591759D01*
X152112451Y-84587947D01*
X152177314Y-84550500D01*
X152270500Y-84457314D01*
X152336392Y-84343186D01*
X152370500Y-84215892D01*
X152370500Y-84084108D01*
X152336392Y-83956814D01*
X152270500Y-83842686D01*
X152177314Y-83749500D01*
X152063186Y-83683608D01*
X152063185Y-83683607D01*
X152063184Y-83683607D01*
X151982482Y-83661983D01*
X151935892Y-83649500D01*
X151804108Y-83649500D01*
X151770001Y-83658638D01*
X151676815Y-83683607D01*
X151562686Y-83749500D01*
X151469500Y-83842686D01*
X151403607Y-83956815D01*
X151378638Y-84050001D01*
X151369500Y-84084108D01*
X151369500Y-84215892D01*
X151403608Y-84343186D01*
X151469499Y-84457313D01*
X151469502Y-84457317D01*
X151469762Y-84457577D01*
X151469832Y-84457748D01*
X151470458Y-84458563D01*
X151470239Y-84458730D01*
X151476785Y-84474550D01*
X151469749Y-84491518D01*
X151464785Y-84495325D01*
X151399931Y-84532769D01*
X151306742Y-84625958D01*
X151240849Y-84740087D01*
X151215880Y-84833273D01*
X151206742Y-84867380D01*
X139628500Y-84867380D01*
X139628500Y-80220991D01*
X139635529Y-80204020D01*
X139640498Y-80200208D01*
X139657314Y-80190500D01*
X139750500Y-80097314D01*
X139816392Y-79983186D01*
X139850500Y-79855892D01*
X139850500Y-79724108D01*
X139816392Y-79596814D01*
X139750500Y-79482686D01*
X139657314Y-79389500D01*
X139543186Y-79323608D01*
X139543185Y-79323607D01*
X139543184Y-79323607D01*
X139462482Y-79301983D01*
X139415892Y-79289500D01*
X139284108Y-79289500D01*
X139250001Y-79298638D01*
X139156815Y-79323607D01*
X139042686Y-79389500D01*
X138949500Y-79482686D01*
X138883607Y-79596815D01*
X138858638Y-79690001D01*
X138849500Y-79724108D01*
X138849500Y-79855892D01*
X138883608Y-79983186D01*
X138949500Y-80097314D01*
X139042686Y-80190500D01*
X139059499Y-80200206D01*
X139070682Y-80214778D01*
X139071500Y-80220991D01*
X139071500Y-86537764D01*
X139064471Y-86554735D01*
X139047500Y-86561764D01*
X139041289Y-86560946D01*
X139035892Y-86559500D01*
X138904108Y-86559500D01*
X138895659Y-86561764D01*
X138776815Y-86593607D01*
X138662686Y-86659500D01*
X138569500Y-86752686D01*
X138503607Y-86866815D01*
X138480737Y-86952170D01*
X138469500Y-86994108D01*
X100500500Y-86994108D01*
X100500500Y-55000520D01*
X100500523Y-54999473D01*
X100517576Y-54608895D01*
X100517758Y-54606809D01*
X100568724Y-54219684D01*
X100569081Y-54217661D01*
X100653595Y-53836445D01*
X100654126Y-53834461D01*
X100771540Y-53462071D01*
X100772254Y-53460111D01*
X100785072Y-53429166D01*
X100921675Y-53099377D01*
X100922541Y-53097519D01*
X101102840Y-52751169D01*
X101103883Y-52749364D01*
X101313674Y-52420057D01*
X101314850Y-52418377D01*
X101552548Y-52108603D01*
X101553876Y-52107020D01*
X101817683Y-51819125D01*
X101819125Y-51817683D01*
X102107020Y-51553876D01*
X102108603Y-51552548D01*
X102418377Y-51314850D01*
X102420057Y-51313674D01*
X102707980Y-51130247D01*
X139987000Y-51130247D01*
X139987000Y-52869752D01*
X139998632Y-52928229D01*
X139998632Y-52928230D01*
X139998633Y-52928231D01*
X140042948Y-52994552D01*
X140109269Y-53038867D01*
X140167752Y-53050500D01*
X140167756Y-53050500D01*
X141907244Y-53050500D01*
X141907248Y-53050500D01*
X141965731Y-53038867D01*
X142032052Y-52994552D01*
X142076367Y-52928231D01*
X142088000Y-52869748D01*
X142088000Y-51896530D01*
X142527000Y-51896530D01*
X142527000Y-52103469D01*
X142567368Y-52306415D01*
X142567370Y-52306422D01*
X142646556Y-52497594D01*
X142652455Y-52506422D01*
X142761523Y-52669655D01*
X142907845Y-52815977D01*
X142988314Y-52869744D01*
X143079905Y-52930943D01*
X143271077Y-53010129D01*
X143271084Y-53010131D01*
X143468763Y-53049451D01*
X143474035Y-53050500D01*
X143474039Y-53050500D01*
X143680961Y-53050500D01*
X143680965Y-53050500D01*
X143883920Y-53010130D01*
X143947646Y-52983733D01*
X144075094Y-52930943D01*
X144075095Y-52930942D01*
X144075098Y-52930941D01*
X144247155Y-52815977D01*
X144393477Y-52669655D01*
X144508441Y-52497598D01*
X144587630Y-52306420D01*
X144628000Y-52103465D01*
X144628000Y-51896535D01*
X144627999Y-51896530D01*
X145067000Y-51896530D01*
X145067000Y-52103469D01*
X145107368Y-52306415D01*
X145107370Y-52306422D01*
X145186556Y-52497594D01*
X145192455Y-52506422D01*
X145301523Y-52669655D01*
X145447845Y-52815977D01*
X145528314Y-52869744D01*
X145619905Y-52930943D01*
X145811077Y-53010129D01*
X145811084Y-53010131D01*
X146008763Y-53049451D01*
X146014035Y-53050500D01*
X146014039Y-53050500D01*
X146220961Y-53050500D01*
X146220965Y-53050500D01*
X146423920Y-53010130D01*
X146487646Y-52983733D01*
X146615094Y-52930943D01*
X146615095Y-52930942D01*
X146615098Y-52930941D01*
X146787155Y-52815977D01*
X146933477Y-52669655D01*
X147048441Y-52497598D01*
X147127630Y-52306420D01*
X147168000Y-52103465D01*
X147168000Y-51896535D01*
X147167999Y-51896530D01*
X147607000Y-51896530D01*
X147607000Y-52103469D01*
X147647368Y-52306415D01*
X147647370Y-52306422D01*
X147726556Y-52497594D01*
X147732455Y-52506422D01*
X147841523Y-52669655D01*
X147987845Y-52815977D01*
X148068314Y-52869744D01*
X148159905Y-52930943D01*
X148351077Y-53010129D01*
X148351084Y-53010131D01*
X148548763Y-53049451D01*
X148554035Y-53050500D01*
X148554039Y-53050500D01*
X148760961Y-53050500D01*
X148760965Y-53050500D01*
X148963920Y-53010130D01*
X149027646Y-52983733D01*
X149155094Y-52930943D01*
X149155095Y-52930942D01*
X149155098Y-52930941D01*
X149327155Y-52815977D01*
X149473477Y-52669655D01*
X149588441Y-52497598D01*
X149667630Y-52306420D01*
X149708000Y-52103465D01*
X149708000Y-51896535D01*
X149707999Y-51896530D01*
X150147000Y-51896530D01*
X150147000Y-52103469D01*
X150187368Y-52306415D01*
X150187370Y-52306422D01*
X150266556Y-52497594D01*
X150272455Y-52506422D01*
X150381523Y-52669655D01*
X150527845Y-52815977D01*
X150608314Y-52869744D01*
X150699905Y-52930943D01*
X150891077Y-53010129D01*
X150891084Y-53010131D01*
X151088763Y-53049451D01*
X151094035Y-53050500D01*
X151094039Y-53050500D01*
X151300961Y-53050500D01*
X151300965Y-53050500D01*
X151503920Y-53010130D01*
X151567646Y-52983733D01*
X151695094Y-52930943D01*
X151695095Y-52930942D01*
X151695098Y-52930941D01*
X151867155Y-52815977D01*
X152013477Y-52669655D01*
X152128441Y-52497598D01*
X152207630Y-52306420D01*
X152248000Y-52103465D01*
X152248000Y-51896535D01*
X152229008Y-51801054D01*
X152207631Y-51693584D01*
X152207629Y-51693577D01*
X152128443Y-51502405D01*
X152041155Y-51371769D01*
X152013477Y-51330345D01*
X151867155Y-51184023D01*
X151786673Y-51130247D01*
X155754500Y-51130247D01*
X155754500Y-52869752D01*
X155766132Y-52928229D01*
X155766132Y-52928230D01*
X155766133Y-52928231D01*
X155810448Y-52994552D01*
X155876769Y-53038867D01*
X155935252Y-53050500D01*
X155935256Y-53050500D01*
X157674744Y-53050500D01*
X157674748Y-53050500D01*
X157733231Y-53038867D01*
X157799552Y-52994552D01*
X157843867Y-52928231D01*
X157855500Y-52869748D01*
X157855500Y-51896530D01*
X158294500Y-51896530D01*
X158294500Y-52103469D01*
X158334868Y-52306415D01*
X158334870Y-52306422D01*
X158414056Y-52497594D01*
X158419955Y-52506422D01*
X158529023Y-52669655D01*
X158675345Y-52815977D01*
X158755814Y-52869744D01*
X158847405Y-52930943D01*
X159038577Y-53010129D01*
X159038584Y-53010131D01*
X159236263Y-53049451D01*
X159241535Y-53050500D01*
X159241539Y-53050500D01*
X159448461Y-53050500D01*
X159448465Y-53050500D01*
X159651420Y-53010130D01*
X159715146Y-52983733D01*
X159842594Y-52930943D01*
X159842595Y-52930942D01*
X159842598Y-52930941D01*
X160014655Y-52815977D01*
X160160977Y-52669655D01*
X160275941Y-52497598D01*
X160355130Y-52306420D01*
X160395500Y-52103465D01*
X160395500Y-51896535D01*
X160395499Y-51896530D01*
X160834500Y-51896530D01*
X160834500Y-52103469D01*
X160874868Y-52306415D01*
X160874870Y-52306422D01*
X160954056Y-52497594D01*
X160959955Y-52506422D01*
X161069023Y-52669655D01*
X161215345Y-52815977D01*
X161295814Y-52869744D01*
X161387405Y-52930943D01*
X161578577Y-53010129D01*
X161578584Y-53010131D01*
X161776263Y-53049451D01*
X161781535Y-53050500D01*
X161781539Y-53050500D01*
X161988461Y-53050500D01*
X161988465Y-53050500D01*
X162191420Y-53010130D01*
X162255146Y-52983733D01*
X162382594Y-52930943D01*
X162382595Y-52930942D01*
X162382598Y-52930941D01*
X162554655Y-52815977D01*
X162700977Y-52669655D01*
X162815941Y-52497598D01*
X162895130Y-52306420D01*
X162935500Y-52103465D01*
X162935500Y-51896535D01*
X162935499Y-51896530D01*
X163374500Y-51896530D01*
X163374500Y-52103469D01*
X163414868Y-52306415D01*
X163414870Y-52306422D01*
X163494056Y-52497594D01*
X163499955Y-52506422D01*
X163609023Y-52669655D01*
X163755345Y-52815977D01*
X163835814Y-52869744D01*
X163927405Y-52930943D01*
X164118577Y-53010129D01*
X164118584Y-53010131D01*
X164316263Y-53049451D01*
X164321535Y-53050500D01*
X164321539Y-53050500D01*
X164528461Y-53050500D01*
X164528465Y-53050500D01*
X164731420Y-53010130D01*
X164795146Y-52983733D01*
X164922594Y-52930943D01*
X164922595Y-52930942D01*
X164922598Y-52930941D01*
X165094655Y-52815977D01*
X165240977Y-52669655D01*
X165355941Y-52497598D01*
X165435130Y-52306420D01*
X165475500Y-52103465D01*
X165475500Y-51896535D01*
X165456508Y-51801054D01*
X165435131Y-51693584D01*
X165435129Y-51693577D01*
X165355943Y-51502405D01*
X165268655Y-51371769D01*
X165240977Y-51330345D01*
X165240879Y-51330247D01*
X168982000Y-51330247D01*
X168982000Y-53069752D01*
X168993632Y-53128229D01*
X168993632Y-53128230D01*
X168993633Y-53128231D01*
X169037948Y-53194552D01*
X169104269Y-53238867D01*
X169162752Y-53250500D01*
X169162756Y-53250500D01*
X170902244Y-53250500D01*
X170902248Y-53250500D01*
X170960731Y-53238867D01*
X171027052Y-53194552D01*
X171071367Y-53128231D01*
X171083000Y-53069748D01*
X171083000Y-52096530D01*
X171522000Y-52096530D01*
X171522000Y-52303469D01*
X171562368Y-52506415D01*
X171562370Y-52506422D01*
X171641556Y-52697594D01*
X171677359Y-52751177D01*
X171756523Y-52869655D01*
X171902845Y-53015977D01*
X171954513Y-53050500D01*
X172074905Y-53130943D01*
X172266077Y-53210129D01*
X172266084Y-53210131D01*
X172463763Y-53249451D01*
X172469035Y-53250500D01*
X172469039Y-53250500D01*
X172675961Y-53250500D01*
X172675965Y-53250500D01*
X172878920Y-53210130D01*
X172976420Y-53169744D01*
X173070094Y-53130943D01*
X173070095Y-53130942D01*
X173070098Y-53130941D01*
X173242155Y-53015977D01*
X173388477Y-52869655D01*
X173503441Y-52697598D01*
X173515016Y-52669655D01*
X173582629Y-52506422D01*
X173582631Y-52506415D01*
X173622999Y-52303469D01*
X173623000Y-52303465D01*
X173623000Y-52096535D01*
X173622999Y-52096530D01*
X174062000Y-52096530D01*
X174062000Y-52303469D01*
X174102368Y-52506415D01*
X174102370Y-52506422D01*
X174181556Y-52697594D01*
X174217359Y-52751177D01*
X174296523Y-52869655D01*
X174442845Y-53015977D01*
X174494513Y-53050500D01*
X174614905Y-53130943D01*
X174806077Y-53210129D01*
X174806084Y-53210131D01*
X175003763Y-53249451D01*
X175009035Y-53250500D01*
X175009039Y-53250500D01*
X175215961Y-53250500D01*
X175215965Y-53250500D01*
X175418920Y-53210130D01*
X175516420Y-53169744D01*
X175610094Y-53130943D01*
X175610095Y-53130942D01*
X175610098Y-53130941D01*
X175782155Y-53015977D01*
X175928477Y-52869655D01*
X176043441Y-52697598D01*
X176055016Y-52669655D01*
X176122629Y-52506422D01*
X176122631Y-52506415D01*
X176162999Y-52303469D01*
X176163000Y-52303465D01*
X176163000Y-52096535D01*
X176162999Y-52096530D01*
X176602000Y-52096530D01*
X176602000Y-52303469D01*
X176642368Y-52506415D01*
X176642370Y-52506422D01*
X176721556Y-52697594D01*
X176757359Y-52751177D01*
X176836523Y-52869655D01*
X176982845Y-53015977D01*
X177034513Y-53050500D01*
X177154905Y-53130943D01*
X177346077Y-53210129D01*
X177346084Y-53210131D01*
X177543763Y-53249451D01*
X177549035Y-53250500D01*
X177549039Y-53250500D01*
X177755961Y-53250500D01*
X177755965Y-53250500D01*
X177958920Y-53210130D01*
X178056420Y-53169744D01*
X178150094Y-53130943D01*
X178150095Y-53130942D01*
X178150098Y-53130941D01*
X178322155Y-53015977D01*
X178468477Y-52869655D01*
X178583441Y-52697598D01*
X178595016Y-52669655D01*
X178662629Y-52506422D01*
X178662631Y-52506415D01*
X178702999Y-52303469D01*
X178703000Y-52303465D01*
X178703000Y-52096535D01*
X178702999Y-52096530D01*
X179142000Y-52096530D01*
X179142000Y-52303469D01*
X179182368Y-52506415D01*
X179182370Y-52506422D01*
X179261556Y-52697594D01*
X179297359Y-52751177D01*
X179376523Y-52869655D01*
X179522845Y-53015977D01*
X179574513Y-53050500D01*
X179694905Y-53130943D01*
X179886077Y-53210129D01*
X179886084Y-53210131D01*
X180083763Y-53249451D01*
X180089035Y-53250500D01*
X180089039Y-53250500D01*
X180295961Y-53250500D01*
X180295965Y-53250500D01*
X180498920Y-53210130D01*
X180596420Y-53169744D01*
X180690094Y-53130943D01*
X180690095Y-53130942D01*
X180690098Y-53130941D01*
X180862155Y-53015977D01*
X181008477Y-52869655D01*
X181123441Y-52697598D01*
X181135016Y-52669655D01*
X181202629Y-52506422D01*
X181202631Y-52506415D01*
X181242999Y-52303469D01*
X181243000Y-52303465D01*
X181243000Y-52096535D01*
X181241951Y-52091263D01*
X181202631Y-51893584D01*
X181202629Y-51893577D01*
X181123443Y-51702405D01*
X181024206Y-51553885D01*
X181008477Y-51530345D01*
X180908379Y-51430247D01*
X184749500Y-51430247D01*
X184749500Y-53169752D01*
X184761132Y-53228229D01*
X184761132Y-53228230D01*
X184761133Y-53228231D01*
X184805448Y-53294552D01*
X184871769Y-53338867D01*
X184930252Y-53350500D01*
X184930256Y-53350500D01*
X186669744Y-53350500D01*
X186669748Y-53350500D01*
X186728231Y-53338867D01*
X186794552Y-53294552D01*
X186838867Y-53228231D01*
X186850500Y-53169748D01*
X186850500Y-51430252D01*
X186838867Y-51371769D01*
X186794552Y-51305448D01*
X186728231Y-51261133D01*
X186728230Y-51261132D01*
X186728229Y-51261132D01*
X186669752Y-51249500D01*
X186669748Y-51249500D01*
X184930252Y-51249500D01*
X184930247Y-51249500D01*
X184871770Y-51261132D01*
X184805450Y-51305446D01*
X184805446Y-51305450D01*
X184761132Y-51371770D01*
X184749500Y-51430247D01*
X180908379Y-51430247D01*
X180862155Y-51384023D01*
X180843817Y-51371770D01*
X180690094Y-51269056D01*
X180498922Y-51189870D01*
X180498915Y-51189868D01*
X180295969Y-51149500D01*
X180295965Y-51149500D01*
X180089035Y-51149500D01*
X180089030Y-51149500D01*
X179886084Y-51189868D01*
X179886077Y-51189870D01*
X179694905Y-51269056D01*
X179522847Y-51384021D01*
X179376521Y-51530347D01*
X179261556Y-51702405D01*
X179182370Y-51893577D01*
X179182368Y-51893584D01*
X179142000Y-52096530D01*
X178702999Y-52096530D01*
X178701951Y-52091263D01*
X178662631Y-51893584D01*
X178662629Y-51893577D01*
X178583443Y-51702405D01*
X178484206Y-51553885D01*
X178468477Y-51530345D01*
X178322155Y-51384023D01*
X178303817Y-51371770D01*
X178150094Y-51269056D01*
X177958922Y-51189870D01*
X177958915Y-51189868D01*
X177755969Y-51149500D01*
X177755965Y-51149500D01*
X177549035Y-51149500D01*
X177549030Y-51149500D01*
X177346084Y-51189868D01*
X177346077Y-51189870D01*
X177154905Y-51269056D01*
X176982847Y-51384021D01*
X176836521Y-51530347D01*
X176721556Y-51702405D01*
X176642370Y-51893577D01*
X176642368Y-51893584D01*
X176602000Y-52096530D01*
X176162999Y-52096530D01*
X176161951Y-52091263D01*
X176122631Y-51893584D01*
X176122629Y-51893577D01*
X176043443Y-51702405D01*
X175944206Y-51553885D01*
X175928477Y-51530345D01*
X175782155Y-51384023D01*
X175763817Y-51371770D01*
X175610094Y-51269056D01*
X175418922Y-51189870D01*
X175418915Y-51189868D01*
X175215969Y-51149500D01*
X175215965Y-51149500D01*
X175009035Y-51149500D01*
X175009030Y-51149500D01*
X174806084Y-51189868D01*
X174806077Y-51189870D01*
X174614905Y-51269056D01*
X174442847Y-51384021D01*
X174296521Y-51530347D01*
X174181556Y-51702405D01*
X174102370Y-51893577D01*
X174102368Y-51893584D01*
X174062000Y-52096530D01*
X173622999Y-52096530D01*
X173621951Y-52091263D01*
X173582631Y-51893584D01*
X173582629Y-51893577D01*
X173503443Y-51702405D01*
X173404206Y-51553885D01*
X173388477Y-51530345D01*
X173242155Y-51384023D01*
X173223817Y-51371770D01*
X173070094Y-51269056D01*
X172878922Y-51189870D01*
X172878915Y-51189868D01*
X172675969Y-51149500D01*
X172675965Y-51149500D01*
X172469035Y-51149500D01*
X172469030Y-51149500D01*
X172266084Y-51189868D01*
X172266077Y-51189870D01*
X172074905Y-51269056D01*
X171902847Y-51384021D01*
X171756521Y-51530347D01*
X171641556Y-51702405D01*
X171562370Y-51893577D01*
X171562368Y-51893584D01*
X171522000Y-52096530D01*
X171083000Y-52096530D01*
X171083000Y-51330252D01*
X171071367Y-51271769D01*
X171027052Y-51205448D01*
X170960731Y-51161133D01*
X170960730Y-51161132D01*
X170960729Y-51161132D01*
X170902252Y-51149500D01*
X170902248Y-51149500D01*
X169162752Y-51149500D01*
X169162747Y-51149500D01*
X169104270Y-51161132D01*
X169037950Y-51205446D01*
X169037946Y-51205450D01*
X168993632Y-51271770D01*
X168982000Y-51330247D01*
X165240879Y-51330247D01*
X165094655Y-51184023D01*
X165092307Y-51182454D01*
X164922594Y-51069056D01*
X164731422Y-50989870D01*
X164731415Y-50989868D01*
X164528469Y-50949500D01*
X164528465Y-50949500D01*
X164321535Y-50949500D01*
X164321530Y-50949500D01*
X164118584Y-50989868D01*
X164118577Y-50989870D01*
X163927405Y-51069056D01*
X163755347Y-51184021D01*
X163609021Y-51330347D01*
X163494056Y-51502405D01*
X163414870Y-51693577D01*
X163414868Y-51693584D01*
X163374500Y-51896530D01*
X162935499Y-51896530D01*
X162916508Y-51801054D01*
X162895131Y-51693584D01*
X162895129Y-51693577D01*
X162815943Y-51502405D01*
X162728655Y-51371769D01*
X162700977Y-51330345D01*
X162554655Y-51184023D01*
X162552307Y-51182454D01*
X162382594Y-51069056D01*
X162191422Y-50989870D01*
X162191415Y-50989868D01*
X161988469Y-50949500D01*
X161988465Y-50949500D01*
X161781535Y-50949500D01*
X161781530Y-50949500D01*
X161578584Y-50989868D01*
X161578577Y-50989870D01*
X161387405Y-51069056D01*
X161215347Y-51184021D01*
X161069021Y-51330347D01*
X160954056Y-51502405D01*
X160874870Y-51693577D01*
X160874868Y-51693584D01*
X160834500Y-51896530D01*
X160395499Y-51896530D01*
X160376508Y-51801054D01*
X160355131Y-51693584D01*
X160355129Y-51693577D01*
X160275943Y-51502405D01*
X160188655Y-51371769D01*
X160160977Y-51330345D01*
X160014655Y-51184023D01*
X160012307Y-51182454D01*
X159842594Y-51069056D01*
X159651422Y-50989870D01*
X159651415Y-50989868D01*
X159448469Y-50949500D01*
X159448465Y-50949500D01*
X159241535Y-50949500D01*
X159241530Y-50949500D01*
X159038584Y-50989868D01*
X159038577Y-50989870D01*
X158847405Y-51069056D01*
X158675347Y-51184021D01*
X158529021Y-51330347D01*
X158414056Y-51502405D01*
X158334870Y-51693577D01*
X158334868Y-51693584D01*
X158294500Y-51896530D01*
X157855500Y-51896530D01*
X157855500Y-51130252D01*
X157843867Y-51071769D01*
X157799552Y-51005448D01*
X157733231Y-50961133D01*
X157733230Y-50961132D01*
X157733229Y-50961132D01*
X157674752Y-50949500D01*
X157674748Y-50949500D01*
X155935252Y-50949500D01*
X155935247Y-50949500D01*
X155876770Y-50961132D01*
X155810450Y-51005446D01*
X155810446Y-51005450D01*
X155766132Y-51071770D01*
X155754500Y-51130247D01*
X151786673Y-51130247D01*
X151736932Y-51097011D01*
X151695094Y-51069056D01*
X151503922Y-50989870D01*
X151503915Y-50989868D01*
X151300969Y-50949500D01*
X151300965Y-50949500D01*
X151094035Y-50949500D01*
X151094030Y-50949500D01*
X150891084Y-50989868D01*
X150891077Y-50989870D01*
X150699905Y-51069056D01*
X150527847Y-51184021D01*
X150381521Y-51330347D01*
X150266556Y-51502405D01*
X150187370Y-51693577D01*
X150187368Y-51693584D01*
X150147000Y-51896530D01*
X149707999Y-51896530D01*
X149689008Y-51801054D01*
X149667631Y-51693584D01*
X149667629Y-51693577D01*
X149588443Y-51502405D01*
X149501155Y-51371769D01*
X149473477Y-51330345D01*
X149327155Y-51184023D01*
X149324807Y-51182454D01*
X149155094Y-51069056D01*
X148963922Y-50989870D01*
X148963915Y-50989868D01*
X148760969Y-50949500D01*
X148760965Y-50949500D01*
X148554035Y-50949500D01*
X148554030Y-50949500D01*
X148351084Y-50989868D01*
X148351077Y-50989870D01*
X148159905Y-51069056D01*
X147987847Y-51184021D01*
X147841521Y-51330347D01*
X147726556Y-51502405D01*
X147647370Y-51693577D01*
X147647368Y-51693584D01*
X147607000Y-51896530D01*
X147167999Y-51896530D01*
X147149008Y-51801054D01*
X147127631Y-51693584D01*
X147127629Y-51693577D01*
X147048443Y-51502405D01*
X146961155Y-51371769D01*
X146933477Y-51330345D01*
X146787155Y-51184023D01*
X146784807Y-51182454D01*
X146615094Y-51069056D01*
X146423922Y-50989870D01*
X146423915Y-50989868D01*
X146220969Y-50949500D01*
X146220965Y-50949500D01*
X146014035Y-50949500D01*
X146014030Y-50949500D01*
X145811084Y-50989868D01*
X145811077Y-50989870D01*
X145619905Y-51069056D01*
X145447847Y-51184021D01*
X145301521Y-51330347D01*
X145186556Y-51502405D01*
X145107370Y-51693577D01*
X145107368Y-51693584D01*
X145067000Y-51896530D01*
X144627999Y-51896530D01*
X144609008Y-51801054D01*
X144587631Y-51693584D01*
X144587629Y-51693577D01*
X144508443Y-51502405D01*
X144421155Y-51371769D01*
X144393477Y-51330345D01*
X144247155Y-51184023D01*
X144244807Y-51182454D01*
X144075094Y-51069056D01*
X143883922Y-50989870D01*
X143883915Y-50989868D01*
X143680969Y-50949500D01*
X143680965Y-50949500D01*
X143474035Y-50949500D01*
X143474030Y-50949500D01*
X143271084Y-50989868D01*
X143271077Y-50989870D01*
X143079905Y-51069056D01*
X142907847Y-51184021D01*
X142761521Y-51330347D01*
X142646556Y-51502405D01*
X142567370Y-51693577D01*
X142567368Y-51693584D01*
X142527000Y-51896530D01*
X142088000Y-51896530D01*
X142088000Y-51130252D01*
X142076367Y-51071769D01*
X142032052Y-51005448D01*
X141965731Y-50961133D01*
X141965730Y-50961132D01*
X141965729Y-50961132D01*
X141907252Y-50949500D01*
X141907248Y-50949500D01*
X140167752Y-50949500D01*
X140167747Y-50949500D01*
X140109270Y-50961132D01*
X140042950Y-51005446D01*
X140042946Y-51005450D01*
X139998632Y-51071770D01*
X139987000Y-51130247D01*
X102707980Y-51130247D01*
X102749381Y-51103872D01*
X102751169Y-51102840D01*
X103097519Y-50922541D01*
X103099377Y-50921675D01*
X103460118Y-50772251D01*
X103462071Y-50771540D01*
X103834461Y-50654126D01*
X103836445Y-50653595D01*
X104217661Y-50569081D01*
X104219684Y-50568724D01*
X104606811Y-50517757D01*
X104608893Y-50517576D01*
X104999473Y-50500522D01*
X105000520Y-50500500D01*
X105065892Y-50500500D01*
X194934108Y-50500500D01*
X194999480Y-50500500D01*
X195000526Y-50500522D01*
G37*
%TD.AperFunction*%
%TD*%
M02*
