M48
; DRILL file {KiCad 9.0.4} date 2026-04-02T03:56:48-0500
; FORMAT={-:-/ absolute / metric / decimal}
; #@! TF.CreationDate,2026-04-02T03:56:48-05:00
; #@! TF.GenerationSoftware,Kicad,Pcbnew,9.0.4
; #@! TF.FileFunction,Plated,1,4,PTH
FMAT,2
METRIC
; #@! TA.AperFunction,Plated,PTH,ViaDrill
T1C0.150
; #@! TA.AperFunction,Plated,PTH,ComponentDrill
T2C0.203
; #@! TA.AperFunction,Plated,PTH,ViaDrill
T3C0.300
; #@! TA.AperFunction,Plated,PTH,ComponentDrill
T4C0.600
; #@! TA.AperFunction,Plated,PTH,ComponentDrill
T5C0.760
; #@! TA.AperFunction,Plated,PTH,ComponentDrill
T6C1.000
; #@! TA.AperFunction,Plated,PTH,ComponentDrill
T7C1.300
; #@! TA.AperFunction,Plated,PTH,ComponentDrill
T8C3.200
%
G90
G05
T1
X184.858Y-113.755
X184.858Y-133.935
X184.868Y-116.365
X184.868Y-136.545
X184.877Y-103.7
X184.877Y-123.88
X184.887Y-106.31
X184.887Y-126.49
X184.897Y-73.6
X184.897Y-93.78
X184.907Y-76.21
X184.907Y-96.39
X184.917Y-63.545
X184.917Y-83.725
X184.927Y-66.155
X184.927Y-86.335
X185.558Y-113.755
X185.558Y-133.935
X185.568Y-116.365
X185.568Y-136.545
X185.577Y-103.7
X185.577Y-123.88
X185.587Y-106.31
X185.587Y-126.49
X185.597Y-73.6
X185.597Y-93.78
X185.607Y-76.21
X185.607Y-96.39
X185.617Y-63.545
X185.617Y-83.725
X185.627Y-66.155
X185.627Y-86.335
X186.358Y-113.765
X186.358Y-133.945
X186.368Y-116.375
X186.368Y-136.555
X186.377Y-103.71
X186.377Y-123.89
X186.387Y-106.32
X186.387Y-126.5
X186.397Y-73.61
X186.397Y-93.79
X186.407Y-76.22
X186.407Y-96.4
X186.417Y-63.555
X186.417Y-83.735
X186.427Y-66.165
X186.427Y-86.345
X187.058Y-113.755
X187.058Y-133.935
X187.068Y-116.365
X187.068Y-136.545
X187.077Y-103.7
X187.077Y-123.88
X187.087Y-106.31
X187.087Y-126.49
X187.097Y-73.6
X187.097Y-93.78
X187.107Y-76.21
X187.107Y-96.39
X187.117Y-63.545
X187.117Y-83.725
X187.127Y-66.155
X187.127Y-86.335
X187.848Y-117.755
X187.848Y-137.935
X187.858Y-112.355
X187.858Y-113.055
X187.858Y-113.755
X187.858Y-117.055
X187.858Y-132.535
X187.858Y-133.235
X187.858Y-133.935
X187.858Y-137.235
X187.867Y-107.7
X187.867Y-127.88
X187.868Y-116.365
X187.868Y-136.545
X187.877Y-102.3
X187.877Y-103.0
X187.877Y-103.7
X187.877Y-107.0
X187.877Y-122.48
X187.877Y-123.18
X187.877Y-123.88
X187.877Y-127.18
X187.887Y-77.6
X187.887Y-97.78
X187.887Y-106.31
X187.887Y-126.49
X187.897Y-72.2
X187.897Y-72.9
X187.897Y-73.6
X187.897Y-76.9
X187.897Y-92.38
X187.897Y-93.08
X187.897Y-93.78
X187.897Y-97.08
X187.907Y-67.545
X187.907Y-87.725
X187.907Y-76.21
X187.907Y-96.39
X187.917Y-62.145
X187.917Y-62.845
X187.917Y-63.545
X187.917Y-66.845
X187.917Y-82.325
X187.917Y-83.025
X187.917Y-83.725
X187.917Y-87.025
X187.927Y-66.155
X187.927Y-86.335
X188.648Y-117.755
X188.648Y-137.935
X188.658Y-112.355
X188.658Y-132.535
X188.667Y-107.7
X188.667Y-127.88
X188.677Y-102.3
X188.677Y-122.48
X188.687Y-77.6
X188.687Y-97.78
X188.697Y-72.2
X188.697Y-92.38
X188.707Y-67.545
X188.707Y-87.725
X188.717Y-62.145
X188.717Y-82.325
X189.448Y-117.755
X189.448Y-137.935
X189.458Y-112.355
X189.458Y-132.535
X189.467Y-107.7
X189.467Y-127.88
X189.477Y-102.3
X189.477Y-122.48
X189.487Y-77.6
X189.487Y-97.78
X189.497Y-72.2
X189.497Y-92.38
X189.507Y-67.545
X189.507Y-87.725
X189.517Y-62.145
X189.517Y-82.325
X190.148Y-117.755
X190.148Y-137.935
X190.158Y-112.355
X190.158Y-132.535
X190.167Y-107.7
X190.167Y-127.88
X190.177Y-102.3
X190.177Y-122.48
X190.187Y-77.6
X190.187Y-97.78
X190.197Y-72.2
X190.197Y-92.38
X190.207Y-67.545
X190.207Y-87.725
X190.217Y-62.145
X190.217Y-82.325
X190.958Y-112.555
X190.958Y-117.555
X190.958Y-132.735
X190.958Y-137.735
X190.977Y-102.5
X190.977Y-107.5
X190.977Y-122.68
X190.977Y-127.68
X190.997Y-72.4
X190.997Y-77.4
X190.997Y-92.58
X190.997Y-97.58
X191.017Y-62.345
X191.017Y-67.345
X191.017Y-82.525
X191.017Y-87.525
X191.648Y-112.555
X191.648Y-117.555
X191.648Y-132.735
X191.648Y-137.735
X191.667Y-102.5
X191.667Y-107.5
X191.667Y-122.68
X191.667Y-127.68
X191.687Y-72.4
X191.687Y-77.4
X191.687Y-92.58
X191.687Y-97.58
X191.707Y-62.345
X191.707Y-67.345
X191.707Y-82.525
X191.707Y-87.525
X192.358Y-112.555
X192.358Y-117.555
X192.358Y-132.735
X192.358Y-137.735
X192.377Y-102.5
X192.377Y-107.5
X192.377Y-122.68
X192.377Y-127.68
X192.397Y-72.4
X192.397Y-77.4
X192.397Y-92.58
X192.397Y-97.58
X192.417Y-62.345
X192.417Y-67.345
X192.417Y-82.525
X192.417Y-87.525
X193.058Y-112.555
X193.058Y-117.555
X193.058Y-132.735
X193.058Y-137.735
X193.077Y-102.5
X193.077Y-107.5
X193.077Y-122.68
X193.077Y-127.68
X193.097Y-72.4
X193.097Y-77.4
X193.097Y-92.58
X193.097Y-97.58
X193.117Y-62.345
X193.117Y-67.345
X193.117Y-82.525
X193.117Y-87.525
X193.758Y-112.555
X193.758Y-117.555
X193.758Y-132.735
X193.758Y-137.735
X193.777Y-102.5
X193.777Y-107.5
X193.777Y-122.68
X193.777Y-127.68
X193.797Y-72.4
X193.797Y-77.4
X193.797Y-92.58
X193.797Y-97.58
X193.817Y-62.345
X193.817Y-67.345
X193.817Y-82.525
X193.817Y-87.525
X194.458Y-112.555
X194.458Y-117.555
X194.458Y-132.735
X194.458Y-137.735
X194.477Y-102.5
X194.477Y-107.5
X194.477Y-122.68
X194.477Y-127.68
X194.497Y-72.4
X194.497Y-77.4
X194.497Y-92.58
X194.497Y-97.58
X194.517Y-62.345
X194.517Y-67.345
X194.517Y-82.525
X194.517Y-87.525
X195.158Y-112.555
X195.158Y-117.555
X195.158Y-132.735
X195.158Y-137.735
X195.177Y-102.5
X195.177Y-107.5
X195.177Y-122.68
X195.177Y-127.68
X195.197Y-72.4
X195.197Y-77.4
X195.197Y-92.58
X195.197Y-97.58
X195.217Y-62.345
X195.217Y-67.345
X195.217Y-82.525
X195.217Y-87.525
X195.858Y-112.555
X195.858Y-117.555
X195.858Y-132.735
X195.858Y-137.735
X195.877Y-102.5
X195.877Y-107.5
X195.877Y-122.68
X195.877Y-127.68
X195.897Y-72.4
X195.897Y-77.4
X195.897Y-92.58
X195.897Y-97.58
X195.917Y-62.345
X195.917Y-67.345
X195.917Y-82.525
X195.917Y-87.525
X196.558Y-112.555
X196.558Y-117.555
X196.558Y-132.735
X196.558Y-137.735
X196.577Y-102.5
X196.577Y-107.5
X196.577Y-122.68
X196.577Y-127.68
X196.597Y-72.4
X196.597Y-77.4
X196.597Y-92.58
X196.597Y-97.58
X196.617Y-62.345
X196.617Y-67.345
X196.617Y-82.525
X196.617Y-87.525
X197.258Y-112.555
X197.258Y-117.555
X197.258Y-132.735
X197.258Y-137.735
X197.277Y-102.5
X197.277Y-107.5
X197.277Y-122.68
X197.277Y-127.68
X197.297Y-72.4
X197.297Y-77.4
X197.297Y-92.58
X197.297Y-97.58
X197.317Y-62.345
X197.317Y-67.345
X197.317Y-82.525
X197.317Y-87.525
X197.958Y-112.555
X197.958Y-117.555
X197.958Y-132.735
X197.958Y-137.735
X197.977Y-102.5
X197.977Y-107.5
X197.977Y-122.68
X197.977Y-127.68
X197.997Y-72.4
X197.997Y-77.4
X197.997Y-92.58
X197.997Y-97.58
X198.017Y-62.345
X198.017Y-67.345
X198.017Y-82.525
X198.017Y-87.525
X198.658Y-112.555
X198.658Y-117.555
X198.658Y-132.735
X198.658Y-137.735
X198.677Y-102.5
X198.677Y-107.5
X198.677Y-122.68
X198.677Y-127.68
X198.697Y-72.4
X198.697Y-77.4
X198.697Y-92.58
X198.697Y-97.58
X198.717Y-62.345
X198.717Y-67.345
X198.717Y-82.525
X198.717Y-87.525
X199.15Y-117.555
X199.17Y-122.68
X199.17Y-132.73
X199.18Y-127.68
X199.21Y-102.49
X199.22Y-107.5
X199.358Y-112.555
X199.358Y-137.735
X199.397Y-72.4
X199.397Y-77.4
X199.397Y-92.58
X199.397Y-97.58
X199.417Y-62.345
X199.417Y-67.345
X199.417Y-82.525
X199.417Y-87.525
T2
X160.1Y-141.22
X161.2Y-141.22
X162.3Y-141.22
T3
X108.48Y-134.0
X108.78Y-130.52
X113.62Y-127.81
X114.89Y-132.49
X118.246Y-96.015
X118.246Y-96.865
X118.56Y-124.3
X121.3Y-98.295
X121.3Y-99.145
X122.13Y-135.14
X123.64Y-127.19
X124.03Y-129.1
X124.9Y-129.01
X125.88Y-128.95
X126.66Y-100.855
X126.66Y-101.705
X126.87Y-129.47
X127.09Y-135.28
X128.21Y-135.28
X129.59Y-135.28
X130.56Y-135.31
X131.59Y-135.3
X132.46Y-135.28
X132.8Y-121.55
X133.35Y-135.3
X134.21Y-96.03
X134.24Y-118.98
X134.39Y-130.34
X134.67Y-91.63
X136.49Y-135.85
X136.77Y-133.79
X137.32Y-132.22
X137.429Y-117.631
X137.6Y-133.8
X138.031Y-117.029
X138.1Y-130.8
X138.1Y-132.3
X138.14Y-129.95
X138.48Y-97.81
X138.615Y-116.27
X138.97Y-87.06
X139.35Y-79.79
X139.465Y-116.27
X141.48Y-88.64
X142.67Y-128.3
X142.86Y-137.35
X142.9Y-127.5
X143.8Y-137.35
X143.85Y-95.12
X143.87Y-92.72
X143.87Y-97.72
X144.32Y-95.58
X144.52Y-92.71
X144.77Y-137.38
X144.84Y-91.59
X144.85Y-96.03
X144.91Y-93.96
X145.2Y-92.59
X145.31Y-94.65
X145.38Y-96.58
X145.61Y-93.87
X145.78Y-136.56
X145.79Y-137.33
X145.81Y-95.19
X145.84Y-92.34
X146.27Y-93.74
X146.3Y-95.72
X146.57Y-92.03
X146.83Y-96.27
X146.92Y-93.46
X147.01Y-98.25
X147.14Y-91.57
X147.51Y-93.07
X147.55Y-98.82
X147.67Y-91.07
X147.93Y-92.65
X148.13Y-90.61
X148.19Y-99.4
X148.44Y-92.19
X148.58Y-90.15
X148.84Y-98.27
X148.92Y-91.72
X149.08Y-89.71
X149.29Y-98.77
X149.36Y-91.2
X149.59Y-89.29
X149.8Y-99.23
X149.85Y-90.74
X150.02Y-88.82
X150.1Y-101.35
X150.32Y-90.26
X150.49Y-88.34
X150.61Y-101.83
X150.88Y-89.81
X150.96Y-87.92
X151.09Y-96.945
X151.09Y-97.795
X151.09Y-102.33
X151.3Y-89.36
X151.4Y-87.49
X151.58Y-102.78
X151.68Y-88.87
X151.707Y-84.933
X151.81Y-101.25
X151.83Y-87.01
X151.87Y-84.15
X152.02Y-103.3
X152.21Y-88.49
X152.28Y-86.55
X152.3Y-101.73
X152.47Y-103.73
X152.62Y-88.02
X152.78Y-102.22
X152.85Y-118.52
X153.01Y-104.17
X153.15Y-87.47
X153.25Y-102.66
X153.42Y-99.575
X153.42Y-100.425
X153.44Y-118.03
X153.46Y-104.63
X153.54Y-87.03
X153.73Y-103.14
X153.74Y-85.04
X153.91Y-105.12
X154.25Y-103.66
X154.27Y-72.66
X154.27Y-84.63
X154.3Y-106.7
X154.38Y-105.58
X154.67Y-84.13
X154.73Y-104.13
X154.85Y-106.06
X154.96Y-85.67
X155.16Y-104.6
X155.19Y-83.62
X155.36Y-107.84
X155.43Y-85.14
X155.55Y-87.63
X155.61Y-105.08
X155.66Y-83.21
X155.95Y-86.8
X155.95Y-117.57
X155.98Y-84.64
X156.18Y-82.72
X156.26Y-107.52
X156.46Y-104.7
X156.5Y-84.13
X156.62Y-138.9
X156.62Y-139.93
X156.62Y-140.8
X156.66Y-141.78
X156.67Y-107.97
X156.68Y-82.17
X156.7Y-142.85
X156.822Y-103.683
X156.97Y-72.64
X157.05Y-83.6
X157.05Y-106.5
X157.22Y-81.67
X157.22Y-108.41
X157.51Y-106.98
X157.54Y-83.09
X157.55Y-103.35
X157.6Y-105.76
X157.61Y-138.71
X157.62Y-110.01
X157.67Y-108.9
X157.75Y-81.14
X157.86Y-143.0
X157.98Y-107.42
X158.0Y-82.67
X158.16Y-109.4
X158.32Y-80.46
X158.39Y-122.95
X158.44Y-82.14
X158.47Y-107.89
X158.59Y-138.69
X158.74Y-72.91
X158.84Y-80.03
X158.95Y-108.36
X158.96Y-81.7
X158.97Y-142.94
X159.11Y-110.38
X159.33Y-106.63
X159.36Y-79.4
X159.41Y-81.21
X159.5Y-110.94
X159.8Y-111.52
X159.843Y-109.337
X159.88Y-80.77
X159.98Y-112.19
X160.02Y-78.83
X160.06Y-112.84
X160.08Y-113.53
X160.09Y-114.26
X160.1Y-114.94
X160.35Y-80.29
X160.384Y-108.747
X160.406Y-109.935
X160.61Y-137.69
X160.82Y-124.51
X160.82Y-125.15
X160.835Y-110.584
X160.84Y-126.57
X160.85Y-127.25
X160.85Y-127.92
X160.85Y-128.55
X160.87Y-123.13
X160.87Y-123.86
X160.87Y-125.86
X160.89Y-129.19
X160.9Y-78.52
X160.91Y-122.36
X160.94Y-79.9
X160.96Y-121.52
X161.03Y-129.83
X161.18Y-130.48
X161.27Y-120.75
X161.28Y-109.17
X161.33Y-112.13
X161.48Y-131.06
X161.49Y-120.11
X161.6Y-79.64
X161.72Y-78.34
X161.86Y-131.63
X161.9Y-119.55
X161.91Y-72.64
X162.31Y-79.53
X162.31Y-132.12
X162.48Y-78.32
X162.532Y-116.12
X162.63Y-111.1
X162.83Y-132.65
X163.01Y-123.77
X163.01Y-124.42
X163.01Y-128.4
X163.02Y-122.39
X163.02Y-123.15
X163.04Y-127.65
X163.1Y-129.09
X163.2Y-139.59
X163.23Y-121.64
X163.28Y-129.8
X163.32Y-126.92
X163.32Y-133.12
X163.4Y-124.94
X163.56Y-121.0
X163.57Y-110.82
X163.66Y-130.4
X163.67Y-125.54
X163.68Y-126.3
X163.77Y-84.87
X163.78Y-133.61
X164.07Y-72.6
X164.11Y-130.96
X164.25Y-134.06
X164.406Y-114.246
X164.406Y-117.994
X164.66Y-131.41
X164.74Y-78.74
X164.74Y-81.06
X164.74Y-134.55
X164.91Y-85.77
X164.93Y-110.45
X164.939Y-99.861
X165.15Y-131.91
X165.21Y-135.0
X165.225Y-111.907
X165.49Y-107.44
X165.524Y-83.362
X165.541Y-99.259
X165.555Y-120.855
X165.62Y-132.4
X165.74Y-135.45
X165.81Y-73.47
X165.86Y-76.46
X165.872Y-111.437
X166.0Y-75.73
X166.03Y-108.12
X166.06Y-121.38
X166.08Y-132.81
X166.28Y-116.12
X166.32Y-83.28
X166.32Y-83.93
X166.33Y-74.96
X166.33Y-84.55
X166.34Y-85.98
X166.34Y-135.8
X166.36Y-85.22
X166.36Y-86.73
X166.42Y-87.59
X166.5Y-102.51
X166.55Y-133.24
X166.56Y-121.86
X166.6Y-88.45
X166.63Y-119.64
X166.722Y-111.437
X166.79Y-74.32
X166.86Y-89.43
X166.9Y-124.6
X166.98Y-136.08
X167.04Y-122.39
X167.04Y-133.64
X167.06Y-78.74
X167.06Y-81.06
X167.15Y-89.97
X167.19Y-120.21
X167.45Y-73.66
X167.47Y-126.38
X167.48Y-90.59
X167.55Y-122.94
X167.64Y-136.25
X167.7Y-120.75
X167.7Y-133.95
X167.71Y-109.92
X167.74Y-113.63
X167.76Y-118.29
X167.91Y-91.25
X168.03Y-86.84
X168.05Y-83.39
X168.06Y-86.05
X168.09Y-73.13
X168.09Y-84.7
X168.09Y-123.49
X168.1Y-87.6
X168.11Y-84.06
X168.11Y-85.29
X168.22Y-121.27
X168.26Y-88.28
X168.33Y-113.1
X168.33Y-136.33
X168.37Y-91.8
X168.38Y-134.12
X168.49Y-88.94
X168.52Y-118.43
X168.55Y-76.44
X168.63Y-124.03
X168.73Y-72.58
X168.77Y-89.54
X168.78Y-121.77
X168.83Y-92.32
X168.87Y-112.54
X169.02Y-75.91
X169.03Y-136.33
X169.06Y-134.18
X169.09Y-115.13
X169.13Y-90.1
X169.17Y-124.53
X169.19Y-79.51
X169.19Y-80.33
X169.23Y-116.86
X169.29Y-118.53
X169.29Y-122.25
X169.3Y-71.94
X169.34Y-92.82
X169.36Y-82.25
X169.4Y-112.01
X169.5Y-75.36
X169.58Y-90.64
X169.63Y-114.58
X169.71Y-125.04
X169.71Y-136.33
X169.76Y-134.2
X169.82Y-122.76
X169.83Y-116.24
X169.85Y-82.79
X169.86Y-71.37
X169.86Y-93.29
X169.89Y-79.47
X169.97Y-74.83
X169.98Y-111.38
X170.01Y-118.52
X170.06Y-91.15
X170.06Y-110.46
X170.09Y-109.7
X170.13Y-114.13
X170.17Y-76.81
X170.26Y-80.08
X170.27Y-80.89
X170.3Y-93.75
X170.3Y-123.29
X170.38Y-125.51
X170.38Y-136.33
X170.39Y-83.28
X170.43Y-108.98
X170.46Y-134.13
X170.5Y-70.71
X170.63Y-74.34
X170.69Y-113.57
X170.69Y-118.54
X170.71Y-91.48
X170.73Y-119.26
X170.77Y-94.21
X170.8Y-81.38
X170.87Y-76.93
X170.9Y-123.78
X170.94Y-80.49
X170.97Y-83.86
X171.0Y-69.39
X171.02Y-70.18
X171.05Y-108.56
X171.05Y-125.78
X171.05Y-136.3
X171.08Y-119.92
X171.1Y-73.81
X171.1Y-134.16
X171.21Y-94.66
X171.27Y-113.13
X171.32Y-81.9
X171.33Y-115.25
X171.35Y-68.53
X171.39Y-91.81
X171.47Y-84.38
X171.48Y-124.04
X171.58Y-73.26
X171.59Y-76.92
X171.59Y-108.06
X171.71Y-92.5
X171.72Y-80.42
X171.73Y-136.31
X171.76Y-120.23
X171.8Y-82.4
X171.82Y-134.2
X171.85Y-95.11
X171.87Y-125.95
X171.97Y-84.89
X172.05Y-72.73
X172.08Y-107.5
X172.1Y-67.97
X172.11Y-93.2
X172.11Y-115.49
X172.13Y-124.24
X172.31Y-76.67
X172.32Y-82.92
X172.37Y-79.99
X172.42Y-120.17
X172.46Y-136.31
X172.47Y-85.41
X172.48Y-95.53
X172.49Y-134.18
X172.66Y-125.99
X172.71Y-107.11
X172.75Y-93.67
X172.77Y-113.33
X172.8Y-124.29
X172.82Y-83.41
X172.89Y-72.53
X172.91Y-115.21
X172.94Y-86.01
X172.95Y-79.48
X173.09Y-67.8
X173.13Y-76.76
X173.14Y-134.19
X173.14Y-136.3
X173.16Y-106.34
X173.17Y-120.07
X173.19Y-95.81
X173.22Y-86.68
X173.35Y-93.9
X173.39Y-83.92
X173.4Y-126.17
X173.5Y-124.3
X173.56Y-77.37
X173.58Y-72.13
X173.67Y-112.73
X173.68Y-79.46
X173.75Y-126.7
X173.77Y-134.18
X173.8Y-67.4
X173.8Y-136.29
X173.82Y-105.83
X173.82Y-115.25
X173.89Y-87.01
X173.91Y-96.03
X173.93Y-120.18
X174.05Y-71.49
X174.07Y-94.12
X174.16Y-112.21
X174.17Y-83.54
X174.2Y-124.36
X174.27Y-77.67
X174.36Y-127.14
X174.37Y-70.71
X174.37Y-79.43
X174.46Y-134.24
X174.47Y-136.29
X174.55Y-115.34
X174.57Y-66.7
X174.6Y-105.61
X174.63Y-96.11
X174.66Y-111.69
X174.68Y-87.03
X174.74Y-120.11
X174.75Y-123.72
X174.79Y-94.2
X174.87Y-83.0
X174.88Y-70.06
X174.89Y-75.4
X174.95Y-77.27
X175.03Y-76.39
X175.1Y-79.36
X175.13Y-136.29
X175.15Y-127.18
X175.18Y-134.18
X175.27Y-111.06
X175.28Y-115.24
X175.32Y-96.17
X175.35Y-65.99
X175.35Y-105.62
X175.37Y-86.81
X175.39Y-74.66
X175.43Y-120.25
X175.44Y-69.43
X175.48Y-94.26
X175.62Y-123.11
X175.74Y-79.09
X175.75Y-82.94
X175.78Y-136.27
X175.96Y-134.18
X175.98Y-110.6
X176.02Y-105.21
X176.04Y-96.15
X176.04Y-127.07
X176.09Y-115.68
X176.1Y-87.06
X176.11Y-65.2
X176.2Y-74.38
X176.2Y-94.24
X176.22Y-68.68
X176.25Y-108.5
X176.27Y-120.31
X176.33Y-78.65
X176.36Y-110.0
X176.38Y-116.53
X176.4Y-123.2
X176.4Y-136.26
X176.42Y-109.33
X176.5Y-83.62
X176.66Y-104.69
X176.71Y-96.16
X176.74Y-134.2
X176.79Y-107.81
X176.83Y-78.07
X176.87Y-94.25
X176.88Y-127.23
X176.89Y-86.94
X176.99Y-84.21
X177.0Y-120.07
X177.01Y-67.93
X177.05Y-136.26
X177.06Y-64.67
X177.1Y-74.65
X177.27Y-119.35
X177.32Y-77.5
X177.32Y-123.24
X177.4Y-104.21
X177.41Y-96.19
X177.43Y-86.45
X177.46Y-118.65
X177.47Y-107.24
X177.57Y-94.28
X177.59Y-127.02
X177.62Y-116.88
X177.63Y-134.18
X177.74Y-84.19
X177.74Y-136.32
X177.81Y-76.88
X177.86Y-74.66
X177.96Y-85.84
X177.97Y-67.08
X178.03Y-64.12
X178.07Y-96.2
X178.07Y-106.69
X178.16Y-103.95
X178.18Y-123.14
X178.23Y-94.29
X178.23Y-118.55
X178.33Y-134.25
X178.37Y-127.15
X178.39Y-136.27
X178.48Y-84.19
X178.48Y-116.85
X178.5Y-76.44
X178.61Y-74.27
X178.7Y-85.85
X178.71Y-106.27
X178.75Y-96.21
X178.91Y-63.78
X178.91Y-94.3
X178.98Y-103.79
X179.02Y-118.52
X179.02Y-123.39
X179.06Y-66.52
X179.11Y-75.91
X179.11Y-136.28
X179.12Y-134.23
X179.16Y-83.9
X179.24Y-127.2
X179.34Y-74.07
X179.36Y-116.47
X179.45Y-96.22
X179.48Y-85.84
X179.6Y-106.17
X179.61Y-94.31
X179.72Y-123.15
X179.76Y-103.73
X179.78Y-118.42
X179.8Y-63.68
X179.83Y-83.4
X179.84Y-136.29
X179.88Y-134.21
X179.91Y-102.89
X179.94Y-75.71
X180.06Y-74.02
X180.09Y-127.06
X180.14Y-66.14
X180.14Y-115.97
X180.16Y-86.2
X180.2Y-96.22
X180.3Y-106.05
X180.36Y-94.31
X180.5Y-83.29
X180.52Y-118.09
X180.53Y-136.29
X180.56Y-102.3
X180.61Y-123.3
X180.63Y-134.18
X180.66Y-63.56
X180.74Y-73.62
X180.74Y-75.7
X180.74Y-86.68
X180.84Y-96.21
X180.85Y-115.32
X180.92Y-127.18
X181.0Y-94.3
X181.12Y-123.81
X181.2Y-83.56
X181.2Y-117.56
X181.21Y-136.3
X181.23Y-66.03
X181.23Y-72.9
X181.35Y-106.06
X181.39Y-134.22
X181.5Y-110.1
X181.52Y-102.11
X181.53Y-86.74
X181.53Y-114.88
X181.54Y-96.2
X181.6Y-75.57
X181.61Y-63.5
X181.68Y-84.18
X181.68Y-124.34
X181.7Y-94.29
X181.7Y-127.02
X181.83Y-117.01
X181.87Y-136.31
X182.05Y-72.82
X182.1Y-126.45
X182.1Y-134.2
X182.17Y-65.99
X182.24Y-114.53
X182.25Y-106.07
X182.28Y-96.22
X182.32Y-86.49
X182.34Y-102.29
X182.34Y-116.45
X182.37Y-84.18
X182.39Y-75.59
X182.44Y-63.48
X182.44Y-94.31
X182.45Y-124.35
X182.51Y-136.32
X182.6Y-125.96
X182.63Y-85.83
X182.73Y-134.18
X182.75Y-102.86
X182.91Y-73.1
X182.98Y-103.86
X182.98Y-114.32
X183.04Y-96.2
X183.11Y-116.01
X183.13Y-65.98
X183.16Y-136.31
X183.17Y-106.21
X183.19Y-84.2
X183.2Y-94.29
X183.23Y-75.71
X183.25Y-124.33
X183.29Y-73.94
X183.3Y-125.95
X183.34Y-85.82
X183.37Y-63.48
X183.39Y-134.19
X183.75Y-114.16
X183.76Y-96.18
X183.79Y-136.3
X183.85Y-115.86
X183.9Y-103.8
X183.92Y-94.27
X183.92Y-106.17
X183.96Y-124.34
X183.97Y-65.92
X183.98Y-84.22
X183.99Y-125.96
X184.01Y-85.89
X184.02Y-134.22
X184.04Y-75.73
X184.05Y-74.11
X184.08Y-63.52
T5
X110.0Y-91.72
X110.0Y-94.26
X110.0Y-96.8
X110.0Y-99.34
X112.54Y-92.99
X112.54Y-95.53
X112.54Y-98.07
X112.54Y-100.61
T6
X141.037Y-52.0
X143.577Y-52.0
X146.118Y-52.0
X148.657Y-52.0
X151.197Y-52.0
X154.22Y-147.3
X156.76Y-147.3
X156.805Y-52.0
X159.3Y-147.3
X159.345Y-52.0
X161.84Y-147.3
X161.885Y-52.0
X164.425Y-52.0
X167.92Y-147.1
X170.032Y-52.2
X170.46Y-147.1
X172.572Y-52.2
X173.0Y-147.1
X175.112Y-52.2
X175.54Y-147.1
X177.653Y-52.2
X180.192Y-52.2
X185.8Y-52.3
T7
X131.3Y-146.4
X136.3Y-146.4
T8
X105.0Y-55.0
X105.0Y-145.0
X195.0Y-55.0
X195.0Y-145.0
T4
G00X113.98Y-143.05
M15
G01X113.98Y-144.15
M16
G05
G00X113.98Y-147.4
M15
G01X113.98Y-148.2
M16
G05
G00X122.62Y-143.05
M15
G01X122.62Y-144.15
M16
G05
G00X122.62Y-147.4
M15
G01X122.62Y-148.2
M16
G05
M30
