%TF.GenerationSoftware,KiCad,Pcbnew,9.0.4*%
%TF.CreationDate,2026-04-02T03:56:53-05:00*%
%TF.ProjectId,Up_Down_Converter,55705f44-6f77-46e5-9f43-6f6e76657274,rev?*%
%TF.SameCoordinates,Original*%
%TF.FileFunction,Soldermask,Top*%
%TF.FilePolarity,Negative*%
%FSLAX46Y46*%
G04 Gerber Fmt 4.6, Leading zero omitted, Abs format (unit mm)*
G04 Created by KiCad (PCBNEW 9.0.4) date 2026-04-02 03:56:53*
%MOMM*%
%LPD*%
G01*
G04 APERTURE LIST*
G04 Aperture macros list*
%AMRoundRect*
0 Rectangle with rounded corners*
0 $1 Rounding radius*
0 $2 $3 $4 $5 $6 $7 $8 $9 X,Y pos of 4 corners*
0 Add a 4 corners polygon primitive as box body*
4,1,4,$2,$3,$4,$5,$6,$7,$8,$9,$2,$3,0*
0 Add four circle primitives for the rounded corners*
1,1,$1+$1,$2,$3*
1,1,$1+$1,$4,$5*
1,1,$1+$1,$6,$7*
1,1,$1+$1,$8,$9*
0 Add four rect primitives between the rounded corners*
20,1,$1+$1,$2,$3,$4,$5,0*
20,1,$1+$1,$4,$5,$6,$7,0*
20,1,$1+$1,$6,$7,$8,$9,0*
20,1,$1+$1,$8,$9,$2,$3,0*%
%AMRotRect*
0 Rectangle, with rotation*
0 The origin of the aperture is its center*
0 $1 length*
0 $2 width*
0 $3 Rotation angle, in degrees counterclockwise*
0 Add horizontal line*
21,1,$1,$2,0,0,$3*%
%AMOutline5P*
0 Free polygon, 5 corners , with rotation*
0 The origin of the aperture is its center*
0 number of corners: always 5*
0 $1 to $10 corner X, Y*
0 $11 Rotation angle, in degrees counterclockwise*
0 create outline with 5 corners*
4,1,5,$1,$2,$3,$4,$5,$6,$7,$8,$9,$10,$1,$2,$11*%
%AMOutline6P*
0 Free polygon, 6 corners , with rotation*
0 The origin of the aperture is its center*
0 number of corners: always 6*
0 $1 to $12 corner X, Y*
0 $13 Rotation angle, in degrees counterclockwise*
0 create outline with 6 corners*
4,1,6,$1,$2,$3,$4,$5,$6,$7,$8,$9,$10,$11,$12,$1,$2,$13*%
%AMOutline7P*
0 Free polygon, 7 corners , with rotation*
0 The origin of the aperture is its center*
0 number of corners: always 7*
0 $1 to $14 corner X, Y*
0 $15 Rotation angle, in degrees counterclockwise*
0 create outline with 7 corners*
4,1,7,$1,$2,$3,$4,$5,$6,$7,$8,$9,$10,$11,$12,$13,$14,$1,$2,$15*%
%AMOutline8P*
0 Free polygon, 8 corners , with rotation*
0 The origin of the aperture is its center*
0 number of corners: always 8*
0 $1 to $16 corner X, Y*
0 $17 Rotation angle, in degrees counterclockwise*
0 create outline with 8 corners*
4,1,8,$1,$2,$3,$4,$5,$6,$7,$8,$9,$10,$11,$12,$13,$14,$15,$16,$1,$2,$17*%
%AMFreePoly0*
4,1,25,-1.500000,1.420000,-1.360000,1.280000,-1.205000,1.155000,-1.035000,1.045000,-0.860000,0.950000,-0.675000,0.875000,-0.480000,0.820000,-0.280000,0.780000,-0.085000,0.765000,0.085000,0.765000,0.280000,0.780000,0.480000,0.820000,0.675000,0.875000,0.860000,0.950000,1.035000,1.045000,1.205000,1.155000,1.360000,1.280000,1.500000,1.420000,1.645000,1.595000,3.555000,1.595000,
3.555000,-0.755000,-3.555000,-0.755000,-3.555000,1.595000,-1.645000,1.595000,-1.500000,1.420000,-1.500000,1.420000,$1*%
%AMFreePoly1*
4,1,9,5.362500,-0.866500,1.237500,-0.866500,1.237500,-0.450000,-1.237500,-0.450000,-1.237500,0.450000,1.237500,0.450000,1.237500,0.866500,5.362500,0.866500,5.362500,-0.866500,5.362500,-0.866500,$1*%
G04 Aperture macros list end*
%ADD10C,1.121700*%
%ADD11C,0.556000*%
%ADD12C,1.200000*%
%ADD13C,0.000000*%
%ADD14RoundRect,0.250000X-0.400000X-0.625000X0.400000X-0.625000X0.400000X0.625000X-0.400000X0.625000X0*%
%ADD15RoundRect,0.237500X0.237500X-0.300000X0.237500X0.300000X-0.237500X0.300000X-0.237500X-0.300000X0*%
%ADD16RoundRect,0.237500X-0.300000X-0.237500X0.300000X-0.237500X0.300000X0.237500X-0.300000X0.237500X0*%
%ADD17R,0.599999X1.100000*%
%ADD18C,0.499999*%
%ADD19C,0.650000*%
%ADD20R,0.600000X1.240000*%
%ADD21R,0.300000X1.240000*%
%ADD22O,1.000000X2.100000*%
%ADD23O,1.000000X1.800000*%
%ADD24RoundRect,0.237500X-0.250000X-0.237500X0.250000X-0.237500X0.250000X0.237500X-0.250000X0.237500X0*%
%ADD25RoundRect,0.237500X0.287500X0.237500X-0.287500X0.237500X-0.287500X-0.237500X0.287500X-0.237500X0*%
%ADD26RoundRect,0.237500X0.237500X-0.287500X0.237500X0.287500X-0.237500X0.287500X-0.237500X-0.287500X0*%
%ADD27Outline6P,-2.900000X0.630000X-2.480000X1.050000X2.480000X1.050000X2.900000X0.630000X2.900000X-1.050000X-2.900000X-1.050000X180.000000*%
%ADD28Outline6P,-2.900000X0.630000X-2.480000X1.050000X2.480000X1.050000X2.900000X0.630000X2.900000X-1.050000X-2.900000X-1.050000X0.000000*%
%ADD29C,6.400000*%
%ADD30R,1.700000X1.700000*%
%ADD31C,1.700000*%
%ADD32RoundRect,0.055000X0.055000X0.095000X-0.055000X0.095000X-0.055000X-0.095000X0.055000X-0.095000X0*%
%ADD33RoundRect,0.237500X0.237500X-0.250000X0.237500X0.250000X-0.237500X0.250000X-0.237500X-0.250000X0*%
%ADD34RoundRect,0.237500X0.300000X0.237500X-0.300000X0.237500X-0.300000X-0.237500X0.300000X-0.237500X0*%
%ADD35RoundRect,0.250000X-0.625000X0.400000X-0.625000X-0.400000X0.625000X-0.400000X0.625000X0.400000X0*%
%ADD36RoundRect,0.237500X-0.380070X0.044194X0.044194X-0.380070X0.380070X-0.044194X-0.044194X0.380070X0*%
%ADD37RoundRect,0.237500X0.044194X0.380070X-0.380070X-0.044194X-0.044194X-0.380070X0.380070X0.044194X0*%
%ADD38C,3.200000*%
%ADD39R,1.500000X1.500000*%
%ADD40C,1.500000*%
%ADD41C,1.730000*%
%ADD42FreePoly0,180.000000*%
%ADD43FreePoly0,0.000000*%
%ADD44RoundRect,0.237500X-0.287500X-0.237500X0.287500X-0.237500X0.287500X0.237500X-0.287500X0.237500X0*%
%ADD45RoundRect,0.162500X0.162500X-0.617500X0.162500X0.617500X-0.162500X0.617500X-0.162500X-0.617500X0*%
%ADD46R,0.804800X0.249200*%
%ADD47R,0.254000X0.457200*%
%ADD48R,0.457200X0.254000*%
%ADD49R,5.003800X5.003800*%
%ADD50RoundRect,0.237500X-0.237500X0.300000X-0.237500X-0.300000X0.237500X-0.300000X0.237500X0.300000X0*%
%ADD51R,0.431800X0.431800*%
%ADD52R,0.304800X0.304800*%
%ADD53R,2.082800X2.082800*%
%ADD54RoundRect,0.250000X0.250000X0.550000X-0.250000X0.550000X-0.250000X-0.550000X0.250000X-0.550000X0*%
%ADD55RoundRect,0.225000X-0.925000X-0.225000X0.925000X-0.225000X0.925000X0.225000X-0.925000X0.225000X0*%
%ADD56FreePoly1,0.000000*%
%ADD57RoundRect,0.250001X-1.149999X-1.149999X1.149999X-1.149999X1.149999X1.149999X-1.149999X1.149999X0*%
%ADD58C,2.800000*%
%ADD59RoundRect,0.250000X-0.600000X-2.600000X0.600000X-2.600000X0.600000X2.600000X-0.600000X2.600000X0*%
%ADD60RoundRect,0.237500X-0.237500X0.250000X-0.237500X-0.250000X0.237500X-0.250000X0.237500X0.250000X0*%
%ADD61RoundRect,0.237500X-0.044194X-0.380070X0.380070X0.044194X0.044194X0.380070X-0.380070X-0.044194X0*%
%ADD62RoundRect,0.150000X-0.512500X-0.150000X0.512500X-0.150000X0.512500X0.150000X-0.512500X0.150000X0*%
%ADD63RotRect,0.304800X0.300000X135.000000*%
%ADD64RotRect,0.304800X0.300000X225.000000*%
%ADD65RotRect,2.400000X2.400000X135.000000*%
G04 APERTURE END LIST*
D10*
X177183198Y-84805001D02*
X177383198Y-84805001D01*
X175558199Y-84205001D02*
X175558199Y-84805001D01*
D11*
X159769340Y-79960659D02*
G75*
G02*
X162330001Y-78899993I2560660J-2560641D01*
G01*
D10*
X174776139Y-108543095D02*
X174617041Y-108383997D01*
X175600928Y-125985000D02*
G75*
G02*
X174975928Y-126610028I-625028J0D01*
G01*
X174982065Y-116200000D02*
X175182065Y-116200000D01*
X172088287Y-71556278D02*
X172236347Y-71704338D01*
X174893198Y-94875000D02*
X184800000Y-94875000D01*
X172654819Y-110664418D02*
X173079083Y-111088682D01*
X182060877Y-73900000D02*
G75*
G02*
X182235900Y-74075000I23J-175000D01*
G01*
D12*
X166900001Y-77207600D02*
X166925001Y-77182600D01*
D10*
X169994999Y-78250000D02*
X169994999Y-78025001D01*
X172081650Y-69273619D02*
X172223071Y-69132199D01*
X166925001Y-86543199D02*
X166925001Y-82846001D01*
X169303199Y-80925001D02*
G75*
G02*
X169644632Y-81066409I1J-482899D01*
G01*
X172106811Y-110894231D02*
X171947711Y-110735134D01*
X176558199Y-85854999D02*
X176558199Y-85430000D01*
D11*
X144880000Y-93350000D02*
X143125800Y-93350000D01*
D10*
X177730117Y-75681687D02*
X177897893Y-75513908D01*
X174775928Y-126610000D02*
X174975928Y-126610000D01*
X181635000Y-104600000D02*
X181635000Y-103675000D01*
X173798624Y-69576380D02*
X173940044Y-69434958D01*
X177008197Y-85854999D02*
X177008197Y-85430000D01*
X170767915Y-116414150D02*
G75*
G02*
X170982065Y-116199915I214185J50D01*
G01*
X178150928Y-125385000D02*
X178150928Y-125985000D01*
X174033681Y-107800636D02*
G75*
G02*
X174033686Y-106916759I441919J441936D01*
G01*
X162145000Y-126511384D02*
X162145000Y-127141562D01*
X172813919Y-110187125D02*
X172813917Y-110187123D01*
X177182065Y-117885850D02*
X178353018Y-117885850D01*
X171116860Y-112202379D02*
X171116859Y-112202378D01*
X169644620Y-81066422D02*
X173232690Y-84654492D01*
X173644768Y-110770486D02*
G75*
G02*
X173397279Y-110770486I-123744J123747D01*
G01*
X174351877Y-107482440D02*
G75*
G02*
X174351882Y-107234955I123723J123740D01*
G01*
X176008197Y-85430000D02*
X176008197Y-85854999D01*
X173370000Y-78425001D02*
X173986802Y-78425000D01*
X172170000Y-77400002D02*
X172370000Y-77400002D01*
X175693908Y-77717893D02*
G75*
G02*
X173986801Y-78425005I-1707108J1707093D01*
G01*
X174775928Y-126160000D02*
G75*
G02*
X174600900Y-125985000I-28J175000D01*
G01*
X181975928Y-125385000D02*
X183290000Y-125385000D01*
X180635000Y-103675000D02*
X180635000Y-104600000D01*
X175058983Y-109356271D02*
X175200404Y-109214849D01*
X179753894Y-105225000D02*
X179594240Y-105225000D01*
X171912359Y-109921959D02*
X172336624Y-110346224D01*
X171205251Y-109745184D02*
X171346674Y-109603762D01*
X172371973Y-111795789D02*
X172071453Y-111495269D01*
X180093622Y-84505000D02*
G75*
G02*
X180268622Y-84330022I174978J0D01*
G01*
X172548749Y-112502897D02*
X172690170Y-112361475D01*
X176558199Y-85430000D02*
G75*
G02*
X177183198Y-84804999I625001J0D01*
G01*
X173767915Y-117514150D02*
X173767915Y-117885850D01*
X181643622Y-85555000D02*
X181643622Y-85430000D01*
X184053217Y-75125000D02*
X184830000Y-75125000D01*
X173396215Y-117514150D02*
X173396215Y-117885850D01*
X179643622Y-84505000D02*
G75*
G02*
X180268622Y-83880022I624978J0D01*
G01*
X170603249Y-72771751D02*
X171818722Y-71556278D01*
X181085000Y-104600000D02*
G75*
G02*
X180460000Y-105225000I-625000J0D01*
G01*
X181860877Y-73900000D02*
X182060877Y-73900000D01*
X171994999Y-79274999D02*
X171994999Y-78874999D01*
X175661830Y-75310456D02*
X175803251Y-75169036D01*
X179150928Y-125985000D02*
G75*
G02*
X178975928Y-126160028I-175028J0D01*
G01*
X181093622Y-84630000D02*
X181093622Y-85430000D01*
X180600928Y-125560000D02*
X180600928Y-125985000D01*
X171339792Y-93321594D02*
X171478984Y-93460786D01*
X172377771Y-69839304D02*
G75*
G02*
X172377748Y-69569719I134829J134804D01*
G01*
X175058986Y-106775332D02*
X175359506Y-107075852D01*
X173909935Y-109091105D02*
X174069034Y-109250203D01*
X163205660Y-131137461D02*
G75*
G02*
X162144993Y-128576802I2560640J2560661D01*
G01*
X173239574Y-70701110D02*
G75*
G02*
X173239561Y-71562903I-430874J-430890D01*
G01*
X176396215Y-118985850D02*
X176396215Y-118100000D01*
X178100539Y-84805000D02*
X179468622Y-84805000D01*
X181235877Y-74500000D02*
X181235877Y-74075000D01*
X177383198Y-85254999D02*
X178100539Y-85255000D01*
X175058983Y-109356271D02*
G75*
G02*
X174811494Y-109356271I-123744J123747D01*
G01*
X169545001Y-78025001D02*
G75*
G02*
X170170000Y-77400001I624999J1D01*
G01*
X171545001Y-78025001D02*
G75*
G02*
X172170000Y-77400001I624999J1D01*
G01*
X162385000Y-125551384D02*
G75*
G02*
X162145016Y-125311384I0J239984D01*
G01*
D11*
X159691908Y-110002508D02*
G75*
G02*
X160752577Y-112563170I-2560708J-2560692D01*
G01*
D10*
X174104386Y-110063378D02*
G75*
G02*
X174104367Y-110947241I-441986J-441922D01*
G01*
X176982065Y-117885850D02*
X177182065Y-117885850D01*
X174893198Y-94875000D02*
G75*
G02*
X171478990Y-93460779I2J4828400D01*
G01*
X183290000Y-124935000D02*
X184530000Y-124935000D01*
X173962965Y-111088682D02*
X174104386Y-110947260D01*
X172982065Y-116200000D02*
X173182065Y-116200000D01*
X172760889Y-108189547D02*
G75*
G02*
X173644771Y-108189547I441941J-441944D01*
G01*
X171037805Y-92312500D02*
G75*
G02*
X171037799Y-92651906I-169705J-169700D01*
G01*
X181616321Y-116276509D02*
G75*
G02*
X184176982Y-115215845I2560679J-2560691D01*
G01*
X182860877Y-74675000D02*
X183060877Y-74675000D01*
X171629515Y-111053330D02*
X171205251Y-110629066D01*
X176634099Y-76530216D02*
G75*
G02*
X176634142Y-77414141I-441799J-441984D01*
G01*
X176183198Y-86479998D02*
G75*
G02*
X175558202Y-85854999I2J624998D01*
G01*
X181685877Y-74075000D02*
G75*
G02*
X181860877Y-73899977I175023J0D01*
G01*
X177008197Y-85854999D02*
G75*
G02*
X176383198Y-86479997I-624997J-1D01*
G01*
X180460000Y-105225000D02*
X180260000Y-105225000D01*
X176982065Y-117514150D02*
X177182065Y-117514150D01*
X173326574Y-108507744D02*
X173750839Y-108932009D01*
X181616321Y-116276509D02*
X181067642Y-116825189D01*
X172767915Y-116414150D02*
G75*
G02*
X172982065Y-116199915I214185J50D01*
G01*
X170003829Y-123874339D02*
X165672416Y-119542926D01*
X180468622Y-83880000D02*
G75*
G02*
X181093600Y-84505000I-22J-625000D01*
G01*
X177183198Y-85254999D02*
X177383198Y-85254999D01*
X169496320Y-91478121D02*
G75*
G02*
X167374958Y-86356802I5121180J5121321D01*
G01*
X173502504Y-69280259D02*
X173643923Y-69138837D01*
X174183198Y-86030000D02*
X174383198Y-86030000D01*
X180150928Y-124935000D02*
X180150928Y-125560000D01*
X175886467Y-78161730D02*
X176634099Y-77414098D01*
X176047288Y-66735470D02*
G75*
G02*
X181168609Y-64614158I5121312J-5121330D01*
G01*
D12*
X166900001Y-82821001D02*
X166925001Y-82846001D01*
D10*
X170952953Y-92227648D02*
X171037805Y-92312500D01*
X181150928Y-125985000D02*
G75*
G02*
X180975928Y-126160028I-175028J0D01*
G01*
X177975928Y-123710000D02*
G75*
G02*
X178600900Y-124335000I-28J-625000D01*
G01*
X173396215Y-117885850D02*
X173396215Y-118985850D01*
X181462357Y-115904809D02*
X180913678Y-116453489D01*
X183147279Y-84805000D02*
X185010000Y-84805000D01*
X176775928Y-126610000D02*
X176975928Y-126610000D01*
D11*
X147440660Y-92289339D02*
G75*
G02*
X144880000Y-93350005I-2560660J2560639D01*
G01*
D10*
X175150928Y-125560000D02*
X175150928Y-124935000D01*
X171664869Y-109921960D02*
G75*
G02*
X171912344Y-109921973I123731J-123740D01*
G01*
X177150928Y-125985000D02*
X177150928Y-125385000D01*
X167829093Y-114853751D02*
X170798662Y-111884181D01*
X176315901Y-77095900D02*
X176315902Y-77095901D01*
X173079084Y-108507745D02*
G75*
G02*
X173326544Y-108507773I123716J-123755D01*
G01*
X172512549Y-70566326D02*
X172512551Y-70566330D01*
X173521023Y-109480015D02*
X173521026Y-109480016D01*
X175150928Y-124335000D02*
G75*
G02*
X175775928Y-123710028I624972J0D01*
G01*
X172808670Y-70270206D02*
X172808674Y-70270207D01*
X180150928Y-124335000D02*
X180150928Y-124935000D01*
X175008197Y-85854999D02*
X175008197Y-85430000D01*
X170545001Y-78025001D02*
X170545001Y-78250000D01*
X183060877Y-74675000D02*
X184053217Y-74675000D01*
X169038022Y-117514150D02*
X170182065Y-117514150D01*
X172937663Y-108649165D02*
X173079084Y-108507745D01*
X174183198Y-86479998D02*
G75*
G02*
X173558202Y-85854999I2J624998D01*
G01*
X174706802Y-95324999D02*
G75*
G02*
X171292593Y-93910781I-2J4828399D01*
G01*
X175558199Y-85430000D02*
X175558199Y-85854999D01*
X168884062Y-117885850D02*
G75*
G02*
X168030497Y-117532306I38J1207250D01*
G01*
X171396215Y-117300000D02*
X171396215Y-117885850D01*
X176600928Y-124335000D02*
X176600928Y-124935000D01*
X165816141Y-134384339D02*
X162755660Y-131323858D01*
X177033578Y-106285659D02*
G75*
G02*
X179594240Y-105224979I2560722J-2560741D01*
G01*
X180775928Y-126610000D02*
X180975928Y-126610000D01*
X175982065Y-119200000D02*
X176182065Y-119200000D01*
X169496320Y-91478122D02*
X170259988Y-92241790D01*
X177150928Y-125385000D02*
X177150928Y-124935000D01*
X181643622Y-85430000D02*
G75*
G02*
X182268622Y-84805022I624978J0D01*
G01*
X175767915Y-116414150D02*
X175767915Y-117514150D01*
X178216090Y-75832105D02*
G75*
G02*
X179923198Y-75124992I1707110J-1707095D01*
G01*
X168563198Y-134994999D02*
G75*
G02*
X166002522Y-133934354I2J3621399D01*
G01*
X175925191Y-107394049D02*
X176066611Y-107252628D01*
X175982065Y-119571700D02*
G75*
G02*
X175396300Y-118985850I135J585900D01*
G01*
X168376802Y-135444999D02*
G75*
G02*
X165816145Y-134384335I-2J3621299D01*
G01*
X172378094Y-125385000D02*
X173975928Y-125385000D01*
X171396215Y-116414150D02*
X171396215Y-117300000D01*
X171545001Y-79274999D02*
G75*
G02*
X171370000Y-79450001I-175001J-1D01*
G01*
X177906893Y-76141308D02*
G75*
G02*
X177023011Y-76141308I-441941J441944D01*
G01*
X181268622Y-86180000D02*
X181468622Y-86180000D01*
X176368937Y-75487234D02*
X177023011Y-76141308D01*
X173182065Y-115828300D02*
G75*
G02*
X173767900Y-116414150I35J-585800D01*
G01*
X180268622Y-84330000D02*
X180468622Y-84330000D01*
X181093622Y-85430000D02*
X181093622Y-85555000D01*
X169661535Y-74052876D02*
X169711032Y-74102373D01*
X171818722Y-71556278D02*
G75*
G02*
X172088288Y-71556277I134783J-134782D01*
G01*
X176558199Y-85854999D02*
G75*
G02*
X176383198Y-86029999I-174999J-1D01*
G01*
X174775928Y-126160000D02*
X174975928Y-126160000D01*
X182268622Y-85255000D02*
X182468622Y-85255000D01*
X170396215Y-117300000D02*
X170396215Y-116414150D01*
X175383198Y-84030000D02*
G75*
G02*
X175558200Y-84205001I2J-175000D01*
G01*
X174396215Y-118985850D02*
X174396215Y-117885850D01*
X173982065Y-119200000D02*
X174182065Y-119200000D01*
X173644771Y-108189547D02*
X174069036Y-108613812D01*
X180643622Y-84505000D02*
X180643622Y-84630000D01*
X176396215Y-118100000D02*
G75*
G02*
X176982065Y-117514115I585885J0D01*
G01*
X181643622Y-85555000D02*
G75*
G02*
X181468622Y-85730022I-175022J0D01*
G01*
X178775928Y-126160000D02*
X178975928Y-126160000D01*
X172548749Y-112502897D02*
G75*
G02*
X171664867Y-112502897I-441941J441941D01*
G01*
X172808674Y-70270207D02*
X172525831Y-69987364D01*
X171994999Y-78250000D02*
X171994999Y-78025001D01*
X172802032Y-71408217D02*
G75*
G02*
X172532467Y-71408217I-134782J134785D01*
G01*
X169370000Y-78425000D02*
X169370000Y-78425001D01*
X175767915Y-118100000D02*
X175767915Y-118985850D01*
X174396215Y-118985850D02*
G75*
G02*
X174182065Y-119200015I-214115J-50D01*
G01*
X180600928Y-124335000D02*
X180600928Y-124935000D01*
X172914492Y-84972690D02*
X173196802Y-85255000D01*
X173975928Y-124935000D02*
G75*
G02*
X174600900Y-125560000I-28J-625000D01*
G01*
X162145000Y-127141562D02*
X162145000Y-128576802D01*
X175748414Y-106934431D02*
X176626422Y-106056421D01*
X172545001Y-78025001D02*
X172545001Y-78250000D01*
X170370000Y-77850000D02*
G75*
G02*
X170545000Y-78025001I0J-175000D01*
G01*
X168082107Y-75292893D02*
X169322124Y-74052876D01*
X175775928Y-124160000D02*
X175975928Y-124160000D01*
D12*
X167400000Y-82592400D02*
X167400000Y-82821001D01*
D10*
X172396215Y-117885850D02*
X172396215Y-117514150D01*
X179643622Y-84630000D02*
G75*
G02*
X179468622Y-84805022I-175022J0D01*
G01*
X171346674Y-109603762D02*
G75*
G02*
X172230556Y-109603762I441941J-441944D01*
G01*
X171994999Y-78025001D02*
G75*
G02*
X172170000Y-77849999I175001J1D01*
G01*
X174493299Y-108260254D02*
X174334199Y-108101157D01*
X182860877Y-75125000D02*
G75*
G02*
X182235900Y-74500000I23J625000D01*
G01*
X172564490Y-124935000D02*
G75*
G02*
X170003817Y-123874350I10J3621400D01*
G01*
X172564490Y-124935000D02*
X173975928Y-124935000D01*
D11*
X160752569Y-112563170D02*
X160752569Y-115294831D01*
D10*
X182260000Y-105225000D02*
G75*
G02*
X181635000Y-104600000I0J625000D01*
G01*
X169458223Y-81516421D02*
X172914492Y-84972690D01*
X171523448Y-110063380D02*
X171664869Y-109921960D01*
X175975928Y-123710000D02*
G75*
G02*
X176600900Y-124335000I-28J-625000D01*
G01*
X173170000Y-78874999D02*
X173370000Y-78874999D01*
X172370000Y-77400002D02*
G75*
G02*
X172994998Y-78025001I0J-624998D01*
G01*
X162385000Y-125551384D02*
X162605000Y-125551384D01*
X172071453Y-111495269D02*
X171788610Y-111212426D01*
X171108516Y-93090318D02*
X171339792Y-93321594D01*
X168184468Y-117160596D02*
X168147291Y-117123419D01*
X178600928Y-124335000D02*
X178600928Y-124935000D01*
X177906893Y-76141308D02*
X178048313Y-75999883D01*
X182468622Y-84805000D02*
X183147279Y-84805000D01*
X169116802Y-81375000D02*
G75*
G02*
X169458213Y-81516430I-2J-482800D01*
G01*
X179775928Y-124160000D02*
X179975928Y-124160000D01*
X179600928Y-125985000D02*
X179600928Y-125385000D01*
X171788612Y-111212430D02*
X171629515Y-111053330D01*
X182860877Y-75125000D02*
X183060877Y-75125000D01*
X174351878Y-107234950D02*
X174493299Y-107093530D01*
X175200404Y-108967360D02*
G75*
G02*
X175200400Y-109214844I-123704J-123740D01*
G01*
X175183198Y-83580002D02*
X175383198Y-83580002D01*
X171292588Y-93910786D02*
X169046321Y-91664519D01*
X184640000Y-105225000D02*
X182260000Y-105225000D01*
X176847183Y-105835660D02*
G75*
G02*
X179407844Y-104775024I2560617J-2560640D01*
G01*
X176634099Y-76530216D02*
X175980026Y-75876143D01*
X174104386Y-110063378D02*
X173680121Y-109639113D01*
X176008197Y-84805001D02*
X176008197Y-85430000D01*
D11*
X159769340Y-79960659D02*
X147440660Y-92289339D01*
D10*
X169303199Y-80925001D02*
X168617400Y-80925001D01*
D11*
X143822241Y-94132842D02*
X159691908Y-110002509D01*
D10*
X169038022Y-117514150D02*
G75*
G02*
X168184489Y-117160574I-22J1206950D01*
G01*
X174069034Y-109250203D02*
X174493298Y-109674467D01*
X171982065Y-119200000D02*
G75*
G02*
X171768000Y-118985850I135J214200D01*
G01*
X173170000Y-78425001D02*
G75*
G02*
X172994999Y-78250000I0J175001D01*
G01*
X169994999Y-78250000D02*
G75*
G02*
X169370000Y-78874999I-624999J0D01*
G01*
X172106807Y-110894230D02*
X172106811Y-110894231D01*
X176183198Y-86479998D02*
X176383198Y-86479998D01*
X176775928Y-126610000D02*
G75*
G02*
X176150900Y-125985000I-28J625000D01*
G01*
X175150928Y-125985000D02*
X175150928Y-125560000D01*
X179736802Y-74675000D02*
X181060877Y-74675000D01*
X176315903Y-76848411D02*
G75*
G02*
X176315947Y-77095946I-123603J-123789D01*
G01*
X170396215Y-116414150D02*
G75*
G02*
X170982065Y-115828215I585885J50D01*
G01*
X170085797Y-73289199D02*
X170170652Y-73204347D01*
X175182065Y-115828300D02*
G75*
G02*
X175767900Y-116414150I35J-585800D01*
G01*
X171364348Y-112202378D02*
X171664867Y-112502897D01*
X176944620Y-106374619D02*
X177033579Y-106285660D01*
X167375000Y-77000000D02*
G75*
G02*
X168082110Y-75292896I2414200J0D01*
G01*
X173383198Y-85254999D02*
G75*
G02*
X173558201Y-85430000I2J-175001D01*
G01*
X168884062Y-117885850D02*
X170182065Y-117885850D01*
X172170000Y-77850000D02*
X172370000Y-77850000D01*
X170798662Y-111884181D02*
G75*
G02*
X171682544Y-111884181I441941J-441941D01*
G01*
X179600928Y-124935000D02*
X179600928Y-124335000D01*
X162605000Y-126151384D02*
X162385000Y-126151384D01*
X172519193Y-69428318D02*
G75*
G02*
X172788782Y-69428293I134807J-134782D01*
G01*
X169545001Y-78250000D02*
G75*
G02*
X169370000Y-78425001I-175001J0D01*
G01*
X171767915Y-116414150D02*
X171767915Y-117300000D01*
X177150928Y-125985000D02*
G75*
G02*
X176975928Y-126160028I-175028J0D01*
G01*
X177008197Y-85430000D02*
G75*
G02*
X177183198Y-85254997I175003J0D01*
G01*
X173202826Y-109798212D02*
X173202827Y-109798215D01*
X173361926Y-109320919D02*
X172937662Y-108896655D01*
X168376802Y-135445000D02*
X184830000Y-135445000D01*
X172512551Y-70566330D02*
X172229708Y-70283487D01*
X170599400Y-92241791D02*
G75*
G02*
X170259994Y-92241785I-169700J169691D01*
G01*
X180260000Y-104775000D02*
X179753894Y-104775000D01*
X172813917Y-110187123D02*
X172973015Y-110346222D01*
X171545001Y-78250000D02*
X171545001Y-78025001D01*
X179643622Y-84630000D02*
X179643622Y-84505000D01*
X170994999Y-78250000D02*
X170994999Y-78874999D01*
X179150928Y-124935000D02*
X179150928Y-124335000D01*
X178150928Y-124335000D02*
X178150928Y-124935000D01*
D12*
X167400000Y-77207600D02*
X167375001Y-77182601D01*
D10*
X178600928Y-124935000D02*
X178600928Y-125385000D01*
X176767915Y-118985850D02*
X176767915Y-118100000D01*
X180635000Y-103675000D02*
G75*
G02*
X181260000Y-103050000I625000J0D01*
G01*
X173098153Y-71704338D02*
X173239574Y-71562916D01*
X171522601Y-71260157D02*
G75*
G02*
X172384407Y-71260157I430903J-430903D01*
G01*
X170994999Y-78025001D02*
X170994999Y-78250000D01*
X177588695Y-75823110D02*
X177730117Y-75681687D01*
X170767915Y-117300000D02*
G75*
G02*
X170182065Y-117885915I-585915J0D01*
G01*
X172943453Y-70997230D02*
G75*
G02*
X172943441Y-71266782I-134753J-134770D01*
G01*
X167632107Y-75150651D02*
X171522601Y-71260157D01*
X181975928Y-124935000D02*
X183290000Y-124935000D01*
X176150928Y-124335000D02*
X176150928Y-124935000D01*
X173982065Y-119200000D02*
G75*
G02*
X173768000Y-118985850I135J214200D01*
G01*
X175600928Y-125560000D02*
X175600928Y-124935000D01*
X171205251Y-110629066D02*
G75*
G02*
X171205226Y-109745159I441949J441966D01*
G01*
X175606994Y-107075853D02*
X175748414Y-106934431D01*
X170613541Y-92227647D02*
G75*
G02*
X170952907Y-92227694I169659J-169753D01*
G01*
X171170000Y-79899998D02*
X171370000Y-79899998D01*
X172495722Y-110505322D02*
X172495720Y-110505320D01*
X181775928Y-125385000D02*
X181975928Y-125385000D01*
X173396215Y-116414150D02*
X173396215Y-117514150D01*
X180268622Y-83880000D02*
X180468622Y-83880000D01*
X182093622Y-85430000D02*
G75*
G02*
X182268622Y-85255022I174978J0D01*
G01*
X168147291Y-115171949D02*
X171116860Y-112202379D01*
X175982065Y-119571700D02*
X176182065Y-119571700D01*
X174935238Y-108065800D02*
X174935241Y-108065801D01*
X171994999Y-79274999D02*
G75*
G02*
X171370000Y-79899999I-624999J-1D01*
G01*
X176396215Y-118985850D02*
G75*
G02*
X176182065Y-119200015I-214115J-50D01*
G01*
X174775928Y-126610000D02*
G75*
G02*
X174150900Y-125985000I-28J625000D01*
G01*
X173383198Y-84805000D02*
X173383198Y-84805001D01*
X174396215Y-116414150D02*
G75*
G02*
X174982065Y-115828215I585885J50D01*
G01*
X174652398Y-107782958D02*
X174351877Y-107482440D01*
X179600928Y-124335000D02*
G75*
G02*
X179775928Y-124160028I174972J0D01*
G01*
X179975928Y-123710000D02*
G75*
G02*
X180600900Y-124335000I-28J-625000D01*
G01*
D12*
X167400000Y-82821001D02*
X167375000Y-82846001D01*
D10*
X171545001Y-79274999D02*
X171545001Y-78874999D01*
X180093622Y-84630000D02*
G75*
G02*
X179468622Y-85255022I-625022J0D01*
G01*
X178150928Y-124935000D02*
X178150928Y-125385000D01*
X178775928Y-126160000D02*
G75*
G02*
X178600900Y-125985000I-28J175000D01*
G01*
X172802032Y-71408217D02*
X172943453Y-71266795D01*
X179600928Y-125385000D02*
X179600928Y-124935000D01*
X173767915Y-116414150D02*
X173767915Y-117514150D01*
X174982065Y-115828300D02*
X175182065Y-115828300D01*
X181085000Y-103675000D02*
G75*
G02*
X181260000Y-103500000I175000J0D01*
G01*
X175925191Y-107394049D02*
G75*
G02*
X175041309Y-107394049I-441941J441937D01*
G01*
X173098153Y-71704338D02*
G75*
G02*
X172236347Y-71704338I-430903J430903D01*
G01*
X173680121Y-109639113D02*
X173521023Y-109480015D01*
X175396215Y-118100000D02*
X175396215Y-118985850D01*
X172370000Y-77850000D02*
G75*
G02*
X172545000Y-78025001I0J-175000D01*
G01*
X170170652Y-73204347D02*
X170603249Y-72771751D01*
X169322124Y-74052876D02*
G75*
G02*
X169661535Y-74052875I169706J-169707D01*
G01*
X173361924Y-109957310D02*
X173202826Y-109798212D01*
X174008197Y-85430000D02*
X174008197Y-85854999D01*
X170545001Y-78250000D02*
X170545001Y-78874999D01*
X171396215Y-117885850D02*
X171396215Y-118985850D01*
X174228132Y-108772908D02*
X174387230Y-108932007D01*
X172378094Y-125385000D02*
G75*
G02*
X169817419Y-124324352I6J3621400D01*
G01*
X177588695Y-75823110D02*
G75*
G02*
X177341207Y-75823110I-123744J123746D01*
G01*
X173644768Y-110770486D02*
X173786189Y-110629064D01*
X168563198Y-134995000D02*
X184830000Y-134995000D01*
X172619466Y-109214851D02*
G75*
G02*
X172619456Y-108330959I441934J441951D01*
G01*
X172767915Y-118985850D02*
G75*
G02*
X172182065Y-119571715I-585815J-50D01*
G01*
X180775928Y-126160000D02*
G75*
G02*
X180600900Y-125985000I-28J175000D01*
G01*
X179976415Y-75125000D02*
X181060877Y-75125000D01*
X181268622Y-86180000D02*
G75*
G02*
X180643600Y-85555000I-22J625000D01*
G01*
X168617400Y-80925001D02*
X168592400Y-80900001D01*
X177775928Y-123710000D02*
X177975928Y-123710000D01*
X162145000Y-122674240D02*
G75*
G02*
X163205665Y-120113584I3621200J40D01*
G01*
X181268622Y-85730000D02*
G75*
G02*
X181093600Y-85555000I-22J175000D01*
G01*
X175980026Y-75876143D02*
G75*
G02*
X175980027Y-75628656I123774J123743D01*
G01*
X178048313Y-75999883D02*
X178216091Y-75832106D01*
X170982065Y-115828300D02*
X171182065Y-115828300D01*
X174396215Y-117885850D02*
X174396215Y-117514150D01*
X172371973Y-111795789D02*
G75*
G02*
X172371940Y-112043245I-123873J-123711D01*
G01*
X172229708Y-70283487D02*
X172081648Y-70135427D01*
X182268622Y-84805000D02*
X182468622Y-84805000D01*
X174600928Y-125560000D02*
X174600928Y-125985000D01*
X175975928Y-124160000D02*
G75*
G02*
X176150900Y-124335000I-28J-175000D01*
G01*
X174396215Y-117514150D02*
X174396215Y-116414150D01*
X175008197Y-85854999D02*
G75*
G02*
X174383198Y-86479997I-624997J-1D01*
G01*
X172994999Y-78025001D02*
X172994999Y-78250000D01*
X172081648Y-70135427D02*
G75*
G02*
X172081626Y-69273595I430952J430927D01*
G01*
X173909937Y-109091107D02*
X173909935Y-109091105D01*
X174767915Y-116414150D02*
G75*
G02*
X174982065Y-116199915I214185J50D01*
G01*
X175558199Y-84805001D02*
X175558199Y-85430000D01*
X181093622Y-84505000D02*
X181093622Y-84630000D01*
X174199236Y-68583522D02*
X176047288Y-66735470D01*
X175518601Y-108649163D02*
X175094336Y-108224898D01*
X184640000Y-104775000D02*
X182260000Y-104775000D01*
X172767915Y-118985850D02*
X172767915Y-117885850D01*
X181150928Y-125985000D02*
X181150928Y-125560000D01*
X173940044Y-69434958D02*
X174495357Y-68879643D01*
X174558199Y-84205001D02*
G75*
G02*
X175183198Y-83579999I625001J1D01*
G01*
X181150928Y-125560000D02*
G75*
G02*
X181775928Y-124935028I624972J0D01*
G01*
X177150928Y-124935000D02*
X177150928Y-124335000D01*
X172619466Y-108330969D02*
X172760889Y-108189547D01*
X175094336Y-108224898D02*
X174935238Y-108065800D01*
X182093622Y-85555000D02*
G75*
G02*
X181468622Y-86180022I-625022J0D01*
G01*
X174935241Y-108065801D02*
X174811495Y-107942058D01*
X174558199Y-84805001D02*
X174558199Y-84205001D01*
X177182065Y-117514150D02*
X178353018Y-117514150D01*
X162605000Y-125551384D02*
G75*
G02*
X162845016Y-125791384I0J-240016D01*
G01*
X178100539Y-85255000D02*
X179468622Y-85255000D01*
X177600928Y-124935000D02*
X177600928Y-124335000D01*
X174767915Y-117885850D02*
X174767915Y-117514150D01*
X172973015Y-110346222D02*
X173397279Y-110770486D01*
X179150928Y-125985000D02*
X179150928Y-125385000D01*
X172396215Y-118985850D02*
X172396215Y-117885850D01*
X168846001Y-78874999D02*
X169370000Y-78874999D01*
X183290000Y-125385000D02*
X184530000Y-125385000D01*
X180643622Y-84630000D02*
X180643622Y-85430000D01*
X177150928Y-124335000D02*
G75*
G02*
X177775928Y-123710028I624972J0D01*
G01*
X175767915Y-117514150D02*
X175767915Y-118100000D01*
X174150928Y-125560000D02*
X174150928Y-125985000D01*
X182468622Y-85255000D02*
X183147279Y-85255000D01*
X175008197Y-84205001D02*
G75*
G02*
X175183198Y-84029997I175003J1D01*
G01*
X181462357Y-115904809D02*
G75*
G02*
X184023018Y-114844170I2560643J-2560691D01*
G01*
X174767915Y-118985850D02*
X174767915Y-117885850D01*
X174069036Y-108613812D02*
X174228134Y-108772910D01*
X175980026Y-75628655D02*
X176121449Y-75487233D01*
X180643622Y-85430000D02*
X180643622Y-85555000D01*
X182260000Y-104775000D02*
G75*
G02*
X182085000Y-104600000I0J175000D01*
G01*
X181600928Y-125985000D02*
G75*
G02*
X180975928Y-126610028I-625028J0D01*
G01*
X171037805Y-92651912D02*
X171023661Y-92666053D01*
X176066611Y-107252628D02*
X176944620Y-106374619D01*
X172389650Y-111177073D02*
X172106807Y-110894230D01*
X182085000Y-104600000D02*
X182085000Y-103675000D01*
X173521026Y-109480016D02*
X173361926Y-109320919D01*
X181235877Y-74500000D02*
G75*
G02*
X181060877Y-74674977I-174977J0D01*
G01*
X176600928Y-124935000D02*
X176600928Y-125385000D01*
X174183198Y-86030000D02*
G75*
G02*
X174008200Y-85854999I2J175000D01*
G01*
X174558199Y-85854999D02*
X174558199Y-85430000D01*
X172943453Y-70997230D02*
X172795392Y-70849169D01*
X180775928Y-126610000D02*
G75*
G02*
X180150900Y-125985000I-28J625000D01*
G01*
X172377770Y-69569740D02*
X172519193Y-69428318D01*
X170170000Y-77400002D02*
X170370000Y-77400002D01*
X170170000Y-77850000D02*
X170370000Y-77850000D01*
X169994999Y-78025001D02*
G75*
G02*
X170170000Y-77849999I175001J1D01*
G01*
X171545001Y-78874999D02*
X171545001Y-78250000D01*
X173982065Y-119571700D02*
G75*
G02*
X173396300Y-118985850I135J585900D01*
G01*
X173982065Y-119571700D02*
X174182065Y-119571700D01*
X181268622Y-85730000D02*
X181468622Y-85730000D01*
X176183198Y-86030000D02*
X176383198Y-86030000D01*
X173986802Y-78874999D02*
X174173199Y-78874999D01*
X170994999Y-78874999D02*
X170994999Y-79274999D01*
X172396215Y-117514150D02*
X172396215Y-116414150D01*
X172654821Y-110028027D02*
X172813919Y-110187125D01*
X182860877Y-74675000D02*
G75*
G02*
X182685900Y-74500000I23J175000D01*
G01*
X172384407Y-71260157D02*
X172532467Y-71408217D01*
X162845000Y-125791384D02*
X162845000Y-125911384D01*
X176792202Y-105890641D02*
X176847183Y-105835660D01*
X180460000Y-104775000D02*
X180260000Y-104775000D01*
X171023662Y-93005465D02*
G75*
G02*
X171023702Y-92666094I169838J169665D01*
G01*
D12*
X166900001Y-82592400D02*
X166900001Y-82821001D01*
D10*
X171116859Y-112202378D02*
G75*
G02*
X171364348Y-112202377I123745J-123747D01*
G01*
X179150928Y-125385000D02*
X179150928Y-124935000D01*
X175183198Y-84030000D02*
X175383198Y-84030000D01*
X174033681Y-106916754D02*
X174175104Y-106775332D01*
X180635000Y-104600000D02*
G75*
G02*
X180460000Y-104775000I-175000J0D01*
G01*
X177600928Y-125985000D02*
G75*
G02*
X176975928Y-126610028I-625028J0D01*
G01*
X173182065Y-116200000D02*
G75*
G02*
X173396200Y-116414150I35J-214100D01*
G01*
X175396215Y-117514150D02*
X175396215Y-118100000D01*
X161695000Y-122487844D02*
G75*
G02*
X162755643Y-119927166I3621300J44D01*
G01*
X176687133Y-75169036D02*
X177341207Y-75823110D01*
X170135295Y-73678108D02*
G75*
G02*
X170135281Y-74017506I-169695J-169692D01*
G01*
X169116802Y-81375000D02*
X168846001Y-81375000D01*
X174706802Y-95325000D02*
X184800000Y-95325000D01*
X181460000Y-103500000D02*
X181260000Y-103500000D01*
X175396215Y-116414150D02*
X175396215Y-117514150D01*
X169046321Y-91664518D02*
G75*
G02*
X166924961Y-86543199I5121179J5121318D01*
G01*
X178029695Y-75382106D02*
G75*
G02*
X179736802Y-74674997I1707105J-1707094D01*
G01*
X171767915Y-117885850D02*
X171767915Y-118985850D01*
X173643923Y-69138837D02*
X174199236Y-68583522D01*
X181067641Y-116825188D02*
G75*
G02*
X178506982Y-117885868I-2560741J2560788D01*
G01*
X181860877Y-73450000D02*
X182060877Y-73450000D01*
X181389151Y-64985850D02*
X185000000Y-64985850D01*
X181168609Y-64614150D02*
X185000000Y-64614150D01*
X180093622Y-84630000D02*
X180093622Y-84505000D01*
X173767915Y-117885850D02*
X173767915Y-118985850D01*
X175008197Y-84805001D02*
X175008197Y-84205001D01*
X173502504Y-69280259D02*
G75*
G02*
X173232917Y-69280281I-134804J134659D01*
G01*
X170767915Y-117300000D02*
X170767915Y-116414150D01*
X182093622Y-85555000D02*
X182093622Y-85430000D01*
X171947711Y-110735134D02*
X171523447Y-110310870D01*
X170370000Y-77400002D02*
G75*
G02*
X170994998Y-78025001I0J-624998D01*
G01*
X162845000Y-125911384D02*
G75*
G02*
X162605000Y-126151400I-240000J-16D01*
G01*
X180913678Y-116453489D02*
G75*
G02*
X178353017Y-117514153I-2560678J2560689D01*
G01*
X170396215Y-117300000D02*
G75*
G02*
X170182065Y-117514215I-214215J0D01*
G01*
X162755660Y-131323857D02*
G75*
G02*
X161694996Y-128763198I2560640J2560657D01*
G01*
X177600928Y-125985000D02*
X177600928Y-125385000D01*
X177600928Y-124335000D02*
G75*
G02*
X177775928Y-124160028I174972J0D01*
G01*
X171788610Y-111212426D02*
X171788612Y-111212430D01*
X176600928Y-125385000D02*
X176600928Y-125985000D01*
X176775928Y-126160000D02*
G75*
G02*
X176600900Y-125985000I-28J175000D01*
G01*
X175150928Y-125985000D02*
G75*
G02*
X174975928Y-126160028I-175028J0D01*
G01*
X174493299Y-107093530D02*
G75*
G02*
X174740745Y-107093573I123701J-123770D01*
G01*
X173750839Y-108932009D02*
X173909937Y-109091107D01*
X171023662Y-93005465D02*
X171108516Y-93090318D01*
X179975928Y-124160000D02*
G75*
G02*
X180150900Y-124335000I-28J-175000D01*
G01*
D12*
X168592400Y-81400000D02*
X168821001Y-81400000D01*
D10*
X174617041Y-108383997D02*
X174617042Y-108384000D01*
X172336624Y-110346224D02*
X172495722Y-110505322D01*
X175695901Y-77715900D02*
X176315901Y-77095900D01*
X167375000Y-86356802D02*
X167375000Y-82846001D01*
X173232690Y-84654492D02*
X173383198Y-84805000D01*
X182235877Y-74075000D02*
X182235877Y-74500000D01*
X175182065Y-116200000D02*
G75*
G02*
X175396200Y-116414150I35J-214100D01*
G01*
X179600928Y-125985000D02*
G75*
G02*
X178975928Y-126610028I-625028J0D01*
G01*
X169817433Y-124324339D02*
X165354218Y-119861124D01*
X175982065Y-119200000D02*
G75*
G02*
X175768000Y-118985850I135J214200D01*
G01*
X170545001Y-78874999D02*
X170545001Y-79274999D01*
X167375001Y-77000000D02*
X167375001Y-77182601D01*
X172495720Y-110505320D02*
X172654819Y-110664418D01*
X171682544Y-111884181D02*
X171983063Y-112184700D01*
X176183198Y-86030000D02*
G75*
G02*
X176008200Y-85854999I2J175000D01*
G01*
X181775928Y-124935000D02*
X181975928Y-124935000D01*
X178600928Y-125385000D02*
X178600928Y-125985000D01*
X172230556Y-109603762D02*
X172654821Y-110028027D01*
X176150928Y-125385000D02*
X176150928Y-125985000D01*
X181685877Y-74500000D02*
X181685877Y-74075000D01*
X172230552Y-112184700D02*
X172371973Y-112043278D01*
X174183198Y-86479998D02*
X174383198Y-86479998D01*
X176315903Y-76848411D02*
X175661830Y-76194338D01*
X183147279Y-85255000D02*
X185010000Y-85255000D01*
X173196802Y-85255000D02*
X173383198Y-85254999D01*
X179775928Y-123710000D02*
X179975928Y-123710000D01*
X181085000Y-103675000D02*
X181085000Y-104600000D01*
X175803251Y-75169036D02*
G75*
G02*
X176687133Y-75169036I441941J-441937D01*
G01*
D11*
X147440660Y-92289339D02*
G75*
G02*
X144880000Y-93350005I-2560660J2560639D01*
G01*
D10*
X170982065Y-116200000D02*
X171182065Y-116200000D01*
X175693908Y-77717893D02*
X175695901Y-77715900D01*
X171982065Y-119571700D02*
G75*
G02*
X171396300Y-118985850I135J585900D01*
G01*
X174228134Y-108772910D02*
X174228132Y-108772908D01*
X175661830Y-76194338D02*
G75*
G02*
X175661833Y-75310459I441970J441938D01*
G01*
X175383198Y-83580002D02*
G75*
G02*
X176008198Y-84205001I2J-624998D01*
G01*
X180468622Y-84330000D02*
G75*
G02*
X180643600Y-84505000I-22J-175000D01*
G01*
X173975928Y-125385000D02*
G75*
G02*
X174150900Y-125560000I-28J-175000D01*
G01*
X171982065Y-119200000D02*
X172182065Y-119200000D01*
X177775928Y-124160000D02*
X177975928Y-124160000D01*
X173962965Y-111088682D02*
G75*
G02*
X173079083Y-111088682I-441941J441941D01*
G01*
X171982065Y-119571700D02*
X172182065Y-119571700D01*
X168147291Y-117032695D02*
X168147291Y-117123419D01*
X175600928Y-124935000D02*
X175600928Y-124335000D01*
X173091513Y-70553049D02*
X172808670Y-70270206D01*
X170050443Y-74102373D02*
X170135295Y-74017520D01*
X175150928Y-124935000D02*
X175150928Y-124335000D01*
X175377180Y-109674467D02*
X175518601Y-109533045D01*
X171994999Y-78874999D02*
X171994999Y-78250000D01*
X170050443Y-74102373D02*
G75*
G02*
X169711032Y-74102373I-169705J169707D01*
G01*
X171170000Y-79450000D02*
X171370000Y-79450000D01*
X171170000Y-79899998D02*
G75*
G02*
X170545002Y-79274999I0J624998D01*
G01*
X171767915Y-117300000D02*
X171767915Y-117885850D01*
X176626422Y-106056421D02*
X176792202Y-105890641D01*
X171182065Y-115828300D02*
G75*
G02*
X171767900Y-116414150I35J-585800D01*
G01*
X171182065Y-116200000D02*
G75*
G02*
X171396200Y-116414150I35J-214100D01*
G01*
X174175104Y-106775332D02*
G75*
G02*
X175058986Y-106775332I441941J-441944D01*
G01*
X175775928Y-123710000D02*
X175975928Y-123710000D01*
X177975928Y-124160000D02*
G75*
G02*
X178150900Y-124335000I-28J-175000D01*
G01*
X182685877Y-74075000D02*
X182685877Y-74500000D01*
X172788757Y-69428319D02*
X172936818Y-69576380D01*
X172396215Y-118985850D02*
G75*
G02*
X172182065Y-119200015I-214115J-50D01*
G01*
X175518601Y-108649163D02*
G75*
G02*
X175518597Y-109533041I-441901J-441937D01*
G01*
X176121449Y-75487233D02*
G75*
G02*
X176368944Y-75487226I123751J-123767D01*
G01*
X172690170Y-111477593D02*
X172389650Y-111177073D01*
X181600928Y-125985000D02*
X181600928Y-125560000D01*
X177600928Y-125385000D02*
X177600928Y-124935000D01*
X181460000Y-103500000D02*
G75*
G02*
X181635000Y-103675000I0J-175000D01*
G01*
X166002537Y-133934339D02*
X163205660Y-131137462D01*
X162145000Y-126391384D02*
G75*
G02*
X162385000Y-126151400I240000J-16D01*
G01*
X173786189Y-110381575D02*
G75*
G02*
X173786170Y-110629045I-123789J-123725D01*
G01*
X183060877Y-75125000D02*
X184053217Y-75125000D01*
X172525831Y-69987364D02*
X172377771Y-69839304D01*
X172223071Y-69132199D02*
G75*
G02*
X173084877Y-69132199I430903J-430899D01*
G01*
X176767915Y-118100000D02*
G75*
G02*
X176982065Y-117885815I214185J0D01*
G01*
X173170000Y-78874999D02*
G75*
G02*
X172545001Y-78250000I0J624999D01*
G01*
X180150928Y-125560000D02*
X180150928Y-125985000D01*
X175008197Y-85430000D02*
X175008197Y-84805001D01*
X174811495Y-107942058D02*
X174652398Y-107782958D01*
X178775928Y-126610000D02*
G75*
G02*
X178150900Y-125985000I-28J625000D01*
G01*
X175200404Y-108967360D02*
X174776139Y-108543095D01*
X175880305Y-78167892D02*
G75*
G02*
X174173199Y-78875002I-1707105J1707092D01*
G01*
X173370000Y-78874999D02*
X173986802Y-78874999D01*
X175377180Y-109674467D02*
G75*
G02*
X174493298Y-109674467I-441941J441941D01*
G01*
X175606994Y-107075853D02*
G75*
G02*
X175359555Y-107075803I-123694J123853D01*
G01*
X174617042Y-108384000D02*
X174493299Y-108260254D01*
X173558199Y-85430000D02*
X173558199Y-85854999D01*
X176775928Y-126160000D02*
X176975928Y-126160000D01*
X172767915Y-117885850D02*
X172767915Y-117514150D01*
X172690170Y-111477593D02*
G75*
G02*
X172690136Y-112361441I-442070J-441907D01*
G01*
X180775928Y-126160000D02*
X180975928Y-126160000D01*
X174387230Y-108932007D02*
X174811494Y-109356271D01*
X178775928Y-126610000D02*
X178975928Y-126610000D01*
X168846001Y-78425000D02*
X169370000Y-78425000D01*
X161695000Y-128763198D02*
X161695000Y-122487844D01*
X172982065Y-115828300D02*
X173182065Y-115828300D01*
X172795392Y-70849169D02*
X172512549Y-70566326D01*
X174334199Y-108101157D02*
X174033681Y-107800636D01*
X174740789Y-107093529D02*
X175041309Y-107394049D01*
X180260000Y-105225000D02*
X179753894Y-105225000D01*
X177383198Y-84805001D02*
X178100539Y-84805000D01*
X172937662Y-108896655D02*
G75*
G02*
X172937652Y-108649154I123738J123755D01*
G01*
X184053217Y-74675000D02*
X184830000Y-74675000D01*
X176008197Y-84205001D02*
X176008197Y-84805001D01*
X162145000Y-122674240D02*
X162145000Y-125311384D01*
X173239574Y-70701110D02*
X173091513Y-70553049D01*
X181460000Y-103050000D02*
G75*
G02*
X182085000Y-103675000I0J-625000D01*
G01*
X162145000Y-126391384D02*
X162145000Y-126511384D01*
X172396215Y-116414150D02*
G75*
G02*
X172982065Y-115828215I585885J50D01*
G01*
X176767915Y-118985850D02*
G75*
G02*
X176182065Y-119571715I-585815J-50D01*
G01*
X170085797Y-73628610D02*
G75*
G02*
X170085792Y-73289194I169703J169710D01*
G01*
X170135295Y-73678108D02*
X170085797Y-73628610D01*
X182060877Y-73450000D02*
G75*
G02*
X182685900Y-74075000I23J-625000D01*
G01*
X179150928Y-124335000D02*
G75*
G02*
X179775928Y-123710028I624972J0D01*
G01*
X174495357Y-68879643D02*
X176267830Y-67107170D01*
X181685877Y-74500000D02*
G75*
G02*
X181060877Y-75124977I-624977J0D01*
G01*
X181600928Y-125560000D02*
G75*
G02*
X181775928Y-125385028I174972J0D01*
G01*
X172230552Y-112184700D02*
G75*
G02*
X171983063Y-112184700I-123744J123747D01*
G01*
X172767915Y-117514150D02*
X172767915Y-116414150D01*
X173798624Y-69576380D02*
G75*
G02*
X172936818Y-69576380I-430903J430906D01*
G01*
X169545001Y-78250000D02*
X169545001Y-78025001D01*
X174558199Y-85430000D02*
X174558199Y-84805001D01*
X174767915Y-117514150D02*
X174767915Y-116414150D01*
X180600928Y-124935000D02*
X180600928Y-125560000D01*
X173786189Y-110381575D02*
X173361924Y-109957310D01*
X173170000Y-78425001D02*
X173370000Y-78425001D01*
X176267829Y-67107169D02*
G75*
G02*
X181389151Y-64985887I5121271J-5121331D01*
G01*
X181460000Y-103050000D02*
X181260000Y-103050000D01*
X173043730Y-109639115D02*
X172619466Y-109214851D01*
X175600928Y-125985000D02*
X175600928Y-125560000D01*
X170599400Y-92241791D02*
X170613541Y-92227647D01*
X176150928Y-124935000D02*
X176150928Y-125385000D01*
X166925000Y-76857758D02*
G75*
G02*
X167632131Y-75150675I2414200J-42D01*
G01*
X173383198Y-84805001D02*
G75*
G02*
X174008199Y-85430000I2J-624999D01*
G01*
X173202827Y-109798215D02*
X173043730Y-109639115D01*
X171170000Y-79450000D02*
G75*
G02*
X170995000Y-79274999I0J175000D01*
G01*
X171523447Y-110310870D02*
G75*
G02*
X171523422Y-110063355I123753J123770D01*
G01*
X179753894Y-104775000D02*
X179407844Y-104775000D01*
X174558199Y-85854999D02*
G75*
G02*
X174383198Y-86029999I-174999J-1D01*
G01*
X174767915Y-118985850D02*
G75*
G02*
X174182065Y-119571715I-585815J-50D01*
G01*
X178353018Y-117885850D02*
X178506982Y-117885850D01*
X181235877Y-74075000D02*
G75*
G02*
X181860877Y-73449977I625023J0D01*
G01*
X173084877Y-69132199D02*
X173232938Y-69280260D01*
X175600928Y-124335000D02*
G75*
G02*
X175775928Y-124160028I174972J0D01*
G01*
D13*
%TO.C,U4*%
G36*
X162050000Y-140844999D02*
G01*
X162050000Y-141719999D01*
X162000000Y-141769999D01*
X160399998Y-141769999D01*
X160349998Y-141719999D01*
X160349998Y-140844999D01*
X160399997Y-140795000D01*
X162000001Y-140795000D01*
X162050000Y-140844999D01*
G37*
%TO.C,U2*%
G36*
X116712600Y-131863500D02*
G01*
X116336500Y-131863500D01*
X116336500Y-128736500D01*
X116712600Y-128736500D01*
X116712600Y-131863500D01*
G37*
G36*
X119063500Y-129312600D02*
G01*
X116336500Y-129312600D01*
X116336500Y-128736500D01*
X119063500Y-128736500D01*
X119063500Y-129312600D01*
G37*
G36*
X119063500Y-130100000D02*
G01*
X116336500Y-130100000D01*
X116336500Y-129712600D01*
X119063500Y-129712600D01*
X119063500Y-130100000D01*
G37*
G36*
X119063500Y-130887400D02*
G01*
X116336500Y-130887400D01*
X116336500Y-130500000D01*
X119063500Y-130500000D01*
X119063500Y-130887400D01*
G37*
G36*
X119063500Y-131863500D02*
G01*
X116336500Y-131863500D01*
X116336500Y-131287400D01*
X119063500Y-131287400D01*
X119063500Y-131863500D01*
G37*
G36*
X117500000Y-131863500D02*
G01*
X117112600Y-131863500D01*
X117112600Y-128736500D01*
X117500000Y-128736500D01*
X117500000Y-131863500D01*
G37*
G36*
X118287400Y-131863500D02*
G01*
X117900000Y-131863500D01*
X117900000Y-128736500D01*
X118287400Y-128736500D01*
X118287400Y-131863500D01*
G37*
G36*
X119063500Y-131863500D02*
G01*
X118687400Y-131863500D01*
X118687400Y-128736500D01*
X119063500Y-128736500D01*
X119063500Y-131863500D01*
G37*
%TD*%
D14*
%TO.C,R13*%
X116080000Y-134190000D03*
X112980000Y-134190000D03*
%TD*%
D15*
%TO.C,C13*%
X123080000Y-139922500D03*
X123080000Y-138197500D03*
%TD*%
D16*
%TO.C,C3*%
X132817500Y-94390000D03*
X134542500Y-94390000D03*
%TD*%
D17*
%TO.C,U4*%
X162150000Y-139920000D03*
X161199999Y-139920000D03*
X160249998Y-139920000D03*
X160249998Y-142520000D03*
X162150000Y-142520000D03*
D18*
X160100000Y-141220000D03*
X161199999Y-141220000D03*
X162299998Y-141220000D03*
%TD*%
D19*
%TO.C,J8*%
X115410000Y-144120000D03*
X121190000Y-144120000D03*
D20*
X115100000Y-143000000D03*
X115900000Y-143000000D03*
D21*
X117050000Y-143000000D03*
X118050000Y-143000000D03*
X118550000Y-143000000D03*
X119550000Y-143000000D03*
D20*
X120700000Y-143000000D03*
X121500000Y-143000000D03*
X121500000Y-143000000D03*
X120700000Y-143000000D03*
D21*
X120050000Y-143000000D03*
X119050000Y-143000000D03*
X117550000Y-143000000D03*
X116550000Y-143000000D03*
D20*
X115900000Y-143000000D03*
X115100000Y-143000000D03*
D22*
X113980000Y-143600000D03*
D23*
X113980000Y-147800000D03*
D22*
X122620000Y-143600000D03*
D23*
X122620000Y-147800000D03*
%TD*%
D24*
%TO.C,R15*%
X166807500Y-144390000D03*
X168632500Y-144390000D03*
%TD*%
D25*
%TO.C,D5*%
X164834999Y-144410000D03*
X163085001Y-144410000D03*
%TD*%
D16*
%TO.C,C30*%
X176880000Y-112830000D03*
X178605000Y-112830000D03*
%TD*%
D26*
%TO.C,D2*%
X125840000Y-140642500D03*
X125840000Y-138892500D03*
%TD*%
D27*
%TO.C,L3*%
X149940000Y-135340000D03*
D28*
X149940000Y-131440000D03*
%TD*%
D29*
%TO.C,H1*%
X195000000Y-55000000D03*
%TD*%
D30*
%TO.C,J1*%
X156805000Y-52000000D03*
D31*
X159345000Y-52000000D03*
X161885000Y-52000000D03*
X164425000Y-52000000D03*
%TD*%
D24*
%TO.C,R16*%
X139690000Y-127440000D03*
X141515000Y-127440000D03*
%TD*%
D32*
%TO.C,D4*%
X137485000Y-141090000D03*
X137115000Y-141090000D03*
%TD*%
D33*
%TO.C,R11*%
X124170000Y-145002500D03*
X124170000Y-143177500D03*
%TD*%
D34*
%TO.C,C24*%
X125502501Y-135250000D03*
X123777499Y-135250000D03*
%TD*%
D15*
%TO.C,C37*%
X162700000Y-109262500D03*
X162700000Y-107537500D03*
%TD*%
%TO.C,C27*%
X156560000Y-75890000D03*
X156560000Y-74164998D03*
%TD*%
D35*
%TO.C,R9*%
X113540000Y-126269999D03*
X113540000Y-129370001D03*
%TD*%
D36*
%TO.C,C35*%
X165080120Y-122260120D03*
X166299880Y-123479880D03*
%TD*%
D37*
%TO.C,C32*%
X159319880Y-117760120D03*
X158100120Y-118979880D03*
%TD*%
D38*
%TO.C,J15*%
X103650000Y-90450000D03*
X103650000Y-101880000D03*
D39*
X110000000Y-91720000D03*
D40*
X112540000Y-92990000D03*
X110000000Y-94260000D03*
X112540000Y-95530000D03*
X110000000Y-96800000D03*
X112540000Y-98070000D03*
X110000000Y-99340000D03*
X112540000Y-100610000D03*
%TD*%
D15*
%TO.C,C7*%
X158530000Y-75842501D03*
X158530000Y-74117499D03*
%TD*%
D41*
%TO.C,J3*%
X103770000Y-114180000D03*
D42*
X103770000Y-111380000D03*
D43*
X103770000Y-116980000D03*
%TD*%
D34*
%TO.C,C12*%
X111822501Y-130800000D03*
X110097499Y-130800000D03*
%TD*%
D30*
%TO.C,J7*%
X185800000Y-52300000D03*
%TD*%
D15*
%TO.C,C20*%
X145660000Y-135312500D03*
X145660000Y-133587500D03*
%TD*%
D34*
%TO.C,C18*%
X161220000Y-144300000D03*
X159494998Y-144300000D03*
%TD*%
D37*
%TO.C,C33*%
X156519880Y-115000120D03*
X155300120Y-116219880D03*
%TD*%
D44*
%TO.C,D6*%
X139835000Y-129230000D03*
X141585000Y-129230000D03*
%TD*%
D36*
%TO.C,C9*%
X169640240Y-84870240D03*
X170860000Y-86090000D03*
%TD*%
D44*
%TO.C,D7*%
X121380000Y-133290000D03*
X123130000Y-133290000D03*
%TD*%
D45*
%TO.C,U3*%
X117352500Y-139110000D03*
X118302500Y-139110000D03*
X119252500Y-139110000D03*
X119252500Y-136410000D03*
X118302500Y-136410000D03*
X117352500Y-136410000D03*
%TD*%
D46*
%TO.C,U2*%
X115747601Y-129050000D03*
X115747601Y-129549999D03*
X115747601Y-130050000D03*
X115747601Y-130550000D03*
X115747601Y-131050001D03*
X115747601Y-131550000D03*
X119652399Y-131550000D03*
X119652399Y-131050001D03*
X119652399Y-130550000D03*
X119652399Y-130050000D03*
X119652399Y-129549999D03*
X119652399Y-129050000D03*
%TD*%
D15*
%TO.C,C16*%
X139450000Y-136132500D03*
X139450000Y-134407500D03*
%TD*%
D30*
%TO.C,J2*%
X167920000Y-147100000D03*
D31*
X170460000Y-147100000D03*
X173000000Y-147100000D03*
X175540000Y-147100000D03*
%TD*%
D47*
%TO.C,U9*%
X137150000Y-96825800D03*
X137649999Y-96825800D03*
X138150001Y-96825800D03*
X138650000Y-96825800D03*
X139149999Y-96825800D03*
X139650000Y-96825800D03*
X140150000Y-96825800D03*
X140650001Y-96825800D03*
X141150000Y-96825800D03*
X141649999Y-96825800D03*
X142150001Y-96825800D03*
X142650000Y-96825800D03*
D48*
X143125800Y-96350000D03*
X143125800Y-95850001D03*
X143125800Y-95349999D03*
X143125800Y-94850000D03*
X143125800Y-94350001D03*
X143125800Y-93850000D03*
X143125800Y-93350000D03*
X143125800Y-92849999D03*
X143125800Y-92350000D03*
X143125800Y-91850001D03*
X143125800Y-91349999D03*
X143125800Y-90850000D03*
D47*
X142650000Y-90374200D03*
X142150001Y-90374200D03*
X141649999Y-90374200D03*
X141150000Y-90374200D03*
X140650001Y-90374200D03*
X140150000Y-90374200D03*
X139650000Y-90374200D03*
X139149999Y-90374200D03*
X138650000Y-90374200D03*
X138150001Y-90374200D03*
X137649999Y-90374200D03*
X137150000Y-90374200D03*
D48*
X136674200Y-90850000D03*
X136674200Y-91349999D03*
X136674200Y-91850001D03*
X136674200Y-92350000D03*
X136674200Y-92849999D03*
X136674200Y-93350000D03*
X136674200Y-93850000D03*
X136674200Y-94350001D03*
X136674200Y-94850000D03*
X136674200Y-95349999D03*
X136674200Y-95850001D03*
X136674200Y-96350000D03*
D49*
X139900000Y-93600000D03*
%TD*%
D50*
%TO.C,C1*%
X140260000Y-100037499D03*
X140260000Y-101762501D03*
%TD*%
D16*
%TO.C,C34*%
X178570000Y-110940000D03*
X180295002Y-110940000D03*
%TD*%
D50*
%TO.C,C15*%
X157940000Y-140007499D03*
X157940000Y-141732501D03*
%TD*%
D37*
%TO.C,C29*%
X160829880Y-81560120D03*
X159610120Y-82779880D03*
%TD*%
D29*
%TO.C,H4*%
X105000000Y-145000000D03*
%TD*%
D33*
%TO.C,R10*%
X111950000Y-144532500D03*
X111950000Y-142707500D03*
%TD*%
D44*
%TO.C,D3*%
X110847500Y-137110000D03*
X112597500Y-137110000D03*
%TD*%
D15*
%TO.C,C8*%
X153950000Y-75902501D03*
X153950000Y-74177499D03*
%TD*%
D33*
%TO.C,R12*%
X129220000Y-140662500D03*
X129220000Y-138837500D03*
%TD*%
D36*
%TO.C,C6*%
X169450000Y-87100000D03*
X170669760Y-88319760D03*
%TD*%
D15*
%TO.C,C11*%
X163870000Y-75692501D03*
X163870000Y-73967499D03*
%TD*%
D51*
%TO.C,U7*%
X163258400Y-77258400D03*
D52*
X163207600Y-77899999D03*
X163207600Y-78400000D03*
X163207600Y-78899999D03*
X163207600Y-79400001D03*
X163207600Y-79900000D03*
X163207600Y-80399999D03*
X163207600Y-80900001D03*
X163207600Y-81400000D03*
X163207600Y-81900001D03*
D51*
X163258400Y-82541600D03*
D52*
X163899999Y-82592400D03*
X164400000Y-82592400D03*
X164899999Y-82592400D03*
X165400001Y-82592400D03*
X165900000Y-82592400D03*
X166399999Y-82592400D03*
X166900001Y-82592400D03*
X167400000Y-82592400D03*
X167900001Y-82592400D03*
D51*
X168541600Y-82541600D03*
D52*
X168592400Y-81900001D03*
X168592400Y-81400000D03*
X168592400Y-80900001D03*
X168592400Y-80399999D03*
X168592400Y-79900000D03*
X168592400Y-79400001D03*
X168592400Y-78899999D03*
X168592400Y-78400000D03*
X168592400Y-77899999D03*
D51*
X168541600Y-77258400D03*
D52*
X167900001Y-77207600D03*
X167400000Y-77207600D03*
X166900001Y-77207600D03*
X166399999Y-77207600D03*
X165900000Y-77207600D03*
X165400001Y-77207600D03*
X164899999Y-77207600D03*
X164400000Y-77207600D03*
X163899999Y-77207600D03*
D53*
X164740000Y-78740000D03*
X167060000Y-78740000D03*
X164740000Y-81060000D03*
X167060000Y-81060000D03*
%TD*%
D54*
%TO.C,SW1*%
X149140000Y-146130000D03*
X147390000Y-148430000D03*
X145640000Y-146130000D03*
%TD*%
D16*
%TO.C,C23*%
X139757500Y-131050000D03*
X141482500Y-131050000D03*
%TD*%
D37*
%TO.C,C5*%
X158219880Y-116640120D03*
X157000120Y-117859880D03*
%TD*%
D30*
%TO.C,J5*%
X170032500Y-52200000D03*
D31*
X172572500Y-52200000D03*
X175112500Y-52200000D03*
X177652500Y-52200000D03*
X180192500Y-52200000D03*
%TD*%
D55*
%TO.C,U6*%
X125440000Y-130400000D03*
D56*
X125527500Y-131900000D03*
D55*
X125440000Y-133400000D03*
%TD*%
D33*
%TO.C,R17*%
X122890000Y-131155000D03*
X122890000Y-129330000D03*
%TD*%
D15*
%TO.C,C10*%
X161820000Y-75762501D03*
X161820000Y-74037499D03*
%TD*%
D30*
%TO.C,J14*%
X141037500Y-52000000D03*
D31*
X143577500Y-52000000D03*
X146117500Y-52000000D03*
X148657500Y-52000000D03*
X151197500Y-52000000D03*
%TD*%
D37*
%TO.C,C28*%
X160559880Y-84320120D03*
X159340120Y-85539880D03*
%TD*%
D57*
%TO.C,J9*%
X131300000Y-146400000D03*
D58*
X136300000Y-146400000D03*
%TD*%
D30*
%TO.C,J4*%
X154220000Y-147300000D03*
D31*
X156760000Y-147300000D03*
X159300000Y-147300000D03*
X161840000Y-147300000D03*
%TD*%
D50*
%TO.C,C17*%
X125050000Y-125387499D03*
X125050000Y-127112501D03*
%TD*%
D36*
%TO.C,C31*%
X165170120Y-125250120D03*
X166389880Y-126469880D03*
%TD*%
D59*
%TO.C,L2*%
X127850000Y-125610000D03*
X132350000Y-125610000D03*
%TD*%
D29*
%TO.C,H2*%
X195000000Y-145000000D03*
%TD*%
D60*
%TO.C,R1*%
X152120000Y-142125000D03*
X152120000Y-143950000D03*
%TD*%
D33*
%TO.C,R14*%
X109060000Y-137052500D03*
X109060000Y-135227500D03*
%TD*%
D37*
%TO.C,C36*%
X155369880Y-113670120D03*
X154150120Y-114889880D03*
%TD*%
D61*
%TO.C,C25*%
X172190120Y-75039880D03*
X173409880Y-73820120D03*
%TD*%
D29*
%TO.C,H3*%
X105000000Y-55000000D03*
%TD*%
D50*
%TO.C,C19*%
X134440000Y-125617499D03*
X134440000Y-127342501D03*
%TD*%
%TO.C,C21*%
X131970000Y-131877499D03*
X131970000Y-133602501D03*
%TD*%
D62*
%TO.C,U5*%
X141622500Y-134217500D03*
X141622500Y-135167500D03*
X141622500Y-136117500D03*
X143897500Y-136117500D03*
X143897500Y-135167500D03*
X143897500Y-134217500D03*
%TD*%
D16*
%TO.C,C22*%
X139757500Y-132630000D03*
X141482500Y-132630000D03*
%TD*%
D34*
%TO.C,C14*%
X112722501Y-138860000D03*
X110997499Y-138860000D03*
%TD*%
D37*
%TO.C,C26*%
X158439880Y-84130120D03*
X157220120Y-85349880D03*
%TD*%
D24*
%TO.C,R2*%
X164307500Y-109300000D03*
X166132500Y-109300000D03*
%TD*%
D50*
%TO.C,C4*%
X135000000Y-97187499D03*
X135000000Y-98912501D03*
%TD*%
D63*
%TO.C,U1*%
X164427378Y-120341428D03*
D64*
X164738509Y-119987876D03*
X165092061Y-119634323D03*
X165445615Y-119280769D03*
X165799168Y-118927216D03*
X166152723Y-118573661D03*
X166506276Y-118220109D03*
X166859828Y-117866556D03*
X167213383Y-117513001D03*
X167566936Y-117159448D03*
X167920490Y-116805894D03*
X168274043Y-116452342D03*
D63*
X168627595Y-116141211D03*
X168274043Y-115787658D03*
X167920490Y-115434106D03*
X167566936Y-115080552D03*
X167213383Y-114726999D03*
X166859828Y-114373444D03*
X166506276Y-114019891D03*
X166152723Y-113666339D03*
X165799168Y-113312784D03*
X165445615Y-112959231D03*
X165092061Y-112605677D03*
X164738509Y-112252124D03*
X164384956Y-111898572D03*
D64*
X164073825Y-112252124D03*
X163720273Y-112605677D03*
X163366719Y-112959231D03*
X163013166Y-113312784D03*
X162659611Y-113666339D03*
X162306058Y-114019891D03*
X161952506Y-114373444D03*
X161598951Y-114726999D03*
X161245398Y-115080552D03*
X160891844Y-115434106D03*
X160538291Y-115787658D03*
D63*
X160184739Y-116098789D03*
X160538291Y-116452342D03*
X160891844Y-116805894D03*
X161245398Y-117159448D03*
X161598951Y-117513001D03*
X161952506Y-117866556D03*
X162306058Y-118220109D03*
X162659611Y-118573661D03*
X163013166Y-118927216D03*
X163366719Y-119280769D03*
X163720273Y-119634323D03*
X164073825Y-119987876D03*
D65*
X166280000Y-116120000D03*
X164406167Y-114246167D03*
X162532334Y-116120000D03*
X164406167Y-117993833D03*
%TD*%
D15*
%TO.C,C2*%
X130190000Y-94730000D03*
X130190000Y-93004998D03*
%TD*%
M02*
