%TF.GenerationSoftware,KiCad,Pcbnew,9.0.4*%
%TF.CreationDate,2026-04-02T03:56:53-05:00*%
%TF.ProjectId,Up_Down_Converter,55705f44-6f77-46e5-9f43-6f6e76657274,rev?*%
%TF.SameCoordinates,Original*%
%TF.FileFunction,Soldermask,Bot*%
%TF.FilePolarity,Negative*%
%FSLAX46Y46*%
G04 Gerber Fmt 4.6, Leading zero omitted, Abs format (unit mm)*
G04 Created by KiCad (PCBNEW 9.0.4) date 2026-04-02 03:56:53*
%MOMM*%
%LPD*%
G01*
G04 APERTURE LIST*
G04 Aperture macros list*
%AMRoundRect*
0 Rectangle with rounded corners*
0 $1 Rounding radius*
0 $2 $3 $4 $5 $6 $7 $8 $9 X,Y pos of 4 corners*
0 Add a 4 corners polygon primitive as box body*
4,1,4,$2,$3,$4,$5,$6,$7,$8,$9,$2,$3,0*
0 Add four circle primitives for the rounded corners*
1,1,$1+$1,$2,$3*
1,1,$1+$1,$4,$5*
1,1,$1+$1,$6,$7*
1,1,$1+$1,$8,$9*
0 Add four rect primitives between the rounded corners*
20,1,$1+$1,$2,$3,$4,$5,0*
20,1,$1+$1,$4,$5,$6,$7,0*
20,1,$1+$1,$6,$7,$8,$9,0*
20,1,$1+$1,$8,$9,$2,$3,0*%
G04 Aperture macros list end*
%ADD10C,0.499999*%
%ADD11C,0.650000*%
%ADD12O,1.000000X2.100000*%
%ADD13O,1.000000X1.800000*%
%ADD14C,6.400000*%
%ADD15R,1.700000X1.700000*%
%ADD16C,1.700000*%
%ADD17C,3.200000*%
%ADD18R,1.500000X1.500000*%
%ADD19C,1.500000*%
%ADD20RoundRect,0.250001X-1.149999X-1.149999X1.149999X-1.149999X1.149999X1.149999X-1.149999X1.149999X0*%
%ADD21C,2.800000*%
G04 APERTURE END LIST*
D10*
%TO.C,U4*%
X160100000Y-141220000D03*
X161199999Y-141220000D03*
X162299998Y-141220000D03*
%TD*%
D11*
%TO.C,J8*%
X115410000Y-144120000D03*
X121190000Y-144120000D03*
D12*
X113980000Y-143600000D03*
D13*
X113980000Y-147800000D03*
D12*
X122620000Y-143600000D03*
D13*
X122620000Y-147800000D03*
%TD*%
D14*
%TO.C,H1*%
X195000000Y-55000000D03*
%TD*%
D15*
%TO.C,J1*%
X156805000Y-52000000D03*
D16*
X159345000Y-52000000D03*
X161885000Y-52000000D03*
X164425000Y-52000000D03*
%TD*%
D17*
%TO.C,J15*%
X103650000Y-90450000D03*
X103650000Y-101880000D03*
D18*
X110000000Y-91720000D03*
D19*
X112540000Y-92990000D03*
X110000000Y-94260000D03*
X112540000Y-95530000D03*
X110000000Y-96800000D03*
X112540000Y-98070000D03*
X110000000Y-99340000D03*
X112540000Y-100610000D03*
%TD*%
D15*
%TO.C,J7*%
X185800000Y-52300000D03*
%TD*%
%TO.C,J2*%
X167920000Y-147100000D03*
D16*
X170460000Y-147100000D03*
X173000000Y-147100000D03*
X175540000Y-147100000D03*
%TD*%
D14*
%TO.C,H4*%
X105000000Y-145000000D03*
%TD*%
D15*
%TO.C,J5*%
X170032500Y-52200000D03*
D16*
X172572500Y-52200000D03*
X175112500Y-52200000D03*
X177652500Y-52200000D03*
X180192500Y-52200000D03*
%TD*%
D15*
%TO.C,J14*%
X141037500Y-52000000D03*
D16*
X143577500Y-52000000D03*
X146117500Y-52000000D03*
X148657500Y-52000000D03*
X151197500Y-52000000D03*
%TD*%
D20*
%TO.C,J9*%
X131300000Y-146400000D03*
D21*
X136300000Y-146400000D03*
%TD*%
D15*
%TO.C,J4*%
X154220000Y-147300000D03*
D16*
X156760000Y-147300000D03*
X159300000Y-147300000D03*
X161840000Y-147300000D03*
%TD*%
D14*
%TO.C,H2*%
X195000000Y-145000000D03*
%TD*%
%TO.C,H3*%
X105000000Y-55000000D03*
%TD*%
M02*
