%TF.GenerationSoftware,KiCad,Pcbnew,9.0.2*%
%TF.CreationDate,2026-04-06T10:18:15-05:00*%
%TF.ProjectId,Up_Down_Converter,55705f44-6f77-46e5-9f43-6f6e76657274,rev?*%
%TF.SameCoordinates,Original*%
%TF.FileFunction,Soldermask,Bot*%
%TF.FilePolarity,Negative*%
%FSLAX46Y46*%
G04 Gerber Fmt 4.6, Leading zero omitted, Abs format (unit mm)*
G04 Created by KiCad (PCBNEW 9.0.2) date 2026-04-06 10:18:15*
%MOMM*%
%LPD*%
G01*
G04 APERTURE LIST*
G04 Aperture macros list*
%AMRoundRect*
0 Rectangle with rounded corners*
0 $1 Rounding radius*
0 $2 $3 $4 $5 $6 $7 $8 $9 X,Y pos of 4 corners*
0 Add a 4 corners polygon primitive as box body*
4,1,4,$2,$3,$4,$5,$6,$7,$8,$9,$2,$3,0*
0 Add four circle primitives for the rounded corners*
1,1,$1+$1,$2,$3*
1,1,$1+$1,$4,$5*
1,1,$1+$1,$6,$7*
1,1,$1+$1,$8,$9*
0 Add four rect primitives between the rounded corners*
20,1,$1+$1,$2,$3,$4,$5,0*
20,1,$1+$1,$4,$5,$6,$7,0*
20,1,$1+$1,$6,$7,$8,$9,0*
20,1,$1+$1,$8,$9,$2,$3,0*%
G04 Aperture macros list end*
%ADD10C,6.400000*%
%ADD11C,0.650000*%
%ADD12O,2.100000X1.000000*%
%ADD13O,1.800000X1.000000*%
%ADD14C,2.000000*%
%ADD15O,2.200000X3.500000*%
%ADD16R,1.500000X2.500000*%
%ADD17O,1.500000X2.500000*%
%ADD18R,1.700000X1.700000*%
%ADD19C,1.700000*%
%ADD20R,3.500000X3.500000*%
%ADD21RoundRect,0.750000X1.000000X-0.750000X1.000000X0.750000X-1.000000X0.750000X-1.000000X-0.750000X0*%
%ADD22RoundRect,0.875000X0.875000X-0.875000X0.875000X0.875000X-0.875000X0.875000X-0.875000X-0.875000X0*%
%ADD23R,1.500000X5.080000*%
%ADD24C,0.499999*%
%ADD25C,3.250000*%
%ADD26R,1.500000X1.500000*%
%ADD27C,1.500000*%
%ADD28C,2.300000*%
%ADD29RoundRect,0.237500X-0.237500X0.250000X-0.237500X-0.250000X0.237500X-0.250000X0.237500X0.250000X0*%
%ADD30RoundRect,0.237500X0.237500X-0.300000X0.237500X0.300000X-0.237500X0.300000X-0.237500X-0.300000X0*%
%ADD31RoundRect,0.237500X-0.237500X0.300000X-0.237500X-0.300000X0.237500X-0.300000X0.237500X0.300000X0*%
%ADD32RoundRect,0.237500X-0.250000X-0.237500X0.250000X-0.237500X0.250000X0.237500X-0.250000X0.237500X0*%
%ADD33RoundRect,0.237500X0.300000X0.237500X-0.300000X0.237500X-0.300000X-0.237500X0.300000X-0.237500X0*%
%ADD34RoundRect,0.237500X-0.300000X-0.237500X0.300000X-0.237500X0.300000X0.237500X-0.300000X0.237500X0*%
G04 APERTURE END LIST*
D10*
%TO.C,H1*%
X131340389Y-44426339D03*
%TD*%
D11*
%TO.C,J8*%
X41630000Y-117510000D03*
X41630000Y-123290000D03*
D12*
X42150000Y-116080000D03*
D13*
X37950000Y-116080000D03*
D12*
X42150000Y-124720000D03*
D13*
X37950000Y-124720000D03*
%TD*%
D14*
%TO.C,TP2*%
X85170000Y-112720000D03*
%TD*%
D15*
%TO.C,SW1*%
X58100000Y-136702500D03*
X49900000Y-136702500D03*
D16*
X56000000Y-136702500D03*
D17*
X54000000Y-136702500D03*
X52000000Y-136702500D03*
%TD*%
D18*
%TO.C,J1*%
X39000000Y-65820000D03*
D19*
X39000000Y-68360000D03*
X39000000Y-70900000D03*
X39000000Y-73440000D03*
%TD*%
D20*
%TO.C,J7*%
X67042500Y-131400000D03*
D21*
X67042500Y-137400000D03*
D22*
X71742500Y-134400000D03*
%TD*%
D23*
%TO.C,J16*%
X49250000Y-42500000D03*
X57750000Y-42500000D03*
%TD*%
D10*
%TO.C,H4*%
X41340389Y-134426339D03*
%TD*%
D24*
%TO.C,U4*%
X57430000Y-112242500D03*
X56330000Y-112242500D03*
X55230000Y-112242500D03*
%TD*%
D14*
%TO.C,TP1*%
X76740000Y-111170000D03*
%TD*%
D23*
%TO.C,J15*%
X92780000Y-42240000D03*
X101280000Y-42240000D03*
%TD*%
D18*
%TO.C,J4*%
X109560000Y-42500000D03*
D19*
X112100000Y-42500000D03*
X114640000Y-42500000D03*
X117180000Y-42500000D03*
%TD*%
D23*
%TO.C,J13*%
X80160000Y-42240000D03*
X88660000Y-42240000D03*
%TD*%
D10*
%TO.C,H2*%
X131340389Y-134426339D03*
%TD*%
D18*
%TO.C,J14*%
X39000000Y-77780000D03*
D19*
X39000000Y-80320000D03*
X39000000Y-82860000D03*
X39000000Y-85400000D03*
X39000000Y-87940000D03*
%TD*%
D25*
%TO.C,J6*%
X42570000Y-94300000D03*
X42570000Y-107000000D03*
D26*
X40030000Y-97090000D03*
D27*
X38250000Y-98106000D03*
X40030000Y-99122000D03*
X38250000Y-100138000D03*
X40030000Y-101154000D03*
X38250000Y-102170000D03*
X40030000Y-103186000D03*
X38250000Y-104202000D03*
D28*
X39140000Y-92520000D03*
X39140000Y-108780000D03*
%TD*%
D23*
%TO.C,J17*%
X64300000Y-42400000D03*
X72800000Y-42400000D03*
%TD*%
D10*
%TO.C,H3*%
X41340389Y-44426339D03*
%TD*%
D18*
%TO.C,J5*%
X38900000Y-61140000D03*
D19*
X38900000Y-58600000D03*
X38900000Y-56060000D03*
X38900000Y-53520000D03*
X38900000Y-50980000D03*
%TD*%
D29*
%TO.C,R31*%
X74020000Y-91737500D03*
X74020000Y-93562500D03*
%TD*%
D30*
%TO.C,C69*%
X78010000Y-98532500D03*
X78010000Y-96807500D03*
%TD*%
D31*
%TO.C,C29*%
X98300000Y-70180000D03*
X98300000Y-71905002D03*
%TD*%
D32*
%TO.C,R33*%
X74457500Y-98630000D03*
X76282500Y-98630000D03*
%TD*%
D33*
%TO.C,C67*%
X72352500Y-90230000D03*
X70627500Y-90230000D03*
%TD*%
D29*
%TO.C,R30*%
X74010000Y-88337500D03*
X74010000Y-90162500D03*
%TD*%
D33*
%TO.C,C68*%
X72152500Y-96980000D03*
X70427500Y-96980000D03*
%TD*%
D34*
%TO.C,C70*%
X74057500Y-96960000D03*
X75782500Y-96960000D03*
%TD*%
D32*
%TO.C,R32*%
X72177500Y-95270000D03*
X74002500Y-95270000D03*
%TD*%
M02*
