M48
; DRILL file {KiCad 9.0.2} date 2026-04-06T10:13:02-0500
; FORMAT={-:-/ absolute / metric / decimal}
; #@! TF.CreationDate,2026-04-06T10:13:02-05:00
; #@! TF.GenerationSoftware,Kicad,Pcbnew,9.0.2
; #@! TF.FileFunction,MixedPlating,1,4
FMAT,2
METRIC
; #@! TA.AperFunction,Plated,PTH,ComponentDrill
T1C0.203
; #@! TA.AperFunction,Plated,PTH,ViaDrill
T2C0.300
; #@! TA.AperFunction,Plated,PTH,ComponentDrill
T3C0.600
; #@! TA.AperFunction,Plated,PTH,ComponentDrill
T4C0.800
; #@! TA.AperFunction,Plated,PTH,ComponentDrill
T5C0.890
; #@! TA.AperFunction,Plated,PTH,ComponentDrill
T6C1.000
; #@! TA.AperFunction,Plated,PTH,ComponentDrill
T7C1.500
; #@! TA.AperFunction,Plated,PTH,ComponentDrill
T8C1.570
; #@! TA.AperFunction,Plated,PTH,ComponentDrill
T9C3.200
; #@! TA.AperFunction,NonPlated,NPTH,ComponentDrill
T10C0.650
; #@! TA.AperFunction,NonPlated,NPTH,ComponentDrill
T11C3.250
%
G90
G05
T1
X55.23Y-112.242
X56.33Y-112.242
X57.43Y-112.242
T2
X37.33Y-94.2
X41.0Y-129.0
X41.05Y-111.2
X41.07Y-112.05
X44.08Y-116.05
X44.1Y-115.15
X44.1Y-116.88
X44.92Y-126.93
X45.335Y-97.87
X46.185Y-97.87
X46.292Y-118.02
X47.095Y-99.28
X47.945Y-99.28
X48.89Y-74.19
X49.0Y-108.0
X49.0Y-109.0
X49.0Y-110.0
X49.0Y-111.0
X49.0Y-112.0
X49.3Y-121.24
X49.34Y-117.94
X49.34Y-119.74
X49.71Y-96.495
X49.71Y-97.345
X50.0Y-108.0
X50.0Y-109.0
X50.0Y-110.0
X50.09Y-77.51
X50.22Y-121.22
X50.27Y-118.01
X50.29Y-119.77
X50.355Y-125.505
X51.0Y-108.0
X51.0Y-109.0
X52.0Y-108.0
X52.0Y-109.0
X52.0Y-121.0
X52.0Y-122.0
X52.0Y-123.0
X52.38Y-45.67
X52.65Y-51.11
X52.65Y-52.06
X52.68Y-46.37
X52.68Y-50.29
X52.7Y-84.0
X52.71Y-49.43
X52.71Y-52.91
X52.75Y-48.61
X52.76Y-47.04
X52.76Y-47.81
X52.95Y-79.56
X53.0Y-108.0
X53.0Y-114.0
X53.0Y-115.0
X53.0Y-116.0
X53.0Y-117.0
X53.0Y-118.0
X53.0Y-119.0
X53.0Y-120.0
X53.0Y-121.0
X53.0Y-124.0
X53.08Y-53.83
X53.87Y-54.49
X54.0Y-108.0
X54.0Y-114.0
X54.0Y-115.0
X54.0Y-116.0
X54.0Y-117.0
X54.0Y-118.0
X54.2Y-78.13
X54.34Y-47.05
X54.34Y-47.82
X54.35Y-48.62
X54.39Y-49.44
X54.39Y-55.01
X54.42Y-46.38
X54.42Y-50.3
X54.45Y-51.12
X54.45Y-52.07
X54.61Y-52.91
X54.72Y-45.68
X54.94Y-55.6
X55.0Y-108.0
X55.0Y-109.0
X55.0Y-117.0
X55.0Y-118.0
X55.1Y-53.6
X55.59Y-56.17
X55.62Y-54.12
X55.89Y-96.18
X55.9Y-110.2
X56.0Y-108.0
X56.0Y-109.0
X56.04Y-56.68
X56.17Y-54.71
X56.25Y-78.2
X56.59Y-57.2
X56.82Y-55.28
X57.0Y-108.0
X57.0Y-109.0
X57.13Y-57.7
X57.27Y-55.79
X57.54Y-79.47
X57.65Y-58.22
X57.82Y-56.31
X58.0Y-108.0
X58.0Y-109.0
X58.2Y-58.81
X58.36Y-56.81
X58.85Y-59.4
X58.88Y-57.33
X59.0Y-108.0
X59.0Y-109.0
X59.0Y-110.0
X59.05Y-87.28
X59.3Y-59.91
X59.43Y-57.92
X59.85Y-60.43
X60.0Y-108.0
X60.0Y-109.0
X60.0Y-110.0
X60.08Y-58.51
X60.23Y-85.83
X60.39Y-60.93
X60.53Y-59.02
X60.91Y-61.45
X61.0Y-109.0
X61.0Y-110.0
X61.08Y-59.54
X61.29Y-114.84
X61.46Y-62.04
X61.47Y-111.16
X61.62Y-60.04
X61.97Y-101.82
X62.05Y-62.61
X62.14Y-60.56
X62.5Y-63.12
X62.69Y-61.15
X63.0Y-115.0
X63.0Y-116.0
X63.05Y-63.64
X63.2Y-114.07
X63.28Y-61.72
X63.59Y-64.14
X63.73Y-62.23
X63.91Y-87.06
X64.11Y-64.66
X64.28Y-62.75
X64.66Y-65.25
X64.82Y-63.25
X65.24Y-65.83
X65.34Y-63.77
X65.69Y-66.34
X65.89Y-64.36
X66.24Y-66.86
X66.47Y-64.94
X66.78Y-67.36
X66.92Y-65.45
X67.3Y-67.88
X67.32Y-45.46
X67.46Y-85.84
X67.47Y-65.97
X67.6Y-46.16
X67.62Y-47.69
X67.62Y-48.45
X67.62Y-50.85
X67.62Y-51.69
X67.63Y-46.93
X67.63Y-50.06
X67.64Y-49.26
X67.73Y-52.63
X67.85Y-68.47
X68.01Y-53.44
X68.01Y-66.47
X68.369Y-91.241
X68.4Y-68.97
X68.53Y-66.99
X68.6Y-53.95
X68.6Y-116.73
X68.63Y-119.71
X68.74Y-87.06
X68.78Y-89.17
X68.93Y-80.69
X68.971Y-90.639
X69.06Y-97.12
X69.08Y-67.58
X69.14Y-54.51
X69.29Y-48.09
X69.31Y-47.25
X69.34Y-48.94
X69.37Y-50.62
X69.41Y-46.38
X69.41Y-49.77
X69.44Y-51.38
X69.54Y-52.2
X69.63Y-68.08
X69.65Y-45.57
X69.68Y-55.15
X69.92Y-70.54
X69.93Y-52.91
X70.2Y-93.445
X70.2Y-94.295
X70.28Y-55.73
X70.46Y-53.47
X70.46Y-71.13
X70.47Y-82.01
X70.51Y-84.61
X70.64Y-91.37
X70.85Y-56.34
X70.94Y-71.66
X70.99Y-54.03
X71.04Y-80.56
X71.15Y-69.65
X71.33Y-82.18
X71.4Y-56.88
X71.42Y-89.03
X71.46Y-79.81
X71.51Y-72.25
X71.58Y-54.54
X71.69Y-70.24
X71.94Y-57.44
X72.1Y-72.75
X72.12Y-55.1
X72.15Y-82.45
X72.17Y-70.77
X72.18Y-79.52
X72.47Y-57.92
X72.6Y-73.25
X72.66Y-55.74
X72.74Y-71.36
X72.78Y-86.52
X72.82Y-87.39
X72.89Y-78.87
X73.02Y-58.42
X73.08Y-73.79
X73.26Y-56.32
X73.33Y-71.86
X73.57Y-58.95
X73.6Y-74.29
X73.83Y-56.93
X73.83Y-72.36
X74.02Y-86.93
X74.14Y-74.81
X74.16Y-59.56
X74.31Y-72.9
X74.38Y-57.47
X74.55Y-112.13
X74.65Y-60.1
X74.67Y-75.34
X74.83Y-73.4
X74.92Y-58.03
X75.143Y-82.943
X75.18Y-60.66
X75.23Y-84.27
X75.26Y-75.89
X75.3Y-81.8
X75.37Y-73.92
X75.45Y-58.51
X75.45Y-99.97
X75.47Y-87.62
X75.51Y-77.32
X75.69Y-61.24
X75.76Y-95.81
X75.79Y-76.43
X75.9Y-74.45
X76.0Y-59.01
X76.11Y-90.48
X76.24Y-83.026
X76.35Y-76.95
X76.35Y-84.31
X76.41Y-81.85
X76.49Y-75.0
X76.54Y-73.79
X76.55Y-59.54
X76.73Y-72.99
X76.88Y-77.55
X77.02Y-75.54
X77.14Y-60.15
X77.27Y-78.25
X77.3Y-78.99
X77.53Y-72.65
X77.54Y-100.08
X77.56Y-63.63
X77.6Y-64.42
X77.64Y-76.13
X77.65Y-65.05
X77.65Y-71.77
X77.66Y-84.39
X77.67Y-65.7
X77.67Y-106.06
X77.7Y-66.38
X77.7Y-69.33
X77.7Y-70.89
X77.701Y-83.035
X77.71Y-67.12
X77.71Y-67.87
X77.72Y-70.11
X77.72Y-81.68
X77.75Y-74.85
X77.79Y-68.61
X77.97Y-95.6
X78.54Y-106.06
X78.55Y-100.36
X78.65Y-109.25
X78.69Y-117.95
X78.81Y-110.26
X78.85Y-111.02
X78.86Y-111.75
X78.91Y-101.28
X79.01Y-62.54
X79.21Y-63.27
X79.23Y-63.97
X79.24Y-78.25
X79.26Y-64.61
X79.26Y-65.36
X79.26Y-76.72
X79.26Y-77.52
X79.29Y-66.07
X79.31Y-75.94
X79.33Y-66.78
X79.33Y-67.44
X79.36Y-68.92
X79.36Y-69.61
X79.36Y-70.29
X79.38Y-68.14
X79.4Y-71.07
X79.4Y-71.8
X79.83Y-111.94
X79.84Y-101.75
X79.86Y-111.13
X79.89Y-99.24
X79.97Y-75.57
X79.97Y-86.59
X80.07Y-72.23
X80.205Y-83.913
X80.26Y-103.93
X80.26Y-105.71
X80.36Y-72.85
X80.48Y-75.02
X80.5Y-73.57
X80.54Y-111.58
X80.56Y-82.02
X80.57Y-74.23
X80.57Y-99.85
X80.62Y-90.58
X80.64Y-91.58
X80.895Y-96.07
X80.99Y-78.58
X81.0Y-84.0
X81.089Y-92.519
X81.2Y-80.01
X81.24Y-114.77
X81.27Y-100.45
X81.57Y-89.1
X81.59Y-81.97
X81.691Y-93.121
X81.745Y-96.07
X81.92Y-105.62
X81.96Y-74.45
X82.0Y-84.0
X82.01Y-75.21
X82.01Y-79.97
X82.01Y-100.97
X82.27Y-102.81
X82.28Y-103.61
X82.29Y-101.96
X82.35Y-81.95
X82.37Y-114.77
X82.44Y-104.38
X82.55Y-70.485
X82.55Y-71.12
X82.55Y-71.755
X82.55Y-72.39
X82.55Y-73.025
X82.55Y-73.66
X82.55Y-79.375
X82.55Y-87.39
X82.57Y-86.63
X82.65Y-106.407
X82.77Y-105.31
X83.0Y-84.0
X83.0Y-85.0
X83.06Y-81.94
X83.15Y-114.76
X83.185Y-69.85
X83.185Y-78.74
X83.29Y-93.93
X83.32Y-112.83
X83.36Y-113.72
X83.45Y-98.01
X83.59Y-78.08
X83.78Y-107.38
X83.82Y-46.99
X83.82Y-47.625
X83.82Y-48.26
X83.82Y-48.895
X83.82Y-49.53
X83.82Y-50.165
X83.82Y-50.8
X83.82Y-51.435
X83.82Y-52.07
X83.82Y-52.705
X83.82Y-53.34
X83.82Y-53.975
X83.82Y-54.61
X83.82Y-55.245
X83.82Y-55.88
X83.82Y-56.515
X83.82Y-57.15
X83.82Y-57.785
X83.82Y-58.42
X83.82Y-59.055
X83.82Y-59.69
X83.82Y-62.23
X83.82Y-62.865
X83.82Y-63.5
X83.82Y-64.135
X83.82Y-64.77
X83.82Y-65.405
X83.82Y-66.04
X83.82Y-66.675
X83.82Y-67.31
X83.82Y-67.945
X83.82Y-68.58
X83.82Y-69.215
X83.82Y-81.915
X83.84Y-106.35
X83.91Y-114.76
X84.0Y-85.0
X84.54Y-81.89
X84.759Y-110.981
X85.0Y-85.0
X85.09Y-46.99
X85.09Y-47.625
X85.09Y-48.26
X85.09Y-48.895
X85.09Y-49.53
X85.09Y-50.165
X85.09Y-50.8
X85.09Y-51.435
X85.09Y-52.07
X85.09Y-52.705
X85.09Y-53.34
X85.09Y-53.975
X85.15Y-81.52
X85.361Y-110.379
X85.725Y-54.61
X85.77Y-80.93
X86.0Y-85.0
X86.36Y-53.975
X86.41Y-80.3
X86.79Y-79.58
X86.82Y-107.71
X86.889Y-116.024
X86.92Y-115.22
X86.995Y-53.34
X86.995Y-55.245
X86.995Y-55.88
X86.995Y-56.515
X86.995Y-57.15
X86.995Y-57.785
X86.995Y-58.42
X86.995Y-59.055
X86.995Y-59.69
X86.995Y-62.23
X86.995Y-62.865
X86.995Y-63.5
X86.995Y-64.135
X86.995Y-64.77
X86.995Y-65.405
X86.995Y-66.04
X86.995Y-66.675
X86.995Y-67.31
X86.995Y-67.945
X86.995Y-68.58
X86.995Y-69.215
X86.995Y-69.85
X86.995Y-70.485
X86.995Y-71.12
X86.995Y-71.755
X86.995Y-72.39
X86.995Y-73.025
X86.995Y-73.66
X86.995Y-78.105
X87.0Y-85.0
X87.01Y-78.83
X87.02Y-109.58
X87.28Y-80.54
X87.29Y-114.44
X87.63Y-52.705
X87.63Y-54.61
X87.7Y-107.42
X87.86Y-109.67
X87.95Y-78.13
X87.98Y-113.95
X87.99Y-73.64
X88.07Y-85.15
X88.09Y-80.96
X88.265Y-52.07
X88.265Y-53.975
X88.9Y-51.435
X88.9Y-53.34
X88.91Y-74.65
X88.98Y-80.99
X89.0Y-116.65
X89.04Y-85.24
X89.1Y-113.81
X89.15Y-114.64
X89.4Y-103.61
X89.535Y-50.8
X89.535Y-52.705
X89.59Y-122.01
X89.862Y-114.262
X89.97Y-80.99
X89.98Y-85.4
X90.17Y-50.165
X90.17Y-52.07
X90.6Y-104.73
X90.62Y-114.58
X90.64Y-113.81
X90.77Y-107.15
X90.805Y-49.53
X90.805Y-51.435
X90.96Y-86.02
X91.01Y-80.98
X91.06Y-109.48
X91.43Y-106.58
X91.44Y-48.895
X91.44Y-50.8
X91.487Y-115.83
X92.0Y-83.0
X92.0Y-87.0
X92.0Y-105.94
X92.02Y-80.8
X92.075Y-48.895
X92.23Y-119.27
X92.32Y-115.81
X92.42Y-115.02
X92.56Y-78.73
X92.6Y-105.47
X92.71Y-48.895
X92.71Y-50.165
X92.8Y-120.08
X93.0Y-80.0
X93.0Y-83.0
X93.0Y-84.0
X93.0Y-88.0
X93.0Y-91.0
X93.0Y-92.0
X93.0Y-93.0
X93.0Y-94.0
X93.0Y-95.0
X93.0Y-96.0
X93.0Y-97.0
X93.0Y-98.0
X93.0Y-99.0
X93.0Y-100.0
X93.0Y-101.0
X93.0Y-102.0
X93.07Y-62.54
X93.08Y-65.56
X93.1Y-64.17
X93.2Y-115.8
X93.22Y-119.26
X93.25Y-104.95
X93.25Y-114.99
X93.345Y-48.895
X93.345Y-50.165
X93.87Y-120.06
X93.97Y-104.34
X93.98Y-48.895
X93.98Y-50.165
X94.0Y-70.0
X94.0Y-71.0
X94.0Y-72.0
X94.0Y-73.0
X94.0Y-74.0
X94.0Y-75.0
X94.0Y-76.0
X94.0Y-77.0
X94.0Y-78.0
X94.0Y-79.0
X94.0Y-82.0
X94.0Y-85.0
X94.0Y-103.0
X94.04Y-62.51
X94.05Y-116.32
X94.1Y-64.12
X94.15Y-65.57
X94.23Y-119.27
X94.615Y-48.895
X94.615Y-50.165
X94.62Y-109.705
X94.62Y-110.555
X94.89Y-120.08
X95.0Y-69.0
X95.0Y-82.0
X95.0Y-86.0
X95.0Y-104.0
X95.25Y-48.895
X95.25Y-50.165
X95.36Y-117.6
X95.37Y-119.34
X95.38Y-118.55
X95.44Y-113.18
X95.556Y-108.191
X95.556Y-109.041
X95.885Y-46.355
X95.885Y-46.99
X95.885Y-47.625
X95.885Y-48.26
X95.885Y-50.165
X96.0Y-68.0
X96.0Y-71.0
X96.0Y-72.0
X96.0Y-73.0
X96.0Y-74.0
X96.0Y-75.0
X96.0Y-76.0
X96.0Y-77.0
X96.0Y-79.0
X96.0Y-80.0
X96.0Y-87.0
X96.0Y-88.0
X96.0Y-91.0
X96.0Y-92.0
X96.0Y-93.0
X96.0Y-94.0
X96.0Y-95.0
X96.0Y-96.0
X96.0Y-97.0
X96.0Y-98.0
X96.0Y-99.0
X96.0Y-100.0
X96.0Y-101.0
X96.0Y-102.0
X96.0Y-105.0
X96.52Y-50.165
X96.58Y-102.91
X96.66Y-70.07
X97.0Y-67.0
X97.0Y-77.0
X97.0Y-78.0
X97.0Y-79.0
X97.02Y-103.61
X97.155Y-49.53
X97.16Y-113.936
X97.16Y-114.576
X97.18Y-115.996
X97.19Y-116.676
X97.19Y-117.346
X97.2Y-80.69
X97.21Y-112.556
X97.21Y-113.286
X97.21Y-115.286
X97.23Y-118.616
X97.25Y-111.786
X97.3Y-110.946
X97.35Y-69.37
X97.37Y-119.256
X97.52Y-119.906
X97.61Y-110.176
X97.79Y-46.355
X97.79Y-46.99
X97.79Y-47.625
X97.79Y-48.26
X97.79Y-48.895
X97.82Y-120.486
X97.83Y-109.536
X98.0Y-67.0
X98.0Y-91.46
X98.02Y-77.3
X98.08Y-105.45
X98.2Y-121.056
X98.24Y-108.976
X98.539Y-69.142
X98.6Y-66.11
X98.6Y-98.09
X98.65Y-121.546
X98.72Y-61.03
X98.76Y-61.89
X98.85Y-104.73
X98.85Y-106.44
X98.873Y-105.546
X98.97Y-100.89
X98.976Y-69.902
X98.99Y-76.55
X99.17Y-122.076
X99.35Y-113.196
X99.35Y-113.846
X99.36Y-111.816
X99.36Y-112.576
X99.38Y-117.076
X99.44Y-118.516
X99.56Y-79.82
X99.57Y-111.066
X99.62Y-119.226
X99.64Y-77.95
X99.66Y-116.346
X99.66Y-122.546
X99.74Y-114.366
X99.78Y-105.54
X99.9Y-110.426
X99.91Y-103.63
X99.95Y-107.42
X100.0Y-119.826
X100.01Y-114.966
X100.02Y-115.726
X100.12Y-123.036
X100.14Y-99.334
X100.26Y-60.99
X100.29Y-61.83
X100.45Y-120.386
X100.59Y-123.486
X100.73Y-104.6
X100.74Y-102.86
X100.74Y-108.35
X100.747Y-103.673
X100.747Y-107.42
X100.75Y-106.51
X100.87Y-117.07
X101.0Y-120.836
X101.08Y-68.166
X101.08Y-70.486
X101.08Y-123.976
X101.12Y-62.16
X101.285Y-88.02
X101.49Y-121.336
X101.53Y-63.04
X101.55Y-124.426
X101.64Y-107.41
X101.76Y-103.73
X101.81Y-105.51
X101.885Y-94.53
X101.895Y-110.281
X101.96Y-121.826
X102.08Y-124.876
X102.2Y-65.886
X102.24Y-101.05
X102.34Y-65.156
X102.4Y-110.806
X102.42Y-122.236
X102.555Y-84.18
X102.62Y-105.546
X102.64Y-104.69
X102.64Y-106.35
X102.66Y-72.706
X102.66Y-73.356
X102.67Y-64.386
X102.67Y-73.976
X102.68Y-75.406
X102.68Y-125.226
X102.7Y-74.646
X102.7Y-76.156
X102.76Y-77.016
X102.88Y-62.41
X102.89Y-122.666
X102.9Y-111.286
X102.94Y-77.876
X102.97Y-109.066
X103.13Y-63.746
X103.2Y-78.856
X103.32Y-125.506
X103.38Y-111.816
X103.38Y-123.066
X103.4Y-68.166
X103.4Y-70.486
X103.405Y-84.18
X103.49Y-79.396
X103.51Y-105.55
X103.53Y-109.636
X103.82Y-80.016
X103.89Y-112.366
X103.98Y-125.676
X104.04Y-110.176
X104.04Y-123.376
X104.08Y-103.056
X104.1Y-107.716
X104.175Y-91.4
X104.25Y-80.676
X104.37Y-74.78
X104.37Y-76.266
X104.4Y-75.476
X104.41Y-73.37
X104.43Y-62.556
X104.43Y-112.916
X104.44Y-77.026
X104.46Y-72.71
X104.46Y-74.06
X104.56Y-110.696
X104.6Y-77.706
X104.67Y-102.526
X104.67Y-125.756
X104.71Y-81.226
X104.72Y-123.546
X104.83Y-78.366
X104.86Y-107.856
X104.89Y-65.866
X104.97Y-113.456
X105.025Y-91.4
X105.07Y-62.006
X105.11Y-78.966
X105.12Y-111.196
X105.17Y-81.746
X105.21Y-101.966
X105.36Y-65.336
X105.37Y-125.756
X105.4Y-123.606
X105.43Y-104.556
X105.47Y-79.526
X105.51Y-113.956
X105.53Y-68.936
X105.53Y-69.756
X105.57Y-106.286
X105.63Y-107.956
X105.63Y-111.676
X105.64Y-61.366
X105.68Y-82.246
X105.7Y-71.676
X105.74Y-101.436
X105.92Y-80.066
X105.97Y-104.006
X106.05Y-114.466
X106.05Y-125.756
X106.1Y-123.626
X106.16Y-112.186
X106.17Y-105.666
X106.19Y-72.216
X106.2Y-60.796
X106.2Y-82.716
X106.23Y-68.896
X106.31Y-64.256
X106.32Y-100.806
X106.35Y-107.946
X106.4Y-80.576
X106.4Y-99.886
X106.41Y-65.22
X106.43Y-99.126
X106.47Y-103.556
X106.51Y-66.236
X106.6Y-69.506
X106.61Y-70.316
X106.64Y-83.176
X106.64Y-112.716
X106.72Y-125.756
X106.73Y-72.706
X106.77Y-98.406
X106.8Y-123.556
X106.84Y-60.136
X106.92Y-79.16
X106.97Y-63.766
X107.03Y-102.996
X107.03Y-107.966
X107.05Y-80.906
X107.07Y-108.686
X107.11Y-83.636
X107.14Y-70.806
X107.21Y-66.356
X107.24Y-113.206
X107.28Y-69.916
X107.31Y-73.286
X107.34Y-58.816
X107.36Y-59.606
X107.39Y-97.986
X107.39Y-115.206
X107.39Y-125.726
X107.42Y-109.346
X107.44Y-63.236
X107.44Y-123.586
X107.55Y-84.086
X107.61Y-102.556
X107.66Y-71.326
X107.67Y-104.676
X107.69Y-57.956
X107.73Y-81.236
X107.74Y-78.0
X107.81Y-73.806
X107.87Y-76.05
X107.92Y-62.686
X107.93Y-66.346
X107.93Y-97.486
X108.05Y-81.926
X108.06Y-69.846
X108.07Y-125.736
X108.1Y-109.656
X108.14Y-71.826
X108.16Y-123.626
X108.19Y-84.536
X108.21Y-78.58
X108.21Y-115.376
X108.31Y-74.316
X108.38Y-76.66
X108.39Y-62.156
X108.42Y-96.926
X108.44Y-57.396
X108.45Y-82.626
X108.45Y-104.916
X108.47Y-113.666
X108.65Y-66.096
X108.66Y-72.346
X108.71Y-69.416
X108.76Y-109.596
X108.8Y-125.736
X108.81Y-74.836
X108.82Y-84.956
X108.83Y-123.606
X109.0Y-115.416
X109.05Y-96.536
X109.09Y-83.096
X109.11Y-102.756
X109.14Y-113.716
X109.16Y-72.836
X109.23Y-61.956
X109.25Y-104.636
X109.28Y-75.436
X109.29Y-68.906
X109.43Y-57.226
X109.47Y-66.186
X109.48Y-123.616
X109.48Y-125.726
X109.5Y-95.766
X109.51Y-109.496
X109.53Y-85.236
X109.56Y-76.106
X109.69Y-83.326
X109.73Y-73.346
X109.74Y-115.596
X109.84Y-113.726
X109.9Y-62.66
X109.9Y-66.796
X109.92Y-61.556
X110.01Y-102.156
X110.02Y-68.886
X110.09Y-116.126
X110.11Y-123.606
X110.14Y-56.826
X110.14Y-125.716
X110.16Y-95.256
X110.16Y-104.676
X110.23Y-76.436
X110.27Y-109.606
X110.39Y-63.26
X110.39Y-60.916
X110.5Y-101.636
X110.51Y-72.966
X110.54Y-113.786
X110.61Y-67.096
X110.7Y-116.566
X110.71Y-60.136
X110.71Y-68.856
X110.8Y-123.666
X110.81Y-125.716
X110.89Y-104.766
X110.91Y-56.126
X110.94Y-95.036
X110.97Y-85.536
X111.0Y-101.116
X111.02Y-76.456
X111.08Y-109.536
X111.09Y-113.146
X111.13Y-83.626
X111.21Y-72.426
X111.22Y-59.486
X111.23Y-64.826
X111.29Y-66.696
X111.37Y-65.816
X111.44Y-68.786
X111.47Y-125.716
X111.49Y-116.606
X111.52Y-123.606
X111.61Y-100.486
X111.62Y-104.666
X111.66Y-85.596
X111.69Y-55.416
X111.69Y-95.046
X111.71Y-76.236
X111.73Y-64.086
X111.77Y-109.676
X111.78Y-58.856
X111.82Y-83.686
X111.96Y-112.536
X112.08Y-68.516
X112.09Y-72.366
X112.12Y-125.696
X112.3Y-123.606
X112.32Y-100.026
X112.36Y-94.636
X112.38Y-85.576
X112.38Y-116.496
X112.43Y-105.106
X112.44Y-76.486
X112.45Y-54.626
X112.54Y-63.806
X112.54Y-83.666
X112.56Y-58.106
X112.59Y-97.926
X112.61Y-109.736
X112.67Y-68.076
X112.7Y-99.426
X112.72Y-105.956
X112.74Y-112.626
X112.74Y-125.686
X112.76Y-98.756
X112.84Y-73.046
X113.0Y-94.116
X113.05Y-85.586
X113.08Y-123.626
X113.13Y-97.236
X113.17Y-67.496
X113.21Y-83.676
X113.22Y-116.656
X113.23Y-76.366
X113.33Y-73.636
X113.34Y-109.496
X113.35Y-57.356
X113.39Y-125.686
X113.44Y-64.076
X113.61Y-108.776
X113.66Y-66.926
X113.66Y-112.666
X113.74Y-93.636
X113.75Y-85.616
X113.77Y-75.876
X113.8Y-108.076
X113.81Y-96.666
X113.91Y-83.706
X113.93Y-116.446
X113.96Y-106.306
X113.97Y-123.606
X114.08Y-73.616
X114.08Y-125.746
X114.15Y-66.306
X114.2Y-64.086
X114.3Y-75.266
X114.37Y-53.546
X114.41Y-85.626
X114.41Y-96.116
X114.5Y-62.2
X114.51Y-61.42
X114.52Y-112.566
X114.57Y-83.716
X114.57Y-107.976
X114.67Y-123.676
X114.71Y-116.576
X114.73Y-125.696
X114.84Y-65.866
X114.95Y-63.696
X115.09Y-85.636
X115.25Y-53.206
X115.25Y-83.726
X115.32Y-93.216
X115.36Y-112.816
X115.4Y-55.946
X115.45Y-65.336
X115.45Y-125.706
X115.46Y-123.656
X115.5Y-73.326
X115.58Y-116.626
X115.68Y-63.496
X115.7Y-105.896
X115.79Y-85.646
X115.82Y-75.266
X115.94Y-95.596
X115.95Y-83.736
X116.06Y-112.576
X116.1Y-93.156
X116.12Y-107.846
X116.14Y-53.106
X116.17Y-72.826
X116.18Y-125.716
X116.22Y-123.636
X116.25Y-92.316
X116.31Y-102.71
X116.43Y-116.486
X116.48Y-55.566
X116.48Y-105.396
X116.5Y-75.626
X116.54Y-85.646
X116.64Y-95.476
X116.7Y-83.736
X116.84Y-72.716
X116.86Y-107.516
X116.87Y-125.716
X116.9Y-91.726
X116.95Y-112.726
X116.97Y-123.606
X117.0Y-52.986
X117.08Y-63.046
X117.08Y-65.126
X117.08Y-76.106
X117.18Y-85.636
X117.19Y-104.746
X117.26Y-116.606
X117.34Y-83.726
X117.46Y-113.236
X117.54Y-72.986
X117.54Y-106.986
X117.55Y-125.726
X117.57Y-55.456
X117.57Y-62.326
X117.69Y-95.486
X117.73Y-123.646
X117.86Y-91.536
X117.87Y-76.166
X117.87Y-104.306
X117.88Y-85.626
X117.94Y-64.996
X117.95Y-52.926
X118.02Y-73.606
X118.02Y-113.766
X118.04Y-83.716
X118.04Y-116.446
X118.17Y-106.436
X118.21Y-125.736
X118.39Y-62.246
X118.44Y-115.876
X118.44Y-123.626
X118.51Y-55.416
X118.58Y-103.956
X118.59Y-95.496
X118.62Y-85.646
X118.66Y-75.916
X118.68Y-91.716
X118.68Y-105.876
X118.71Y-73.606
X118.73Y-65.016
X118.78Y-52.906
X118.78Y-83.736
X118.79Y-113.776
X118.85Y-125.746
X118.94Y-115.386
X118.97Y-75.256
X119.07Y-123.606
X119.09Y-92.286
X119.25Y-62.526
X119.32Y-93.286
X119.32Y-103.746
X119.38Y-85.626
X119.45Y-105.436
X119.47Y-55.406
X119.5Y-125.736
X119.51Y-95.636
X119.53Y-73.626
X119.54Y-52.906
X119.54Y-83.716
X119.57Y-65.136
X119.59Y-113.756
X119.64Y-115.376
X119.68Y-75.246
X119.7Y-63.146
X119.73Y-123.616
X120.09Y-103.586
X120.1Y-85.606
X120.13Y-125.726
X120.19Y-105.286
X120.24Y-93.226
X120.26Y-83.696
X120.26Y-95.596
X120.3Y-113.766
X120.31Y-55.346
X120.32Y-73.646
X120.33Y-115.386
X120.35Y-75.316
X120.36Y-123.646
X120.38Y-65.156
X120.42Y-52.946
X120.47Y-63.146
T4
X52.0Y-136.702
X54.0Y-136.702
X56.0Y-136.702
T5
X38.25Y-98.106
X38.25Y-100.138
X38.25Y-102.17
X38.25Y-104.202
X40.03Y-97.09
X40.03Y-99.122
X40.03Y-101.154
X40.03Y-103.186
T6
X38.9Y-50.98
X38.9Y-53.52
X38.9Y-56.06
X38.9Y-58.6
X38.9Y-61.14
X39.0Y-65.82
X39.0Y-68.36
X39.0Y-70.9
X39.0Y-73.44
X39.0Y-77.78
X39.0Y-80.32
X39.0Y-82.86
X39.0Y-85.4
X39.0Y-87.94
X76.74Y-111.17
X85.17Y-112.72
X109.56Y-42.5
X112.1Y-42.5
X114.64Y-42.5
X117.18Y-42.5
T7
X49.9Y-136.702
X58.1Y-136.702
T8
X39.14Y-92.52
X39.14Y-108.78
T9
X41.34Y-44.426
X41.34Y-134.426
X131.34Y-44.426
X131.34Y-134.426
T10
X41.63Y-117.51
X41.63Y-123.29
T11
X42.57Y-94.3
X42.57Y-107.0
T3
G00X38.35Y-116.08
M15
G01X37.55Y-116.08
M16
G05
G00X38.35Y-124.72
M15
G01X37.55Y-124.72
M16
G05
G00X42.7Y-116.08
M15
G01X41.6Y-116.08
M16
G05
G00X42.7Y-124.72
M15
G01X41.6Y-124.72
M16
G05
T6
G00X66.043Y-131.4
M15
G01X68.043Y-131.4
M16
G05
G00X66.043Y-137.4
M15
G01X68.043Y-137.4
M16
G05
G00X71.742Y-135.4
M15
G01X71.742Y-133.4
M16
G05
M30
