%TF.GenerationSoftware,KiCad,Pcbnew,9.0.2*%
%TF.CreationDate,2026-04-06T10:18:15-05:00*%
%TF.ProjectId,Up_Down_Converter,55705f44-6f77-46e5-9f43-6f6e76657274,rev?*%
%TF.SameCoordinates,Original*%
%TF.FileFunction,Copper,L2,Inr*%
%TF.FilePolarity,Positive*%
%FSLAX46Y46*%
G04 Gerber Fmt 4.6, Leading zero omitted, Abs format (unit mm)*
G04 Created by KiCad (PCBNEW 9.0.2) date 2026-04-06 10:18:15*
%MOMM*%
%LPD*%
G01*
G04 APERTURE LIST*
G04 Aperture macros list*
%AMRoundRect*
0 Rectangle with rounded corners*
0 $1 Rounding radius*
0 $2 $3 $4 $5 $6 $7 $8 $9 X,Y pos of 4 corners*
0 Add a 4 corners polygon primitive as box body*
4,1,4,$2,$3,$4,$5,$6,$7,$8,$9,$2,$3,0*
0 Add four circle primitives for the rounded corners*
1,1,$1+$1,$2,$3*
1,1,$1+$1,$4,$5*
1,1,$1+$1,$6,$7*
1,1,$1+$1,$8,$9*
0 Add four rect primitives between the rounded corners*
20,1,$1+$1,$2,$3,$4,$5,0*
20,1,$1+$1,$4,$5,$6,$7,0*
20,1,$1+$1,$6,$7,$8,$9,0*
20,1,$1+$1,$8,$9,$2,$3,0*%
G04 Aperture macros list end*
%TA.AperFunction,ComponentPad*%
%ADD10C,6.400000*%
%TD*%
%TA.AperFunction,HeatsinkPad*%
%ADD11O,2.100000X1.000000*%
%TD*%
%TA.AperFunction,HeatsinkPad*%
%ADD12O,1.800000X1.000000*%
%TD*%
%TA.AperFunction,ComponentPad*%
%ADD13C,2.000000*%
%TD*%
%TA.AperFunction,ComponentPad*%
%ADD14O,2.200000X3.500000*%
%TD*%
%TA.AperFunction,ComponentPad*%
%ADD15R,1.500000X2.500000*%
%TD*%
%TA.AperFunction,ComponentPad*%
%ADD16O,1.500000X2.500000*%
%TD*%
%TA.AperFunction,ComponentPad*%
%ADD17R,1.700000X1.700000*%
%TD*%
%TA.AperFunction,ComponentPad*%
%ADD18C,1.700000*%
%TD*%
%TA.AperFunction,ComponentPad*%
%ADD19R,3.500000X3.500000*%
%TD*%
%TA.AperFunction,ComponentPad*%
%ADD20RoundRect,0.750000X1.000000X-0.750000X1.000000X0.750000X-1.000000X0.750000X-1.000000X-0.750000X0*%
%TD*%
%TA.AperFunction,ComponentPad*%
%ADD21RoundRect,0.875000X0.875000X-0.875000X0.875000X0.875000X-0.875000X0.875000X-0.875000X-0.875000X0*%
%TD*%
%TA.AperFunction,ComponentPad*%
%ADD22C,0.499999*%
%TD*%
%TA.AperFunction,ComponentPad*%
%ADD23R,1.500000X1.500000*%
%TD*%
%TA.AperFunction,ComponentPad*%
%ADD24C,1.500000*%
%TD*%
%TA.AperFunction,ComponentPad*%
%ADD25C,2.300000*%
%TD*%
%TA.AperFunction,ViaPad*%
%ADD26C,0.600000*%
%TD*%
G04 APERTURE END LIST*
D10*
%TO.N,GND*%
%TO.C,H1*%
X131340389Y-44426339D03*
%TD*%
D11*
%TO.N,unconnected-(J8-SHIELD-PadS1)_3*%
%TO.C,J8*%
X42150000Y-116080000D03*
D12*
%TO.N,unconnected-(J8-SHIELD-PadS1)*%
X37950000Y-116080000D03*
D11*
%TO.N,unconnected-(J8-SHIELD-PadS1)_2*%
X42150000Y-124720000D03*
D12*
%TO.N,unconnected-(J8-SHIELD-PadS1)_1*%
X37950000Y-124720000D03*
%TD*%
D13*
%TO.N,Net-(U10-OUT)*%
%TO.C,TP2*%
X85170000Y-112720000D03*
%TD*%
D14*
%TO.N,*%
%TO.C,SW1*%
X58100000Y-136702500D03*
X49900000Y-136702500D03*
D15*
%TO.N,+20V*%
X56000000Y-136702500D03*
D16*
%TO.N,VSWITCH*%
X54000000Y-136702500D03*
%TO.N,VBUS*%
X52000000Y-136702500D03*
%TD*%
D17*
%TO.N,NSS*%
%TO.C,J1*%
X39000000Y-65820000D03*
D18*
%TO.N,SCK*%
X39000000Y-68360000D03*
%TO.N,MISO*%
X39000000Y-70900000D03*
%TO.N,MOSI*%
X39000000Y-73440000D03*
%TD*%
D19*
%TO.N,+20V*%
%TO.C,J7*%
X67042500Y-131400000D03*
D20*
%TO.N,GND*%
X67042500Y-137400000D03*
D21*
X71742500Y-134400000D03*
%TD*%
D10*
%TO.N,GND*%
%TO.C,H4*%
X41340389Y-134426339D03*
%TD*%
D22*
%TO.N,N/C*%
%TO.C,U4*%
X57430000Y-112242500D03*
X56330000Y-112242500D03*
X55230000Y-112242500D03*
%TD*%
D13*
%TO.N,Net-(D1-A)*%
%TO.C,TP1*%
X76740000Y-111170000D03*
%TD*%
D17*
%TO.N,NSS3*%
%TO.C,J4*%
X109560000Y-42500000D03*
D18*
%TO.N,NSS4*%
X112100000Y-42500000D03*
%TO.N,NSS5*%
X114640000Y-42500000D03*
%TO.N,NSS6*%
X117180000Y-42500000D03*
%TD*%
D10*
%TO.N,GND*%
%TO.C,H2*%
X131340389Y-134426339D03*
%TD*%
D17*
%TO.N,VPOS4R*%
%TO.C,J14*%
X39000000Y-77780000D03*
D18*
%TO.N,Net-(J14-Pin_2)*%
X39000000Y-80320000D03*
%TO.N,Net-(J14-Pin_3)*%
X39000000Y-82860000D03*
%TO.N,Net-(J14-Pin_4)*%
X39000000Y-85400000D03*
%TO.N,GND*%
X39000000Y-87940000D03*
%TD*%
D23*
%TO.N,IFOUT1+*%
%TO.C,J6*%
X40030000Y-97090000D03*
D24*
%TO.N,IFOUT1-*%
X38250000Y-98106000D03*
%TO.N,IFOUT2+*%
X40030000Y-99122000D03*
%TO.N,IFOUT3+*%
X38250000Y-100138000D03*
%TO.N,IFOUT3-*%
X40030000Y-101154000D03*
%TO.N,IFOUT2-*%
X38250000Y-102170000D03*
%TO.N,IFOUT4+*%
X40030000Y-103186000D03*
%TO.N,IFOUT4-*%
X38250000Y-104202000D03*
D25*
%TO.N,GND*%
X39140000Y-92520000D03*
X39140000Y-108780000D03*
%TD*%
D10*
%TO.N,GND*%
%TO.C,H3*%
X41340389Y-44426339D03*
%TD*%
D17*
%TO.N,MRST*%
%TO.C,J5*%
X38900000Y-61140000D03*
D18*
%TO.N,MADV*%
X38900000Y-58600000D03*
%TO.N,TXRST*%
X38900000Y-56060000D03*
%TO.N,TXADV*%
X38900000Y-53520000D03*
%TO.N,+1V8*%
X38900000Y-50980000D03*
%TD*%
D26*
%TO.N,VPOS4R*%
X68600000Y-116730000D03*
X100870000Y-117070000D03*
X106920000Y-79160000D03*
X98538806Y-69142500D03*
X91060000Y-109480000D03*
X102880000Y-62410000D03*
X116310000Y-102710000D03*
X63200000Y-114070000D03*
X106410000Y-65220000D03*
X98020000Y-77300000D03*
X98600000Y-66110000D03*
%TO.N,+3.3V*%
X44920000Y-126930000D03*
X50355000Y-125505000D03*
%TO.N,VBUS*%
X46292111Y-118020000D03*
%TO.N,+1V8*%
X78650000Y-109250000D03*
X61470000Y-111160000D03*
X55900000Y-110200000D03*
X97020000Y-103610000D03*
%TO.N,VPOS2*%
X98975982Y-69902036D03*
%TO.N,MOSI*%
X95440000Y-113180000D03*
X99640000Y-77950000D03*
X98600000Y-98090000D03*
X74550000Y-112130000D03*
X97200000Y-80690000D03*
X50090000Y-77510000D03*
X100140032Y-99333672D03*
%TO.N,SCK*%
X98000000Y-91460000D03*
X98970000Y-100890000D03*
X48890000Y-74190000D03*
X55890000Y-96180000D03*
%TO.N,MISO*%
X37330000Y-94200000D03*
X61970000Y-101820000D03*
X101885235Y-94530000D03*
X83450000Y-98010000D03*
X75450000Y-99970000D03*
%TO.N,VTUNE*%
X75470000Y-87620000D03*
X81240000Y-114770000D03*
%TO.N,NSS3*%
X92560000Y-78730000D03*
X99560000Y-79820000D03*
%TO.N,NSS4*%
X101285235Y-88020000D03*
%TO.N,IFOUT4+*%
X68970521Y-90639479D03*
X47095000Y-99280000D03*
X81089479Y-92519479D03*
X105025000Y-91400000D03*
%TO.N,VCC_LDO_3V*%
X71040000Y-80560000D03*
X70510000Y-84610000D03*
%TO.N,IFOUT3+*%
X45335000Y-97870000D03*
X103405000Y-84180000D03*
%TO.N,IFOUT2+*%
X80895000Y-96070000D03*
X95555787Y-109040787D03*
X70200000Y-94295000D03*
%TO.N,IFOUT1+*%
X84759479Y-110980521D03*
X94620000Y-110555000D03*
X49710000Y-97345000D03*
%TO.N,IFOUT2-*%
X70200000Y-93445000D03*
X95555787Y-108190787D03*
X81745000Y-96070000D03*
%TO.N,IFOUT4-*%
X104175000Y-91400000D03*
X81690521Y-93120521D03*
X68369479Y-91240521D03*
X47945000Y-99280000D03*
%TO.N,IFOUT3-*%
X102555000Y-84180000D03*
X46185000Y-97870000D03*
%TO.N,IFOUT1-*%
X49710000Y-96495000D03*
X94620000Y-109705000D03*
X85360521Y-110379479D03*
%TO.N,GND*%
X73330000Y-71860000D03*
X67630000Y-46930000D03*
X60000000Y-110000000D03*
X72600000Y-73250000D03*
X107030389Y-102996339D03*
X82280000Y-103610000D03*
X118390389Y-62246339D03*
X93000000Y-92000000D03*
X77270000Y-78250000D03*
X54390000Y-55010000D03*
X74650000Y-60100000D03*
X113130389Y-97236339D03*
X107240389Y-113206339D03*
X79830000Y-111940000D03*
X108380000Y-76660000D03*
X116060389Y-112576339D03*
X76410000Y-81850000D03*
X101810000Y-105510000D03*
X87000000Y-85000000D03*
X81920000Y-105620000D03*
X49300000Y-121240000D03*
X61000000Y-110000000D03*
X60530000Y-59020000D03*
X111020389Y-76456339D03*
X95885000Y-50165000D03*
X119070389Y-123606339D03*
X49000000Y-112000000D03*
X107930389Y-66346339D03*
X82350000Y-81950000D03*
X97230389Y-118616339D03*
X106970389Y-63766339D03*
X94000000Y-103000000D03*
X94230000Y-119270000D03*
X118790389Y-113776339D03*
X117080389Y-65126339D03*
X73830000Y-72360000D03*
X114410389Y-85626339D03*
X69310000Y-47250000D03*
X116700389Y-83736339D03*
X53000000Y-108000000D03*
X66780000Y-67360000D03*
X58880000Y-57330000D03*
X104710389Y-81226339D03*
X93080000Y-65560000D03*
X82010000Y-100970000D03*
X105530389Y-68936339D03*
X79330000Y-67440000D03*
X88900000Y-53340000D03*
X102670389Y-64386339D03*
X92320000Y-115810000D03*
X75230000Y-84270000D03*
X83150000Y-114760000D03*
X83820000Y-53975000D03*
X94000000Y-77000000D03*
X106200389Y-82716339D03*
X85090000Y-50165000D03*
X117550389Y-125726339D03*
X97790000Y-46355000D03*
X79380000Y-68140000D03*
X96000000Y-77000000D03*
X54000000Y-118000000D03*
X112670389Y-68076339D03*
X115250389Y-83726339D03*
X104460000Y-72710000D03*
X74830000Y-73400000D03*
X109560389Y-76106339D03*
X96000000Y-94000000D03*
X94000000Y-82000000D03*
X70460000Y-71130000D03*
X119090389Y-92286339D03*
X106050389Y-125756339D03*
X109280389Y-75436339D03*
X93000000Y-102000000D03*
X56820000Y-55280000D03*
X86995000Y-70485000D03*
X76880000Y-77550000D03*
X107730389Y-81236339D03*
X93000000Y-80000000D03*
X103820389Y-80016339D03*
X112560389Y-58106339D03*
X83360000Y-113720000D03*
X107930389Y-97486339D03*
X83820000Y-62865000D03*
X95370000Y-119340000D03*
X62690000Y-61150000D03*
X66240000Y-66860000D03*
X94000000Y-71000000D03*
X115700389Y-105896339D03*
X119470389Y-55406339D03*
X85090000Y-49530000D03*
X52650000Y-51110000D03*
X97210389Y-112556339D03*
X93250000Y-114990000D03*
X82550000Y-73025000D03*
X110090389Y-116126339D03*
X53000000Y-120000000D03*
X61290000Y-114840000D03*
X96000000Y-88000000D03*
X109430389Y-57226339D03*
X55000000Y-109000000D03*
X50000000Y-109000000D03*
X82440000Y-104380000D03*
X109140389Y-113716339D03*
X83820000Y-67945000D03*
X79840000Y-101750000D03*
X110270389Y-109606339D03*
X103400389Y-70486339D03*
X107390389Y-115206339D03*
X117080389Y-63046339D03*
X99900389Y-110426339D03*
X89100000Y-113810000D03*
X63590000Y-64140000D03*
X113750389Y-85616339D03*
X96000000Y-71000000D03*
X106470389Y-103556339D03*
X113660389Y-66926339D03*
X118510389Y-55416339D03*
X83000000Y-85000000D03*
X115320389Y-93216339D03*
X110160389Y-95256339D03*
X92800000Y-120080000D03*
X63730000Y-62230000D03*
X112120389Y-125696339D03*
X96000000Y-97000000D03*
X83820000Y-48260000D03*
X105400389Y-123606339D03*
X113000389Y-94116339D03*
X110700389Y-116566339D03*
X83820000Y-66040000D03*
X81200000Y-80010000D03*
X105470389Y-79526339D03*
X79010000Y-62540000D03*
X118940389Y-115386339D03*
X75180000Y-60660000D03*
X103320389Y-125506339D03*
X93000000Y-99000000D03*
X61460000Y-62040000D03*
X101960389Y-121826339D03*
X98990000Y-76550000D03*
X53000000Y-118000000D03*
X114500000Y-62200000D03*
X116140389Y-53106339D03*
X82550000Y-73660000D03*
X101120000Y-62160000D03*
X84000000Y-85000000D03*
X98760000Y-61890000D03*
X96000000Y-100000000D03*
X98240389Y-108976339D03*
X118620389Y-85646339D03*
X83820000Y-55245000D03*
X111710389Y-76236339D03*
X110160389Y-104676339D03*
X56040000Y-56680000D03*
X89400000Y-103610000D03*
X104040389Y-110176339D03*
X105110389Y-78966339D03*
X73080000Y-73790000D03*
X86995000Y-67945000D03*
X99660389Y-122546339D03*
X108160389Y-123626339D03*
X105700389Y-71676339D03*
X88265000Y-53975000D03*
X69060000Y-97120000D03*
X104430389Y-62556339D03*
X49000000Y-108000000D03*
X67600000Y-46160000D03*
X72890000Y-78870000D03*
X54390000Y-49440000D03*
X111520389Y-123606339D03*
X111000389Y-101116339D03*
X106400389Y-80576339D03*
X63050000Y-63640000D03*
X87980000Y-113950000D03*
X117540389Y-72986339D03*
X54610000Y-52910000D03*
X108710389Y-69416339D03*
X111440389Y-68786339D03*
X93000000Y-91000000D03*
X119730389Y-123616339D03*
X77600000Y-64420000D03*
X110890389Y-104766339D03*
X76000000Y-59010000D03*
X54340000Y-47820000D03*
X57820000Y-56310000D03*
X67470000Y-65970000D03*
X75900000Y-74450000D03*
X118680389Y-91716339D03*
X106050389Y-114466339D03*
X57540000Y-79470000D03*
X79970000Y-75570000D03*
X83820000Y-68580000D03*
X80620000Y-90580000D03*
X105070389Y-62006339D03*
X82000000Y-84000000D03*
X72120000Y-55100000D03*
X96000000Y-68000000D03*
X113610389Y-108776339D03*
X88980000Y-80990000D03*
X110390000Y-63260000D03*
X78850000Y-111020000D03*
X86995000Y-56515000D03*
X101895355Y-110281373D03*
X113390389Y-125686339D03*
X99360389Y-112576339D03*
X54350000Y-48620000D03*
X86995000Y-63500000D03*
X75790000Y-76430000D03*
X116500389Y-75626339D03*
X53000000Y-117000000D03*
X52950000Y-79560000D03*
X85090000Y-47625000D03*
X61080000Y-59540000D03*
X56000000Y-109000000D03*
X69410000Y-46380000D03*
X87630000Y-54610000D03*
X114950389Y-63696339D03*
X86995000Y-73025000D03*
X49340000Y-119740000D03*
X112430389Y-105106339D03*
X106640389Y-83176339D03*
X86995000Y-72390000D03*
X54000000Y-115000000D03*
X78550000Y-100360000D03*
X98720000Y-61030000D03*
X85090000Y-51435000D03*
X54000000Y-108000000D03*
X94000000Y-74000000D03*
X94000000Y-78000000D03*
X113080389Y-123626339D03*
X86820000Y-107710000D03*
X91440000Y-48895000D03*
X83820000Y-51435000D03*
X85090000Y-52070000D03*
X110110389Y-123606339D03*
X108760389Y-109596339D03*
X116970389Y-123606339D03*
X77700000Y-70890000D03*
X93000000Y-95000000D03*
X108820389Y-84956339D03*
X107740000Y-78000000D03*
X73570000Y-58950000D03*
X106230389Y-68896339D03*
X105680389Y-82246339D03*
X112740389Y-125686339D03*
X87280000Y-80540000D03*
X79400000Y-71800000D03*
X93000000Y-98000000D03*
X86995000Y-62865000D03*
X96000000Y-93000000D03*
X75142629Y-82943269D03*
X96000000Y-101000000D03*
X80260000Y-105710000D03*
X54200000Y-78130000D03*
X77020000Y-75540000D03*
X102420389Y-122236339D03*
X52000000Y-122000000D03*
X72660000Y-55740000D03*
X83820000Y-64135000D03*
X104970389Y-113456339D03*
X85150000Y-81520000D03*
X107280389Y-69916339D03*
X70990000Y-54030000D03*
X120260389Y-83696339D03*
X106610389Y-70316339D03*
X94000000Y-85000000D03*
X111370389Y-65816339D03*
X106400389Y-99886339D03*
X94000000Y-72000000D03*
X90170000Y-52070000D03*
X119320389Y-103746339D03*
X113440389Y-64076339D03*
X79400000Y-71070000D03*
X74140000Y-74810000D03*
X116430389Y-116486339D03*
X81000000Y-84000000D03*
X94050000Y-116320000D03*
X79330000Y-66780000D03*
X59300000Y-59910000D03*
X116860389Y-107516339D03*
X65890000Y-64360000D03*
X101530000Y-63040000D03*
X99440389Y-118516339D03*
X64110000Y-64660000D03*
X109840389Y-113726339D03*
X117730389Y-123646339D03*
X108650389Y-66096339D03*
X113050389Y-85586339D03*
X96000000Y-96000000D03*
X96000000Y-75000000D03*
X116180389Y-125716339D03*
X119700389Y-63146339D03*
X49000000Y-109000000D03*
X67460000Y-85840000D03*
X112590389Y-97926339D03*
X94890000Y-120080000D03*
X120310389Y-55346339D03*
X82290000Y-101960000D03*
X116480389Y-105396339D03*
X69630000Y-68080000D03*
X50000000Y-108000000D03*
X87010000Y-78830000D03*
X96520000Y-50165000D03*
X117870389Y-104306339D03*
X88265000Y-52070000D03*
X117340389Y-83726339D03*
X114570389Y-83716339D03*
X97160389Y-113936339D03*
X113660389Y-112666339D03*
X60000000Y-109000000D03*
X117690389Y-95486339D03*
X117870389Y-76166339D03*
X83820000Y-64770000D03*
X53000000Y-114000000D03*
X77650000Y-65050000D03*
X115090389Y-85636339D03*
X83820000Y-54610000D03*
X120380389Y-65156339D03*
X103980389Y-125676339D03*
X83185000Y-69850000D03*
X53000000Y-116000000D03*
X57000000Y-109000000D03*
X82770000Y-105310000D03*
X111130389Y-83626339D03*
X93345000Y-50165000D03*
X112700389Y-99426339D03*
X50000000Y-110000000D03*
X53000000Y-124000000D03*
X113220389Y-116656339D03*
X103380389Y-111816339D03*
X108810389Y-74836339D03*
X92230000Y-119270000D03*
X113770389Y-75876339D03*
X58000000Y-109000000D03*
X113170389Y-67496339D03*
X54450000Y-51120000D03*
X104370000Y-74780000D03*
X93200000Y-115800000D03*
X107420389Y-109346339D03*
X97790000Y-48260000D03*
X108190389Y-84536339D03*
X44100000Y-116880000D03*
X95000000Y-69000000D03*
X101080389Y-123976339D03*
X97000000Y-77000000D03*
X117570389Y-62326339D03*
X69440000Y-51380000D03*
X56250000Y-78200000D03*
X108060389Y-69846339D03*
X74380000Y-57470000D03*
X105510389Y-113956339D03*
X112080389Y-68516339D03*
X99950000Y-107420000D03*
X73830000Y-56930000D03*
X66470000Y-64940000D03*
X96000000Y-99000000D03*
X116170389Y-72826339D03*
X97190389Y-116676339D03*
X108070389Y-125736339D03*
X117570389Y-55456339D03*
X100020389Y-115726339D03*
X79360000Y-70290000D03*
X79860000Y-111130000D03*
X114520389Y-112566339D03*
X59850000Y-60430000D03*
X97155000Y-49530000D03*
X75690000Y-61240000D03*
X92600000Y-105470000D03*
X101080389Y-70486339D03*
X113330389Y-73636339D03*
X85090000Y-48895000D03*
X113740389Y-93636339D03*
X96660000Y-70070000D03*
X83060000Y-81940000D03*
X97370389Y-119256339D03*
X96000000Y-73000000D03*
X114080389Y-73616339D03*
X63000000Y-115000000D03*
X53000000Y-115000000D03*
X56590000Y-57200000D03*
X57270000Y-55790000D03*
X101640000Y-107410000D03*
X86995000Y-69215000D03*
X62050000Y-62610000D03*
X108420389Y-96926339D03*
X74920000Y-58030000D03*
X109110389Y-102756339D03*
X112380389Y-85576339D03*
X92710000Y-48895000D03*
X77300000Y-78990000D03*
X108210000Y-78580000D03*
X111470389Y-125716339D03*
X74160000Y-59560000D03*
X118850389Y-125746339D03*
X79230000Y-63970000D03*
X95885000Y-48260000D03*
X102340389Y-65156339D03*
X108310389Y-74316339D03*
X93870000Y-120060000D03*
X94000000Y-76000000D03*
X65690000Y-66340000D03*
X105530389Y-69756339D03*
X76540000Y-73790000D03*
X99170389Y-122076339D03*
X54340000Y-47050000D03*
X83820000Y-57150000D03*
X52650000Y-52060000D03*
X55620000Y-54120000D03*
X102200389Y-65886339D03*
X89980000Y-85400000D03*
X54420000Y-50300000D03*
X76240389Y-83026339D03*
X68630000Y-119710000D03*
X110140389Y-56826339D03*
X94000000Y-79000000D03*
X108450389Y-82626339D03*
X61000000Y-109000000D03*
X117940389Y-64996339D03*
X105630389Y-107956339D03*
X69680000Y-55150000D03*
X69080000Y-67580000D03*
X107030389Y-107966339D03*
X102400389Y-110806339D03*
X86995000Y-57150000D03*
X95250000Y-50165000D03*
X108470389Y-113666339D03*
X111960389Y-112536339D03*
X115580389Y-116626339D03*
X117190389Y-104746339D03*
X107070389Y-108686339D03*
X96000000Y-95000000D03*
X60390000Y-60930000D03*
X119250389Y-62526339D03*
X97250389Y-111786339D03*
X106840389Y-60136339D03*
X114410389Y-96116339D03*
X79210000Y-63270000D03*
X97000000Y-79000000D03*
X52680000Y-46370000D03*
X67620000Y-51690000D03*
X109160389Y-72836339D03*
X110710389Y-68856339D03*
X115450389Y-65336339D03*
X104460000Y-74060000D03*
X113960389Y-106306339D03*
X83820000Y-50165000D03*
X100450389Y-120386339D03*
X86995000Y-64770000D03*
X85090000Y-48260000D03*
X100730000Y-104600000D03*
X92020000Y-80800000D03*
X110010389Y-102156339D03*
X86995000Y-55880000D03*
X107140389Y-70806339D03*
X67730000Y-52630000D03*
X112760389Y-98756339D03*
X52000000Y-108000000D03*
X83820000Y-56515000D03*
X100746556Y-107420172D03*
X101490389Y-121336339D03*
X110970389Y-85536339D03*
X80070000Y-72230000D03*
X41000000Y-129000000D03*
X105430389Y-104556339D03*
X112540389Y-63806339D03*
X83780000Y-107380000D03*
X96000000Y-79000000D03*
X87630000Y-52705000D03*
X90805000Y-51435000D03*
X69650000Y-45570000D03*
X69920000Y-70540000D03*
X67620000Y-50850000D03*
X118440389Y-123626339D03*
X81960000Y-74450000D03*
X120420389Y-52946339D03*
X97350000Y-69370000D03*
X96000000Y-91000000D03*
X60910000Y-61450000D03*
X95360000Y-117600000D03*
X115940389Y-95596339D03*
X60000000Y-108000000D03*
X67300000Y-67880000D03*
X86995000Y-59055000D03*
X75760000Y-95810000D03*
X110020389Y-68886339D03*
X102940389Y-77876339D03*
X106720389Y-125756339D03*
X107340389Y-58816339D03*
X110510389Y-72966339D03*
X86995000Y-71755000D03*
X57650000Y-58220000D03*
X89535000Y-50800000D03*
X79260000Y-64610000D03*
X79290000Y-66070000D03*
X77700000Y-66380000D03*
X53080000Y-53830000D03*
X86790000Y-79580000D03*
X113230389Y-76366339D03*
X81590000Y-81970000D03*
X108050389Y-81926339D03*
X117260389Y-116606339D03*
X87020000Y-109580000D03*
X103200389Y-78856339D03*
X111610389Y-100486339D03*
X97300389Y-110946339D03*
X86995000Y-62230000D03*
X50270000Y-118010000D03*
X118170389Y-106436339D03*
X68010000Y-66470000D03*
X77560000Y-63630000D03*
X91430000Y-106580000D03*
X98850000Y-106440000D03*
X83820000Y-62230000D03*
X80260000Y-103930000D03*
X118660389Y-75916339D03*
X69370000Y-50620000D03*
X88910000Y-74650000D03*
X113910389Y-83706339D03*
X98000000Y-67000000D03*
X105570389Y-106286339D03*
X113810389Y-96666339D03*
X83820000Y-47625000D03*
X110940389Y-95036339D03*
X100010389Y-114966339D03*
X71150000Y-69650000D03*
X78860000Y-111750000D03*
X102900389Y-111286339D03*
X79260000Y-77520000D03*
X77720000Y-70110000D03*
X83820000Y-59690000D03*
X77700000Y-69330000D03*
X107550389Y-84086339D03*
X77660000Y-84390000D03*
X86995000Y-66040000D03*
X116840389Y-72716339D03*
X89970000Y-80990000D03*
X117950389Y-52926339D03*
X104400389Y-75476339D03*
X108450389Y-104916339D03*
X52760000Y-47040000D03*
X51000000Y-109000000D03*
X90170000Y-50165000D03*
X109500389Y-95766339D03*
X62140000Y-60560000D03*
X77670000Y-106060000D03*
X120360389Y-123646339D03*
X118710389Y-73606339D03*
X86995000Y-67310000D03*
X71330000Y-82180000D03*
X106320389Y-100806339D03*
X120260389Y-95596339D03*
X102890389Y-122666339D03*
X83820000Y-58420000D03*
X118440389Y-115876339D03*
X95885000Y-46355000D03*
X54450000Y-52070000D03*
X68530000Y-66990000D03*
X114300389Y-75266339D03*
X69410000Y-49770000D03*
X49340000Y-117940000D03*
X77790000Y-68610000D03*
X109480389Y-125726339D03*
X119540389Y-83716339D03*
X68740000Y-87060000D03*
X55000000Y-117000000D03*
X100740000Y-102860000D03*
X114570389Y-107976339D03*
X119380389Y-85626339D03*
X96000000Y-92000000D03*
X103130389Y-63746339D03*
X106600389Y-69506339D03*
X114710389Y-116576339D03*
X95885000Y-47625000D03*
X70640000Y-91370000D03*
X76730000Y-72990000D03*
X91010000Y-80980000D03*
X118020389Y-73606339D03*
X52000000Y-121000000D03*
X113970389Y-123606339D03*
X90770000Y-107150000D03*
X100590389Y-123486339D03*
X106310389Y-64256339D03*
X83820000Y-55880000D03*
X97180389Y-115996339D03*
X71580000Y-54540000D03*
X116870389Y-125716339D03*
X72170000Y-70770000D03*
X93980000Y-50165000D03*
X54720000Y-45680000D03*
X54420000Y-46380000D03*
X98872723Y-105546339D03*
X119320389Y-93286339D03*
X53000000Y-119000000D03*
X115400389Y-55946339D03*
X102700389Y-74646339D03*
X99780000Y-105540000D03*
X99740389Y-114366339D03*
X77140000Y-60150000D03*
X118210389Y-125736339D03*
X104370389Y-76266339D03*
X77710000Y-67870000D03*
X93980000Y-48895000D03*
X106350389Y-107946339D03*
X86995000Y-64135000D03*
X104720389Y-123546339D03*
X109690389Y-83326339D03*
X83820000Y-49530000D03*
X120330389Y-115386339D03*
X74310000Y-72900000D03*
X92420000Y-115020000D03*
X52710000Y-52910000D03*
X72780000Y-86520000D03*
X77710000Y-67120000D03*
X75450000Y-58510000D03*
X86995000Y-59690000D03*
X69290000Y-48090000D03*
X82550000Y-79375000D03*
X120300389Y-113766339D03*
X67630000Y-50060000D03*
X109900000Y-62660000D03*
X106200389Y-60796339D03*
X119500389Y-125736339D03*
X115790389Y-85646339D03*
X57000000Y-108000000D03*
X79240000Y-78250000D03*
X120190389Y-105286339D03*
X111690389Y-95046339D03*
X79260000Y-65360000D03*
X86995000Y-55245000D03*
X107050389Y-80906339D03*
X82550000Y-71755000D03*
X107210389Y-66356339D03*
X87700000Y-107420000D03*
X111090389Y-113146339D03*
X98850000Y-104730000D03*
X119530389Y-73626339D03*
X110800389Y-123666339D03*
X109920389Y-61556339D03*
X113210389Y-83676339D03*
X100260000Y-60990000D03*
X100000389Y-119826339D03*
X114080389Y-125746339D03*
X104560389Y-110696339D03*
X97820389Y-120486339D03*
X75260000Y-75890000D03*
X105120389Y-111196339D03*
X111620389Y-104666339D03*
X108140389Y-71826339D03*
X97790000Y-47625000D03*
X107110389Y-83636339D03*
X93345000Y-48895000D03*
X67620000Y-47690000D03*
X102640000Y-106350000D03*
X103380389Y-123066339D03*
X84540000Y-81890000D03*
X83820000Y-48895000D03*
X113340389Y-109496339D03*
X86995000Y-69850000D03*
X83840000Y-106350000D03*
X119540389Y-52906339D03*
X94040000Y-62510000D03*
X93000000Y-94000000D03*
X93220000Y-119260000D03*
X102670389Y-73976339D03*
X111230389Y-64826339D03*
X102240000Y-101050000D03*
X115820389Y-75266339D03*
X94615000Y-50165000D03*
X62500000Y-63120000D03*
X106170389Y-105666339D03*
X111220389Y-59486339D03*
X104440389Y-77026339D03*
X115250389Y-53206339D03*
X116900389Y-91726339D03*
X103490389Y-79396339D03*
X82010000Y-75210000D03*
X97790000Y-48895000D03*
X49000000Y-110000000D03*
X109480389Y-123616339D03*
X59050000Y-87280000D03*
X118730389Y-65016339D03*
X70940000Y-71660000D03*
X44100000Y-115150000D03*
X93000000Y-88000000D03*
X113800389Y-108076339D03*
X109740389Y-115596339D03*
X118780389Y-83736339D03*
X71510000Y-72250000D03*
X100740000Y-108350000D03*
X68400000Y-68970000D03*
X65240000Y-65830000D03*
X94000000Y-75000000D03*
X104250389Y-80676339D03*
X93970000Y-104340000D03*
X80540000Y-111580000D03*
X112740389Y-112626339D03*
X116950389Y-112726339D03*
X52000000Y-123000000D03*
X104600389Y-77706339D03*
X86995000Y-71120000D03*
X86000000Y-85000000D03*
X77970000Y-95600000D03*
X110540389Y-113786339D03*
X96000000Y-80000000D03*
X85090000Y-53340000D03*
X107440389Y-63236339D03*
X102660389Y-73356339D03*
X67320000Y-45460000D03*
X63910000Y-87060000D03*
X94000000Y-70000000D03*
X112090389Y-72366339D03*
X54000000Y-117000000D03*
X119450389Y-105436339D03*
X120100389Y-85606339D03*
X95250000Y-48895000D03*
X85090000Y-53975000D03*
X112380389Y-116496339D03*
X86410000Y-80300000D03*
X49000000Y-111000000D03*
X95000000Y-86000000D03*
X64280000Y-62750000D03*
X104430389Y-112916339D03*
X83820000Y-52705000D03*
X93000000Y-84000000D03*
X102970389Y-109066339D03*
X99620389Y-119226339D03*
X50220000Y-121220000D03*
X103510000Y-105550000D03*
X69930000Y-52910000D03*
X88090000Y-80960000D03*
X77530000Y-72650000D03*
X106730389Y-72706339D03*
X77701297Y-83034650D03*
X108800389Y-125736339D03*
X87860000Y-109670000D03*
X117460389Y-113236339D03*
X75300000Y-81800000D03*
X118040389Y-83716339D03*
X101760000Y-103730000D03*
X110810389Y-125716339D03*
X116540389Y-85646339D03*
X54940000Y-55600000D03*
X102620389Y-105546339D03*
X106430389Y-99126339D03*
X120130389Y-125726339D03*
X80500000Y-73570000D03*
X83820000Y-59055000D03*
X114370389Y-53546339D03*
X109510389Y-109496339D03*
X77540000Y-100080000D03*
X105740389Y-101436339D03*
X107310389Y-73286339D03*
X85725000Y-54610000D03*
X118590389Y-95496339D03*
X111780389Y-58856339D03*
X119570389Y-65136339D03*
X112440389Y-76486339D03*
X83820000Y-50800000D03*
X76350000Y-84310000D03*
X97160389Y-114576339D03*
X75370000Y-73920000D03*
X85090000Y-46990000D03*
X97610389Y-110176339D03*
X67620000Y-48450000D03*
X105210389Y-101966339D03*
X78540000Y-106060000D03*
X97000000Y-67000000D03*
X77750000Y-74850000D03*
X87990000Y-73640000D03*
X52680000Y-50290000D03*
X111490389Y-116606339D03*
X59000000Y-110000000D03*
X116250389Y-92316339D03*
X95000000Y-82000000D03*
X97210389Y-115286339D03*
X83820000Y-69215000D03*
X111210389Y-72426339D03*
X54000000Y-116000000D03*
X111770389Y-109676339D03*
X67850000Y-68470000D03*
X92075000Y-48895000D03*
X102700389Y-76156339D03*
X115460389Y-123656339D03*
X79310000Y-75940000D03*
X44080000Y-116050000D03*
X107670389Y-104676339D03*
X66920000Y-65450000D03*
X79360000Y-68920000D03*
X80360000Y-72850000D03*
X114150389Y-66306339D03*
X96000000Y-74000000D03*
X107390389Y-97986339D03*
X119510389Y-95636339D03*
X54000000Y-114000000D03*
X106770389Y-98406339D03*
X86889489Y-116023732D03*
X41050000Y-111200000D03*
X118680389Y-105876339D03*
X70460000Y-53470000D03*
X98200389Y-121056339D03*
X86920000Y-115220000D03*
X56170000Y-54710000D03*
X83820000Y-81915000D03*
X104410000Y-73370000D03*
X89150000Y-114640000D03*
X120240389Y-93226339D03*
X72180000Y-79520000D03*
X106160389Y-112186339D03*
X104040389Y-123376339D03*
X86995000Y-73660000D03*
X65340000Y-63770000D03*
X110390389Y-60916339D03*
X71460000Y-79810000D03*
X107690389Y-57956339D03*
X82550000Y-87390000D03*
X106640389Y-112716339D03*
X110910389Y-56126339D03*
X94150000Y-65570000D03*
X74670000Y-75340000D03*
X71400000Y-56880000D03*
X89040000Y-85240000D03*
X83320000Y-112830000D03*
X119680389Y-75246339D03*
X111080389Y-109536339D03*
X92710000Y-50165000D03*
X112320389Y-100026339D03*
X94000000Y-73000000D03*
X68010000Y-53440000D03*
X105630389Y-111676339D03*
X119640389Y-115376339D03*
X112720389Y-105956339D03*
X112610389Y-109736339D03*
X109900389Y-66796339D03*
X94615000Y-48895000D03*
X120320389Y-73646339D03*
X60080000Y-58510000D03*
X115450389Y-125706339D03*
X115500389Y-73326339D03*
X105920389Y-80066339D03*
X92000000Y-105940000D03*
X100120389Y-123036339D03*
X92000000Y-83000000D03*
X116480389Y-55566339D03*
X105360389Y-65336339D03*
X85770000Y-80930000D03*
X112840389Y-73046339D03*
X107660389Y-71326339D03*
X93070000Y-62540000D03*
X51000000Y-108000000D03*
X120090389Y-103586339D03*
X73600000Y-74290000D03*
X105640389Y-61366339D03*
X73260000Y-56320000D03*
X104830389Y-78366339D03*
X117540389Y-106986339D03*
X82550000Y-71120000D03*
X114730389Y-125696339D03*
X93000000Y-93000000D03*
X108660389Y-72346339D03*
X70850000Y-56340000D03*
X97000000Y-78000000D03*
X116640389Y-95476339D03*
X109000389Y-115416339D03*
X83820000Y-52070000D03*
X110500389Y-101636339D03*
X105170389Y-81746339D03*
X104890389Y-65866339D03*
X114510000Y-61420000D03*
X72150000Y-82450000D03*
X109250389Y-104636339D03*
X112540389Y-83666339D03*
X93000000Y-101000000D03*
X85090000Y-50800000D03*
X86995000Y-68580000D03*
X80570000Y-74230000D03*
X83820000Y-53340000D03*
X120350389Y-75316339D03*
X83590000Y-78080000D03*
X104670389Y-102526339D03*
X83910000Y-114760000D03*
X88900000Y-51435000D03*
X59000000Y-108000000D03*
X86995000Y-78105000D03*
X116120389Y-107846339D03*
X99910000Y-103630000D03*
X72470000Y-57920000D03*
X94100000Y-64120000D03*
X113350389Y-57356339D03*
X96000000Y-98000000D03*
X95885000Y-46990000D03*
X83820000Y-66675000D03*
X103890389Y-112366339D03*
X100290000Y-61830000D03*
X118780389Y-52906339D03*
X90600000Y-104730000D03*
X93000000Y-83000000D03*
X110710389Y-60136339D03*
X104860389Y-107856339D03*
X105370389Y-125756339D03*
X85090000Y-52705000D03*
X97520389Y-119906339D03*
X99350389Y-113846339D03*
X108440389Y-57396339D03*
X52750000Y-48610000D03*
X117880389Y-85626339D03*
X97830389Y-109536339D03*
X72740000Y-71360000D03*
X41070000Y-112050000D03*
X72100000Y-72750000D03*
X63280000Y-61720000D03*
X99360389Y-111816339D03*
X102660389Y-72706339D03*
X82570000Y-86630000D03*
X72820000Y-87390000D03*
X68780000Y-89170000D03*
X101000389Y-120836339D03*
X109530389Y-85236339D03*
X86995000Y-58420000D03*
X76550000Y-59540000D03*
X77720000Y-81680000D03*
X77670000Y-65700000D03*
X70280000Y-55730000D03*
X52710000Y-49430000D03*
X69340000Y-48940000D03*
X107920389Y-62686339D03*
X89535000Y-52705000D03*
X98080000Y-105450000D03*
X96580000Y-102910000D03*
X87290000Y-114440000D03*
X82550000Y-70485000D03*
X77650000Y-71770000D03*
X117860389Y-91536339D03*
X96000000Y-72000000D03*
X103400389Y-68166339D03*
X101080389Y-68166339D03*
X116100389Y-93156339D03*
X115950389Y-83736339D03*
X110230389Y-76436339D03*
X52380000Y-45670000D03*
X64660000Y-65250000D03*
X114670389Y-123676339D03*
X83820000Y-67310000D03*
X69540000Y-52200000D03*
X55100000Y-53600000D03*
X99350389Y-113196339D03*
X92000000Y-87000000D03*
X63000000Y-116000000D03*
X81270000Y-100450000D03*
X93100000Y-64170000D03*
X97210389Y-113286339D03*
X78910000Y-101280000D03*
X99570389Y-111066339D03*
X90620000Y-114580000D03*
X82370000Y-114770000D03*
X106100389Y-123626339D03*
X79890000Y-99240000D03*
X106800389Y-123556339D03*
X112360389Y-94636339D03*
X112450389Y-54626339D03*
X102640000Y-104690000D03*
X107390389Y-125726339D03*
X112300389Y-123606339D03*
X93000000Y-97000000D03*
X56000000Y-108000000D03*
X58360000Y-56810000D03*
X83820000Y-57785000D03*
X96000000Y-102000000D03*
X109050389Y-96536339D03*
X118040389Y-116446339D03*
X107360389Y-59606339D03*
X80640000Y-91580000D03*
X103530389Y-109636339D03*
X102760389Y-77016339D03*
X106190389Y-72216339D03*
X82270000Y-102810000D03*
X90640000Y-113810000D03*
X110610389Y-67096339D03*
X111820389Y-83686339D03*
X95380000Y-118550000D03*
X106510389Y-66236339D03*
X109290389Y-68906339D03*
X77640000Y-76130000D03*
X100750000Y-106510000D03*
X102680389Y-75406339D03*
X86995000Y-53340000D03*
X113930389Y-116446339D03*
X80480000Y-75020000D03*
X85000000Y-85000000D03*
X91440000Y-50800000D03*
X102680389Y-125226339D03*
X108830389Y-123606339D03*
X57130000Y-57700000D03*
X90805000Y-49530000D03*
X82010000Y-79970000D03*
X105970389Y-104006339D03*
X60230000Y-85830000D03*
X96000000Y-105000000D03*
X68600000Y-53950000D03*
X118970389Y-75256339D03*
X61620000Y-60040000D03*
X90960000Y-86020000D03*
X93250000Y-104950000D03*
X70470000Y-82010000D03*
X88070000Y-85150000D03*
X73020000Y-58420000D03*
X107610389Y-102556339D03*
X108210389Y-115376339D03*
X58200000Y-58810000D03*
X117000389Y-52986339D03*
X100746556Y-103672506D03*
X111730389Y-64086339D03*
X69140000Y-54510000D03*
X55000000Y-118000000D03*
X76490000Y-75000000D03*
X83185000Y-78740000D03*
X79260000Y-76720000D03*
X99380389Y-117076339D03*
X114840389Y-65866339D03*
X97190389Y-117346339D03*
X118580389Y-103956339D03*
X95000000Y-104000000D03*
X79360000Y-69610000D03*
X107870000Y-76050000D03*
X104100389Y-107716339D03*
X52760000Y-47810000D03*
X71690000Y-70240000D03*
X86995000Y-66675000D03*
X108390389Y-62156339D03*
X96000000Y-87000000D03*
X86360000Y-53975000D03*
X83820000Y-63500000D03*
X114200389Y-64086339D03*
X93000000Y-100000000D03*
X59000000Y-109000000D03*
X111690389Y-55416339D03*
X115680389Y-63496339D03*
X111290389Y-66696339D03*
X109230389Y-61956339D03*
X110140389Y-125716339D03*
X71420000Y-89030000D03*
X93000000Y-96000000D03*
X97790000Y-46990000D03*
X83820000Y-65405000D03*
X117180389Y-85636339D03*
X78810000Y-110260000D03*
X55590000Y-56170000D03*
X102080389Y-124876339D03*
X101550389Y-124426339D03*
X67640000Y-49260000D03*
X108100389Y-109656339D03*
X71940000Y-57440000D03*
X52000000Y-109000000D03*
X107810389Y-73806339D03*
X109470389Y-66186339D03*
X120470389Y-63146339D03*
X50290000Y-119770000D03*
X83000000Y-84000000D03*
X116220389Y-123636339D03*
X118020389Y-113766339D03*
X86995000Y-65405000D03*
X89862500Y-114262500D03*
X119590389Y-113756339D03*
X58000000Y-108000000D03*
X55000000Y-108000000D03*
X96000000Y-76000000D03*
X86995000Y-57785000D03*
X64820000Y-63250000D03*
X76350000Y-76950000D03*
X82550000Y-72390000D03*
X59430000Y-57920000D03*
X109730389Y-73346339D03*
X109090389Y-83096339D03*
X99660389Y-116346339D03*
X58850000Y-59400000D03*
X115360389Y-112816339D03*
X98650389Y-121546339D03*
X80570000Y-99850000D03*
X83820000Y-46990000D03*
X117080389Y-76106339D03*
X104080389Y-103056339D03*
X53870000Y-54490000D03*
X107440389Y-123586339D03*
X111660389Y-85596339D03*
X53000000Y-121000000D03*
X104670389Y-125756339D03*
X82650000Y-106407500D03*
%TO.N,CPOUT*%
X74020000Y-86930000D03*
%TO.N,VSWITCH*%
X89590000Y-122010000D03*
X78690000Y-117950000D03*
%TO.N,VCC_3V*%
X80204740Y-83913018D03*
X87950000Y-78130000D03*
X52700000Y-84000000D03*
X75510000Y-77320000D03*
X80990000Y-78580000D03*
X79970000Y-86590000D03*
X76110000Y-90480000D03*
X80560000Y-82020000D03*
X68930000Y-80690000D03*
%TO.N,VCC_LDO*%
X83290000Y-93930000D03*
X81570000Y-89100000D03*
%TO.N,Net-(U10-EN{slash}UV)*%
X91487500Y-115830000D03*
X89000000Y-116650000D03*
%TD*%
%TA.AperFunction,Conductor*%
%TO.N,GND*%
G36*
X131342543Y-39926933D02*
G01*
X131728242Y-39943772D01*
X131736822Y-39944522D01*
X132117442Y-39994632D01*
X132125932Y-39996129D01*
X132500726Y-40079218D01*
X132509061Y-40081452D01*
X132875183Y-40196890D01*
X132883299Y-40199844D01*
X133237969Y-40346753D01*
X133245785Y-40350397D01*
X133586295Y-40527656D01*
X133593775Y-40531974D01*
X133917551Y-40738243D01*
X133924625Y-40743197D01*
X134229173Y-40976885D01*
X134235790Y-40982437D01*
X134518820Y-41241789D01*
X134524927Y-41247896D01*
X134784279Y-41530930D01*
X134789830Y-41537546D01*
X135023521Y-41842100D01*
X135028475Y-41849175D01*
X135234735Y-42172941D01*
X135239053Y-42180420D01*
X135416311Y-42520933D01*
X135419958Y-42528756D01*
X135419960Y-42528760D01*
X135419961Y-42528761D01*
X135566864Y-42883422D01*
X135569818Y-42891538D01*
X135685253Y-43257659D01*
X135687488Y-43266001D01*
X135770572Y-43640783D01*
X135772072Y-43649288D01*
X135822177Y-44029888D01*
X135822930Y-44038492D01*
X135839794Y-44424811D01*
X135839888Y-44429128D01*
X135839888Y-44461872D01*
X135839888Y-44492227D01*
X135839888Y-44492229D01*
X135839889Y-44500206D01*
X135839889Y-134424173D01*
X135839795Y-134428491D01*
X135822955Y-134814180D01*
X135822202Y-134822784D01*
X135772095Y-135203385D01*
X135770595Y-135211891D01*
X135687508Y-135586672D01*
X135685273Y-135595014D01*
X135569835Y-135961136D01*
X135566881Y-135969252D01*
X135419974Y-136323918D01*
X135416324Y-136331745D01*
X135239069Y-136672249D01*
X135234751Y-136679729D01*
X135028482Y-137003506D01*
X135023528Y-137010580D01*
X134789834Y-137315136D01*
X134784286Y-137321749D01*
X134524929Y-137604786D01*
X134518836Y-137610879D01*
X134235802Y-137870233D01*
X134229186Y-137875784D01*
X133924630Y-138109478D01*
X133917556Y-138114432D01*
X133593779Y-138320701D01*
X133586299Y-138325019D01*
X133245795Y-138502274D01*
X133237968Y-138505924D01*
X132883302Y-138652831D01*
X132875186Y-138655785D01*
X132509064Y-138771223D01*
X132500722Y-138773458D01*
X132125941Y-138856545D01*
X132117435Y-138858045D01*
X131736834Y-138908152D01*
X131728230Y-138908905D01*
X131342542Y-138925745D01*
X131338224Y-138925839D01*
X41342556Y-138925839D01*
X41338237Y-138925745D01*
X40952546Y-138908904D01*
X40943943Y-138908151D01*
X40563342Y-138858044D01*
X40554836Y-138856544D01*
X40180053Y-138773456D01*
X40171711Y-138771221D01*
X39805589Y-138655783D01*
X39797473Y-138652829D01*
X39442806Y-138505921D01*
X39434979Y-138502271D01*
X39094474Y-138325016D01*
X39086994Y-138320698D01*
X38763216Y-138114429D01*
X38756142Y-138109475D01*
X38451592Y-137875786D01*
X38444976Y-137870235D01*
X38161940Y-137610882D01*
X38155833Y-137604775D01*
X37896486Y-137321749D01*
X37890934Y-137315133D01*
X37657229Y-137010565D01*
X37652276Y-137003490D01*
X37446022Y-136679740D01*
X37441703Y-136672261D01*
X37314301Y-136427527D01*
X37264433Y-136331733D01*
X37260786Y-136323911D01*
X37120048Y-135984144D01*
X37113876Y-135969245D01*
X37110927Y-135961141D01*
X37107460Y-135950144D01*
X48599500Y-135950144D01*
X48599500Y-137454855D01*
X48631521Y-137657029D01*
X48694780Y-137851719D01*
X48787712Y-138034109D01*
X48787714Y-138034113D01*
X48908029Y-138199713D01*
X48908031Y-138199715D01*
X48908034Y-138199719D01*
X49052781Y-138344466D01*
X49052784Y-138344468D01*
X49052786Y-138344470D01*
X49218386Y-138464785D01*
X49218390Y-138464787D01*
X49400781Y-138557720D01*
X49595466Y-138620977D01*
X49595467Y-138620977D01*
X49595470Y-138620978D01*
X49797645Y-138653000D01*
X49797648Y-138653000D01*
X50002355Y-138653000D01*
X50204529Y-138620978D01*
X50204530Y-138620977D01*
X50204534Y-138620977D01*
X50399219Y-138557720D01*
X50581610Y-138464787D01*
X50747219Y-138344466D01*
X50891966Y-138199719D01*
X51012287Y-138034110D01*
X51105220Y-137851719D01*
X51105222Y-137851711D01*
X51106709Y-137848125D01*
X51108473Y-137848855D01*
X51140181Y-137805127D01*
X51198354Y-137786165D01*
X51256562Y-137805017D01*
X51268451Y-137815161D01*
X51394092Y-137940802D01*
X51459263Y-137984348D01*
X51549761Y-138044818D01*
X51549767Y-138044820D01*
X51549769Y-138044822D01*
X51722749Y-138116473D01*
X51906384Y-138153000D01*
X51906385Y-138153000D01*
X52093615Y-138153000D01*
X52093616Y-138153000D01*
X52277251Y-138116473D01*
X52450231Y-138044822D01*
X52450234Y-138044819D01*
X52450238Y-138044818D01*
X52495187Y-138014782D01*
X52605908Y-137940802D01*
X52738302Y-137808408D01*
X52812282Y-137697687D01*
X52842318Y-137652738D01*
X52842324Y-137652726D01*
X52853690Y-137625286D01*
X52908536Y-137492875D01*
X52948272Y-137446350D01*
X53007767Y-137432066D01*
X53064295Y-137455481D01*
X53091464Y-137492876D01*
X53157675Y-137652726D01*
X53157681Y-137652738D01*
X53232065Y-137764059D01*
X53261698Y-137808408D01*
X53394092Y-137940802D01*
X53459263Y-137984348D01*
X53549761Y-138044818D01*
X53549767Y-138044820D01*
X53549769Y-138044822D01*
X53722749Y-138116473D01*
X53906384Y-138153000D01*
X53906385Y-138153000D01*
X54093615Y-138153000D01*
X54093616Y-138153000D01*
X54277251Y-138116473D01*
X54450231Y-138044822D01*
X54450234Y-138044819D01*
X54450238Y-138044818D01*
X54495187Y-138014782D01*
X54605908Y-137940802D01*
X54738302Y-137808408D01*
X54812282Y-137697687D01*
X54842318Y-137652738D01*
X54842324Y-137652726D01*
X54859036Y-137612380D01*
X54898772Y-137565854D01*
X54958267Y-137551570D01*
X55014795Y-137574984D01*
X55046764Y-137627153D01*
X55049500Y-137650265D01*
X55049500Y-137972246D01*
X55049501Y-137972258D01*
X55061132Y-138030727D01*
X55061134Y-138030733D01*
X55101828Y-138091635D01*
X55105448Y-138097052D01*
X55171769Y-138141367D01*
X55216231Y-138150211D01*
X55230241Y-138152998D01*
X55230246Y-138152998D01*
X55230252Y-138153000D01*
X55230253Y-138153000D01*
X56769747Y-138153000D01*
X56769748Y-138153000D01*
X56828231Y-138141367D01*
X56894552Y-138097052D01*
X56894552Y-138097051D01*
X56902659Y-138091635D01*
X56903672Y-138093151D01*
X56947540Y-138070794D01*
X57007973Y-138080360D01*
X57043129Y-138110384D01*
X57108029Y-138199713D01*
X57108031Y-138199715D01*
X57108034Y-138199719D01*
X57252781Y-138344466D01*
X57252784Y-138344468D01*
X57252786Y-138344470D01*
X57418386Y-138464785D01*
X57418390Y-138464787D01*
X57600781Y-138557720D01*
X57795466Y-138620977D01*
X57795467Y-138620977D01*
X57795470Y-138620978D01*
X57997645Y-138653000D01*
X57997648Y-138653000D01*
X58202355Y-138653000D01*
X58404529Y-138620978D01*
X58404530Y-138620977D01*
X58404534Y-138620977D01*
X58599219Y-138557720D01*
X58781610Y-138464787D01*
X58947219Y-138344466D01*
X59091966Y-138199719D01*
X59212287Y-138034110D01*
X59305220Y-137851719D01*
X59368477Y-137657034D01*
X59368478Y-137657029D01*
X59400500Y-137454855D01*
X59400500Y-135950144D01*
X59368478Y-135747970D01*
X59323013Y-135608043D01*
X59305220Y-135553281D01*
X59212287Y-135370890D01*
X59212285Y-135370886D01*
X59091970Y-135205286D01*
X59091967Y-135205283D01*
X59091966Y-135205281D01*
X58947219Y-135060534D01*
X58947215Y-135060531D01*
X58947213Y-135060529D01*
X58781613Y-134940214D01*
X58781609Y-134940212D01*
X58599219Y-134847280D01*
X58404529Y-134784021D01*
X58202355Y-134752000D01*
X58202352Y-134752000D01*
X57997648Y-134752000D01*
X57997645Y-134752000D01*
X57795470Y-134784021D01*
X57600780Y-134847280D01*
X57418390Y-134940212D01*
X57418386Y-134940214D01*
X57252786Y-135060529D01*
X57108032Y-135205283D01*
X57074091Y-135252000D01*
X57047554Y-135288526D01*
X57043129Y-135294616D01*
X56993629Y-135330580D01*
X56932444Y-135330580D01*
X56903150Y-135312629D01*
X56902659Y-135313365D01*
X56828233Y-135263634D01*
X56828231Y-135263633D01*
X56828228Y-135263632D01*
X56828227Y-135263632D01*
X56769758Y-135252001D01*
X56769748Y-135252000D01*
X55230252Y-135252000D01*
X55230251Y-135252000D01*
X55230241Y-135252001D01*
X55171772Y-135263632D01*
X55171766Y-135263634D01*
X55105451Y-135307945D01*
X55105445Y-135307951D01*
X55061134Y-135374266D01*
X55061132Y-135374272D01*
X55049501Y-135432741D01*
X55049500Y-135432753D01*
X55049500Y-135754734D01*
X55030593Y-135812925D01*
X54981093Y-135848889D01*
X54919907Y-135848889D01*
X54870407Y-135812925D01*
X54859036Y-135792620D01*
X54842322Y-135752270D01*
X54842318Y-135752261D01*
X54782649Y-135662963D01*
X54738302Y-135596592D01*
X54605908Y-135464198D01*
X54558829Y-135432741D01*
X54450238Y-135360181D01*
X54450229Y-135360177D01*
X54277249Y-135288526D01*
X54093618Y-135252000D01*
X54093616Y-135252000D01*
X53906384Y-135252000D01*
X53906381Y-135252000D01*
X53722750Y-135288526D01*
X53549770Y-135360177D01*
X53549761Y-135360181D01*
X53394092Y-135464198D01*
X53394088Y-135464201D01*
X53261701Y-135596588D01*
X53261698Y-135596592D01*
X53157681Y-135752261D01*
X53157677Y-135752270D01*
X53140964Y-135792620D01*
X53117657Y-135848889D01*
X53091464Y-135912124D01*
X53051727Y-135958649D01*
X52992233Y-135972933D01*
X52935705Y-135949518D01*
X52908536Y-135912124D01*
X52882343Y-135848889D01*
X52842322Y-135752269D01*
X52842320Y-135752267D01*
X52842318Y-135752261D01*
X52782649Y-135662963D01*
X52738302Y-135596592D01*
X52605908Y-135464198D01*
X52558829Y-135432741D01*
X52450238Y-135360181D01*
X52450229Y-135360177D01*
X52277249Y-135288526D01*
X52093618Y-135252000D01*
X52093616Y-135252000D01*
X51906384Y-135252000D01*
X51906381Y-135252000D01*
X51722750Y-135288526D01*
X51549770Y-135360177D01*
X51549761Y-135360181D01*
X51394092Y-135464198D01*
X51394082Y-135464206D01*
X51268450Y-135589838D01*
X51213934Y-135617615D01*
X51153502Y-135608043D01*
X51110237Y-135564779D01*
X51106928Y-135556784D01*
X51106709Y-135556875D01*
X51105221Y-135553284D01*
X51105220Y-135553283D01*
X51105220Y-135553281D01*
X51012287Y-135370890D01*
X51012285Y-135370886D01*
X50891970Y-135205286D01*
X50891967Y-135205283D01*
X50891966Y-135205281D01*
X50747219Y-135060534D01*
X50747215Y-135060531D01*
X50747213Y-135060529D01*
X50581613Y-134940214D01*
X50581609Y-134940212D01*
X50399219Y-134847280D01*
X50204529Y-134784021D01*
X50002355Y-134752000D01*
X50002352Y-134752000D01*
X49797648Y-134752000D01*
X49797645Y-134752000D01*
X49595470Y-134784021D01*
X49400780Y-134847280D01*
X49218390Y-134940212D01*
X49218386Y-134940214D01*
X49052786Y-135060529D01*
X48908029Y-135205286D01*
X48787714Y-135370886D01*
X48787712Y-135370890D01*
X48694780Y-135553280D01*
X48631521Y-135747970D01*
X48599500Y-135950144D01*
X37107460Y-135950144D01*
X36995478Y-135594990D01*
X36993250Y-135586672D01*
X36910159Y-135211887D01*
X36908660Y-135203383D01*
X36889852Y-135060529D01*
X36858549Y-134822770D01*
X36857797Y-134814187D01*
X36840983Y-134429128D01*
X36840889Y-134424809D01*
X36840889Y-129630253D01*
X65092000Y-129630253D01*
X65092000Y-133169746D01*
X65092001Y-133169758D01*
X65103632Y-133228227D01*
X65103633Y-133228231D01*
X65147948Y-133294552D01*
X65214269Y-133338867D01*
X65258731Y-133347711D01*
X65272741Y-133350498D01*
X65272746Y-133350498D01*
X65272752Y-133350500D01*
X65272753Y-133350500D01*
X68812247Y-133350500D01*
X68812248Y-133350500D01*
X68870731Y-133338867D01*
X68937052Y-133294552D01*
X68981367Y-133228231D01*
X68993000Y-133169748D01*
X68993000Y-129630252D01*
X68981367Y-129571769D01*
X68937052Y-129505448D01*
X68937048Y-129505445D01*
X68870733Y-129461134D01*
X68870731Y-129461133D01*
X68870728Y-129461132D01*
X68870727Y-129461132D01*
X68812258Y-129449501D01*
X68812248Y-129449500D01*
X65272752Y-129449500D01*
X65272751Y-129449500D01*
X65272741Y-129449501D01*
X65214272Y-129461132D01*
X65214266Y-129461134D01*
X65147951Y-129505445D01*
X65147945Y-129505451D01*
X65103634Y-129571766D01*
X65103632Y-129571772D01*
X65092001Y-129630241D01*
X65092000Y-129630253D01*
X36840889Y-129630253D01*
X36840889Y-126864108D01*
X44419500Y-126864108D01*
X44419500Y-126995892D01*
X44449579Y-127108151D01*
X44453609Y-127123190D01*
X44519496Y-127237309D01*
X44519498Y-127237311D01*
X44519500Y-127237314D01*
X44612686Y-127330500D01*
X44612688Y-127330501D01*
X44612690Y-127330503D01*
X44726810Y-127396390D01*
X44726808Y-127396390D01*
X44726812Y-127396391D01*
X44726814Y-127396392D01*
X44854108Y-127430500D01*
X44854110Y-127430500D01*
X44985890Y-127430500D01*
X44985892Y-127430500D01*
X45113186Y-127396392D01*
X45113188Y-127396390D01*
X45113190Y-127396390D01*
X45227309Y-127330503D01*
X45227309Y-127330502D01*
X45227314Y-127330500D01*
X45320500Y-127237314D01*
X45386392Y-127123186D01*
X45420500Y-126995892D01*
X45420500Y-126864108D01*
X45386392Y-126736814D01*
X45386390Y-126736811D01*
X45386390Y-126736809D01*
X45320503Y-126622690D01*
X45320501Y-126622688D01*
X45320500Y-126622686D01*
X45227314Y-126529500D01*
X45227311Y-126529498D01*
X45227309Y-126529496D01*
X45113189Y-126463609D01*
X45113191Y-126463609D01*
X45063799Y-126450375D01*
X44985892Y-126429500D01*
X44854108Y-126429500D01*
X44776200Y-126450375D01*
X44726809Y-126463609D01*
X44612690Y-126529496D01*
X44519496Y-126622690D01*
X44453609Y-126736809D01*
X44453608Y-126736814D01*
X44419500Y-126864108D01*
X36840889Y-126864108D01*
X36840889Y-125439108D01*
X49854500Y-125439108D01*
X49854500Y-125570892D01*
X49884579Y-125683151D01*
X49888609Y-125698190D01*
X49954496Y-125812309D01*
X49954498Y-125812311D01*
X49954500Y-125812314D01*
X50047686Y-125905500D01*
X50047688Y-125905501D01*
X50047690Y-125905503D01*
X50161810Y-125971390D01*
X50161808Y-125971390D01*
X50161812Y-125971391D01*
X50161814Y-125971392D01*
X50289108Y-126005500D01*
X50289110Y-126005500D01*
X50420890Y-126005500D01*
X50420892Y-126005500D01*
X50548186Y-125971392D01*
X50548188Y-125971390D01*
X50548190Y-125971390D01*
X50662309Y-125905503D01*
X50662309Y-125905502D01*
X50662314Y-125905500D01*
X50755500Y-125812314D01*
X50821392Y-125698186D01*
X50855500Y-125570892D01*
X50855500Y-125439108D01*
X50821392Y-125311814D01*
X50821390Y-125311811D01*
X50821390Y-125311809D01*
X50755503Y-125197690D01*
X50755501Y-125197688D01*
X50755500Y-125197686D01*
X50662314Y-125104500D01*
X50662311Y-125104498D01*
X50662309Y-125104496D01*
X50548189Y-125038609D01*
X50548191Y-125038609D01*
X50498799Y-125025375D01*
X50420892Y-125004500D01*
X50289108Y-125004500D01*
X50211200Y-125025375D01*
X50161809Y-125038609D01*
X50047690Y-125104496D01*
X49954496Y-125197690D01*
X49888609Y-125311809D01*
X49888608Y-125311814D01*
X49854500Y-125439108D01*
X36840889Y-125439108D01*
X36840889Y-125240553D01*
X36859796Y-125182362D01*
X36909296Y-125146398D01*
X36970482Y-125146398D01*
X37009893Y-125170549D01*
X37103458Y-125264114D01*
X37218182Y-125340771D01*
X37218193Y-125340777D01*
X37219106Y-125341155D01*
X37345672Y-125393580D01*
X37481007Y-125420500D01*
X37481008Y-125420500D01*
X38418992Y-125420500D01*
X38418993Y-125420500D01*
X38554328Y-125393580D01*
X38681811Y-125340775D01*
X38796542Y-125264114D01*
X38894114Y-125166542D01*
X38970775Y-125051811D01*
X39023580Y-124924328D01*
X39050500Y-124788993D01*
X39050500Y-124651007D01*
X39050499Y-124651004D01*
X40899500Y-124651004D01*
X40899500Y-124788995D01*
X40926420Y-124924327D01*
X40926420Y-124924329D01*
X40979222Y-125051806D01*
X40979228Y-125051817D01*
X41055885Y-125166541D01*
X41153458Y-125264114D01*
X41268182Y-125340771D01*
X41268193Y-125340777D01*
X41269106Y-125341155D01*
X41395672Y-125393580D01*
X41531007Y-125420500D01*
X41531008Y-125420500D01*
X42768992Y-125420500D01*
X42768993Y-125420500D01*
X42904328Y-125393580D01*
X42967832Y-125367275D01*
X43030895Y-125341155D01*
X43030895Y-125341154D01*
X43031811Y-125340775D01*
X43146542Y-125264114D01*
X43244114Y-125166542D01*
X43320775Y-125051811D01*
X43373580Y-124924328D01*
X43400500Y-124788993D01*
X43400500Y-124651007D01*
X43373580Y-124515672D01*
X43320775Y-124388189D01*
X43320774Y-124388187D01*
X43320771Y-124388182D01*
X43244114Y-124273458D01*
X43146541Y-124175885D01*
X43031817Y-124099228D01*
X43031806Y-124099222D01*
X42904328Y-124046420D01*
X42768995Y-124019500D01*
X42768993Y-124019500D01*
X41883011Y-124019500D01*
X41824820Y-124000593D01*
X41788856Y-123951093D01*
X41788856Y-123889907D01*
X41824820Y-123840407D01*
X41846652Y-123829993D01*
X41846143Y-123828763D01*
X41852129Y-123826282D01*
X41852135Y-123826281D01*
X41983365Y-123750515D01*
X42090515Y-123643365D01*
X42166281Y-123512135D01*
X42205500Y-123365766D01*
X42205500Y-123214234D01*
X42166281Y-123067865D01*
X42166279Y-123067862D01*
X42166279Y-123067860D01*
X42090518Y-122936639D01*
X42090516Y-122936637D01*
X42090515Y-122936635D01*
X41983365Y-122829485D01*
X41983362Y-122829483D01*
X41983360Y-122829481D01*
X41852138Y-122753720D01*
X41852140Y-122753720D01*
X41795347Y-122738503D01*
X41705766Y-122714500D01*
X41554234Y-122714500D01*
X41464652Y-122738503D01*
X41407860Y-122753720D01*
X41276639Y-122829481D01*
X41169481Y-122936639D01*
X41093720Y-123067860D01*
X41093719Y-123067865D01*
X41054500Y-123214234D01*
X41054500Y-123365766D01*
X41089086Y-123494847D01*
X41093720Y-123512139D01*
X41169481Y-123643360D01*
X41169483Y-123643362D01*
X41169485Y-123643365D01*
X41276635Y-123750515D01*
X41276637Y-123750516D01*
X41276639Y-123750518D01*
X41407861Y-123826279D01*
X41407862Y-123826279D01*
X41407865Y-123826281D01*
X41464080Y-123841343D01*
X41515393Y-123874665D01*
X41537320Y-123931786D01*
X41521485Y-123990887D01*
X41473936Y-124029393D01*
X41457772Y-124034066D01*
X41395678Y-124046418D01*
X41395670Y-124046420D01*
X41268193Y-124099222D01*
X41268182Y-124099228D01*
X41153458Y-124175885D01*
X41055885Y-124273458D01*
X40979228Y-124388182D01*
X40979222Y-124388193D01*
X40926420Y-124515670D01*
X40926420Y-124515672D01*
X40899500Y-124651004D01*
X39050499Y-124651004D01*
X39023580Y-124515672D01*
X38970775Y-124388189D01*
X38970774Y-124388187D01*
X38970771Y-124388182D01*
X38894114Y-124273458D01*
X38796541Y-124175885D01*
X38681817Y-124099228D01*
X38681806Y-124099222D01*
X38554328Y-124046420D01*
X38418995Y-124019500D01*
X38418993Y-124019500D01*
X37481007Y-124019500D01*
X37481004Y-124019500D01*
X37345672Y-124046420D01*
X37345670Y-124046420D01*
X37218193Y-124099222D01*
X37218182Y-124099228D01*
X37103458Y-124175885D01*
X37103454Y-124175889D01*
X37009893Y-124269451D01*
X36955376Y-124297228D01*
X36894944Y-124287657D01*
X36851679Y-124244392D01*
X36840889Y-124199447D01*
X36840889Y-121944108D01*
X89089500Y-121944108D01*
X89089500Y-122075892D01*
X89119579Y-122188151D01*
X89123609Y-122203190D01*
X89189496Y-122317309D01*
X89189498Y-122317311D01*
X89189500Y-122317314D01*
X89282686Y-122410500D01*
X89282688Y-122410501D01*
X89282690Y-122410503D01*
X89396810Y-122476390D01*
X89396808Y-122476390D01*
X89396812Y-122476391D01*
X89396814Y-122476392D01*
X89524108Y-122510500D01*
X89524110Y-122510500D01*
X89655890Y-122510500D01*
X89655892Y-122510500D01*
X89783186Y-122476392D01*
X89783188Y-122476390D01*
X89783190Y-122476390D01*
X89897309Y-122410503D01*
X89897309Y-122410502D01*
X89897314Y-122410500D01*
X89990500Y-122317314D01*
X90056392Y-122203186D01*
X90090500Y-122075892D01*
X90090500Y-121944108D01*
X90056392Y-121816814D01*
X90056390Y-121816811D01*
X90056390Y-121816809D01*
X89990503Y-121702690D01*
X89990501Y-121702688D01*
X89990500Y-121702686D01*
X89897314Y-121609500D01*
X89897311Y-121609498D01*
X89897309Y-121609496D01*
X89783189Y-121543609D01*
X89783191Y-121543609D01*
X89733799Y-121530375D01*
X89655892Y-121509500D01*
X89524108Y-121509500D01*
X89446200Y-121530375D01*
X89396809Y-121543609D01*
X89282690Y-121609496D01*
X89189496Y-121702690D01*
X89123609Y-121816809D01*
X89123608Y-121816814D01*
X89089500Y-121944108D01*
X36840889Y-121944108D01*
X36840889Y-116600553D01*
X36859796Y-116542362D01*
X36909296Y-116506398D01*
X36970482Y-116506398D01*
X37009893Y-116530549D01*
X37103458Y-116624114D01*
X37218182Y-116700771D01*
X37218193Y-116700777D01*
X37254680Y-116715890D01*
X37345672Y-116753580D01*
X37481007Y-116780500D01*
X37481008Y-116780500D01*
X38418992Y-116780500D01*
X38418993Y-116780500D01*
X38554328Y-116753580D01*
X38681811Y-116700775D01*
X38796542Y-116624114D01*
X38894114Y-116526542D01*
X38970775Y-116411811D01*
X39023580Y-116284328D01*
X39050500Y-116148993D01*
X39050500Y-116011007D01*
X39050499Y-116011004D01*
X40899500Y-116011004D01*
X40899500Y-116148995D01*
X40926420Y-116284327D01*
X40926420Y-116284329D01*
X40979222Y-116411806D01*
X40979228Y-116411817D01*
X41055885Y-116526541D01*
X41153458Y-116624114D01*
X41268182Y-116700771D01*
X41268193Y-116700777D01*
X41304680Y-116715890D01*
X41395672Y-116753580D01*
X41457770Y-116765932D01*
X41511154Y-116795829D01*
X41536770Y-116851394D01*
X41524833Y-116911404D01*
X41479903Y-116952936D01*
X41464082Y-116958655D01*
X41436765Y-116965975D01*
X41407860Y-116973720D01*
X41276639Y-117049481D01*
X41169481Y-117156639D01*
X41093720Y-117287860D01*
X41093719Y-117287865D01*
X41054500Y-117434234D01*
X41054500Y-117585766D01*
X41069753Y-117642690D01*
X41093720Y-117732139D01*
X41169481Y-117863360D01*
X41169483Y-117863362D01*
X41169485Y-117863365D01*
X41276635Y-117970515D01*
X41276637Y-117970516D01*
X41276639Y-117970518D01*
X41407861Y-118046279D01*
X41407859Y-118046279D01*
X41407863Y-118046280D01*
X41407865Y-118046281D01*
X41554234Y-118085500D01*
X41554236Y-118085500D01*
X41705764Y-118085500D01*
X41705766Y-118085500D01*
X41852135Y-118046281D01*
X41852137Y-118046279D01*
X41852139Y-118046279D01*
X41983360Y-117970518D01*
X41983360Y-117970517D01*
X41983365Y-117970515D01*
X41999772Y-117954108D01*
X45791611Y-117954108D01*
X45791611Y-118085892D01*
X45806963Y-118143186D01*
X45825720Y-118213190D01*
X45891607Y-118327309D01*
X45891609Y-118327311D01*
X45891611Y-118327314D01*
X45984797Y-118420500D01*
X45984799Y-118420501D01*
X45984801Y-118420503D01*
X46098921Y-118486390D01*
X46098919Y-118486390D01*
X46098923Y-118486391D01*
X46098925Y-118486392D01*
X46226219Y-118520500D01*
X46226221Y-118520500D01*
X46358001Y-118520500D01*
X46358003Y-118520500D01*
X46485297Y-118486392D01*
X46485299Y-118486390D01*
X46485301Y-118486390D01*
X46599420Y-118420503D01*
X46599420Y-118420502D01*
X46599425Y-118420500D01*
X46692611Y-118327314D01*
X46758503Y-118213186D01*
X46792611Y-118085892D01*
X46792611Y-117954108D01*
X46773855Y-117884108D01*
X78189500Y-117884108D01*
X78189500Y-118015892D01*
X78197642Y-118046279D01*
X78223609Y-118143190D01*
X78289496Y-118257309D01*
X78289498Y-118257311D01*
X78289500Y-118257314D01*
X78382686Y-118350500D01*
X78382688Y-118350501D01*
X78382690Y-118350503D01*
X78496810Y-118416390D01*
X78496808Y-118416390D01*
X78496812Y-118416391D01*
X78496814Y-118416392D01*
X78624108Y-118450500D01*
X78624110Y-118450500D01*
X78755890Y-118450500D01*
X78755892Y-118450500D01*
X78883186Y-118416392D01*
X78883188Y-118416390D01*
X78883190Y-118416390D01*
X78997309Y-118350503D01*
X78997309Y-118350502D01*
X78997314Y-118350500D01*
X79090500Y-118257314D01*
X79115975Y-118213190D01*
X79156390Y-118143190D01*
X79156390Y-118143188D01*
X79156392Y-118143186D01*
X79190500Y-118015892D01*
X79190500Y-117884108D01*
X79156392Y-117756814D01*
X79156390Y-117756811D01*
X79156390Y-117756809D01*
X79090503Y-117642690D01*
X79090501Y-117642688D01*
X79090500Y-117642686D01*
X78997314Y-117549500D01*
X78997311Y-117549498D01*
X78997309Y-117549496D01*
X78883189Y-117483609D01*
X78883191Y-117483609D01*
X78833799Y-117470375D01*
X78755892Y-117449500D01*
X78624108Y-117449500D01*
X78546200Y-117470375D01*
X78496809Y-117483609D01*
X78382690Y-117549496D01*
X78289496Y-117642690D01*
X78223609Y-117756809D01*
X78223608Y-117756814D01*
X78189500Y-117884108D01*
X46773855Y-117884108D01*
X46758503Y-117826814D01*
X46758501Y-117826811D01*
X46758501Y-117826809D01*
X46692614Y-117712690D01*
X46692612Y-117712688D01*
X46692611Y-117712686D01*
X46599425Y-117619500D01*
X46599422Y-117619498D01*
X46599420Y-117619496D01*
X46485300Y-117553609D01*
X46485302Y-117553609D01*
X46421038Y-117536390D01*
X46358003Y-117519500D01*
X46226219Y-117519500D01*
X46163184Y-117536390D01*
X46098920Y-117553609D01*
X45984801Y-117619496D01*
X45891607Y-117712690D01*
X45825720Y-117826809D01*
X45815926Y-117863361D01*
X45791611Y-117954108D01*
X41999772Y-117954108D01*
X42090515Y-117863365D01*
X42152033Y-117756814D01*
X42166279Y-117732139D01*
X42166279Y-117732137D01*
X42166281Y-117732135D01*
X42205500Y-117585766D01*
X42205500Y-117434234D01*
X42166281Y-117287865D01*
X42166279Y-117287862D01*
X42166279Y-117287860D01*
X42090518Y-117156639D01*
X42090516Y-117156637D01*
X42090515Y-117156635D01*
X41983365Y-117049485D01*
X41983362Y-117049483D01*
X41983360Y-117049481D01*
X41852138Y-116973720D01*
X41846143Y-116971237D01*
X41847256Y-116968548D01*
X41806072Y-116941800D01*
X41784147Y-116884678D01*
X41799984Y-116825578D01*
X41847535Y-116787075D01*
X41883011Y-116780500D01*
X42768992Y-116780500D01*
X42768993Y-116780500D01*
X42904328Y-116753580D01*
X43031811Y-116700775D01*
X43086687Y-116664108D01*
X68099500Y-116664108D01*
X68099500Y-116795892D01*
X68121183Y-116876814D01*
X68133609Y-116923190D01*
X68199496Y-117037309D01*
X68199498Y-117037311D01*
X68199500Y-117037314D01*
X68292686Y-117130500D01*
X68292688Y-117130501D01*
X68292690Y-117130503D01*
X68406810Y-117196390D01*
X68406808Y-117196390D01*
X68406812Y-117196391D01*
X68406814Y-117196392D01*
X68534108Y-117230500D01*
X68534110Y-117230500D01*
X68665890Y-117230500D01*
X68665892Y-117230500D01*
X68793186Y-117196392D01*
X68793188Y-117196390D01*
X68793190Y-117196390D01*
X68907309Y-117130503D01*
X68907309Y-117130502D01*
X68907314Y-117130500D01*
X69000500Y-117037314D01*
X69046688Y-116957314D01*
X69066390Y-116923190D01*
X69066390Y-116923188D01*
X69066392Y-116923186D01*
X69100500Y-116795892D01*
X69100500Y-116664108D01*
X69085784Y-116609190D01*
X69084191Y-116603241D01*
X69080004Y-116587615D01*
X69079064Y-116584108D01*
X88499500Y-116584108D01*
X88499500Y-116715892D01*
X88518573Y-116787075D01*
X88533609Y-116843190D01*
X88599496Y-116957309D01*
X88599498Y-116957311D01*
X88599500Y-116957314D01*
X88692686Y-117050500D01*
X88692688Y-117050501D01*
X88692690Y-117050503D01*
X88806810Y-117116390D01*
X88806808Y-117116390D01*
X88806812Y-117116391D01*
X88806814Y-117116392D01*
X88934108Y-117150500D01*
X88934110Y-117150500D01*
X89065890Y-117150500D01*
X89065892Y-117150500D01*
X89193186Y-117116392D01*
X89193188Y-117116390D01*
X89193190Y-117116390D01*
X89307309Y-117050503D01*
X89307309Y-117050502D01*
X89307314Y-117050500D01*
X89353706Y-117004108D01*
X100369500Y-117004108D01*
X100369500Y-117135892D01*
X100385710Y-117196390D01*
X100403609Y-117263190D01*
X100469496Y-117377309D01*
X100469498Y-117377311D01*
X100469500Y-117377314D01*
X100562686Y-117470500D01*
X100562688Y-117470501D01*
X100562690Y-117470503D01*
X100676810Y-117536390D01*
X100676808Y-117536390D01*
X100676812Y-117536391D01*
X100676814Y-117536392D01*
X100804108Y-117570500D01*
X100804110Y-117570500D01*
X100935890Y-117570500D01*
X100935892Y-117570500D01*
X101063186Y-117536392D01*
X101063188Y-117536390D01*
X101063190Y-117536390D01*
X101177309Y-117470503D01*
X101177309Y-117470502D01*
X101177314Y-117470500D01*
X101270500Y-117377314D01*
X101322144Y-117287865D01*
X101336390Y-117263190D01*
X101336390Y-117263188D01*
X101336392Y-117263186D01*
X101370500Y-117135892D01*
X101370500Y-117004108D01*
X101336392Y-116876814D01*
X101336390Y-116876811D01*
X101336390Y-116876809D01*
X101270503Y-116762690D01*
X101270501Y-116762688D01*
X101270500Y-116762686D01*
X101177314Y-116669500D01*
X101177311Y-116669498D01*
X101177309Y-116669496D01*
X101063189Y-116603609D01*
X101063191Y-116603609D01*
X101013799Y-116590375D01*
X100935892Y-116569500D01*
X100804108Y-116569500D01*
X100726200Y-116590375D01*
X100676809Y-116603609D01*
X100562690Y-116669496D01*
X100469496Y-116762690D01*
X100403609Y-116876809D01*
X100403608Y-116876814D01*
X100369500Y-117004108D01*
X89353706Y-117004108D01*
X89400500Y-116957314D01*
X89466392Y-116843186D01*
X89500500Y-116715892D01*
X89500500Y-116584108D01*
X89466392Y-116456814D01*
X89466390Y-116456811D01*
X89466390Y-116456809D01*
X89400503Y-116342690D01*
X89400501Y-116342688D01*
X89400500Y-116342686D01*
X89307314Y-116249500D01*
X89307311Y-116249498D01*
X89307309Y-116249496D01*
X89193189Y-116183609D01*
X89193191Y-116183609D01*
X89143799Y-116170375D01*
X89065892Y-116149500D01*
X88934108Y-116149500D01*
X88856200Y-116170375D01*
X88806809Y-116183609D01*
X88692690Y-116249496D01*
X88599496Y-116342690D01*
X88533609Y-116456809D01*
X88533608Y-116456814D01*
X88499500Y-116584108D01*
X69079064Y-116584108D01*
X69066392Y-116536814D01*
X69066390Y-116536811D01*
X69066390Y-116536809D01*
X69000503Y-116422690D01*
X69000501Y-116422688D01*
X69000500Y-116422686D01*
X68907314Y-116329500D01*
X68907311Y-116329498D01*
X68907309Y-116329496D01*
X68793189Y-116263609D01*
X68793191Y-116263609D01*
X68740519Y-116249496D01*
X68665892Y-116229500D01*
X68534108Y-116229500D01*
X68459481Y-116249496D01*
X68406809Y-116263609D01*
X68292690Y-116329496D01*
X68199496Y-116422690D01*
X68133609Y-116536809D01*
X68114539Y-116607978D01*
X68099500Y-116664108D01*
X43086687Y-116664108D01*
X43146542Y-116624114D01*
X43244114Y-116526542D01*
X43320775Y-116411811D01*
X43373580Y-116284328D01*
X43400500Y-116148993D01*
X43400500Y-116011007D01*
X43373580Y-115875672D01*
X43365736Y-115856737D01*
X43340374Y-115795504D01*
X43327369Y-115764108D01*
X90987000Y-115764108D01*
X90987000Y-115895892D01*
X91017079Y-116008151D01*
X91021109Y-116023190D01*
X91086996Y-116137309D01*
X91086998Y-116137311D01*
X91087000Y-116137314D01*
X91180186Y-116230500D01*
X91180188Y-116230501D01*
X91180190Y-116230503D01*
X91294310Y-116296390D01*
X91294308Y-116296390D01*
X91294312Y-116296391D01*
X91294314Y-116296392D01*
X91421608Y-116330500D01*
X91421610Y-116330500D01*
X91553390Y-116330500D01*
X91553392Y-116330500D01*
X91680686Y-116296392D01*
X91680688Y-116296390D01*
X91680690Y-116296390D01*
X91794809Y-116230503D01*
X91794809Y-116230502D01*
X91794814Y-116230500D01*
X91888000Y-116137314D01*
X91953892Y-116023186D01*
X91988000Y-115895892D01*
X91988000Y-115764108D01*
X91953892Y-115636814D01*
X91953890Y-115636811D01*
X91953890Y-115636809D01*
X91888003Y-115522690D01*
X91888001Y-115522688D01*
X91888000Y-115522686D01*
X91794814Y-115429500D01*
X91794811Y-115429498D01*
X91794809Y-115429496D01*
X91680689Y-115363609D01*
X91680691Y-115363609D01*
X91631299Y-115350375D01*
X91553392Y-115329500D01*
X91421608Y-115329500D01*
X91343700Y-115350375D01*
X91294309Y-115363609D01*
X91180190Y-115429496D01*
X91086996Y-115522690D01*
X91021109Y-115636809D01*
X91015638Y-115657228D01*
X90987000Y-115764108D01*
X43327369Y-115764108D01*
X43320775Y-115748189D01*
X43320773Y-115748186D01*
X43320771Y-115748182D01*
X43244114Y-115633458D01*
X43146541Y-115535885D01*
X43031817Y-115459228D01*
X43031806Y-115459222D01*
X42904328Y-115406420D01*
X42768995Y-115379500D01*
X42768993Y-115379500D01*
X41531007Y-115379500D01*
X41531004Y-115379500D01*
X41395672Y-115406420D01*
X41395670Y-115406420D01*
X41268193Y-115459222D01*
X41268182Y-115459228D01*
X41153458Y-115535885D01*
X41055885Y-115633458D01*
X40979228Y-115748182D01*
X40979222Y-115748193D01*
X40926420Y-115875670D01*
X40926420Y-115875672D01*
X40899500Y-116011004D01*
X39050499Y-116011004D01*
X39023580Y-115875672D01*
X39005978Y-115833177D01*
X38970777Y-115748193D01*
X38970771Y-115748182D01*
X38894114Y-115633458D01*
X38796541Y-115535885D01*
X38681817Y-115459228D01*
X38681806Y-115459222D01*
X38554328Y-115406420D01*
X38418995Y-115379500D01*
X38418993Y-115379500D01*
X37481007Y-115379500D01*
X37481004Y-115379500D01*
X37345672Y-115406420D01*
X37345670Y-115406420D01*
X37218193Y-115459222D01*
X37218182Y-115459228D01*
X37103458Y-115535885D01*
X37103454Y-115535889D01*
X37009893Y-115629451D01*
X36955376Y-115657228D01*
X36894944Y-115647657D01*
X36851679Y-115604392D01*
X36840889Y-115559447D01*
X36840889Y-114704108D01*
X80739500Y-114704108D01*
X80739500Y-114835892D01*
X80769579Y-114948151D01*
X80773609Y-114963190D01*
X80839496Y-115077309D01*
X80839498Y-115077311D01*
X80839500Y-115077314D01*
X80932686Y-115170500D01*
X80932688Y-115170501D01*
X80932690Y-115170503D01*
X81046810Y-115236390D01*
X81046808Y-115236390D01*
X81046812Y-115236391D01*
X81046814Y-115236392D01*
X81174108Y-115270500D01*
X81174110Y-115270500D01*
X81305890Y-115270500D01*
X81305892Y-115270500D01*
X81433186Y-115236392D01*
X81433188Y-115236390D01*
X81433190Y-115236390D01*
X81547309Y-115170503D01*
X81547309Y-115170502D01*
X81547314Y-115170500D01*
X81640500Y-115077314D01*
X81706392Y-114963186D01*
X81740500Y-114835892D01*
X81740500Y-114704108D01*
X81706392Y-114576814D01*
X81706390Y-114576811D01*
X81706390Y-114576809D01*
X81640503Y-114462690D01*
X81640501Y-114462688D01*
X81640500Y-114462686D01*
X81547314Y-114369500D01*
X81547311Y-114369498D01*
X81547309Y-114369496D01*
X81433189Y-114303609D01*
X81433191Y-114303609D01*
X81383799Y-114290375D01*
X81305892Y-114269500D01*
X81174108Y-114269500D01*
X81096200Y-114290375D01*
X81046809Y-114303609D01*
X80932690Y-114369496D01*
X80839496Y-114462690D01*
X80773609Y-114576809D01*
X80773608Y-114576814D01*
X80739500Y-114704108D01*
X36840889Y-114704108D01*
X36840889Y-114004108D01*
X62699500Y-114004108D01*
X62699500Y-114135892D01*
X62729579Y-114248151D01*
X62733609Y-114263190D01*
X62799496Y-114377309D01*
X62799498Y-114377311D01*
X62799500Y-114377314D01*
X62892686Y-114470500D01*
X62892688Y-114470501D01*
X62892690Y-114470503D01*
X63006810Y-114536390D01*
X63006808Y-114536390D01*
X63006812Y-114536391D01*
X63006814Y-114536392D01*
X63134108Y-114570500D01*
X63134110Y-114570500D01*
X63265890Y-114570500D01*
X63265892Y-114570500D01*
X63393186Y-114536392D01*
X63393188Y-114536390D01*
X63393190Y-114536390D01*
X63507309Y-114470503D01*
X63507309Y-114470502D01*
X63507314Y-114470500D01*
X63600500Y-114377314D01*
X63600503Y-114377309D01*
X63666390Y-114263190D01*
X63666390Y-114263188D01*
X63666392Y-114263186D01*
X63700500Y-114135892D01*
X63700500Y-114004108D01*
X63666392Y-113876814D01*
X63666390Y-113876811D01*
X63666390Y-113876809D01*
X63600503Y-113762690D01*
X63600501Y-113762688D01*
X63600500Y-113762686D01*
X63507314Y-113669500D01*
X63507311Y-113669498D01*
X63507309Y-113669496D01*
X63393189Y-113603609D01*
X63393191Y-113603609D01*
X63343799Y-113590375D01*
X63265892Y-113569500D01*
X63134108Y-113569500D01*
X63056200Y-113590375D01*
X63006809Y-113603609D01*
X62892690Y-113669496D01*
X62799496Y-113762690D01*
X62733609Y-113876809D01*
X62721902Y-113920500D01*
X62699500Y-114004108D01*
X36840889Y-114004108D01*
X36840889Y-112183191D01*
X54779501Y-112183191D01*
X54779501Y-112301809D01*
X54810202Y-112416386D01*
X54869511Y-112519113D01*
X54953387Y-112602989D01*
X55056114Y-112662298D01*
X55170691Y-112692999D01*
X55170693Y-112692999D01*
X55289307Y-112692999D01*
X55289309Y-112692999D01*
X55403886Y-112662298D01*
X55506613Y-112602989D01*
X55590489Y-112519113D01*
X55649798Y-112416386D01*
X55680499Y-112301809D01*
X55680499Y-112183191D01*
X55879501Y-112183191D01*
X55879501Y-112301809D01*
X55910202Y-112416386D01*
X55969511Y-112519113D01*
X56053387Y-112602989D01*
X56156114Y-112662298D01*
X56270691Y-112692999D01*
X56270693Y-112692999D01*
X56389307Y-112692999D01*
X56389309Y-112692999D01*
X56503886Y-112662298D01*
X56606613Y-112602989D01*
X56690489Y-112519113D01*
X56749798Y-112416386D01*
X56780499Y-112301809D01*
X56780499Y-112183191D01*
X56979501Y-112183191D01*
X56979501Y-112301809D01*
X57010202Y-112416386D01*
X57069511Y-112519113D01*
X57153387Y-112602989D01*
X57256114Y-112662298D01*
X57370691Y-112692999D01*
X57370693Y-112692999D01*
X57489307Y-112692999D01*
X57489309Y-112692999D01*
X57603886Y-112662298D01*
X57706613Y-112602989D01*
X57790489Y-112519113D01*
X57849798Y-112416386D01*
X57880499Y-112301809D01*
X57880499Y-112183191D01*
X57849798Y-112068614D01*
X57847196Y-112064108D01*
X74049500Y-112064108D01*
X74049500Y-112195892D01*
X74066455Y-112259168D01*
X74083609Y-112323190D01*
X74149496Y-112437309D01*
X74149498Y-112437311D01*
X74149500Y-112437314D01*
X74242686Y-112530500D01*
X74242688Y-112530501D01*
X74242690Y-112530503D01*
X74356810Y-112596390D01*
X74356808Y-112596390D01*
X74356812Y-112596391D01*
X74356814Y-112596392D01*
X74484108Y-112630500D01*
X74484110Y-112630500D01*
X74615890Y-112630500D01*
X74615892Y-112630500D01*
X74634496Y-112625515D01*
X83969500Y-112625515D01*
X83969500Y-112814484D01*
X83999058Y-113001113D01*
X84057453Y-113180832D01*
X84090602Y-113245892D01*
X84143240Y-113349199D01*
X84254310Y-113502073D01*
X84387927Y-113635690D01*
X84540801Y-113746760D01*
X84709168Y-113832547D01*
X84888882Y-113890940D01*
X84888883Y-113890940D01*
X84888886Y-113890941D01*
X85075516Y-113920500D01*
X85075519Y-113920500D01*
X85264484Y-113920500D01*
X85451113Y-113890941D01*
X85451114Y-113890940D01*
X85451118Y-113890940D01*
X85630832Y-113832547D01*
X85799199Y-113746760D01*
X85952073Y-113635690D01*
X86085690Y-113502073D01*
X86196760Y-113349199D01*
X86282547Y-113180832D01*
X86282548Y-113180827D01*
X86282550Y-113180825D01*
X86304228Y-113114108D01*
X94939500Y-113114108D01*
X94939500Y-113245892D01*
X94967180Y-113349196D01*
X94973609Y-113373190D01*
X95039496Y-113487309D01*
X95039498Y-113487311D01*
X95039500Y-113487314D01*
X95132686Y-113580500D01*
X95132688Y-113580501D01*
X95132690Y-113580503D01*
X95246810Y-113646390D01*
X95246808Y-113646390D01*
X95246812Y-113646391D01*
X95246814Y-113646392D01*
X95374108Y-113680500D01*
X95374110Y-113680500D01*
X95505890Y-113680500D01*
X95505892Y-113680500D01*
X95633186Y-113646392D01*
X95633188Y-113646390D01*
X95633190Y-113646390D01*
X95747309Y-113580503D01*
X95747309Y-113580502D01*
X95747314Y-113580500D01*
X95840500Y-113487314D01*
X95906392Y-113373186D01*
X95940500Y-113245892D01*
X95940500Y-113114108D01*
X95906392Y-112986814D01*
X95906390Y-112986811D01*
X95906390Y-112986809D01*
X95840503Y-112872690D01*
X95840501Y-112872688D01*
X95840500Y-112872686D01*
X95747314Y-112779500D01*
X95747311Y-112779498D01*
X95747309Y-112779496D01*
X95633189Y-112713609D01*
X95633191Y-112713609D01*
X95556271Y-112692999D01*
X95505892Y-112679500D01*
X95374108Y-112679500D01*
X95323729Y-112692999D01*
X95246809Y-112713609D01*
X95132690Y-112779496D01*
X95039496Y-112872690D01*
X94973609Y-112986809D01*
X94969776Y-113001115D01*
X94939500Y-113114108D01*
X86304228Y-113114108D01*
X86316276Y-113077029D01*
X86316276Y-113077027D01*
X86324531Y-113051617D01*
X86340940Y-113001118D01*
X86361281Y-112872690D01*
X86370500Y-112814484D01*
X86370500Y-112625515D01*
X86340941Y-112438886D01*
X86340940Y-112438882D01*
X86282547Y-112259168D01*
X86196760Y-112090801D01*
X86085690Y-111937927D01*
X85952073Y-111804310D01*
X85799199Y-111693240D01*
X85799198Y-111693239D01*
X85799196Y-111693238D01*
X85630832Y-111607453D01*
X85451113Y-111549058D01*
X85264484Y-111519500D01*
X85264481Y-111519500D01*
X85167321Y-111519500D01*
X85109130Y-111500593D01*
X85073166Y-111451093D01*
X85073166Y-111389907D01*
X85097315Y-111350498D01*
X85159979Y-111287835D01*
X85173461Y-111264484D01*
X85225869Y-111173711D01*
X85225869Y-111173709D01*
X85225871Y-111173707D01*
X85259979Y-111046413D01*
X85259979Y-110978979D01*
X85278886Y-110920788D01*
X85328386Y-110884824D01*
X85358979Y-110879979D01*
X85426411Y-110879979D01*
X85426413Y-110879979D01*
X85553707Y-110845871D01*
X85553709Y-110845869D01*
X85553711Y-110845869D01*
X85667830Y-110779982D01*
X85667830Y-110779981D01*
X85667835Y-110779979D01*
X85761021Y-110686793D01*
X85810841Y-110600503D01*
X85826911Y-110572669D01*
X85826911Y-110572667D01*
X85826913Y-110572665D01*
X85861021Y-110445371D01*
X85861021Y-110313587D01*
X85826913Y-110186293D01*
X85826911Y-110186290D01*
X85826911Y-110186288D01*
X85761024Y-110072169D01*
X85761022Y-110072167D01*
X85761021Y-110072165D01*
X85667835Y-109978979D01*
X85667832Y-109978977D01*
X85667830Y-109978975D01*
X85553710Y-109913088D01*
X85553712Y-109913088D01*
X85498095Y-109898186D01*
X85426413Y-109878979D01*
X85294629Y-109878979D01*
X85222947Y-109898186D01*
X85167330Y-109913088D01*
X85053211Y-109978975D01*
X84960017Y-110072169D01*
X84894130Y-110186288D01*
X84860021Y-110313588D01*
X84860021Y-110381021D01*
X84841114Y-110439212D01*
X84791614Y-110475176D01*
X84761021Y-110480021D01*
X84693587Y-110480021D01*
X84646257Y-110492703D01*
X84566288Y-110514130D01*
X84452169Y-110580017D01*
X84358975Y-110673211D01*
X84293088Y-110787330D01*
X84293087Y-110787335D01*
X84258979Y-110914629D01*
X84258979Y-111046413D01*
X84261414Y-111055500D01*
X84293088Y-111173711D01*
X84358975Y-111287830D01*
X84358977Y-111287832D01*
X84358979Y-111287835D01*
X84452165Y-111381021D01*
X84452167Y-111381022D01*
X84452169Y-111381024D01*
X84566289Y-111446911D01*
X84566290Y-111446911D01*
X84566293Y-111446913D01*
X84617301Y-111460580D01*
X84668614Y-111493902D01*
X84690541Y-111551023D01*
X84674706Y-111610124D01*
X84636623Y-111644415D01*
X84540806Y-111693236D01*
X84540804Y-111693237D01*
X84387928Y-111804309D01*
X84254309Y-111937928D01*
X84143238Y-112090803D01*
X84057453Y-112259167D01*
X83999058Y-112438886D01*
X83969500Y-112625515D01*
X74634496Y-112625515D01*
X74743186Y-112596392D01*
X74743188Y-112596390D01*
X74743190Y-112596390D01*
X74792201Y-112568092D01*
X74857314Y-112530500D01*
X74950500Y-112437314D01*
X74962583Y-112416386D01*
X75016390Y-112323190D01*
X75016390Y-112323188D01*
X75016392Y-112323186D01*
X75050500Y-112195892D01*
X75050500Y-112064108D01*
X75016392Y-111936814D01*
X75016390Y-111936811D01*
X75016390Y-111936809D01*
X74950503Y-111822690D01*
X74950501Y-111822688D01*
X74950500Y-111822686D01*
X74857314Y-111729500D01*
X74857311Y-111729498D01*
X74857309Y-111729496D01*
X74743189Y-111663609D01*
X74743191Y-111663609D01*
X74693799Y-111650375D01*
X74615892Y-111629500D01*
X74484108Y-111629500D01*
X74406200Y-111650375D01*
X74356809Y-111663609D01*
X74242690Y-111729496D01*
X74149496Y-111822690D01*
X74083609Y-111936809D01*
X74079520Y-111952071D01*
X74049500Y-112064108D01*
X57847196Y-112064108D01*
X57790489Y-111965887D01*
X57706613Y-111882011D01*
X57603886Y-111822702D01*
X57489309Y-111792001D01*
X57370691Y-111792001D01*
X57256114Y-111822702D01*
X57153387Y-111882011D01*
X57069511Y-111965887D01*
X57010202Y-112068614D01*
X56979501Y-112183191D01*
X56780499Y-112183191D01*
X56749798Y-112068614D01*
X56690489Y-111965887D01*
X56606613Y-111882011D01*
X56503886Y-111822702D01*
X56389309Y-111792001D01*
X56270691Y-111792001D01*
X56156114Y-111822702D01*
X56053387Y-111882011D01*
X55969511Y-111965887D01*
X55910202Y-112068614D01*
X55879501Y-112183191D01*
X55680499Y-112183191D01*
X55649798Y-112068614D01*
X55590489Y-111965887D01*
X55506613Y-111882011D01*
X55403886Y-111822702D01*
X55289309Y-111792001D01*
X55170691Y-111792001D01*
X55056114Y-111822702D01*
X54953387Y-111882011D01*
X54869511Y-111965887D01*
X54810202Y-112068614D01*
X54779501Y-112183191D01*
X36840889Y-112183191D01*
X36840889Y-111094108D01*
X60969500Y-111094108D01*
X60969500Y-111225892D01*
X60999579Y-111338151D01*
X61003609Y-111353190D01*
X61069496Y-111467309D01*
X61069498Y-111467311D01*
X61069500Y-111467314D01*
X61162686Y-111560500D01*
X61162688Y-111560501D01*
X61162690Y-111560503D01*
X61276810Y-111626390D01*
X61276808Y-111626390D01*
X61276812Y-111626391D01*
X61276814Y-111626392D01*
X61404108Y-111660500D01*
X61404110Y-111660500D01*
X61535890Y-111660500D01*
X61535892Y-111660500D01*
X61663186Y-111626392D01*
X61663188Y-111626390D01*
X61663190Y-111626390D01*
X61777309Y-111560503D01*
X61777309Y-111560502D01*
X61777314Y-111560500D01*
X61870500Y-111467314D01*
X61870503Y-111467309D01*
X61936390Y-111353190D01*
X61936390Y-111353188D01*
X61936392Y-111353186D01*
X61970500Y-111225892D01*
X61970500Y-111094108D01*
X61965518Y-111075515D01*
X75539500Y-111075515D01*
X75539500Y-111264484D01*
X75569058Y-111451113D01*
X75627453Y-111630832D01*
X75677726Y-111729500D01*
X75713240Y-111799199D01*
X75824310Y-111952073D01*
X75957927Y-112085690D01*
X76110801Y-112196760D01*
X76279168Y-112282547D01*
X76458882Y-112340940D01*
X76458883Y-112340940D01*
X76458886Y-112340941D01*
X76645516Y-112370500D01*
X76645519Y-112370500D01*
X76834484Y-112370500D01*
X77021113Y-112340941D01*
X77021114Y-112340940D01*
X77021118Y-112340940D01*
X77200832Y-112282547D01*
X77369199Y-112196760D01*
X77522073Y-112085690D01*
X77655690Y-111952073D01*
X77766760Y-111799199D01*
X77852547Y-111630832D01*
X77910940Y-111451118D01*
X77911606Y-111446913D01*
X77940500Y-111264484D01*
X77940500Y-111075515D01*
X77910941Y-110888886D01*
X77902307Y-110862314D01*
X77852547Y-110709168D01*
X77766760Y-110540801D01*
X77655690Y-110387927D01*
X77522073Y-110254310D01*
X77369199Y-110143240D01*
X77369198Y-110143239D01*
X77369196Y-110143238D01*
X77200832Y-110057453D01*
X77021113Y-109999058D01*
X76834484Y-109969500D01*
X76834481Y-109969500D01*
X76645519Y-109969500D01*
X76645516Y-109969500D01*
X76458886Y-109999058D01*
X76279167Y-110057453D01*
X76110803Y-110143238D01*
X75957928Y-110254309D01*
X75824309Y-110387928D01*
X75713238Y-110540803D01*
X75627453Y-110709167D01*
X75569058Y-110888886D01*
X75539500Y-111075515D01*
X61965518Y-111075515D01*
X61936392Y-110966814D01*
X61936390Y-110966811D01*
X61936390Y-110966809D01*
X61870503Y-110852690D01*
X61870501Y-110852688D01*
X61870500Y-110852686D01*
X61777314Y-110759500D01*
X61777311Y-110759498D01*
X61777309Y-110759496D01*
X61663189Y-110693609D01*
X61663191Y-110693609D01*
X61613799Y-110680375D01*
X61535892Y-110659500D01*
X61404108Y-110659500D01*
X61326200Y-110680375D01*
X61276809Y-110693609D01*
X61162690Y-110759496D01*
X61069496Y-110852690D01*
X61003609Y-110966809D01*
X60988984Y-111021392D01*
X60969500Y-111094108D01*
X36840889Y-111094108D01*
X36840889Y-110134108D01*
X55399500Y-110134108D01*
X55399500Y-110265892D01*
X55412280Y-110313587D01*
X55433609Y-110393190D01*
X55499496Y-110507309D01*
X55499498Y-110507311D01*
X55499500Y-110507314D01*
X55592686Y-110600500D01*
X55592688Y-110600501D01*
X55592690Y-110600503D01*
X55706810Y-110666390D01*
X55706808Y-110666390D01*
X55706812Y-110666391D01*
X55706814Y-110666392D01*
X55834108Y-110700500D01*
X55834110Y-110700500D01*
X55965890Y-110700500D01*
X55965892Y-110700500D01*
X56093186Y-110666392D01*
X56093188Y-110666390D01*
X56093190Y-110666390D01*
X56207309Y-110600503D01*
X56207309Y-110600502D01*
X56207314Y-110600500D01*
X56300500Y-110507314D01*
X56366392Y-110393186D01*
X56400500Y-110265892D01*
X56400500Y-110134108D01*
X56366392Y-110006814D01*
X56366390Y-110006811D01*
X56366390Y-110006809D01*
X56300503Y-109892690D01*
X56300501Y-109892688D01*
X56300500Y-109892686D01*
X56207314Y-109799500D01*
X56207311Y-109799498D01*
X56207309Y-109799496D01*
X56093189Y-109733609D01*
X56093191Y-109733609D01*
X56028927Y-109716390D01*
X55965892Y-109699500D01*
X55834108Y-109699500D01*
X55771073Y-109716390D01*
X55706809Y-109733609D01*
X55592690Y-109799496D01*
X55499496Y-109892690D01*
X55433609Y-110006809D01*
X55432135Y-110012310D01*
X55399500Y-110134108D01*
X36840889Y-110134108D01*
X36840889Y-109184108D01*
X78149500Y-109184108D01*
X78149500Y-109315892D01*
X78175817Y-109414108D01*
X78183609Y-109443190D01*
X78249496Y-109557309D01*
X78249498Y-109557311D01*
X78249500Y-109557314D01*
X78342686Y-109650500D01*
X78342688Y-109650501D01*
X78342690Y-109650503D01*
X78456810Y-109716390D01*
X78456808Y-109716390D01*
X78456812Y-109716391D01*
X78456814Y-109716392D01*
X78584108Y-109750500D01*
X78584110Y-109750500D01*
X78715890Y-109750500D01*
X78715892Y-109750500D01*
X78843186Y-109716392D01*
X78843188Y-109716390D01*
X78843190Y-109716390D01*
X78957309Y-109650503D01*
X78957309Y-109650502D01*
X78957314Y-109650500D01*
X79050500Y-109557314D01*
X79050503Y-109557309D01*
X79116390Y-109443190D01*
X79116390Y-109443188D01*
X79116392Y-109443186D01*
X79124183Y-109414108D01*
X90559500Y-109414108D01*
X90559500Y-109545892D01*
X90575873Y-109606996D01*
X90593609Y-109673190D01*
X90659496Y-109787309D01*
X90659498Y-109787311D01*
X90659500Y-109787314D01*
X90752686Y-109880500D01*
X90752688Y-109880501D01*
X90752690Y-109880503D01*
X90866810Y-109946390D01*
X90866808Y-109946390D01*
X90866812Y-109946391D01*
X90866814Y-109946392D01*
X90994108Y-109980500D01*
X90994110Y-109980500D01*
X91125890Y-109980500D01*
X91125892Y-109980500D01*
X91253186Y-109946392D01*
X91253188Y-109946390D01*
X91253190Y-109946390D01*
X91367309Y-109880503D01*
X91367309Y-109880502D01*
X91367314Y-109880500D01*
X91460500Y-109787314D01*
X91469981Y-109770892D01*
X91526390Y-109673190D01*
X91526390Y-109673188D01*
X91526392Y-109673186D01*
X91535523Y-109639108D01*
X94119500Y-109639108D01*
X94119500Y-109770892D01*
X94148462Y-109878979D01*
X94153609Y-109898190D01*
X94219496Y-110012309D01*
X94219498Y-110012311D01*
X94219500Y-110012314D01*
X94267184Y-110059998D01*
X94294960Y-110114513D01*
X94285389Y-110174945D01*
X94267185Y-110200000D01*
X94219500Y-110247686D01*
X94219497Y-110247689D01*
X94219496Y-110247690D01*
X94153609Y-110361809D01*
X94146611Y-110387927D01*
X94119500Y-110489108D01*
X94119500Y-110620892D01*
X94129845Y-110659500D01*
X94153609Y-110748190D01*
X94219496Y-110862309D01*
X94219498Y-110862311D01*
X94219500Y-110862314D01*
X94312686Y-110955500D01*
X94312688Y-110955501D01*
X94312690Y-110955503D01*
X94426810Y-111021390D01*
X94426808Y-111021390D01*
X94426812Y-111021391D01*
X94426814Y-111021392D01*
X94554108Y-111055500D01*
X94554110Y-111055500D01*
X94685890Y-111055500D01*
X94685892Y-111055500D01*
X94813186Y-111021392D01*
X94813188Y-111021390D01*
X94813190Y-111021390D01*
X94927309Y-110955503D01*
X94927309Y-110955502D01*
X94927314Y-110955500D01*
X95020500Y-110862314D01*
X95020503Y-110862309D01*
X95086390Y-110748190D01*
X95086390Y-110748188D01*
X95086392Y-110748186D01*
X95120500Y-110620892D01*
X95120500Y-110489108D01*
X95086392Y-110361814D01*
X95086390Y-110361811D01*
X95086390Y-110361809D01*
X95020503Y-110247690D01*
X95020501Y-110247688D01*
X95020500Y-110247686D01*
X94972815Y-110200001D01*
X94945040Y-110145487D01*
X94954611Y-110085055D01*
X94972814Y-110059999D01*
X95020500Y-110012314D01*
X95020503Y-110012309D01*
X95086390Y-109898190D01*
X95086390Y-109898188D01*
X95086392Y-109898186D01*
X95120500Y-109770892D01*
X95120500Y-109639108D01*
X95096136Y-109548179D01*
X95099339Y-109487081D01*
X95137844Y-109439531D01*
X95196944Y-109423695D01*
X95241621Y-109440176D01*
X95242853Y-109438043D01*
X95362597Y-109507177D01*
X95362595Y-109507177D01*
X95362599Y-109507178D01*
X95362601Y-109507179D01*
X95489895Y-109541287D01*
X95489897Y-109541287D01*
X95621677Y-109541287D01*
X95621679Y-109541287D01*
X95748973Y-109507179D01*
X95748975Y-109507177D01*
X95748977Y-109507177D01*
X95863096Y-109441290D01*
X95863096Y-109441289D01*
X95863101Y-109441287D01*
X95956287Y-109348101D01*
X95981460Y-109304500D01*
X96022177Y-109233977D01*
X96022177Y-109233975D01*
X96022179Y-109233973D01*
X96056287Y-109106679D01*
X96056287Y-108974895D01*
X96022179Y-108847601D01*
X96022177Y-108847598D01*
X96022177Y-108847596D01*
X95956290Y-108733477D01*
X95956288Y-108733475D01*
X95956287Y-108733473D01*
X95908602Y-108685788D01*
X95880827Y-108631274D01*
X95890398Y-108570842D01*
X95908601Y-108545786D01*
X95956287Y-108498101D01*
X96022179Y-108383973D01*
X96056287Y-108256679D01*
X96056287Y-108124895D01*
X96022179Y-107997601D01*
X96022177Y-107997598D01*
X96022177Y-107997596D01*
X95956290Y-107883477D01*
X95956288Y-107883475D01*
X95956287Y-107883473D01*
X95863101Y-107790287D01*
X95863098Y-107790285D01*
X95863096Y-107790283D01*
X95748976Y-107724396D01*
X95748978Y-107724396D01*
X95699586Y-107711162D01*
X95621679Y-107690287D01*
X95489895Y-107690287D01*
X95411987Y-107711162D01*
X95362596Y-107724396D01*
X95248477Y-107790283D01*
X95155283Y-107883477D01*
X95089396Y-107997596D01*
X95089395Y-107997601D01*
X95055287Y-108124895D01*
X95055287Y-108256679D01*
X95085366Y-108368938D01*
X95089396Y-108383977D01*
X95155283Y-108498096D01*
X95155285Y-108498098D01*
X95155287Y-108498101D01*
X95202971Y-108545785D01*
X95230747Y-108600300D01*
X95221176Y-108660732D01*
X95202972Y-108685787D01*
X95155287Y-108733473D01*
X95155284Y-108733476D01*
X95155283Y-108733477D01*
X95089396Y-108847596D01*
X95055287Y-108974896D01*
X95055287Y-109106678D01*
X95079650Y-109197605D01*
X95076447Y-109258706D01*
X95037942Y-109306256D01*
X94978841Y-109322091D01*
X94934164Y-109305612D01*
X94932934Y-109307744D01*
X94813189Y-109238609D01*
X94813191Y-109238609D01*
X94763799Y-109225375D01*
X94685892Y-109204500D01*
X94554108Y-109204500D01*
X94476200Y-109225375D01*
X94426809Y-109238609D01*
X94312690Y-109304496D01*
X94219496Y-109397690D01*
X94153609Y-109511809D01*
X94153608Y-109511814D01*
X94119500Y-109639108D01*
X91535523Y-109639108D01*
X91560500Y-109545892D01*
X91560500Y-109414108D01*
X91526392Y-109286814D01*
X91526390Y-109286811D01*
X91526390Y-109286809D01*
X91460503Y-109172690D01*
X91460501Y-109172688D01*
X91460500Y-109172686D01*
X91367314Y-109079500D01*
X91367311Y-109079498D01*
X91367309Y-109079496D01*
X91253189Y-109013609D01*
X91253191Y-109013609D01*
X91203799Y-109000375D01*
X91125892Y-108979500D01*
X90994108Y-108979500D01*
X90916200Y-109000375D01*
X90866809Y-109013609D01*
X90752690Y-109079496D01*
X90659496Y-109172690D01*
X90593609Y-109286809D01*
X90577188Y-109348096D01*
X90559500Y-109414108D01*
X79124183Y-109414108D01*
X79150500Y-109315892D01*
X79150500Y-109184108D01*
X79116392Y-109056814D01*
X79116390Y-109056811D01*
X79116390Y-109056809D01*
X79050503Y-108942690D01*
X79050501Y-108942688D01*
X79050500Y-108942686D01*
X78957314Y-108849500D01*
X78957311Y-108849498D01*
X78957309Y-108849496D01*
X78843189Y-108783609D01*
X78843191Y-108783609D01*
X78793799Y-108770375D01*
X78715892Y-108749500D01*
X78584108Y-108749500D01*
X78506200Y-108770375D01*
X78456809Y-108783609D01*
X78342690Y-108849496D01*
X78249496Y-108942690D01*
X78183609Y-109056809D01*
X78183608Y-109056814D01*
X78149500Y-109184108D01*
X36840889Y-109184108D01*
X36840889Y-106877072D01*
X40694500Y-106877072D01*
X40694500Y-107122927D01*
X40726590Y-107366669D01*
X40726590Y-107366674D01*
X40790222Y-107604154D01*
X40884302Y-107831284D01*
X40884304Y-107831288D01*
X40884306Y-107831292D01*
X41007233Y-108044208D01*
X41007235Y-108044211D01*
X41156893Y-108239249D01*
X41156895Y-108239251D01*
X41156899Y-108239256D01*
X41330744Y-108413101D01*
X41330748Y-108413104D01*
X41330750Y-108413106D01*
X41441518Y-108498101D01*
X41525792Y-108562767D01*
X41738708Y-108685694D01*
X41965847Y-108779778D01*
X42203323Y-108843409D01*
X42447073Y-108875500D01*
X42447074Y-108875500D01*
X42692926Y-108875500D01*
X42692927Y-108875500D01*
X42936677Y-108843409D01*
X43174153Y-108779778D01*
X43401292Y-108685694D01*
X43614208Y-108562767D01*
X43809256Y-108413101D01*
X43983101Y-108239256D01*
X44132767Y-108044208D01*
X44255694Y-107831292D01*
X44349778Y-107604153D01*
X44413409Y-107366677D01*
X44445500Y-107122927D01*
X44445500Y-106877073D01*
X44413409Y-106633323D01*
X44349778Y-106395847D01*
X44255694Y-106168708D01*
X44132767Y-105955792D01*
X43983101Y-105760744D01*
X43809256Y-105586899D01*
X43809251Y-105586895D01*
X43809249Y-105586893D01*
X43614211Y-105437235D01*
X43614208Y-105437233D01*
X43401292Y-105314306D01*
X43401288Y-105314304D01*
X43401284Y-105314302D01*
X43174154Y-105220222D01*
X43069440Y-105192164D01*
X42936677Y-105156591D01*
X42936674Y-105156590D01*
X42936672Y-105156590D01*
X42692927Y-105124500D01*
X42447073Y-105124500D01*
X42447072Y-105124500D01*
X42203330Y-105156590D01*
X42203325Y-105156590D01*
X41965845Y-105220222D01*
X41738715Y-105314302D01*
X41525788Y-105437235D01*
X41330750Y-105586893D01*
X41156893Y-105760750D01*
X41007235Y-105955788D01*
X40884302Y-106168715D01*
X40790222Y-106395845D01*
X40726590Y-106633325D01*
X40726590Y-106633330D01*
X40694500Y-106877072D01*
X36840889Y-106877072D01*
X36840889Y-98012381D01*
X37299500Y-98012381D01*
X37299500Y-98199618D01*
X37336026Y-98383249D01*
X37407677Y-98556229D01*
X37407681Y-98556238D01*
X37482065Y-98667559D01*
X37511698Y-98711908D01*
X37644092Y-98844302D01*
X37678483Y-98867281D01*
X37799761Y-98948318D01*
X37799767Y-98948320D01*
X37799769Y-98948322D01*
X37972749Y-99019973D01*
X37997529Y-99024902D01*
X38050913Y-99054799D01*
X38076529Y-99110364D01*
X38064592Y-99170374D01*
X38019662Y-99211906D01*
X37997529Y-99219098D01*
X37972750Y-99224026D01*
X37799770Y-99295677D01*
X37799761Y-99295681D01*
X37644092Y-99399698D01*
X37644088Y-99399701D01*
X37511701Y-99532088D01*
X37511698Y-99532092D01*
X37407681Y-99687761D01*
X37407677Y-99687770D01*
X37336026Y-99860750D01*
X37299500Y-100044381D01*
X37299500Y-100231618D01*
X37336026Y-100415249D01*
X37407677Y-100588229D01*
X37407681Y-100588238D01*
X37480227Y-100696809D01*
X37511698Y-100743908D01*
X37644092Y-100876302D01*
X37710463Y-100920649D01*
X37799761Y-100980318D01*
X37799767Y-100980320D01*
X37799769Y-100980322D01*
X37972749Y-101051973D01*
X37997529Y-101056902D01*
X38050913Y-101086799D01*
X38076529Y-101142364D01*
X38064592Y-101202374D01*
X38019662Y-101243906D01*
X37997529Y-101251098D01*
X37972750Y-101256026D01*
X37799770Y-101327677D01*
X37799761Y-101327681D01*
X37644092Y-101431698D01*
X37644088Y-101431701D01*
X37511701Y-101564088D01*
X37511698Y-101564092D01*
X37407681Y-101719761D01*
X37407677Y-101719770D01*
X37336026Y-101892750D01*
X37299500Y-102076381D01*
X37299500Y-102263618D01*
X37336026Y-102447249D01*
X37407677Y-102620229D01*
X37407681Y-102620238D01*
X37456047Y-102692621D01*
X37511698Y-102775908D01*
X37644092Y-102908302D01*
X37710463Y-102952649D01*
X37799761Y-103012318D01*
X37799767Y-103012320D01*
X37799769Y-103012322D01*
X37972749Y-103083973D01*
X37997529Y-103088902D01*
X38050913Y-103118799D01*
X38076529Y-103174364D01*
X38064592Y-103234374D01*
X38019662Y-103275906D01*
X37997529Y-103283098D01*
X37972750Y-103288026D01*
X37799770Y-103359677D01*
X37799761Y-103359681D01*
X37644092Y-103463698D01*
X37644088Y-103463701D01*
X37511701Y-103596088D01*
X37511698Y-103596092D01*
X37407681Y-103751761D01*
X37407677Y-103751770D01*
X37336026Y-103924750D01*
X37299500Y-104108381D01*
X37299500Y-104295618D01*
X37336026Y-104479249D01*
X37407677Y-104652229D01*
X37407681Y-104652238D01*
X37482065Y-104763559D01*
X37511698Y-104807908D01*
X37644092Y-104940302D01*
X37710463Y-104984649D01*
X37799761Y-105044318D01*
X37799767Y-105044320D01*
X37799769Y-105044322D01*
X37972749Y-105115973D01*
X38156384Y-105152500D01*
X38156385Y-105152500D01*
X38343615Y-105152500D01*
X38343616Y-105152500D01*
X38527251Y-105115973D01*
X38700231Y-105044322D01*
X38700234Y-105044319D01*
X38700238Y-105044318D01*
X38745187Y-105014282D01*
X38855908Y-104940302D01*
X38988302Y-104807908D01*
X39062282Y-104697187D01*
X39092318Y-104652238D01*
X39092319Y-104652234D01*
X39092322Y-104652231D01*
X39163973Y-104479251D01*
X39200500Y-104295616D01*
X39200500Y-104108384D01*
X39163973Y-103924749D01*
X39163972Y-103924748D01*
X39163024Y-103919979D01*
X39165442Y-103919497D01*
X39166423Y-103867824D01*
X39203319Y-103819016D01*
X39261858Y-103801216D01*
X39319680Y-103821224D01*
X39329984Y-103830194D01*
X39424092Y-103924302D01*
X39490463Y-103968649D01*
X39579761Y-104028318D01*
X39579767Y-104028320D01*
X39579769Y-104028322D01*
X39752749Y-104099973D01*
X39936384Y-104136500D01*
X39936385Y-104136500D01*
X40123615Y-104136500D01*
X40123616Y-104136500D01*
X40307251Y-104099973D01*
X40480231Y-104028322D01*
X40480234Y-104028319D01*
X40480238Y-104028318D01*
X40525187Y-103998282D01*
X40635908Y-103924302D01*
X40768302Y-103791908D01*
X40845823Y-103675890D01*
X40872318Y-103636238D01*
X40872324Y-103636226D01*
X40910481Y-103544108D01*
X96519500Y-103544108D01*
X96519500Y-103675892D01*
X96539829Y-103751761D01*
X96553609Y-103803190D01*
X96619496Y-103917309D01*
X96619498Y-103917311D01*
X96619500Y-103917314D01*
X96712686Y-104010500D01*
X96712688Y-104010501D01*
X96712690Y-104010503D01*
X96826810Y-104076390D01*
X96826808Y-104076390D01*
X96826812Y-104076391D01*
X96826814Y-104076392D01*
X96954108Y-104110500D01*
X96954110Y-104110500D01*
X97085890Y-104110500D01*
X97085892Y-104110500D01*
X97213186Y-104076392D01*
X97213188Y-104076390D01*
X97213190Y-104076390D01*
X97327309Y-104010503D01*
X97327309Y-104010502D01*
X97327314Y-104010500D01*
X97420500Y-103917314D01*
X97486392Y-103803186D01*
X97520500Y-103675892D01*
X97520500Y-103544108D01*
X97486392Y-103416814D01*
X97486390Y-103416811D01*
X97486390Y-103416809D01*
X97420503Y-103302690D01*
X97420501Y-103302688D01*
X97420500Y-103302686D01*
X97327314Y-103209500D01*
X97327311Y-103209498D01*
X97327309Y-103209496D01*
X97213189Y-103143609D01*
X97213191Y-103143609D01*
X97163799Y-103130375D01*
X97085892Y-103109500D01*
X96954108Y-103109500D01*
X96876200Y-103130375D01*
X96826809Y-103143609D01*
X96712690Y-103209496D01*
X96619496Y-103302690D01*
X96553609Y-103416809D01*
X96541045Y-103463701D01*
X96519500Y-103544108D01*
X40910481Y-103544108D01*
X40943973Y-103463251D01*
X40980500Y-103279616D01*
X40980500Y-103092384D01*
X40943973Y-102908749D01*
X40872322Y-102735769D01*
X40872320Y-102735767D01*
X40872318Y-102735761D01*
X40843492Y-102692621D01*
X40811076Y-102644108D01*
X115809500Y-102644108D01*
X115809500Y-102775892D01*
X115826477Y-102839252D01*
X115843609Y-102903190D01*
X115909496Y-103017309D01*
X115909498Y-103017311D01*
X115909500Y-103017314D01*
X116002686Y-103110500D01*
X116002688Y-103110501D01*
X116002690Y-103110503D01*
X116116810Y-103176390D01*
X116116808Y-103176390D01*
X116116812Y-103176391D01*
X116116814Y-103176392D01*
X116244108Y-103210500D01*
X116244110Y-103210500D01*
X116375890Y-103210500D01*
X116375892Y-103210500D01*
X116503186Y-103176392D01*
X116503188Y-103176390D01*
X116503190Y-103176390D01*
X116617309Y-103110503D01*
X116617309Y-103110502D01*
X116617314Y-103110500D01*
X116710500Y-103017314D01*
X116713382Y-103012322D01*
X116776390Y-102903190D01*
X116776390Y-102903188D01*
X116776392Y-102903186D01*
X116810500Y-102775892D01*
X116810500Y-102644108D01*
X116776392Y-102516814D01*
X116776390Y-102516811D01*
X116776390Y-102516809D01*
X116710503Y-102402690D01*
X116710501Y-102402688D01*
X116710500Y-102402686D01*
X116617314Y-102309500D01*
X116617311Y-102309498D01*
X116617309Y-102309496D01*
X116503189Y-102243609D01*
X116503191Y-102243609D01*
X116453799Y-102230375D01*
X116375892Y-102209500D01*
X116244108Y-102209500D01*
X116166200Y-102230375D01*
X116116809Y-102243609D01*
X116002690Y-102309496D01*
X115909496Y-102402690D01*
X115843609Y-102516809D01*
X115843608Y-102516814D01*
X115809500Y-102644108D01*
X40811076Y-102644108D01*
X40768302Y-102580092D01*
X40635908Y-102447698D01*
X40568543Y-102402686D01*
X40480238Y-102343681D01*
X40480229Y-102343677D01*
X40307249Y-102272026D01*
X40288890Y-102268374D01*
X40282469Y-102267097D01*
X40229086Y-102237201D01*
X40203470Y-102181636D01*
X40215407Y-102121627D01*
X40260337Y-102080094D01*
X40282468Y-102072902D01*
X40307251Y-102067973D01*
X40480231Y-101996322D01*
X40480234Y-101996319D01*
X40480238Y-101996318D01*
X40525187Y-101966282D01*
X40635908Y-101892302D01*
X40768302Y-101759908D01*
X40772177Y-101754108D01*
X61469500Y-101754108D01*
X61469500Y-101885892D01*
X61471338Y-101892750D01*
X61503609Y-102013190D01*
X61569496Y-102127309D01*
X61569498Y-102127311D01*
X61569500Y-102127314D01*
X61662686Y-102220500D01*
X61662688Y-102220501D01*
X61662690Y-102220503D01*
X61776810Y-102286390D01*
X61776808Y-102286390D01*
X61776812Y-102286391D01*
X61776814Y-102286392D01*
X61904108Y-102320500D01*
X61904110Y-102320500D01*
X62035890Y-102320500D01*
X62035892Y-102320500D01*
X62163186Y-102286392D01*
X62163188Y-102286390D01*
X62163190Y-102286390D01*
X62277309Y-102220503D01*
X62277309Y-102220502D01*
X62277314Y-102220500D01*
X62370500Y-102127314D01*
X62370503Y-102127309D01*
X62436390Y-102013190D01*
X62436390Y-102013188D01*
X62436392Y-102013186D01*
X62470500Y-101885892D01*
X62470500Y-101754108D01*
X62436392Y-101626814D01*
X62436390Y-101626811D01*
X62436390Y-101626809D01*
X62370503Y-101512690D01*
X62370501Y-101512688D01*
X62370500Y-101512686D01*
X62277314Y-101419500D01*
X62277311Y-101419498D01*
X62277309Y-101419496D01*
X62163189Y-101353609D01*
X62163191Y-101353609D01*
X62113799Y-101340375D01*
X62035892Y-101319500D01*
X61904108Y-101319500D01*
X61826200Y-101340375D01*
X61776809Y-101353609D01*
X61662690Y-101419496D01*
X61569496Y-101512690D01*
X61503609Y-101626809D01*
X61503608Y-101626814D01*
X61469500Y-101754108D01*
X40772177Y-101754108D01*
X40872322Y-101604231D01*
X40943973Y-101431251D01*
X40980500Y-101247616D01*
X40980500Y-101060384D01*
X40943973Y-100876749D01*
X40922168Y-100824108D01*
X98469500Y-100824108D01*
X98469500Y-100955892D01*
X98497498Y-101060384D01*
X98503609Y-101083190D01*
X98569496Y-101197309D01*
X98569498Y-101197311D01*
X98569500Y-101197314D01*
X98662686Y-101290500D01*
X98662688Y-101290501D01*
X98662690Y-101290503D01*
X98776810Y-101356390D01*
X98776808Y-101356390D01*
X98776812Y-101356391D01*
X98776814Y-101356392D01*
X98904108Y-101390500D01*
X98904110Y-101390500D01*
X99035890Y-101390500D01*
X99035892Y-101390500D01*
X99163186Y-101356392D01*
X99163188Y-101356390D01*
X99163190Y-101356390D01*
X99277309Y-101290503D01*
X99277309Y-101290502D01*
X99277314Y-101290500D01*
X99370500Y-101197314D01*
X99370503Y-101197309D01*
X99436390Y-101083190D01*
X99436390Y-101083188D01*
X99436392Y-101083186D01*
X99470500Y-100955892D01*
X99470500Y-100824108D01*
X99436392Y-100696814D01*
X99436390Y-100696811D01*
X99436390Y-100696809D01*
X99370503Y-100582690D01*
X99370501Y-100582688D01*
X99370500Y-100582686D01*
X99277314Y-100489500D01*
X99277311Y-100489498D01*
X99277309Y-100489496D01*
X99163189Y-100423609D01*
X99163191Y-100423609D01*
X99113799Y-100410375D01*
X99035892Y-100389500D01*
X98904108Y-100389500D01*
X98826200Y-100410375D01*
X98776809Y-100423609D01*
X98662690Y-100489496D01*
X98569496Y-100582690D01*
X98503609Y-100696809D01*
X98488173Y-100754417D01*
X98469500Y-100824108D01*
X40922168Y-100824108D01*
X40872322Y-100703769D01*
X40872320Y-100703767D01*
X40872318Y-100703761D01*
X40812649Y-100614463D01*
X40768302Y-100548092D01*
X40635908Y-100415698D01*
X40568269Y-100370503D01*
X40480238Y-100311681D01*
X40480229Y-100311677D01*
X40307249Y-100240026D01*
X40288890Y-100236374D01*
X40282469Y-100235097D01*
X40229086Y-100205201D01*
X40203470Y-100149636D01*
X40215407Y-100089627D01*
X40260337Y-100048094D01*
X40282468Y-100040902D01*
X40307251Y-100035973D01*
X40480231Y-99964322D01*
X40480234Y-99964319D01*
X40480238Y-99964318D01*
X40525187Y-99934282D01*
X40570346Y-99904108D01*
X74949500Y-99904108D01*
X74949500Y-100035892D01*
X74959309Y-100072500D01*
X74983609Y-100163190D01*
X75049496Y-100277309D01*
X75049498Y-100277311D01*
X75049500Y-100277314D01*
X75142686Y-100370500D01*
X75142688Y-100370501D01*
X75142690Y-100370503D01*
X75256810Y-100436390D01*
X75256808Y-100436390D01*
X75256812Y-100436391D01*
X75256814Y-100436392D01*
X75384108Y-100470500D01*
X75384110Y-100470500D01*
X75515890Y-100470500D01*
X75515892Y-100470500D01*
X75643186Y-100436392D01*
X75643188Y-100436390D01*
X75643190Y-100436390D01*
X75757309Y-100370503D01*
X75757309Y-100370502D01*
X75757314Y-100370500D01*
X75850500Y-100277314D01*
X75872028Y-100240026D01*
X75916390Y-100163190D01*
X75916390Y-100163188D01*
X75916392Y-100163186D01*
X75950500Y-100035892D01*
X75950500Y-99904108D01*
X75916392Y-99776814D01*
X75916390Y-99776811D01*
X75916390Y-99776809D01*
X75850503Y-99662690D01*
X75850501Y-99662688D01*
X75850500Y-99662686D01*
X75757314Y-99569500D01*
X75757311Y-99569498D01*
X75757309Y-99569496D01*
X75643189Y-99503609D01*
X75643191Y-99503609D01*
X75593799Y-99490375D01*
X75515892Y-99469500D01*
X75384108Y-99469500D01*
X75306200Y-99490375D01*
X75256809Y-99503609D01*
X75142690Y-99569496D01*
X75049496Y-99662690D01*
X74983609Y-99776809D01*
X74983608Y-99776814D01*
X74949500Y-99904108D01*
X40570346Y-99904108D01*
X40635908Y-99860302D01*
X40768302Y-99727908D01*
X40862244Y-99587314D01*
X40872318Y-99572238D01*
X40872319Y-99572234D01*
X40872322Y-99572231D01*
X40943973Y-99399251D01*
X40980500Y-99215616D01*
X40980500Y-99214108D01*
X46594500Y-99214108D01*
X46594500Y-99345892D01*
X46610203Y-99404496D01*
X46628609Y-99473190D01*
X46694496Y-99587309D01*
X46694498Y-99587311D01*
X46694500Y-99587314D01*
X46787686Y-99680500D01*
X46787688Y-99680501D01*
X46787690Y-99680503D01*
X46901810Y-99746390D01*
X46901808Y-99746390D01*
X46901812Y-99746391D01*
X46901814Y-99746392D01*
X47029108Y-99780500D01*
X47029110Y-99780500D01*
X47160890Y-99780500D01*
X47160892Y-99780500D01*
X47288186Y-99746392D01*
X47288188Y-99746390D01*
X47288190Y-99746390D01*
X47402309Y-99680503D01*
X47402309Y-99680502D01*
X47402314Y-99680500D01*
X47449998Y-99632815D01*
X47504513Y-99605040D01*
X47564945Y-99614611D01*
X47590000Y-99632814D01*
X47637686Y-99680500D01*
X47637688Y-99680501D01*
X47637690Y-99680503D01*
X47751810Y-99746390D01*
X47751808Y-99746390D01*
X47751812Y-99746391D01*
X47751814Y-99746392D01*
X47879108Y-99780500D01*
X47879110Y-99780500D01*
X48010890Y-99780500D01*
X48010892Y-99780500D01*
X48138186Y-99746392D01*
X48138188Y-99746390D01*
X48138190Y-99746390D01*
X48252309Y-99680503D01*
X48252309Y-99680502D01*
X48252314Y-99680500D01*
X48345500Y-99587314D01*
X48355787Y-99569496D01*
X48411390Y-99473190D01*
X48411390Y-99473188D01*
X48411392Y-99473186D01*
X48445500Y-99345892D01*
X48445500Y-99267780D01*
X99639532Y-99267780D01*
X99639532Y-99399564D01*
X99640854Y-99404496D01*
X99673641Y-99526862D01*
X99739528Y-99640981D01*
X99739530Y-99640983D01*
X99739532Y-99640986D01*
X99832718Y-99734172D01*
X99832720Y-99734173D01*
X99832722Y-99734175D01*
X99946842Y-99800062D01*
X99946840Y-99800062D01*
X99946844Y-99800063D01*
X99946846Y-99800064D01*
X100074140Y-99834172D01*
X100074142Y-99834172D01*
X100205922Y-99834172D01*
X100205924Y-99834172D01*
X100333218Y-99800064D01*
X100333220Y-99800062D01*
X100333222Y-99800062D01*
X100447341Y-99734175D01*
X100447341Y-99734174D01*
X100447346Y-99734172D01*
X100540532Y-99640986D01*
X100540535Y-99640981D01*
X100606422Y-99526862D01*
X100606422Y-99526860D01*
X100606424Y-99526858D01*
X100640532Y-99399564D01*
X100640532Y-99267780D01*
X100606424Y-99140486D01*
X100606422Y-99140483D01*
X100606422Y-99140481D01*
X100540535Y-99026362D01*
X100540533Y-99026360D01*
X100540532Y-99026358D01*
X100447346Y-98933172D01*
X100447343Y-98933170D01*
X100447341Y-98933168D01*
X100333221Y-98867281D01*
X100333223Y-98867281D01*
X100283831Y-98854047D01*
X100205924Y-98833172D01*
X100074140Y-98833172D01*
X99996232Y-98854047D01*
X99946841Y-98867281D01*
X99832722Y-98933168D01*
X99739528Y-99026362D01*
X99673641Y-99140481D01*
X99661043Y-99187500D01*
X99639532Y-99267780D01*
X48445500Y-99267780D01*
X48445500Y-99214108D01*
X48411392Y-99086814D01*
X48411390Y-99086811D01*
X48411390Y-99086809D01*
X48345503Y-98972690D01*
X48345501Y-98972688D01*
X48345500Y-98972686D01*
X48252314Y-98879500D01*
X48252311Y-98879498D01*
X48252309Y-98879496D01*
X48138189Y-98813609D01*
X48138191Y-98813609D01*
X48088799Y-98800375D01*
X48010892Y-98779500D01*
X47879108Y-98779500D01*
X47801200Y-98800375D01*
X47751809Y-98813609D01*
X47637690Y-98879496D01*
X47637689Y-98879497D01*
X47637686Y-98879499D01*
X47637686Y-98879500D01*
X47590001Y-98927184D01*
X47535487Y-98954960D01*
X47475055Y-98945389D01*
X47449999Y-98927185D01*
X47402314Y-98879500D01*
X47402311Y-98879498D01*
X47402309Y-98879496D01*
X47288189Y-98813609D01*
X47288191Y-98813609D01*
X47238799Y-98800375D01*
X47160892Y-98779500D01*
X47029108Y-98779500D01*
X46951200Y-98800375D01*
X46901809Y-98813609D01*
X46787690Y-98879496D01*
X46694496Y-98972690D01*
X46628609Y-99086809D01*
X46628608Y-99086814D01*
X46594500Y-99214108D01*
X40980500Y-99214108D01*
X40980500Y-99028384D01*
X40943973Y-98844749D01*
X40872322Y-98671769D01*
X40872320Y-98671767D01*
X40872318Y-98671761D01*
X40812649Y-98582463D01*
X40768302Y-98516092D01*
X40635908Y-98383698D01*
X40565107Y-98336390D01*
X40480238Y-98279681D01*
X40480229Y-98279677D01*
X40429983Y-98258864D01*
X40362624Y-98230963D01*
X40316100Y-98191227D01*
X40301816Y-98131733D01*
X40325231Y-98075205D01*
X40377400Y-98043235D01*
X40400511Y-98040500D01*
X40799747Y-98040500D01*
X40799748Y-98040500D01*
X40858231Y-98028867D01*
X40924552Y-97984552D01*
X40968867Y-97918231D01*
X40980500Y-97859748D01*
X40980500Y-97804108D01*
X44834500Y-97804108D01*
X44834500Y-97935892D01*
X44859185Y-98028019D01*
X44868609Y-98063190D01*
X44934496Y-98177309D01*
X44934498Y-98177311D01*
X44934500Y-98177314D01*
X45027686Y-98270500D01*
X45027688Y-98270501D01*
X45027690Y-98270503D01*
X45141810Y-98336390D01*
X45141808Y-98336390D01*
X45141812Y-98336391D01*
X45141814Y-98336392D01*
X45269108Y-98370500D01*
X45269110Y-98370500D01*
X45400890Y-98370500D01*
X45400892Y-98370500D01*
X45528186Y-98336392D01*
X45528188Y-98336390D01*
X45528190Y-98336390D01*
X45642309Y-98270503D01*
X45642309Y-98270502D01*
X45642314Y-98270500D01*
X45689998Y-98222815D01*
X45744513Y-98195040D01*
X45804945Y-98204611D01*
X45830000Y-98222814D01*
X45877686Y-98270500D01*
X45877688Y-98270501D01*
X45877690Y-98270503D01*
X45991810Y-98336390D01*
X45991808Y-98336390D01*
X45991812Y-98336391D01*
X45991814Y-98336392D01*
X46119108Y-98370500D01*
X46119110Y-98370500D01*
X46250890Y-98370500D01*
X46250892Y-98370500D01*
X46378186Y-98336392D01*
X46378188Y-98336390D01*
X46378190Y-98336390D01*
X46492309Y-98270503D01*
X46492309Y-98270502D01*
X46492314Y-98270500D01*
X46585500Y-98177314D01*
X46607332Y-98139500D01*
X46651390Y-98063190D01*
X46651390Y-98063188D01*
X46651392Y-98063186D01*
X46683299Y-97944108D01*
X82949500Y-97944108D01*
X82949500Y-98075892D01*
X82965305Y-98134878D01*
X82983609Y-98203190D01*
X83049496Y-98317309D01*
X83049498Y-98317311D01*
X83049500Y-98317314D01*
X83142686Y-98410500D01*
X83142688Y-98410501D01*
X83142690Y-98410503D01*
X83256810Y-98476390D01*
X83256808Y-98476390D01*
X83256812Y-98476391D01*
X83256814Y-98476392D01*
X83384108Y-98510500D01*
X83384110Y-98510500D01*
X83515890Y-98510500D01*
X83515892Y-98510500D01*
X83643186Y-98476392D01*
X83643188Y-98476390D01*
X83643190Y-98476390D01*
X83757309Y-98410503D01*
X83757309Y-98410502D01*
X83757314Y-98410500D01*
X83850500Y-98317314D01*
X83870204Y-98283186D01*
X83916390Y-98203190D01*
X83916390Y-98203188D01*
X83916392Y-98203186D01*
X83950500Y-98075892D01*
X83950500Y-98024108D01*
X98099500Y-98024108D01*
X98099500Y-98155892D01*
X98119615Y-98230964D01*
X98133609Y-98283190D01*
X98199496Y-98397309D01*
X98199498Y-98397311D01*
X98199500Y-98397314D01*
X98292686Y-98490500D01*
X98292688Y-98490501D01*
X98292690Y-98490503D01*
X98406810Y-98556390D01*
X98406808Y-98556390D01*
X98406812Y-98556391D01*
X98406814Y-98556392D01*
X98534108Y-98590500D01*
X98534110Y-98590500D01*
X98665890Y-98590500D01*
X98665892Y-98590500D01*
X98793186Y-98556392D01*
X98793188Y-98556390D01*
X98793190Y-98556390D01*
X98907309Y-98490503D01*
X98907309Y-98490502D01*
X98907314Y-98490500D01*
X99000500Y-98397314D01*
X99003387Y-98392313D01*
X99066390Y-98283190D01*
X99066390Y-98283188D01*
X99066392Y-98283186D01*
X99100500Y-98155892D01*
X99100500Y-98024108D01*
X99066392Y-97896814D01*
X99066390Y-97896811D01*
X99066390Y-97896809D01*
X99000503Y-97782690D01*
X99000501Y-97782688D01*
X99000500Y-97782686D01*
X98907314Y-97689500D01*
X98907311Y-97689498D01*
X98907309Y-97689496D01*
X98793189Y-97623609D01*
X98793191Y-97623609D01*
X98740519Y-97609496D01*
X98665892Y-97589500D01*
X98534108Y-97589500D01*
X98459481Y-97609496D01*
X98406809Y-97623609D01*
X98292690Y-97689496D01*
X98199496Y-97782690D01*
X98133609Y-97896809D01*
X98133608Y-97896814D01*
X98099500Y-98024108D01*
X83950500Y-98024108D01*
X83950500Y-97944108D01*
X83916392Y-97816814D01*
X83916390Y-97816811D01*
X83916390Y-97816809D01*
X83850503Y-97702690D01*
X83850501Y-97702688D01*
X83850500Y-97702686D01*
X83757314Y-97609500D01*
X83757311Y-97609498D01*
X83757309Y-97609496D01*
X83643189Y-97543609D01*
X83643191Y-97543609D01*
X83593799Y-97530375D01*
X83515892Y-97509500D01*
X83384108Y-97509500D01*
X83306200Y-97530375D01*
X83256809Y-97543609D01*
X83142690Y-97609496D01*
X83049496Y-97702690D01*
X82983609Y-97816809D01*
X82972104Y-97859748D01*
X82949500Y-97944108D01*
X46683299Y-97944108D01*
X46685500Y-97935892D01*
X46685500Y-97804108D01*
X46651392Y-97676814D01*
X46651390Y-97676811D01*
X46651390Y-97676809D01*
X46585503Y-97562690D01*
X46585501Y-97562688D01*
X46585500Y-97562686D01*
X46492314Y-97469500D01*
X46492311Y-97469498D01*
X46492309Y-97469496D01*
X46378189Y-97403609D01*
X46378191Y-97403609D01*
X46328799Y-97390375D01*
X46250892Y-97369500D01*
X46119108Y-97369500D01*
X46041200Y-97390375D01*
X45991809Y-97403609D01*
X45877690Y-97469496D01*
X45877689Y-97469497D01*
X45877686Y-97469499D01*
X45877686Y-97469500D01*
X45830001Y-97517184D01*
X45775487Y-97544960D01*
X45715055Y-97535389D01*
X45689999Y-97517185D01*
X45642314Y-97469500D01*
X45642311Y-97469498D01*
X45642309Y-97469496D01*
X45528189Y-97403609D01*
X45528191Y-97403609D01*
X45478799Y-97390375D01*
X45400892Y-97369500D01*
X45269108Y-97369500D01*
X45191200Y-97390375D01*
X45141809Y-97403609D01*
X45027690Y-97469496D01*
X44934496Y-97562690D01*
X44868609Y-97676809D01*
X44850204Y-97745500D01*
X44834500Y-97804108D01*
X40980500Y-97804108D01*
X40980500Y-96429108D01*
X49209500Y-96429108D01*
X49209500Y-96560892D01*
X49239579Y-96673151D01*
X49243609Y-96688190D01*
X49309496Y-96802309D01*
X49309498Y-96802311D01*
X49309500Y-96802314D01*
X49357184Y-96849998D01*
X49384960Y-96904513D01*
X49375389Y-96964945D01*
X49357185Y-96990000D01*
X49309500Y-97037686D01*
X49309497Y-97037689D01*
X49309496Y-97037690D01*
X49243609Y-97151809D01*
X49243608Y-97151814D01*
X49209500Y-97279108D01*
X49209500Y-97410892D01*
X49225203Y-97469496D01*
X49243609Y-97538190D01*
X49309496Y-97652309D01*
X49309498Y-97652311D01*
X49309500Y-97652314D01*
X49402686Y-97745500D01*
X49402688Y-97745501D01*
X49402690Y-97745503D01*
X49516810Y-97811390D01*
X49516808Y-97811390D01*
X49516812Y-97811391D01*
X49516814Y-97811392D01*
X49644108Y-97845500D01*
X49644110Y-97845500D01*
X49775890Y-97845500D01*
X49775892Y-97845500D01*
X49903186Y-97811392D01*
X49903188Y-97811390D01*
X49903190Y-97811390D01*
X50017309Y-97745503D01*
X50017309Y-97745502D01*
X50017314Y-97745500D01*
X50110500Y-97652314D01*
X50127073Y-97623609D01*
X50176390Y-97538190D01*
X50176390Y-97538188D01*
X50176392Y-97538186D01*
X50210500Y-97410892D01*
X50210500Y-97279108D01*
X50176392Y-97151814D01*
X50176390Y-97151811D01*
X50176390Y-97151809D01*
X50110503Y-97037690D01*
X50110501Y-97037688D01*
X50110500Y-97037686D01*
X50062815Y-96990001D01*
X50035040Y-96935487D01*
X50044611Y-96875055D01*
X50062814Y-96849999D01*
X50110500Y-96802314D01*
X50176392Y-96688186D01*
X50210500Y-96560892D01*
X50210500Y-96429108D01*
X50176392Y-96301814D01*
X50176390Y-96301811D01*
X50176390Y-96301809D01*
X50110503Y-96187690D01*
X50110501Y-96187688D01*
X50110500Y-96187686D01*
X50036922Y-96114108D01*
X55389500Y-96114108D01*
X55389500Y-96245892D01*
X55419579Y-96358151D01*
X55423609Y-96373190D01*
X55489496Y-96487309D01*
X55489498Y-96487311D01*
X55489500Y-96487314D01*
X55582686Y-96580500D01*
X55582688Y-96580501D01*
X55582690Y-96580503D01*
X55696810Y-96646390D01*
X55696808Y-96646390D01*
X55696812Y-96646391D01*
X55696814Y-96646392D01*
X55824108Y-96680500D01*
X55824110Y-96680500D01*
X55955890Y-96680500D01*
X55955892Y-96680500D01*
X56083186Y-96646392D01*
X56083188Y-96646390D01*
X56083190Y-96646390D01*
X56197309Y-96580503D01*
X56197309Y-96580502D01*
X56197314Y-96580500D01*
X56290500Y-96487314D01*
X56300206Y-96470503D01*
X56356390Y-96373190D01*
X56356390Y-96373188D01*
X56356392Y-96373186D01*
X56390500Y-96245892D01*
X56390500Y-96114108D01*
X56361026Y-96004108D01*
X80394500Y-96004108D01*
X80394500Y-96135892D01*
X80405113Y-96175499D01*
X80428609Y-96263190D01*
X80494496Y-96377309D01*
X80494498Y-96377311D01*
X80494500Y-96377314D01*
X80587686Y-96470500D01*
X80587688Y-96470501D01*
X80587690Y-96470503D01*
X80701810Y-96536390D01*
X80701808Y-96536390D01*
X80701812Y-96536391D01*
X80701814Y-96536392D01*
X80829108Y-96570500D01*
X80829110Y-96570500D01*
X80960890Y-96570500D01*
X80960892Y-96570500D01*
X81088186Y-96536392D01*
X81088188Y-96536390D01*
X81088190Y-96536390D01*
X81202309Y-96470503D01*
X81202309Y-96470502D01*
X81202314Y-96470500D01*
X81249998Y-96422815D01*
X81304513Y-96395040D01*
X81364945Y-96404611D01*
X81390000Y-96422814D01*
X81437686Y-96470500D01*
X81437688Y-96470501D01*
X81437690Y-96470503D01*
X81551810Y-96536390D01*
X81551808Y-96536390D01*
X81551812Y-96536391D01*
X81551814Y-96536392D01*
X81679108Y-96570500D01*
X81679110Y-96570500D01*
X81810890Y-96570500D01*
X81810892Y-96570500D01*
X81938186Y-96536392D01*
X81938188Y-96536390D01*
X81938190Y-96536390D01*
X82052309Y-96470503D01*
X82052309Y-96470502D01*
X82052314Y-96470500D01*
X82145500Y-96377314D01*
X82147883Y-96373186D01*
X82211390Y-96263190D01*
X82211390Y-96263188D01*
X82211392Y-96263186D01*
X82245500Y-96135892D01*
X82245500Y-96004108D01*
X82211392Y-95876814D01*
X82211390Y-95876811D01*
X82211390Y-95876809D01*
X82145503Y-95762690D01*
X82145501Y-95762688D01*
X82145500Y-95762686D01*
X82052314Y-95669500D01*
X82052311Y-95669498D01*
X82052309Y-95669496D01*
X81938189Y-95603609D01*
X81938191Y-95603609D01*
X81888799Y-95590375D01*
X81810892Y-95569500D01*
X81679108Y-95569500D01*
X81601200Y-95590375D01*
X81551809Y-95603609D01*
X81437690Y-95669496D01*
X81437689Y-95669497D01*
X81437686Y-95669499D01*
X81437686Y-95669500D01*
X81390001Y-95717184D01*
X81335487Y-95744960D01*
X81275055Y-95735389D01*
X81249999Y-95717185D01*
X81202314Y-95669500D01*
X81202311Y-95669498D01*
X81202309Y-95669496D01*
X81088189Y-95603609D01*
X81088191Y-95603609D01*
X81038799Y-95590375D01*
X80960892Y-95569500D01*
X80829108Y-95569500D01*
X80751200Y-95590375D01*
X80701809Y-95603609D01*
X80587690Y-95669496D01*
X80494496Y-95762690D01*
X80428609Y-95876809D01*
X80428608Y-95876814D01*
X80394500Y-96004108D01*
X56361026Y-96004108D01*
X56356392Y-95986814D01*
X56355747Y-95985697D01*
X56290503Y-95872690D01*
X56290501Y-95872688D01*
X56290500Y-95872686D01*
X56197314Y-95779500D01*
X56197311Y-95779498D01*
X56197309Y-95779496D01*
X56083189Y-95713609D01*
X56083191Y-95713609D01*
X56033799Y-95700375D01*
X55955892Y-95679500D01*
X55824108Y-95679500D01*
X55746200Y-95700375D01*
X55696809Y-95713609D01*
X55582690Y-95779496D01*
X55489496Y-95872690D01*
X55423609Y-95986809D01*
X55413847Y-96023242D01*
X55389500Y-96114108D01*
X50036922Y-96114108D01*
X50017314Y-96094500D01*
X50017311Y-96094498D01*
X50017309Y-96094496D01*
X49903189Y-96028609D01*
X49903191Y-96028609D01*
X49853799Y-96015375D01*
X49775892Y-95994500D01*
X49644108Y-95994500D01*
X49566200Y-96015375D01*
X49516809Y-96028609D01*
X49402690Y-96094496D01*
X49309496Y-96187690D01*
X49243609Y-96301809D01*
X49224539Y-96372978D01*
X49209500Y-96429108D01*
X40980500Y-96429108D01*
X40980500Y-96320252D01*
X40968867Y-96261769D01*
X40924552Y-96195448D01*
X40912936Y-96187686D01*
X40858233Y-96151134D01*
X40858231Y-96151133D01*
X40858228Y-96151132D01*
X40858227Y-96151132D01*
X40799758Y-96139501D01*
X40799748Y-96139500D01*
X39260252Y-96139500D01*
X39260251Y-96139500D01*
X39260241Y-96139501D01*
X39201772Y-96151132D01*
X39201766Y-96151134D01*
X39135451Y-96195445D01*
X39135445Y-96195451D01*
X39091134Y-96261766D01*
X39091132Y-96261772D01*
X39079501Y-96320241D01*
X39079500Y-96320253D01*
X39079500Y-97352282D01*
X39060593Y-97410473D01*
X39011093Y-97446437D01*
X38949907Y-97446437D01*
X38910496Y-97422286D01*
X38855911Y-97367701D01*
X38855908Y-97367698D01*
X38811559Y-97338065D01*
X38700238Y-97263681D01*
X38700229Y-97263677D01*
X38527249Y-97192026D01*
X38343618Y-97155500D01*
X38343616Y-97155500D01*
X38156384Y-97155500D01*
X38156381Y-97155500D01*
X37972750Y-97192026D01*
X37799770Y-97263677D01*
X37799761Y-97263681D01*
X37644092Y-97367698D01*
X37644088Y-97367701D01*
X37511701Y-97500088D01*
X37511698Y-97500092D01*
X37407681Y-97655761D01*
X37407677Y-97655770D01*
X37336026Y-97828750D01*
X37299500Y-98012381D01*
X36840889Y-98012381D01*
X36840889Y-94657710D01*
X36859796Y-94599519D01*
X36909296Y-94563555D01*
X36970482Y-94563555D01*
X37009890Y-94587704D01*
X37022686Y-94600500D01*
X37022688Y-94600501D01*
X37022690Y-94600503D01*
X37136810Y-94666390D01*
X37136808Y-94666390D01*
X37136812Y-94666391D01*
X37136814Y-94666392D01*
X37264108Y-94700500D01*
X37264110Y-94700500D01*
X37395890Y-94700500D01*
X37395892Y-94700500D01*
X37523186Y-94666392D01*
X37523188Y-94666390D01*
X37523190Y-94666390D01*
X37637309Y-94600503D01*
X37637309Y-94600502D01*
X37637314Y-94600500D01*
X37730500Y-94507314D01*
X37741544Y-94488186D01*
X37796390Y-94393190D01*
X37796390Y-94393188D01*
X37796392Y-94393186D01*
X37830500Y-94265892D01*
X37830500Y-94177073D01*
X40694500Y-94177073D01*
X40694500Y-94422927D01*
X40726553Y-94666392D01*
X40726590Y-94666669D01*
X40726590Y-94666674D01*
X40790222Y-94904154D01*
X40884302Y-95131284D01*
X40884304Y-95131288D01*
X40884306Y-95131292D01*
X41007233Y-95344208D01*
X41007235Y-95344211D01*
X41156893Y-95539249D01*
X41156895Y-95539251D01*
X41156899Y-95539256D01*
X41330744Y-95713101D01*
X41330748Y-95713104D01*
X41330750Y-95713106D01*
X41450666Y-95805121D01*
X41525792Y-95862767D01*
X41738708Y-95985694D01*
X41738714Y-95985696D01*
X41738715Y-95985697D01*
X41783163Y-96004108D01*
X41965847Y-96079778D01*
X42203323Y-96143409D01*
X42447073Y-96175500D01*
X42447074Y-96175500D01*
X42692926Y-96175500D01*
X42692927Y-96175500D01*
X42936677Y-96143409D01*
X43174153Y-96079778D01*
X43401292Y-95985694D01*
X43614208Y-95862767D01*
X43809256Y-95713101D01*
X43983101Y-95539256D01*
X44132767Y-95344208D01*
X44255694Y-95131292D01*
X44349778Y-94904153D01*
X44413409Y-94666677D01*
X44445500Y-94422927D01*
X44445500Y-94177073D01*
X44413409Y-93933323D01*
X44349778Y-93695847D01*
X44325894Y-93638186D01*
X44255696Y-93468711D01*
X44255693Y-93468706D01*
X44233057Y-93429500D01*
X44203963Y-93379108D01*
X69699500Y-93379108D01*
X69699500Y-93510892D01*
X69702215Y-93521024D01*
X69733609Y-93638190D01*
X69799496Y-93752309D01*
X69799498Y-93752311D01*
X69799500Y-93752314D01*
X69847184Y-93799998D01*
X69874960Y-93854513D01*
X69865389Y-93914945D01*
X69847185Y-93940000D01*
X69799500Y-93987686D01*
X69799497Y-93987689D01*
X69799496Y-93987690D01*
X69733609Y-94101809D01*
X69714539Y-94172978D01*
X69699500Y-94229108D01*
X69699500Y-94360892D01*
X69709012Y-94396390D01*
X69733609Y-94488190D01*
X69799496Y-94602309D01*
X69799498Y-94602311D01*
X69799500Y-94602314D01*
X69892686Y-94695500D01*
X69892688Y-94695501D01*
X69892690Y-94695503D01*
X70006810Y-94761390D01*
X70006808Y-94761390D01*
X70006812Y-94761391D01*
X70006814Y-94761392D01*
X70134108Y-94795500D01*
X70134110Y-94795500D01*
X70265890Y-94795500D01*
X70265892Y-94795500D01*
X70393186Y-94761392D01*
X70393188Y-94761390D01*
X70393190Y-94761390D01*
X70507309Y-94695503D01*
X70507309Y-94695502D01*
X70507314Y-94695500D01*
X70600500Y-94602314D01*
X70622878Y-94563555D01*
X70666390Y-94488190D01*
X70666390Y-94488188D01*
X70666392Y-94488186D01*
X70672844Y-94464108D01*
X101384735Y-94464108D01*
X101384735Y-94595892D01*
X101403701Y-94666674D01*
X101418844Y-94723190D01*
X101484731Y-94837309D01*
X101484733Y-94837311D01*
X101484735Y-94837314D01*
X101577921Y-94930500D01*
X101577923Y-94930501D01*
X101577925Y-94930503D01*
X101692045Y-94996390D01*
X101692043Y-94996390D01*
X101692047Y-94996391D01*
X101692049Y-94996392D01*
X101819343Y-95030500D01*
X101819345Y-95030500D01*
X101951125Y-95030500D01*
X101951127Y-95030500D01*
X102078421Y-94996392D01*
X102078423Y-94996390D01*
X102078425Y-94996390D01*
X102192544Y-94930503D01*
X102192544Y-94930502D01*
X102192549Y-94930500D01*
X102285735Y-94837314D01*
X102285738Y-94837309D01*
X102351625Y-94723190D01*
X102351625Y-94723188D01*
X102351627Y-94723186D01*
X102385735Y-94595892D01*
X102385735Y-94464108D01*
X102351627Y-94336814D01*
X102351625Y-94336811D01*
X102351625Y-94336809D01*
X102285738Y-94222690D01*
X102285736Y-94222688D01*
X102285735Y-94222686D01*
X102192549Y-94129500D01*
X102192546Y-94129498D01*
X102192544Y-94129496D01*
X102078424Y-94063609D01*
X102078426Y-94063609D01*
X102029034Y-94050375D01*
X101951127Y-94029500D01*
X101819343Y-94029500D01*
X101741435Y-94050375D01*
X101692044Y-94063609D01*
X101577925Y-94129496D01*
X101484731Y-94222690D01*
X101418844Y-94336809D01*
X101418843Y-94336814D01*
X101384735Y-94464108D01*
X70672844Y-94464108D01*
X70700500Y-94360892D01*
X70700500Y-94229108D01*
X70666392Y-94101814D01*
X70666390Y-94101811D01*
X70666390Y-94101809D01*
X70600503Y-93987690D01*
X70600501Y-93987688D01*
X70600500Y-93987686D01*
X70552815Y-93940001D01*
X70545698Y-93926032D01*
X70534611Y-93914945D01*
X70532158Y-93899457D01*
X70525040Y-93885487D01*
X70527492Y-93870000D01*
X70526559Y-93864108D01*
X82789500Y-93864108D01*
X82789500Y-93995892D01*
X82817880Y-94101809D01*
X82823609Y-94123190D01*
X82889496Y-94237309D01*
X82889498Y-94237311D01*
X82889500Y-94237314D01*
X82982686Y-94330500D01*
X82982688Y-94330501D01*
X82982690Y-94330503D01*
X83096810Y-94396390D01*
X83096808Y-94396390D01*
X83096812Y-94396391D01*
X83096814Y-94396392D01*
X83224108Y-94430500D01*
X83224110Y-94430500D01*
X83355890Y-94430500D01*
X83355892Y-94430500D01*
X83483186Y-94396392D01*
X83483188Y-94396390D01*
X83483190Y-94396390D01*
X83525638Y-94371883D01*
X83597309Y-94330503D01*
X83597309Y-94330502D01*
X83597314Y-94330500D01*
X83690500Y-94237314D01*
X83756392Y-94123186D01*
X83790500Y-93995892D01*
X83790500Y-93864108D01*
X83756392Y-93736814D01*
X83756390Y-93736811D01*
X83756390Y-93736809D01*
X83690503Y-93622690D01*
X83690501Y-93622688D01*
X83690500Y-93622686D01*
X83597314Y-93529500D01*
X83597311Y-93529498D01*
X83597309Y-93529496D01*
X83483189Y-93463609D01*
X83483191Y-93463609D01*
X83433799Y-93450375D01*
X83355892Y-93429500D01*
X83224108Y-93429500D01*
X83146200Y-93450375D01*
X83096809Y-93463609D01*
X82982690Y-93529496D01*
X82889496Y-93622690D01*
X82823609Y-93736809D01*
X82819456Y-93752309D01*
X82789500Y-93864108D01*
X70526559Y-93864108D01*
X70525040Y-93854513D01*
X70532158Y-93840542D01*
X70534611Y-93825055D01*
X70552814Y-93799999D01*
X70600500Y-93752314D01*
X70600503Y-93752309D01*
X70666390Y-93638190D01*
X70666390Y-93638188D01*
X70666392Y-93638186D01*
X70700500Y-93510892D01*
X70700500Y-93379108D01*
X70666392Y-93251814D01*
X70666390Y-93251811D01*
X70666390Y-93251809D01*
X70600503Y-93137690D01*
X70600501Y-93137688D01*
X70600500Y-93137686D01*
X70507314Y-93044500D01*
X70507311Y-93044498D01*
X70507309Y-93044496D01*
X70393189Y-92978609D01*
X70393191Y-92978609D01*
X70343799Y-92965375D01*
X70265892Y-92944500D01*
X70134108Y-92944500D01*
X70056200Y-92965375D01*
X70006809Y-92978609D01*
X69892690Y-93044496D01*
X69799496Y-93137690D01*
X69733609Y-93251809D01*
X69733608Y-93251814D01*
X69699500Y-93379108D01*
X44203963Y-93379108D01*
X44132767Y-93255792D01*
X44129711Y-93251809D01*
X43983106Y-93060750D01*
X43983104Y-93060748D01*
X43983101Y-93060744D01*
X43809256Y-92886899D01*
X43809251Y-92886895D01*
X43809249Y-92886893D01*
X43614211Y-92737235D01*
X43614208Y-92737233D01*
X43401292Y-92614306D01*
X43401288Y-92614304D01*
X43401284Y-92614302D01*
X43218430Y-92538562D01*
X43174154Y-92520222D01*
X43069440Y-92492164D01*
X42936677Y-92456591D01*
X42936674Y-92456590D01*
X42936672Y-92456590D01*
X42913862Y-92453587D01*
X80588979Y-92453587D01*
X80588979Y-92585371D01*
X80607403Y-92654130D01*
X80623088Y-92712669D01*
X80688975Y-92826788D01*
X80688977Y-92826790D01*
X80688979Y-92826793D01*
X80782165Y-92919979D01*
X80782167Y-92919980D01*
X80782169Y-92919982D01*
X80896289Y-92985869D01*
X80896287Y-92985869D01*
X80896291Y-92985870D01*
X80896293Y-92985871D01*
X81023587Y-93019979D01*
X81023589Y-93019979D01*
X81091021Y-93019979D01*
X81149212Y-93038886D01*
X81185176Y-93088386D01*
X81190021Y-93118979D01*
X81190021Y-93186413D01*
X81207544Y-93251809D01*
X81224130Y-93313711D01*
X81290016Y-93427828D01*
X81290018Y-93427831D01*
X81290019Y-93427832D01*
X81290021Y-93427835D01*
X81383207Y-93521021D01*
X81383209Y-93521022D01*
X81383211Y-93521024D01*
X81497331Y-93586911D01*
X81497329Y-93586911D01*
X81497333Y-93586912D01*
X81497335Y-93586913D01*
X81624629Y-93621021D01*
X81624631Y-93621021D01*
X81756411Y-93621021D01*
X81756413Y-93621021D01*
X81883707Y-93586913D01*
X81883709Y-93586911D01*
X81883711Y-93586911D01*
X81997830Y-93521024D01*
X81997830Y-93521023D01*
X81997835Y-93521021D01*
X82091021Y-93427835D01*
X82091023Y-93427830D01*
X82091026Y-93427828D01*
X82156911Y-93313711D01*
X82156911Y-93313709D01*
X82156913Y-93313707D01*
X82191021Y-93186413D01*
X82191021Y-93054629D01*
X82156913Y-92927335D01*
X82156911Y-92927332D01*
X82156911Y-92927330D01*
X82091024Y-92813211D01*
X82091022Y-92813209D01*
X82091021Y-92813207D01*
X81997835Y-92720021D01*
X81997832Y-92720019D01*
X81997830Y-92720017D01*
X81883710Y-92654130D01*
X81883712Y-92654130D01*
X81803743Y-92632703D01*
X81756413Y-92620021D01*
X81688979Y-92620021D01*
X81630788Y-92601114D01*
X81594824Y-92551614D01*
X81589979Y-92521021D01*
X81589979Y-92453588D01*
X81582185Y-92424500D01*
X81555871Y-92326293D01*
X81555869Y-92326290D01*
X81555869Y-92326288D01*
X81489982Y-92212169D01*
X81489980Y-92212167D01*
X81489979Y-92212165D01*
X81396793Y-92118979D01*
X81396790Y-92118977D01*
X81396788Y-92118975D01*
X81282668Y-92053088D01*
X81282670Y-92053088D01*
X81233278Y-92039854D01*
X81155371Y-92018979D01*
X81023587Y-92018979D01*
X80945679Y-92039854D01*
X80896288Y-92053088D01*
X80782169Y-92118975D01*
X80688975Y-92212169D01*
X80623088Y-92326288D01*
X80623087Y-92326293D01*
X80588979Y-92453587D01*
X42913862Y-92453587D01*
X42692927Y-92424500D01*
X42447073Y-92424500D01*
X42447072Y-92424500D01*
X42203330Y-92456590D01*
X42203325Y-92456590D01*
X41965845Y-92520222D01*
X41738715Y-92614302D01*
X41525788Y-92737235D01*
X41330750Y-92886893D01*
X41156893Y-93060750D01*
X41007235Y-93255788D01*
X40936036Y-93379109D01*
X40887251Y-93463608D01*
X40884302Y-93468715D01*
X40790222Y-93695845D01*
X40726590Y-93933325D01*
X40726590Y-93933330D01*
X40700157Y-94134108D01*
X40694500Y-94177073D01*
X37830500Y-94177073D01*
X37830500Y-94134108D01*
X37796392Y-94006814D01*
X37796390Y-94006811D01*
X37796390Y-94006809D01*
X37730503Y-93892690D01*
X37730501Y-93892688D01*
X37730500Y-93892686D01*
X37637314Y-93799500D01*
X37637311Y-93799498D01*
X37637309Y-93799496D01*
X37523189Y-93733609D01*
X37523191Y-93733609D01*
X37473799Y-93720375D01*
X37395892Y-93699500D01*
X37264108Y-93699500D01*
X37186200Y-93720375D01*
X37136809Y-93733609D01*
X37022690Y-93799496D01*
X37022689Y-93799497D01*
X37022686Y-93799499D01*
X37022686Y-93799500D01*
X37009890Y-93812295D01*
X36955376Y-93840071D01*
X36894944Y-93830500D01*
X36851679Y-93787235D01*
X36840889Y-93742290D01*
X36840889Y-91174629D01*
X67868979Y-91174629D01*
X67868979Y-91306413D01*
X67892477Y-91394108D01*
X67903088Y-91433711D01*
X67968975Y-91547830D01*
X67968977Y-91547832D01*
X67968979Y-91547835D01*
X68062165Y-91641021D01*
X68062167Y-91641022D01*
X68062169Y-91641024D01*
X68176289Y-91706911D01*
X68176287Y-91706911D01*
X68176291Y-91706912D01*
X68176293Y-91706913D01*
X68303587Y-91741021D01*
X68303589Y-91741021D01*
X68435369Y-91741021D01*
X68435371Y-91741021D01*
X68562665Y-91706913D01*
X68562667Y-91706911D01*
X68562669Y-91706911D01*
X68676788Y-91641024D01*
X68676788Y-91641023D01*
X68676793Y-91641021D01*
X68769979Y-91547835D01*
X68835871Y-91433707D01*
X68846481Y-91394108D01*
X97499500Y-91394108D01*
X97499500Y-91525892D01*
X97505380Y-91547835D01*
X97533609Y-91653190D01*
X97599496Y-91767309D01*
X97599498Y-91767311D01*
X97599500Y-91767314D01*
X97692686Y-91860500D01*
X97692688Y-91860501D01*
X97692690Y-91860503D01*
X97806810Y-91926390D01*
X97806808Y-91926390D01*
X97806812Y-91926391D01*
X97806814Y-91926392D01*
X97934108Y-91960500D01*
X97934110Y-91960500D01*
X98065890Y-91960500D01*
X98065892Y-91960500D01*
X98193186Y-91926392D01*
X98193188Y-91926390D01*
X98193190Y-91926390D01*
X98307309Y-91860503D01*
X98307309Y-91860502D01*
X98307314Y-91860500D01*
X98400500Y-91767314D01*
X98466392Y-91653186D01*
X98500500Y-91525892D01*
X98500500Y-91394108D01*
X98484423Y-91334108D01*
X103674500Y-91334108D01*
X103674500Y-91465892D01*
X103690577Y-91525892D01*
X103708609Y-91593190D01*
X103774496Y-91707309D01*
X103774498Y-91707311D01*
X103774500Y-91707314D01*
X103867686Y-91800500D01*
X103867688Y-91800501D01*
X103867690Y-91800503D01*
X103981810Y-91866390D01*
X103981808Y-91866390D01*
X103981812Y-91866391D01*
X103981814Y-91866392D01*
X104109108Y-91900500D01*
X104109110Y-91900500D01*
X104240890Y-91900500D01*
X104240892Y-91900500D01*
X104368186Y-91866392D01*
X104368188Y-91866390D01*
X104368190Y-91866390D01*
X104482309Y-91800503D01*
X104482309Y-91800502D01*
X104482314Y-91800500D01*
X104529998Y-91752815D01*
X104584513Y-91725040D01*
X104644945Y-91734611D01*
X104670000Y-91752814D01*
X104717686Y-91800500D01*
X104717688Y-91800501D01*
X104717690Y-91800503D01*
X104831810Y-91866390D01*
X104831808Y-91866390D01*
X104831812Y-91866391D01*
X104831814Y-91866392D01*
X104959108Y-91900500D01*
X104959110Y-91900500D01*
X105090890Y-91900500D01*
X105090892Y-91900500D01*
X105218186Y-91866392D01*
X105218188Y-91866390D01*
X105218190Y-91866390D01*
X105332309Y-91800503D01*
X105332309Y-91800502D01*
X105332314Y-91800500D01*
X105425500Y-91707314D01*
X105425733Y-91706911D01*
X105491390Y-91593190D01*
X105491390Y-91593188D01*
X105491392Y-91593186D01*
X105525500Y-91465892D01*
X105525500Y-91334108D01*
X105491392Y-91206814D01*
X105491390Y-91206811D01*
X105491390Y-91206809D01*
X105425503Y-91092690D01*
X105425501Y-91092688D01*
X105425500Y-91092686D01*
X105332314Y-90999500D01*
X105332311Y-90999498D01*
X105332309Y-90999496D01*
X105218189Y-90933609D01*
X105218191Y-90933609D01*
X105168799Y-90920375D01*
X105090892Y-90899500D01*
X104959108Y-90899500D01*
X104881200Y-90920375D01*
X104831809Y-90933609D01*
X104717690Y-90999496D01*
X104717689Y-90999497D01*
X104717686Y-90999499D01*
X104717686Y-90999500D01*
X104670001Y-91047184D01*
X104615487Y-91074960D01*
X104555055Y-91065389D01*
X104529999Y-91047185D01*
X104482314Y-90999500D01*
X104482311Y-90999498D01*
X104482309Y-90999496D01*
X104368189Y-90933609D01*
X104368191Y-90933609D01*
X104318799Y-90920375D01*
X104240892Y-90899500D01*
X104109108Y-90899500D01*
X104031200Y-90920375D01*
X103981809Y-90933609D01*
X103867690Y-90999496D01*
X103774496Y-91092690D01*
X103708609Y-91206809D01*
X103692531Y-91266814D01*
X103674500Y-91334108D01*
X98484423Y-91334108D01*
X98466392Y-91266814D01*
X98466390Y-91266811D01*
X98466390Y-91266809D01*
X98400503Y-91152690D01*
X98400501Y-91152688D01*
X98400500Y-91152686D01*
X98307314Y-91059500D01*
X98307311Y-91059498D01*
X98307309Y-91059496D01*
X98193189Y-90993609D01*
X98193191Y-90993609D01*
X98143799Y-90980375D01*
X98065892Y-90959500D01*
X97934108Y-90959500D01*
X97856200Y-90980375D01*
X97806809Y-90993609D01*
X97692690Y-91059496D01*
X97599496Y-91152690D01*
X97533609Y-91266809D01*
X97515577Y-91334108D01*
X97499500Y-91394108D01*
X68846481Y-91394108D01*
X68869979Y-91306413D01*
X68869979Y-91232916D01*
X68870718Y-91226903D01*
X68881213Y-91204400D01*
X68888886Y-91180788D01*
X68893940Y-91177115D01*
X68896582Y-91171453D01*
X68918297Y-91159418D01*
X68938386Y-91144824D01*
X68947135Y-91143438D01*
X68950099Y-91141796D01*
X68954269Y-91142308D01*
X68968979Y-91139979D01*
X69036411Y-91139979D01*
X69036413Y-91139979D01*
X69163707Y-91105871D01*
X69163709Y-91105869D01*
X69163711Y-91105869D01*
X69277830Y-91039982D01*
X69277830Y-91039981D01*
X69277835Y-91039979D01*
X69371021Y-90946793D01*
X69378633Y-90933609D01*
X69436911Y-90832669D01*
X69436911Y-90832667D01*
X69436913Y-90832665D01*
X69471021Y-90705371D01*
X69471021Y-90573587D01*
X69436913Y-90446293D01*
X69436911Y-90446290D01*
X69436911Y-90446288D01*
X69418332Y-90414108D01*
X75609500Y-90414108D01*
X75609500Y-90545892D01*
X75639579Y-90658151D01*
X75643609Y-90673190D01*
X75709496Y-90787309D01*
X75709498Y-90787311D01*
X75709500Y-90787314D01*
X75802686Y-90880500D01*
X75802688Y-90880501D01*
X75802690Y-90880503D01*
X75916810Y-90946390D01*
X75916808Y-90946390D01*
X75916812Y-90946391D01*
X75916814Y-90946392D01*
X76044108Y-90980500D01*
X76044110Y-90980500D01*
X76175890Y-90980500D01*
X76175892Y-90980500D01*
X76303186Y-90946392D01*
X76303188Y-90946390D01*
X76303190Y-90946390D01*
X76417309Y-90880503D01*
X76417309Y-90880502D01*
X76417314Y-90880500D01*
X76510500Y-90787314D01*
X76518112Y-90774130D01*
X76576390Y-90673190D01*
X76576390Y-90673188D01*
X76576392Y-90673186D01*
X76610500Y-90545892D01*
X76610500Y-90414108D01*
X76576392Y-90286814D01*
X76576390Y-90286811D01*
X76576390Y-90286809D01*
X76510503Y-90172690D01*
X76510501Y-90172688D01*
X76510500Y-90172686D01*
X76417314Y-90079500D01*
X76417311Y-90079498D01*
X76417309Y-90079496D01*
X76303189Y-90013609D01*
X76303191Y-90013609D01*
X76253799Y-90000375D01*
X76175892Y-89979500D01*
X76044108Y-89979500D01*
X75966200Y-90000375D01*
X75916809Y-90013609D01*
X75802690Y-90079496D01*
X75709496Y-90172690D01*
X75643609Y-90286809D01*
X75643608Y-90286814D01*
X75609500Y-90414108D01*
X69418332Y-90414108D01*
X69371024Y-90332169D01*
X69371022Y-90332167D01*
X69371021Y-90332165D01*
X69277835Y-90238979D01*
X69277832Y-90238977D01*
X69277830Y-90238975D01*
X69163710Y-90173088D01*
X69163712Y-90173088D01*
X69114320Y-90159854D01*
X69036413Y-90138979D01*
X68904629Y-90138979D01*
X68826721Y-90159854D01*
X68777330Y-90173088D01*
X68663211Y-90238975D01*
X68570017Y-90332169D01*
X68504130Y-90446288D01*
X68470021Y-90573588D01*
X68470021Y-90641021D01*
X68451114Y-90699212D01*
X68401614Y-90735176D01*
X68371021Y-90740021D01*
X68303587Y-90740021D01*
X68256257Y-90752703D01*
X68176288Y-90774130D01*
X68062169Y-90840017D01*
X67968975Y-90933211D01*
X67903088Y-91047330D01*
X67899827Y-91059500D01*
X67868979Y-91174629D01*
X36840889Y-91174629D01*
X36840889Y-89034108D01*
X81069500Y-89034108D01*
X81069500Y-89165892D01*
X81099579Y-89278151D01*
X81103609Y-89293190D01*
X81169496Y-89407309D01*
X81169498Y-89407311D01*
X81169500Y-89407314D01*
X81262686Y-89500500D01*
X81262688Y-89500501D01*
X81262690Y-89500503D01*
X81376810Y-89566390D01*
X81376808Y-89566390D01*
X81376812Y-89566391D01*
X81376814Y-89566392D01*
X81504108Y-89600500D01*
X81504110Y-89600500D01*
X81635890Y-89600500D01*
X81635892Y-89600500D01*
X81763186Y-89566392D01*
X81763188Y-89566390D01*
X81763190Y-89566390D01*
X81877309Y-89500503D01*
X81877309Y-89500502D01*
X81877314Y-89500500D01*
X81970500Y-89407314D01*
X82036392Y-89293186D01*
X82070500Y-89165892D01*
X82070500Y-89034108D01*
X82036392Y-88906814D01*
X82036390Y-88906811D01*
X82036390Y-88906809D01*
X81970503Y-88792690D01*
X81970501Y-88792688D01*
X81970500Y-88792686D01*
X81877314Y-88699500D01*
X81877311Y-88699498D01*
X81877309Y-88699496D01*
X81763189Y-88633609D01*
X81763191Y-88633609D01*
X81713799Y-88620375D01*
X81635892Y-88599500D01*
X81504108Y-88599500D01*
X81426200Y-88620375D01*
X81376809Y-88633609D01*
X81262690Y-88699496D01*
X81169496Y-88792690D01*
X81103609Y-88906809D01*
X81103608Y-88906814D01*
X81069500Y-89034108D01*
X36840889Y-89034108D01*
X36840889Y-87554108D01*
X74969500Y-87554108D01*
X74969500Y-87685892D01*
X74999579Y-87798151D01*
X75003609Y-87813190D01*
X75069496Y-87927309D01*
X75069498Y-87927311D01*
X75069500Y-87927314D01*
X75162686Y-88020500D01*
X75162688Y-88020501D01*
X75162690Y-88020503D01*
X75276810Y-88086390D01*
X75276808Y-88086390D01*
X75276812Y-88086391D01*
X75276814Y-88086392D01*
X75404108Y-88120500D01*
X75404110Y-88120500D01*
X75535890Y-88120500D01*
X75535892Y-88120500D01*
X75663186Y-88086392D01*
X75663188Y-88086390D01*
X75663190Y-88086390D01*
X75777309Y-88020503D01*
X75777309Y-88020502D01*
X75777314Y-88020500D01*
X75843706Y-87954108D01*
X100784735Y-87954108D01*
X100784735Y-88085892D01*
X100794008Y-88120500D01*
X100818844Y-88213190D01*
X100884731Y-88327309D01*
X100884733Y-88327311D01*
X100884735Y-88327314D01*
X100977921Y-88420500D01*
X100977923Y-88420501D01*
X100977925Y-88420503D01*
X101092045Y-88486390D01*
X101092043Y-88486390D01*
X101092047Y-88486391D01*
X101092049Y-88486392D01*
X101219343Y-88520500D01*
X101219345Y-88520500D01*
X101351125Y-88520500D01*
X101351127Y-88520500D01*
X101478421Y-88486392D01*
X101478423Y-88486390D01*
X101478425Y-88486390D01*
X101592544Y-88420503D01*
X101592544Y-88420502D01*
X101592549Y-88420500D01*
X101685735Y-88327314D01*
X101751627Y-88213186D01*
X101785735Y-88085892D01*
X101785735Y-87954108D01*
X101751627Y-87826814D01*
X101751625Y-87826811D01*
X101751625Y-87826809D01*
X101685738Y-87712690D01*
X101685736Y-87712688D01*
X101685735Y-87712686D01*
X101592549Y-87619500D01*
X101592546Y-87619498D01*
X101592544Y-87619496D01*
X101478424Y-87553609D01*
X101478426Y-87553609D01*
X101429034Y-87540375D01*
X101351127Y-87519500D01*
X101219343Y-87519500D01*
X101141435Y-87540375D01*
X101092044Y-87553609D01*
X100977925Y-87619496D01*
X100884731Y-87712690D01*
X100818844Y-87826809D01*
X100818843Y-87826814D01*
X100784735Y-87954108D01*
X75843706Y-87954108D01*
X75870500Y-87927314D01*
X75879504Y-87911717D01*
X75887357Y-87898118D01*
X75928524Y-87826814D01*
X75936392Y-87813186D01*
X75970500Y-87685892D01*
X75970500Y-87554108D01*
X75936392Y-87426814D01*
X75936390Y-87426811D01*
X75936390Y-87426809D01*
X75870503Y-87312690D01*
X75870501Y-87312688D01*
X75870500Y-87312686D01*
X75777314Y-87219500D01*
X75777311Y-87219498D01*
X75777309Y-87219496D01*
X75663189Y-87153609D01*
X75663191Y-87153609D01*
X75613799Y-87140375D01*
X75535892Y-87119500D01*
X75404108Y-87119500D01*
X75326200Y-87140375D01*
X75276809Y-87153609D01*
X75162690Y-87219496D01*
X75069496Y-87312690D01*
X75003609Y-87426809D01*
X75003608Y-87426814D01*
X74969500Y-87554108D01*
X36840889Y-87554108D01*
X36840889Y-86864108D01*
X73519500Y-86864108D01*
X73519500Y-86995892D01*
X73535710Y-87056390D01*
X73553609Y-87123190D01*
X73619496Y-87237309D01*
X73619498Y-87237311D01*
X73619500Y-87237314D01*
X73712686Y-87330500D01*
X73712688Y-87330501D01*
X73712690Y-87330503D01*
X73826810Y-87396390D01*
X73826808Y-87396390D01*
X73826812Y-87396391D01*
X73826814Y-87396392D01*
X73954108Y-87430500D01*
X73954110Y-87430500D01*
X74085890Y-87430500D01*
X74085892Y-87430500D01*
X74213186Y-87396392D01*
X74213188Y-87396390D01*
X74213190Y-87396390D01*
X74327309Y-87330503D01*
X74327309Y-87330502D01*
X74327314Y-87330500D01*
X74420500Y-87237314D01*
X74486392Y-87123186D01*
X74520500Y-86995892D01*
X74520500Y-86864108D01*
X74486392Y-86736814D01*
X74486390Y-86736811D01*
X74486390Y-86736809D01*
X74420503Y-86622690D01*
X74420501Y-86622688D01*
X74420500Y-86622686D01*
X74327314Y-86529500D01*
X74327311Y-86529498D01*
X74327309Y-86529496D01*
X74317977Y-86524108D01*
X79469500Y-86524108D01*
X79469500Y-86655892D01*
X79491183Y-86736814D01*
X79503609Y-86783190D01*
X79569496Y-86897309D01*
X79569498Y-86897311D01*
X79569500Y-86897314D01*
X79662686Y-86990500D01*
X79662688Y-86990501D01*
X79662690Y-86990503D01*
X79776810Y-87056390D01*
X79776808Y-87056390D01*
X79776812Y-87056391D01*
X79776814Y-87056392D01*
X79904108Y-87090500D01*
X79904110Y-87090500D01*
X80035890Y-87090500D01*
X80035892Y-87090500D01*
X80163186Y-87056392D01*
X80163188Y-87056390D01*
X80163190Y-87056390D01*
X80277309Y-86990503D01*
X80277309Y-86990502D01*
X80277314Y-86990500D01*
X80370500Y-86897314D01*
X80436392Y-86783186D01*
X80470500Y-86655892D01*
X80470500Y-86524108D01*
X80436392Y-86396814D01*
X80436390Y-86396811D01*
X80436390Y-86396809D01*
X80370503Y-86282690D01*
X80370501Y-86282688D01*
X80370500Y-86282686D01*
X80277314Y-86189500D01*
X80277311Y-86189498D01*
X80277309Y-86189496D01*
X80163189Y-86123609D01*
X80163191Y-86123609D01*
X80113799Y-86110375D01*
X80035892Y-86089500D01*
X79904108Y-86089500D01*
X79826200Y-86110375D01*
X79776809Y-86123609D01*
X79662690Y-86189496D01*
X79569496Y-86282690D01*
X79503609Y-86396809D01*
X79484539Y-86467978D01*
X79469500Y-86524108D01*
X74317977Y-86524108D01*
X74213189Y-86463609D01*
X74213191Y-86463609D01*
X74163799Y-86450375D01*
X74085892Y-86429500D01*
X73954108Y-86429500D01*
X73876200Y-86450375D01*
X73826809Y-86463609D01*
X73712690Y-86529496D01*
X73619496Y-86622690D01*
X73553609Y-86736809D01*
X73553608Y-86736814D01*
X73519500Y-86864108D01*
X36840889Y-86864108D01*
X36840889Y-85296532D01*
X37949500Y-85296532D01*
X37949500Y-85503467D01*
X37989869Y-85706418D01*
X38069058Y-85897597D01*
X38069059Y-85897598D01*
X38184023Y-86069655D01*
X38330345Y-86215977D01*
X38502402Y-86330941D01*
X38693580Y-86410130D01*
X38896535Y-86450500D01*
X38896536Y-86450500D01*
X39103464Y-86450500D01*
X39103465Y-86450500D01*
X39306420Y-86410130D01*
X39497598Y-86330941D01*
X39669655Y-86215977D01*
X39815977Y-86069655D01*
X39930941Y-85897598D01*
X40010130Y-85706420D01*
X40050500Y-85503465D01*
X40050500Y-85296535D01*
X40010130Y-85093580D01*
X39930941Y-84902402D01*
X39815977Y-84730345D01*
X39669655Y-84584023D01*
X39664387Y-84580503D01*
X39609918Y-84544108D01*
X70009500Y-84544108D01*
X70009500Y-84675892D01*
X70039579Y-84788151D01*
X70043609Y-84803190D01*
X70109496Y-84917309D01*
X70109498Y-84917311D01*
X70109500Y-84917314D01*
X70202686Y-85010500D01*
X70202688Y-85010501D01*
X70202690Y-85010503D01*
X70316810Y-85076390D01*
X70316808Y-85076390D01*
X70316812Y-85076391D01*
X70316814Y-85076392D01*
X70444108Y-85110500D01*
X70444110Y-85110500D01*
X70575890Y-85110500D01*
X70575892Y-85110500D01*
X70703186Y-85076392D01*
X70703188Y-85076390D01*
X70703190Y-85076390D01*
X70817309Y-85010503D01*
X70817309Y-85010502D01*
X70817314Y-85010500D01*
X70910500Y-84917314D01*
X70910503Y-84917309D01*
X70976390Y-84803190D01*
X70976390Y-84803188D01*
X70976392Y-84803186D01*
X71010500Y-84675892D01*
X71010500Y-84544108D01*
X70976392Y-84416814D01*
X70976390Y-84416811D01*
X70976390Y-84416809D01*
X70910503Y-84302690D01*
X70910501Y-84302688D01*
X70910500Y-84302686D01*
X70817314Y-84209500D01*
X70817311Y-84209498D01*
X70817309Y-84209496D01*
X70703189Y-84143609D01*
X70703191Y-84143609D01*
X70653799Y-84130375D01*
X70575892Y-84109500D01*
X70444108Y-84109500D01*
X70366200Y-84130375D01*
X70316809Y-84143609D01*
X70202690Y-84209496D01*
X70109496Y-84302690D01*
X70043609Y-84416809D01*
X70030324Y-84466390D01*
X70009500Y-84544108D01*
X39609918Y-84544108D01*
X39497597Y-84469058D01*
X39306418Y-84389869D01*
X39103467Y-84349500D01*
X39103465Y-84349500D01*
X38896535Y-84349500D01*
X38896532Y-84349500D01*
X38693581Y-84389869D01*
X38502402Y-84469058D01*
X38330348Y-84584020D01*
X38184020Y-84730348D01*
X38069058Y-84902402D01*
X37989869Y-85093581D01*
X37949500Y-85296532D01*
X36840889Y-85296532D01*
X36840889Y-83934108D01*
X52199500Y-83934108D01*
X52199500Y-84065892D01*
X52212420Y-84114109D01*
X52233609Y-84193190D01*
X52299496Y-84307309D01*
X52299498Y-84307311D01*
X52299500Y-84307314D01*
X52392686Y-84400500D01*
X52392688Y-84400501D01*
X52392690Y-84400503D01*
X52506810Y-84466390D01*
X52506808Y-84466390D01*
X52506812Y-84466391D01*
X52506814Y-84466392D01*
X52634108Y-84500500D01*
X52634110Y-84500500D01*
X52765890Y-84500500D01*
X52765892Y-84500500D01*
X52893186Y-84466392D01*
X52918318Y-84451882D01*
X52918321Y-84451881D01*
X53007309Y-84400503D01*
X53007309Y-84400502D01*
X53007314Y-84400500D01*
X53100500Y-84307314D01*
X53156973Y-84209500D01*
X53166390Y-84193190D01*
X53166390Y-84193188D01*
X53166392Y-84193186D01*
X53200500Y-84065892D01*
X53200500Y-83934108D01*
X53177193Y-83847126D01*
X79704240Y-83847126D01*
X79704240Y-83978910D01*
X79706357Y-83986809D01*
X79738349Y-84106208D01*
X79804236Y-84220327D01*
X79804238Y-84220329D01*
X79804240Y-84220332D01*
X79897426Y-84313518D01*
X79897428Y-84313519D01*
X79897430Y-84313521D01*
X80011550Y-84379408D01*
X80011548Y-84379408D01*
X80011552Y-84379409D01*
X80011554Y-84379410D01*
X80138848Y-84413518D01*
X80138850Y-84413518D01*
X80270630Y-84413518D01*
X80270632Y-84413518D01*
X80397926Y-84379410D01*
X80397928Y-84379408D01*
X80397930Y-84379408D01*
X80512049Y-84313521D01*
X80512049Y-84313520D01*
X80512054Y-84313518D01*
X80605240Y-84220332D01*
X80611496Y-84209496D01*
X80666569Y-84114108D01*
X102054500Y-84114108D01*
X102054500Y-84245892D01*
X102070958Y-84307314D01*
X102088609Y-84373190D01*
X102154496Y-84487309D01*
X102154498Y-84487311D01*
X102154500Y-84487314D01*
X102247686Y-84580500D01*
X102247688Y-84580501D01*
X102247690Y-84580503D01*
X102361810Y-84646390D01*
X102361808Y-84646390D01*
X102361812Y-84646391D01*
X102361814Y-84646392D01*
X102489108Y-84680500D01*
X102489110Y-84680500D01*
X102620890Y-84680500D01*
X102620892Y-84680500D01*
X102748186Y-84646392D01*
X102748188Y-84646390D01*
X102748190Y-84646390D01*
X102862309Y-84580503D01*
X102862309Y-84580502D01*
X102862314Y-84580500D01*
X102909998Y-84532815D01*
X102964513Y-84505040D01*
X103024945Y-84514611D01*
X103050000Y-84532814D01*
X103097686Y-84580500D01*
X103097688Y-84580501D01*
X103097690Y-84580503D01*
X103211810Y-84646390D01*
X103211808Y-84646390D01*
X103211812Y-84646391D01*
X103211814Y-84646392D01*
X103339108Y-84680500D01*
X103339110Y-84680500D01*
X103470890Y-84680500D01*
X103470892Y-84680500D01*
X103598186Y-84646392D01*
X103598188Y-84646390D01*
X103598190Y-84646390D01*
X103712309Y-84580503D01*
X103712309Y-84580502D01*
X103712314Y-84580500D01*
X103805500Y-84487314D01*
X103816040Y-84469058D01*
X103871390Y-84373190D01*
X103871390Y-84373188D01*
X103871392Y-84373186D01*
X103905500Y-84245892D01*
X103905500Y-84114108D01*
X103871392Y-83986814D01*
X103871390Y-83986811D01*
X103871390Y-83986809D01*
X103805503Y-83872690D01*
X103805501Y-83872688D01*
X103805500Y-83872686D01*
X103712314Y-83779500D01*
X103712311Y-83779498D01*
X103712309Y-83779496D01*
X103598189Y-83713609D01*
X103598191Y-83713609D01*
X103548799Y-83700375D01*
X103470892Y-83679500D01*
X103339108Y-83679500D01*
X103261200Y-83700375D01*
X103211809Y-83713609D01*
X103097690Y-83779496D01*
X103097689Y-83779497D01*
X103097686Y-83779499D01*
X103097686Y-83779500D01*
X103050001Y-83827184D01*
X102995487Y-83854960D01*
X102935055Y-83845389D01*
X102909999Y-83827185D01*
X102862314Y-83779500D01*
X102862311Y-83779498D01*
X102862309Y-83779496D01*
X102748189Y-83713609D01*
X102748191Y-83713609D01*
X102698799Y-83700375D01*
X102620892Y-83679500D01*
X102489108Y-83679500D01*
X102411200Y-83700375D01*
X102361809Y-83713609D01*
X102247690Y-83779496D01*
X102154496Y-83872690D01*
X102088609Y-83986809D01*
X102088608Y-83986814D01*
X102054500Y-84114108D01*
X80666569Y-84114108D01*
X80671130Y-84106208D01*
X80671130Y-84106206D01*
X80671132Y-84106204D01*
X80705240Y-83978910D01*
X80705240Y-83847126D01*
X80671132Y-83719832D01*
X80671130Y-83719829D01*
X80671130Y-83719827D01*
X80605243Y-83605708D01*
X80605241Y-83605706D01*
X80605240Y-83605704D01*
X80512054Y-83512518D01*
X80512051Y-83512516D01*
X80512049Y-83512514D01*
X80397929Y-83446627D01*
X80397931Y-83446627D01*
X80348539Y-83433393D01*
X80270632Y-83412518D01*
X80138848Y-83412518D01*
X80060940Y-83433393D01*
X80011549Y-83446627D01*
X79897430Y-83512514D01*
X79804236Y-83605708D01*
X79738349Y-83719827D01*
X79738348Y-83719832D01*
X79704240Y-83847126D01*
X53177193Y-83847126D01*
X53166392Y-83806814D01*
X53166390Y-83806811D01*
X53166390Y-83806809D01*
X53100503Y-83692690D01*
X53100501Y-83692688D01*
X53100500Y-83692686D01*
X53007314Y-83599500D01*
X53007311Y-83599498D01*
X53007309Y-83599496D01*
X52893189Y-83533609D01*
X52893191Y-83533609D01*
X52814461Y-83512514D01*
X52765892Y-83499500D01*
X52634108Y-83499500D01*
X52585539Y-83512514D01*
X52506809Y-83533609D01*
X52392690Y-83599496D01*
X52299496Y-83692690D01*
X52233609Y-83806809D01*
X52222806Y-83847127D01*
X52199500Y-83934108D01*
X36840889Y-83934108D01*
X36840889Y-82756532D01*
X37949500Y-82756532D01*
X37949500Y-82963467D01*
X37989869Y-83166418D01*
X38069058Y-83357597D01*
X38184020Y-83529651D01*
X38184023Y-83529655D01*
X38330345Y-83675977D01*
X38502402Y-83790941D01*
X38693580Y-83870130D01*
X38896535Y-83910500D01*
X38896536Y-83910500D01*
X39103464Y-83910500D01*
X39103465Y-83910500D01*
X39306420Y-83870130D01*
X39497598Y-83790941D01*
X39669655Y-83675977D01*
X39815977Y-83529655D01*
X39930941Y-83357598D01*
X40010130Y-83166420D01*
X40050500Y-82963465D01*
X40050500Y-82756535D01*
X40010130Y-82553580D01*
X39930941Y-82362402D01*
X39815977Y-82190345D01*
X39669655Y-82044023D01*
X39669651Y-82044020D01*
X39669648Y-82044017D01*
X39648573Y-82029935D01*
X39648571Y-82029935D01*
X39535087Y-81954108D01*
X80059500Y-81954108D01*
X80059500Y-82085892D01*
X80087488Y-82190345D01*
X80093609Y-82213190D01*
X80159496Y-82327309D01*
X80159498Y-82327311D01*
X80159500Y-82327314D01*
X80252686Y-82420500D01*
X80252688Y-82420501D01*
X80252690Y-82420503D01*
X80366810Y-82486390D01*
X80366808Y-82486390D01*
X80366812Y-82486391D01*
X80366814Y-82486392D01*
X80494108Y-82520500D01*
X80494110Y-82520500D01*
X80625890Y-82520500D01*
X80625892Y-82520500D01*
X80753186Y-82486392D01*
X80753188Y-82486390D01*
X80753190Y-82486390D01*
X80867309Y-82420503D01*
X80867309Y-82420502D01*
X80867314Y-82420500D01*
X80960500Y-82327314D01*
X81026392Y-82213186D01*
X81060500Y-82085892D01*
X81060500Y-81954108D01*
X81026392Y-81826814D01*
X81026390Y-81826811D01*
X81026390Y-81826809D01*
X80960503Y-81712690D01*
X80960501Y-81712688D01*
X80960500Y-81712686D01*
X80867314Y-81619500D01*
X80867311Y-81619498D01*
X80867309Y-81619496D01*
X80753189Y-81553609D01*
X80753191Y-81553609D01*
X80703799Y-81540375D01*
X80625892Y-81519500D01*
X80494108Y-81519500D01*
X80416200Y-81540375D01*
X80366809Y-81553609D01*
X80252690Y-81619496D01*
X80159496Y-81712690D01*
X80093609Y-81826809D01*
X80093608Y-81826814D01*
X80059500Y-81954108D01*
X39535087Y-81954108D01*
X39497597Y-81929058D01*
X39306418Y-81849869D01*
X39103467Y-81809500D01*
X39103465Y-81809500D01*
X38896535Y-81809500D01*
X38896532Y-81809500D01*
X38693581Y-81849869D01*
X38502402Y-81929058D01*
X38330348Y-82044020D01*
X38184020Y-82190348D01*
X38069058Y-82362402D01*
X37989869Y-82553581D01*
X37949500Y-82756532D01*
X36840889Y-82756532D01*
X36840889Y-80216532D01*
X37949500Y-80216532D01*
X37949500Y-80423467D01*
X37989869Y-80626418D01*
X38069058Y-80817597D01*
X38102278Y-80867314D01*
X38184023Y-80989655D01*
X38330345Y-81135977D01*
X38502402Y-81250941D01*
X38693580Y-81330130D01*
X38896535Y-81370500D01*
X38896536Y-81370500D01*
X39103464Y-81370500D01*
X39103465Y-81370500D01*
X39306420Y-81330130D01*
X39497598Y-81250941D01*
X39669655Y-81135977D01*
X39815977Y-80989655D01*
X39930941Y-80817598D01*
X40010130Y-80626420D01*
X40010590Y-80624108D01*
X68429500Y-80624108D01*
X68429500Y-80755892D01*
X68446034Y-80817597D01*
X68463609Y-80883190D01*
X68529496Y-80997309D01*
X68529498Y-80997311D01*
X68529500Y-80997314D01*
X68622686Y-81090500D01*
X68622688Y-81090501D01*
X68622690Y-81090503D01*
X68736810Y-81156390D01*
X68736808Y-81156390D01*
X68736812Y-81156391D01*
X68736814Y-81156392D01*
X68864108Y-81190500D01*
X68864110Y-81190500D01*
X68995890Y-81190500D01*
X68995892Y-81190500D01*
X69123186Y-81156392D01*
X69123188Y-81156390D01*
X69123190Y-81156390D01*
X69237309Y-81090503D01*
X69237309Y-81090502D01*
X69237314Y-81090500D01*
X69330500Y-80997314D01*
X69396392Y-80883186D01*
X69430500Y-80755892D01*
X69430500Y-80624108D01*
X69396392Y-80496814D01*
X69396389Y-80496809D01*
X69394830Y-80494108D01*
X70539500Y-80494108D01*
X70539500Y-80625892D01*
X70569579Y-80738151D01*
X70573609Y-80753190D01*
X70639496Y-80867309D01*
X70639498Y-80867311D01*
X70639500Y-80867314D01*
X70732686Y-80960500D01*
X70732688Y-80960501D01*
X70732690Y-80960503D01*
X70846810Y-81026390D01*
X70846808Y-81026390D01*
X70846812Y-81026391D01*
X70846814Y-81026392D01*
X70974108Y-81060500D01*
X70974110Y-81060500D01*
X71105890Y-81060500D01*
X71105892Y-81060500D01*
X71233186Y-81026392D01*
X71233188Y-81026390D01*
X71233190Y-81026390D01*
X71347309Y-80960503D01*
X71347309Y-80960502D01*
X71347314Y-80960500D01*
X71440500Y-80867314D01*
X71506392Y-80753186D01*
X71540500Y-80625892D01*
X71540500Y-80624108D01*
X96699500Y-80624108D01*
X96699500Y-80755892D01*
X96716034Y-80817597D01*
X96733609Y-80883190D01*
X96799496Y-80997309D01*
X96799498Y-80997311D01*
X96799500Y-80997314D01*
X96892686Y-81090500D01*
X96892688Y-81090501D01*
X96892690Y-81090503D01*
X97006810Y-81156390D01*
X97006808Y-81156390D01*
X97006812Y-81156391D01*
X97006814Y-81156392D01*
X97134108Y-81190500D01*
X97134110Y-81190500D01*
X97265890Y-81190500D01*
X97265892Y-81190500D01*
X97393186Y-81156392D01*
X97393188Y-81156390D01*
X97393190Y-81156390D01*
X97507309Y-81090503D01*
X97507309Y-81090502D01*
X97507314Y-81090500D01*
X97600500Y-80997314D01*
X97666392Y-80883186D01*
X97700500Y-80755892D01*
X97700500Y-80624108D01*
X97666392Y-80496814D01*
X97666390Y-80496810D01*
X97666390Y-80496809D01*
X97600503Y-80382690D01*
X97600501Y-80382688D01*
X97600500Y-80382686D01*
X97507314Y-80289500D01*
X97507311Y-80289498D01*
X97507309Y-80289496D01*
X97393189Y-80223609D01*
X97393191Y-80223609D01*
X97343799Y-80210375D01*
X97265892Y-80189500D01*
X97134108Y-80189500D01*
X97056200Y-80210375D01*
X97006809Y-80223609D01*
X96892690Y-80289496D01*
X96799496Y-80382690D01*
X96733609Y-80496809D01*
X96733608Y-80496814D01*
X96699500Y-80624108D01*
X71540500Y-80624108D01*
X71540500Y-80494108D01*
X71506392Y-80366814D01*
X71506390Y-80366811D01*
X71506390Y-80366809D01*
X71440503Y-80252690D01*
X71440501Y-80252688D01*
X71440500Y-80252686D01*
X71347314Y-80159500D01*
X71347311Y-80159498D01*
X71347309Y-80159496D01*
X71233189Y-80093609D01*
X71233191Y-80093609D01*
X71183799Y-80080375D01*
X71105892Y-80059500D01*
X70974108Y-80059500D01*
X70896200Y-80080375D01*
X70846809Y-80093609D01*
X70732690Y-80159496D01*
X70639496Y-80252690D01*
X70573609Y-80366809D01*
X70558428Y-80423467D01*
X70539500Y-80494108D01*
X69394830Y-80494108D01*
X69330503Y-80382690D01*
X69330501Y-80382688D01*
X69330500Y-80382686D01*
X69237314Y-80289500D01*
X69237311Y-80289498D01*
X69237309Y-80289496D01*
X69123189Y-80223609D01*
X69123191Y-80223609D01*
X69073799Y-80210375D01*
X68995892Y-80189500D01*
X68864108Y-80189500D01*
X68786200Y-80210375D01*
X68736809Y-80223609D01*
X68622690Y-80289496D01*
X68529496Y-80382690D01*
X68463609Y-80496809D01*
X68463608Y-80496814D01*
X68429500Y-80624108D01*
X40010590Y-80624108D01*
X40050500Y-80423465D01*
X40050500Y-80216535D01*
X40010130Y-80013580D01*
X39930941Y-79822402D01*
X39885309Y-79754108D01*
X99059500Y-79754108D01*
X99059500Y-79885892D01*
X99089579Y-79998151D01*
X99093609Y-80013190D01*
X99159496Y-80127309D01*
X99159498Y-80127311D01*
X99159500Y-80127314D01*
X99252686Y-80220500D01*
X99252688Y-80220501D01*
X99252690Y-80220503D01*
X99366810Y-80286390D01*
X99366808Y-80286390D01*
X99366812Y-80286391D01*
X99366814Y-80286392D01*
X99494108Y-80320500D01*
X99494110Y-80320500D01*
X99625890Y-80320500D01*
X99625892Y-80320500D01*
X99753186Y-80286392D01*
X99753188Y-80286390D01*
X99753190Y-80286390D01*
X99867309Y-80220503D01*
X99867309Y-80220502D01*
X99867314Y-80220500D01*
X99960500Y-80127314D01*
X100026392Y-80013186D01*
X100060500Y-79885892D01*
X100060500Y-79754108D01*
X100026392Y-79626814D01*
X100026390Y-79626811D01*
X100026390Y-79626809D01*
X99960503Y-79512690D01*
X99960501Y-79512688D01*
X99960500Y-79512686D01*
X99867314Y-79419500D01*
X99867311Y-79419498D01*
X99867309Y-79419496D01*
X99753189Y-79353609D01*
X99753191Y-79353609D01*
X99703799Y-79340375D01*
X99625892Y-79319500D01*
X99494108Y-79319500D01*
X99416200Y-79340375D01*
X99366809Y-79353609D01*
X99252690Y-79419496D01*
X99159496Y-79512690D01*
X99093609Y-79626809D01*
X99093608Y-79626814D01*
X99059500Y-79754108D01*
X39885309Y-79754108D01*
X39815977Y-79650345D01*
X39669655Y-79504023D01*
X39614716Y-79467314D01*
X39497597Y-79389058D01*
X39306418Y-79309869D01*
X39103467Y-79269500D01*
X39103465Y-79269500D01*
X38896535Y-79269500D01*
X38896532Y-79269500D01*
X38693581Y-79309869D01*
X38502402Y-79389058D01*
X38330348Y-79504020D01*
X38184020Y-79650348D01*
X38069058Y-79822402D01*
X37989869Y-80013581D01*
X37949500Y-80216532D01*
X36840889Y-80216532D01*
X36840889Y-76910253D01*
X37949500Y-76910253D01*
X37949500Y-78649746D01*
X37949501Y-78649758D01*
X37961132Y-78708227D01*
X37961134Y-78708233D01*
X37995390Y-78759500D01*
X38005448Y-78774552D01*
X38071769Y-78818867D01*
X38116231Y-78827711D01*
X38130241Y-78830498D01*
X38130246Y-78830498D01*
X38130252Y-78830500D01*
X38130253Y-78830500D01*
X39869747Y-78830500D01*
X39869748Y-78830500D01*
X39928231Y-78818867D01*
X39994552Y-78774552D01*
X40038867Y-78708231D01*
X40050500Y-78649748D01*
X40050500Y-78514108D01*
X80489500Y-78514108D01*
X80489500Y-78645892D01*
X80506204Y-78708231D01*
X80523609Y-78773190D01*
X80589496Y-78887309D01*
X80589498Y-78887311D01*
X80589500Y-78887314D01*
X80682686Y-78980500D01*
X80682688Y-78980501D01*
X80682690Y-78980503D01*
X80796810Y-79046390D01*
X80796808Y-79046390D01*
X80796812Y-79046391D01*
X80796814Y-79046392D01*
X80924108Y-79080500D01*
X80924110Y-79080500D01*
X81055890Y-79080500D01*
X81055892Y-79080500D01*
X81183186Y-79046392D01*
X81183188Y-79046390D01*
X81183190Y-79046390D01*
X81297309Y-78980503D01*
X81297309Y-78980502D01*
X81297314Y-78980500D01*
X81390500Y-78887314D01*
X81455602Y-78774554D01*
X81456390Y-78773190D01*
X81456390Y-78773188D01*
X81456392Y-78773186D01*
X81485619Y-78664108D01*
X92059500Y-78664108D01*
X92059500Y-78795892D01*
X92068773Y-78830498D01*
X92093609Y-78923190D01*
X92159496Y-79037309D01*
X92159498Y-79037311D01*
X92159500Y-79037314D01*
X92252686Y-79130500D01*
X92252688Y-79130501D01*
X92252690Y-79130503D01*
X92366810Y-79196390D01*
X92366808Y-79196390D01*
X92366812Y-79196391D01*
X92366814Y-79196392D01*
X92494108Y-79230500D01*
X92494110Y-79230500D01*
X92625890Y-79230500D01*
X92625892Y-79230500D01*
X92753186Y-79196392D01*
X92753188Y-79196390D01*
X92753190Y-79196390D01*
X92867309Y-79130503D01*
X92867309Y-79130502D01*
X92867314Y-79130500D01*
X92903706Y-79094108D01*
X106419500Y-79094108D01*
X106419500Y-79225892D01*
X106420735Y-79230500D01*
X106453609Y-79353190D01*
X106519496Y-79467309D01*
X106519498Y-79467311D01*
X106519500Y-79467314D01*
X106612686Y-79560500D01*
X106612688Y-79560501D01*
X106612690Y-79560503D01*
X106726810Y-79626390D01*
X106726808Y-79626390D01*
X106726812Y-79626391D01*
X106726814Y-79626392D01*
X106854108Y-79660500D01*
X106854110Y-79660500D01*
X106985890Y-79660500D01*
X106985892Y-79660500D01*
X107113186Y-79626392D01*
X107113188Y-79626390D01*
X107113190Y-79626390D01*
X107227309Y-79560503D01*
X107227309Y-79560502D01*
X107227314Y-79560500D01*
X107320500Y-79467314D01*
X107320503Y-79467309D01*
X107386390Y-79353190D01*
X107386390Y-79353188D01*
X107386392Y-79353186D01*
X107420500Y-79225892D01*
X107420500Y-79094108D01*
X107386392Y-78966814D01*
X107386390Y-78966811D01*
X107386390Y-78966809D01*
X107320503Y-78852690D01*
X107320501Y-78852688D01*
X107320500Y-78852686D01*
X107227314Y-78759500D01*
X107227311Y-78759498D01*
X107227309Y-78759496D01*
X107113189Y-78693609D01*
X107113191Y-78693609D01*
X107063799Y-78680375D01*
X106985892Y-78659500D01*
X106854108Y-78659500D01*
X106776200Y-78680375D01*
X106726809Y-78693609D01*
X106612690Y-78759496D01*
X106519496Y-78852690D01*
X106453609Y-78966809D01*
X106453608Y-78966814D01*
X106419500Y-79094108D01*
X92903706Y-79094108D01*
X92960500Y-79037314D01*
X92993302Y-78980500D01*
X93026390Y-78923190D01*
X93026390Y-78923188D01*
X93026392Y-78923186D01*
X93060500Y-78795892D01*
X93060500Y-78664108D01*
X93026392Y-78536814D01*
X93026390Y-78536811D01*
X93026390Y-78536809D01*
X92960503Y-78422690D01*
X92960501Y-78422688D01*
X92960500Y-78422686D01*
X92867314Y-78329500D01*
X92867311Y-78329498D01*
X92867309Y-78329496D01*
X92753189Y-78263609D01*
X92753191Y-78263609D01*
X92703799Y-78250375D01*
X92625892Y-78229500D01*
X92494108Y-78229500D01*
X92416200Y-78250375D01*
X92366809Y-78263609D01*
X92252690Y-78329496D01*
X92159496Y-78422690D01*
X92093609Y-78536809D01*
X92093608Y-78536814D01*
X92059500Y-78664108D01*
X81485619Y-78664108D01*
X81490500Y-78645892D01*
X81490500Y-78514108D01*
X81456392Y-78386814D01*
X81456390Y-78386811D01*
X81456390Y-78386809D01*
X81390503Y-78272690D01*
X81390501Y-78272688D01*
X81390500Y-78272686D01*
X81297314Y-78179500D01*
X81297311Y-78179498D01*
X81297309Y-78179496D01*
X81234714Y-78143356D01*
X81234711Y-78143356D01*
X81183187Y-78113608D01*
X81140754Y-78102238D01*
X81055892Y-78079500D01*
X80924108Y-78079500D01*
X80846200Y-78100375D01*
X80796809Y-78113609D01*
X80682690Y-78179496D01*
X80589496Y-78272690D01*
X80523609Y-78386809D01*
X80513996Y-78422686D01*
X80489500Y-78514108D01*
X40050500Y-78514108D01*
X40050500Y-78064108D01*
X87449500Y-78064108D01*
X87449500Y-78195892D01*
X87465958Y-78257314D01*
X87483609Y-78323190D01*
X87549496Y-78437309D01*
X87549498Y-78437311D01*
X87549500Y-78437314D01*
X87642686Y-78530500D01*
X87642688Y-78530501D01*
X87642690Y-78530503D01*
X87756810Y-78596390D01*
X87756808Y-78596390D01*
X87756812Y-78596391D01*
X87756814Y-78596392D01*
X87884108Y-78630500D01*
X87884110Y-78630500D01*
X88015890Y-78630500D01*
X88015892Y-78630500D01*
X88143186Y-78596392D01*
X88143188Y-78596390D01*
X88143190Y-78596390D01*
X88185638Y-78571883D01*
X88257309Y-78530503D01*
X88257309Y-78530502D01*
X88257314Y-78530500D01*
X88350500Y-78437314D01*
X88358946Y-78422686D01*
X88416390Y-78323190D01*
X88416390Y-78323188D01*
X88416392Y-78323186D01*
X88450500Y-78195892D01*
X88450500Y-78064108D01*
X88416392Y-77936814D01*
X88416390Y-77936811D01*
X88416390Y-77936809D01*
X88385963Y-77884108D01*
X99139500Y-77884108D01*
X99139500Y-78015892D01*
X99152420Y-78064109D01*
X99173609Y-78143190D01*
X99239496Y-78257309D01*
X99239498Y-78257311D01*
X99239500Y-78257314D01*
X99332686Y-78350500D01*
X99332688Y-78350501D01*
X99332690Y-78350503D01*
X99446810Y-78416390D01*
X99446808Y-78416390D01*
X99446812Y-78416391D01*
X99446814Y-78416392D01*
X99574108Y-78450500D01*
X99574110Y-78450500D01*
X99705890Y-78450500D01*
X99705892Y-78450500D01*
X99833186Y-78416392D01*
X99833188Y-78416390D01*
X99833190Y-78416390D01*
X99947309Y-78350503D01*
X99947309Y-78350502D01*
X99947314Y-78350500D01*
X100040500Y-78257314D01*
X100040503Y-78257309D01*
X100106390Y-78143190D01*
X100106390Y-78143188D01*
X100106392Y-78143186D01*
X100140500Y-78015892D01*
X100140500Y-77884108D01*
X100106392Y-77756814D01*
X100106390Y-77756811D01*
X100106390Y-77756809D01*
X100040503Y-77642690D01*
X100040501Y-77642688D01*
X100040500Y-77642686D01*
X99947314Y-77549500D01*
X99947311Y-77549498D01*
X99947309Y-77549496D01*
X99833189Y-77483609D01*
X99833191Y-77483609D01*
X99783799Y-77470375D01*
X99705892Y-77449500D01*
X99574108Y-77449500D01*
X99496200Y-77470375D01*
X99446809Y-77483609D01*
X99332690Y-77549496D01*
X99239496Y-77642690D01*
X99173609Y-77756809D01*
X99161902Y-77800500D01*
X99139500Y-77884108D01*
X88385963Y-77884108D01*
X88350503Y-77822690D01*
X88350501Y-77822688D01*
X88350500Y-77822686D01*
X88257314Y-77729500D01*
X88257311Y-77729498D01*
X88257309Y-77729496D01*
X88143189Y-77663609D01*
X88143191Y-77663609D01*
X88093799Y-77650375D01*
X88015892Y-77629500D01*
X87884108Y-77629500D01*
X87806200Y-77650375D01*
X87756809Y-77663609D01*
X87642690Y-77729496D01*
X87549496Y-77822690D01*
X87483609Y-77936809D01*
X87483608Y-77936814D01*
X87449500Y-78064108D01*
X40050500Y-78064108D01*
X40050500Y-77444108D01*
X49589500Y-77444108D01*
X49589500Y-77575892D01*
X49619579Y-77688151D01*
X49623609Y-77703190D01*
X49689496Y-77817309D01*
X49689498Y-77817311D01*
X49689500Y-77817314D01*
X49782686Y-77910500D01*
X49782688Y-77910501D01*
X49782690Y-77910503D01*
X49896810Y-77976390D01*
X49896808Y-77976390D01*
X49896812Y-77976391D01*
X49896814Y-77976392D01*
X50024108Y-78010500D01*
X50024110Y-78010500D01*
X50155890Y-78010500D01*
X50155892Y-78010500D01*
X50283186Y-77976392D01*
X50283188Y-77976390D01*
X50283190Y-77976390D01*
X50397309Y-77910503D01*
X50397309Y-77910502D01*
X50397314Y-77910500D01*
X50490500Y-77817314D01*
X50556392Y-77703186D01*
X50590500Y-77575892D01*
X50590500Y-77444108D01*
X50556392Y-77316814D01*
X50545020Y-77297118D01*
X50545020Y-77297116D01*
X50520189Y-77254108D01*
X75009500Y-77254108D01*
X75009500Y-77385892D01*
X75025099Y-77444108D01*
X75043609Y-77513190D01*
X75109496Y-77627309D01*
X75109498Y-77627311D01*
X75109500Y-77627314D01*
X75202686Y-77720500D01*
X75202688Y-77720501D01*
X75202690Y-77720503D01*
X75316810Y-77786390D01*
X75316808Y-77786390D01*
X75316812Y-77786391D01*
X75316814Y-77786392D01*
X75444108Y-77820500D01*
X75444110Y-77820500D01*
X75575890Y-77820500D01*
X75575892Y-77820500D01*
X75703186Y-77786392D01*
X75703188Y-77786390D01*
X75703190Y-77786390D01*
X75817309Y-77720503D01*
X75817309Y-77720502D01*
X75817314Y-77720500D01*
X75910500Y-77627314D01*
X75955426Y-77549500D01*
X75976390Y-77513190D01*
X75976390Y-77513188D01*
X75976392Y-77513186D01*
X76010500Y-77385892D01*
X76010500Y-77254108D01*
X76005141Y-77234108D01*
X97519500Y-77234108D01*
X97519500Y-77365892D01*
X97549579Y-77478151D01*
X97553609Y-77493190D01*
X97619496Y-77607309D01*
X97619498Y-77607311D01*
X97619500Y-77607314D01*
X97712686Y-77700500D01*
X97712688Y-77700501D01*
X97712690Y-77700503D01*
X97826810Y-77766390D01*
X97826808Y-77766390D01*
X97826812Y-77766391D01*
X97826814Y-77766392D01*
X97954108Y-77800500D01*
X97954110Y-77800500D01*
X98085890Y-77800500D01*
X98085892Y-77800500D01*
X98213186Y-77766392D01*
X98213188Y-77766390D01*
X98213190Y-77766390D01*
X98327309Y-77700503D01*
X98327309Y-77700502D01*
X98327314Y-77700500D01*
X98420500Y-77607314D01*
X98453879Y-77549500D01*
X98486390Y-77493190D01*
X98486390Y-77493188D01*
X98486392Y-77493186D01*
X98520500Y-77365892D01*
X98520500Y-77234108D01*
X98486392Y-77106814D01*
X98486390Y-77106811D01*
X98486390Y-77106809D01*
X98420503Y-76992690D01*
X98420501Y-76992688D01*
X98420500Y-76992686D01*
X98327314Y-76899500D01*
X98327311Y-76899498D01*
X98327309Y-76899496D01*
X98213189Y-76833609D01*
X98213191Y-76833609D01*
X98160534Y-76819500D01*
X98085892Y-76799500D01*
X97954108Y-76799500D01*
X97879466Y-76819500D01*
X97826809Y-76833609D01*
X97712690Y-76899496D01*
X97619496Y-76992690D01*
X97553609Y-77106809D01*
X97553608Y-77106814D01*
X97519500Y-77234108D01*
X76005141Y-77234108D01*
X75976392Y-77126814D01*
X75976390Y-77126811D01*
X75976390Y-77126809D01*
X75910503Y-77012690D01*
X75910501Y-77012688D01*
X75910500Y-77012686D01*
X75817314Y-76919500D01*
X75817311Y-76919498D01*
X75817309Y-76919496D01*
X75703189Y-76853609D01*
X75703191Y-76853609D01*
X75653799Y-76840375D01*
X75575892Y-76819500D01*
X75444108Y-76819500D01*
X75366200Y-76840375D01*
X75316809Y-76853609D01*
X75202690Y-76919496D01*
X75109496Y-77012690D01*
X75043609Y-77126809D01*
X75043608Y-77126814D01*
X75009500Y-77254108D01*
X50520189Y-77254108D01*
X50490503Y-77202690D01*
X50490501Y-77202688D01*
X50490500Y-77202686D01*
X50397314Y-77109500D01*
X50397311Y-77109498D01*
X50397309Y-77109496D01*
X50283189Y-77043609D01*
X50283191Y-77043609D01*
X50233799Y-77030375D01*
X50155892Y-77009500D01*
X50024108Y-77009500D01*
X49946200Y-77030375D01*
X49896809Y-77043609D01*
X49782690Y-77109496D01*
X49689496Y-77202690D01*
X49623609Y-77316809D01*
X49623608Y-77316814D01*
X49589500Y-77444108D01*
X40050500Y-77444108D01*
X40050500Y-76910252D01*
X40048360Y-76899496D01*
X40047711Y-76896231D01*
X40038867Y-76851769D01*
X39994552Y-76785448D01*
X39994548Y-76785445D01*
X39928233Y-76741134D01*
X39928231Y-76741133D01*
X39928228Y-76741132D01*
X39928227Y-76741132D01*
X39869758Y-76729501D01*
X39869748Y-76729500D01*
X38130252Y-76729500D01*
X38130251Y-76729500D01*
X38130241Y-76729501D01*
X38071772Y-76741132D01*
X38071766Y-76741134D01*
X38005451Y-76785445D01*
X38005445Y-76785451D01*
X37961134Y-76851766D01*
X37961132Y-76851772D01*
X37949501Y-76910241D01*
X37949500Y-76910253D01*
X36840889Y-76910253D01*
X36840889Y-73336532D01*
X37949500Y-73336532D01*
X37949500Y-73543467D01*
X37989869Y-73746418D01*
X38069058Y-73937597D01*
X38152594Y-74062618D01*
X38184023Y-74109655D01*
X38330345Y-74255977D01*
X38502402Y-74370941D01*
X38693580Y-74450130D01*
X38896535Y-74490500D01*
X38896536Y-74490500D01*
X39103464Y-74490500D01*
X39103465Y-74490500D01*
X39306420Y-74450130D01*
X39497598Y-74370941D01*
X39669655Y-74255977D01*
X39801524Y-74124108D01*
X48389500Y-74124108D01*
X48389500Y-74255892D01*
X48419579Y-74368151D01*
X48423609Y-74383190D01*
X48489496Y-74497309D01*
X48489498Y-74497311D01*
X48489500Y-74497314D01*
X48582686Y-74590500D01*
X48582688Y-74590501D01*
X48582690Y-74590503D01*
X48696810Y-74656390D01*
X48696808Y-74656390D01*
X48696812Y-74656391D01*
X48696814Y-74656392D01*
X48824108Y-74690500D01*
X48824110Y-74690500D01*
X48955890Y-74690500D01*
X48955892Y-74690500D01*
X49083186Y-74656392D01*
X49083188Y-74656390D01*
X49083190Y-74656390D01*
X49197309Y-74590503D01*
X49197309Y-74590502D01*
X49197314Y-74590500D01*
X49290500Y-74497314D01*
X49356392Y-74383186D01*
X49390500Y-74255892D01*
X49390500Y-74124108D01*
X49356392Y-73996814D01*
X49356390Y-73996811D01*
X49356390Y-73996809D01*
X49290503Y-73882690D01*
X49290501Y-73882688D01*
X49290500Y-73882686D01*
X49197314Y-73789500D01*
X49197311Y-73789498D01*
X49197309Y-73789496D01*
X49083189Y-73723609D01*
X49083191Y-73723609D01*
X49033799Y-73710375D01*
X48955892Y-73689500D01*
X48824108Y-73689500D01*
X48746200Y-73710375D01*
X48696809Y-73723609D01*
X48582690Y-73789496D01*
X48489496Y-73882690D01*
X48423609Y-73996809D01*
X48423608Y-73996814D01*
X48389500Y-74124108D01*
X39801524Y-74124108D01*
X39815977Y-74109655D01*
X39930941Y-73937598D01*
X40010130Y-73746420D01*
X40050500Y-73543465D01*
X40050500Y-73336535D01*
X40010130Y-73133580D01*
X39930941Y-72942402D01*
X39815977Y-72770345D01*
X39669655Y-72624023D01*
X39497598Y-72509059D01*
X39497599Y-72509059D01*
X39497597Y-72509058D01*
X39306418Y-72429869D01*
X39103467Y-72389500D01*
X39103465Y-72389500D01*
X38896535Y-72389500D01*
X38896532Y-72389500D01*
X38693581Y-72429869D01*
X38502402Y-72509058D01*
X38330348Y-72624020D01*
X38184020Y-72770348D01*
X38069058Y-72942402D01*
X37989869Y-73133581D01*
X37949500Y-73336532D01*
X36840889Y-73336532D01*
X36840889Y-70796532D01*
X37949500Y-70796532D01*
X37949500Y-71003467D01*
X37989869Y-71206418D01*
X38069058Y-71397597D01*
X38069059Y-71397598D01*
X38184023Y-71569655D01*
X38330345Y-71715977D01*
X38502402Y-71830941D01*
X38693580Y-71910130D01*
X38896535Y-71950500D01*
X38896536Y-71950500D01*
X39103464Y-71950500D01*
X39103465Y-71950500D01*
X39306420Y-71910130D01*
X39497598Y-71830941D01*
X39669655Y-71715977D01*
X39815977Y-71569655D01*
X39930941Y-71397598D01*
X40010130Y-71206420D01*
X40050500Y-71003465D01*
X40050500Y-70796535D01*
X40010130Y-70593580D01*
X39930941Y-70402402D01*
X39815977Y-70230345D01*
X39669655Y-70084023D01*
X39497598Y-69969059D01*
X39497599Y-69969059D01*
X39497597Y-69969058D01*
X39306418Y-69889869D01*
X39103467Y-69849500D01*
X39103465Y-69849500D01*
X38896535Y-69849500D01*
X38896532Y-69849500D01*
X38693581Y-69889869D01*
X38502402Y-69969058D01*
X38330348Y-70084020D01*
X38184020Y-70230348D01*
X38069058Y-70402402D01*
X37989869Y-70593581D01*
X37949500Y-70796532D01*
X36840889Y-70796532D01*
X36840889Y-68256532D01*
X37949500Y-68256532D01*
X37949500Y-68463467D01*
X37989869Y-68666418D01*
X38069058Y-68857597D01*
X38174310Y-69015119D01*
X38184023Y-69029655D01*
X38330345Y-69175977D01*
X38502402Y-69290941D01*
X38693580Y-69370130D01*
X38896535Y-69410500D01*
X38896536Y-69410500D01*
X39103464Y-69410500D01*
X39103465Y-69410500D01*
X39306420Y-69370130D01*
X39497598Y-69290941D01*
X39669655Y-69175977D01*
X39769024Y-69076608D01*
X98038306Y-69076608D01*
X98038306Y-69208392D01*
X98068385Y-69320651D01*
X98072415Y-69335690D01*
X98138302Y-69449809D01*
X98138304Y-69449811D01*
X98138306Y-69449814D01*
X98231492Y-69543000D01*
X98231494Y-69543001D01*
X98231496Y-69543003D01*
X98345616Y-69608890D01*
X98345617Y-69608890D01*
X98345620Y-69608892D01*
X98427970Y-69630957D01*
X98479283Y-69664280D01*
X98501210Y-69721401D01*
X98497973Y-69752205D01*
X98475482Y-69836144D01*
X98475482Y-69967928D01*
X98505561Y-70080187D01*
X98509591Y-70095226D01*
X98575478Y-70209345D01*
X98575480Y-70209347D01*
X98575482Y-70209350D01*
X98668668Y-70302536D01*
X98668670Y-70302537D01*
X98668672Y-70302539D01*
X98782792Y-70368426D01*
X98782790Y-70368426D01*
X98782794Y-70368427D01*
X98782796Y-70368428D01*
X98910090Y-70402536D01*
X98910092Y-70402536D01*
X99041872Y-70402536D01*
X99041874Y-70402536D01*
X99169168Y-70368428D01*
X99169170Y-70368426D01*
X99169172Y-70368426D01*
X99283291Y-70302539D01*
X99283291Y-70302538D01*
X99283296Y-70302536D01*
X99376482Y-70209350D01*
X99442374Y-70095222D01*
X99476482Y-69967928D01*
X99476482Y-69836144D01*
X99442374Y-69708850D01*
X99442372Y-69708847D01*
X99442372Y-69708845D01*
X99376485Y-69594726D01*
X99376483Y-69594724D01*
X99376482Y-69594722D01*
X99283296Y-69501536D01*
X99283293Y-69501534D01*
X99283291Y-69501532D01*
X99169171Y-69435645D01*
X99169173Y-69435645D01*
X99131657Y-69425593D01*
X99086816Y-69413578D01*
X99035504Y-69380255D01*
X99013577Y-69323133D01*
X99016814Y-69292331D01*
X99039306Y-69208392D01*
X99039306Y-69076608D01*
X99005198Y-68949314D01*
X99005196Y-68949311D01*
X99005196Y-68949309D01*
X98939309Y-68835190D01*
X98939307Y-68835188D01*
X98939306Y-68835186D01*
X98846120Y-68742000D01*
X98846117Y-68741998D01*
X98846115Y-68741996D01*
X98731995Y-68676109D01*
X98731997Y-68676109D01*
X98682605Y-68662875D01*
X98604698Y-68642000D01*
X98472914Y-68642000D01*
X98395006Y-68662875D01*
X98345615Y-68676109D01*
X98231496Y-68741996D01*
X98138302Y-68835190D01*
X98072415Y-68949309D01*
X98072414Y-68949314D01*
X98038306Y-69076608D01*
X39769024Y-69076608D01*
X39815977Y-69029655D01*
X39930941Y-68857598D01*
X40010130Y-68666420D01*
X40050500Y-68463465D01*
X40050500Y-68256535D01*
X40010130Y-68053580D01*
X39930941Y-67862402D01*
X39815977Y-67690345D01*
X39669655Y-67544023D01*
X39497598Y-67429059D01*
X39497599Y-67429059D01*
X39497597Y-67429058D01*
X39306418Y-67349869D01*
X39103467Y-67309500D01*
X39103465Y-67309500D01*
X38896535Y-67309500D01*
X38896532Y-67309500D01*
X38693581Y-67349869D01*
X38502402Y-67429058D01*
X38330348Y-67544020D01*
X38184020Y-67690348D01*
X38069058Y-67862402D01*
X37989869Y-68053581D01*
X37949500Y-68256532D01*
X36840889Y-68256532D01*
X36840889Y-64950253D01*
X37949500Y-64950253D01*
X37949500Y-66689746D01*
X37949501Y-66689758D01*
X37961132Y-66748227D01*
X37961133Y-66748231D01*
X38005448Y-66814552D01*
X38071769Y-66858867D01*
X38116231Y-66867711D01*
X38130241Y-66870498D01*
X38130246Y-66870498D01*
X38130252Y-66870500D01*
X38130253Y-66870500D01*
X39869747Y-66870500D01*
X39869748Y-66870500D01*
X39928231Y-66858867D01*
X39994552Y-66814552D01*
X40038867Y-66748231D01*
X40050500Y-66689748D01*
X40050500Y-66044108D01*
X98099500Y-66044108D01*
X98099500Y-66175892D01*
X98129579Y-66288151D01*
X98133609Y-66303190D01*
X98199496Y-66417309D01*
X98199498Y-66417311D01*
X98199500Y-66417314D01*
X98292686Y-66510500D01*
X98292688Y-66510501D01*
X98292690Y-66510503D01*
X98406810Y-66576390D01*
X98406808Y-66576390D01*
X98406812Y-66576391D01*
X98406814Y-66576392D01*
X98534108Y-66610500D01*
X98534110Y-66610500D01*
X98665890Y-66610500D01*
X98665892Y-66610500D01*
X98793186Y-66576392D01*
X98793188Y-66576390D01*
X98793190Y-66576390D01*
X98907309Y-66510503D01*
X98907309Y-66510502D01*
X98907314Y-66510500D01*
X99000500Y-66417314D01*
X99066392Y-66303186D01*
X99100500Y-66175892D01*
X99100500Y-66044108D01*
X99066392Y-65916814D01*
X99066390Y-65916811D01*
X99066390Y-65916809D01*
X99000503Y-65802690D01*
X99000501Y-65802688D01*
X99000500Y-65802686D01*
X98907314Y-65709500D01*
X98907311Y-65709498D01*
X98907309Y-65709496D01*
X98793189Y-65643609D01*
X98793191Y-65643609D01*
X98743799Y-65630375D01*
X98665892Y-65609500D01*
X98534108Y-65609500D01*
X98456200Y-65630375D01*
X98406809Y-65643609D01*
X98292690Y-65709496D01*
X98199496Y-65802690D01*
X98133609Y-65916809D01*
X98133608Y-65916814D01*
X98099500Y-66044108D01*
X40050500Y-66044108D01*
X40050500Y-65154108D01*
X105909500Y-65154108D01*
X105909500Y-65285892D01*
X105939579Y-65398151D01*
X105943609Y-65413190D01*
X106009496Y-65527309D01*
X106009498Y-65527311D01*
X106009500Y-65527314D01*
X106102686Y-65620500D01*
X106102688Y-65620501D01*
X106102690Y-65620503D01*
X106216810Y-65686390D01*
X106216808Y-65686390D01*
X106216812Y-65686391D01*
X106216814Y-65686392D01*
X106344108Y-65720500D01*
X106344110Y-65720500D01*
X106475890Y-65720500D01*
X106475892Y-65720500D01*
X106603186Y-65686392D01*
X106603188Y-65686390D01*
X106603190Y-65686390D01*
X106717309Y-65620503D01*
X106717309Y-65620502D01*
X106717314Y-65620500D01*
X106810500Y-65527314D01*
X106876392Y-65413186D01*
X106910500Y-65285892D01*
X106910500Y-65154108D01*
X106876392Y-65026814D01*
X106876390Y-65026811D01*
X106876390Y-65026809D01*
X106810503Y-64912690D01*
X106810501Y-64912688D01*
X106810500Y-64912686D01*
X106717314Y-64819500D01*
X106717311Y-64819498D01*
X106717309Y-64819496D01*
X106603189Y-64753609D01*
X106603191Y-64753609D01*
X106553799Y-64740375D01*
X106475892Y-64719500D01*
X106344108Y-64719500D01*
X106266200Y-64740375D01*
X106216809Y-64753609D01*
X106102690Y-64819496D01*
X106009496Y-64912690D01*
X105943609Y-65026809D01*
X105943608Y-65026814D01*
X105909500Y-65154108D01*
X40050500Y-65154108D01*
X40050500Y-64950252D01*
X40038867Y-64891769D01*
X39994552Y-64825448D01*
X39994548Y-64825445D01*
X39928233Y-64781134D01*
X39928231Y-64781133D01*
X39928228Y-64781132D01*
X39928227Y-64781132D01*
X39869758Y-64769501D01*
X39869748Y-64769500D01*
X38130252Y-64769500D01*
X38130251Y-64769500D01*
X38130241Y-64769501D01*
X38071772Y-64781132D01*
X38071766Y-64781134D01*
X38005451Y-64825445D01*
X38005445Y-64825451D01*
X37961134Y-64891766D01*
X37961132Y-64891772D01*
X37949501Y-64950241D01*
X37949500Y-64950253D01*
X36840889Y-64950253D01*
X36840889Y-62344108D01*
X102379500Y-62344108D01*
X102379500Y-62475892D01*
X102409579Y-62588151D01*
X102413609Y-62603190D01*
X102479496Y-62717309D01*
X102479498Y-62717311D01*
X102479500Y-62717314D01*
X102572686Y-62810500D01*
X102572688Y-62810501D01*
X102572690Y-62810503D01*
X102686810Y-62876390D01*
X102686808Y-62876390D01*
X102686812Y-62876391D01*
X102686814Y-62876392D01*
X102814108Y-62910500D01*
X102814110Y-62910500D01*
X102945890Y-62910500D01*
X102945892Y-62910500D01*
X103073186Y-62876392D01*
X103073188Y-62876390D01*
X103073190Y-62876390D01*
X103187309Y-62810503D01*
X103187309Y-62810502D01*
X103187314Y-62810500D01*
X103280500Y-62717314D01*
X103346392Y-62603186D01*
X103380500Y-62475892D01*
X103380500Y-62344108D01*
X103346392Y-62216814D01*
X103346390Y-62216811D01*
X103346390Y-62216809D01*
X103280503Y-62102690D01*
X103280501Y-62102688D01*
X103280500Y-62102686D01*
X103187314Y-62009500D01*
X103187311Y-62009498D01*
X103187309Y-62009496D01*
X103073189Y-61943609D01*
X103073191Y-61943609D01*
X103023799Y-61930375D01*
X102945892Y-61909500D01*
X102814108Y-61909500D01*
X102736200Y-61930375D01*
X102686809Y-61943609D01*
X102572690Y-62009496D01*
X102479496Y-62102690D01*
X102413609Y-62216809D01*
X102413608Y-62216814D01*
X102379500Y-62344108D01*
X36840889Y-62344108D01*
X36840889Y-60270253D01*
X37849500Y-60270253D01*
X37849500Y-62009746D01*
X37849501Y-62009758D01*
X37861132Y-62068227D01*
X37861133Y-62068231D01*
X37905448Y-62134552D01*
X37971769Y-62178867D01*
X38016231Y-62187711D01*
X38030241Y-62190498D01*
X38030246Y-62190498D01*
X38030252Y-62190500D01*
X38030253Y-62190500D01*
X39769747Y-62190500D01*
X39769748Y-62190500D01*
X39828231Y-62178867D01*
X39894552Y-62134552D01*
X39938867Y-62068231D01*
X39950500Y-62009748D01*
X39950500Y-60270252D01*
X39938867Y-60211769D01*
X39894552Y-60145448D01*
X39894548Y-60145445D01*
X39828233Y-60101134D01*
X39828231Y-60101133D01*
X39828228Y-60101132D01*
X39828227Y-60101132D01*
X39769758Y-60089501D01*
X39769748Y-60089500D01*
X38030252Y-60089500D01*
X38030251Y-60089500D01*
X38030241Y-60089501D01*
X37971772Y-60101132D01*
X37971766Y-60101134D01*
X37905451Y-60145445D01*
X37905445Y-60145451D01*
X37861134Y-60211766D01*
X37861132Y-60211772D01*
X37849501Y-60270241D01*
X37849500Y-60270253D01*
X36840889Y-60270253D01*
X36840889Y-58496532D01*
X37849500Y-58496532D01*
X37849500Y-58703467D01*
X37889869Y-58906418D01*
X37969058Y-59097597D01*
X37969059Y-59097598D01*
X38084023Y-59269655D01*
X38230345Y-59415977D01*
X38402402Y-59530941D01*
X38593580Y-59610130D01*
X38796535Y-59650500D01*
X38796536Y-59650500D01*
X39003464Y-59650500D01*
X39003465Y-59650500D01*
X39206420Y-59610130D01*
X39397598Y-59530941D01*
X39569655Y-59415977D01*
X39715977Y-59269655D01*
X39830941Y-59097598D01*
X39910130Y-58906420D01*
X39950500Y-58703465D01*
X39950500Y-58496535D01*
X39910130Y-58293580D01*
X39830941Y-58102402D01*
X39715977Y-57930345D01*
X39569655Y-57784023D01*
X39397598Y-57669059D01*
X39397599Y-57669059D01*
X39397597Y-57669058D01*
X39206418Y-57589869D01*
X39003467Y-57549500D01*
X39003465Y-57549500D01*
X38796535Y-57549500D01*
X38796532Y-57549500D01*
X38593581Y-57589869D01*
X38402402Y-57669058D01*
X38230348Y-57784020D01*
X38084020Y-57930348D01*
X37969058Y-58102402D01*
X37889869Y-58293581D01*
X37849500Y-58496532D01*
X36840889Y-58496532D01*
X36840889Y-55956532D01*
X37849500Y-55956532D01*
X37849500Y-56163467D01*
X37889869Y-56366418D01*
X37969058Y-56557597D01*
X37969059Y-56557598D01*
X38084023Y-56729655D01*
X38230345Y-56875977D01*
X38402402Y-56990941D01*
X38593580Y-57070130D01*
X38796535Y-57110500D01*
X38796536Y-57110500D01*
X39003464Y-57110500D01*
X39003465Y-57110500D01*
X39206420Y-57070130D01*
X39397598Y-56990941D01*
X39569655Y-56875977D01*
X39715977Y-56729655D01*
X39830941Y-56557598D01*
X39910130Y-56366420D01*
X39950500Y-56163465D01*
X39950500Y-55956535D01*
X39910130Y-55753580D01*
X39830941Y-55562402D01*
X39715977Y-55390345D01*
X39569655Y-55244023D01*
X39397598Y-55129059D01*
X39397599Y-55129059D01*
X39397597Y-55129058D01*
X39206418Y-55049869D01*
X39003467Y-55009500D01*
X39003465Y-55009500D01*
X38796535Y-55009500D01*
X38796532Y-55009500D01*
X38593581Y-55049869D01*
X38402402Y-55129058D01*
X38230348Y-55244020D01*
X38084020Y-55390348D01*
X37969058Y-55562402D01*
X37889869Y-55753581D01*
X37849500Y-55956532D01*
X36840889Y-55956532D01*
X36840889Y-53416532D01*
X37849500Y-53416532D01*
X37849500Y-53623467D01*
X37889869Y-53826418D01*
X37969058Y-54017597D01*
X37969059Y-54017598D01*
X38084023Y-54189655D01*
X38230345Y-54335977D01*
X38402402Y-54450941D01*
X38593580Y-54530130D01*
X38796535Y-54570500D01*
X38796536Y-54570500D01*
X39003464Y-54570500D01*
X39003465Y-54570500D01*
X39206420Y-54530130D01*
X39397598Y-54450941D01*
X39569655Y-54335977D01*
X39715977Y-54189655D01*
X39830941Y-54017598D01*
X39910130Y-53826420D01*
X39950500Y-53623465D01*
X39950500Y-53416535D01*
X39910130Y-53213580D01*
X39830941Y-53022402D01*
X39715977Y-52850345D01*
X39569655Y-52704023D01*
X39397598Y-52589059D01*
X39397599Y-52589059D01*
X39397597Y-52589058D01*
X39206418Y-52509869D01*
X39003467Y-52469500D01*
X39003465Y-52469500D01*
X38796535Y-52469500D01*
X38796532Y-52469500D01*
X38593581Y-52509869D01*
X38402402Y-52589058D01*
X38230348Y-52704020D01*
X38084020Y-52850348D01*
X37969058Y-53022402D01*
X37889869Y-53213581D01*
X37849500Y-53416532D01*
X36840889Y-53416532D01*
X36840889Y-50876532D01*
X37849500Y-50876532D01*
X37849500Y-51083467D01*
X37889869Y-51286418D01*
X37969058Y-51477597D01*
X37969059Y-51477598D01*
X38084023Y-51649655D01*
X38230345Y-51795977D01*
X38402402Y-51910941D01*
X38593580Y-51990130D01*
X38796535Y-52030500D01*
X38796536Y-52030500D01*
X39003464Y-52030500D01*
X39003465Y-52030500D01*
X39206420Y-51990130D01*
X39397598Y-51910941D01*
X39569655Y-51795977D01*
X39715977Y-51649655D01*
X39830941Y-51477598D01*
X39910130Y-51286420D01*
X39950500Y-51083465D01*
X39950500Y-50876535D01*
X39910130Y-50673580D01*
X39830941Y-50482402D01*
X39715977Y-50310345D01*
X39569655Y-50164023D01*
X39397598Y-50049059D01*
X39397599Y-50049059D01*
X39397597Y-50049058D01*
X39206418Y-49969869D01*
X39003467Y-49929500D01*
X39003465Y-49929500D01*
X38796535Y-49929500D01*
X38796532Y-49929500D01*
X38593581Y-49969869D01*
X38402402Y-50049058D01*
X38230348Y-50164020D01*
X38084020Y-50310348D01*
X37969058Y-50482402D01*
X37889869Y-50673581D01*
X37849500Y-50876532D01*
X36840889Y-50876532D01*
X36840889Y-44428500D01*
X36840983Y-44424182D01*
X36843770Y-44360344D01*
X36857823Y-44038483D01*
X36858573Y-44029907D01*
X36908684Y-43649281D01*
X36910180Y-43640798D01*
X36993272Y-43265994D01*
X36995504Y-43257665D01*
X37023254Y-43169655D01*
X37110944Y-42891535D01*
X37113896Y-42883427D01*
X37229859Y-42603467D01*
X37260807Y-42528751D01*
X37264453Y-42520933D01*
X37441714Y-42180418D01*
X37446021Y-42172957D01*
X37652303Y-41849159D01*
X37657248Y-41842100D01*
X37819803Y-41630253D01*
X108509500Y-41630253D01*
X108509500Y-43369746D01*
X108509501Y-43369758D01*
X108521132Y-43428227D01*
X108521134Y-43428233D01*
X108565445Y-43494548D01*
X108565448Y-43494552D01*
X108631769Y-43538867D01*
X108676231Y-43547711D01*
X108690241Y-43550498D01*
X108690246Y-43550498D01*
X108690252Y-43550500D01*
X108690253Y-43550500D01*
X110429747Y-43550500D01*
X110429748Y-43550500D01*
X110488231Y-43538867D01*
X110554552Y-43494552D01*
X110598867Y-43428231D01*
X110610500Y-43369748D01*
X110610500Y-42396532D01*
X111049500Y-42396532D01*
X111049500Y-42603467D01*
X111089869Y-42806418D01*
X111169058Y-42997597D01*
X111169059Y-42997598D01*
X111284023Y-43169655D01*
X111430345Y-43315977D01*
X111602402Y-43430941D01*
X111793580Y-43510130D01*
X111996535Y-43550500D01*
X111996536Y-43550500D01*
X112203464Y-43550500D01*
X112203465Y-43550500D01*
X112406420Y-43510130D01*
X112597598Y-43430941D01*
X112769655Y-43315977D01*
X112915977Y-43169655D01*
X113030941Y-42997598D01*
X113110130Y-42806420D01*
X113150500Y-42603465D01*
X113150500Y-42396535D01*
X113150499Y-42396532D01*
X113589500Y-42396532D01*
X113589500Y-42603467D01*
X113629869Y-42806418D01*
X113709058Y-42997597D01*
X113709059Y-42997598D01*
X113824023Y-43169655D01*
X113970345Y-43315977D01*
X114142402Y-43430941D01*
X114333580Y-43510130D01*
X114536535Y-43550500D01*
X114536536Y-43550500D01*
X114743464Y-43550500D01*
X114743465Y-43550500D01*
X114946420Y-43510130D01*
X115137598Y-43430941D01*
X115309655Y-43315977D01*
X115455977Y-43169655D01*
X115570941Y-42997598D01*
X115650130Y-42806420D01*
X115690500Y-42603465D01*
X115690500Y-42396535D01*
X115690499Y-42396532D01*
X116129500Y-42396532D01*
X116129500Y-42603467D01*
X116169869Y-42806418D01*
X116249058Y-42997597D01*
X116249059Y-42997598D01*
X116364023Y-43169655D01*
X116510345Y-43315977D01*
X116682402Y-43430941D01*
X116873580Y-43510130D01*
X117076535Y-43550500D01*
X117076536Y-43550500D01*
X117283464Y-43550500D01*
X117283465Y-43550500D01*
X117486420Y-43510130D01*
X117677598Y-43430941D01*
X117849655Y-43315977D01*
X117995977Y-43169655D01*
X118110941Y-42997598D01*
X118190130Y-42806420D01*
X118230500Y-42603465D01*
X118230500Y-42396535D01*
X118190130Y-42193580D01*
X118110941Y-42002402D01*
X117995977Y-41830345D01*
X117849655Y-41684023D01*
X117769182Y-41630253D01*
X117677597Y-41569058D01*
X117486418Y-41489869D01*
X117283467Y-41449500D01*
X117283465Y-41449500D01*
X117076535Y-41449500D01*
X117076532Y-41449500D01*
X116873581Y-41489869D01*
X116682402Y-41569058D01*
X116510348Y-41684020D01*
X116364020Y-41830348D01*
X116249058Y-42002402D01*
X116169869Y-42193581D01*
X116129500Y-42396532D01*
X115690499Y-42396532D01*
X115650130Y-42193580D01*
X115570941Y-42002402D01*
X115455977Y-41830345D01*
X115309655Y-41684023D01*
X115229182Y-41630253D01*
X115137597Y-41569058D01*
X114946418Y-41489869D01*
X114743467Y-41449500D01*
X114743465Y-41449500D01*
X114536535Y-41449500D01*
X114536532Y-41449500D01*
X114333581Y-41489869D01*
X114142402Y-41569058D01*
X113970348Y-41684020D01*
X113824020Y-41830348D01*
X113709058Y-42002402D01*
X113629869Y-42193581D01*
X113589500Y-42396532D01*
X113150499Y-42396532D01*
X113110130Y-42193580D01*
X113030941Y-42002402D01*
X112915977Y-41830345D01*
X112769655Y-41684023D01*
X112689182Y-41630253D01*
X112597597Y-41569058D01*
X112406418Y-41489869D01*
X112203467Y-41449500D01*
X112203465Y-41449500D01*
X111996535Y-41449500D01*
X111996532Y-41449500D01*
X111793581Y-41489869D01*
X111602402Y-41569058D01*
X111430348Y-41684020D01*
X111284020Y-41830348D01*
X111169058Y-42002402D01*
X111089869Y-42193581D01*
X111049500Y-42396532D01*
X110610500Y-42396532D01*
X110610500Y-41630252D01*
X110598867Y-41571769D01*
X110554552Y-41505448D01*
X110554548Y-41505445D01*
X110488233Y-41461134D01*
X110488231Y-41461133D01*
X110488228Y-41461132D01*
X110488227Y-41461132D01*
X110429758Y-41449501D01*
X110429748Y-41449500D01*
X108690252Y-41449500D01*
X108690251Y-41449500D01*
X108690241Y-41449501D01*
X108631772Y-41461132D01*
X108631766Y-41461134D01*
X108565451Y-41505445D01*
X108565445Y-41505451D01*
X108521134Y-41571766D01*
X108521132Y-41571772D01*
X108509501Y-41630241D01*
X108509500Y-41630253D01*
X37819803Y-41630253D01*
X37890962Y-41537516D01*
X37896472Y-41530951D01*
X38155870Y-41247867D01*
X38161917Y-41241820D01*
X38445001Y-40982422D01*
X38451578Y-40976903D01*
X38756158Y-40743192D01*
X38763209Y-40738253D01*
X39087007Y-40531971D01*
X39094468Y-40527664D01*
X39434998Y-40350395D01*
X39442801Y-40346757D01*
X39797482Y-40199844D01*
X39805585Y-40196894D01*
X40171723Y-40081451D01*
X40180044Y-40079222D01*
X40554848Y-39996130D01*
X40563331Y-39994634D01*
X40943957Y-39944523D01*
X40952533Y-39943773D01*
X41338236Y-39926932D01*
X41342554Y-39926839D01*
X41406281Y-39926839D01*
X131274498Y-39926839D01*
X131338225Y-39926839D01*
X131342543Y-39926933D01*
G37*
%TD.AperFunction*%
%TD*%
M02*
