%TF.GenerationSoftware,KiCad,Pcbnew,9.0.2*%
%TF.CreationDate,2026-04-06T10:14:12-05:00*%
%TF.ProjectId,Power_Delivery,506f7765-725f-4446-956c-69766572792e,rev?*%
%TF.SameCoordinates,Original*%
%TF.FileFunction,Copper,L2,Bot*%
%TF.FilePolarity,Positive*%
%FSLAX46Y46*%
G04 Gerber Fmt 4.6, Leading zero omitted, Abs format (unit mm)*
G04 Created by KiCad (PCBNEW 9.0.2) date 2026-04-06 10:14:12*
%MOMM*%
%LPD*%
G01*
G04 APERTURE LIST*
G04 Aperture macros list*
%AMRoundRect*
0 Rectangle with rounded corners*
0 $1 Rounding radius*
0 $2 $3 $4 $5 $6 $7 $8 $9 X,Y pos of 4 corners*
0 Add a 4 corners polygon primitive as box body*
4,1,4,$2,$3,$4,$5,$6,$7,$8,$9,$2,$3,0*
0 Add four circle primitives for the rounded corners*
1,1,$1+$1,$2,$3*
1,1,$1+$1,$4,$5*
1,1,$1+$1,$6,$7*
1,1,$1+$1,$8,$9*
0 Add four rect primitives between the rounded corners*
20,1,$1+$1,$2,$3,$4,$5,0*
20,1,$1+$1,$4,$5,$6,$7,0*
20,1,$1+$1,$6,$7,$8,$9,0*
20,1,$1+$1,$8,$9,$2,$3,0*%
G04 Aperture macros list end*
%TA.AperFunction,ComponentPad*%
%ADD10C,5.000000*%
%TD*%
%TA.AperFunction,ComponentPad*%
%ADD11R,1.700000X1.700000*%
%TD*%
%TA.AperFunction,ComponentPad*%
%ADD12C,1.700000*%
%TD*%
%TA.AperFunction,ComponentPad*%
%ADD13R,2.000000X4.600000*%
%TD*%
%TA.AperFunction,ComponentPad*%
%ADD14O,2.000000X4.200000*%
%TD*%
%TA.AperFunction,ComponentPad*%
%ADD15O,4.200000X2.000000*%
%TD*%
%TA.AperFunction,HeatsinkPad*%
%ADD16O,2.100000X1.000000*%
%TD*%
%TA.AperFunction,HeatsinkPad*%
%ADD17O,1.800000X1.000000*%
%TD*%
%TA.AperFunction,ComponentPad*%
%ADD18RoundRect,0.250000X1.050000X-1.050000X1.050000X1.050000X-1.050000X1.050000X-1.050000X-1.050000X0*%
%TD*%
%TA.AperFunction,ComponentPad*%
%ADD19C,2.600000*%
%TD*%
%TA.AperFunction,ViaPad*%
%ADD20C,0.600000*%
%TD*%
%TA.AperFunction,Conductor*%
%ADD21C,0.300000*%
%TD*%
G04 APERTURE END LIST*
D10*
%TO.P,H1,1,1*%
%TO.N,GND*%
X195000000Y-55000000D03*
%TD*%
%TO.P,H4,1,1*%
%TO.N,GND*%
X105000000Y-55000000D03*
%TD*%
D11*
%TO.P,J3,1,Pin_1*%
%TO.N,+3.3V*%
X165770000Y-52490000D03*
D12*
%TO.P,J3,2,Pin_2*%
%TO.N,GPIO_1*%
X163230000Y-52490000D03*
%TO.P,J3,3,Pin_3*%
%TO.N,~{HPI_INT}*%
X160690000Y-52490000D03*
%TO.P,J3,4,Pin_4*%
%TO.N,HPI_SCL*%
X158150000Y-52490000D03*
%TO.P,J3,5,Pin_5*%
%TO.N,HPI_SDA*%
X155610000Y-52490000D03*
%TD*%
D13*
%TO.P,J4,1*%
%TO.N,VDC_OUT*%
X189140000Y-91060000D03*
D14*
%TO.P,J4,2*%
%TO.N,GND*%
X195440000Y-91060000D03*
D15*
%TO.P,J4,3*%
X192040000Y-86260000D03*
%TD*%
D10*
%TO.P,H2,1,1*%
%TO.N,GND*%
X195000000Y-145000000D03*
%TD*%
D16*
%TO.P,J1,S1,SHIELD*%
%TO.N,GND*%
X106385000Y-90080000D03*
D17*
X102185000Y-90080000D03*
D16*
X106385000Y-98720000D03*
D17*
X102185000Y-98720000D03*
%TD*%
D18*
%TO.P,J2,1,Pin_1*%
%TO.N,SAFE_PWR*%
X194150000Y-121410000D03*
D19*
%TO.P,J2,2,Pin_2*%
%TO.N,+3.3V*%
X194150000Y-116330000D03*
%TO.P,J2,3,Pin_3*%
%TO.N,GND*%
X194150000Y-111250000D03*
%TD*%
D10*
%TO.P,H3,1,1*%
%TO.N,GND*%
X105000000Y-145000000D03*
%TD*%
D20*
%TO.N,GND*%
X101600000Y-121920000D03*
X101600000Y-116840000D03*
X182880000Y-76200000D03*
X152400000Y-132080000D03*
X121920000Y-121920000D03*
X198120000Y-142240000D03*
X157480000Y-100330000D03*
X101600000Y-66040000D03*
X193040000Y-81280000D03*
X132080000Y-116840000D03*
X162560000Y-106680000D03*
X142240000Y-116840000D03*
X187960000Y-106680000D03*
X167640000Y-116840000D03*
X132080000Y-62230000D03*
X193040000Y-66040000D03*
X187960000Y-76200000D03*
X111760000Y-142240000D03*
X127000000Y-111760000D03*
X111760000Y-132080000D03*
X109220000Y-88900000D03*
X177800000Y-101600000D03*
X127000000Y-127000000D03*
X182880000Y-66040000D03*
X157480000Y-132080000D03*
X127000000Y-137160000D03*
X147320000Y-121920000D03*
X162560000Y-132080000D03*
X167640000Y-96520000D03*
X137160000Y-137160000D03*
X109220000Y-99060000D03*
X150910000Y-101170000D03*
X105410000Y-87630000D03*
X140970000Y-62230000D03*
X142240000Y-127000000D03*
X121920000Y-137160000D03*
X147320000Y-111760000D03*
X182880000Y-121920000D03*
X111760000Y-137160000D03*
X182880000Y-132080000D03*
X157480000Y-81280000D03*
X157480000Y-102870000D03*
X167640000Y-106680000D03*
X152400000Y-111760000D03*
X106680000Y-137160000D03*
X157480000Y-121920000D03*
X121920000Y-142240000D03*
X101600000Y-127000000D03*
X137160000Y-132080000D03*
X182880000Y-55880000D03*
X193040000Y-127000000D03*
X167640000Y-132080000D03*
X187960000Y-55880000D03*
X139700000Y-62230000D03*
X157480000Y-127000000D03*
X121920000Y-111760000D03*
X106680000Y-60960000D03*
X147320000Y-137160000D03*
X198120000Y-127000000D03*
X198120000Y-81280000D03*
X198120000Y-66040000D03*
X135890000Y-62230000D03*
X130810000Y-63500000D03*
X133350000Y-62230000D03*
X152400000Y-127000000D03*
X116840000Y-142240000D03*
X101600000Y-101600000D03*
X182880000Y-60960000D03*
X137160000Y-62230000D03*
X138430000Y-62230000D03*
X116840000Y-111760000D03*
X132080000Y-137160000D03*
X101600000Y-71120000D03*
X132080000Y-111760000D03*
X108204000Y-90424000D03*
X193040000Y-106680000D03*
X198120000Y-71120000D03*
X177800000Y-81280000D03*
X142240000Y-137160000D03*
X121920000Y-116840000D03*
X187960000Y-71120000D03*
X111760000Y-111760000D03*
X162560000Y-137160000D03*
X157480000Y-101600000D03*
X142240000Y-132080000D03*
X111760000Y-127000000D03*
X198120000Y-106680000D03*
X128270000Y-64770000D03*
X110490000Y-100330000D03*
X111760000Y-100330000D03*
X182880000Y-71120000D03*
X172720000Y-111760000D03*
X101600000Y-111760000D03*
X127000000Y-121920000D03*
X177800000Y-121920000D03*
X128270000Y-63500000D03*
X110490000Y-97790000D03*
X152400000Y-137160000D03*
X106680000Y-116840000D03*
X177800000Y-116840000D03*
X111760000Y-116840000D03*
X157480000Y-104140000D03*
X198120000Y-60960000D03*
X172720000Y-137160000D03*
X167640000Y-121920000D03*
X182880000Y-127000000D03*
X187960000Y-132080000D03*
X156210000Y-102870000D03*
X167640000Y-101600000D03*
X137160000Y-111760000D03*
X172720000Y-127000000D03*
X101600000Y-142240000D03*
X109220000Y-89916000D03*
X101600000Y-76200000D03*
X172720000Y-101600000D03*
X172720000Y-116840000D03*
X129540000Y-63500000D03*
X116840000Y-132080000D03*
X106680000Y-66040000D03*
X106680000Y-127000000D03*
X101600000Y-86360000D03*
X157480000Y-137160000D03*
X162560000Y-81280000D03*
X147320000Y-116840000D03*
X109220000Y-100330000D03*
X193040000Y-71120000D03*
X167640000Y-111760000D03*
X147320000Y-127000000D03*
X182880000Y-81280000D03*
X132080000Y-142240000D03*
X177800000Y-111760000D03*
X198120000Y-137160000D03*
X157480000Y-99060000D03*
X123900000Y-58520000D03*
X137160000Y-116840000D03*
X182880000Y-96520000D03*
X147970000Y-64980000D03*
X106680000Y-71120000D03*
X132080000Y-132080000D03*
X177800000Y-96520000D03*
X172720000Y-132080000D03*
X128270000Y-66040000D03*
X187960000Y-66040000D03*
X137160000Y-121920000D03*
X162560000Y-127000000D03*
X101600000Y-137160000D03*
X162560000Y-116840000D03*
X101600000Y-106680000D03*
X105410000Y-88900000D03*
X101600000Y-81280000D03*
X116840000Y-137160000D03*
X127000000Y-142240000D03*
X182880000Y-137160000D03*
X157480000Y-116840000D03*
X187960000Y-60960000D03*
X182880000Y-101600000D03*
X134620000Y-62230000D03*
X142240000Y-121920000D03*
X123990000Y-63570000D03*
X193040000Y-137160000D03*
X121920000Y-127000000D03*
X162560000Y-111760000D03*
X198120000Y-76200000D03*
X187960000Y-127000000D03*
X107950000Y-88900000D03*
X109220000Y-97790000D03*
X132080000Y-121920000D03*
X106680000Y-111760000D03*
X116840000Y-127000000D03*
X127000000Y-147320000D03*
X121920000Y-132080000D03*
X157480000Y-111760000D03*
X111760000Y-147320000D03*
X130810000Y-62230000D03*
X149080000Y-94860000D03*
X137160000Y-127000000D03*
X106680000Y-121920000D03*
X172720000Y-81280000D03*
X116840000Y-147320000D03*
X187960000Y-81280000D03*
X193040000Y-132080000D03*
X101600000Y-60960000D03*
X147320000Y-132080000D03*
X116840000Y-121920000D03*
X110490000Y-99060000D03*
X187960000Y-137160000D03*
X167640000Y-137160000D03*
X110490000Y-87630000D03*
X193040000Y-76200000D03*
X193040000Y-60960000D03*
X101600000Y-132080000D03*
X129540000Y-64770000D03*
X127000000Y-132080000D03*
X142240000Y-111760000D03*
X109220000Y-87630000D03*
X182880000Y-106680000D03*
X152400000Y-116840000D03*
X106680000Y-87630000D03*
X177800000Y-132080000D03*
X172720000Y-106680000D03*
X145180000Y-102370000D03*
X167640000Y-81280000D03*
X172720000Y-121920000D03*
X172720000Y-96520000D03*
X132080000Y-147320000D03*
X162560000Y-121920000D03*
X106680000Y-132080000D03*
X177800000Y-137160000D03*
X111760000Y-121920000D03*
X121920000Y-147320000D03*
X177800000Y-127000000D03*
X127000000Y-66040000D03*
X106680000Y-88900000D03*
X129540000Y-62230000D03*
X116840000Y-116840000D03*
X127000000Y-116840000D03*
X107950000Y-87630000D03*
X132080000Y-127000000D03*
X177800000Y-106680000D03*
X152400000Y-121920000D03*
X106680000Y-76200000D03*
X167640000Y-127000000D03*
X198120000Y-132080000D03*
%TO.N,CC1*%
X145040000Y-94790000D03*
X128620000Y-95330000D03*
%TO.N,CC2*%
X145040000Y-93880000D03*
X132270000Y-96250000D03*
%TO.N,HPI_SCL*%
X147740000Y-80470000D03*
X146170000Y-90180000D03*
%TO.N,HPI_SDA*%
X147030000Y-92250000D03*
X143420000Y-74260000D03*
%TO.N,~{HPI_INT}*%
X151220000Y-91380000D03*
%TO.N,GPIO_1*%
X154160000Y-87400000D03*
%TO.N,FAULT*%
X146210000Y-66520000D03*
X150550000Y-89740000D03*
%TO.N,VBUS_MAX*%
X154900000Y-97310000D03*
X152550000Y-96560000D03*
%TO.N,VBUS_MIN*%
X154430000Y-98130000D03*
X152470000Y-97400000D03*
%TO.N,VBUS_FET_EN*%
X152660000Y-95684620D03*
X144380000Y-95680000D03*
%TO.N,SAFE_PWR_EN*%
X150590000Y-107090000D03*
X152930000Y-104630000D03*
%TO.N,FLIP*%
X154980000Y-84640000D03*
X149740000Y-89210000D03*
%TD*%
D21*
%TO.N,CC1*%
X142230000Y-94790000D02*
X140030000Y-96990000D01*
X130280000Y-96990000D02*
X128620000Y-95330000D01*
X145040000Y-94790000D02*
X142230000Y-94790000D01*
X140030000Y-96990000D02*
X130280000Y-96990000D01*
%TO.N,CC2*%
X139530000Y-96250000D02*
X132270000Y-96250000D01*
X142100000Y-93680000D02*
X139530000Y-96250000D01*
X144840000Y-93680000D02*
X142100000Y-93680000D01*
X145040000Y-93880000D02*
X144840000Y-93680000D01*
%TO.N,HPI_SCL*%
X148830000Y-89630000D02*
X148830000Y-88820000D01*
X146170000Y-90180000D02*
X148280000Y-90180000D01*
X148280000Y-90180000D02*
X148830000Y-89630000D01*
X148830000Y-88820000D02*
X148830000Y-81560000D01*
X148830000Y-81560000D02*
X147740000Y-80470000D01*
%TO.N,HPI_SDA*%
X147030000Y-92250000D02*
X143420000Y-88640000D01*
X143420000Y-88640000D02*
X143420000Y-74260000D01*
%TO.N,~{HPI_INT}*%
X175730000Y-54020000D02*
X172999000Y-51289000D01*
X175730000Y-82640000D02*
X175730000Y-54020000D01*
X172999000Y-51289000D02*
X161891000Y-51289000D01*
X161891000Y-51289000D02*
X160690000Y-52490000D01*
X151220000Y-91380000D02*
X166990000Y-91380000D01*
X166990000Y-91380000D02*
X175730000Y-82640000D01*
%TO.N,GPIO_1*%
X154160000Y-87400000D02*
X163230000Y-78330000D01*
X163230000Y-78330000D02*
X163230000Y-52490000D01*
%TO.N,FAULT*%
X160320000Y-72110000D02*
X154730000Y-66520000D01*
X160320000Y-80220000D02*
X160320000Y-72110000D01*
X154730000Y-66520000D02*
X146210000Y-66520000D01*
X150800000Y-89740000D02*
X160320000Y-80220000D01*
X150550000Y-89740000D02*
X150800000Y-89740000D01*
%TO.N,VBUS_MAX*%
X152550000Y-96560000D02*
X154150000Y-96560000D01*
X154150000Y-96560000D02*
X154900000Y-97310000D01*
%TO.N,VBUS_MIN*%
X152470000Y-97400000D02*
X153700000Y-97400000D01*
X153700000Y-97400000D02*
X154430000Y-98130000D01*
%TO.N,VBUS_FET_EN*%
X151934620Y-95684620D02*
X151930000Y-95680000D01*
X151930000Y-95680000D02*
X144380000Y-95680000D01*
X152660000Y-95684620D02*
X151934620Y-95684620D01*
%TO.N,SAFE_PWR_EN*%
X150590000Y-107080000D02*
X152930000Y-104740000D01*
X152930000Y-104740000D02*
X152930000Y-104630000D01*
X150590000Y-107090000D02*
X150590000Y-107080000D01*
%TO.N,FLIP*%
X149740000Y-89210000D02*
X154310000Y-84640000D01*
X154310000Y-84640000D02*
X154980000Y-84640000D01*
%TD*%
%TA.AperFunction,Conductor*%
%TO.N,GND*%
G36*
X195002702Y-50500617D02*
G01*
X195386771Y-50517386D01*
X195397506Y-50518326D01*
X195775971Y-50568152D01*
X195786597Y-50570025D01*
X196159284Y-50652648D01*
X196169710Y-50655442D01*
X196533765Y-50770227D01*
X196543911Y-50773920D01*
X196896578Y-50920000D01*
X196906369Y-50924566D01*
X197244942Y-51100816D01*
X197254310Y-51106224D01*
X197576244Y-51311318D01*
X197585105Y-51317523D01*
X197887930Y-51549889D01*
X197896217Y-51556843D01*
X198177635Y-51814715D01*
X198185284Y-51822364D01*
X198443156Y-52103782D01*
X198450110Y-52112069D01*
X198682476Y-52414894D01*
X198688681Y-52423755D01*
X198893775Y-52745689D01*
X198899183Y-52755057D01*
X199075430Y-53093623D01*
X199080002Y-53103427D01*
X199226075Y-53456078D01*
X199229775Y-53466244D01*
X199344554Y-53830278D01*
X199347354Y-53840727D01*
X199429971Y-54213389D01*
X199431849Y-54224042D01*
X199481671Y-54602473D01*
X199482614Y-54613249D01*
X199499382Y-54997297D01*
X199499500Y-55002706D01*
X199499500Y-144997293D01*
X199499382Y-145002702D01*
X199482614Y-145386750D01*
X199481671Y-145397526D01*
X199431849Y-145775957D01*
X199429971Y-145786610D01*
X199347354Y-146159272D01*
X199344554Y-146169721D01*
X199229775Y-146533755D01*
X199226075Y-146543921D01*
X199080002Y-146896572D01*
X199075430Y-146906376D01*
X198899183Y-147244942D01*
X198893775Y-147254310D01*
X198688681Y-147576244D01*
X198682476Y-147585105D01*
X198450110Y-147887930D01*
X198443156Y-147896217D01*
X198185284Y-148177635D01*
X198177635Y-148185284D01*
X197896217Y-148443156D01*
X197887930Y-148450110D01*
X197585105Y-148682476D01*
X197576244Y-148688681D01*
X197254310Y-148893775D01*
X197244942Y-148899183D01*
X196906376Y-149075430D01*
X196896572Y-149080002D01*
X196543921Y-149226075D01*
X196533755Y-149229775D01*
X196169721Y-149344554D01*
X196159272Y-149347354D01*
X195786610Y-149429971D01*
X195775957Y-149431849D01*
X195397526Y-149481671D01*
X195386750Y-149482614D01*
X195002703Y-149499382D01*
X194997294Y-149499500D01*
X105002706Y-149499500D01*
X104997297Y-149499382D01*
X104613249Y-149482614D01*
X104602473Y-149481671D01*
X104224042Y-149431849D01*
X104213389Y-149429971D01*
X103840727Y-149347354D01*
X103830278Y-149344554D01*
X103466244Y-149229775D01*
X103456078Y-149226075D01*
X103103427Y-149080002D01*
X103093623Y-149075430D01*
X102755057Y-148899183D01*
X102745689Y-148893775D01*
X102423755Y-148688681D01*
X102414894Y-148682476D01*
X102112069Y-148450110D01*
X102103782Y-148443156D01*
X101822364Y-148185284D01*
X101814715Y-148177635D01*
X101556843Y-147896217D01*
X101549889Y-147887930D01*
X101317523Y-147585105D01*
X101311318Y-147576244D01*
X101106224Y-147254310D01*
X101100816Y-147244942D01*
X100924569Y-146906376D01*
X100919997Y-146896572D01*
X100773924Y-146543921D01*
X100770224Y-146533755D01*
X100655442Y-146169710D01*
X100652648Y-146159284D01*
X100570025Y-145786597D01*
X100568152Y-145775971D01*
X100518326Y-145397506D01*
X100517386Y-145386771D01*
X100500618Y-145002702D01*
X100500500Y-144997293D01*
X100500500Y-120305730D01*
X192649500Y-120305730D01*
X192649500Y-122514269D01*
X192652353Y-122544699D01*
X192652353Y-122544701D01*
X192697206Y-122672880D01*
X192697207Y-122672882D01*
X192777850Y-122782150D01*
X192887118Y-122862793D01*
X192929845Y-122877744D01*
X193015299Y-122907646D01*
X193045730Y-122910500D01*
X193045734Y-122910500D01*
X195254270Y-122910500D01*
X195284699Y-122907646D01*
X195284701Y-122907646D01*
X195348790Y-122885219D01*
X195412882Y-122862793D01*
X195522150Y-122782150D01*
X195602793Y-122672882D01*
X195625219Y-122608790D01*
X195647646Y-122544701D01*
X195647646Y-122544699D01*
X195650500Y-122514269D01*
X195650500Y-120305730D01*
X195647646Y-120275300D01*
X195647646Y-120275298D01*
X195602793Y-120147119D01*
X195602792Y-120147117D01*
X195522150Y-120037850D01*
X195412882Y-119957207D01*
X195412880Y-119957206D01*
X195284700Y-119912353D01*
X195254270Y-119909500D01*
X195254266Y-119909500D01*
X193045734Y-119909500D01*
X193045730Y-119909500D01*
X193015300Y-119912353D01*
X193015298Y-119912353D01*
X192887119Y-119957206D01*
X192887117Y-119957207D01*
X192777850Y-120037850D01*
X192697207Y-120147117D01*
X192697206Y-120147119D01*
X192652353Y-120275298D01*
X192652353Y-120275300D01*
X192649500Y-120305730D01*
X100500500Y-120305730D01*
X100500500Y-116211902D01*
X192649500Y-116211902D01*
X192649500Y-116448097D01*
X192686446Y-116681368D01*
X192759433Y-116905996D01*
X192866657Y-117116433D01*
X193005483Y-117307510D01*
X193172490Y-117474517D01*
X193363567Y-117613343D01*
X193462991Y-117664002D01*
X193574003Y-117720566D01*
X193574005Y-117720566D01*
X193574008Y-117720568D01*
X193694412Y-117759689D01*
X193798631Y-117793553D01*
X194031903Y-117830500D01*
X194031908Y-117830500D01*
X194268097Y-117830500D01*
X194501368Y-117793553D01*
X194725992Y-117720568D01*
X194936433Y-117613343D01*
X195127510Y-117474517D01*
X195294517Y-117307510D01*
X195433343Y-117116433D01*
X195540568Y-116905992D01*
X195613553Y-116681368D01*
X195650500Y-116448097D01*
X195650500Y-116211902D01*
X195613553Y-115978631D01*
X195540566Y-115754003D01*
X195433342Y-115543566D01*
X195294517Y-115352490D01*
X195127510Y-115185483D01*
X194936433Y-115046657D01*
X194725996Y-114939433D01*
X194501368Y-114866446D01*
X194268097Y-114829500D01*
X194268092Y-114829500D01*
X194031908Y-114829500D01*
X194031903Y-114829500D01*
X193798631Y-114866446D01*
X193574003Y-114939433D01*
X193363566Y-115046657D01*
X193254550Y-115125862D01*
X193172490Y-115185483D01*
X193172488Y-115185485D01*
X193172487Y-115185485D01*
X193005485Y-115352487D01*
X193005485Y-115352488D01*
X193005483Y-115352490D01*
X192945862Y-115434550D01*
X192866657Y-115543566D01*
X192759433Y-115754003D01*
X192686446Y-115978631D01*
X192649500Y-116211902D01*
X100500500Y-116211902D01*
X100500500Y-107024108D01*
X150089500Y-107024108D01*
X150089500Y-107155891D01*
X150123608Y-107283187D01*
X150156554Y-107340250D01*
X150189500Y-107397314D01*
X150282686Y-107490500D01*
X150396814Y-107556392D01*
X150524108Y-107590500D01*
X150524110Y-107590500D01*
X150655890Y-107590500D01*
X150655892Y-107590500D01*
X150783186Y-107556392D01*
X150897314Y-107490500D01*
X150990500Y-107397314D01*
X151056392Y-107283186D01*
X151090500Y-107155892D01*
X151090500Y-107126543D01*
X151110185Y-107059504D01*
X151126814Y-107038867D01*
X153026069Y-105139611D01*
X153081653Y-105107520D01*
X153123186Y-105096392D01*
X153237314Y-105030500D01*
X153330500Y-104937314D01*
X153396392Y-104823186D01*
X153430500Y-104695892D01*
X153430500Y-104564108D01*
X153396392Y-104436814D01*
X153330500Y-104322686D01*
X153237314Y-104229500D01*
X153180250Y-104196554D01*
X153123187Y-104163608D01*
X153059539Y-104146554D01*
X152995892Y-104129500D01*
X152864108Y-104129500D01*
X152736812Y-104163608D01*
X152622686Y-104229500D01*
X152622683Y-104229502D01*
X152529502Y-104322683D01*
X152529500Y-104322686D01*
X152463608Y-104436812D01*
X152429500Y-104564108D01*
X152429500Y-104693455D01*
X152409815Y-104760494D01*
X152393181Y-104781136D01*
X150621137Y-106553181D01*
X150559814Y-106586666D01*
X150533456Y-106589500D01*
X150524108Y-106589500D01*
X150396812Y-106623608D01*
X150282686Y-106689500D01*
X150282683Y-106689502D01*
X150189502Y-106782683D01*
X150189500Y-106782686D01*
X150123608Y-106896812D01*
X150089500Y-107024108D01*
X100500500Y-107024108D01*
X100500500Y-97214234D01*
X105289500Y-97214234D01*
X105289500Y-97365765D01*
X105328719Y-97512136D01*
X105366602Y-97577750D01*
X105404485Y-97643365D01*
X105511635Y-97750515D01*
X105642865Y-97826281D01*
X105789234Y-97865500D01*
X105789236Y-97865500D01*
X105940764Y-97865500D01*
X105940766Y-97865500D01*
X106087135Y-97826281D01*
X106218365Y-97750515D01*
X106325515Y-97643365D01*
X106401281Y-97512135D01*
X106440500Y-97365766D01*
X106440500Y-97214234D01*
X106401281Y-97067865D01*
X106325515Y-96936635D01*
X106218365Y-96829485D01*
X106149655Y-96789815D01*
X106087136Y-96753719D01*
X106013950Y-96734109D01*
X105940766Y-96714500D01*
X105789234Y-96714500D01*
X105642863Y-96753719D01*
X105511635Y-96829485D01*
X105511632Y-96829487D01*
X105404487Y-96936632D01*
X105404485Y-96936635D01*
X105328719Y-97067863D01*
X105289500Y-97214234D01*
X100500500Y-97214234D01*
X100500500Y-95264108D01*
X128119500Y-95264108D01*
X128119500Y-95395891D01*
X128153608Y-95523187D01*
X128186554Y-95580250D01*
X128219500Y-95637314D01*
X128312686Y-95730500D01*
X128426814Y-95796392D01*
X128554108Y-95830500D01*
X128573456Y-95830500D01*
X128640495Y-95850185D01*
X128661137Y-95866819D01*
X130064788Y-97270470D01*
X130144712Y-97316614D01*
X130233856Y-97340500D01*
X130233857Y-97340500D01*
X130233858Y-97340500D01*
X140076142Y-97340500D01*
X140076144Y-97340500D01*
X140165288Y-97316614D01*
X140245212Y-97270470D01*
X142338863Y-95176819D01*
X142400186Y-95143334D01*
X142426544Y-95140500D01*
X143912324Y-95140500D01*
X143979363Y-95160185D01*
X144025118Y-95212989D01*
X144035062Y-95282147D01*
X144006037Y-95345703D01*
X144000005Y-95352181D01*
X143979502Y-95372683D01*
X143979500Y-95372686D01*
X143913608Y-95486812D01*
X143912370Y-95491434D01*
X143879500Y-95614108D01*
X143879500Y-95745892D01*
X143880738Y-95750511D01*
X143913608Y-95873187D01*
X143917435Y-95879815D01*
X143979500Y-95987314D01*
X144072686Y-96080500D01*
X144186814Y-96146392D01*
X144314108Y-96180500D01*
X144314110Y-96180500D01*
X144445890Y-96180500D01*
X144445892Y-96180500D01*
X144573186Y-96146392D01*
X144687314Y-96080500D01*
X144700995Y-96066819D01*
X144762318Y-96033334D01*
X144788676Y-96030500D01*
X151854909Y-96030500D01*
X151857601Y-96030529D01*
X151872553Y-96030853D01*
X151888476Y-96035120D01*
X151888477Y-96035120D01*
X151980764Y-96035120D01*
X152069060Y-96035120D01*
X152070396Y-96035149D01*
X152102489Y-96045334D01*
X152134743Y-96054805D01*
X152135657Y-96055860D01*
X152136992Y-96056284D01*
X152158489Y-96082209D01*
X152180498Y-96107609D01*
X152180696Y-96108991D01*
X152181590Y-96110069D01*
X152185655Y-96143476D01*
X152190442Y-96176767D01*
X152189861Y-96178039D01*
X152190030Y-96179427D01*
X152175396Y-96209712D01*
X152161417Y-96240323D01*
X152159730Y-96242134D01*
X152159632Y-96242338D01*
X152159419Y-96242468D01*
X152155385Y-96246801D01*
X152149502Y-96252683D01*
X152149500Y-96252686D01*
X152083608Y-96366812D01*
X152049500Y-96494108D01*
X152049500Y-96625892D01*
X152053146Y-96639500D01*
X152083608Y-96753187D01*
X152095152Y-96773181D01*
X152149500Y-96867314D01*
X152149501Y-96867315D01*
X152153564Y-96874352D01*
X152151215Y-96875708D01*
X152171611Y-96928460D01*
X152157575Y-96996905D01*
X152135723Y-97026463D01*
X152069500Y-97092686D01*
X152003608Y-97206812D01*
X151969500Y-97334108D01*
X151969500Y-97465891D01*
X152003608Y-97593187D01*
X152017538Y-97617314D01*
X152069500Y-97707314D01*
X152162686Y-97800500D01*
X152276814Y-97866392D01*
X152404108Y-97900500D01*
X152404110Y-97900500D01*
X152535890Y-97900500D01*
X152535892Y-97900500D01*
X152663186Y-97866392D01*
X152777314Y-97800500D01*
X152790995Y-97786819D01*
X152852318Y-97753334D01*
X152878676Y-97750500D01*
X153503456Y-97750500D01*
X153570495Y-97770185D01*
X153591137Y-97786819D01*
X153893181Y-98088863D01*
X153926666Y-98150186D01*
X153929500Y-98176544D01*
X153929500Y-98195891D01*
X153963608Y-98323187D01*
X153996554Y-98380250D01*
X154029500Y-98437314D01*
X154122686Y-98530500D01*
X154236814Y-98596392D01*
X154364108Y-98630500D01*
X154364110Y-98630500D01*
X154495890Y-98630500D01*
X154495892Y-98630500D01*
X154623186Y-98596392D01*
X154737314Y-98530500D01*
X154830500Y-98437314D01*
X154896392Y-98323186D01*
X154930500Y-98195892D01*
X154930500Y-98064108D01*
X154901562Y-97956108D01*
X154903225Y-97886260D01*
X154942388Y-97828398D01*
X154989240Y-97804243D01*
X155093186Y-97776392D01*
X155207314Y-97710500D01*
X155300500Y-97617314D01*
X155366392Y-97503186D01*
X155400500Y-97375892D01*
X155400500Y-97244108D01*
X155366392Y-97116814D01*
X155300500Y-97002686D01*
X155207314Y-96909500D01*
X155134246Y-96867314D01*
X155093187Y-96843608D01*
X155029539Y-96826554D01*
X154965892Y-96809500D01*
X154965891Y-96809500D01*
X154946544Y-96809500D01*
X154879505Y-96789815D01*
X154858863Y-96773181D01*
X154365213Y-96279531D01*
X154365208Y-96279527D01*
X154285290Y-96233387D01*
X154285289Y-96233386D01*
X154285288Y-96233386D01*
X154196144Y-96209500D01*
X154196143Y-96209500D01*
X153142296Y-96209500D01*
X153075257Y-96189815D01*
X153029502Y-96137011D01*
X153019558Y-96067853D01*
X153048583Y-96004297D01*
X153054615Y-95997819D01*
X153060500Y-95991934D01*
X153126392Y-95877806D01*
X153160500Y-95750512D01*
X153160500Y-95618728D01*
X153126392Y-95491434D01*
X153123723Y-95486812D01*
X153117563Y-95476141D01*
X153060500Y-95377306D01*
X152967314Y-95284120D01*
X152910250Y-95251174D01*
X152853187Y-95218228D01*
X152789539Y-95201174D01*
X152725892Y-95184120D01*
X152594108Y-95184120D01*
X152466812Y-95218228D01*
X152352686Y-95284120D01*
X152352683Y-95284122D01*
X152339005Y-95297801D01*
X152312077Y-95312504D01*
X152286259Y-95329097D01*
X152280058Y-95329988D01*
X152277682Y-95331286D01*
X152251324Y-95334120D01*
X152009711Y-95334120D01*
X151977622Y-95329896D01*
X151976145Y-95329500D01*
X151976144Y-95329500D01*
X145507676Y-95329500D01*
X145440637Y-95309815D01*
X145394882Y-95257011D01*
X145384938Y-95187853D01*
X145413963Y-95124297D01*
X145419995Y-95117819D01*
X145440500Y-95097314D01*
X145506392Y-94983186D01*
X145540500Y-94855892D01*
X145540500Y-94724108D01*
X145506392Y-94596814D01*
X145440500Y-94482686D01*
X145380495Y-94422681D01*
X145347010Y-94361358D01*
X145351994Y-94291666D01*
X145380495Y-94247319D01*
X145388287Y-94239527D01*
X145440500Y-94187314D01*
X145506392Y-94073186D01*
X145540500Y-93945892D01*
X145540500Y-93814108D01*
X145506392Y-93686814D01*
X145440500Y-93572686D01*
X145347314Y-93479500D01*
X145275834Y-93438231D01*
X145233187Y-93413608D01*
X145106832Y-93379752D01*
X145105892Y-93379500D01*
X145105891Y-93379500D01*
X145053744Y-93379500D01*
X144991745Y-93362887D01*
X144975288Y-93353386D01*
X144886144Y-93329500D01*
X142053856Y-93329500D01*
X141964712Y-93353386D01*
X141964709Y-93353387D01*
X141884791Y-93399527D01*
X141884786Y-93399531D01*
X139421137Y-95863181D01*
X139359814Y-95896666D01*
X139333456Y-95899500D01*
X132678676Y-95899500D01*
X132611637Y-95879815D01*
X132590995Y-95863181D01*
X132577316Y-95849502D01*
X132577314Y-95849500D01*
X132520250Y-95816554D01*
X132463187Y-95783608D01*
X132399539Y-95766554D01*
X132335892Y-95749500D01*
X132204108Y-95749500D01*
X132076812Y-95783608D01*
X131962686Y-95849500D01*
X131962683Y-95849502D01*
X131869502Y-95942683D01*
X131869500Y-95942686D01*
X131803608Y-96056812D01*
X131769500Y-96184108D01*
X131769500Y-96315891D01*
X131803608Y-96443187D01*
X131809563Y-96453501D01*
X131826035Y-96521401D01*
X131803182Y-96587428D01*
X131748260Y-96630618D01*
X131702175Y-96639500D01*
X130476544Y-96639500D01*
X130409505Y-96619815D01*
X130388863Y-96603181D01*
X129156819Y-95371137D01*
X129123334Y-95309814D01*
X129120500Y-95283456D01*
X129120500Y-95264110D01*
X129120500Y-95264108D01*
X129086392Y-95136814D01*
X129020500Y-95022686D01*
X128927314Y-94929500D01*
X128870250Y-94896554D01*
X128813187Y-94863608D01*
X128749539Y-94846554D01*
X128685892Y-94829500D01*
X128554108Y-94829500D01*
X128426812Y-94863608D01*
X128312686Y-94929500D01*
X128312683Y-94929502D01*
X128219502Y-95022683D01*
X128219500Y-95022686D01*
X128153608Y-95136812D01*
X128119500Y-95264108D01*
X100500500Y-95264108D01*
X100500500Y-91434234D01*
X105289500Y-91434234D01*
X105289500Y-91585765D01*
X105328719Y-91732136D01*
X105348744Y-91766819D01*
X105404485Y-91863365D01*
X105511635Y-91970515D01*
X105642865Y-92046281D01*
X105789234Y-92085500D01*
X105789236Y-92085500D01*
X105940764Y-92085500D01*
X105940766Y-92085500D01*
X106087135Y-92046281D01*
X106218365Y-91970515D01*
X106325515Y-91863365D01*
X106401281Y-91732135D01*
X106440500Y-91585766D01*
X106440500Y-91434234D01*
X106401281Y-91287865D01*
X106325515Y-91156635D01*
X106218365Y-91049485D01*
X106149655Y-91009815D01*
X106087136Y-90973719D01*
X106013950Y-90954109D01*
X105940766Y-90934500D01*
X105789234Y-90934500D01*
X105642863Y-90973719D01*
X105511635Y-91049485D01*
X105511632Y-91049487D01*
X105404487Y-91156632D01*
X105404485Y-91156635D01*
X105328719Y-91287863D01*
X105289500Y-91434234D01*
X100500500Y-91434234D01*
X100500500Y-74194108D01*
X142919500Y-74194108D01*
X142919500Y-74325891D01*
X142953608Y-74453187D01*
X142986554Y-74510250D01*
X143019500Y-74567314D01*
X143019502Y-74567316D01*
X143033181Y-74580995D01*
X143066666Y-74642318D01*
X143069500Y-74668676D01*
X143069500Y-88686145D01*
X143092997Y-88773840D01*
X143093383Y-88775281D01*
X143093388Y-88775292D01*
X143139527Y-88855208D01*
X143139531Y-88855213D01*
X146493181Y-92208863D01*
X146526666Y-92270186D01*
X146529500Y-92296544D01*
X146529500Y-92315891D01*
X146563608Y-92443187D01*
X146596554Y-92500250D01*
X146629500Y-92557314D01*
X146722686Y-92650500D01*
X146836814Y-92716392D01*
X146964108Y-92750500D01*
X146964110Y-92750500D01*
X147095890Y-92750500D01*
X147095892Y-92750500D01*
X147223186Y-92716392D01*
X147337314Y-92650500D01*
X147430500Y-92557314D01*
X147496392Y-92443186D01*
X147530500Y-92315892D01*
X147530500Y-92184108D01*
X147496392Y-92056814D01*
X147430500Y-91942686D01*
X147337314Y-91849500D01*
X147280250Y-91816554D01*
X147223187Y-91783608D01*
X147159539Y-91766554D01*
X147095892Y-91749500D01*
X147095891Y-91749500D01*
X147076544Y-91749500D01*
X147009505Y-91729815D01*
X146988863Y-91713181D01*
X146166522Y-90890840D01*
X146133037Y-90829517D01*
X146138021Y-90759825D01*
X146179893Y-90703892D01*
X146228447Y-90684117D01*
X146228042Y-90682603D01*
X146235891Y-90680500D01*
X146235892Y-90680500D01*
X146363186Y-90646392D01*
X146477314Y-90580500D01*
X146490995Y-90566819D01*
X146552318Y-90533334D01*
X146578676Y-90530500D01*
X148326142Y-90530500D01*
X148326144Y-90530500D01*
X148415288Y-90506614D01*
X148425912Y-90500480D01*
X148495212Y-90460470D01*
X149110469Y-89845213D01*
X149156614Y-89765288D01*
X149180500Y-89676144D01*
X149180500Y-89657676D01*
X149200185Y-89590637D01*
X149252989Y-89544882D01*
X149322147Y-89534938D01*
X149385703Y-89563963D01*
X149392181Y-89569995D01*
X149432686Y-89610500D01*
X149514397Y-89657676D01*
X149546382Y-89676143D01*
X149546814Y-89676392D01*
X149674108Y-89710500D01*
X149674110Y-89710500D01*
X149805889Y-89710500D01*
X149805892Y-89710500D01*
X149893409Y-89687050D01*
X149963256Y-89688713D01*
X150021119Y-89727875D01*
X150048623Y-89792104D01*
X150049398Y-89805117D01*
X150049500Y-89805891D01*
X150049500Y-89805892D01*
X150066554Y-89869539D01*
X150083608Y-89933187D01*
X150114569Y-89986812D01*
X150149500Y-90047314D01*
X150242686Y-90140500D01*
X150356814Y-90206392D01*
X150484108Y-90240500D01*
X150484110Y-90240500D01*
X150615890Y-90240500D01*
X150615892Y-90240500D01*
X150743186Y-90206392D01*
X150857314Y-90140500D01*
X150914075Y-90083737D01*
X150933330Y-90068962D01*
X150933603Y-90068598D01*
X150935040Y-90067649D01*
X150939740Y-90064043D01*
X150945912Y-90060480D01*
X151015212Y-90020470D01*
X153488837Y-87546844D01*
X153550158Y-87513361D01*
X153619850Y-87518345D01*
X153675783Y-87560217D01*
X153691080Y-87587081D01*
X153693606Y-87593181D01*
X153693608Y-87593186D01*
X153759500Y-87707314D01*
X153852686Y-87800500D01*
X153966814Y-87866392D01*
X154094108Y-87900500D01*
X154094110Y-87900500D01*
X154225890Y-87900500D01*
X154225892Y-87900500D01*
X154353186Y-87866392D01*
X154467314Y-87800500D01*
X154560500Y-87707314D01*
X154626392Y-87593186D01*
X154660500Y-87465892D01*
X154660500Y-87446544D01*
X154680185Y-87379505D01*
X154696819Y-87358863D01*
X157916182Y-84139500D01*
X163510470Y-78545212D01*
X163556614Y-78465288D01*
X163580500Y-78376144D01*
X163580500Y-53564725D01*
X163600185Y-53497686D01*
X163652989Y-53451931D01*
X163657048Y-53450164D01*
X163727594Y-53420943D01*
X163727595Y-53420942D01*
X163727598Y-53420941D01*
X163899655Y-53305977D01*
X164045977Y-53159655D01*
X164160941Y-52987598D01*
X164240130Y-52796420D01*
X164280500Y-52593465D01*
X164280500Y-52386535D01*
X164240130Y-52183580D01*
X164160941Y-51992402D01*
X164160940Y-51992400D01*
X164160940Y-51992399D01*
X164054026Y-51832390D01*
X164033148Y-51765713D01*
X164051633Y-51698333D01*
X164103612Y-51651643D01*
X164157128Y-51639500D01*
X164595500Y-51639500D01*
X164662539Y-51659185D01*
X164708294Y-51711989D01*
X164719500Y-51763500D01*
X164719500Y-53359752D01*
X164731131Y-53418229D01*
X164731132Y-53418230D01*
X164775447Y-53484552D01*
X164841769Y-53528867D01*
X164841770Y-53528868D01*
X164900247Y-53540499D01*
X164900250Y-53540500D01*
X164900252Y-53540500D01*
X166639750Y-53540500D01*
X166639751Y-53540499D01*
X166654568Y-53537552D01*
X166698229Y-53528868D01*
X166698229Y-53528867D01*
X166698231Y-53528867D01*
X166764552Y-53484552D01*
X166808867Y-53418231D01*
X166808867Y-53418229D01*
X166808868Y-53418229D01*
X166820499Y-53359752D01*
X166820500Y-53359750D01*
X166820500Y-51763500D01*
X166840185Y-51696461D01*
X166892989Y-51650706D01*
X166944500Y-51639500D01*
X172802456Y-51639500D01*
X172869495Y-51659185D01*
X172890137Y-51675819D01*
X175343181Y-54128862D01*
X175376666Y-54190185D01*
X175379500Y-54216543D01*
X175379500Y-82443456D01*
X175359815Y-82510495D01*
X175343181Y-82531137D01*
X166881137Y-90993181D01*
X166819814Y-91026666D01*
X166793456Y-91029500D01*
X151628676Y-91029500D01*
X151561637Y-91009815D01*
X151540995Y-90993181D01*
X151527316Y-90979502D01*
X151527314Y-90979500D01*
X151449372Y-90934500D01*
X151413187Y-90913608D01*
X151328214Y-90890840D01*
X151285892Y-90879500D01*
X151154108Y-90879500D01*
X151026812Y-90913608D01*
X150912686Y-90979500D01*
X150912683Y-90979502D01*
X150819502Y-91072683D01*
X150819500Y-91072686D01*
X150753608Y-91186812D01*
X150719500Y-91314108D01*
X150719500Y-91445891D01*
X150753608Y-91573187D01*
X150760871Y-91585766D01*
X150819500Y-91687314D01*
X150912686Y-91780500D01*
X151026814Y-91846392D01*
X151154108Y-91880500D01*
X151154110Y-91880500D01*
X151285890Y-91880500D01*
X151285892Y-91880500D01*
X151413186Y-91846392D01*
X151527314Y-91780500D01*
X151540995Y-91766819D01*
X151602318Y-91733334D01*
X151628676Y-91730500D01*
X167036142Y-91730500D01*
X167036144Y-91730500D01*
X167125288Y-91706614D01*
X167135912Y-91700480D01*
X167205212Y-91660470D01*
X170125435Y-88740247D01*
X187939500Y-88740247D01*
X187939500Y-93379752D01*
X187951131Y-93438229D01*
X187951132Y-93438230D01*
X187995447Y-93504552D01*
X188061769Y-93548867D01*
X188061770Y-93548868D01*
X188120247Y-93560499D01*
X188120250Y-93560500D01*
X188120252Y-93560500D01*
X190159750Y-93560500D01*
X190159751Y-93560499D01*
X190174568Y-93557552D01*
X190218229Y-93548868D01*
X190218229Y-93548867D01*
X190218231Y-93548867D01*
X190284552Y-93504552D01*
X190328867Y-93438231D01*
X190328867Y-93438229D01*
X190328868Y-93438229D01*
X190340499Y-93379752D01*
X190340500Y-93379750D01*
X190340500Y-88740249D01*
X190340499Y-88740247D01*
X190328868Y-88681770D01*
X190328867Y-88681769D01*
X190284552Y-88615447D01*
X190218230Y-88571132D01*
X190218229Y-88571131D01*
X190159752Y-88559500D01*
X190159748Y-88559500D01*
X188120252Y-88559500D01*
X188120247Y-88559500D01*
X188061770Y-88571131D01*
X188061769Y-88571132D01*
X187995447Y-88615447D01*
X187951132Y-88681769D01*
X187951131Y-88681770D01*
X187939500Y-88740247D01*
X170125435Y-88740247D01*
X176010470Y-82855212D01*
X176056614Y-82775288D01*
X176080500Y-82686143D01*
X176080500Y-82593856D01*
X176080500Y-53973856D01*
X176056614Y-53884712D01*
X176056611Y-53884706D01*
X176010473Y-53804794D01*
X176010470Y-53804791D01*
X176010469Y-53804788D01*
X175945212Y-53739531D01*
X173214212Y-51008530D01*
X173214211Y-51008529D01*
X173214208Y-51008527D01*
X173134290Y-50962387D01*
X173134289Y-50962386D01*
X173134288Y-50962386D01*
X173045144Y-50938500D01*
X161844856Y-50938500D01*
X161755711Y-50962386D01*
X161675787Y-51008531D01*
X161675784Y-51008533D01*
X161202104Y-51482213D01*
X161140781Y-51515698D01*
X161071089Y-51510714D01*
X161066970Y-51509093D01*
X160996420Y-51479870D01*
X160996412Y-51479868D01*
X160793469Y-51439500D01*
X160793465Y-51439500D01*
X160586535Y-51439500D01*
X160586530Y-51439500D01*
X160383587Y-51479868D01*
X160383579Y-51479870D01*
X160192403Y-51559058D01*
X160020342Y-51674024D01*
X159874024Y-51820342D01*
X159759058Y-51992403D01*
X159679870Y-52183579D01*
X159679868Y-52183587D01*
X159639500Y-52386530D01*
X159639500Y-52593469D01*
X159679868Y-52796412D01*
X159679870Y-52796420D01*
X159759058Y-52987596D01*
X159874024Y-53159657D01*
X160020342Y-53305975D01*
X160020345Y-53305977D01*
X160192402Y-53420941D01*
X160383580Y-53500130D01*
X160528052Y-53528867D01*
X160586530Y-53540499D01*
X160586534Y-53540500D01*
X160586535Y-53540500D01*
X160793466Y-53540500D01*
X160793467Y-53540499D01*
X160996420Y-53500130D01*
X161187598Y-53420941D01*
X161359655Y-53305977D01*
X161505977Y-53159655D01*
X161620941Y-52987598D01*
X161700130Y-52796420D01*
X161740500Y-52593465D01*
X161740500Y-52386535D01*
X161700130Y-52183580D01*
X161670906Y-52113028D01*
X161663437Y-52043559D01*
X161694712Y-51981079D01*
X161697727Y-51977954D01*
X161999865Y-51675816D01*
X162026796Y-51661111D01*
X162052609Y-51644523D01*
X162058809Y-51643631D01*
X162061186Y-51642334D01*
X162087544Y-51639500D01*
X162302872Y-51639500D01*
X162369911Y-51659185D01*
X162415666Y-51711989D01*
X162425610Y-51781147D01*
X162405974Y-51832390D01*
X162299059Y-51992399D01*
X162299059Y-51992400D01*
X162219870Y-52183579D01*
X162219868Y-52183587D01*
X162179500Y-52386530D01*
X162179500Y-52593469D01*
X162219868Y-52796412D01*
X162219870Y-52796420D01*
X162299058Y-52987596D01*
X162414024Y-53159657D01*
X162560342Y-53305975D01*
X162732405Y-53420943D01*
X162802952Y-53450164D01*
X162857356Y-53494005D01*
X162879421Y-53560299D01*
X162879500Y-53564725D01*
X162879500Y-78133456D01*
X162859815Y-78200495D01*
X162843181Y-78221137D01*
X160882181Y-80182137D01*
X160820858Y-80215622D01*
X160751166Y-80210638D01*
X160695233Y-80168766D01*
X160670816Y-80103302D01*
X160670500Y-80094456D01*
X160670500Y-72063858D01*
X160670500Y-72063856D01*
X160646614Y-71974712D01*
X160600470Y-71894788D01*
X154945212Y-66239530D01*
X154945211Y-66239529D01*
X154945208Y-66239527D01*
X154865290Y-66193387D01*
X154865289Y-66193386D01*
X154865288Y-66193386D01*
X154776144Y-66169500D01*
X154776143Y-66169500D01*
X146618676Y-66169500D01*
X146551637Y-66149815D01*
X146530995Y-66133181D01*
X146517316Y-66119502D01*
X146517314Y-66119500D01*
X146460250Y-66086554D01*
X146403187Y-66053608D01*
X146339539Y-66036554D01*
X146275892Y-66019500D01*
X146144108Y-66019500D01*
X146016812Y-66053608D01*
X145902686Y-66119500D01*
X145902683Y-66119502D01*
X145809502Y-66212683D01*
X145809500Y-66212686D01*
X145743608Y-66326812D01*
X145709500Y-66454108D01*
X145709500Y-66585891D01*
X145743608Y-66713187D01*
X145776554Y-66770250D01*
X145809500Y-66827314D01*
X145902686Y-66920500D01*
X146016814Y-66986392D01*
X146144108Y-67020500D01*
X146144110Y-67020500D01*
X146275890Y-67020500D01*
X146275892Y-67020500D01*
X146403186Y-66986392D01*
X146517314Y-66920500D01*
X146530995Y-66906819D01*
X146592318Y-66873334D01*
X146618676Y-66870500D01*
X154533456Y-66870500D01*
X154600495Y-66890185D01*
X154621137Y-66906819D01*
X159933181Y-72218863D01*
X159966666Y-72280186D01*
X159969500Y-72306544D01*
X159969500Y-80023455D01*
X159949815Y-80090494D01*
X159933181Y-80111136D01*
X155615970Y-84428346D01*
X155554647Y-84461831D01*
X155484955Y-84456847D01*
X155429022Y-84414975D01*
X155420902Y-84402665D01*
X155380500Y-84332686D01*
X155287314Y-84239500D01*
X155230250Y-84206554D01*
X155173187Y-84173608D01*
X155109539Y-84156554D01*
X155045892Y-84139500D01*
X154914108Y-84139500D01*
X154786812Y-84173608D01*
X154672686Y-84239500D01*
X154672683Y-84239502D01*
X154659005Y-84253181D01*
X154597682Y-84286666D01*
X154571324Y-84289500D01*
X154263856Y-84289500D01*
X154174712Y-84313386D01*
X154174709Y-84313387D01*
X154094791Y-84359527D01*
X154094786Y-84359531D01*
X149781137Y-88673181D01*
X149719814Y-88706666D01*
X149693456Y-88709500D01*
X149674108Y-88709500D01*
X149546812Y-88743608D01*
X149432686Y-88809500D01*
X149432683Y-88809502D01*
X149392181Y-88850005D01*
X149330858Y-88883490D01*
X149261166Y-88878506D01*
X149205233Y-88836634D01*
X149180816Y-88771170D01*
X149180500Y-88762324D01*
X149180500Y-81513858D01*
X149180500Y-81513856D01*
X149156614Y-81424712D01*
X149110470Y-81344788D01*
X148276819Y-80511137D01*
X148243334Y-80449814D01*
X148240500Y-80423456D01*
X148240500Y-80404110D01*
X148240500Y-80404108D01*
X148206392Y-80276814D01*
X148140500Y-80162686D01*
X148047314Y-80069500D01*
X147967562Y-80023455D01*
X147933187Y-80003608D01*
X147869539Y-79986554D01*
X147805892Y-79969500D01*
X147674108Y-79969500D01*
X147546812Y-80003608D01*
X147432686Y-80069500D01*
X147432683Y-80069502D01*
X147339502Y-80162683D01*
X147339500Y-80162686D01*
X147273608Y-80276812D01*
X147239500Y-80404108D01*
X147239500Y-80535891D01*
X147273608Y-80663187D01*
X147306554Y-80720250D01*
X147339500Y-80777314D01*
X147432686Y-80870500D01*
X147546814Y-80936392D01*
X147674108Y-80970500D01*
X147693456Y-80970500D01*
X147760495Y-80990185D01*
X147781137Y-81006819D01*
X148443181Y-81668863D01*
X148476666Y-81730186D01*
X148479500Y-81756544D01*
X148479500Y-89433456D01*
X148459815Y-89500495D01*
X148443181Y-89521137D01*
X148171137Y-89793181D01*
X148109814Y-89826666D01*
X148083456Y-89829500D01*
X146578676Y-89829500D01*
X146511637Y-89809815D01*
X146490995Y-89793181D01*
X146477316Y-89779502D01*
X146477314Y-89779500D01*
X146420250Y-89746554D01*
X146363187Y-89713608D01*
X146299539Y-89696554D01*
X146235892Y-89679500D01*
X146104108Y-89679500D01*
X145976812Y-89713608D01*
X145862686Y-89779500D01*
X145862683Y-89779502D01*
X145769502Y-89872683D01*
X145769500Y-89872686D01*
X145703608Y-89986812D01*
X145694590Y-90020470D01*
X145677637Y-90083742D01*
X145667397Y-90121958D01*
X145665585Y-90121472D01*
X145641497Y-90175896D01*
X145583165Y-90214356D01*
X145513300Y-90215174D01*
X145459159Y-90183477D01*
X143806819Y-88531137D01*
X143773334Y-88469814D01*
X143770500Y-88443456D01*
X143770500Y-74668676D01*
X143790185Y-74601637D01*
X143806819Y-74580995D01*
X143820500Y-74567314D01*
X143886392Y-74453186D01*
X143920500Y-74325892D01*
X143920500Y-74194108D01*
X143886392Y-74066814D01*
X143820500Y-73952686D01*
X143727314Y-73859500D01*
X143670250Y-73826554D01*
X143613187Y-73793608D01*
X143549539Y-73776554D01*
X143485892Y-73759500D01*
X143354108Y-73759500D01*
X143226812Y-73793608D01*
X143112686Y-73859500D01*
X143112683Y-73859502D01*
X143019502Y-73952683D01*
X143019500Y-73952686D01*
X142953608Y-74066812D01*
X142919500Y-74194108D01*
X100500500Y-74194108D01*
X100500500Y-55002706D01*
X100500618Y-54997297D01*
X100503377Y-54934108D01*
X100517386Y-54613226D01*
X100518326Y-54602495D01*
X100568152Y-54224025D01*
X100570025Y-54213405D01*
X100652649Y-53840709D01*
X100655440Y-53830295D01*
X100770230Y-53466227D01*
X100773917Y-53456095D01*
X100920003Y-53103412D01*
X100924561Y-53093638D01*
X101100822Y-52755045D01*
X101106217Y-52745700D01*
X101311325Y-52423744D01*
X101317507Y-52414915D01*
X101339288Y-52386530D01*
X154559500Y-52386530D01*
X154559500Y-52593469D01*
X154599868Y-52796412D01*
X154599870Y-52796420D01*
X154679058Y-52987596D01*
X154794024Y-53159657D01*
X154940342Y-53305975D01*
X154940345Y-53305977D01*
X155112402Y-53420941D01*
X155303580Y-53500130D01*
X155448052Y-53528867D01*
X155506530Y-53540499D01*
X155506534Y-53540500D01*
X155506535Y-53540500D01*
X155713466Y-53540500D01*
X155713467Y-53540499D01*
X155916420Y-53500130D01*
X156107598Y-53420941D01*
X156279655Y-53305977D01*
X156425977Y-53159655D01*
X156540941Y-52987598D01*
X156620130Y-52796420D01*
X156660500Y-52593465D01*
X156660500Y-52386535D01*
X156660499Y-52386530D01*
X157099500Y-52386530D01*
X157099500Y-52593469D01*
X157139868Y-52796412D01*
X157139870Y-52796420D01*
X157219058Y-52987596D01*
X157334024Y-53159657D01*
X157480342Y-53305975D01*
X157480345Y-53305977D01*
X157652402Y-53420941D01*
X157843580Y-53500130D01*
X157988052Y-53528867D01*
X158046530Y-53540499D01*
X158046534Y-53540500D01*
X158046535Y-53540500D01*
X158253466Y-53540500D01*
X158253467Y-53540499D01*
X158456420Y-53500130D01*
X158647598Y-53420941D01*
X158819655Y-53305977D01*
X158965977Y-53159655D01*
X159080941Y-52987598D01*
X159160130Y-52796420D01*
X159200500Y-52593465D01*
X159200500Y-52386535D01*
X159160130Y-52183580D01*
X159080941Y-51992402D01*
X158965977Y-51820345D01*
X158965975Y-51820342D01*
X158819657Y-51674024D01*
X158733626Y-51616541D01*
X158647598Y-51559059D01*
X158642248Y-51556843D01*
X158456420Y-51479870D01*
X158456412Y-51479868D01*
X158253469Y-51439500D01*
X158253465Y-51439500D01*
X158046535Y-51439500D01*
X158046530Y-51439500D01*
X157843587Y-51479868D01*
X157843579Y-51479870D01*
X157652403Y-51559058D01*
X157480342Y-51674024D01*
X157334024Y-51820342D01*
X157219058Y-51992403D01*
X157139870Y-52183579D01*
X157139868Y-52183587D01*
X157099500Y-52386530D01*
X156660499Y-52386530D01*
X156620130Y-52183580D01*
X156540941Y-51992402D01*
X156425977Y-51820345D01*
X156425975Y-51820342D01*
X156279657Y-51674024D01*
X156193626Y-51616541D01*
X156107598Y-51559059D01*
X156102248Y-51556843D01*
X155916420Y-51479870D01*
X155916412Y-51479868D01*
X155713469Y-51439500D01*
X155713465Y-51439500D01*
X155506535Y-51439500D01*
X155506530Y-51439500D01*
X155303587Y-51479868D01*
X155303579Y-51479870D01*
X155112403Y-51559058D01*
X154940342Y-51674024D01*
X154794024Y-51820342D01*
X154679058Y-51992403D01*
X154599870Y-52183579D01*
X154599868Y-52183587D01*
X154559500Y-52386530D01*
X101339288Y-52386530D01*
X101549896Y-52112060D01*
X101556834Y-52103791D01*
X101814726Y-51822352D01*
X101822352Y-51814726D01*
X102103791Y-51556834D01*
X102112060Y-51549896D01*
X102414905Y-51317515D01*
X102423744Y-51311325D01*
X102745700Y-51106217D01*
X102755045Y-51100822D01*
X103093638Y-50924561D01*
X103103412Y-50920003D01*
X103456095Y-50773917D01*
X103466227Y-50770230D01*
X103830295Y-50655440D01*
X103840709Y-50652649D01*
X104213405Y-50570025D01*
X104224025Y-50568152D01*
X104602495Y-50518326D01*
X104613226Y-50517386D01*
X104997297Y-50500617D01*
X105002706Y-50500500D01*
X105065892Y-50500500D01*
X194934108Y-50500500D01*
X194997294Y-50500500D01*
X195002702Y-50500617D01*
G37*
%TD.AperFunction*%
%TD*%
M02*
