%TF.GenerationSoftware,KiCad,Pcbnew,9.0.2*%
%TF.CreationDate,2026-04-07T09:21:18-05:00*%
%TF.ProjectId,Power_Delivery,506f7765-725f-4446-956c-69766572792e,rev?*%
%TF.SameCoordinates,Original*%
%TF.FileFunction,Soldermask,Top*%
%TF.FilePolarity,Negative*%
%FSLAX46Y46*%
G04 Gerber Fmt 4.6, Leading zero omitted, Abs format (unit mm)*
G04 Created by KiCad (PCBNEW 9.0.2) date 2026-04-07 09:21:18*
%MOMM*%
%LPD*%
G01*
G04 APERTURE LIST*
G04 Aperture macros list*
%AMRoundRect*
0 Rectangle with rounded corners*
0 $1 Rounding radius*
0 $2 $3 $4 $5 $6 $7 $8 $9 X,Y pos of 4 corners*
0 Add a 4 corners polygon primitive as box body*
4,1,4,$2,$3,$4,$5,$6,$7,$8,$9,$2,$3,0*
0 Add four circle primitives for the rounded corners*
1,1,$1+$1,$2,$3*
1,1,$1+$1,$4,$5*
1,1,$1+$1,$6,$7*
1,1,$1+$1,$8,$9*
0 Add four rect primitives between the rounded corners*
20,1,$1+$1,$2,$3,$4,$5,0*
20,1,$1+$1,$4,$5,$6,$7,0*
20,1,$1+$1,$6,$7,$8,$9,0*
20,1,$1+$1,$8,$9,$2,$3,0*%
%AMOutline5P*
0 Free polygon, 5 corners , with rotation*
0 The origin of the aperture is its center*
0 number of corners: always 5*
0 $1 to $10 corner X, Y*
0 $11 Rotation angle, in degrees counterclockwise*
0 create outline with 5 corners*
4,1,5,$1,$2,$3,$4,$5,$6,$7,$8,$9,$10,$1,$2,$11*%
%AMOutline6P*
0 Free polygon, 6 corners , with rotation*
0 The origin of the aperture is its center*
0 number of corners: always 6*
0 $1 to $12 corner X, Y*
0 $13 Rotation angle, in degrees counterclockwise*
0 create outline with 6 corners*
4,1,6,$1,$2,$3,$4,$5,$6,$7,$8,$9,$10,$11,$12,$1,$2,$13*%
%AMOutline7P*
0 Free polygon, 7 corners , with rotation*
0 The origin of the aperture is its center*
0 number of corners: always 7*
0 $1 to $14 corner X, Y*
0 $15 Rotation angle, in degrees counterclockwise*
0 create outline with 7 corners*
4,1,7,$1,$2,$3,$4,$5,$6,$7,$8,$9,$10,$11,$12,$13,$14,$1,$2,$15*%
%AMOutline8P*
0 Free polygon, 8 corners , with rotation*
0 The origin of the aperture is its center*
0 number of corners: always 8*
0 $1 to $16 corner X, Y*
0 $17 Rotation angle, in degrees counterclockwise*
0 create outline with 8 corners*
4,1,8,$1,$2,$3,$4,$5,$6,$7,$8,$9,$10,$11,$12,$13,$14,$15,$16,$1,$2,$17*%
G04 Aperture macros list end*
%ADD10RoundRect,0.250000X0.325000X0.650000X-0.325000X0.650000X-0.325000X-0.650000X0.325000X-0.650000X0*%
%ADD11RoundRect,0.200000X-0.200000X-0.275000X0.200000X-0.275000X0.200000X0.275000X-0.200000X0.275000X0*%
%ADD12RoundRect,0.200000X0.200000X0.275000X-0.200000X0.275000X-0.200000X-0.275000X0.200000X-0.275000X0*%
%ADD13RoundRect,0.200000X-0.275000X0.200000X-0.275000X-0.200000X0.275000X-0.200000X0.275000X0.200000X0*%
%ADD14RoundRect,0.225000X0.225000X0.250000X-0.225000X0.250000X-0.225000X-0.250000X0.225000X-0.250000X0*%
%ADD15RoundRect,0.225000X-0.250000X0.225000X-0.250000X-0.225000X0.250000X-0.225000X0.250000X0.225000X0*%
%ADD16RoundRect,0.150000X0.150000X-0.587500X0.150000X0.587500X-0.150000X0.587500X-0.150000X-0.587500X0*%
%ADD17C,5.000000*%
%ADD18RoundRect,0.218750X0.256250X-0.218750X0.256250X0.218750X-0.256250X0.218750X-0.256250X-0.218750X0*%
%ADD19R,1.700000X1.700000*%
%ADD20C,1.700000*%
%ADD21R,2.000000X4.600000*%
%ADD22O,2.000000X4.200000*%
%ADD23O,4.200000X2.000000*%
%ADD24RoundRect,0.150000X0.587500X0.150000X-0.587500X0.150000X-0.587500X-0.150000X0.587500X-0.150000X0*%
%ADD25RoundRect,0.062500X0.337500X0.062500X-0.337500X0.062500X-0.337500X-0.062500X0.337500X-0.062500X0*%
%ADD26RoundRect,0.062500X0.062500X0.337500X-0.062500X0.337500X-0.062500X-0.337500X0.062500X-0.337500X0*%
%ADD27R,2.750000X2.750000*%
%ADD28RoundRect,0.150000X0.309359X0.521491X-0.521491X-0.309359X-0.309359X-0.521491X0.521491X0.309359X0*%
%ADD29RoundRect,0.225000X0.250000X-0.225000X0.250000X0.225000X-0.250000X0.225000X-0.250000X-0.225000X0*%
%ADD30Outline6P,-2.900000X0.630000X-2.480000X1.050000X2.480000X1.050000X2.900000X0.630000X2.900000X-1.050000X-2.900000X-1.050000X270.000000*%
%ADD31Outline6P,-2.900000X0.630000X-2.480000X1.050000X2.480000X1.050000X2.900000X0.630000X2.900000X-1.050000X-2.900000X-1.050000X90.000000*%
%ADD32RoundRect,0.225000X0.335876X0.017678X0.017678X0.335876X-0.335876X-0.017678X-0.017678X-0.335876X0*%
%ADD33C,0.650000*%
%ADD34R,1.240000X0.600000*%
%ADD35R,1.240000X0.300000*%
%ADD36O,2.100000X1.000000*%
%ADD37O,1.800000X1.000000*%
%ADD38RoundRect,0.250000X1.050000X-1.050000X1.050000X1.050000X-1.050000X1.050000X-1.050000X-1.050000X0*%
%ADD39C,2.600000*%
%ADD40RoundRect,0.150000X0.512500X0.150000X-0.512500X0.150000X-0.512500X-0.150000X0.512500X-0.150000X0*%
%ADD41RoundRect,0.218750X-0.218750X-0.256250X0.218750X-0.256250X0.218750X0.256250X-0.218750X0.256250X0*%
%ADD42RoundRect,0.225000X-0.225000X-0.250000X0.225000X-0.250000X0.225000X0.250000X-0.225000X0.250000X0*%
%ADD43RoundRect,0.200000X0.275000X-0.200000X0.275000X0.200000X-0.275000X0.200000X-0.275000X-0.200000X0*%
G04 APERTURE END LIST*
D10*
%TO.C,C12*%
X123595000Y-64000000D03*
X120645000Y-64000000D03*
%TD*%
%TO.C,C11*%
X123565000Y-66890000D03*
X120615000Y-66890000D03*
%TD*%
D11*
%TO.C,R11*%
X140165000Y-96890000D03*
X141815000Y-96890000D03*
%TD*%
D12*
%TO.C,R19*%
X159825000Y-57900000D03*
X158175000Y-57900000D03*
%TD*%
D11*
%TO.C,R13*%
X144590000Y-107090000D03*
X146240000Y-107090000D03*
%TD*%
D13*
%TO.C,R12*%
X133910000Y-108195000D03*
X133910000Y-109845000D03*
%TD*%
D14*
%TO.C,C9*%
X129405000Y-68370000D03*
X127855000Y-68370000D03*
%TD*%
D13*
%TO.C,R15*%
X123740000Y-55067500D03*
X123740000Y-56717500D03*
%TD*%
D15*
%TO.C,C8*%
X185980000Y-86965000D03*
X185980000Y-88515000D03*
%TD*%
%TO.C,C6*%
X142280000Y-88145000D03*
X142280000Y-89695000D03*
%TD*%
D16*
%TO.C,Q3*%
X133857500Y-105857500D03*
X135757500Y-105857500D03*
X134807500Y-103982500D03*
%TD*%
D12*
%TO.C,R5*%
X162505000Y-97420000D03*
X160855000Y-97420000D03*
%TD*%
D13*
%TO.C,R8*%
X160000000Y-103805000D03*
X160000000Y-105455000D03*
%TD*%
D14*
%TO.C,C1*%
X149545000Y-103060000D03*
X147995000Y-103060000D03*
%TD*%
D17*
%TO.C,H1*%
X195000000Y-55000000D03*
%TD*%
D13*
%TO.C,R4*%
X156240000Y-99285000D03*
X156240000Y-100935000D03*
%TD*%
D18*
%TO.C,D3*%
X147400000Y-52980000D03*
X147400000Y-51405000D03*
%TD*%
D12*
%TO.C,R18*%
X155360000Y-56190000D03*
X153710000Y-56190000D03*
%TD*%
D17*
%TO.C,H4*%
X105000000Y-55000000D03*
%TD*%
D19*
%TO.C,J3*%
X165770000Y-52490000D03*
D20*
X163230000Y-52490000D03*
X160690000Y-52490000D03*
X158150000Y-52490000D03*
X155610000Y-52490000D03*
%TD*%
D21*
%TO.C,J4*%
X189140000Y-91060000D03*
D22*
X195440000Y-91060000D03*
D23*
X192040000Y-86260000D03*
%TD*%
D24*
%TO.C,Q1*%
X137517500Y-96950000D03*
X137517500Y-95050000D03*
X135642500Y-96000000D03*
%TD*%
D11*
%TO.C,R10*%
X134685000Y-98830000D03*
X136335000Y-98830000D03*
%TD*%
D16*
%TO.C,Q5*%
X146520000Y-62130000D03*
X148420000Y-62130000D03*
X147470000Y-60255000D03*
%TD*%
D25*
%TO.C,U1*%
X151055000Y-96110000D03*
X151055000Y-95610000D03*
X151055000Y-95110000D03*
X151055000Y-94610000D03*
X151055000Y-94110000D03*
X151055000Y-93610000D03*
D26*
X150330000Y-92885000D03*
X149830000Y-92885000D03*
X149330000Y-92885000D03*
X148830000Y-92885000D03*
X148330000Y-92885000D03*
X147830000Y-92885000D03*
D25*
X147105000Y-93610000D03*
X147105000Y-94110000D03*
X147105000Y-94610000D03*
X147105000Y-95110000D03*
X147105000Y-95610000D03*
X147105000Y-96110000D03*
D26*
X147830000Y-96835000D03*
X148330000Y-96835000D03*
X148830000Y-96835000D03*
X149330000Y-96835000D03*
X149830000Y-96835000D03*
X150330000Y-96835000D03*
D27*
X149080000Y-94860000D03*
%TD*%
D11*
%TO.C,R6*%
X160885000Y-95550000D03*
X162535000Y-95550000D03*
%TD*%
%TO.C,R9*%
X139145000Y-93520000D03*
X140795000Y-93520000D03*
%TD*%
D28*
%TO.C,Q2*%
X137907577Y-88275926D03*
X136564074Y-86932423D03*
X135910000Y-88930000D03*
%TD*%
D29*
%TO.C,C13*%
X186550000Y-122985000D03*
X186550000Y-121435000D03*
%TD*%
D30*
%TO.C,L1*%
X124700000Y-72230000D03*
D31*
X120800000Y-72230000D03*
%TD*%
D17*
%TO.C,H2*%
X195000000Y-145000000D03*
%TD*%
D18*
%TO.C,D2*%
X123690000Y-52977500D03*
X123690000Y-51402500D03*
%TD*%
D12*
%TO.C,R17*%
X144345000Y-62500000D03*
X142695000Y-62500000D03*
%TD*%
D32*
%TO.C,C5*%
X111678008Y-89958008D03*
X110581992Y-88861992D03*
%TD*%
D13*
%TO.C,R16*%
X147400000Y-55635000D03*
X147400000Y-57285000D03*
%TD*%
D33*
%TO.C,J1*%
X105865000Y-91510000D03*
X105865000Y-97290000D03*
D34*
X106985000Y-91200000D03*
X106985000Y-92000000D03*
D35*
X106985000Y-93150000D03*
X106985000Y-94150000D03*
X106985000Y-94650000D03*
X106985000Y-95650000D03*
D34*
X106985000Y-96800000D03*
X106985000Y-97600000D03*
X106985000Y-97600000D03*
X106985000Y-96800000D03*
D35*
X106985000Y-96150000D03*
X106985000Y-95150000D03*
X106985000Y-93650000D03*
X106985000Y-92650000D03*
D34*
X106985000Y-92000000D03*
X106985000Y-91200000D03*
D36*
X106385000Y-90080000D03*
D37*
X102185000Y-90080000D03*
D36*
X106385000Y-98720000D03*
D37*
X102185000Y-98720000D03*
%TD*%
D15*
%TO.C,C4*%
X151700000Y-98165000D03*
X151700000Y-99715000D03*
%TD*%
D38*
%TO.C,J2*%
X194150000Y-121410000D03*
D39*
X194150000Y-116330000D03*
X194150000Y-111250000D03*
%TD*%
D17*
%TO.C,H3*%
X105000000Y-145000000D03*
%TD*%
D40*
%TO.C,U2*%
X129637500Y-72000000D03*
X129637500Y-71050000D03*
X129637500Y-70100000D03*
X127362500Y-70100000D03*
X127362500Y-71050000D03*
X127362500Y-72000000D03*
%TD*%
D14*
%TO.C,C2*%
X149575000Y-99040000D03*
X148025000Y-99040000D03*
%TD*%
D41*
%TO.C,D1*%
X139210000Y-91760000D03*
X140785000Y-91760000D03*
%TD*%
D12*
%TO.C,R1*%
X157735000Y-95630000D03*
X156085000Y-95630000D03*
%TD*%
%TO.C,R7*%
X162895000Y-101680000D03*
X161245000Y-101680000D03*
%TD*%
D42*
%TO.C,C10*%
X125025000Y-76200000D03*
X126575000Y-76200000D03*
%TD*%
D43*
%TO.C,R3*%
X154340000Y-100935000D03*
X154340000Y-99285000D03*
%TD*%
D15*
%TO.C,C14*%
X186790000Y-114530000D03*
X186790000Y-116080000D03*
%TD*%
D11*
%TO.C,R2*%
X156085000Y-97360000D03*
X157735000Y-97360000D03*
%TD*%
D24*
%TO.C,Q4*%
X140587500Y-107070000D03*
X140587500Y-105170000D03*
X138712500Y-106120000D03*
%TD*%
D13*
%TO.C,R14*%
X170270000Y-52515000D03*
X170270000Y-54165000D03*
%TD*%
D42*
%TO.C,C7*%
X134650000Y-100720000D03*
X136200000Y-100720000D03*
%TD*%
D14*
%TO.C,C3*%
X149575000Y-101230000D03*
X148025000Y-101230000D03*
%TD*%
M02*
