M48
; DRILL file {KiCad 9.0.2} date 2026-04-07T09:21:09-0500
; FORMAT={-:-/ absolute / metric / decimal}
; #@! TF.CreationDate,2026-04-07T09:21:09-05:00
; #@! TF.GenerationSoftware,Kicad,Pcbnew,9.0.2
; #@! TF.FileFunction,MixedPlating,1,2
FMAT,2
METRIC
; #@! TA.AperFunction,Plated,PTH,ViaDrill
T1C0.300
; #@! TA.AperFunction,Plated,PTH,ComponentDrill
T2C0.600
; #@! TA.AperFunction,Plated,PTH,ComponentDrill
T3C1.000
; #@! TA.AperFunction,Plated,PTH,ComponentDrill
T4C1.300
; #@! TA.AperFunction,Plated,PTH,ComponentDrill
T5C2.500
; #@! TA.AperFunction,NonPlated,NPTH,ComponentDrill
T6C0.650
%
G90
G05
T1
X101.6Y-60.96
X101.6Y-66.04
X101.6Y-71.12
X101.6Y-76.2
X101.6Y-81.28
X101.6Y-86.36
X101.6Y-101.6
X101.6Y-106.68
X101.6Y-111.76
X101.6Y-116.84
X101.6Y-121.92
X101.6Y-127.0
X101.6Y-132.08
X101.6Y-137.16
X101.6Y-142.24
X105.41Y-87.63
X105.41Y-88.9
X106.68Y-60.96
X106.68Y-66.04
X106.68Y-71.12
X106.68Y-76.2
X106.68Y-87.63
X106.68Y-88.9
X106.68Y-111.76
X106.68Y-116.84
X106.68Y-121.92
X106.68Y-127.0
X106.68Y-132.08
X106.68Y-137.16
X107.95Y-87.63
X107.95Y-88.9
X108.204Y-90.424
X109.22Y-87.63
X109.22Y-88.9
X109.22Y-89.916
X109.22Y-97.79
X109.22Y-99.06
X109.22Y-100.33
X110.49Y-87.63
X110.49Y-97.79
X110.49Y-99.06
X110.49Y-100.33
X111.76Y-100.33
X111.76Y-111.76
X111.76Y-116.84
X111.76Y-121.92
X111.76Y-127.0
X111.76Y-132.08
X111.76Y-137.16
X111.76Y-142.24
X111.76Y-147.32
X116.84Y-111.76
X116.84Y-116.84
X116.84Y-121.92
X116.84Y-127.0
X116.84Y-132.08
X116.84Y-137.16
X116.84Y-142.24
X116.84Y-147.32
X121.92Y-111.76
X121.92Y-116.84
X121.92Y-121.92
X121.92Y-127.0
X121.92Y-132.08
X121.92Y-137.16
X121.92Y-142.24
X121.92Y-147.32
X123.9Y-58.52
X124.0Y-61.0
X127.0Y-66.04
X127.0Y-111.76
X127.0Y-116.84
X127.0Y-121.92
X127.0Y-127.0
X127.0Y-132.08
X127.0Y-137.16
X127.0Y-142.24
X127.0Y-147.32
X128.27Y-63.5
X128.27Y-64.77
X128.27Y-66.04
X128.62Y-95.33
X129.54Y-62.23
X129.54Y-63.5
X129.54Y-64.77
X130.81Y-62.23
X130.81Y-63.5
X132.08Y-62.23
X132.08Y-111.76
X132.08Y-116.84
X132.08Y-121.92
X132.08Y-127.0
X132.08Y-132.08
X132.08Y-137.16
X132.08Y-142.24
X132.08Y-147.32
X132.27Y-96.25
X133.35Y-62.23
X134.62Y-62.23
X135.89Y-62.23
X137.16Y-62.23
X137.16Y-111.76
X137.16Y-116.84
X137.16Y-121.92
X137.16Y-127.0
X137.16Y-132.08
X137.16Y-137.16
X138.43Y-62.23
X139.7Y-62.23
X140.97Y-62.23
X142.24Y-111.76
X142.24Y-116.84
X142.24Y-121.92
X142.24Y-127.0
X142.24Y-132.08
X142.24Y-137.16
X143.17Y-96.89
X143.42Y-74.26
X145.04Y-93.88
X145.04Y-94.79
X145.18Y-102.37
X146.17Y-90.18
X146.21Y-66.52
X147.03Y-92.25
X147.32Y-111.76
X147.32Y-116.84
X147.32Y-121.92
X147.32Y-127.0
X147.32Y-132.08
X147.32Y-137.16
X147.74Y-80.47
X147.97Y-64.98
X148.175Y-95.675
X148.2Y-94.075
X148.2Y-94.925
X149.0Y-94.0
X149.05Y-95.675
X149.08Y-94.86
X149.74Y-89.21
X149.975Y-95.7
X150.0Y-94.0
X150.0Y-95.0
X150.55Y-89.74
X150.59Y-107.09
X150.91Y-101.17
X151.22Y-91.38
X152.4Y-111.76
X152.4Y-116.84
X152.4Y-121.92
X152.4Y-127.0
X152.4Y-132.08
X152.4Y-137.16
X152.47Y-97.4
X152.55Y-96.56
X152.66Y-95.685
X152.93Y-104.63
X154.16Y-87.4
X154.43Y-98.13
X154.9Y-97.31
X154.98Y-84.64
X156.21Y-102.87
X157.48Y-81.28
X157.48Y-99.06
X157.48Y-100.33
X157.48Y-101.6
X157.48Y-102.87
X157.48Y-104.14
X157.48Y-111.76
X157.48Y-116.84
X157.48Y-121.92
X157.48Y-127.0
X157.48Y-132.08
X157.48Y-137.16
X162.56Y-81.28
X162.56Y-106.68
X162.56Y-111.76
X162.56Y-116.84
X162.56Y-121.92
X162.56Y-127.0
X162.56Y-132.08
X162.56Y-137.16
X167.64Y-81.28
X167.64Y-96.52
X167.64Y-101.6
X167.64Y-106.68
X167.64Y-111.76
X167.64Y-116.84
X167.64Y-121.92
X167.64Y-127.0
X167.64Y-132.08
X167.64Y-137.16
X172.72Y-81.28
X172.72Y-96.52
X172.72Y-101.6
X172.72Y-106.68
X172.72Y-111.76
X172.72Y-116.84
X172.72Y-121.92
X172.72Y-127.0
X172.72Y-132.08
X172.72Y-137.16
X177.8Y-81.28
X177.8Y-96.52
X177.8Y-101.6
X177.8Y-106.68
X177.8Y-111.76
X177.8Y-116.84
X177.8Y-121.92
X177.8Y-127.0
X177.8Y-132.08
X177.8Y-137.16
X182.88Y-55.88
X182.88Y-60.96
X182.88Y-66.04
X182.88Y-71.12
X182.88Y-76.2
X182.88Y-81.28
X182.88Y-96.52
X182.88Y-101.6
X182.88Y-106.68
X182.88Y-121.92
X182.88Y-127.0
X182.88Y-132.08
X182.88Y-137.16
X187.96Y-55.88
X187.96Y-60.96
X187.96Y-66.04
X187.96Y-71.12
X187.96Y-76.2
X187.96Y-81.28
X187.96Y-106.68
X187.96Y-127.0
X187.96Y-132.08
X187.96Y-137.16
X193.04Y-60.96
X193.04Y-66.04
X193.04Y-71.12
X193.04Y-76.2
X193.04Y-81.28
X193.04Y-106.68
X193.04Y-127.0
X193.04Y-132.08
X193.04Y-137.16
X198.12Y-60.96
X198.12Y-66.04
X198.12Y-71.12
X198.12Y-76.2
X198.12Y-81.28
X198.12Y-106.68
X198.12Y-127.0
X198.12Y-132.08
X198.12Y-137.16
X198.12Y-142.24
T3
X155.61Y-52.49
X158.15Y-52.49
X160.69Y-52.49
X163.23Y-52.49
X165.77Y-52.49
T4
X194.15Y-111.25
X194.15Y-116.33
X194.15Y-121.41
T5
X105.0Y-55.0
X105.0Y-145.0
X195.0Y-55.0
X195.0Y-145.0
T6
X105.865Y-91.51
X105.865Y-97.29
T2
G00X102.585Y-90.08
M15
G01X101.785Y-90.08
M16
G05
G00X102.585Y-98.72
M15
G01X101.785Y-98.72
M16
G05
G00X106.935Y-90.08
M15
G01X105.835Y-90.08
M16
G05
G00X106.935Y-98.72
M15
G01X105.835Y-98.72
M16
G05
T3
G00X189.14Y-92.36
M15
G01X189.14Y-89.76
M16
G05
G00X190.94Y-86.26
M15
G01X193.14Y-86.26
M16
G05
G00X195.44Y-92.16
M15
G01X195.44Y-89.96
M16
G05
M30
