M48
; DRILL file {KiCad 9.0.2} date 2026-04-07T09:26:24-0500
; FORMAT={-:-/ absolute / metric / decimal}
; #@! TF.CreationDate,2026-04-07T09:26:24-05:00
; #@! TF.GenerationSoftware,Kicad,Pcbnew,9.0.2
; #@! TF.FileFunction,MixedPlating,1,4
FMAT,2
METRIC
; #@! TA.AperFunction,Plated,PTH,ComponentDrill
T1C0.203
; #@! TA.AperFunction,Plated,PTH,ViaDrill
T2C0.300
; #@! TA.AperFunction,Plated,PTH,ComponentDrill
T3C0.600
; #@! TA.AperFunction,Plated,PTH,ComponentDrill
T4C0.800
; #@! TA.AperFunction,Plated,PTH,ComponentDrill
T5C0.900
; #@! TA.AperFunction,Plated,PTH,ComponentDrill
T6C1.000
; #@! TA.AperFunction,Plated,PTH,ComponentDrill
T7C1.300
; #@! TA.AperFunction,Plated,PTH,ComponentDrill
T8C1.500
; #@! TA.AperFunction,Plated,PTH,ComponentDrill
T9C2.000
; #@! TA.AperFunction,Plated,PTH,ComponentDrill
T10C3.200
; #@! TA.AperFunction,NonPlated,NPTH,ComponentDrill
T11C0.650
%
G90
G05
T1
X170.416Y-80.834
X170.416Y-83.034
X170.441Y-81.934
T2
X110.2Y-80.9
X114.5Y-90.0
X117.4Y-88.8
X122.7Y-86.3
X122.9Y-62.7
X123.0Y-66.6
X123.024Y-70.171
X124.6Y-67.8
X124.6Y-69.0
X124.6Y-70.7
X124.6Y-72.5
X126.344Y-64.275
X126.501Y-60.82
X127.1Y-97.2
X127.2Y-102.5
X127.9Y-62.9
X127.9Y-64.2
X127.9Y-65.3
X128.0Y-61.1
X131.6Y-64.1
X133.1Y-64.1
X133.8Y-72.6
X134.5Y-118.2
X135.3Y-107.4
X136.0Y-112.5
X137.9Y-128.5
X138.7Y-86.3
X139.0Y-109.6
X139.6Y-103.6
X140.0Y-101.2
X140.5Y-93.7
X140.9Y-113.2
X141.3Y-116.2
X142.4Y-107.235
X142.5Y-95.9
X143.1Y-110.6
X143.6Y-96.9
X145.076Y-105.3
X147.1Y-105.59
X147.3Y-99.4
X147.3Y-101.0
X147.4Y-87.5
X147.6Y-102.4
X147.8Y-97.2
X148.1Y-87.9
X148.4Y-102.7
X148.7Y-99.3
X148.81Y-90.29
X149.2Y-87.8
X149.992Y-88.287
X150.7Y-89.0
X150.9Y-63.2
X151.0Y-102.1
X151.3Y-66.5
X151.6Y-89.1
X151.7Y-99.3
X151.8Y-101.7
X152.3Y-98.0
X152.8Y-89.3
X153.7Y-63.3
X153.8Y-81.0
X154.8Y-94.6
X154.9Y-67.2
X154.9Y-105.2
X157.4Y-92.2
X160.4Y-124.8
X161.1Y-109.3
X162.6Y-85.1
X163.3Y-127.3
X165.2Y-132.6
X165.9Y-125.0
X166.0Y-80.4
X166.9Y-85.3
X167.4Y-80.2
X167.9Y-64.7
X168.0Y-127.875
X168.1Y-99.825
X168.6Y-100.6
X168.7Y-95.2
X168.9Y-101.5
X168.9Y-124.3
X169.5Y-127.6
X170.3Y-74.8
X171.0Y-95.2
X171.9Y-124.0
X176.6Y-99.3
X176.8Y-122.8
X177.2Y-82.8
X179.8Y-120.7
X180.2Y-125.6
X181.5Y-127.5
X182.1Y-82.1
X182.4Y-120.1
X183.4Y-82.5
X185.4Y-82.6
X187.9Y-65.3
X188.9Y-123.6
X189.7Y-98.2
X189.7Y-102.1
X189.9Y-103.5
X191.0Y-92.5
X191.2Y-105.9
X192.3Y-74.3
X197.2Y-130.0
X197.9Y-128.2
T4
X116.485Y-54.348
X118.485Y-54.348
X120.485Y-54.348
X129.512Y-54.43
X131.512Y-54.43
X133.512Y-54.43
X133.716Y-93.922
X133.716Y-98.802
T5
X181.56Y-140.3
X184.1Y-140.3
T6
X114.648Y-147.032
X117.188Y-147.032
X119.728Y-147.032
X122.268Y-147.032
X129.889Y-146.936
X132.429Y-146.936
X134.969Y-146.936
X137.509Y-146.936
X140.049Y-146.936
X142.63Y-54.232
X145.17Y-54.232
X146.199Y-146.736
X147.71Y-54.232
X148.739Y-146.736
X150.25Y-54.232
X151.279Y-146.736
X152.79Y-54.232
X153.819Y-146.736
X155.33Y-54.232
X157.87Y-54.232
X194.527Y-66.494
X194.527Y-69.034
X194.527Y-71.574
X194.527Y-74.114
X194.527Y-76.654
X195.977Y-110.561
X195.977Y-113.101
X195.977Y-115.641
X195.977Y-118.181
X197.067Y-66.494
X197.067Y-69.034
X197.067Y-71.574
X197.067Y-74.114
X197.067Y-76.654
X197.212Y-83.159
X197.212Y-85.699
X197.212Y-88.239
T7
X105.154Y-65.52
X105.154Y-70.52
X165.899Y-56.889
X170.979Y-56.889
X176.059Y-56.889
X181.139Y-56.889
X186.219Y-56.889
T8
X114.385Y-54.348
X122.585Y-54.348
X127.412Y-54.43
X135.612Y-54.43
T9
X176.48Y-145.38
X186.64Y-135.22
T10
X105.0Y-55.0
X105.033Y-144.768
X194.837Y-144.768
X195.103Y-54.697
T11
X192.334Y-96.807
X192.334Y-102.587
T3
G00X191.264Y-95.377
M15
G01X192.364Y-95.377
M16
G05
G00X191.264Y-104.017
M15
G01X192.364Y-104.017
M16
G05
G00X195.614Y-95.377
M15
G01X196.414Y-95.377
M16
G05
G00X195.614Y-104.017
M15
G01X196.414Y-104.017
M16
G05
M30
