%TF.GenerationSoftware,KiCad,Pcbnew,9.0.2*%
%TF.CreationDate,2026-04-06T10:16:50-05:00*%
%TF.ProjectId,fmcw_radar_sch,666d6377-5f72-4616-9461-725f7363682e,rev?*%
%TF.SameCoordinates,Original*%
%TF.FileFunction,Soldermask,Bot*%
%TF.FilePolarity,Negative*%
%FSLAX46Y46*%
G04 Gerber Fmt 4.6, Leading zero omitted, Abs format (unit mm)*
G04 Created by KiCad (PCBNEW 9.0.2) date 2026-04-06 10:16:50*
%MOMM*%
%LPD*%
G01*
G04 APERTURE LIST*
G04 Aperture macros list*
%AMRoundRect*
0 Rectangle with rounded corners*
0 $1 Rounding radius*
0 $2 $3 $4 $5 $6 $7 $8 $9 X,Y pos of 4 corners*
0 Add a 4 corners polygon primitive as box body*
4,1,4,$2,$3,$4,$5,$6,$7,$8,$9,$2,$3,0*
0 Add four circle primitives for the rounded corners*
1,1,$1+$1,$2,$3*
1,1,$1+$1,$4,$5*
1,1,$1+$1,$6,$7*
1,1,$1+$1,$8,$9*
0 Add four rect primitives between the rounded corners*
20,1,$1+$1,$2,$3,$4,$5,0*
20,1,$1+$1,$4,$5,$6,$7,0*
20,1,$1+$1,$6,$7,$8,$9,0*
20,1,$1+$1,$8,$9,$2,$3,0*%
G04 Aperture macros list end*
%ADD10R,1.700000X1.700000*%
%ADD11C,1.700000*%
%ADD12O,2.200000X3.500000*%
%ADD13R,1.500000X2.500000*%
%ADD14O,1.500000X2.500000*%
%ADD15RoundRect,0.250001X1.149999X-1.149999X1.149999X1.149999X-1.149999X1.149999X-1.149999X-1.149999X0*%
%ADD16C,2.800000*%
%ADD17C,4.000000*%
%ADD18RoundRect,0.400000X0.400000X0.400000X-0.400000X0.400000X-0.400000X-0.400000X0.400000X-0.400000X0*%
%ADD19C,1.600000*%
%ADD20C,0.650000*%
%ADD21O,2.100000X1.000000*%
%ADD22O,1.800000X1.000000*%
%ADD23C,6.400000*%
%ADD24RoundRect,0.250000X1.050000X1.050000X-1.050000X1.050000X-1.050000X-1.050000X1.050000X-1.050000X0*%
%ADD25C,2.600000*%
%ADD26C,1.500000*%
%ADD27C,0.499999*%
G04 APERTURE END LIST*
D10*
%TO.C,J5*%
X122267999Y-147032000D03*
D11*
X119727999Y-147032000D03*
X117188000Y-147032000D03*
X114647999Y-147032000D03*
%TD*%
D12*
%TO.C,SW1*%
X127412000Y-54430000D03*
X135612000Y-54430000D03*
D13*
X129512000Y-54430000D03*
D14*
X131512000Y-54430000D03*
X133512000Y-54430000D03*
%TD*%
D15*
%TO.C,J9*%
X105154500Y-70520000D03*
D16*
X105154500Y-65520000D03*
%TD*%
D10*
%TO.C,J3*%
X157870000Y-54232000D03*
D11*
X155330000Y-54232000D03*
X152790001Y-54232000D03*
X150250000Y-54232000D03*
X147710000Y-54232000D03*
X145170000Y-54232000D03*
X142630000Y-54232000D03*
%TD*%
D17*
%TO.C,J11*%
X176480000Y-145380000D03*
X186640000Y-135220000D03*
D18*
X181560000Y-140300000D03*
D19*
X184100000Y-140300000D03*
%TD*%
D20*
%TO.C,J8*%
X192334000Y-102587000D03*
X192334000Y-96807000D03*
D21*
X191814000Y-104017000D03*
D22*
X196014000Y-104017000D03*
D21*
X191814000Y-95377000D03*
D22*
X196014000Y-95377000D03*
%TD*%
D10*
%TO.C,J4*%
X129889001Y-146936000D03*
D11*
X132429001Y-146936000D03*
X134969000Y-146936000D03*
X137509001Y-146936000D03*
X140049001Y-146936000D03*
%TD*%
D23*
%TO.C,H1*%
X105000000Y-55000000D03*
%TD*%
D10*
%TO.C,J2*%
X195977000Y-118181000D03*
D11*
X195977000Y-115641000D03*
X195977000Y-113101001D03*
X195977000Y-110561000D03*
%TD*%
D23*
%TO.C,H3*%
X195103000Y-54697000D03*
%TD*%
D10*
%TO.C,J7*%
X153818999Y-146736000D03*
D11*
X151278999Y-146736000D03*
X148739000Y-146736000D03*
X146198999Y-146736000D03*
%TD*%
D23*
%TO.C,H4*%
X194837000Y-144768000D03*
%TD*%
D24*
%TO.C,J10*%
X186219000Y-56889000D03*
D25*
X181139001Y-56889000D03*
X176059000Y-56889000D03*
X170979000Y-56889000D03*
X165899000Y-56889000D03*
%TD*%
D26*
%TO.C,Y1*%
X133716000Y-93922000D03*
X133716000Y-98802000D03*
%TD*%
D23*
%TO.C,H2*%
X105033000Y-144768000D03*
%TD*%
D10*
%TO.C,J6*%
X197212000Y-83159000D03*
D11*
X197212000Y-85699000D03*
X197212000Y-88239000D03*
%TD*%
D12*
%TO.C,SW2*%
X114385000Y-54348500D03*
X122585000Y-54348500D03*
D13*
X116485000Y-54348500D03*
D14*
X118485000Y-54348500D03*
X120485000Y-54348500D03*
%TD*%
D27*
%TO.C,U4*%
X170416000Y-80833999D03*
X170441400Y-81933999D03*
X170416000Y-83033999D03*
%TD*%
D10*
%TO.C,J1*%
X194527000Y-66494000D03*
D11*
X197067000Y-66494000D03*
X194527000Y-69034000D03*
X197067000Y-69034000D03*
X194527000Y-71574000D03*
X197067000Y-71574000D03*
X194527000Y-74114000D03*
X197067000Y-74114000D03*
X194527000Y-76654000D03*
X197067000Y-76654000D03*
%TD*%
M02*
