%TF.GenerationSoftware,KiCad,Pcbnew,9.0.2*%
%TF.CreationDate,2026-04-07T09:26:30-05:00*%
%TF.ProjectId,fmcw_radar_sch,666d6377-5f72-4616-9461-725f7363682e,rev?*%
%TF.SameCoordinates,Original*%
%TF.FileFunction,Paste,Top*%
%TF.FilePolarity,Positive*%
%FSLAX46Y46*%
G04 Gerber Fmt 4.6, Leading zero omitted, Abs format (unit mm)*
G04 Created by KiCad (PCBNEW 9.0.2) date 2026-04-07 09:26:30*
%MOMM*%
%LPD*%
G01*
G04 APERTURE LIST*
G04 Aperture macros list*
%AMRoundRect*
0 Rectangle with rounded corners*
0 $1 Rounding radius*
0 $2 $3 $4 $5 $6 $7 $8 $9 X,Y pos of 4 corners*
0 Add a 4 corners polygon primitive as box body*
4,1,4,$2,$3,$4,$5,$6,$7,$8,$9,$2,$3,0*
0 Add four circle primitives for the rounded corners*
1,1,$1+$1,$2,$3*
1,1,$1+$1,$4,$5*
1,1,$1+$1,$6,$7*
1,1,$1+$1,$8,$9*
0 Add four rect primitives between the rounded corners*
20,1,$1+$1,$2,$3,$4,$5,0*
20,1,$1+$1,$4,$5,$6,$7,0*
20,1,$1+$1,$6,$7,$8,$9,0*
20,1,$1+$1,$8,$9,$2,$3,0*%
%AMOutline5P*
0 Free polygon, 5 corners , with rotation*
0 The origin of the aperture is its center*
0 number of corners: always 5*
0 $1 to $10 corner X, Y*
0 $11 Rotation angle, in degrees counterclockwise*
0 create outline with 5 corners*
4,1,5,$1,$2,$3,$4,$5,$6,$7,$8,$9,$10,$1,$2,$11*%
%AMOutline6P*
0 Free polygon, 6 corners , with rotation*
0 The origin of the aperture is its center*
0 number of corners: always 6*
0 $1 to $12 corner X, Y*
0 $13 Rotation angle, in degrees counterclockwise*
0 create outline with 6 corners*
4,1,6,$1,$2,$3,$4,$5,$6,$7,$8,$9,$10,$11,$12,$1,$2,$13*%
%AMOutline7P*
0 Free polygon, 7 corners , with rotation*
0 The origin of the aperture is its center*
0 number of corners: always 7*
0 $1 to $14 corner X, Y*
0 $15 Rotation angle, in degrees counterclockwise*
0 create outline with 7 corners*
4,1,7,$1,$2,$3,$4,$5,$6,$7,$8,$9,$10,$11,$12,$13,$14,$1,$2,$15*%
%AMOutline8P*
0 Free polygon, 8 corners , with rotation*
0 The origin of the aperture is its center*
0 number of corners: always 8*
0 $1 to $16 corner X, Y*
0 $17 Rotation angle, in degrees counterclockwise*
0 create outline with 8 corners*
4,1,8,$1,$2,$3,$4,$5,$6,$7,$8,$9,$10,$11,$12,$13,$14,$15,$16,$1,$2,$17*%
%AMFreePoly0*
4,1,9,5.362500,-0.866500,1.237500,-0.866500,1.237500,-0.450000,-1.237500,-0.450000,-1.237500,0.450000,1.237500,0.450000,1.237500,0.866500,5.362500,0.866500,5.362500,-0.866500,5.362500,-0.866500,$1*%
G04 Aperture macros list end*
%ADD10C,0.000000*%
%ADD11RoundRect,0.075000X-0.662500X-0.075000X0.662500X-0.075000X0.662500X0.075000X-0.662500X0.075000X0*%
%ADD12RoundRect,0.075000X-0.075000X-0.662500X0.075000X-0.662500X0.075000X0.662500X-0.075000X0.662500X0*%
%ADD13RoundRect,0.250000X-0.412500X-0.650000X0.412500X-0.650000X0.412500X0.650000X-0.412500X0.650000X0*%
%ADD14RoundRect,0.250000X-0.250000X-0.475000X0.250000X-0.475000X0.250000X0.475000X-0.250000X0.475000X0*%
%ADD15RoundRect,0.135000X0.135000X0.185000X-0.135000X0.185000X-0.135000X-0.185000X0.135000X-0.185000X0*%
%ADD16RoundRect,0.250000X0.412500X0.650000X-0.412500X0.650000X-0.412500X-0.650000X0.412500X-0.650000X0*%
%ADD17RoundRect,0.237500X0.300000X0.237500X-0.300000X0.237500X-0.300000X-0.237500X0.300000X-0.237500X0*%
%ADD18RoundRect,0.250000X0.159099X-0.724784X0.724784X-0.159099X-0.159099X0.724784X-0.724784X0.159099X0*%
%ADD19RoundRect,0.135000X0.185000X-0.135000X0.185000X0.135000X-0.185000X0.135000X-0.185000X-0.135000X0*%
%ADD20RoundRect,0.135000X-0.135000X-0.185000X0.135000X-0.185000X0.135000X0.185000X-0.135000X0.185000X0*%
%ADD21RoundRect,0.250000X0.751301X0.167938X0.167938X0.751301X-0.751301X-0.167938X-0.167938X-0.751301X0*%
%ADD22RoundRect,0.237500X-0.300000X-0.237500X0.300000X-0.237500X0.300000X0.237500X-0.300000X0.237500X0*%
%ADD23RoundRect,0.237500X0.237500X-0.287500X0.237500X0.287500X-0.237500X0.287500X-0.237500X-0.287500X0*%
%ADD24RoundRect,0.140000X-0.140000X-0.170000X0.140000X-0.170000X0.140000X0.170000X-0.140000X0.170000X0*%
%ADD25RoundRect,0.250000X0.650000X-0.412500X0.650000X0.412500X-0.650000X0.412500X-0.650000X-0.412500X0*%
%ADD26R,0.304800X0.558800*%
%ADD27RoundRect,0.250000X-0.650000X0.412500X-0.650000X-0.412500X0.650000X-0.412500X0.650000X0.412500X0*%
%ADD28R,1.240000X0.600000*%
%ADD29R,1.240000X0.300000*%
%ADD30RoundRect,0.250000X0.275000X0.700000X-0.275000X0.700000X-0.275000X-0.700000X0.275000X-0.700000X0*%
%ADD31RoundRect,0.150000X0.512500X0.150000X-0.512500X0.150000X-0.512500X-0.150000X0.512500X-0.150000X0*%
%ADD32RoundRect,0.250000X-0.600000X-2.600000X0.600000X-2.600000X0.600000X2.600000X-0.600000X2.600000X0*%
%ADD33RoundRect,0.237500X-0.250000X-0.237500X0.250000X-0.237500X0.250000X0.237500X-0.250000X0.237500X0*%
%ADD34RoundRect,0.140000X0.170000X-0.140000X0.170000X0.140000X-0.170000X0.140000X-0.170000X-0.140000X0*%
%ADD35RoundRect,0.225000X-0.925000X-0.225000X0.925000X-0.225000X0.925000X0.225000X-0.925000X0.225000X0*%
%ADD36FreePoly0,0.000000*%
%ADD37RoundRect,0.237500X0.250000X0.237500X-0.250000X0.237500X-0.250000X-0.237500X0.250000X-0.237500X0*%
%ADD38R,0.838200X1.600200*%
%ADD39RoundRect,0.240750X1.350500X0.561750X-1.350500X0.561750X-1.350500X-0.561750X1.350500X-0.561750X0*%
%ADD40RoundRect,0.250000X0.625000X-0.400000X0.625000X0.400000X-0.625000X0.400000X-0.625000X-0.400000X0*%
%ADD41RoundRect,0.162500X0.617500X0.162500X-0.617500X0.162500X-0.617500X-0.162500X0.617500X-0.162500X0*%
%ADD42RoundRect,0.250000X-0.751301X-0.167938X-0.167938X-0.751301X0.751301X0.167938X0.167938X0.751301X0*%
%ADD43RoundRect,0.225000X-0.250000X0.225000X-0.250000X-0.225000X0.250000X-0.225000X0.250000X0.225000X0*%
%ADD44O,1.450000X0.249999*%
%ADD45RoundRect,0.250000X-0.475000X0.250000X-0.475000X-0.250000X0.475000X-0.250000X0.475000X0.250000X0*%
%ADD46RoundRect,0.250000X0.167938X-0.751301X0.751301X-0.167938X-0.167938X0.751301X-0.751301X0.167938X0*%
%ADD47RoundRect,0.225000X-0.225000X-0.250000X0.225000X-0.250000X0.225000X0.250000X-0.225000X0.250000X0*%
%ADD48RoundRect,0.150000X-0.512500X-0.150000X0.512500X-0.150000X0.512500X0.150000X-0.512500X0.150000X0*%
%ADD49RoundRect,0.250000X0.400000X0.625000X-0.400000X0.625000X-0.400000X-0.625000X0.400000X-0.625000X0*%
%ADD50R,1.100000X0.599999*%
%ADD51Outline6P,-2.900000X0.630000X-2.480000X1.050000X2.480000X1.050000X2.900000X0.630000X2.900000X-1.050000X-2.900000X-1.050000X270.000000*%
%ADD52Outline6P,-2.900000X0.630000X-2.480000X1.050000X2.480000X1.050000X2.900000X0.630000X2.900000X-1.050000X-2.900000X-1.050000X90.000000*%
G04 APERTURE END LIST*
D10*
%TO.C,U4*%
G36*
X170965999Y-81133998D02*
G01*
X170965999Y-82734000D01*
X170915999Y-82784000D01*
X170040999Y-82784000D01*
X169991000Y-82734000D01*
X169991000Y-81133998D01*
X170040999Y-81083998D01*
X170915999Y-81083998D01*
X170965999Y-81133998D01*
G37*
%TD*%
D11*
%TO.C,U1*%
X145837500Y-97250000D03*
X145837500Y-97750000D03*
X145837500Y-98250000D03*
X145837500Y-98750000D03*
X145837500Y-99250000D03*
X145837500Y-99750000D03*
X145837500Y-100250000D03*
X145837500Y-100750000D03*
X145837500Y-101250000D03*
X145837500Y-101750000D03*
X145837500Y-102250000D03*
X145837500Y-102750000D03*
D12*
X147250000Y-104162500D03*
X147750000Y-104162500D03*
X148250000Y-104162500D03*
X148750000Y-104162500D03*
X149250000Y-104162500D03*
X149750000Y-104162500D03*
X150250000Y-104162500D03*
X150750000Y-104162500D03*
X151250000Y-104162500D03*
X151750000Y-104162500D03*
X152250000Y-104162500D03*
X152750000Y-104162500D03*
D11*
X154162500Y-102750000D03*
X154162500Y-102250000D03*
X154162500Y-101750000D03*
X154162500Y-101250000D03*
X154162500Y-100750000D03*
X154162500Y-100250000D03*
X154162500Y-99750000D03*
X154162500Y-99250000D03*
X154162500Y-98750000D03*
X154162500Y-98250000D03*
X154162500Y-97750000D03*
X154162500Y-97250000D03*
D12*
X152750000Y-95837500D03*
X152250000Y-95837500D03*
X151750000Y-95837500D03*
X151250000Y-95837500D03*
X150750000Y-95837500D03*
X150250000Y-95837500D03*
X149750000Y-95837500D03*
X149250000Y-95837500D03*
X148750000Y-95837500D03*
X148250000Y-95837500D03*
X147750000Y-95837500D03*
X147250000Y-95837500D03*
%TD*%
D13*
%TO.C,C20*%
X127431500Y-74582000D03*
X130556500Y-74582000D03*
%TD*%
D14*
%TO.C,C24*%
X114036001Y-86502000D03*
X115935999Y-86502000D03*
%TD*%
D15*
%TO.C,R19*%
X169709999Y-129500000D03*
X168690001Y-129500000D03*
%TD*%
D16*
%TO.C,C16*%
X133291500Y-67397000D03*
X130166500Y-67397000D03*
%TD*%
D17*
%TO.C,C10*%
X142862501Y-101100000D03*
X141137499Y-101100000D03*
%TD*%
D18*
%TO.C,R8*%
X144503984Y-109196016D03*
X146696016Y-107003984D03*
%TD*%
D19*
%TO.C,R20*%
X159600000Y-126209999D03*
X159600000Y-125190001D03*
%TD*%
D20*
%TO.C,R21*%
X169990000Y-125800000D03*
X171010000Y-125800000D03*
%TD*%
D21*
%TO.C,C7*%
X144174000Y-94646000D03*
X141964292Y-92436292D03*
%TD*%
D22*
%TO.C,C11*%
X139702499Y-107235000D03*
X141427501Y-107235000D03*
%TD*%
D23*
%TO.C,D5*%
X165696000Y-66531998D03*
X165696000Y-64782000D03*
%TD*%
D16*
%TO.C,C22*%
X126344500Y-64275000D03*
X123219500Y-64275000D03*
%TD*%
D24*
%TO.C,C41*%
X171071000Y-120066000D03*
X172031000Y-120066000D03*
%TD*%
D17*
%TO.C,C9*%
X142862501Y-102900000D03*
X141137499Y-102900000D03*
%TD*%
D25*
%TO.C,C12*%
X152958000Y-68247500D03*
X152958000Y-65122500D03*
%TD*%
D16*
%TO.C,C15*%
X166412500Y-83193000D03*
X163287500Y-83193000D03*
%TD*%
D23*
%TO.C,D6*%
X181100000Y-66600000D03*
X181100000Y-64850002D03*
%TD*%
D26*
%TO.C,CR2*%
X190619800Y-71915600D03*
X191280200Y-71915600D03*
%TD*%
D27*
%TO.C,C2*%
X129160000Y-98774500D03*
X129160000Y-101899500D03*
%TD*%
D28*
%TO.C,J8*%
X191214000Y-102897000D03*
X191214000Y-102097000D03*
D29*
X191214000Y-100947000D03*
X191214000Y-99947000D03*
X191214000Y-99447000D03*
X191214000Y-98447000D03*
D28*
X191214000Y-97297000D03*
X191214000Y-96497000D03*
X191214000Y-96497000D03*
X191214000Y-97297000D03*
D29*
X191214000Y-97947000D03*
X191214000Y-98947000D03*
X191214000Y-100447000D03*
X191214000Y-101447000D03*
D28*
X191214000Y-102097000D03*
X191214000Y-102897000D03*
%TD*%
D14*
%TO.C,C17*%
X135845001Y-70532000D03*
X137744999Y-70532000D03*
%TD*%
D30*
%TO.C,L1*%
X142792000Y-105082000D03*
X139642000Y-105082000D03*
%TD*%
D31*
%TO.C,U5*%
X132862000Y-71353999D03*
X132862000Y-70404000D03*
X132862000Y-69454001D03*
X130587000Y-69454001D03*
X130587000Y-70404000D03*
X130587000Y-71353999D03*
%TD*%
D32*
%TO.C,L2*%
X135880000Y-76181000D03*
X140380000Y-76181000D03*
%TD*%
D23*
%TO.C,D7*%
X176000000Y-66674999D03*
X176000000Y-64925001D03*
%TD*%
D33*
%TO.C,R3*%
X183387500Y-73300000D03*
X185212500Y-73300000D03*
%TD*%
D34*
%TO.C,C43*%
X181963000Y-121907000D03*
X181963000Y-120947000D03*
%TD*%
D35*
%TO.C,U6*%
X114031000Y-81098000D03*
D36*
X114118500Y-82598000D03*
D35*
X114031000Y-84098000D03*
%TD*%
D24*
%TO.C,C42*%
X178112000Y-125188000D03*
X179072000Y-125188000D03*
%TD*%
D15*
%TO.C,R23*%
X172096999Y-121398000D03*
X171077001Y-121398000D03*
%TD*%
D22*
%TO.C,C6*%
X183437500Y-80800000D03*
X185162500Y-80800000D03*
%TD*%
D37*
%TO.C,R12*%
X186212500Y-69225001D03*
X184387500Y-69225001D03*
%TD*%
D38*
%TO.C,U2*%
X153626001Y-73286001D03*
X152126002Y-73286001D03*
X150626000Y-73286001D03*
X149126000Y-73286001D03*
D39*
X151356001Y-79296401D03*
%TD*%
D23*
%TO.C,D3*%
X170900000Y-66374999D03*
X170900000Y-64625001D03*
%TD*%
D33*
%TO.C,R5*%
X183387500Y-76700000D03*
X185212500Y-76700000D03*
%TD*%
D40*
%TO.C,R1*%
X131464000Y-61748001D03*
X131464000Y-58647999D03*
%TD*%
D33*
%TO.C,R6*%
X183487500Y-78700000D03*
X185312500Y-78700000D03*
%TD*%
D37*
%TO.C,R15*%
X165682500Y-68841000D03*
X163857500Y-68841000D03*
%TD*%
D25*
%TO.C,C14*%
X149742000Y-68218500D03*
X149742000Y-65093500D03*
%TD*%
D23*
%TO.C,D2*%
X186200000Y-66574999D03*
X186200000Y-64825001D03*
%TD*%
D24*
%TO.C,C38*%
X167594000Y-127100000D03*
X168554000Y-127100000D03*
%TD*%
D41*
%TO.C,U3*%
X174622000Y-100029500D03*
X174622000Y-99079500D03*
X174622000Y-98129500D03*
X171922000Y-98129500D03*
X171922000Y-99079500D03*
X171922000Y-100029500D03*
%TD*%
D42*
%TO.C,C4*%
X153046146Y-107073146D03*
X155255854Y-109282854D03*
%TD*%
D43*
%TO.C,C13*%
X188100000Y-95350000D03*
X188100000Y-96900000D03*
%TD*%
D37*
%TO.C,R14*%
X170912500Y-68900000D03*
X169087500Y-68900000D03*
%TD*%
D16*
%TO.C,C23*%
X126501500Y-60820000D03*
X123376500Y-60820000D03*
%TD*%
D26*
%TO.C,CR1*%
X190619800Y-69544000D03*
X191280200Y-69544000D03*
%TD*%
D44*
%TO.C,U9*%
X161658000Y-126831999D03*
X161658000Y-127331998D03*
X161658000Y-127832000D03*
X161658000Y-128331999D03*
X161658000Y-128832001D03*
X165708000Y-128832001D03*
X165708000Y-128331999D03*
X165708000Y-127832000D03*
X165708000Y-127331998D03*
X165708000Y-126831999D03*
%TD*%
D15*
%TO.C,R22*%
X171103999Y-123078000D03*
X170084001Y-123078000D03*
%TD*%
D43*
%TO.C,C39*%
X163900000Y-130625000D03*
X163900000Y-132175000D03*
%TD*%
D33*
%TO.C,R4*%
X183487500Y-75100000D03*
X185312500Y-75100000D03*
%TD*%
D42*
%TO.C,C3*%
X156063146Y-106693146D03*
X158272854Y-108902854D03*
%TD*%
D45*
%TO.C,C19*%
X140417000Y-82858001D03*
X140417000Y-84757999D03*
%TD*%
D46*
%TO.C,C5*%
X156295146Y-95904854D03*
X158504854Y-93695146D03*
%TD*%
D26*
%TO.C,CR4*%
X190619800Y-76658800D03*
X191280200Y-76658800D03*
%TD*%
D37*
%TO.C,R16*%
X181125000Y-69200000D03*
X179300000Y-69200000D03*
%TD*%
D47*
%TO.C,C37*%
X167160000Y-125425000D03*
X168710000Y-125425000D03*
%TD*%
D48*
%TO.C,U10*%
X178116500Y-121968500D03*
X178116500Y-122918500D03*
X178116500Y-123868500D03*
X180391500Y-123868500D03*
X180391500Y-121968500D03*
%TD*%
D19*
%TO.C,R24*%
X181491000Y-126611999D03*
X181491000Y-125592001D03*
%TD*%
D37*
%TO.C,R11*%
X194175500Y-93024000D03*
X192350500Y-93024000D03*
%TD*%
D49*
%TO.C,R9*%
X155389001Y-70694000D03*
X152288999Y-70694000D03*
%TD*%
D37*
%TO.C,R10*%
X194232500Y-105840000D03*
X192407500Y-105840000D03*
%TD*%
D40*
%TO.C,R7*%
X189500000Y-121300000D03*
X189500000Y-118199998D03*
%TD*%
D49*
%TO.C,R13*%
X150444001Y-70665000D03*
X147343999Y-70665000D03*
%TD*%
D25*
%TO.C,C1*%
X129078000Y-96606500D03*
X129078000Y-93481500D03*
%TD*%
D50*
%TO.C,U4*%
X169116000Y-80983998D03*
X169116000Y-81933999D03*
X169116000Y-82884000D03*
X171716000Y-82884000D03*
X171716000Y-80983998D03*
%TD*%
D49*
%TO.C,R2*%
X142683000Y-99130000D03*
X139583000Y-99130000D03*
%TD*%
D26*
%TO.C,CR3*%
X190619800Y-74287200D03*
X191280200Y-74287200D03*
%TD*%
D51*
%TO.C,L3*%
X126924000Y-70171000D03*
D52*
X123024000Y-70171000D03*
%TD*%
D45*
%TO.C,C21*%
X121215000Y-82736001D03*
X121215000Y-84635999D03*
%TD*%
D13*
%TO.C,C18*%
X173598500Y-80986000D03*
X176723500Y-80986000D03*
%TD*%
D21*
%TO.C,C8*%
X145904854Y-93004854D03*
X143695146Y-90795146D03*
%TD*%
D37*
%TO.C,R17*%
X176012500Y-69000000D03*
X174187500Y-69000000D03*
%TD*%
D24*
%TO.C,C40*%
X170040000Y-124462000D03*
X171000000Y-124462000D03*
%TD*%
M02*
