%TF.GenerationSoftware,KiCad,Pcbnew,9.0.2*%
%TF.CreationDate,2026-04-07T14:27:58-05:00*%
%TF.ProjectId,Up_Down_Converter,55705f44-6f77-46e5-9f43-6f6e76657274,rev?*%
%TF.SameCoordinates,Original*%
%TF.FileFunction,Soldermask,Bot*%
%TF.FilePolarity,Negative*%
%FSLAX46Y46*%
G04 Gerber Fmt 4.6, Leading zero omitted, Abs format (unit mm)*
G04 Created by KiCad (PCBNEW 9.0.2) date 2026-04-07 14:27:58*
%MOMM*%
%LPD*%
G01*
G04 APERTURE LIST*
G04 Aperture macros list*
%AMRoundRect*
0 Rectangle with rounded corners*
0 $1 Rounding radius*
0 $2 $3 $4 $5 $6 $7 $8 $9 X,Y pos of 4 corners*
0 Add a 4 corners polygon primitive as box body*
4,1,4,$2,$3,$4,$5,$6,$7,$8,$9,$2,$3,0*
0 Add four circle primitives for the rounded corners*
1,1,$1+$1,$2,$3*
1,1,$1+$1,$4,$5*
1,1,$1+$1,$6,$7*
1,1,$1+$1,$8,$9*
0 Add four rect primitives between the rounded corners*
20,1,$1+$1,$2,$3,$4,$5,0*
20,1,$1+$1,$4,$5,$6,$7,0*
20,1,$1+$1,$6,$7,$8,$9,0*
20,1,$1+$1,$8,$9,$2,$3,0*%
%AMFreePoly0*
4,1,29,5.373019,2.004242,5.376555,2.002778,5.424497,1.961845,5.431778,1.947555,5.433242,1.944019,5.441000,1.905000,5.441000,-4.241800,5.433242,-4.280819,5.431778,-4.284355,5.390845,-4.332297,5.376555,-4.339578,5.373019,-4.341042,5.334000,-4.348800,-2.794000,-4.348800,-2.833019,-4.341042,-2.836555,-4.339578,-2.884497,-4.298645,-2.891778,-4.284355,-2.893242,-4.280819,-2.901000,-4.241800,
-2.901000,1.905000,-2.893242,1.944019,-2.891778,1.947555,-2.850845,1.995497,-2.836555,2.002778,-2.833019,2.004242,-2.794000,2.012000,5.334000,2.012000,5.373019,2.004242,5.373019,2.004242,$1*%
G04 Aperture macros list end*
%ADD10C,0.010000*%
%ADD11C,0.861200*%
%ADD12FreePoly0,0.000000*%
%ADD13C,6.400000*%
%ADD14C,0.650000*%
%ADD15O,2.100000X1.000000*%
%ADD16O,1.800000X1.000000*%
%ADD17C,2.000000*%
%ADD18O,2.200000X3.500000*%
%ADD19R,1.500000X2.500000*%
%ADD20O,1.500000X2.500000*%
%ADD21R,1.700000X1.700000*%
%ADD22C,1.700000*%
%ADD23R,3.500000X3.500000*%
%ADD24RoundRect,0.750000X1.000000X-0.750000X1.000000X0.750000X-1.000000X0.750000X-1.000000X-0.750000X0*%
%ADD25RoundRect,0.875000X0.875000X-0.875000X0.875000X0.875000X-0.875000X0.875000X-0.875000X-0.875000X0*%
%ADD26C,0.499999*%
%ADD27C,3.250000*%
%ADD28R,1.500000X1.500000*%
%ADD29C,1.500000*%
%ADD30C,2.300000*%
%ADD31RoundRect,0.237500X-0.237500X0.250000X-0.237500X-0.250000X0.237500X-0.250000X0.237500X0.250000X0*%
%ADD32RoundRect,0.237500X-0.250000X-0.237500X0.250000X-0.237500X0.250000X0.237500X-0.250000X0.237500X0*%
%ADD33RoundRect,0.237500X0.237500X-0.300000X0.237500X0.300000X-0.237500X0.300000X-0.237500X-0.300000X0*%
%ADD34RoundRect,0.237500X-0.237500X0.300000X-0.237500X-0.300000X0.237500X-0.300000X0.237500X0.300000X0*%
%ADD35RoundRect,0.237500X0.300000X0.237500X-0.300000X0.237500X-0.300000X-0.237500X0.300000X-0.237500X0*%
%ADD36RoundRect,0.237500X-0.300000X-0.237500X0.300000X-0.237500X0.300000X0.237500X-0.300000X0.237500X0*%
G04 APERTURE END LIST*
D10*
%TO.C,J16*%
X57564000Y-45601800D02*
X49436000Y-45601800D01*
X49436000Y-39455000D01*
X57564000Y-39455000D01*
X57564000Y-45601800D01*
G36*
X57564000Y-45601800D02*
G01*
X49436000Y-45601800D01*
X49436000Y-39455000D01*
X57564000Y-39455000D01*
X57564000Y-45601800D01*
G37*
%TO.C,J15*%
X101128000Y-45693400D02*
X93000000Y-45693400D01*
X93000000Y-39546600D01*
X101128000Y-39546600D01*
X101128000Y-45693400D01*
G36*
X101128000Y-45693400D02*
G01*
X93000000Y-45693400D01*
X93000000Y-39546600D01*
X101128000Y-39546600D01*
X101128000Y-45693400D01*
G37*
%TO.C,J13*%
X88478000Y-45611800D02*
X80350000Y-45611800D01*
X80350000Y-39465000D01*
X88478000Y-39465000D01*
X88478000Y-45611800D01*
G36*
X88478000Y-45611800D02*
G01*
X80350000Y-45611800D01*
X80350000Y-39465000D01*
X88478000Y-39465000D01*
X88478000Y-45611800D01*
G37*
%TO.C,J17*%
X72617200Y-45611800D02*
X64489200Y-45611800D01*
X64489200Y-39465000D01*
X72617200Y-39465000D01*
X72617200Y-45611800D01*
G36*
X72617200Y-45611800D02*
G01*
X64489200Y-45611800D01*
X64489200Y-39465000D01*
X72617200Y-39465000D01*
X72617200Y-45611800D01*
G37*
%TD*%
D11*
%TO.C,J16*%
X52433200Y-40090000D03*
D12*
X52230000Y-41360000D03*
D11*
X52230000Y-42630000D03*
X52230000Y-43900000D03*
X52433200Y-45170000D03*
X54566800Y-45170000D03*
X54770000Y-43900000D03*
X54770000Y-42630000D03*
X54770000Y-41360000D03*
X54566800Y-40090000D03*
%TD*%
%TO.C,J15*%
X95997200Y-40181600D03*
D12*
X95794000Y-41451600D03*
D11*
X95794000Y-42721600D03*
X95794000Y-43991600D03*
X95997200Y-45261600D03*
X98130800Y-45261600D03*
X98334000Y-43991600D03*
X98334000Y-42721600D03*
X98334000Y-41451600D03*
X98130800Y-40181600D03*
%TD*%
%TO.C,J13*%
X83347200Y-40100000D03*
D12*
X83144000Y-41370000D03*
D11*
X83144000Y-42640000D03*
X83144000Y-43910000D03*
X83347200Y-45180000D03*
X85480800Y-45180000D03*
X85684000Y-43910000D03*
X85684000Y-42640000D03*
X85684000Y-41370000D03*
X85480800Y-40100000D03*
%TD*%
D13*
%TO.C,H1*%
X131340389Y-44426339D03*
%TD*%
D14*
%TO.C,J8*%
X41630000Y-117510000D03*
X41630000Y-123290000D03*
D15*
X42150000Y-116080000D03*
D16*
X37950000Y-116080000D03*
D15*
X42150000Y-124720000D03*
D16*
X37950000Y-124720000D03*
%TD*%
D17*
%TO.C,TP2*%
X85170000Y-112720000D03*
%TD*%
D18*
%TO.C,SW1*%
X58100000Y-136702500D03*
X49900000Y-136702500D03*
D19*
X56000000Y-136702500D03*
D20*
X54000000Y-136702500D03*
X52000000Y-136702500D03*
%TD*%
D21*
%TO.C,J1*%
X39000000Y-65820000D03*
D22*
X39000000Y-68360000D03*
X39000000Y-70900000D03*
X39000000Y-73440000D03*
%TD*%
D23*
%TO.C,J7*%
X67050000Y-131550000D03*
D24*
X67050000Y-137550000D03*
D25*
X71750000Y-134550000D03*
%TD*%
D13*
%TO.C,H4*%
X41340389Y-134426339D03*
%TD*%
D26*
%TO.C,U4*%
X57430000Y-112242500D03*
X56330000Y-112242500D03*
X55230000Y-112242500D03*
%TD*%
D17*
%TO.C,TP1*%
X76740000Y-111170000D03*
%TD*%
D21*
%TO.C,J4*%
X109560000Y-42500000D03*
D22*
X112100000Y-42500000D03*
X114640000Y-42500000D03*
X117180000Y-42500000D03*
%TD*%
D13*
%TO.C,H2*%
X131340389Y-134426339D03*
%TD*%
D21*
%TO.C,J14*%
X39000000Y-77780000D03*
D22*
X39000000Y-80320000D03*
X39000000Y-82860000D03*
X39000000Y-85400000D03*
X39000000Y-87940000D03*
%TD*%
D27*
%TO.C,J6*%
X42570000Y-94300000D03*
X42570000Y-107000000D03*
D28*
X40030000Y-97090000D03*
D29*
X38250000Y-98106000D03*
X40030000Y-99122000D03*
X38250000Y-100138000D03*
X40030000Y-101154000D03*
X38250000Y-102170000D03*
X40030000Y-103186000D03*
X38250000Y-104202000D03*
D30*
X39140000Y-92520000D03*
X39140000Y-108780000D03*
%TD*%
D13*
%TO.C,H3*%
X41340389Y-44426339D03*
%TD*%
D21*
%TO.C,J5*%
X38900000Y-61140000D03*
D22*
X38900000Y-58600000D03*
X38900000Y-56060000D03*
X38900000Y-53520000D03*
X38900000Y-50980000D03*
%TD*%
D31*
%TO.C,R31*%
X74020000Y-91737500D03*
X74020000Y-93562500D03*
%TD*%
D32*
%TO.C,R33*%
X74457500Y-98630000D03*
X76282500Y-98630000D03*
%TD*%
D31*
%TO.C,R30*%
X74010000Y-88337500D03*
X74010000Y-90162500D03*
%TD*%
D32*
%TO.C,R32*%
X72177500Y-95270000D03*
X74002500Y-95270000D03*
%TD*%
D11*
%TO.C,J17*%
X67486400Y-40100000D03*
D12*
X67283200Y-41370000D03*
D11*
X67283200Y-42640000D03*
X67283200Y-43910000D03*
X67486400Y-45180000D03*
X69620000Y-45180000D03*
X69823200Y-43910000D03*
X69823200Y-42640000D03*
X69823200Y-41370000D03*
X69620000Y-40100000D03*
%TD*%
D33*
%TO.C,C69*%
X78010000Y-98532500D03*
X78010000Y-96807500D03*
%TD*%
D34*
%TO.C,C29*%
X98300000Y-70180000D03*
X98300000Y-71905002D03*
%TD*%
D35*
%TO.C,C67*%
X72352500Y-90230000D03*
X70627500Y-90230000D03*
%TD*%
%TO.C,C68*%
X72152500Y-96980000D03*
X70427500Y-96980000D03*
%TD*%
D36*
%TO.C,C70*%
X74057500Y-96960000D03*
X75782500Y-96960000D03*
%TD*%
M02*
