%TF.GenerationSoftware,KiCad,Pcbnew,9.0.2*%
%TF.CreationDate,2026-04-07T14:27:58-05:00*%
%TF.ProjectId,Up_Down_Converter,55705f44-6f77-46e5-9f43-6f6e76657274,rev?*%
%TF.SameCoordinates,Original*%
%TF.FileFunction,Soldermask,Top*%
%TF.FilePolarity,Negative*%
%FSLAX46Y46*%
G04 Gerber Fmt 4.6, Leading zero omitted, Abs format (unit mm)*
G04 Created by KiCad (PCBNEW 9.0.2) date 2026-04-07 14:27:58*
%MOMM*%
%LPD*%
G01*
G04 APERTURE LIST*
G04 Aperture macros list*
%AMRoundRect*
0 Rectangle with rounded corners*
0 $1 Rounding radius*
0 $2 $3 $4 $5 $6 $7 $8 $9 X,Y pos of 4 corners*
0 Add a 4 corners polygon primitive as box body*
4,1,4,$2,$3,$4,$5,$6,$7,$8,$9,$2,$3,0*
0 Add four circle primitives for the rounded corners*
1,1,$1+$1,$2,$3*
1,1,$1+$1,$4,$5*
1,1,$1+$1,$6,$7*
1,1,$1+$1,$8,$9*
0 Add four rect primitives between the rounded corners*
20,1,$1+$1,$2,$3,$4,$5,0*
20,1,$1+$1,$4,$5,$6,$7,0*
20,1,$1+$1,$6,$7,$8,$9,0*
20,1,$1+$1,$8,$9,$2,$3,0*%
%AMRotRect*
0 Rectangle, with rotation*
0 The origin of the aperture is its center*
0 $1 length*
0 $2 width*
0 $3 Rotation angle, in degrees counterclockwise*
0 Add horizontal line*
21,1,$1,$2,0,0,$3*%
%AMOutline5P*
0 Free polygon, 5 corners , with rotation*
0 The origin of the aperture is its center*
0 number of corners: always 5*
0 $1 to $10 corner X, Y*
0 $11 Rotation angle, in degrees counterclockwise*
0 create outline with 5 corners*
4,1,5,$1,$2,$3,$4,$5,$6,$7,$8,$9,$10,$1,$2,$11*%
%AMOutline6P*
0 Free polygon, 6 corners , with rotation*
0 The origin of the aperture is its center*
0 number of corners: always 6*
0 $1 to $12 corner X, Y*
0 $13 Rotation angle, in degrees counterclockwise*
0 create outline with 6 corners*
4,1,6,$1,$2,$3,$4,$5,$6,$7,$8,$9,$10,$11,$12,$1,$2,$13*%
%AMOutline7P*
0 Free polygon, 7 corners , with rotation*
0 The origin of the aperture is its center*
0 number of corners: always 7*
0 $1 to $14 corner X, Y*
0 $15 Rotation angle, in degrees counterclockwise*
0 create outline with 7 corners*
4,1,7,$1,$2,$3,$4,$5,$6,$7,$8,$9,$10,$11,$12,$13,$14,$1,$2,$15*%
%AMOutline8P*
0 Free polygon, 8 corners , with rotation*
0 The origin of the aperture is its center*
0 number of corners: always 8*
0 $1 to $16 corner X, Y*
0 $17 Rotation angle, in degrees counterclockwise*
0 create outline with 8 corners*
4,1,8,$1,$2,$3,$4,$5,$6,$7,$8,$9,$10,$11,$12,$13,$14,$15,$16,$1,$2,$17*%
%AMFreePoly0*
4,1,21,1.673586,3.076936,1.675050,3.073400,1.675050,2.057400,1.673586,2.053864,1.670050,2.052400,1.402000,2.052400,1.402000,-2.052400,1.670050,-2.052400,1.673586,-2.053864,1.675050,-2.057400,1.675050,-3.073400,1.673586,-3.076936,1.670050,-3.078400,-1.778000,-3.078400,-1.781536,-3.076936,-1.783000,-3.073400,-1.783000,3.073400,-1.781536,3.076936,-1.778000,3.078400,1.670050,3.078400,
1.673586,3.076936,1.673586,3.076936,$1*%
%AMFreePoly1*
4,1,21,1.781536,3.076936,1.783000,3.073400,1.783000,-3.073400,1.781536,-3.076936,1.778000,-3.078400,-1.670050,-3.078400,-1.673586,-3.076936,-1.675050,-3.073400,-1.675050,-2.057400,-1.673586,-2.053864,-1.670050,-2.052400,-1.402000,-2.052400,-1.402000,2.052400,-1.670050,2.052400,-1.673586,2.053864,-1.675050,2.057400,-1.675050,3.073400,-1.673586,3.076936,-1.670050,3.078400,1.778000,3.078400,
1.781536,3.076936,1.781536,3.076936,$1*%
%AMFreePoly2*
4,1,25,-1.500000,1.420000,-1.360000,1.280000,-1.205000,1.155000,-1.035000,1.045000,-0.860000,0.950000,-0.675000,0.875000,-0.480000,0.820000,-0.280000,0.780000,-0.085000,0.765000,0.085000,0.765000,0.280000,0.780000,0.480000,0.820000,0.675000,0.875000,0.860000,0.950000,1.035000,1.045000,1.205000,1.155000,1.360000,1.280000,1.500000,1.420000,1.645000,1.595000,3.555000,1.595000,
3.555000,-0.755000,-3.555000,-0.755000,-3.555000,1.595000,-1.645000,1.595000,-1.500000,1.420000,-1.500000,1.420000,$1*%
G04 Aperture macros list end*
%ADD10C,0.556000*%
%ADD11C,1.121700*%
%ADD12C,1.200000*%
%ADD13C,0.000000*%
%ADD14C,0.010000*%
%ADD15R,0.838200X1.600200*%
%ADD16RoundRect,0.190500X0.762000X0.444500X-0.762000X0.444500X-0.762000X-0.444500X0.762000X-0.444500X0*%
%ADD17RoundRect,0.237500X0.287500X0.237500X-0.287500X0.237500X-0.287500X-0.237500X0.287500X-0.237500X0*%
%ADD18RoundRect,0.237500X0.250000X0.237500X-0.250000X0.237500X-0.250000X-0.237500X0.250000X-0.237500X0*%
%ADD19RoundRect,0.155000X-0.212500X-0.155000X0.212500X-0.155000X0.212500X0.155000X-0.212500X0.155000X0*%
%ADD20RoundRect,0.155000X0.155000X-0.212500X0.155000X0.212500X-0.155000X0.212500X-0.155000X-0.212500X0*%
%ADD21RoundRect,0.102000X-0.361950X-0.635000X0.361950X-0.635000X0.361950X0.635000X-0.361950X0.635000X0*%
%ADD22FreePoly0,0.000000*%
%ADD23FreePoly1,0.000000*%
%ADD24C,0.861200*%
%ADD25RoundRect,0.250000X-0.412500X-0.650000X0.412500X-0.650000X0.412500X0.650000X-0.412500X0.650000X0*%
%ADD26RoundRect,0.062500X0.062500X-0.362500X0.062500X0.362500X-0.062500X0.362500X-0.062500X-0.362500X0*%
%ADD27R,2.380000X1.650000*%
%ADD28RoundRect,0.237500X0.237500X-0.250000X0.237500X0.250000X-0.237500X0.250000X-0.237500X-0.250000X0*%
%ADD29RoundRect,0.250000X-0.400000X-0.300000X0.400000X-0.300000X0.400000X0.300000X-0.400000X0.300000X0*%
%ADD30RoundRect,0.237500X0.237500X-0.287500X0.237500X0.287500X-0.237500X0.287500X-0.237500X-0.287500X0*%
%ADD31RoundRect,0.237500X0.344715X-0.008839X-0.008839X0.344715X-0.344715X0.008839X0.008839X-0.344715X0*%
%ADD32C,6.400000*%
%ADD33RoundRect,0.237500X-0.250000X-0.237500X0.250000X-0.237500X0.250000X0.237500X-0.250000X0.237500X0*%
%ADD34RoundRect,0.237500X-0.287500X-0.237500X0.287500X-0.237500X0.287500X0.237500X-0.287500X0.237500X0*%
%ADD35C,1.730000*%
%ADD36FreePoly2,270.000000*%
%ADD37FreePoly2,90.000000*%
%ADD38C,0.650000*%
%ADD39R,1.240000X0.600000*%
%ADD40R,1.240000X0.300000*%
%ADD41O,2.100000X1.000000*%
%ADD42O,1.800000X1.000000*%
%ADD43RoundRect,0.237500X-0.237500X0.287500X-0.237500X-0.287500X0.237500X-0.287500X0.237500X0.287500X0*%
%ADD44C,2.000000*%
%ADD45RoundRect,0.150000X-0.512500X-0.150000X0.512500X-0.150000X0.512500X0.150000X-0.512500X0.150000X0*%
%ADD46O,2.200000X3.500000*%
%ADD47R,1.500000X2.500000*%
%ADD48O,1.500000X2.500000*%
%ADD49RotRect,0.304800X0.300000X135.000000*%
%ADD50RotRect,0.304800X0.300000X225.000000*%
%ADD51RotRect,2.400000X2.400000X135.000000*%
%ADD52R,1.700000X1.700000*%
%ADD53C,1.700000*%
%ADD54R,3.500000X3.500000*%
%ADD55RoundRect,0.750000X1.000000X-0.750000X1.000000X0.750000X-1.000000X0.750000X-1.000000X-0.750000X0*%
%ADD56RoundRect,0.875000X0.875000X-0.875000X0.875000X0.875000X-0.875000X0.875000X-0.875000X-0.875000X0*%
%ADD57R,0.254000X0.457200*%
%ADD58R,0.457200X0.254000*%
%ADD59R,5.003800X5.003800*%
%ADD60RoundRect,0.237500X-0.237500X0.250000X-0.237500X-0.250000X0.237500X-0.250000X0.237500X0.250000X0*%
%ADD61R,0.599999X1.100000*%
%ADD62C,0.499999*%
%ADD63R,0.431800X0.431800*%
%ADD64R,0.304800X0.304800*%
%ADD65R,2.082800X2.082800*%
%ADD66Outline6P,-2.900000X0.630000X-2.480000X1.050000X2.480000X1.050000X2.900000X0.630000X2.900000X-1.050000X-2.900000X-1.050000X270.000000*%
%ADD67Outline6P,-2.900000X0.630000X-2.480000X1.050000X2.480000X1.050000X2.900000X0.630000X2.900000X-1.050000X-2.900000X-1.050000X90.000000*%
%ADD68RoundRect,0.250000X0.400000X0.625000X-0.400000X0.625000X-0.400000X-0.625000X0.400000X-0.625000X0*%
%ADD69C,3.250000*%
%ADD70R,1.500000X1.500000*%
%ADD71C,1.500000*%
%ADD72C,2.300000*%
%ADD73RoundRect,0.250000X-0.625000X0.400000X-0.625000X-0.400000X0.625000X-0.400000X0.625000X0.400000X0*%
%ADD74RoundRect,0.237500X-0.344715X0.008839X0.008839X-0.344715X0.344715X-0.008839X-0.008839X0.344715X0*%
%ADD75RoundRect,0.237500X-0.300000X-0.237500X0.300000X-0.237500X0.300000X0.237500X-0.300000X0.237500X0*%
%ADD76RoundRect,0.237500X0.237500X-0.300000X0.237500X0.300000X-0.237500X0.300000X-0.237500X-0.300000X0*%
%ADD77RoundRect,0.237500X-0.380070X0.044194X0.044194X-0.380070X0.380070X-0.044194X-0.044194X0.380070X0*%
%ADD78RoundRect,0.237500X0.380070X-0.044194X-0.044194X0.380070X-0.380070X0.044194X0.044194X-0.380070X0*%
%ADD79RoundRect,0.237500X-0.237500X0.300000X-0.237500X-0.300000X0.237500X-0.300000X0.237500X0.300000X0*%
%ADD80RoundRect,0.237500X0.300000X0.237500X-0.300000X0.237500X-0.300000X-0.237500X0.300000X-0.237500X0*%
%ADD81RoundRect,0.237500X-0.044194X-0.380070X0.380070X0.044194X0.044194X0.380070X-0.380070X-0.044194X0*%
G04 APERTURE END LIST*
D10*
X79466189Y-82776339D02*
X86417108Y-82776339D01*
D11*
X113523587Y-74231340D02*
X113723587Y-74231340D01*
D10*
X78730390Y-74045731D02*
X78490390Y-74045731D01*
D11*
X111898588Y-73631340D02*
X111898588Y-74231340D01*
D10*
X85007796Y-84276339D02*
G75*
G02*
X84767861Y-84036339I4J239939D01*
G01*
D11*
X111116528Y-97969434D02*
X110957430Y-97810336D01*
D10*
X94887426Y-80768208D02*
G75*
G02*
X94548015Y-80768208I-169705J169707D01*
G01*
D11*
X63610000Y-44070000D02*
X73570000Y-44070000D01*
D10*
X85727796Y-83276339D02*
X85892801Y-83276339D01*
D11*
X111941317Y-115411339D02*
G75*
G02*
X111316317Y-116036417I-625017J-61D01*
G01*
X111322454Y-105626339D02*
X111522454Y-105626339D01*
X108428676Y-60982617D02*
X108576736Y-61130677D01*
X111233587Y-84301339D02*
X121140389Y-84301339D01*
X108995208Y-100090757D02*
X109419472Y-100515021D01*
X118824499Y-97790000D02*
X137215501Y-97790000D01*
X119014499Y-106183800D02*
X137405501Y-106183800D01*
X118401266Y-63326339D02*
G75*
G02*
X118576261Y-63501339I34J-174961D01*
G01*
D12*
X103240390Y-66633939D02*
X103265390Y-66608939D01*
D11*
X106335388Y-67676339D02*
X106335388Y-67451340D01*
X108422039Y-58699958D02*
X108563460Y-58558538D01*
X103265390Y-75969538D02*
X103265390Y-72272340D01*
X105643588Y-70351340D02*
G75*
G02*
X105985018Y-70492751I12J-482860D01*
G01*
X108447200Y-100320570D02*
X108288100Y-100161473D01*
X119364499Y-123908184D02*
X137755501Y-123908184D01*
X112898588Y-75281338D02*
X112898588Y-74856339D01*
X114070506Y-65108026D02*
X114238282Y-64940247D01*
X117796647Y-72930992D02*
X136187649Y-72930992D01*
X111116317Y-116036339D02*
X111316317Y-116036339D01*
X117975389Y-94026339D02*
X117975389Y-93101339D01*
X119464499Y-122373800D02*
X137855501Y-122373800D01*
X118704499Y-93808184D02*
X137095501Y-93808184D01*
X110139013Y-59002719D02*
X110280433Y-58861297D01*
X113348586Y-75281338D02*
X113348586Y-74856339D01*
X107108304Y-105840489D02*
G75*
G02*
X107322454Y-105626304I214196J-11D01*
G01*
X114491317Y-114811339D02*
X114491317Y-115411339D01*
X110374070Y-97226975D02*
G75*
G02*
X110374036Y-96343059I441930J441975D01*
G01*
X117534499Y-74700489D02*
X135925501Y-74700489D01*
X117771688Y-67842192D02*
X136162690Y-67842192D01*
X98485389Y-115937723D02*
X98485389Y-116567901D01*
X118970000Y-101137808D02*
X137405501Y-101087808D01*
X109154308Y-99613464D02*
X109154306Y-99613462D01*
X79400000Y-42030000D02*
X89360000Y-42030000D01*
X113522454Y-107312189D02*
X114693407Y-107312189D01*
D10*
X84410000Y-70128946D02*
X84410000Y-69517956D01*
D11*
X107457249Y-101628718D02*
X107457248Y-101628717D01*
D10*
X87643661Y-82776339D02*
X88086901Y-82333099D01*
D11*
X105985009Y-70492761D02*
X109573079Y-74080831D01*
X118589337Y-83150992D02*
X136980339Y-83150992D01*
X109985157Y-100196825D02*
G75*
G02*
X109737668Y-100196825I-123744J123747D01*
G01*
X118864499Y-105610000D02*
X137255501Y-105610000D01*
X110692266Y-96908779D02*
G75*
G02*
X110692232Y-96661255I123734J123779D01*
G01*
D10*
X84527796Y-83276339D02*
G75*
G02*
X84767761Y-83516339I4J-239961D01*
G01*
D11*
X112348586Y-74856339D02*
X112348586Y-75281338D01*
X109710389Y-67851340D02*
X110327191Y-67851339D01*
X108510389Y-66826341D02*
X108710389Y-66826341D01*
X112034297Y-67144232D02*
G75*
G02*
X110327190Y-67851354I-1707097J1707032D01*
G01*
X117751688Y-66325992D02*
X136142690Y-66325992D01*
D10*
X87738839Y-83276339D02*
X88867500Y-84405000D01*
D11*
X111116317Y-115586339D02*
G75*
G02*
X110941361Y-115411339I-17J174939D01*
G01*
X118316317Y-114811339D02*
X119630389Y-114811339D01*
X116975389Y-93101339D02*
X116975389Y-94026339D01*
X111399372Y-98782610D02*
X111540793Y-98641188D01*
X116094283Y-94651339D02*
X115934629Y-94651339D01*
X117913836Y-63093184D02*
X136304838Y-63093184D01*
X108252748Y-99348298D02*
X108677013Y-99772563D01*
X107545640Y-99171523D02*
X107687063Y-99030101D01*
X108712362Y-101222128D02*
X108411842Y-100921608D01*
X116434011Y-73931339D02*
G75*
G02*
X116609011Y-73756311I174989J39D01*
G01*
X108889138Y-101929236D02*
X109030559Y-101787814D01*
D10*
X96536555Y-69033444D02*
X95557106Y-70012893D01*
D11*
X112898588Y-74856339D02*
G75*
G02*
X113523587Y-74231288I625012J39D01*
G01*
X110108304Y-106940489D02*
X110108304Y-107312189D01*
X117984011Y-74981339D02*
X117984011Y-74856339D01*
X120393606Y-64551339D02*
X121170389Y-64551339D01*
X109736604Y-106940489D02*
X109736604Y-107312189D01*
X115984011Y-73931339D02*
G75*
G02*
X116609011Y-73306311I624989J39D01*
G01*
X106943638Y-62198090D02*
X108159111Y-60982617D01*
X118760000Y-111307808D02*
X137195501Y-111257808D01*
X117484499Y-75590000D02*
X135875501Y-75590000D01*
X117425389Y-94026339D02*
G75*
G02*
X116800389Y-94651289I-624989J39D01*
G01*
X118201266Y-63326339D02*
X118401266Y-63326339D01*
X48560000Y-44890000D02*
X58520000Y-44890000D01*
D10*
X83410000Y-71328946D02*
G75*
G02*
X83650000Y-71088900I240000J46D01*
G01*
D11*
X108335388Y-68701338D02*
X108335388Y-68301338D01*
X112002219Y-64736795D02*
X112143640Y-64595375D01*
X117577148Y-76930992D02*
X135968150Y-76930992D01*
X79380000Y-40040000D02*
X89340000Y-40040000D01*
X115491317Y-115411339D02*
G75*
G02*
X115316317Y-115586417I-175017J-61D01*
G01*
X117434011Y-74056339D02*
X117434011Y-74856339D01*
X116941317Y-114986339D02*
X116941317Y-115411339D01*
X107680181Y-82747933D02*
X107819373Y-82887125D01*
X108718160Y-59265643D02*
G75*
G02*
X108718198Y-58996119I134740J134743D01*
G01*
D10*
X81243662Y-80776338D02*
X79466189Y-80776338D01*
D11*
X111399375Y-96201671D02*
X111699895Y-96502191D01*
X110250324Y-98517444D02*
X110409423Y-98676542D01*
X99546049Y-120563800D02*
G75*
G02*
X98485399Y-118003141I2560551J2560600D01*
G01*
D10*
X84170000Y-72288946D02*
X84410000Y-72288946D01*
D11*
X117601688Y-65752192D02*
X135992690Y-65752192D01*
D10*
X77530390Y-73445731D02*
X78490390Y-73445731D01*
D11*
X109579963Y-60127449D02*
G75*
G02*
X109580011Y-60989303I-430863J-430951D01*
G01*
X112736604Y-108412189D02*
X112736604Y-107526339D01*
X114440928Y-74231339D02*
X115809011Y-74231339D01*
X117576266Y-63926339D02*
X117576266Y-63501339D01*
X113723587Y-74681338D02*
X114440928Y-74681339D01*
X111399372Y-98782610D02*
G75*
G02*
X111151883Y-98782610I-123744J123747D01*
G01*
X105885390Y-67451340D02*
G75*
G02*
X106510389Y-66826290I625010J40D01*
G01*
X107885390Y-67451340D02*
G75*
G02*
X108510389Y-66826290I625010J40D01*
G01*
D10*
X85367796Y-84036339D02*
G75*
G02*
X85127796Y-84276396I-240096J39D01*
G01*
D11*
X98725389Y-114977723D02*
G75*
G02*
X98485377Y-114737723I11J240023D01*
G01*
D10*
X79690390Y-73205731D02*
G75*
G02*
X79450390Y-73445790I-240090J31D01*
G01*
D11*
X118327189Y-83918184D02*
X136718191Y-83918184D01*
X110444775Y-99489717D02*
G75*
G02*
X110444817Y-100373641I-442075J-441983D01*
G01*
X113322454Y-107312189D02*
X113522454Y-107312189D01*
X111233587Y-84301339D02*
G75*
G02*
X107819377Y-82887120I13J4828439D01*
G01*
X119630389Y-114361339D02*
X120870389Y-114361339D01*
X110303354Y-100515021D02*
X110444775Y-100373599D01*
X117551647Y-56270992D02*
X135942649Y-56270992D01*
X109322454Y-105626339D02*
X109522454Y-105626339D01*
X109101278Y-97615886D02*
G75*
G02*
X109985160Y-97615886I441941J-441944D01*
G01*
X107378194Y-81738839D02*
G75*
G02*
X107378149Y-82078206I-169694J-169661D01*
G01*
X118804499Y-112353800D02*
X137195501Y-112353800D01*
X117956710Y-105702848D02*
G75*
G02*
X120517371Y-104642164I2560690J-2560652D01*
G01*
X119201266Y-64101339D02*
X119401266Y-64101339D01*
D10*
X94972278Y-80343943D02*
X94533871Y-79905536D01*
D11*
X107969904Y-100479669D02*
X107545640Y-100055405D01*
X112974488Y-65956555D02*
G75*
G02*
X112974492Y-66840441I-441788J-441945D01*
G01*
D10*
X84410000Y-74520000D02*
X84410000Y-73128946D01*
D11*
X112523587Y-75906337D02*
G75*
G02*
X111898563Y-75281338I13J625037D01*
G01*
X118026266Y-63501339D02*
G75*
G02*
X118201266Y-63326266I175034J39D01*
G01*
X113348586Y-75281338D02*
G75*
G02*
X112723587Y-75906286I-624986J38D01*
G01*
X116800389Y-94651339D02*
X116600389Y-94651339D01*
X113322454Y-106940489D02*
X113522454Y-106940489D01*
X109666963Y-97934083D02*
X110091228Y-98358348D01*
X117956710Y-105702848D02*
X117408031Y-106251528D01*
X109108304Y-105840489D02*
G75*
G02*
X109322454Y-105626304I214196J-11D01*
G01*
X106344218Y-113300678D02*
X102012805Y-108969265D01*
D10*
X82950768Y-80069231D02*
G75*
G02*
X81243662Y-80776303I-1707068J1707131D01*
G01*
D11*
X116809011Y-73306339D02*
G75*
G02*
X117433961Y-73931339I-11J-624961D01*
G01*
X118747148Y-117120992D02*
X137138150Y-117120992D01*
X113523587Y-74681338D02*
X113723587Y-74681338D01*
D10*
X94887426Y-80768208D02*
X94972278Y-80683355D01*
D11*
X105836709Y-80904460D02*
G75*
G02*
X103715393Y-75783141I5121191J5121260D01*
G01*
X109842893Y-58706598D02*
X109984312Y-58565176D01*
D10*
X94533871Y-79905536D02*
G75*
G02*
X94533840Y-79566095I169729J169736D01*
G01*
X78490390Y-74885731D02*
G75*
G02*
X78730390Y-74645690I240010J31D01*
G01*
D11*
X110523587Y-75456339D02*
X110723587Y-75456339D01*
X116491317Y-114361339D02*
X116491317Y-114986339D01*
X112226856Y-67588069D02*
X112974488Y-66840437D01*
X112387677Y-56161809D02*
G75*
G02*
X117508998Y-54040478I5121323J-5121291D01*
G01*
D12*
X103240390Y-72247340D02*
X103265390Y-72272340D01*
D11*
X107293342Y-81653987D02*
X107378194Y-81738839D01*
D10*
X84650000Y-70488946D02*
G75*
G02*
X84409954Y-70248946I0J240046D01*
G01*
D11*
X117491317Y-115411339D02*
G75*
G02*
X117316317Y-115586417I-175017J-61D01*
G01*
X114316317Y-113136339D02*
G75*
G02*
X114941261Y-113761339I-17J-624961D01*
G01*
X109736604Y-107312189D02*
X109736604Y-108412189D01*
X117802746Y-105331148D02*
X117254067Y-105879828D01*
X119487668Y-74231339D02*
X121350389Y-74231339D01*
X113116317Y-116036339D02*
X113316317Y-116036339D01*
D10*
X77530390Y-74045731D02*
G75*
G02*
X77290369Y-73805731I10J240031D01*
G01*
D11*
X111491317Y-114986339D02*
X111491317Y-114361339D01*
X108005258Y-99348299D02*
G75*
G02*
X108252744Y-99348301I123742J-123701D01*
G01*
X113491317Y-115411339D02*
X113491317Y-114811339D01*
D10*
X85410000Y-72048946D02*
X85410000Y-71928946D01*
D11*
X104169482Y-104280090D02*
X107139051Y-101310520D01*
D10*
X96797105Y-48842892D02*
G75*
G02*
X95090000Y-49550002I-1707105J1707092D01*
G01*
D11*
X112656290Y-66522239D02*
X112656291Y-66522240D01*
X109419473Y-97934084D02*
G75*
G02*
X109666944Y-97934101I123727J-123716D01*
G01*
D10*
X54207106Y-53717106D02*
G75*
G02*
X53499996Y-52010000I1707094J1707106D01*
G01*
X95710000Y-77760000D02*
G75*
G02*
X95950000Y-78000000I0J-240000D01*
G01*
D11*
X108852938Y-59992665D02*
X108852940Y-59992669D01*
X109861412Y-98906354D02*
X109861415Y-98906355D01*
X111491317Y-113761339D02*
G75*
G02*
X112116317Y-113136317I624983J39D01*
G01*
X63650000Y-42270000D02*
X73610000Y-42270000D01*
X109149059Y-59696545D02*
X109149063Y-59696546D01*
X116491317Y-113761339D02*
X116491317Y-114361339D01*
X111348586Y-75281338D02*
X111348586Y-74856339D01*
X106885390Y-67451340D02*
X106885390Y-67676339D01*
X119401266Y-64101339D02*
X120393606Y-64101339D01*
X105378411Y-106940489D02*
X106522454Y-106940489D01*
X109278052Y-98075504D02*
X109419473Y-97934084D01*
X110523587Y-75906337D02*
G75*
G02*
X109898563Y-75281338I13J625037D01*
G01*
X111047191Y-84751338D02*
G75*
G02*
X107632980Y-83337122I9J4828438D01*
G01*
X111898588Y-74856339D02*
X111898588Y-75281338D01*
X105224451Y-107312189D02*
G75*
G02*
X104370883Y-106958648I49J1207289D01*
G01*
X117644499Y-57900000D02*
X136080000Y-57850000D01*
X107736604Y-106726339D02*
X107736604Y-107312189D01*
X112941317Y-113761339D02*
X112941317Y-114361339D01*
X102156530Y-123810678D02*
X99096049Y-120750197D01*
X113373967Y-95711998D02*
G75*
G02*
X115934629Y-94651299I2560733J-2560702D01*
G01*
X118824499Y-117870000D02*
X137215501Y-117870000D01*
X117116317Y-116036339D02*
X117316317Y-116036339D01*
X112322454Y-108626339D02*
X112522454Y-108626339D01*
X105836709Y-80904461D02*
X106600377Y-81668129D01*
X113491317Y-114811339D02*
X113491317Y-114361339D01*
X117984011Y-74856339D02*
G75*
G02*
X118609011Y-74231311I624989J39D01*
G01*
D10*
X83650000Y-71688946D02*
G75*
G02*
X83409954Y-71448946I0J240046D01*
G01*
D11*
X112108304Y-105840489D02*
X112108304Y-106940489D01*
X114556479Y-65258444D02*
G75*
G02*
X116263587Y-64551342I1707121J-1707156D01*
G01*
X104903587Y-124421338D02*
G75*
G02*
X102342929Y-123360675I13J3621338D01*
G01*
X112265580Y-96820388D02*
X112407000Y-96678967D01*
D10*
X86105000Y-56174999D02*
X86105000Y-74657500D01*
D11*
X112322454Y-108998039D02*
G75*
G02*
X111736561Y-108412189I46J585939D01*
G01*
X104717191Y-124871338D02*
G75*
G02*
X102156531Y-123810677I9J3621338D01*
G01*
X108718483Y-114811339D02*
X110316317Y-114811339D01*
X118804499Y-116353800D02*
X137195501Y-116353800D01*
X118277189Y-85810000D02*
X136668191Y-85810000D01*
D10*
X85367796Y-84036339D02*
X85367796Y-83516339D01*
D11*
X107736604Y-105840489D02*
X107736604Y-106726339D01*
X107885390Y-68701338D02*
G75*
G02*
X107710389Y-68876290I-174990J38D01*
G01*
X114247282Y-65567647D02*
G75*
G02*
X113363400Y-65567647I-441941J441944D01*
G01*
X118760000Y-91227808D02*
X137195501Y-91177808D01*
X117609011Y-75606339D02*
X117809011Y-75606339D01*
X112709326Y-64913573D02*
X113363400Y-65567647D01*
X109522454Y-105254639D02*
G75*
G02*
X110108361Y-105840489I46J-585861D01*
G01*
X116609011Y-73756339D02*
X116809011Y-73756339D01*
X117434011Y-74856339D02*
X117434011Y-74981339D01*
X106001924Y-63479215D02*
X106051421Y-63528712D01*
X108159111Y-60982617D02*
G75*
G02*
X108428677Y-60982616I134783J-134782D01*
G01*
X112898588Y-75281338D02*
G75*
G02*
X112723587Y-75456288I-174988J38D01*
G01*
X111116317Y-115586339D02*
X111316317Y-115586339D01*
X118609011Y-74681339D02*
X118809011Y-74681339D01*
X106736604Y-106726339D02*
X106736604Y-105840489D01*
X111723587Y-73456339D02*
G75*
G02*
X111898561Y-73631340I13J-174961D01*
G01*
X110736604Y-108412189D02*
X110736604Y-107312189D01*
X110322454Y-108626339D02*
X110522454Y-108626339D01*
X109985160Y-97615886D02*
X110409425Y-98040151D01*
X116984011Y-73931339D02*
X116984011Y-74056339D01*
X112736604Y-107526339D02*
G75*
G02*
X113322454Y-106940404I585896J39D01*
G01*
X118327189Y-84920489D02*
X136718191Y-84920489D01*
X118654499Y-95700000D02*
X137045501Y-95700000D01*
X117984011Y-74981339D02*
G75*
G02*
X117809011Y-75156411I-175011J-61D01*
G01*
X115116317Y-115586339D02*
X115316317Y-115586339D01*
X108889138Y-101929236D02*
G75*
G02*
X108005256Y-101929236I-441941J441941D01*
G01*
X109149063Y-59696546D02*
X108866220Y-59413703D01*
X108335388Y-67676339D02*
X108335388Y-67451340D01*
X109142421Y-60834556D02*
G75*
G02*
X108872856Y-60834556I-134782J134785D01*
G01*
X117771146Y-52270992D02*
X136162148Y-52270992D01*
X105710389Y-67851339D02*
X105710389Y-67851340D01*
D10*
X95950000Y-78120000D02*
G75*
G02*
X95710000Y-78360000I-240000J0D01*
G01*
D11*
X63630000Y-40280000D02*
X73590000Y-40280000D01*
D10*
X88016901Y-82413099D02*
X88580000Y-81850000D01*
D11*
X112108304Y-107526339D02*
X112108304Y-108412189D01*
X110736604Y-108412189D02*
G75*
G02*
X110522454Y-108626304I-214104J-11D01*
G01*
X116941317Y-113761339D02*
X116941317Y-114361339D01*
D10*
X94390000Y-101018212D02*
X94390000Y-88617500D01*
D11*
X109254881Y-74399029D02*
X109537191Y-74681339D01*
X110316317Y-114361339D02*
G75*
G02*
X110941261Y-114986339I-17J-624961D01*
G01*
X98485389Y-116567901D02*
X98485389Y-118003141D01*
X112088803Y-96360770D02*
X112966811Y-95482760D01*
X108885390Y-67451340D02*
X108885390Y-67676339D01*
D10*
X78490390Y-73445731D02*
X78730390Y-73445731D01*
X94850000Y-79250000D02*
X94850000Y-78600000D01*
D11*
X106710389Y-67276339D02*
G75*
G02*
X106885361Y-67451340I11J-174961D01*
G01*
X104422496Y-64719232D02*
X105662513Y-63479215D01*
X112116317Y-113586339D02*
X112316317Y-113586339D01*
D10*
X92611053Y-81488946D02*
X93770198Y-80329802D01*
X95090000Y-78360000D02*
X95710000Y-78360000D01*
D11*
X63520000Y-44943750D02*
X63480000Y-40256250D01*
D12*
X103740389Y-72018739D02*
X103740389Y-72247340D01*
D10*
X87497108Y-82776339D02*
G75*
G02*
X87257161Y-82536339I-8J239939D01*
G01*
D11*
X108736604Y-107312189D02*
X108736604Y-106940489D01*
D10*
X83747892Y-79272106D02*
X82950768Y-80069231D01*
X79466189Y-83276339D02*
X84527796Y-83276339D01*
D11*
X115984011Y-74056339D02*
G75*
G02*
X115809011Y-74231411I-175011J-61D01*
G01*
X107687063Y-99030101D02*
G75*
G02*
X108570945Y-99030101I441941J-441944D01*
G01*
X92180000Y-41240000D02*
X102140000Y-41240000D01*
X108335388Y-67451340D02*
G75*
G02*
X108510389Y-67276288I175012J40D01*
G01*
X110833688Y-97686593D02*
X110674588Y-97527496D01*
X119464499Y-126373800D02*
X137855501Y-126373800D01*
X119201266Y-64551339D02*
G75*
G02*
X118576261Y-63926339I34J625039D01*
G01*
X108904879Y-114361339D02*
G75*
G02*
X106344224Y-113300671I21J3621339D01*
G01*
X108904879Y-114361339D02*
X110316317Y-114361339D01*
D10*
X86119999Y-78455000D02*
G75*
G02*
X85412889Y-80162103I-2414199J0D01*
G01*
D11*
X79380000Y-42870000D02*
X89340000Y-42870000D01*
X118600389Y-94651339D02*
G75*
G02*
X117975361Y-94026339I11J625039D01*
G01*
X105798612Y-70942760D02*
X109254881Y-74399029D01*
X107863837Y-99489719D02*
X108005258Y-99348299D01*
X112316317Y-113136339D02*
G75*
G02*
X112941261Y-113761339I-17J-624961D01*
G01*
X79360000Y-43830000D02*
X89320000Y-43830000D01*
X109510389Y-68301338D02*
X109710389Y-68301338D01*
X108710389Y-66826341D02*
G75*
G02*
X109335359Y-67451340I11J-624959D01*
G01*
D10*
X77283281Y-76793281D02*
G75*
G02*
X77990404Y-78500388I-1707081J-1707119D01*
G01*
X79690390Y-74405731D02*
G75*
G02*
X79450390Y-74645790I-240090J31D01*
G01*
D11*
X98725389Y-114977723D02*
X98945389Y-114977723D01*
X108411842Y-100921608D02*
X108128999Y-100638765D01*
X107448905Y-82516657D02*
X107680181Y-82747933D01*
X104524857Y-106586935D02*
X104487680Y-106549758D01*
X114941317Y-113761339D02*
X114941317Y-114361339D01*
D10*
X79450390Y-74045731D02*
X78730390Y-74045731D01*
D11*
X114247282Y-65567647D02*
X114388702Y-65426222D01*
X118809011Y-74231339D02*
X119487668Y-74231339D01*
D10*
X93770198Y-80329802D02*
G75*
G02*
X94109609Y-80329801I169706J-169707D01*
G01*
D11*
X105457191Y-70801339D02*
G75*
G02*
X105798620Y-70942751I9J-482861D01*
G01*
X116116317Y-113586339D02*
X116316317Y-113586339D01*
X115941317Y-115411339D02*
X115941317Y-114811339D01*
X108129001Y-100638769D02*
X107969904Y-100479669D01*
D10*
X84410000Y-71688946D02*
X83650000Y-71688946D01*
D11*
X119201266Y-64551339D02*
X119401266Y-64551339D01*
X110692267Y-96661289D02*
X110833688Y-96519869D01*
X111540793Y-98393699D02*
G75*
G02*
X111540750Y-98641144I-123693J-123701D01*
G01*
D10*
X84410000Y-70248946D02*
X84410000Y-70128946D01*
D11*
X111523587Y-73006341D02*
X111723587Y-73006341D01*
D10*
X84410000Y-71088946D02*
X84650000Y-71088946D01*
D11*
X107632977Y-83337125D02*
X105386710Y-81090858D01*
D10*
X69257106Y-53347105D02*
G75*
G02*
X68549997Y-51640000I1707094J1707105D01*
G01*
D11*
X118447189Y-87900000D02*
X136838191Y-87900000D01*
D10*
X92611040Y-81488959D02*
G75*
G02*
X91757500Y-81842501I-853540J853559D01*
G01*
X94850000Y-78600000D02*
G75*
G02*
X95090000Y-78360000I240000J0D01*
G01*
D11*
X120980389Y-94651339D02*
X118600389Y-94651339D01*
X118804499Y-96273800D02*
X137195501Y-96273800D01*
X113187572Y-95261999D02*
G75*
G02*
X115748233Y-94201374I2560628J-2560701D01*
G01*
X112974488Y-65956555D02*
X112320415Y-65302482D01*
X110444775Y-99489717D02*
X110020510Y-99065452D01*
X112348586Y-74231340D02*
X112348586Y-74856339D01*
D10*
X78730390Y-72845731D02*
G75*
G02*
X78490369Y-72605731I10J240031D01*
G01*
D11*
X58650000Y-44883750D02*
X58610000Y-40196250D01*
D10*
X77290390Y-73685731D02*
G75*
G02*
X77530390Y-73445690I240010J31D01*
G01*
D11*
X105643588Y-70351340D02*
X104957789Y-70351340D01*
X118914499Y-103718184D02*
X137305501Y-103718184D01*
X105378411Y-106940489D02*
G75*
G02*
X104524875Y-106586916I-11J1206989D01*
G01*
X118957148Y-106950992D02*
X137348150Y-106950992D01*
X110409423Y-98676542D02*
X110833687Y-99100806D01*
X108322454Y-108626339D02*
G75*
G02*
X108108261Y-108412189I46J214239D01*
G01*
X109510389Y-67851340D02*
G75*
G02*
X109335360Y-67676339I11J175040D01*
G01*
X106335388Y-67676339D02*
G75*
G02*
X105710389Y-68301288I-624988J39D01*
G01*
D10*
X94850000Y-77520000D02*
X94850000Y-77400000D01*
D11*
X108447196Y-100320569D02*
X108447200Y-100320570D01*
X112523587Y-75906337D02*
X112723587Y-75906337D01*
D10*
X68550000Y-51640000D02*
X68550000Y-42400000D01*
D11*
X113116317Y-116036339D02*
G75*
G02*
X112491361Y-115411339I-17J624939D01*
G01*
X111491317Y-115411339D02*
X111491317Y-114986339D01*
X116077191Y-64101339D02*
X117401266Y-64101339D01*
X112656292Y-66274750D02*
G75*
G02*
X112656296Y-66522246I-123592J-123750D01*
G01*
X118427189Y-82383800D02*
X136818191Y-82383800D01*
X106736604Y-105840489D02*
G75*
G02*
X107322454Y-105254604I585896J-11D01*
G01*
D10*
X79690390Y-74405731D02*
X79690390Y-74285731D01*
D11*
X106426186Y-62715538D02*
X106511041Y-62630686D01*
X111522454Y-105254639D02*
G75*
G02*
X112108361Y-105840489I46J-585861D01*
G01*
X107704737Y-101628717D02*
X108005256Y-101929236D01*
X113285009Y-95800958D02*
X113373968Y-95711999D01*
X103715389Y-66426339D02*
G75*
G02*
X104422477Y-64719213I2414211J39D01*
G01*
X109723587Y-74681338D02*
G75*
G02*
X109898562Y-74856339I13J-174962D01*
G01*
X79270000Y-44703750D02*
X79230000Y-40016250D01*
X119626647Y-123140992D02*
X138017649Y-123140992D01*
D10*
X85410000Y-70848946D02*
X85410000Y-70728946D01*
D11*
X105224451Y-107312189D02*
X106522454Y-107312189D01*
X108510389Y-67276339D02*
X108710389Y-67276339D01*
X107139051Y-101310520D02*
G75*
G02*
X108022933Y-101310520I441941J-441941D01*
G01*
X73620000Y-44923750D02*
X73580000Y-40236250D01*
X115941317Y-114361339D02*
X115941317Y-113761339D01*
X98945389Y-115577723D02*
X98725389Y-115577723D01*
X108859582Y-58854657D02*
G75*
G02*
X109129183Y-58854621I134818J-134743D01*
G01*
X105885390Y-67676339D02*
G75*
G02*
X105710389Y-67851290I-174990J39D01*
G01*
D10*
X85170000Y-70488946D02*
X84650000Y-70488946D01*
D11*
X108108304Y-105840489D02*
X108108304Y-106726339D01*
X118427189Y-86383800D02*
X136818191Y-86383800D01*
X48550000Y-44903750D02*
X48510000Y-40216250D01*
X113491317Y-115411339D02*
G75*
G02*
X113316317Y-115586417I-175017J-61D01*
G01*
X118654499Y-115780000D02*
X137045501Y-115780000D01*
X113348586Y-74856339D02*
G75*
G02*
X113523587Y-74681286I175014J39D01*
G01*
X118804499Y-92273800D02*
X137195501Y-92273800D01*
X119407148Y-127140992D02*
X137798150Y-127140992D01*
D10*
X85412892Y-80162106D02*
X85005766Y-80569233D01*
D11*
X117651688Y-64862681D02*
X136042690Y-64862681D01*
X109543215Y-99224551D02*
X109543216Y-99224554D01*
X109702315Y-98747258D02*
X109278051Y-98322994D01*
X104717191Y-124871339D02*
X121170389Y-124871339D01*
X108852940Y-59992669D02*
X108570097Y-59709826D01*
X106939789Y-81668130D02*
G75*
G02*
X106600393Y-81668113I-169689J169730D01*
G01*
X116600389Y-94201339D02*
X116094283Y-94201339D01*
D10*
X78490390Y-74045731D02*
X77530390Y-74045731D01*
D11*
X109154306Y-99613462D02*
X109313404Y-99772561D01*
X117608998Y-55503800D02*
X136000000Y-55503800D01*
X107885390Y-67676339D02*
X107885390Y-67451340D01*
X117651688Y-63860376D02*
X136042690Y-63860376D01*
X115984011Y-74056339D02*
X115984011Y-73931339D01*
X107335388Y-67676339D02*
X107335388Y-68301338D01*
D10*
X95090000Y-49550000D02*
X92730000Y-49550000D01*
X86897108Y-81376339D02*
X87017108Y-81376339D01*
D11*
X115491317Y-114361339D02*
X115491317Y-113761339D01*
X114491317Y-113761339D02*
X114491317Y-114361339D01*
D12*
X103740389Y-66633939D02*
X103715390Y-66608940D01*
D11*
X114941317Y-114361339D02*
X114941317Y-114811339D01*
X113108304Y-108412189D02*
X113108304Y-107526339D01*
X116975389Y-93101339D02*
G75*
G02*
X117600389Y-92476289I625011J39D01*
G01*
X119014499Y-102183800D02*
X137405501Y-102183800D01*
X109438542Y-61130677D02*
X109579963Y-60989255D01*
D10*
X85005766Y-80569233D02*
G75*
G02*
X83298660Y-81276303I-1707066J1707133D01*
G01*
D11*
X48660000Y-40240000D02*
X58620000Y-40240000D01*
X107862990Y-60686496D02*
G75*
G02*
X108724796Y-60686496I430903J-430903D01*
G01*
D10*
X85367796Y-83516339D02*
G75*
G02*
X85607796Y-83276296I240004J39D01*
G01*
D11*
X118914499Y-104720489D02*
X137305501Y-104720489D01*
D10*
X95090000Y-77760000D02*
G75*
G02*
X94850000Y-77520000I0J240000D01*
G01*
X77283281Y-76793281D02*
X54207106Y-53717106D01*
D11*
X107335388Y-67451340D02*
X107335388Y-67676339D01*
X113929084Y-65249449D02*
X114070506Y-65108026D01*
X107108304Y-106726339D02*
G75*
G02*
X106522454Y-107312204I-585904J39D01*
G01*
X118966647Y-93040992D02*
X137357649Y-93040992D01*
X109283842Y-60423569D02*
G75*
G02*
X109283891Y-60693183I-134742J-134831D01*
G01*
X103972496Y-64576990D02*
X107862990Y-60686496D01*
X118316317Y-114361339D02*
X119630389Y-114361339D01*
X112491317Y-113761339D02*
X112491317Y-114361339D01*
X110322454Y-108626339D02*
G75*
G02*
X110108261Y-108412189I46J214239D01*
G01*
X111941317Y-114986339D02*
X111941317Y-114361339D01*
X117634499Y-76163800D02*
X136025501Y-76163800D01*
X107545640Y-100055405D02*
G75*
G02*
X107545676Y-99171559I441960J441905D01*
G01*
X111947383Y-96502192D02*
X112088803Y-96360770D01*
X92080000Y-44880000D02*
X102040000Y-44880000D01*
X106953930Y-81653986D02*
G75*
G02*
X107293306Y-81654022I169670J-169714D01*
G01*
D10*
X95950000Y-78120000D02*
X95950000Y-78000000D01*
D11*
X107510389Y-69326337D02*
X107710389Y-69326337D01*
X108836111Y-99931661D02*
X108836109Y-99931659D01*
X118116317Y-114811339D02*
X118316317Y-114811339D01*
X109736604Y-105840489D02*
X109736604Y-106940489D01*
X116609011Y-73306339D02*
X116809011Y-73306339D01*
X118434011Y-74856339D02*
G75*
G02*
X118609011Y-74681311I174989J39D01*
G01*
X104487680Y-104598288D02*
X107457249Y-101628718D01*
X112322454Y-108998039D02*
X112522454Y-108998039D01*
X111275627Y-97492139D02*
X111275630Y-97492140D01*
X108335388Y-68701338D02*
G75*
G02*
X107710389Y-69326288I-624988J38D01*
G01*
X112736604Y-108412189D02*
G75*
G02*
X112522454Y-108626304I-214104J-11D01*
G01*
X111116317Y-116036339D02*
G75*
G02*
X110491361Y-115411339I-17J624939D01*
G01*
D10*
X78490390Y-72485731D02*
X78490390Y-72008901D01*
D11*
X109723587Y-74231339D02*
X109723587Y-74231340D01*
X110736604Y-105840489D02*
G75*
G02*
X111322454Y-105254604I585896J-11D01*
G01*
D10*
X79450390Y-72845731D02*
G75*
G02*
X79690369Y-73085731I10J-239969D01*
G01*
D11*
X110992787Y-97209297D02*
X110692266Y-96908779D01*
X115941317Y-113761339D02*
G75*
G02*
X116116317Y-113586317I174983J39D01*
G01*
X116316317Y-113136339D02*
G75*
G02*
X116941261Y-113761339I-17J-624961D01*
G01*
D12*
X103740389Y-72247340D02*
X103715389Y-72272340D01*
D11*
X107885390Y-68701338D02*
X107885390Y-68301338D01*
X116434011Y-74056339D02*
G75*
G02*
X115809011Y-74681411I-625011J-61D01*
G01*
D10*
X53500000Y-52010000D02*
X53500000Y-42500000D01*
D11*
X114491317Y-114361339D02*
X114491317Y-114811339D01*
X115116317Y-115586339D02*
G75*
G02*
X114941361Y-115411339I-17J174939D01*
G01*
X109142421Y-60834556D02*
X109283842Y-60693134D01*
X115941317Y-114811339D02*
X115941317Y-114361339D01*
X110108304Y-105840489D02*
X110108304Y-106940489D01*
X111322454Y-105254639D02*
X111522454Y-105254639D01*
X117425389Y-93101339D02*
G75*
G02*
X117600389Y-92926289I175011J39D01*
G01*
D10*
X85007796Y-84276339D02*
X85127796Y-84276339D01*
D11*
X112265580Y-96820388D02*
G75*
G02*
X111381698Y-96820388I-441941J441937D01*
G01*
X109438542Y-61130677D02*
G75*
G02*
X108576736Y-61130677I-430903J430903D01*
G01*
X110020510Y-99065452D02*
X109861412Y-98906354D01*
X111736604Y-107526339D02*
X111736604Y-108412189D01*
X108710389Y-67276339D02*
G75*
G02*
X108885361Y-67451340I11J-174961D01*
G01*
X118747148Y-97040992D02*
X137138150Y-97040992D01*
X48640000Y-44030000D02*
X58600000Y-44030000D01*
X79380000Y-41050000D02*
X89340000Y-41050000D01*
X106511041Y-62630686D02*
X106943638Y-62198090D01*
X105662513Y-63479215D02*
G75*
G02*
X106001924Y-63479214I169706J-169707D01*
G01*
X109702313Y-99383649D02*
X109543215Y-99224551D01*
X110348586Y-74856339D02*
X110348586Y-75281338D01*
X106885390Y-67676339D02*
X106885390Y-68301338D01*
D10*
X84767796Y-83516339D02*
X84767796Y-84036339D01*
X91750000Y-81850000D02*
X88570000Y-81850000D01*
D11*
X107736604Y-107312189D02*
X107736604Y-108412189D01*
D10*
X86812106Y-54467892D02*
X91022893Y-50257106D01*
D11*
X110568521Y-98199247D02*
X110727619Y-98358346D01*
X108718483Y-114811339D02*
G75*
G02*
X106157826Y-113750673I17J3621339D01*
G01*
X113929084Y-65249449D02*
G75*
G02*
X113681596Y-65249449I-123744J123746D01*
G01*
X109985157Y-100196825D02*
X110126578Y-100055403D01*
X104903587Y-124421339D02*
X121170389Y-124421339D01*
X117458998Y-54930000D02*
X135850000Y-54930000D01*
D10*
X83650000Y-72888946D02*
G75*
G02*
X83409954Y-72648946I0J240046D01*
G01*
D11*
X108959855Y-98641190D02*
G75*
G02*
X108959806Y-97757259I441945J441990D01*
G01*
X109108304Y-108412189D02*
G75*
G02*
X108522454Y-108998004I-585804J-11D01*
G01*
X117116317Y-115586339D02*
G75*
G02*
X116941361Y-115411339I-17J174939D01*
G01*
X116316804Y-64551339D02*
X117401266Y-64551339D01*
X117609011Y-75606339D02*
G75*
G02*
X116984061Y-74981339I-11J624939D01*
G01*
X104957789Y-70351340D02*
X104932789Y-70326340D01*
X114116317Y-113136339D02*
X114316317Y-113136339D01*
X98485389Y-112100579D02*
G75*
G02*
X99546033Y-109539902I3621211J79D01*
G01*
X117609011Y-75156339D02*
G75*
G02*
X117434061Y-74981339I-11J174939D01*
G01*
D10*
X87497108Y-82776339D02*
X87617108Y-82776339D01*
D11*
X117658998Y-51540000D02*
X136050000Y-51540000D01*
D10*
X84170000Y-72888946D02*
G75*
G02*
X84410054Y-73128946I0J-240054D01*
G01*
D11*
X112320415Y-65302482D02*
G75*
G02*
X112320377Y-65054956I123785J123782D01*
G01*
X114388702Y-65426222D02*
X114556480Y-65258445D01*
D10*
X95710000Y-77760000D02*
X95090000Y-77760000D01*
X85170000Y-71688946D02*
G75*
G02*
X85410054Y-71928946I0J-240054D01*
G01*
D11*
X107322454Y-105254639D02*
X107522454Y-105254639D01*
X110736604Y-107312189D02*
X110736604Y-106940489D01*
X119314499Y-125800000D02*
X137705501Y-125800000D01*
X108712362Y-101222128D02*
G75*
G02*
X108712390Y-101469644I-123862J-123772D01*
G01*
X108570097Y-59709826D02*
X108422037Y-59561766D01*
X118609011Y-74231339D02*
X118809011Y-74231339D01*
X110941317Y-114986339D02*
X110941317Y-115411339D01*
X117707189Y-61280000D02*
X136142690Y-61230000D01*
D10*
X83298660Y-81276340D02*
X79466189Y-81276340D01*
D11*
X112316317Y-113586339D02*
G75*
G02*
X112491261Y-113761339I-17J-174961D01*
G01*
X110736604Y-106940489D02*
X110736604Y-105840489D01*
X111348586Y-75281338D02*
G75*
G02*
X110723587Y-75906286I-624986J38D01*
G01*
X109335388Y-67451340D02*
X109335388Y-67676339D01*
X108422037Y-59561766D02*
G75*
G02*
X108422076Y-58699995I430863J430866D01*
G01*
X110250326Y-98517446D02*
X110250324Y-98517444D01*
X118966647Y-113120992D02*
X137357649Y-113120992D01*
X111108304Y-105840489D02*
G75*
G02*
X111322454Y-105626304I214196J-11D01*
G01*
D10*
X94618726Y-79481273D02*
X94850000Y-79250000D01*
D11*
X111898588Y-74231340D02*
X111898588Y-74856339D01*
X117434011Y-73931339D02*
X117434011Y-74056339D01*
X110539625Y-58009861D02*
X112387677Y-56161809D01*
X111858990Y-98075502D02*
X111434725Y-97651237D01*
X120980389Y-94201339D02*
X118600389Y-94201339D01*
D10*
X77283281Y-76793281D02*
G75*
G02*
X77990404Y-78500388I-1707081J-1707119D01*
G01*
D11*
X109108304Y-108412189D02*
X109108304Y-107312189D01*
D10*
X85410000Y-70848946D02*
G75*
G02*
X85170000Y-71089000I-240100J46D01*
G01*
D11*
X117491317Y-115411339D02*
X117491317Y-114986339D01*
X110280433Y-58861297D02*
X110835746Y-58305982D01*
X110898588Y-73631340D02*
G75*
G02*
X111523587Y-73006288I625012J40D01*
G01*
D10*
X83650000Y-72288946D02*
X84170000Y-72288946D01*
D11*
X117491317Y-114986339D02*
G75*
G02*
X118116317Y-114361317I624983J39D01*
G01*
D10*
X77783283Y-61873283D02*
X69257106Y-53347106D01*
D11*
X113491317Y-114361339D02*
X113491317Y-113761339D01*
X63630000Y-43110000D02*
X73590000Y-43110000D01*
X108959855Y-97757308D02*
X109101278Y-97615886D01*
X111434725Y-97651237D02*
X111275627Y-97492139D01*
X118434011Y-74981339D02*
G75*
G02*
X117809011Y-75606411I-625011J-61D01*
G01*
X111275630Y-97492140D02*
X111151884Y-97368397D01*
X110898588Y-74231340D02*
X110898588Y-73631340D01*
D10*
X86657108Y-81616339D02*
G75*
G02*
X86897108Y-81376308I239992J39D01*
G01*
D11*
X113522454Y-106940489D02*
X114693407Y-106940489D01*
X98945389Y-114977723D02*
G75*
G02*
X99185377Y-115217723I11J-239977D01*
G01*
X114440928Y-74681339D02*
X115809011Y-74681339D01*
X113941317Y-114361339D02*
X113941317Y-113761339D01*
X111108304Y-107312189D02*
X111108304Y-106940489D01*
X109313404Y-99772561D02*
X109737668Y-100196825D01*
X115491317Y-115411339D02*
X115491317Y-114811339D01*
X108736604Y-108412189D02*
X108736604Y-107312189D01*
X105186390Y-68301338D02*
X105710389Y-68301338D01*
D10*
X95097106Y-102725318D02*
X97232233Y-104860445D01*
D11*
X119630389Y-114811339D02*
X120870389Y-114811339D01*
X116984011Y-74056339D02*
X116984011Y-74856339D01*
X113491317Y-113761339D02*
G75*
G02*
X114116317Y-113136317I624983J39D01*
G01*
X112108304Y-106940489D02*
X112108304Y-107526339D01*
X110491317Y-114986339D02*
X110491317Y-115411339D01*
X118809011Y-74681339D02*
X119487668Y-74681339D01*
X111348586Y-73631340D02*
G75*
G02*
X111523587Y-73456286I175014J40D01*
G01*
X117802746Y-105331148D02*
G75*
G02*
X120363407Y-104270490I2560654J-2560652D01*
G01*
D10*
X85170000Y-70488946D02*
G75*
G02*
X85410054Y-70728946I0J-240054D01*
G01*
D11*
X111108304Y-108412189D02*
X111108304Y-107312189D01*
X110409425Y-98040151D02*
X110568523Y-98199249D01*
D10*
X77290390Y-73805731D02*
X77290390Y-73685731D01*
D11*
X112320415Y-65054994D02*
X112461838Y-64913572D01*
X116984011Y-74856339D02*
X116984011Y-74981339D01*
X118600389Y-94201339D02*
G75*
G02*
X118425361Y-94026339I11J175039D01*
G01*
X117941317Y-115411339D02*
G75*
G02*
X117316317Y-116036417I-625017J-61D01*
G01*
X107378194Y-82078251D02*
X107364050Y-82092392D01*
X112407000Y-96678967D02*
X113285009Y-95800958D01*
D10*
X83410000Y-72648946D02*
X83410000Y-72528946D01*
D11*
X108730039Y-100603412D02*
X108447196Y-100320569D01*
X118425389Y-94026339D02*
X118425389Y-93101339D01*
X109861415Y-98906355D02*
X109702315Y-98747258D01*
X117576266Y-63926339D02*
G75*
G02*
X117401266Y-64101366I-175066J39D01*
G01*
X112941317Y-114361339D02*
X112941317Y-114811339D01*
D10*
X94533871Y-79566125D02*
X94618726Y-79481273D01*
D11*
X117771146Y-50770992D02*
X136162148Y-50770992D01*
D10*
X84410000Y-72288946D02*
X85170000Y-72288946D01*
D11*
X119420000Y-121327808D02*
X137855501Y-121277808D01*
D10*
X94850000Y-71720000D02*
G75*
G02*
X95557109Y-70012896I2414200J0D01*
G01*
D11*
X110523587Y-75456339D02*
G75*
G02*
X110348561Y-75281338I13J175039D01*
G01*
D10*
X98243662Y-68326338D02*
X99547989Y-68326338D01*
X84650000Y-71088946D02*
X85170000Y-71088946D01*
D11*
X110898588Y-75281338D02*
X110898588Y-74856339D01*
X109283842Y-60423569D02*
X109135781Y-60275508D01*
X117116317Y-116036339D02*
G75*
G02*
X116491361Y-115411339I-17J624939D01*
G01*
X118704499Y-114890489D02*
X137095501Y-114890489D01*
D10*
X79450390Y-72845731D02*
X78730390Y-72845731D01*
D11*
X108718159Y-58996079D02*
X108859582Y-58854657D01*
X106510389Y-66826341D02*
X106710389Y-66826341D01*
X106510389Y-67276339D02*
X106710389Y-67276339D01*
X106335388Y-67451340D02*
G75*
G02*
X106510389Y-67276288I175012J40D01*
G01*
X107885390Y-68301338D02*
X107885390Y-67676339D01*
X110322454Y-108998039D02*
G75*
G02*
X109736561Y-108412189I46J585939D01*
G01*
X110322454Y-108998039D02*
X110522454Y-108998039D01*
D10*
X86104999Y-56174999D02*
G75*
G02*
X86812109Y-54467895I2414201J-1D01*
G01*
D11*
X119364499Y-124910489D02*
X137755501Y-124910489D01*
X117609011Y-75156339D02*
X117809011Y-75156339D01*
D10*
X97029999Y-48309999D02*
G75*
G02*
X96817854Y-48822118I-724199J-1D01*
G01*
D11*
X112523587Y-75456339D02*
X112723587Y-75456339D01*
X110327191Y-68301338D02*
X110513588Y-68301338D01*
D10*
X84455000Y-77565000D02*
X84455000Y-76972500D01*
D11*
X107335388Y-68301338D02*
X107335388Y-68701338D01*
X108736604Y-106940489D02*
X108736604Y-105840489D01*
X108995210Y-99454366D02*
X109154308Y-99613464D01*
X119201266Y-64101339D02*
G75*
G02*
X119026261Y-63926339I34J175039D01*
G01*
X108724796Y-60686496D02*
X108872856Y-60834556D01*
X119176647Y-102950992D02*
X137567649Y-102950992D01*
X99185389Y-115217723D02*
X99185389Y-115337723D01*
X117628998Y-57020000D02*
X136020000Y-57020000D01*
X113132591Y-95316980D02*
X113187572Y-95261999D01*
X116800389Y-94201339D02*
X116600389Y-94201339D01*
X92180000Y-43060000D02*
X102140000Y-43060000D01*
X107364051Y-82431804D02*
G75*
G02*
X107364053Y-82092394I169849J169704D01*
G01*
D10*
X77783283Y-61873283D02*
G75*
G02*
X78490404Y-63580390I-1707083J-1707117D01*
G01*
D12*
X103240390Y-72018739D02*
X103240390Y-72247340D01*
D11*
X107457248Y-101628717D02*
G75*
G02*
X107704737Y-101628717I123744J-123747D01*
G01*
X115491317Y-114811339D02*
X115491317Y-114361339D01*
X111523587Y-73456339D02*
X111723587Y-73456339D01*
X119484499Y-127890000D02*
X137875501Y-127890000D01*
D10*
X85892801Y-83276339D02*
X87738839Y-83276339D01*
D11*
X110374070Y-96343093D02*
X110515493Y-96201671D01*
X118369838Y-87150992D02*
X136760840Y-87150992D01*
X116975389Y-94026339D02*
G75*
G02*
X116800389Y-94201289I-174989J39D01*
G01*
X113941317Y-115411339D02*
G75*
G02*
X113316317Y-116036417I-625017J-61D01*
G01*
D10*
X97030000Y-48310000D02*
X97030000Y-42240000D01*
D11*
X92200000Y-42220000D02*
X102160000Y-42220000D01*
D10*
X88867500Y-84405000D02*
X91177500Y-84405000D01*
D11*
X109522454Y-105626339D02*
G75*
G02*
X109736661Y-105840489I46J-214161D01*
G01*
X111736604Y-106940489D02*
X111736604Y-107526339D01*
X98035389Y-111914183D02*
G75*
G02*
X99096060Y-109353533I3621311J-17D01*
G01*
X113027522Y-64595375D02*
X113681596Y-65249449D01*
X106475684Y-63104447D02*
G75*
G02*
X106475731Y-63443906I-169684J-169753D01*
G01*
X105457191Y-70801339D02*
X105186390Y-70801339D01*
D10*
X85170000Y-71688946D02*
X84410000Y-71688946D01*
D11*
X111047191Y-84751339D02*
X121140389Y-84751339D01*
X117800389Y-92926339D02*
X117600389Y-92926339D01*
X111736604Y-105840489D02*
X111736604Y-106940489D01*
X105386710Y-81090857D02*
G75*
G02*
X103265396Y-75969538I5121190J5121257D01*
G01*
X114370084Y-64808445D02*
G75*
G02*
X116077191Y-64101317I1707116J-1707055D01*
G01*
X108108304Y-107312189D02*
X108108304Y-108412189D01*
X109984312Y-58565176D02*
X110539625Y-58009861D01*
X117751688Y-62325992D02*
X136142690Y-62325992D01*
X117408030Y-106251527D02*
G75*
G02*
X114847371Y-107312188I-2560730J2560827D01*
G01*
X118201266Y-62876339D02*
X118401266Y-62876339D01*
X117729540Y-54412189D02*
X121340389Y-54412189D01*
X117508998Y-54040489D02*
X135900000Y-54040489D01*
X116434011Y-74056339D02*
X116434011Y-73931339D01*
X110108304Y-107312189D02*
X110108304Y-108412189D01*
X117654499Y-77680000D02*
X136045501Y-77680000D01*
X111348586Y-74231340D02*
X111348586Y-73631340D01*
X109842893Y-58706598D02*
G75*
G02*
X109573317Y-58706609I-134793J134698D01*
G01*
D10*
X77990388Y-78500388D02*
X77990388Y-79800539D01*
D11*
X107108304Y-106726339D02*
X107108304Y-105840489D01*
X118434011Y-74981339D02*
X118434011Y-74856339D01*
D10*
X94850000Y-77400000D02*
X94850000Y-77329522D01*
D11*
X108288100Y-100161473D02*
X107863836Y-99737209D01*
X106710389Y-66826341D02*
G75*
G02*
X107335359Y-67451340I11J-624959D01*
G01*
X99185389Y-115337723D02*
G75*
G02*
X98945389Y-115577689I-239989J23D01*
G01*
X117254067Y-105879828D02*
G75*
G02*
X114693406Y-106940502I-2560667J2560628D01*
G01*
D10*
X91022893Y-50257106D02*
G75*
G02*
X92730000Y-49549995I1707107J-1707094D01*
G01*
D11*
X106736604Y-106726339D02*
G75*
G02*
X106522454Y-106940504I-214204J39D01*
G01*
X99096049Y-120750196D02*
G75*
G02*
X98035432Y-118189537I2560651J2560596D01*
G01*
X113941317Y-115411339D02*
X113941317Y-114811339D01*
X92160000Y-44020000D02*
X102120000Y-44020000D01*
X113941317Y-113761339D02*
G75*
G02*
X114116317Y-113586317I174983J39D01*
G01*
X108128999Y-100638765D02*
X108129001Y-100638769D01*
X112941317Y-114811339D02*
X112941317Y-115411339D01*
X113116317Y-115586339D02*
G75*
G02*
X112941361Y-115411339I-17J174939D01*
G01*
X79280000Y-44690000D02*
X89240000Y-44690000D01*
X111491317Y-115411339D02*
G75*
G02*
X111316317Y-115586417I-175017J-61D01*
G01*
X110833688Y-96519869D02*
G75*
G02*
X111081144Y-96519901I123712J-123731D01*
G01*
X110091228Y-98358348D02*
X110250326Y-98517446D01*
X118382690Y-81337808D02*
X136818191Y-81287808D01*
X107364051Y-82431804D02*
X107448905Y-82516657D01*
X116316317Y-113586339D02*
G75*
G02*
X116491261Y-113761339I-17J-174961D01*
G01*
D12*
X104932789Y-70826339D02*
X105161390Y-70826339D01*
D11*
X110957430Y-97810336D02*
X110957431Y-97810339D01*
X119034499Y-107700000D02*
X137425501Y-107700000D01*
X108677013Y-99772563D02*
X108836111Y-99931661D01*
D10*
X83410000Y-72528946D02*
G75*
G02*
X83650000Y-72288900I240000J46D01*
G01*
D11*
X112036290Y-67142239D02*
X112656290Y-66522239D01*
D10*
X83650000Y-71088946D02*
X84410000Y-71088946D01*
D11*
X117590000Y-71117808D02*
X136025501Y-71067808D01*
X103715389Y-75783141D02*
X103715389Y-72272340D01*
D10*
X77990388Y-78500388D02*
X77990388Y-79800539D01*
D11*
X109573079Y-74080831D02*
X109723587Y-74231339D01*
X63530000Y-44930000D02*
X73490000Y-44930000D01*
X118576266Y-63501339D02*
X118576266Y-63926339D01*
X111522454Y-105626339D02*
G75*
G02*
X111736661Y-105840489I46J-214161D01*
G01*
X115941317Y-115411339D02*
G75*
G02*
X115316317Y-116036417I-625017J-61D01*
G01*
X106157822Y-113750678D02*
X101694607Y-109287463D01*
X112322454Y-108626339D02*
G75*
G02*
X112108261Y-108412189I46J214239D01*
G01*
X106885390Y-68301338D02*
X106885390Y-68701338D01*
X103715390Y-66426339D02*
X103715390Y-66608940D01*
X108836109Y-99931659D02*
X108995208Y-100090757D01*
X108022933Y-101310520D02*
X108323452Y-101611039D01*
X112523587Y-75456339D02*
G75*
G02*
X112348561Y-75281338I13J175039D01*
G01*
D10*
X84170000Y-72888946D02*
X83650000Y-72888946D01*
X78730390Y-73445731D02*
X79450390Y-73445731D01*
X85607796Y-83276339D02*
X85727796Y-83276339D01*
D11*
X118116317Y-114361339D02*
X118316317Y-114361339D01*
X114941317Y-114811339D02*
X114941317Y-115411339D01*
X117634499Y-72163800D02*
X136025501Y-72163800D01*
X108570945Y-99030101D02*
X108995210Y-99454366D01*
X112491317Y-114811339D02*
X112491317Y-115411339D01*
X118026266Y-63926339D02*
X118026266Y-63501339D01*
X108570941Y-101611039D02*
X108712362Y-101469617D01*
X92180000Y-40230000D02*
X102140000Y-40230000D01*
X117508998Y-53038184D02*
X135900000Y-53038184D01*
X48680000Y-42230000D02*
X58640000Y-42230000D01*
X110523587Y-75906337D02*
X110723587Y-75906337D01*
X112656292Y-66274750D02*
X112002219Y-65620677D01*
X119487668Y-74681339D02*
X121350389Y-74681339D01*
X109537191Y-74681339D02*
X109723587Y-74681338D01*
X116116317Y-113136339D02*
X116316317Y-113136339D01*
D10*
X87017108Y-81376339D02*
G75*
G02*
X87257061Y-81616339I-8J-239961D01*
G01*
D11*
X117425389Y-93101339D02*
X117425389Y-94026339D01*
X112143640Y-64595375D02*
G75*
G02*
X113027522Y-64595375I441941J-441937D01*
G01*
X107322454Y-105626339D02*
X107522454Y-105626339D01*
X112034297Y-67144232D02*
X112036290Y-67142239D01*
X108322454Y-108998039D02*
G75*
G02*
X107736561Y-108412189I46J585939D01*
G01*
X110568523Y-98199249D02*
X110568521Y-98199247D01*
X112002219Y-65620677D02*
G75*
G02*
X112002183Y-64736759I441981J441977D01*
G01*
D10*
X86657108Y-82536339D02*
G75*
G02*
X86417108Y-82776408I-240108J39D01*
G01*
D11*
X111723587Y-73006341D02*
G75*
G02*
X112348559Y-73631340I13J-624959D01*
G01*
X116809011Y-73756339D02*
G75*
G02*
X116983961Y-73931339I-11J-174961D01*
G01*
D10*
X78490390Y-79800539D02*
X78490390Y-74885731D01*
X93682893Y-86910393D02*
X91310000Y-84537500D01*
D11*
X110316317Y-114811339D02*
G75*
G02*
X110491261Y-114986339I-17J-174961D01*
G01*
X118704499Y-94810489D02*
X137095501Y-94810489D01*
X108322454Y-108626339D02*
X108522454Y-108626339D01*
X114116317Y-113586339D02*
X114316317Y-113586339D01*
X110303354Y-100515021D02*
G75*
G02*
X109419472Y-100515021I-441941J441941D01*
G01*
X108322454Y-108998039D02*
X108522454Y-108998039D01*
X104487680Y-106459034D02*
X104487680Y-106549758D01*
X111941317Y-114361339D02*
X111941317Y-113761339D01*
X109431902Y-59979388D02*
X109149059Y-59696545D01*
X106390832Y-63528712D02*
X106475684Y-63443859D01*
X111491317Y-114361339D02*
X111491317Y-113761339D01*
X111717569Y-99100806D02*
X111858990Y-98959384D01*
X108335388Y-68301338D02*
X108335388Y-67676339D01*
X106390832Y-63528712D02*
G75*
G02*
X106051421Y-63528713I-169706J169707D01*
G01*
D10*
X96536555Y-69033444D02*
G75*
G02*
X98243662Y-68326295I1707145J-1707056D01*
G01*
D11*
X107510389Y-68876339D02*
X107710389Y-68876339D01*
X107510389Y-69326337D02*
G75*
G02*
X106885363Y-68701338I11J625037D01*
G01*
X108108304Y-106726339D02*
X108108304Y-107312189D01*
X112966811Y-95482760D02*
X113132591Y-95316980D01*
X107522454Y-105254639D02*
G75*
G02*
X108108361Y-105840489I46J-585861D01*
G01*
X107522454Y-105626339D02*
G75*
G02*
X107736661Y-105840489I46J-214161D01*
G01*
X110515493Y-96201671D02*
G75*
G02*
X111399375Y-96201671I441941J-441944D01*
G01*
X112116317Y-113136339D02*
X112316317Y-113136339D01*
X114316317Y-113586339D02*
G75*
G02*
X114491261Y-113761339I-17J-174961D01*
G01*
X119026266Y-63501339D02*
X119026266Y-63926339D01*
X109129146Y-58854658D02*
X109277207Y-59002719D01*
X108736604Y-108412189D02*
G75*
G02*
X108522454Y-108626304I-214104J-11D01*
G01*
X48660000Y-43070000D02*
X58620000Y-43070000D01*
X111858990Y-98075502D02*
G75*
G02*
X111858947Y-98959341I-441890J-441898D01*
G01*
X112461838Y-64913572D02*
G75*
G02*
X112709345Y-64913554I123762J-123728D01*
G01*
D10*
X85410000Y-72048946D02*
G75*
G02*
X85170000Y-72289000I-240100J46D01*
G01*
D11*
X109030559Y-100903932D02*
X108730039Y-100603412D01*
X117941317Y-115411339D02*
X117941317Y-114986339D01*
X117694337Y-67093184D02*
X136085339Y-67093184D01*
X113941317Y-114811339D02*
X113941317Y-114361339D01*
X117800389Y-92926339D02*
G75*
G02*
X117975361Y-93101339I11J-174961D01*
G01*
X102342926Y-123360678D02*
X99546049Y-120563801D01*
X98485389Y-115817723D02*
G75*
G02*
X98725389Y-115577789I240011J-77D01*
G01*
D10*
X79450390Y-74045731D02*
G75*
G02*
X79690369Y-74285731I10J-239969D01*
G01*
D11*
X110126578Y-99807914D02*
G75*
G02*
X110126620Y-100055444I-123878J-123786D01*
G01*
X119401266Y-64551339D02*
X120393606Y-64551339D01*
X108866220Y-59413703D02*
X108718160Y-59265643D01*
X108563460Y-58558538D02*
G75*
G02*
X109425266Y-58558538I430903J-430899D01*
G01*
X113108304Y-107526339D02*
G75*
G02*
X113322454Y-107312104I214196J39D01*
G01*
X109510389Y-68301338D02*
G75*
G02*
X108885362Y-67676339I11J625038D01*
G01*
X116491317Y-114986339D02*
X116491317Y-115411339D01*
X111348586Y-74856339D02*
X111348586Y-74231340D01*
D10*
X83410000Y-71448946D02*
X83410000Y-71328946D01*
X86120000Y-78455000D02*
X86120000Y-76980000D01*
D11*
X92070000Y-44893750D02*
X92030000Y-40206250D01*
X111151884Y-97368397D02*
X110992787Y-97209297D01*
X115116317Y-116036339D02*
G75*
G02*
X114491361Y-115411339I-17J624939D01*
G01*
D10*
X93682893Y-86910393D02*
G75*
G02*
X94390004Y-88617500I-1707093J-1707107D01*
G01*
D11*
X102170000Y-44873750D02*
X102130000Y-40186250D01*
X111540793Y-98393699D02*
X111116528Y-97969434D01*
X112220694Y-67594231D02*
G75*
G02*
X110513588Y-68301351I-1707094J1707031D01*
G01*
D10*
X84410000Y-69517956D02*
X84410000Y-42240000D01*
D11*
X109710389Y-68301338D02*
X110327191Y-68301338D01*
D10*
X84454999Y-77565000D02*
G75*
G02*
X83747889Y-79272103I-2414199J0D01*
G01*
D11*
X111717569Y-99100806D02*
G75*
G02*
X110833687Y-99100806I-441941J441941D01*
G01*
X111947383Y-96502192D02*
G75*
G02*
X111699856Y-96502231I-123783J123892D01*
G01*
D10*
X95097106Y-102725317D02*
G75*
G02*
X94389959Y-101018212I1706994J1707117D01*
G01*
D11*
X110957431Y-97810339D02*
X110833688Y-97686593D01*
X63630000Y-41290000D02*
X73590000Y-41290000D01*
X117534499Y-73698184D02*
X135925501Y-73698184D01*
X109898588Y-74856339D02*
X109898588Y-75281338D01*
X113116317Y-115586339D02*
X113316317Y-115586339D01*
X109108304Y-107312189D02*
X109108304Y-106940489D01*
D10*
X78730390Y-74645731D02*
X79450390Y-74645731D01*
X86657108Y-82536339D02*
X86657108Y-81616339D01*
X78490390Y-72605731D02*
X78490390Y-72485731D01*
D11*
X109030559Y-100903932D02*
G75*
G02*
X109030586Y-101787841I-442059J-441968D01*
G01*
X117116317Y-115586339D02*
X117316317Y-115586339D01*
X110727619Y-98358346D02*
X111151883Y-98782610D01*
X115116317Y-116036339D02*
X115316317Y-116036339D01*
X105186390Y-67851339D02*
X105710389Y-67851339D01*
X98035389Y-118189537D02*
X98035389Y-111914183D01*
X109322454Y-105254639D02*
X109522454Y-105254639D01*
X109135781Y-60275508D02*
X108852938Y-59992665D01*
X110674588Y-97527496D02*
X110374070Y-97226975D01*
D10*
X94850000Y-77329522D02*
X94850000Y-71720000D01*
D11*
X111081178Y-96519868D02*
X111381698Y-96820388D01*
X116600389Y-94651339D02*
X116094283Y-94651339D01*
X113723587Y-74231340D02*
X114440928Y-74231339D01*
X109278051Y-98322994D02*
G75*
G02*
X109278002Y-98075455I123749J123794D01*
G01*
X120393606Y-64101339D02*
X121170389Y-64101339D01*
X112348586Y-73631340D02*
X112348586Y-74231340D01*
X98485389Y-112100579D02*
X98485389Y-114737723D01*
X89370000Y-44683750D02*
X89330000Y-39996250D01*
X109579963Y-60127449D02*
X109431902Y-59979388D01*
X117800389Y-92476339D02*
G75*
G02*
X118425361Y-93101339I11J-624961D01*
G01*
X98485389Y-115817723D02*
X98485389Y-115937723D01*
X108736604Y-105840489D02*
G75*
G02*
X109322454Y-105254604I585896J-11D01*
G01*
X113108304Y-108412189D02*
G75*
G02*
X112522454Y-108998004I-585804J-11D01*
G01*
X106426186Y-63054949D02*
G75*
G02*
X106426142Y-62715495I169714J169749D01*
G01*
X106475684Y-63104447D02*
X106426186Y-63054949D01*
X118401266Y-62876339D02*
G75*
G02*
X119026261Y-63501339I34J-624961D01*
G01*
X115491317Y-113761339D02*
G75*
G02*
X116116317Y-113136317I624983J39D01*
G01*
D10*
X94109609Y-80329802D02*
X94548015Y-80768208D01*
D11*
X110835746Y-58305982D02*
X112608219Y-56533509D01*
X118026266Y-63926339D02*
G75*
G02*
X117401266Y-64551366I-625066J39D01*
G01*
X117941317Y-114986339D02*
G75*
G02*
X118116317Y-114811317I174983J39D01*
G01*
D10*
X87257108Y-81616339D02*
X87257108Y-82536339D01*
D11*
X108570941Y-101611039D02*
G75*
G02*
X108323452Y-101611039I-123744J123747D01*
G01*
X109108304Y-106940489D02*
X109108304Y-105840489D01*
X110139013Y-59002719D02*
G75*
G02*
X109277207Y-59002719I-430903J430906D01*
G01*
X105885390Y-67676339D02*
X105885390Y-67451340D01*
X110898588Y-74856339D02*
X110898588Y-74231340D01*
X111108304Y-106940489D02*
X111108304Y-105840489D01*
D10*
X79690390Y-73205731D02*
X79690390Y-73085731D01*
D11*
X116941317Y-114361339D02*
X116941317Y-114986339D01*
X110126578Y-99807914D02*
X109702313Y-99383649D01*
X109510389Y-67851340D02*
X109710389Y-67851340D01*
X112608218Y-56533508D02*
G75*
G02*
X117729540Y-54412206I5121282J-5121292D01*
G01*
D10*
X94972278Y-80343943D02*
G75*
G02*
X94972229Y-80683306I-169778J-169657D01*
G01*
D11*
X117800389Y-92476339D02*
X117600389Y-92476339D01*
X109384119Y-99065454D02*
X108959855Y-98641190D01*
X111941317Y-115411339D02*
X111941317Y-114986339D01*
X48660000Y-41250000D02*
X58620000Y-41250000D01*
X106939789Y-81668130D02*
X106953930Y-81653986D01*
X112491317Y-114361339D02*
X112491317Y-114811339D01*
X118704499Y-113888184D02*
X137095501Y-113888184D01*
X103265389Y-66284097D02*
G75*
G02*
X103972498Y-64576992I2414211J-3D01*
G01*
X109723587Y-74231340D02*
G75*
G02*
X110348560Y-74856339I13J-624960D01*
G01*
X109543216Y-99224554D02*
X109384119Y-99065454D01*
X107510389Y-68876339D02*
G75*
G02*
X107335361Y-68701338I11J175039D01*
G01*
X107863836Y-99737209D02*
G75*
G02*
X107863872Y-99489754I123764J123709D01*
G01*
D10*
X87617108Y-82776339D02*
X87643661Y-82776339D01*
D11*
X116094283Y-94201339D02*
X115748233Y-94201339D01*
X110898588Y-75281338D02*
G75*
G02*
X110723587Y-75456288I-174988J38D01*
G01*
X111108304Y-108412189D02*
G75*
G02*
X110522454Y-108998004I-585804J-11D01*
G01*
X114693407Y-107312189D02*
X114847371Y-107312189D01*
D10*
X78490390Y-72008901D02*
X78490390Y-63580390D01*
D11*
X117576266Y-63501339D02*
G75*
G02*
X118201266Y-62876266I625034J39D01*
G01*
X109425266Y-58558538D02*
X109573327Y-58706599D01*
X111941317Y-113761339D02*
G75*
G02*
X112116317Y-113586317I174983J39D01*
G01*
D13*
%TO.C,U2*%
G36*
X72850200Y-126356100D02*
G01*
X69649800Y-126356100D01*
X69649800Y-124044700D01*
X72850200Y-124044700D01*
X72850200Y-126356100D01*
G37*
D14*
%TO.C,J16*%
X52984050Y-40571000D02*
X52711000Y-40571000D01*
X52711000Y-44485800D01*
X52984050Y-44485800D01*
X52984050Y-45701800D01*
X49336000Y-45701800D01*
X49336000Y-39355000D01*
X52984050Y-39355000D01*
X52984050Y-40571000D01*
G36*
X52984050Y-40571000D02*
G01*
X52711000Y-40571000D01*
X52711000Y-44485800D01*
X52984050Y-44485800D01*
X52984050Y-45701800D01*
X49336000Y-45701800D01*
X49336000Y-39355000D01*
X52984050Y-39355000D01*
X52984050Y-40571000D01*
G37*
X57664000Y-45701800D02*
X54015950Y-45701800D01*
X54015950Y-44485800D01*
X54289000Y-44485800D01*
X54289000Y-40571000D01*
X54015950Y-40571000D01*
X54015950Y-39355000D01*
X57664000Y-39355000D01*
X57664000Y-45701800D01*
G36*
X57664000Y-45701800D02*
G01*
X54015950Y-45701800D01*
X54015950Y-44485800D01*
X54289000Y-44485800D01*
X54289000Y-40571000D01*
X54015950Y-40571000D01*
X54015950Y-39355000D01*
X57664000Y-39355000D01*
X57664000Y-45701800D01*
G37*
%TO.C,J15*%
X96548050Y-40662600D02*
X96275000Y-40662600D01*
X96275000Y-44577400D01*
X96548050Y-44577400D01*
X96548050Y-45793400D01*
X92900000Y-45793400D01*
X92900000Y-39446600D01*
X96548050Y-39446600D01*
X96548050Y-40662600D01*
G36*
X96548050Y-40662600D02*
G01*
X96275000Y-40662600D01*
X96275000Y-44577400D01*
X96548050Y-44577400D01*
X96548050Y-45793400D01*
X92900000Y-45793400D01*
X92900000Y-39446600D01*
X96548050Y-39446600D01*
X96548050Y-40662600D01*
G37*
X101228000Y-45793400D02*
X97579950Y-45793400D01*
X97579950Y-44577400D01*
X97853000Y-44577400D01*
X97853000Y-40662600D01*
X97579950Y-40662600D01*
X97579950Y-39446600D01*
X101228000Y-39446600D01*
X101228000Y-45793400D01*
G36*
X101228000Y-45793400D02*
G01*
X97579950Y-45793400D01*
X97579950Y-44577400D01*
X97853000Y-44577400D01*
X97853000Y-40662600D01*
X97579950Y-40662600D01*
X97579950Y-39446600D01*
X101228000Y-39446600D01*
X101228000Y-45793400D01*
G37*
%TO.C,J13*%
X83898050Y-40581000D02*
X83625000Y-40581000D01*
X83625000Y-44495800D01*
X83898050Y-44495800D01*
X83898050Y-45711800D01*
X80250000Y-45711800D01*
X80250000Y-39365000D01*
X83898050Y-39365000D01*
X83898050Y-40581000D01*
G36*
X83898050Y-40581000D02*
G01*
X83625000Y-40581000D01*
X83625000Y-44495800D01*
X83898050Y-44495800D01*
X83898050Y-45711800D01*
X80250000Y-45711800D01*
X80250000Y-39365000D01*
X83898050Y-39365000D01*
X83898050Y-40581000D01*
G37*
X88578000Y-45711800D02*
X84929950Y-45711800D01*
X84929950Y-44495800D01*
X85203000Y-44495800D01*
X85203000Y-40581000D01*
X84929950Y-40581000D01*
X84929950Y-39365000D01*
X88578000Y-39365000D01*
X88578000Y-45711800D01*
G36*
X88578000Y-45711800D02*
G01*
X84929950Y-45711800D01*
X84929950Y-44495800D01*
X85203000Y-44495800D01*
X85203000Y-40581000D01*
X84929950Y-40581000D01*
X84929950Y-39365000D01*
X88578000Y-39365000D01*
X88578000Y-45711800D01*
G37*
D13*
%TO.C,U4*%
G36*
X57180001Y-111742501D02*
G01*
X57180001Y-112617501D01*
X57130001Y-112667500D01*
X55529999Y-112667500D01*
X55479999Y-112617501D01*
X55479999Y-111742501D01*
X55529999Y-111692501D01*
X57130001Y-111692501D01*
X57180001Y-111742501D01*
G37*
D14*
%TO.C,J17*%
X68037250Y-40581000D02*
X67764200Y-40581000D01*
X67764200Y-44495800D01*
X68037250Y-44495800D01*
X68037250Y-45711800D01*
X64389200Y-45711800D01*
X64389200Y-39365000D01*
X68037250Y-39365000D01*
X68037250Y-40581000D01*
G36*
X68037250Y-40581000D02*
G01*
X67764200Y-40581000D01*
X67764200Y-44495800D01*
X68037250Y-44495800D01*
X68037250Y-45711800D01*
X64389200Y-45711800D01*
X64389200Y-39365000D01*
X68037250Y-39365000D01*
X68037250Y-40581000D01*
G37*
X72717200Y-45711800D02*
X69069150Y-45711800D01*
X69069150Y-44495800D01*
X69342200Y-44495800D01*
X69342200Y-40581000D01*
X69069150Y-40581000D01*
X69069150Y-39365000D01*
X72717200Y-39365000D01*
X72717200Y-45711800D01*
G36*
X72717200Y-45711800D02*
G01*
X69069150Y-45711800D01*
X69069150Y-44495800D01*
X69342200Y-44495800D01*
X69342200Y-40581000D01*
X69069150Y-40581000D01*
X69069150Y-39365000D01*
X72717200Y-39365000D01*
X72717200Y-45711800D01*
G37*
%TD*%
D15*
%TO.C,U2*%
X73500000Y-118799600D03*
X72000001Y-118799600D03*
X70499999Y-118799600D03*
X68999999Y-118799600D03*
D16*
X71220000Y-125090000D03*
%TD*%
D17*
%TO.C,D3*%
X62625000Y-124500000D03*
X64375000Y-124500000D03*
%TD*%
D18*
%TO.C,R14*%
X62690000Y-126420000D03*
X64515000Y-126420000D03*
%TD*%
D19*
%TO.C,L8*%
X86432500Y-76500000D03*
X87567500Y-76500000D03*
%TD*%
%TO.C,L7*%
X83182500Y-76500000D03*
X84317500Y-76500000D03*
%TD*%
D20*
%TO.C,C62*%
X87885000Y-76100000D03*
X87885000Y-74965000D03*
%TD*%
%TO.C,C61*%
X86105000Y-76087500D03*
X86105000Y-74952500D03*
%TD*%
%TO.C,C60*%
X84450000Y-75990000D03*
X84450000Y-74855000D03*
%TD*%
%TO.C,C59*%
X83000000Y-75977500D03*
X83000000Y-74842500D03*
%TD*%
D21*
%TO.C,J16*%
X53500000Y-40090000D03*
D22*
X51214000Y-42528400D03*
D23*
X55786000Y-42528400D03*
D24*
X52433200Y-40090000D03*
X52230000Y-42630000D03*
X52230000Y-43900000D03*
X52433200Y-45170000D03*
X54566800Y-45170000D03*
X54770000Y-43900000D03*
X54770000Y-42630000D03*
X54770000Y-41360000D03*
X54566800Y-40090000D03*
%TD*%
D21*
%TO.C,J15*%
X97064000Y-40181600D03*
D22*
X94778000Y-42620000D03*
D23*
X99350000Y-42620000D03*
D24*
X95997200Y-40181600D03*
X95794000Y-42721600D03*
X95794000Y-43991600D03*
X95997200Y-45261600D03*
X98130800Y-45261600D03*
X98334000Y-43991600D03*
X98334000Y-42721600D03*
X98334000Y-41451600D03*
X98130800Y-40181600D03*
%TD*%
D21*
%TO.C,J13*%
X84414000Y-40100000D03*
D22*
X82128000Y-42538400D03*
D23*
X86700000Y-42538400D03*
D24*
X83347200Y-40100000D03*
X83144000Y-42640000D03*
X83144000Y-43910000D03*
X83347200Y-45180000D03*
X85480800Y-45180000D03*
X85684000Y-43910000D03*
X85684000Y-42640000D03*
X85684000Y-41370000D03*
X85480800Y-40100000D03*
%TD*%
D25*
%TO.C,C23*%
X51875000Y-121000000D03*
X55000000Y-121000000D03*
%TD*%
%TO.C,C22*%
X51875000Y-123000000D03*
X55000000Y-123000000D03*
%TD*%
D26*
%TO.C,U10*%
X88862500Y-115712500D03*
X89362500Y-115712500D03*
X89862500Y-115712500D03*
X90362500Y-115712500D03*
X90862500Y-115712500D03*
X90862500Y-112812500D03*
X90362500Y-112812500D03*
X89862500Y-112812500D03*
X89362500Y-112812500D03*
X88862500Y-112812500D03*
D27*
X89862500Y-114262500D03*
%TD*%
D28*
%TO.C,R26*%
X61860000Y-83627500D03*
X61860000Y-81802500D03*
%TD*%
D29*
%TO.C,Y2*%
X56730000Y-85810000D03*
X58830000Y-85810000D03*
X58830000Y-84160000D03*
X56730000Y-84160000D03*
%TD*%
D18*
%TO.C,R3*%
X77782500Y-108390000D03*
X75957500Y-108390000D03*
%TD*%
D30*
%TO.C,FB1*%
X74400000Y-104810000D03*
X74400000Y-103060000D03*
%TD*%
D31*
%TO.C,R29*%
X55665235Y-88687735D03*
X54374765Y-87397265D03*
%TD*%
D32*
%TO.C,H1*%
X131340389Y-44426339D03*
%TD*%
D33*
%TO.C,R12*%
X37977500Y-112080000D03*
X39802500Y-112080000D03*
%TD*%
D34*
%TO.C,D2*%
X37977500Y-114140000D03*
X39727500Y-114140000D03*
%TD*%
D28*
%TO.C,R15*%
X49980000Y-113095000D03*
X49980000Y-111270000D03*
%TD*%
D35*
%TO.C,J3*%
X79640000Y-135250000D03*
D36*
X76840000Y-135250000D03*
D37*
X82440000Y-135250000D03*
%TD*%
D28*
%TO.C,R19*%
X85150000Y-109332500D03*
X85150000Y-107507500D03*
%TD*%
D38*
%TO.C,J8*%
X41630000Y-117510000D03*
X41630000Y-123290000D03*
D39*
X42750000Y-117200000D03*
X42750000Y-118000000D03*
D40*
X42750000Y-119150000D03*
X42750000Y-120150000D03*
X42750000Y-120650000D03*
X42750000Y-121650000D03*
D39*
X42750000Y-122800000D03*
X42750000Y-123600000D03*
X42750000Y-123600000D03*
X42750000Y-122800000D03*
D40*
X42750000Y-122150000D03*
X42750000Y-121150000D03*
X42750000Y-119650000D03*
X42750000Y-118650000D03*
D39*
X42750000Y-118000000D03*
X42750000Y-117200000D03*
D41*
X42150000Y-116080000D03*
D42*
X37950000Y-116080000D03*
D41*
X42150000Y-124720000D03*
D42*
X37950000Y-124720000D03*
%TD*%
D18*
%TO.C,R27*%
X60192500Y-81775000D03*
X58367500Y-81775000D03*
%TD*%
D43*
%TO.C,D1*%
X73030000Y-108150000D03*
X73030000Y-109900000D03*
%TD*%
D44*
%TO.C,TP2*%
X85170000Y-112720000D03*
%TD*%
D26*
%TO.C,U8*%
X79550000Y-113000000D03*
X80050000Y-113000000D03*
X80550000Y-113000000D03*
X81050000Y-113000000D03*
X81550000Y-113000000D03*
X81550000Y-110100000D03*
X81050000Y-110100000D03*
X80550000Y-110100000D03*
X80050000Y-110100000D03*
X79550000Y-110100000D03*
D27*
X80550000Y-111550000D03*
%TD*%
D45*
%TO.C,U5*%
X54932500Y-125510000D03*
X54932500Y-126460000D03*
X54932500Y-127410000D03*
X57207500Y-127410000D03*
X57207500Y-126460000D03*
X57207500Y-125510000D03*
%TD*%
D28*
%TO.C,R6*%
X82650000Y-108232500D03*
X82650000Y-106407500D03*
%TD*%
D46*
%TO.C,SW1*%
X58100000Y-136702500D03*
X49900000Y-136702500D03*
D47*
X56000000Y-136702500D03*
D48*
X54000000Y-136702500D03*
X52000000Y-136702500D03*
%TD*%
D49*
%TO.C,U1*%
X100767767Y-109767767D03*
D50*
X101078898Y-109414215D03*
X101432450Y-109060662D03*
X101786004Y-108707108D03*
X102139557Y-108353555D03*
X102493112Y-108000000D03*
X102846665Y-107646448D03*
X103200217Y-107292895D03*
X103553772Y-106939340D03*
X103907325Y-106585787D03*
X104260879Y-106232233D03*
X104614432Y-105878681D03*
D49*
X104967984Y-105567550D03*
X104614432Y-105213997D03*
X104260879Y-104860445D03*
X103907325Y-104506891D03*
X103553772Y-104153338D03*
X103200217Y-103799783D03*
X102846665Y-103446230D03*
X102493112Y-103092678D03*
X102139557Y-102739123D03*
X101786004Y-102385570D03*
X101432450Y-102032016D03*
X101078898Y-101678463D03*
X100725345Y-101324911D03*
D50*
X100414214Y-101678463D03*
X100060662Y-102032016D03*
X99707108Y-102385570D03*
X99353555Y-102739123D03*
X99000000Y-103092678D03*
X98646447Y-103446230D03*
X98292895Y-103799783D03*
X97939340Y-104153338D03*
X97585787Y-104506891D03*
X97232233Y-104860445D03*
X96878680Y-105213997D03*
D49*
X96525128Y-105525128D03*
X96878680Y-105878681D03*
X97232233Y-106232233D03*
X97585787Y-106585787D03*
X97939340Y-106939340D03*
X98292895Y-107292895D03*
X98646447Y-107646448D03*
X99000000Y-108000000D03*
X99353555Y-108353555D03*
X99707108Y-108707108D03*
X100060662Y-109060662D03*
X100414214Y-109414215D03*
D51*
X102620389Y-105546339D03*
X100746556Y-103672506D03*
X98872723Y-105546339D03*
X100746556Y-107420172D03*
%TD*%
D28*
%TO.C,R25*%
X63860000Y-85695000D03*
X63860000Y-83870000D03*
%TD*%
D18*
%TO.C,R4*%
X81152500Y-104920000D03*
X79327500Y-104920000D03*
%TD*%
D52*
%TO.C,J1*%
X39000000Y-65820000D03*
D53*
X39000000Y-68360000D03*
X39000000Y-70900000D03*
X39000000Y-73440000D03*
%TD*%
D54*
%TO.C,J7*%
X67050000Y-131550000D03*
D55*
X67050000Y-137550000D03*
D56*
X71750000Y-134550000D03*
%TD*%
D30*
%TO.C,D5*%
X51810000Y-113012500D03*
X51810000Y-111262500D03*
%TD*%
D28*
%TO.C,R28*%
X54200000Y-84877500D03*
X54200000Y-83052500D03*
%TD*%
D57*
%TO.C,U9*%
X73490389Y-86252139D03*
X73990388Y-86252139D03*
X74490390Y-86252139D03*
X74990389Y-86252139D03*
X75490388Y-86252139D03*
X75990389Y-86252139D03*
X76490389Y-86252139D03*
X76990390Y-86252139D03*
X77490389Y-86252139D03*
X77990388Y-86252139D03*
X78490390Y-86252139D03*
X78990389Y-86252139D03*
D58*
X79466189Y-85776339D03*
X79466189Y-85276340D03*
X79466189Y-84776338D03*
X79466189Y-84276339D03*
X79466189Y-83776340D03*
X79466189Y-83276339D03*
X79466189Y-82776339D03*
X79466189Y-82276338D03*
X79466189Y-81776339D03*
X79466189Y-81276340D03*
X79466189Y-80776338D03*
X79466189Y-80276339D03*
D57*
X78990389Y-79800539D03*
X78490390Y-79800539D03*
X77990388Y-79800539D03*
X77490389Y-79800539D03*
X76990390Y-79800539D03*
X76490389Y-79800539D03*
X75990389Y-79800539D03*
X75490388Y-79800539D03*
X74990389Y-79800539D03*
X74490390Y-79800539D03*
X73990388Y-79800539D03*
X73490389Y-79800539D03*
D58*
X73014589Y-80276339D03*
X73014589Y-80776338D03*
X73014589Y-81276340D03*
X73014589Y-81776339D03*
X73014589Y-82276338D03*
X73014589Y-82776339D03*
X73014589Y-83276339D03*
X73014589Y-83776340D03*
X73014589Y-84276339D03*
X73014589Y-84776338D03*
X73014589Y-85276340D03*
X73014589Y-85776339D03*
D59*
X76240389Y-83026339D03*
%TD*%
D60*
%TO.C,R17*%
X90550000Y-119267500D03*
X90550000Y-121092500D03*
%TD*%
D32*
%TO.C,H4*%
X41340389Y-134426339D03*
%TD*%
D61*
%TO.C,U4*%
X55379999Y-113542500D03*
X56330000Y-113542500D03*
X57280001Y-113542500D03*
X57280001Y-110942500D03*
X55379999Y-110942500D03*
D62*
X57430000Y-112242500D03*
X56330000Y-112242500D03*
X55230000Y-112242500D03*
%TD*%
D44*
%TO.C,TP1*%
X76740000Y-111170000D03*
%TD*%
D63*
%TO.C,U7*%
X99598789Y-66684739D03*
D64*
X99547989Y-67326338D03*
X99547989Y-67826339D03*
X99547989Y-68326338D03*
X99547989Y-68826340D03*
X99547989Y-69326339D03*
X99547989Y-69826338D03*
X99547989Y-70326340D03*
X99547989Y-70826339D03*
X99547989Y-71326340D03*
D63*
X99598789Y-71967939D03*
D64*
X100240388Y-72018739D03*
X100740389Y-72018739D03*
X101240388Y-72018739D03*
X101740390Y-72018739D03*
X102240389Y-72018739D03*
X102740388Y-72018739D03*
X103240390Y-72018739D03*
X103740389Y-72018739D03*
X104240390Y-72018739D03*
D63*
X104881989Y-71967939D03*
D64*
X104932789Y-71326340D03*
X104932789Y-70826339D03*
X104932789Y-70326340D03*
X104932789Y-69826338D03*
X104932789Y-69326339D03*
X104932789Y-68826340D03*
X104932789Y-68326338D03*
X104932789Y-67826339D03*
X104932789Y-67326338D03*
D63*
X104881989Y-66684739D03*
D64*
X104240390Y-66633939D03*
X103740389Y-66633939D03*
X103240390Y-66633939D03*
X102740388Y-66633939D03*
X102240389Y-66633939D03*
X101740390Y-66633939D03*
X101240388Y-66633939D03*
X100740389Y-66633939D03*
X100240388Y-66633939D03*
D65*
X101080389Y-68166339D03*
X103400389Y-68166339D03*
X101080389Y-70486339D03*
X103400389Y-70486339D03*
%TD*%
D60*
%TO.C,R34*%
X78580000Y-114627500D03*
X78580000Y-116452500D03*
%TD*%
D34*
%TO.C,D6*%
X37927500Y-127080000D03*
X39677500Y-127080000D03*
%TD*%
D18*
%TO.C,R18*%
X89542500Y-108500000D03*
X87717500Y-108500000D03*
%TD*%
D28*
%TO.C,R21*%
X85220000Y-105572500D03*
X85220000Y-103747500D03*
%TD*%
D18*
%TO.C,R8*%
X90522500Y-117590000D03*
X88697500Y-117590000D03*
%TD*%
D66*
%TO.C,L3*%
X61160000Y-119600000D03*
D67*
X57260000Y-119600000D03*
%TD*%
D33*
%TO.C,R16*%
X37867500Y-129150000D03*
X39692500Y-129150000D03*
%TD*%
%TO.C,R10*%
X46182111Y-119780000D03*
X48007111Y-119780000D03*
%TD*%
D52*
%TO.C,J4*%
X109560000Y-42500000D03*
D53*
X112100000Y-42500000D03*
X114640000Y-42500000D03*
X117180000Y-42500000D03*
%TD*%
D32*
%TO.C,H2*%
X131340389Y-134426339D03*
%TD*%
D28*
%TO.C,R20*%
X87130000Y-105672500D03*
X87130000Y-103847500D03*
%TD*%
%TO.C,R1*%
X101320000Y-80232500D03*
X101320000Y-78407500D03*
%TD*%
D52*
%TO.C,J14*%
X39000000Y-77780000D03*
D53*
X39000000Y-80320000D03*
X39000000Y-82860000D03*
X39000000Y-85400000D03*
X39000000Y-87940000D03*
%TD*%
D28*
%TO.C,R7*%
X71070000Y-109900000D03*
X71070000Y-108075000D03*
%TD*%
D68*
%TO.C,R9*%
X66340000Y-109930000D03*
X63240000Y-109930000D03*
%TD*%
D69*
%TO.C,J6*%
X42570000Y-94300000D03*
X42570000Y-107000000D03*
D70*
X40030000Y-97090000D03*
D71*
X38250000Y-98106000D03*
X40030000Y-99122000D03*
X38250000Y-100138000D03*
X40030000Y-101154000D03*
X38250000Y-102170000D03*
X40030000Y-103186000D03*
X38250000Y-104202000D03*
D72*
X39140000Y-92520000D03*
X39140000Y-108780000D03*
%TD*%
D32*
%TO.C,H3*%
X41340389Y-44426339D03*
%TD*%
D18*
%TO.C,R22*%
X77852500Y-88760000D03*
X76027500Y-88760000D03*
%TD*%
D73*
%TO.C,R13*%
X66520000Y-114070000D03*
X66520000Y-117170000D03*
%TD*%
D33*
%TO.C,R11*%
X46162111Y-121300000D03*
X47987111Y-121300000D03*
%TD*%
D74*
%TO.C,R2*%
X99994765Y-98184765D03*
X101285235Y-99475235D03*
%TD*%
D52*
%TO.C,J5*%
X38900000Y-61140000D03*
D53*
X38900000Y-58600000D03*
X38900000Y-56060000D03*
X38900000Y-53520000D03*
X38900000Y-50980000D03*
%TD*%
D18*
%TO.C,R5*%
X81102500Y-102980000D03*
X79277500Y-102980000D03*
%TD*%
D21*
%TO.C,J17*%
X68553200Y-40100000D03*
D24*
X67486400Y-40100000D03*
X67283200Y-42640000D03*
X67283200Y-43910000D03*
X67486400Y-45180000D03*
X69620000Y-45180000D03*
X69823200Y-43910000D03*
X69823200Y-42640000D03*
X69823200Y-41370000D03*
X69620000Y-40100000D03*
%TD*%
D75*
%TO.C,C3*%
X65407500Y-83970000D03*
X67132500Y-83970000D03*
%TD*%
%TO.C,C30*%
X113220389Y-102256339D03*
X114945389Y-102256339D03*
%TD*%
D76*
%TO.C,C27*%
X98790000Y-64830000D03*
X98790000Y-63105000D03*
%TD*%
D75*
%TO.C,C5*%
X97667500Y-73400000D03*
X99392500Y-73400000D03*
%TD*%
D76*
%TO.C,C54*%
X89410000Y-106572500D03*
X89410000Y-104847500D03*
%TD*%
D77*
%TO.C,C35*%
X101420509Y-111686459D03*
X102640269Y-112906219D03*
%TD*%
D78*
%TO.C,C36*%
X92829880Y-109119880D03*
X91610120Y-107900120D03*
%TD*%
D79*
%TO.C,C16*%
X52940000Y-126497500D03*
X52940000Y-128222500D03*
%TD*%
D80*
%TO.C,C20*%
X59472500Y-123910000D03*
X57747500Y-123910000D03*
%TD*%
D76*
%TO.C,C46*%
X79460000Y-108302500D03*
X79460000Y-106577500D03*
%TD*%
D77*
%TO.C,C9*%
X105860120Y-74000120D03*
X107079880Y-75219880D03*
%TD*%
D75*
%TO.C,C64*%
X63777500Y-81800000D03*
X65502500Y-81800000D03*
%TD*%
%TO.C,C48*%
X75957500Y-106900000D03*
X77682500Y-106900000D03*
%TD*%
%TO.C,C53*%
X92307500Y-117600000D03*
X94032500Y-117600000D03*
%TD*%
D79*
%TO.C,C1*%
X79410000Y-88817499D03*
X79410000Y-90542501D03*
%TD*%
D75*
%TO.C,C34*%
X114910389Y-100366339D03*
X116635391Y-100366339D03*
%TD*%
D76*
%TO.C,C66*%
X56270000Y-81315000D03*
X56270000Y-79590000D03*
%TD*%
D75*
%TO.C,C52*%
X90957500Y-111000000D03*
X92682500Y-111000000D03*
%TD*%
%TO.C,C49*%
X75960000Y-105050000D03*
X77685000Y-105050000D03*
%TD*%
D80*
%TO.C,C13*%
X48017111Y-118020000D03*
X46292111Y-118020000D03*
%TD*%
D77*
%TO.C,C6*%
X105730120Y-75950120D03*
X106949880Y-77169880D03*
%TD*%
D76*
%TO.C,C65*%
X54240000Y-81307500D03*
X54240000Y-79582500D03*
%TD*%
D80*
%TO.C,C7*%
X97032500Y-62450000D03*
X95307500Y-62450000D03*
%TD*%
D79*
%TO.C,C14*%
X64270000Y-114337500D03*
X64270000Y-116062500D03*
%TD*%
D75*
%TO.C,C10*%
X111607500Y-62200000D03*
X113332500Y-62200000D03*
%TD*%
D78*
%TO.C,C33*%
X95609880Y-106749880D03*
X94390120Y-105530120D03*
%TD*%
D80*
%TO.C,C11*%
X97050000Y-65540000D03*
X95325000Y-65540000D03*
%TD*%
D75*
%TO.C,C50*%
X75967500Y-103010000D03*
X77692500Y-103010000D03*
%TD*%
D76*
%TO.C,C15*%
X59190000Y-113462500D03*
X59190000Y-111737500D03*
%TD*%
%TO.C,C47*%
X81070000Y-108172500D03*
X81070000Y-106447500D03*
%TD*%
D80*
%TO.C,C28*%
X97025001Y-64070000D03*
X95299999Y-64070000D03*
%TD*%
D79*
%TO.C,C56*%
X81300000Y-85657500D03*
X81300000Y-87382500D03*
%TD*%
%TO.C,C45*%
X76910000Y-114717500D03*
X76910000Y-116442500D03*
%TD*%
D78*
%TO.C,C32*%
X94259880Y-107889880D03*
X93040120Y-106670120D03*
%TD*%
%TO.C,C37*%
X98319880Y-99449880D03*
X97100120Y-98230120D03*
%TD*%
D77*
%TO.C,C31*%
X101510509Y-114676459D03*
X102730269Y-115896219D03*
%TD*%
D80*
%TO.C,C44*%
X82960000Y-129480000D03*
X81235000Y-129480000D03*
%TD*%
D76*
%TO.C,C2*%
X68710000Y-85732500D03*
X68710000Y-84007500D03*
%TD*%
%TO.C,C8*%
X100320000Y-64840000D03*
X100320000Y-63115000D03*
%TD*%
D80*
%TO.C,C55*%
X89050000Y-110680000D03*
X87325000Y-110680000D03*
%TD*%
D81*
%TO.C,C25*%
X107800120Y-64669880D03*
X109019880Y-63450120D03*
%TD*%
D75*
%TO.C,C51*%
X75977500Y-101280000D03*
X77702500Y-101280000D03*
%TD*%
D79*
%TO.C,C63*%
X71630000Y-85707500D03*
X71630000Y-87432500D03*
%TD*%
D75*
%TO.C,C26*%
X97647499Y-75310000D03*
X99372501Y-75310000D03*
%TD*%
D80*
%TO.C,C12*%
X63292500Y-107850000D03*
X61567500Y-107850000D03*
%TD*%
D79*
%TO.C,C4*%
X70120000Y-87477499D03*
X70120000Y-89202501D03*
%TD*%
D76*
%TO.C,C18*%
X53680000Y-110892500D03*
X53680000Y-109167500D03*
%TD*%
M02*
